<?xml version="1.0" encoding="utf-8"?>
<!-- Generator: Adobe Illustrator 27.2.0, SVG Export Plug-In . SVG Version: 6.00 Build 0)  -->
<svg version="1.1" id="Layer_1" xmlns="http://www.w3.org/2000/svg" xmlns:xlink="http://www.w3.org/1999/xlink" x="0px" y="0px"
	 viewBox="0 0 54.72 63.62" style="enable-background:new 0 0 54.72 63.62;" xml:space="preserve">
<style type="text/css">
	.st0{fill:#4F4C4D;}
	.st1{fill:url(#SVGID_1_);}
	.st2{fill:url(#SVGID_00000171677268030495240940000000452713266193415316_);}
	
		.st3{clip-path:url(#SVGID_00000023964964453113205040000006159963630522231949_);fill:url(#SVGID_00000023253549809092255290000011896009831521296788_);}
	
		.st4{clip-path:url(#SVGID_00000023964964453113205040000006159963630522231949_);fill:url(#SVGID_00000037679117947558898550000010935664401286549665_);}
	
		.st5{clip-path:url(#SVGID_00000023964964453113205040000006159963630522231949_);fill:url(#SVGID_00000168808399425885160070000000747856343396257707_);}
	
		.st6{clip-path:url(#SVGID_00000023964964453113205040000006159963630522231949_);fill:url(#SVGID_00000078741646929101136240000014315521129707308219_);}
	
		.st7{clip-path:url(#SVGID_00000023964964453113205040000006159963630522231949_);fill:url(#SVGID_00000147213532865839763450000005141444125928178876_);}
	
		.st8{clip-path:url(#SVGID_00000023964964453113205040000006159963630522231949_);fill:url(#SVGID_00000073702517567996978820000001426349306191397273_);}
	
		.st9{clip-path:url(#SVGID_00000023964964453113205040000006159963630522231949_);fill:url(#SVGID_00000168823340524732931540000008716921261633924790_);}
	
		.st10{clip-path:url(#SVGID_00000023964964453113205040000006159963630522231949_);fill:url(#SVGID_00000049210354988729429320000008014767509100297874_);}
	
		.st11{clip-path:url(#SVGID_00000023964964453113205040000006159963630522231949_);fill:url(#SVGID_00000158013601268538406980000009111975887081812148_);}
	
		.st12{clip-path:url(#SVGID_00000023964964453113205040000006159963630522231949_);fill:url(#SVGID_00000091005687371765606500000002725021603548312739_);}
	
		.st13{clip-path:url(#SVGID_00000023964964453113205040000006159963630522231949_);fill:url(#SVGID_00000057833255929338110020000011355428062823024827_);}
	
		.st14{clip-path:url(#SVGID_00000023964964453113205040000006159963630522231949_);fill:url(#SVGID_00000088101147228509823160000006837849897987221414_);}
	
		.st15{clip-path:url(#SVGID_00000023964964453113205040000006159963630522231949_);fill:url(#SVGID_00000106148531011522303870000011503007720952852376_);}
	
		.st16{clip-path:url(#SVGID_00000023964964453113205040000006159963630522231949_);fill:url(#SVGID_00000107569957430408723170000005772426475843329680_);}
	
		.st17{clip-path:url(#SVGID_00000023964964453113205040000006159963630522231949_);fill:url(#SVGID_00000119825938875680263260000000028442151288027812_);}
	
		.st18{clip-path:url(#SVGID_00000023964964453113205040000006159963630522231949_);fill:url(#SVGID_00000121967361982326890380000010520498419099477429_);}
	.st19{clip-path:url(#SVGID_00000023964964453113205040000006159963630522231949_);}
	.st20{fill:url(#SVGID_00000134247721434594668590000009503451263598529163_);}
	.st21{fill:url(#SVGID_00000132794434585927486330000002338743036927227536_);}
	.st22{fill:url(#SVGID_00000142856813538006439060000001353862505495907260_);}
	.st23{fill:url(#SVGID_00000023261142932480771170000002145121835238409621_);}
	
		.st24{clip-path:url(#SVGID_00000023964964453113205040000006159963630522231949_);fill:url(#SVGID_00000166666063355328564840000008896300550601959331_);}
	
		.st25{clip-path:url(#SVGID_00000023964964453113205040000006159963630522231949_);fill:url(#SVGID_00000119105724633555133390000017887390863881048253_);}
	
		.st26{clip-path:url(#SVGID_00000023964964453113205040000006159963630522231949_);fill:url(#SVGID_00000098213610667604101680000010443899690516981928_);}
	
		.st27{clip-path:url(#SVGID_00000023964964453113205040000006159963630522231949_);fill:url(#SVGID_00000011000049219113826090000004419372540391736253_);}
	
		.st28{clip-path:url(#SVGID_00000023964964453113205040000006159963630522231949_);fill:url(#SVGID_00000083787629529769656910000017048621497040354723_);}
	
		.st29{clip-path:url(#SVGID_00000023964964453113205040000006159963630522231949_);fill:url(#SVGID_00000155852872036505251410000006292432926713023633_);}
	
		.st30{clip-path:url(#SVGID_00000023964964453113205040000006159963630522231949_);fill:url(#SVGID_00000080922609117663258770000003783718961231553709_);}
	
		.st31{clip-path:url(#SVGID_00000023964964453113205040000006159963630522231949_);fill:url(#SVGID_00000183226419884515431520000013937260654860589499_);}
	
		.st32{clip-path:url(#SVGID_00000023964964453113205040000006159963630522231949_);fill:url(#SVGID_00000055699071334140675530000017298117195323131565_);}
	
		.st33{clip-path:url(#SVGID_00000023964964453113205040000006159963630522231949_);fill:url(#SVGID_00000047743282010842792410000001753966516884720283_);}
	
		.st34{clip-path:url(#SVGID_00000023964964453113205040000006159963630522231949_);fill:url(#SVGID_00000078040701978576465950000005107028462833889964_);}
	
		.st35{clip-path:url(#SVGID_00000023964964453113205040000006159963630522231949_);fill:url(#SVGID_00000054229438531390191120000010214043368278042510_);}
	
		.st36{clip-path:url(#SVGID_00000023964964453113205040000006159963630522231949_);fill:url(#SVGID_00000044870351219735552260000001887225024270775955_);}
	
		.st37{clip-path:url(#SVGID_00000023964964453113205040000006159963630522231949_);fill:url(#SVGID_00000134216528446210416830000013276178746589725839_);}
	
		.st38{clip-path:url(#SVGID_00000023964964453113205040000006159963630522231949_);fill:url(#SVGID_00000004547169621206707440000016363564126206299302_);}
	
		.st39{clip-path:url(#SVGID_00000023964964453113205040000006159963630522231949_);fill:url(#SVGID_00000048470872462024506250000011171724326031705756_);}
	.st40{fill:url(#SVGID_00000008844306961090684550000003050211074927454339_);}
	.st41{fill:url(#SVGID_00000014608590674715092350000005765293494985380799_);}
	.st42{fill:url(#SVGID_00000057840758666663423560000017299936502825544592_);}
	.st43{fill:url(#SVGID_00000155105692464568097360000007390583099943472537_);}
	
		.st44{clip-path:url(#SVGID_00000023964964453113205040000006159963630522231949_);fill:url(#SVGID_00000069387450568402969780000003671676475502115493_);}
	
		.st45{clip-path:url(#SVGID_00000023964964453113205040000006159963630522231949_);fill:url(#SVGID_00000047036186927453323360000007739223250944288926_);}
	
		.st46{clip-path:url(#SVGID_00000023964964453113205040000006159963630522231949_);fill:url(#SVGID_00000082341928354603650760000015434488057686931390_);}
	
		.st47{clip-path:url(#SVGID_00000023964964453113205040000006159963630522231949_);fill:url(#SVGID_00000120541962626108878790000009898895768064740522_);}
	
		.st48{clip-path:url(#SVGID_00000023964964453113205040000006159963630522231949_);fill:url(#SVGID_00000103260515037418825280000014722235879139585716_);}
	
		.st49{clip-path:url(#SVGID_00000023964964453113205040000006159963630522231949_);fill:url(#SVGID_00000092421691898796262850000004763571981660098440_);}
	
		.st50{clip-path:url(#SVGID_00000023964964453113205040000006159963630522231949_);fill:url(#SVGID_00000002345140854449261860000011497408276254048681_);}
	
		.st51{clip-path:url(#SVGID_00000023964964453113205040000006159963630522231949_);fill:url(#SVGID_00000127003238358398993820000014150500775299981184_);}
	
		.st52{clip-path:url(#SVGID_00000023964964453113205040000006159963630522231949_);fill:url(#SVGID_00000037652670101374142800000012527512415008850820_);}
	
		.st53{clip-path:url(#SVGID_00000023964964453113205040000006159963630522231949_);fill:url(#SVGID_00000072972493169520712430000000947881106307726753_);}
	
		.st54{clip-path:url(#SVGID_00000023964964453113205040000006159963630522231949_);fill:url(#SVGID_00000178883163984517889950000000753081095953748394_);}
	
		.st55{clip-path:url(#SVGID_00000023964964453113205040000006159963630522231949_);fill:url(#SVGID_00000092417482042684151740000008212639597042388364_);}
	
		.st56{clip-path:url(#SVGID_00000023964964453113205040000006159963630522231949_);fill:url(#SVGID_00000031171748178946885760000010137814234202391480_);}
	
		.st57{clip-path:url(#SVGID_00000023964964453113205040000006159963630522231949_);fill:url(#SVGID_00000103977974731927067740000003730138320678077091_);}
	
		.st58{clip-path:url(#SVGID_00000023964964453113205040000006159963630522231949_);fill:url(#SVGID_00000075159402272564506470000012682028412283552420_);}
	
		.st59{clip-path:url(#SVGID_00000023964964453113205040000006159963630522231949_);fill:url(#SVGID_00000007389822912921239120000005749685602489229703_);}
	.st60{fill:url(#SVGID_00000173874833483227380490000006471657922716145537_);}
	.st61{fill:url(#SVGID_00000008127592272712207930000010621169834814508180_);}
	.st62{fill:url(#SVGID_00000013903054930493725270000001355433385029225871_);}
	.st63{fill:url(#SVGID_00000087386124674219273420000007564450432428849030_);}
	
		.st64{clip-path:url(#SVGID_00000023964964453113205040000006159963630522231949_);fill:url(#SVGID_00000034802016799995905590000013490614891629862838_);}
	
		.st65{clip-path:url(#SVGID_00000023964964453113205040000006159963630522231949_);fill:url(#SVGID_00000013895043318621395190000003355372333759769224_);}
	
		.st66{clip-path:url(#SVGID_00000023964964453113205040000006159963630522231949_);fill:url(#SVGID_00000178171889165072162020000004896947716649087622_);}
	
		.st67{clip-path:url(#SVGID_00000023964964453113205040000006159963630522231949_);fill:url(#SVGID_00000068635775922020719710000010310317845866947516_);}
	
		.st68{clip-path:url(#SVGID_00000023964964453113205040000006159963630522231949_);fill:url(#SVGID_00000023997304163611518420000006289387553594385597_);}
	
		.st69{clip-path:url(#SVGID_00000023964964453113205040000006159963630522231949_);fill:url(#SVGID_00000071537499633464211780000006439157841453720982_);}
	
		.st70{clip-path:url(#SVGID_00000023964964453113205040000006159963630522231949_);fill:url(#SVGID_00000152227309691348085270000008518020926818446266_);}
	
		.st71{clip-path:url(#SVGID_00000023964964453113205040000006159963630522231949_);fill:url(#SVGID_00000024713540429276852140000001574457332005748127_);}
	
		.st72{clip-path:url(#SVGID_00000023964964453113205040000006159963630522231949_);fill:url(#SVGID_00000080911217193514334150000007958059232085714859_);}
	
		.st73{clip-path:url(#SVGID_00000023964964453113205040000006159963630522231949_);fill:url(#SVGID_00000169548321107687399940000000420997385024822203_);}
	
		.st74{clip-path:url(#SVGID_00000023964964453113205040000006159963630522231949_);fill:url(#SVGID_00000163765985606640134680000015508776725415196289_);}
	
		.st75{clip-path:url(#SVGID_00000023964964453113205040000006159963630522231949_);fill:url(#SVGID_00000029043714415397719750000017754290193005601208_);}
	
		.st76{clip-path:url(#SVGID_00000023964964453113205040000006159963630522231949_);fill:url(#SVGID_00000096775202834732301370000006671517336712287140_);}
	
		.st77{clip-path:url(#SVGID_00000023964964453113205040000006159963630522231949_);fill:url(#SVGID_00000080889092385071088800000014119505084565091759_);}
	
		.st78{clip-path:url(#SVGID_00000023964964453113205040000006159963630522231949_);fill:url(#SVGID_00000117675976648656862940000011827296553354819490_);}
	
		.st79{clip-path:url(#SVGID_00000023964964453113205040000006159963630522231949_);fill:url(#SVGID_00000111902214538066196380000018156010038510438031_);}
	.st80{fill:url(#SVGID_00000079464146301112283540000013022614694019104939_);}
	.st81{fill:url(#SVGID_00000095327065669796716460000004657394552233060736_);}
	.st82{fill:url(#SVGID_00000035531151543197275590000003404055565372114876_);}
	.st83{fill:url(#SVGID_00000018221078122017674710000010562533828514798754_);}
	.st84{fill:url(#SVGID_00000109740467051689094220000014001031161080998324_);}
	.st85{fill:url(#SVGID_00000119107028251361346560000010853738506515748747_);}
	.st86{fill:url(#SVGID_00000016076258273817658330000008062639289797722506_);}
	.st87{fill:url(#SVGID_00000092419326912080477920000009543720429762163360_);}
	.st88{fill:url(#SVGID_00000115483975234138824550000006744916847224692637_);}
	.st89{fill:url(#SVGID_00000056416100780287374530000000646622226751322283_);}
	.st90{clip-path:url(#SVGID_00000011001354477703246890000011424356986595687071_);}
	.st91{fill:url(#SVGID_00000024708934516661378240000015620737899222550943_);}
	.st92{fill:url(#SVGID_00000032609243175261458760000008432310073293397170_);}
	.st93{fill:url(#SVGID_00000021094742159960143480000001536863918609940126_);}
	.st94{fill:url(#SVGID_00000117636559239727536860000007781949580909576883_);}
	.st95{fill:url(#SVGID_00000178889154213709516060000003599743977717460883_);}
	.st96{fill:url(#SVGID_00000136412491681158990010000013298198063123218091_);}
	.st97{fill:url(#SVGID_00000049213487577677842010000018245482141334985098_);}
	.st98{fill:none;stroke:#666364;stroke-miterlimit:10;}
	.st99{fill:#666364;}
	.st100{fill:#FFFFFF;}
	.st101{fill:#C1C0C1;}
	.st102{fill:none;stroke:#4F4C4D;stroke-width:0.0179;stroke-miterlimit:10;}
	.st103{fill:#D5D4D5;}
	.st104{clip-path:url(#SVGID_00000036236125499840001430000003954393276937756331_);}
	.st105{fill:none;stroke:#4F4C4D;stroke-width:0.8884;stroke-linecap:round;stroke-linejoin:round;stroke-miterlimit:10;}
	.st106{fill:none;stroke:#4F4C4D;stroke-width:0.8448;stroke-linecap:round;stroke-linejoin:round;stroke-miterlimit:10;}
	.st107{fill:none;stroke:#4F4C4D;stroke-width:0.9746;stroke-linecap:round;stroke-linejoin:round;stroke-miterlimit:10;}
	.st108{fill:none;stroke:#4F4C4D;stroke-width:0.8608;stroke-linecap:round;stroke-linejoin:round;stroke-miterlimit:10;}
	
		.st109{fill:none;stroke:#4F4C4D;stroke-width:0.8608;stroke-linecap:round;stroke-linejoin:round;stroke-miterlimit:10;stroke-dasharray:1.0632;}
	.st110{fill:none;stroke:#4F4C4D;stroke-width:0.9757;stroke-linecap:round;stroke-linejoin:round;stroke-miterlimit:10;}
	.st111{fill:none;stroke:#4F4C4D;stroke-width:1.1046;stroke-linecap:round;stroke-linejoin:round;stroke-miterlimit:10;}
	.st112{fill:none;stroke:#4F4C4D;stroke-width:1.0333;stroke-linecap:round;stroke-linejoin:round;stroke-miterlimit:10;}
	
		.st113{fill:none;stroke:#4F4C4D;stroke-width:1.0333;stroke-linecap:round;stroke-linejoin:round;stroke-miterlimit:10;stroke-dasharray:1.2;}
	.st114{fill:none;stroke:#4F4C4D;stroke-linecap:round;stroke-linejoin:round;stroke-miterlimit:10;}
	.st115{fill:none;stroke:#4F4C4D;stroke-linecap:round;stroke-linejoin:round;stroke-miterlimit:10;stroke-dasharray:1.0878;}
</style>
<g>
	<g>
		<path class="st0" d="M27.36,60.49L2.69,46.25V17.76L27.36,3.52l24.67,14.24v28.48L27.36,60.49z M4.53,45.18l22.83,13.18
			l22.83-13.18V18.83L27.36,5.65L4.53,18.83V45.18z"/>
	</g>
</g>
<g>
	<g>
		<g>
			<path class="st100" d="M40.1,37.09c1.25-0.76,2.26-1.91,2.78-3.44c0.3-0.9,0.49-1.94,0.49-3.16c0-8.43-7.4-15.68-7.4-15.68
				s-1.59,1.52-3.3,4"/>
			<path class="st0" d="M40.37,37.53l-0.53-0.88c1.23-0.75,2.11-1.84,2.56-3.17c0.3-0.89,0.46-1.9,0.46-2.99
				c0-7.06-5.44-13.38-6.89-14.94c-0.56,0.58-1.69,1.84-2.87,3.55l-0.85-0.58c1.72-2.5,3.3-4.02,3.36-4.08l0.36-0.34l0.35,0.35
				c0.31,0.3,7.56,7.5,7.56,16.05c0,1.2-0.17,2.32-0.51,3.32C42.84,35.37,41.8,36.65,40.37,37.53z"/>
		</g>
		<g>
			<path class="st100" d="M16.51,38.63c0,1.67,0.22,3.1,0.6,4.34c1.04,3.4,3.84,5.46,7.02,6.16c4.84,1.08,10.55-0.96,12.3-6.1
				c0.42-1.25,0.68-2.7,0.68-4.39c0-11.73-10.3-21.82-10.3-21.82s-6.56,6.25-9.21,14.88C16.93,33.87,16.51,36.21,16.51,38.63z"/>
			<path class="st0" d="M26.67,49.91c-0.91,0-1.8-0.1-2.66-0.29c-3.69-0.82-6.38-3.19-7.4-6.51C16.21,41.77,16,40.26,16,38.63
				c0-2.3,0.37-4.69,1.11-7.09c2.66-8.65,9.07-14.84,9.35-15.1l0.36-0.34l0.35,0.35c0.43,0.42,10.45,10.38,10.45,22.18
				c0,1.65-0.24,3.19-0.7,4.56C35.34,47.81,30.89,49.91,26.67,49.91z M26.8,17.54c-1.4,1.44-6.49,7.05-8.71,14.3
				c-0.71,2.31-1.07,4.59-1.07,6.79c0,1.53,0.19,2.94,0.58,4.19c0.91,2.96,3.33,5.07,6.64,5.81c4.39,0.98,9.99-0.71,11.71-5.77
				c0.43-1.26,0.65-2.69,0.65-4.23C36.59,28.48,28.6,19.44,26.8,17.54z"/>
		</g>
		<g>
			<path class="st0" d="M35.63,14.47c-1.27,1.22-2.38,2.65-3.37,4.1c-0.15,0.22-0.04,0.54,0.17,0.67c0.24,0.14,0.52,0.04,0.67-0.17
				c0.95-1.38,2-2.74,3.22-3.9C36.77,14.72,36.08,14.03,35.63,14.47L35.63,14.47z"/>
		</g>
		<g>
			<path class="st0" d="M40.35,37.51c1.41-0.87,2.47-2.17,3.01-3.73c0.09-0.25-0.1-0.53-0.34-0.6c-0.27-0.07-0.51,0.09-0.6,0.34
				c-0.45,1.32-1.38,2.42-2.56,3.15c-0.22,0.14-0.31,0.44-0.17,0.67C39.81,37.56,40.12,37.65,40.35,37.51L40.35,37.51z"/>
		</g>
	</g>
	<g>
		<g>
			<path class="st100" d="M24.3,40.41c0.08,0.42,0.12,0.86,0.12,1.31c0,3.96-3.21,7.16-7.16,7.16c-3.96,0-7.16-3.21-7.16-7.16
				c0-3.96,3.21-7.16,7.16-7.16c0.71,0,1.39,0.1,2.03,0.29"/>
			<path class="st0" d="M17.25,49.39c-4.23,0-7.68-3.44-7.68-7.68s3.44-7.68,7.68-7.68c0.74,0,1.47,0.11,2.18,0.31l-0.29,0.98
				c-0.61-0.18-1.24-0.27-1.89-0.27c-3.67,0-6.65,2.98-6.65,6.65c0,3.67,2.98,6.65,6.65,6.65c3.67,0,6.65-2.98,6.65-6.65
				c0-0.41-0.04-0.82-0.11-1.21l1.01-0.19c0.08,0.46,0.13,0.93,0.13,1.4C24.93,45.95,21.49,49.39,17.25,49.39z"/>
		</g>
		<g>
			<path class="st0" d="M13.03,40.39c1.18,1.45,2.35,2.91,3.53,4.36c0.16,0.2,0.53,0.18,0.69,0c2.11-2.33,4.21-4.66,6.32-6.99
				c0.3-0.34,0.61-0.67,0.91-1.01c0.42-0.46-0.27-1.16-0.69-0.69c-2.11,2.33-4.21,4.66-6.32,6.99c-0.3,0.34-0.61,0.67-0.91,1.01
				c0.23,0,0.46,0,0.69,0c-1.18-1.45-2.35-2.91-3.53-4.36C13.32,39.22,12.64,39.91,13.03,40.39L13.03,40.39z"/>
		</g>
		<g>
			<path class="st0" d="M17.25,35.04c0.17,0,0.34,0.01,0.51,0.02c0.09,0.01,0.18,0.01,0.27,0.02c0.04,0,0.08,0.01,0.11,0.01
				c0.06,0.01,0.05,0.01-0.02,0c0.02,0,0.04,0.01,0.06,0.01c0.33,0.05,0.65,0.12,0.97,0.21c0.24,0.07,0.54-0.09,0.6-0.34
				c0.06-0.26-0.08-0.52-0.34-0.6c-0.7-0.2-1.43-0.31-2.16-0.31c-0.25,0-0.5,0.22-0.49,0.49C16.78,34.81,16.98,35.04,17.25,35.04
				L17.25,35.04z"/>
		</g>
		<g>
			<path class="st0" d="M23.83,40.54c0.02,0.11,0.04,0.23,0.05,0.34c-0.01-0.04-0.01-0.09-0.02-0.13c0.04,0.32,0.06,0.64,0.06,0.97
				c0,0.25,0.22,0.5,0.49,0.49c0.26-0.01,0.49-0.21,0.49-0.49c0-0.48-0.05-0.96-0.14-1.44c-0.02-0.11-0.13-0.23-0.22-0.29
				c-0.1-0.06-0.26-0.09-0.38-0.05c-0.12,0.04-0.23,0.11-0.29,0.22C23.81,40.28,23.8,40.4,23.83,40.54L23.83,40.54z"/>
		</g>
	</g>
</g>
</svg>
