<?xml version="1.0" encoding="utf-8"?>
<!-- Generator: Adobe Illustrator 27.2.0, SVG Export Plug-In . SVG Version: 6.00 Build 0)  -->
<svg version="1.1" id="Layer_1" xmlns="http://www.w3.org/2000/svg" xmlns:xlink="http://www.w3.org/1999/xlink" x="0px" y="0px"
	 viewBox="0 0 54.72 63.62" style="enable-background:new 0 0 54.72 63.62;" xml:space="preserve">
<style type="text/css">
	.st0{fill:#4F4C4D;}
	.st1{fill:url(#SVGID_1_);}
	.st2{fill:url(#SVGID_00000178888797151532711370000013507940089270122376_);}
	
		.st3{clip-path:url(#SVGID_00000105408520970215724120000001511054506486422967_);fill:url(#SVGID_00000060016430906651915490000001793125998126629527_);}
	
		.st4{clip-path:url(#SVGID_00000105408520970215724120000001511054506486422967_);fill:url(#SVGID_00000029745461007866727810000004422940650991056533_);}
	
		.st5{clip-path:url(#SVGID_00000105408520970215724120000001511054506486422967_);fill:url(#SVGID_00000107578111555475288040000015459989038062481561_);}
	
		.st6{clip-path:url(#SVGID_00000105408520970215724120000001511054506486422967_);fill:url(#SVGID_00000134244572229411653550000015836467404271817374_);}
	
		.st7{clip-path:url(#SVGID_00000105408520970215724120000001511054506486422967_);fill:url(#SVGID_00000005989154814716318000000004213985479526332066_);}
	
		.st8{clip-path:url(#SVGID_00000105408520970215724120000001511054506486422967_);fill:url(#SVGID_00000060719128523406709920000005108767744635866526_);}
	
		.st9{clip-path:url(#SVGID_00000105408520970215724120000001511054506486422967_);fill:url(#SVGID_00000020389520820497384240000013151355010428110488_);}
	
		.st10{clip-path:url(#SVGID_00000105408520970215724120000001511054506486422967_);fill:url(#SVGID_00000007388960058486791930000012088073644380398517_);}
	
		.st11{clip-path:url(#SVGID_00000105408520970215724120000001511054506486422967_);fill:url(#SVGID_00000007420909634840590750000016994595659230774931_);}
	
		.st12{clip-path:url(#SVGID_00000105408520970215724120000001511054506486422967_);fill:url(#SVGID_00000004505293756576913840000007495436024666121912_);}
	
		.st13{clip-path:url(#SVGID_00000105408520970215724120000001511054506486422967_);fill:url(#SVGID_00000144338927813262739090000011819311752932552615_);}
	
		.st14{clip-path:url(#SVGID_00000105408520970215724120000001511054506486422967_);fill:url(#SVGID_00000183219592841944369100000007885976443303737219_);}
	
		.st15{clip-path:url(#SVGID_00000105408520970215724120000001511054506486422967_);fill:url(#SVGID_00000180331984979592587560000003684377428148475011_);}
	
		.st16{clip-path:url(#SVGID_00000105408520970215724120000001511054506486422967_);fill:url(#SVGID_00000026122670131621901710000008743343882734460082_);}
	
		.st17{clip-path:url(#SVGID_00000105408520970215724120000001511054506486422967_);fill:url(#SVGID_00000145759624576831589920000013138126300784331910_);}
	
		.st18{clip-path:url(#SVGID_00000105408520970215724120000001511054506486422967_);fill:url(#SVGID_00000038384899656610348390000017615706841274253735_);}
	.st19{clip-path:url(#SVGID_00000105408520970215724120000001511054506486422967_);}
	.st20{fill:url(#SVGID_00000085214951335944190340000002511970571511148984_);}
	.st21{fill:url(#SVGID_00000058571913258102915740000017702904191213986442_);}
	.st22{fill:url(#SVGID_00000029039826044040602820000018282606605111698362_);}
	.st23{fill:url(#SVGID_00000011023887178247870350000011406429383957120444_);}
	
		.st24{clip-path:url(#SVGID_00000105408520970215724120000001511054506486422967_);fill:url(#SVGID_00000031201072346662088280000003384082294788759182_);}
	
		.st25{clip-path:url(#SVGID_00000105408520970215724120000001511054506486422967_);fill:url(#SVGID_00000116212613870290707560000006571835441397360563_);}
	
		.st26{clip-path:url(#SVGID_00000105408520970215724120000001511054506486422967_);fill:url(#SVGID_00000007404682650978579410000000456651765630494113_);}
	
		.st27{clip-path:url(#SVGID_00000105408520970215724120000001511054506486422967_);fill:url(#SVGID_00000091727781879980147580000011461547184245652640_);}
	
		.st28{clip-path:url(#SVGID_00000105408520970215724120000001511054506486422967_);fill:url(#SVGID_00000055696140493008217090000005025550144306192768_);}
	
		.st29{clip-path:url(#SVGID_00000105408520970215724120000001511054506486422967_);fill:url(#SVGID_00000013189041310196927610000002954569950472250284_);}
	
		.st30{clip-path:url(#SVGID_00000105408520970215724120000001511054506486422967_);fill:url(#SVGID_00000053508009176330935880000015531296888716483713_);}
	
		.st31{clip-path:url(#SVGID_00000105408520970215724120000001511054506486422967_);fill:url(#SVGID_00000053515008741435061800000003164548223002673052_);}
	
		.st32{clip-path:url(#SVGID_00000105408520970215724120000001511054506486422967_);fill:url(#SVGID_00000047742722645029362180000016854736617810628541_);}
	
		.st33{clip-path:url(#SVGID_00000105408520970215724120000001511054506486422967_);fill:url(#SVGID_00000023249819968250970290000012642780218606380707_);}
	
		.st34{clip-path:url(#SVGID_00000105408520970215724120000001511054506486422967_);fill:url(#SVGID_00000160892571352474672310000018161310785406799534_);}
	
		.st35{clip-path:url(#SVGID_00000105408520970215724120000001511054506486422967_);fill:url(#SVGID_00000156556542010404945150000013554758746250173327_);}
	
		.st36{clip-path:url(#SVGID_00000105408520970215724120000001511054506486422967_);fill:url(#SVGID_00000101067668328083739390000003626515130514526905_);}
	
		.st37{clip-path:url(#SVGID_00000105408520970215724120000001511054506486422967_);fill:url(#SVGID_00000038410514039208407080000017548933741529243282_);}
	
		.st38{clip-path:url(#SVGID_00000105408520970215724120000001511054506486422967_);fill:url(#SVGID_00000014592536124192379800000013291929918698724543_);}
	
		.st39{clip-path:url(#SVGID_00000105408520970215724120000001511054506486422967_);fill:url(#SVGID_00000011020196319454099150000000819891169763551636_);}
	.st40{fill:url(#SVGID_00000018227046556033903160000006129587400268209055_);}
	.st41{fill:url(#SVGID_00000121982790873540915360000014415664862839898019_);}
	.st42{fill:url(#SVGID_00000063614012533111337100000016282764373301753503_);}
	.st43{fill:url(#SVGID_00000007395680949272627870000007502116916694455727_);}
	
		.st44{clip-path:url(#SVGID_00000105408520970215724120000001511054506486422967_);fill:url(#SVGID_00000004543006339167821000000009179624013170627461_);}
	
		.st45{clip-path:url(#SVGID_00000105408520970215724120000001511054506486422967_);fill:url(#SVGID_00000012458492036438874270000012141382117061289650_);}
	
		.st46{clip-path:url(#SVGID_00000105408520970215724120000001511054506486422967_);fill:url(#SVGID_00000176045465922575890030000016252639560523836549_);}
	
		.st47{clip-path:url(#SVGID_00000105408520970215724120000001511054506486422967_);fill:url(#SVGID_00000135675213350595073260000011052267781685797535_);}
	
		.st48{clip-path:url(#SVGID_00000105408520970215724120000001511054506486422967_);fill:url(#SVGID_00000140714381059297741210000008803589661087059585_);}
	
		.st49{clip-path:url(#SVGID_00000105408520970215724120000001511054506486422967_);fill:url(#SVGID_00000140010005487892542380000008032113040031635622_);}
	
		.st50{clip-path:url(#SVGID_00000105408520970215724120000001511054506486422967_);fill:url(#SVGID_00000095301088625500208330000009711303953898576814_);}
	
		.st51{clip-path:url(#SVGID_00000105408520970215724120000001511054506486422967_);fill:url(#SVGID_00000018197774243271211390000002903019728430537393_);}
	
		.st52{clip-path:url(#SVGID_00000105408520970215724120000001511054506486422967_);fill:url(#SVGID_00000047057231518862803280000014347349536230461338_);}
	
		.st53{clip-path:url(#SVGID_00000105408520970215724120000001511054506486422967_);fill:url(#SVGID_00000088111649246218254600000009304823803336529811_);}
	
		.st54{clip-path:url(#SVGID_00000105408520970215724120000001511054506486422967_);fill:url(#SVGID_00000115488745613036178230000007505717575806407572_);}
	
		.st55{clip-path:url(#SVGID_00000105408520970215724120000001511054506486422967_);fill:url(#SVGID_00000035532740079258631660000009761955766570495675_);}
	
		.st56{clip-path:url(#SVGID_00000105408520970215724120000001511054506486422967_);fill:url(#SVGID_00000157304893585872579280000001033541532752484500_);}
	
		.st57{clip-path:url(#SVGID_00000105408520970215724120000001511054506486422967_);fill:url(#SVGID_00000004534403264689423650000000702237874143923361_);}
	
		.st58{clip-path:url(#SVGID_00000105408520970215724120000001511054506486422967_);fill:url(#SVGID_00000109012620687890840410000003266536134872200122_);}
	
		.st59{clip-path:url(#SVGID_00000105408520970215724120000001511054506486422967_);fill:url(#SVGID_00000154414180964823703630000004030682468304427413_);}
	.st60{fill:url(#SVGID_00000085973522828428207730000009782805945880358558_);}
	.st61{fill:url(#SVGID_00000119105685331256312430000008574316059733054854_);}
	.st62{fill:url(#SVGID_00000111897821780101161440000015236048500120352446_);}
	.st63{fill:url(#SVGID_00000077322220267220921780000002754829919044128190_);}
	
		.st64{clip-path:url(#SVGID_00000105408520970215724120000001511054506486422967_);fill:url(#SVGID_00000129902343072037175200000008619451996730100389_);}
	
		.st65{clip-path:url(#SVGID_00000105408520970215724120000001511054506486422967_);fill:url(#SVGID_00000036231540530091293280000009696262402433117826_);}
	
		.st66{clip-path:url(#SVGID_00000105408520970215724120000001511054506486422967_);fill:url(#SVGID_00000025440631637809435660000003485449550014243988_);}
	
		.st67{clip-path:url(#SVGID_00000105408520970215724120000001511054506486422967_);fill:url(#SVGID_00000036935360370347412900000003694625751773681845_);}
	
		.st68{clip-path:url(#SVGID_00000105408520970215724120000001511054506486422967_);fill:url(#SVGID_00000097485700012392928090000012842440409723921045_);}
	
		.st69{clip-path:url(#SVGID_00000105408520970215724120000001511054506486422967_);fill:url(#SVGID_00000093857146469962011860000018128835158636826815_);}
	
		.st70{clip-path:url(#SVGID_00000105408520970215724120000001511054506486422967_);fill:url(#SVGID_00000083807996434257244240000002639894202400873600_);}
	
		.st71{clip-path:url(#SVGID_00000105408520970215724120000001511054506486422967_);fill:url(#SVGID_00000151506961021151046600000001741212193555443362_);}
	
		.st72{clip-path:url(#SVGID_00000105408520970215724120000001511054506486422967_);fill:url(#SVGID_00000124123945065382907460000017847654102651806096_);}
	
		.st73{clip-path:url(#SVGID_00000105408520970215724120000001511054506486422967_);fill:url(#SVGID_00000143576748626464813940000004968554966737843878_);}
	
		.st74{clip-path:url(#SVGID_00000105408520970215724120000001511054506486422967_);fill:url(#SVGID_00000178889053039698774910000016576601988371451828_);}
	
		.st75{clip-path:url(#SVGID_00000105408520970215724120000001511054506486422967_);fill:url(#SVGID_00000076573150902151708930000008252760799927032207_);}
	
		.st76{clip-path:url(#SVGID_00000105408520970215724120000001511054506486422967_);fill:url(#SVGID_00000098906775028343590470000015350382660064069794_);}
	
		.st77{clip-path:url(#SVGID_00000105408520970215724120000001511054506486422967_);fill:url(#SVGID_00000054986515279234173420000013063194843183623307_);}
	
		.st78{clip-path:url(#SVGID_00000105408520970215724120000001511054506486422967_);fill:url(#SVGID_00000137130065745193329900000000586502268004767122_);}
	
		.st79{clip-path:url(#SVGID_00000105408520970215724120000001511054506486422967_);fill:url(#SVGID_00000090987032642608863050000014530414612574059164_);}
	.st80{fill:url(#SVGID_00000084506858932544557040000003458173873908776101_);}
	.st81{fill:url(#SVGID_00000183239043171335911300000008589776063070063788_);}
	.st82{fill:url(#SVGID_00000126282371277322731790000014807538776194254225_);}
	.st83{fill:url(#SVGID_00000158005681215085214350000009555152131124661379_);}
	.st84{fill:url(#SVGID_00000087397649684040317520000008631879891329940147_);}
	.st85{fill:url(#SVGID_00000096047553582161079640000012716527332362648969_);}
	.st86{fill:url(#SVGID_00000017479569137320653360000015472001984163442838_);}
	.st87{fill:url(#SVGID_00000114776345961459286340000005982798599890727841_);}
	.st88{fill:url(#SVGID_00000180359497558655027790000013144684724653397671_);}
	.st89{fill:url(#SVGID_00000070087126335120560770000017228768647934501299_);}
	.st90{clip-path:url(#SVGID_00000162327015377196406910000008034889402608577462_);}
	.st91{fill:url(#SVGID_00000168814708441210021810000002380127257107055017_);}
	.st92{fill:url(#SVGID_00000150808107706917909030000006173176002941276842_);}
	.st93{fill:url(#SVGID_00000165197871561267128470000002127255810027020223_);}
	.st94{fill:url(#SVGID_00000106850430708967795300000005401274001858247065_);}
	.st95{fill:url(#SVGID_00000049197622779776199560000007428754999117091494_);}
	.st96{fill:url(#SVGID_00000000215091798996397990000009959662327370074803_);}
	.st97{fill:url(#SVGID_00000153676543029824461480000003575926558472923277_);}
	.st98{fill:none;stroke:#666364;stroke-miterlimit:10;}
	.st99{fill:#666364;}
	.st100{fill:#FFFFFF;}
	.st101{fill:#C1C0C1;}
	.st102{fill:none;stroke:#4F4C4D;stroke-width:0.0179;stroke-miterlimit:10;}
	.st103{fill:#D5D4D5;}
	.st104{clip-path:url(#SVGID_00000031902593198481904260000017129799006417944963_);}
	.st105{fill:none;stroke:#4F4C4D;stroke-width:0.8884;stroke-linecap:round;stroke-linejoin:round;stroke-miterlimit:10;}
	.st106{fill:none;stroke:#4F4C4D;stroke-width:0.8448;stroke-linecap:round;stroke-linejoin:round;stroke-miterlimit:10;}
	.st107{fill:none;stroke:#4F4C4D;stroke-width:0.9746;stroke-linecap:round;stroke-linejoin:round;stroke-miterlimit:10;}
	.st108{fill:none;stroke:#4F4C4D;stroke-width:0.8608;stroke-linecap:round;stroke-linejoin:round;stroke-miterlimit:10;}
	
		.st109{fill:none;stroke:#4F4C4D;stroke-width:0.8608;stroke-linecap:round;stroke-linejoin:round;stroke-miterlimit:10;stroke-dasharray:1.0632;}
	.st110{fill:none;stroke:#4F4C4D;stroke-width:0.9757;stroke-linecap:round;stroke-linejoin:round;stroke-miterlimit:10;}
	.st111{fill:none;stroke:#4F4C4D;stroke-width:1.1046;stroke-linecap:round;stroke-linejoin:round;stroke-miterlimit:10;}
	.st112{fill:none;stroke:#4F4C4D;stroke-width:1.0333;stroke-linecap:round;stroke-linejoin:round;stroke-miterlimit:10;}
	
		.st113{fill:none;stroke:#4F4C4D;stroke-width:1.0333;stroke-linecap:round;stroke-linejoin:round;stroke-miterlimit:10;stroke-dasharray:1.2;}
	.st114{fill:none;stroke:#4F4C4D;stroke-linecap:round;stroke-linejoin:round;stroke-miterlimit:10;}
	.st115{fill:none;stroke:#4F4C4D;stroke-linecap:round;stroke-linejoin:round;stroke-miterlimit:10;stroke-dasharray:1.0878;}
</style>
<g>
	<g>
		<path class="st0" d="M27.36,60.49L2.69,46.25V17.76L27.36,3.52l24.67,14.24v28.48L27.36,60.49z M4.53,45.18l22.83,13.18
			l22.83-13.18V18.83L27.36,5.65L4.53,18.83V45.18z"/>
	</g>
</g>
<g>
	<g>
		<g>
			<path class="st100" d="M24.43,30.61c-0.37,0.01-0.75-0.01-1.12-0.07c-3.35-0.52-5.65-3.67-5.13-7.02
				c0.52-3.35,3.67-5.65,7.02-5.13c0.84,0.13,1.61,0.43,2.29,0.85"/>
			<path class="st0" d="M24.27,31.06c-0.34,0-0.68-0.03-1.02-0.08c-1.74-0.27-3.27-1.2-4.3-2.62c-1.04-1.42-1.46-3.16-1.19-4.9
				c0.56-3.59,3.94-6.05,7.53-5.49c0.88,0.14,1.7,0.44,2.45,0.91l-0.46,0.75c-0.65-0.4-1.37-0.67-2.13-0.79
				c-3.11-0.49-6.03,1.65-6.52,4.76c-0.24,1.51,0.13,3.01,1.03,4.24c0.9,1.23,2.22,2.04,3.73,2.27c0.35,0.06,0.7,0.08,1.04,0.07
				l0.02,0.88C24.39,31.05,24.33,31.06,24.27,31.06z"/>
		</g>
		<g>
			<path class="st0" d="M20.63,23.33c1.01,1.25,2.02,2.49,3.03,3.74c0.14,0.17,0.45,0.15,0.59,0c1.81-2,3.62-4,5.42-6
				c0.26-0.29,0.52-0.58,0.78-0.86c0.36-0.4-0.23-0.99-0.59-0.59c-1.81,2-3.62,4-5.42,6c-0.26,0.29-0.52,0.58-0.78,0.86
				c0.2,0,0.39,0,0.59,0c-1.01-1.25-2.02-2.49-3.03-3.74C20.89,22.32,20.3,22.92,20.63,23.33L20.63,23.33z"/>
		</g>
		<g>
			<path class="st0" d="M24.43,30.19c-0.33,0.01-0.66-0.01-0.99-0.05c0.04,0,0.07,0.01,0.11,0.01c-0.04-0.01-0.09-0.01-0.13-0.02
				c-0.12-0.02-0.22-0.02-0.32,0.04c-0.09,0.05-0.17,0.15-0.19,0.25c-0.02,0.11-0.02,0.23,0.04,0.32c0.06,0.09,0.14,0.18,0.25,0.19
				c0.41,0.06,0.82,0.1,1.23,0.09c0.22-0.01,0.43-0.19,0.42-0.42C24.84,30.39,24.67,30.19,24.43,30.19L24.43,30.19z"/>
		</g>
		<g>
			<path class="st0" d="M25.1,18.8c0.4,0.06,0.8,0.17,1.19,0.31c0.04,0.02,0.09,0.03,0.13,0.05c0.01,0.01,0.16,0.07,0.08,0.03
				c0.09,0.04,0.18,0.08,0.27,0.12c0.18,0.09,0.36,0.19,0.53,0.29c0.19,0.11,0.47,0.05,0.57-0.15c0.11-0.2,0.05-0.45-0.15-0.57
				c-0.73-0.45-1.55-0.75-2.39-0.89c-0.22-0.03-0.46,0.06-0.51,0.29C24.76,18.48,24.87,18.76,25.1,18.8L25.1,18.8z"/>
		</g>
		<g>
			<path class="st0" d="M27.59,19.72c0.54,0,0.54-0.84,0-0.84C27.05,18.88,27.05,19.72,27.59,19.72L27.59,19.72z"/>
		</g>
	</g>
	<g>
		<g>
			<path class="st0" d="M28.21,39.35l-0.47-0.75c0.13-0.08,0.46-0.35,1.21-1.24c0.88-1.05,1.82-2.33,1.83-2.35
				c0.65-0.65-0.02-1.94-0.02-1.96l-2.85-4.41c-0.48,1.09,0.38,2.7,0.77,3.24c0.68,1.23,0.55,3.13-0.69,3.96
				c-0.41,0.28-0.9,0.45-1.56,0.56c-2.09,0.33-3.74-0.45-5.33-1.2c-0.56-0.27-1.14-0.54-1.74-0.77c-1.2-0.46-2.44-0.51-3.61-0.15
				c-0.63,0.19-1.25,0.51-2.02,1.04c-0.3,0.21-0.59,0.42-0.88,0.64c-0.47,0.34-0.95,0.7-1.46,1.02c-0.85,0.53-1.81,0.84-2.73,1.14
				c-0.22,0.07-0.44,0.14-0.66,0.22l-0.38,0.13c-0.49,0.17-1,0.35-1.53,0.46l-0.18-0.86c0.48-0.1,0.94-0.26,1.42-0.43l0.38-0.13
				c0.22-0.08,0.45-0.15,0.67-0.22c0.87-0.28,1.77-0.58,2.54-1.05c0.48-0.29,0.94-0.64,1.39-0.97c0.3-0.22,0.6-0.44,0.9-0.65
				c0.53-0.36,1.33-0.88,2.26-1.16c1.35-0.41,2.8-0.35,4.18,0.18c0.63,0.24,1.23,0.52,1.8,0.8c1.54,0.73,2.99,1.42,4.82,1.13
				c0.52-0.08,0.9-0.21,1.2-0.42c0.81-0.54,0.9-1.93,0.44-2.76c-0.05-0.06-1.71-2.45-0.75-4.23c0.14-0.26,0.39-0.42,0.69-0.43
				c0.28,0.01,0.55,0.13,0.71,0.37l2.94,4.55c0.06,0.11,1,1.91-0.07,2.97h0c0.01,0-0.93,1.29-1.82,2.34
				C28.99,38.69,28.52,39.15,28.21,39.35z"/>
		</g>
		<g>
			<path class="st0" d="M30.89,41.42l-0.61-0.63l1.5-1.46c0.27-0.26,0.54-0.52,0.82-0.78c0.26-0.24,0.52-0.48,0.79-0.71
				c0.47-0.41,0.96-0.84,1.36-1.3c0.59-0.67,0.85-1.36,0.81-2.11c-0.04-0.71-0.29-1.46-0.77-2.3c-0.97-1.72-2.15-3.34-3.28-4.85
				c-0.32,1.02-0.24,2.06,0.23,2.88c0.67,1.16,1.33,2.3,1.41,3.7c0.06,1.02-0.59,1.57-1.16,2.05l-2.33,1.99l-0.57-0.67l2.33-2
				c0.56-0.47,0.88-0.77,0.85-1.32c-0.07-1.19-0.65-2.19-1.26-3.25c-0.68-1.17-0.75-2.59-0.24-3.94c0.09-0.25,0.32-0.43,0.58-0.47
				c0.27-0.04,0.53,0.07,0.69,0.29c1.2,1.6,2.47,3.32,3.51,5.17c0.54,0.96,0.83,1.84,0.88,2.69c0.06,0.98-0.29,1.9-1.02,2.74
				c-0.44,0.51-0.95,0.95-1.44,1.38c-0.26,0.23-0.52,0.45-0.77,0.69c-0.27,0.26-0.54,0.52-0.81,0.78L30.89,41.42z"/>
		</g>
		<g>
			<path class="st0" d="M29.45,45.51c-0.54,0-1.11-0.11-1.69-0.34c-0.61-0.21-1.23-0.43-1.84-0.64c-1.02-0.35-2.05-0.7-3.06-1.07
				c-1.48-0.54-3.16-1.15-4.85-1.23c-2.49-0.11-4.91,0.89-7.24,1.86l-0.12,0.05c-0.6,0.25-1.2,0.5-1.8,0.72l-0.31-0.82
				c0.59-0.22,1.18-0.47,1.77-0.71l0.12-0.05c2.42-1.01,4.93-2.06,7.62-1.92c1.82,0.09,3.57,0.72,5.11,1.28
				c1.01,0.37,2.03,0.72,3.05,1.07c0.62,0.21,1.24,0.43,1.86,0.65c0.8,0.31,2.31,0.63,3.49-0.66c0.44-0.48,0.88-0.97,1.32-1.46
				c1.19-1.33,2.42-2.71,3.75-3.97l0.08-0.08c0.29-0.27,0.57-0.53,0.76-0.84c0.47-0.73,0.39-1.59,0.31-2.5
				c-0.02-0.18-0.03-0.36-0.05-0.53l-0.63-8.74c-1.29,0.98-1.27,2.64-1.25,4.25l0.01,2.56l-0.88,0l-0.01-2.55
				c-0.02-1.8-0.05-3.83,1.74-5.06c0.24-0.16,0.54-0.19,0.8-0.06c0.26,0.13,0.44,0.39,0.46,0.67l0.64,8.87
				c0.01,0.17,0.03,0.34,0.04,0.51c0.09,0.97,0.2,2.07-0.45,3.06c-0.25,0.39-0.58,0.7-0.9,1l-0.08,0.08
				c-1.3,1.23-2.52,2.59-3.7,3.91c-0.44,0.49-0.88,0.98-1.32,1.47C31.46,45.09,30.51,45.51,29.45,45.51z"/>
		</g>
		<g>
			<path class="st0" d="M30.99,45.74c-0.42,0-0.84-0.08-1.25-0.27l0.38-0.79c1.01,0.49,2.3-0.08,3.34-0.53l0.08-0.04
				c0.91-0.44,1.87-0.84,2.79-1.22c0.41-0.17,0.82-0.34,1.23-0.52c0.26-0.11,0.53-0.21,0.79-0.31c0.34-0.12,0.68-0.25,1.01-0.41
				c0.59-0.29,1.18-0.63,1.74-1.01c0.81-0.55,1.59-1.18,2.35-1.79c0.51-0.41,1.02-0.82,1.54-1.21l2.86-2.15
				c-1.09-0.47-2.25,0.03-3.33,0.63c-0.77,0.43-1.54,0.9-2.28,1.4c-0.25,0.17-0.5,0.35-0.75,0.53c-0.46,0.34-0.94,0.69-1.46,0.97
				c-0.72,0.38-1.44,0.61-2.13,0.67c-0.41,0.04-0.83,0.01-1.23-0.01c-0.16-0.01-0.31-0.02-0.47-0.02l0.03-0.88
				c0.16,0.01,0.33,0.02,0.49,0.03c0.38,0.02,0.75,0.05,1.09,0.02c0.57-0.05,1.18-0.24,1.79-0.57c0.47-0.25,0.9-0.56,1.35-0.9
				c0.26-0.19,0.52-0.38,0.78-0.56c0.76-0.51,1.55-0.99,2.34-1.44c1.21-0.68,2.66-1.29,4.16-0.66c0.28,0.12,0.47,0.37,0.51,0.67
				c0.04,0.31-0.09,0.61-0.34,0.8l-2.91,2.18c-0.51,0.39-1.01,0.79-1.52,1.19c-0.77,0.62-1.57,1.26-2.4,1.83
				c-0.6,0.4-1.22,0.77-1.85,1.07c-0.36,0.17-0.73,0.31-1.09,0.44c-0.25,0.09-0.5,0.18-0.75,0.29c-0.41,0.18-0.83,0.35-1.24,0.52
				c-0.92,0.38-1.87,0.78-2.77,1.21l-0.1,0.04C33.01,45.3,32,45.74,30.99,45.74z"/>
		</g>
		<g>
			<path class="st0" d="M39.88,39.04l-0.72-0.5c0-0.04-0.05-0.2-0.11-0.26c-0.11-0.11-0.38-0.13-0.81-0.04l-0.09,0.02
				c-0.08,0.01-0.27,0.05-0.32,0.08l-0.61-0.63c0.19-0.2,0.48-0.26,0.78-0.32c0.38-0.07,1.17-0.23,1.68,0.27
				C39.96,37.94,40.2,38.58,39.88,39.04z"/>
		</g>
		<g>
			<path class="st0" d="M6.13,38.9c0.64-0.14,1.24-0.37,1.86-0.58c0.21-0.07,0.36-0.29,0.29-0.51c-0.07-0.2-0.29-0.37-0.51-0.29
				c-0.61,0.21-1.22,0.44-1.86,0.58c-0.21,0.05-0.36,0.31-0.29,0.51C5.68,38.84,5.9,38.95,6.13,38.9L6.13,38.9z"/>
		</g>
		<g>
			<path class="st0" d="M10.36,43.33c-0.59,0.25-1.18,0.49-1.78,0.72c-0.2,0.08-0.37,0.29-0.29,0.51c0.06,0.2,0.3,0.38,0.51,0.29
				c0.6-0.23,1.19-0.47,1.78-0.72c0.11-0.04,0.19-0.09,0.25-0.19c0.05-0.09,0.07-0.22,0.04-0.32
				C10.82,43.42,10.58,43.24,10.36,43.33L10.36,43.33z"/>
		</g>
		<g>
			<path class="st0" d="M29,37.35c-0.21,0.25-0.42,0.5-0.65,0.73c-0.17,0.18-0.35,0.36-0.54,0.51c0.03-0.02,0.06-0.04,0.08-0.07
				c-0.04,0.03-0.08,0.06-0.12,0.09c-0.18,0.12-0.28,0.38-0.15,0.57c0.12,0.18,0.37,0.28,0.57,0.15c0.24-0.15,0.46-0.36,0.66-0.57
				c0.26-0.27,0.5-0.55,0.74-0.83c0.07-0.09,0.12-0.18,0.12-0.3c0-0.1-0.05-0.23-0.12-0.3C29.43,37.2,29.15,37.17,29,37.35L29,37.35
				z"/>
		</g>
		<g>
			<path class="st0" d="M31.8,39.35c-0.5,0.49-1,0.97-1.5,1.46c-0.16,0.15-0.16,0.44,0,0.59c0.17,0.16,0.42,0.16,0.59,0
				c0.5-0.48,1-0.97,1.5-1.46c0.16-0.15,0.16-0.44,0-0.59C32.22,39.19,31.96,39.19,31.8,39.35L31.8,39.35z"/>
		</g>
	</g>
</g>
</svg>
