<?xml version="1.0" encoding="utf-8"?>
<!-- Generator: Adobe Illustrator 27.2.0, SVG Export Plug-In . SVG Version: 6.00 Build 0)  -->
<svg version="1.1" id="Layer_1" xmlns="http://www.w3.org/2000/svg" xmlns:xlink="http://www.w3.org/1999/xlink" x="0px" y="0px"
	 viewBox="0 0 54.72 63.62" style="enable-background:new 0 0 54.72 63.62;" xml:space="preserve">
<style type="text/css">
	.st0{fill:#4F4C4D;}
	.st1{fill:url(#SVGID_1_);}
	.st2{fill:url(#SVGID_00000080901825859906359840000014374235384901333166_);}
	
		.st3{clip-path:url(#SVGID_00000042733690830651335210000013303037103016229534_);fill:url(#SVGID_00000052783010431052695680000000144508702315835042_);}
	
		.st4{clip-path:url(#SVGID_00000042733690830651335210000013303037103016229534_);fill:url(#SVGID_00000095340981418180452990000002646922682921567652_);}
	
		.st5{clip-path:url(#SVGID_00000042733690830651335210000013303037103016229534_);fill:url(#SVGID_00000087373505459404954400000017316215483278251959_);}
	
		.st6{clip-path:url(#SVGID_00000042733690830651335210000013303037103016229534_);fill:url(#SVGID_00000153688840311913223830000007689953351132157842_);}
	
		.st7{clip-path:url(#SVGID_00000042733690830651335210000013303037103016229534_);fill:url(#SVGID_00000125570841247664994880000002979728737253567903_);}
	
		.st8{clip-path:url(#SVGID_00000042733690830651335210000013303037103016229534_);fill:url(#SVGID_00000142898598955598467770000008378093634144048048_);}
	
		.st9{clip-path:url(#SVGID_00000042733690830651335210000013303037103016229534_);fill:url(#SVGID_00000005225853647838937040000015778087155641594768_);}
	
		.st10{clip-path:url(#SVGID_00000042733690830651335210000013303037103016229534_);fill:url(#SVGID_00000031167337727712300660000018175064388679348642_);}
	
		.st11{clip-path:url(#SVGID_00000042733690830651335210000013303037103016229534_);fill:url(#SVGID_00000088091624638456699180000016977693658040972980_);}
	
		.st12{clip-path:url(#SVGID_00000042733690830651335210000013303037103016229534_);fill:url(#SVGID_00000108997847799404845170000016350407391973509805_);}
	
		.st13{clip-path:url(#SVGID_00000042733690830651335210000013303037103016229534_);fill:url(#SVGID_00000135661131448868641450000017717448937461450407_);}
	
		.st14{clip-path:url(#SVGID_00000042733690830651335210000013303037103016229534_);fill:url(#SVGID_00000154426281221588503820000001580943040481386938_);}
	
		.st15{clip-path:url(#SVGID_00000042733690830651335210000013303037103016229534_);fill:url(#SVGID_00000136376346233179378790000011654649319264856985_);}
	
		.st16{clip-path:url(#SVGID_00000042733690830651335210000013303037103016229534_);fill:url(#SVGID_00000000188806775916618070000000671606051519338882_);}
	
		.st17{clip-path:url(#SVGID_00000042733690830651335210000013303037103016229534_);fill:url(#SVGID_00000025442630250402454330000007565478313702531979_);}
	
		.st18{clip-path:url(#SVGID_00000042733690830651335210000013303037103016229534_);fill:url(#SVGID_00000065770973887137853930000016083368034192520359_);}
	.st19{clip-path:url(#SVGID_00000042733690830651335210000013303037103016229534_);}
	.st20{fill:url(#SVGID_00000004538687861070253150000005648565333002736299_);}
	.st21{fill:url(#SVGID_00000024682668650217197560000002884892800426173866_);}
	.st22{fill:url(#SVGID_00000129182787316172051600000006961217692556712370_);}
	.st23{fill:url(#SVGID_00000088844713966924738760000018446201853413648548_);}
	
		.st24{clip-path:url(#SVGID_00000042733690830651335210000013303037103016229534_);fill:url(#SVGID_00000046317891833367668680000017600057831328049848_);}
	
		.st25{clip-path:url(#SVGID_00000042733690830651335210000013303037103016229534_);fill:url(#SVGID_00000025444502525655928990000014585466697522511518_);}
	
		.st26{clip-path:url(#SVGID_00000042733690830651335210000013303037103016229534_);fill:url(#SVGID_00000004535754792051003600000000241930669884426630_);}
	
		.st27{clip-path:url(#SVGID_00000042733690830651335210000013303037103016229534_);fill:url(#SVGID_00000125566652548831941610000013430677230743201171_);}
	
		.st28{clip-path:url(#SVGID_00000042733690830651335210000013303037103016229534_);fill:url(#SVGID_00000047042125276098465580000004171172362041964933_);}
	
		.st29{clip-path:url(#SVGID_00000042733690830651335210000013303037103016229534_);fill:url(#SVGID_00000036946243141795058840000014929856665738419622_);}
	
		.st30{clip-path:url(#SVGID_00000042733690830651335210000013303037103016229534_);fill:url(#SVGID_00000067230439536632455690000012072086049417273745_);}
	
		.st31{clip-path:url(#SVGID_00000042733690830651335210000013303037103016229534_);fill:url(#SVGID_00000009585713079413301160000002105726577066601361_);}
	
		.st32{clip-path:url(#SVGID_00000042733690830651335210000013303037103016229534_);fill:url(#SVGID_00000119114481940182256350000015897643693150994328_);}
	
		.st33{clip-path:url(#SVGID_00000042733690830651335210000013303037103016229534_);fill:url(#SVGID_00000164509958155303554860000012692677065573827985_);}
	
		.st34{clip-path:url(#SVGID_00000042733690830651335210000013303037103016229534_);fill:url(#SVGID_00000139988707872427062340000013818531974644576384_);}
	
		.st35{clip-path:url(#SVGID_00000042733690830651335210000013303037103016229534_);fill:url(#SVGID_00000040563325865782073490000007169259311405258115_);}
	
		.st36{clip-path:url(#SVGID_00000042733690830651335210000013303037103016229534_);fill:url(#SVGID_00000111873216360128948040000010323591173695119546_);}
	
		.st37{clip-path:url(#SVGID_00000042733690830651335210000013303037103016229534_);fill:url(#SVGID_00000178194681228088722970000012712982794207107254_);}
	
		.st38{clip-path:url(#SVGID_00000042733690830651335210000013303037103016229534_);fill:url(#SVGID_00000093899786425764242680000015434372270215074230_);}
	
		.st39{clip-path:url(#SVGID_00000042733690830651335210000013303037103016229534_);fill:url(#SVGID_00000162334483383529963930000016609114838113561998_);}
	.st40{fill:url(#SVGID_00000060028269041624455560000005072948761947349138_);}
	.st41{fill:url(#SVGID_00000083794726745705625080000002175071724558022298_);}
	.st42{fill:url(#SVGID_00000067925971981428342090000018094637725381452709_);}
	.st43{fill:url(#SVGID_00000087397148061215407640000005626667275184386223_);}
	
		.st44{clip-path:url(#SVGID_00000042733690830651335210000013303037103016229534_);fill:url(#SVGID_00000153701039045471308180000008442535293889764778_);}
	
		.st45{clip-path:url(#SVGID_00000042733690830651335210000013303037103016229534_);fill:url(#SVGID_00000155860286512014543590000006097493225793049782_);}
	
		.st46{clip-path:url(#SVGID_00000042733690830651335210000013303037103016229534_);fill:url(#SVGID_00000114032782896602301660000011003697777214901691_);}
	
		.st47{clip-path:url(#SVGID_00000042733690830651335210000013303037103016229534_);fill:url(#SVGID_00000027601231534937123440000010623243215182293176_);}
	
		.st48{clip-path:url(#SVGID_00000042733690830651335210000013303037103016229534_);fill:url(#SVGID_00000019645136123338822320000008472003183415058620_);}
	
		.st49{clip-path:url(#SVGID_00000042733690830651335210000013303037103016229534_);fill:url(#SVGID_00000166636364334752790930000000620578566963303816_);}
	
		.st50{clip-path:url(#SVGID_00000042733690830651335210000013303037103016229534_);fill:url(#SVGID_00000141430270955253657960000004431972453334789528_);}
	
		.st51{clip-path:url(#SVGID_00000042733690830651335210000013303037103016229534_);fill:url(#SVGID_00000125580869224071002320000012780120194556638092_);}
	
		.st52{clip-path:url(#SVGID_00000042733690830651335210000013303037103016229534_);fill:url(#SVGID_00000052076904757166937480000008208963425684166318_);}
	
		.st53{clip-path:url(#SVGID_00000042733690830651335210000013303037103016229534_);fill:url(#SVGID_00000005237164211438917100000012767809852079414701_);}
	
		.st54{clip-path:url(#SVGID_00000042733690830651335210000013303037103016229534_);fill:url(#SVGID_00000006666707162087468010000000311063337665158279_);}
	
		.st55{clip-path:url(#SVGID_00000042733690830651335210000013303037103016229534_);fill:url(#SVGID_00000180338064493718345140000010119500025714081155_);}
	
		.st56{clip-path:url(#SVGID_00000042733690830651335210000013303037103016229534_);fill:url(#SVGID_00000127761275508823969340000016827492940007515552_);}
	
		.st57{clip-path:url(#SVGID_00000042733690830651335210000013303037103016229534_);fill:url(#SVGID_00000034779688985498314940000015824719349183362958_);}
	
		.st58{clip-path:url(#SVGID_00000042733690830651335210000013303037103016229534_);fill:url(#SVGID_00000125571537827150696780000002137035243929067926_);}
	
		.st59{clip-path:url(#SVGID_00000042733690830651335210000013303037103016229534_);fill:url(#SVGID_00000002385391656112092410000015246140727397765772_);}
	.st60{fill:url(#SVGID_00000151518677514081528150000012250878611211352996_);}
	.st61{fill:url(#SVGID_00000182505091607468184890000001015091973049379471_);}
	.st62{fill:url(#SVGID_00000103983917867257993760000012519255948083894702_);}
	.st63{fill:url(#SVGID_00000088839957228941054040000000366497751204260266_);}
	
		.st64{clip-path:url(#SVGID_00000042733690830651335210000013303037103016229534_);fill:url(#SVGID_00000163768152194792590430000009338538027768147352_);}
	
		.st65{clip-path:url(#SVGID_00000042733690830651335210000013303037103016229534_);fill:url(#SVGID_00000124855091062444248510000017720856917004762525_);}
	
		.st66{clip-path:url(#SVGID_00000042733690830651335210000013303037103016229534_);fill:url(#SVGID_00000155104356368268561260000018290886541115631500_);}
	
		.st67{clip-path:url(#SVGID_00000042733690830651335210000013303037103016229534_);fill:url(#SVGID_00000097459524757122503740000011527614063494947214_);}
	
		.st68{clip-path:url(#SVGID_00000042733690830651335210000013303037103016229534_);fill:url(#SVGID_00000168116683428133758310000018213804772034241176_);}
	
		.st69{clip-path:url(#SVGID_00000042733690830651335210000013303037103016229534_);fill:url(#SVGID_00000005947450436775272650000004577993272428634243_);}
	
		.st70{clip-path:url(#SVGID_00000042733690830651335210000013303037103016229534_);fill:url(#SVGID_00000170993371709697553460000000951599824758579099_);}
	
		.st71{clip-path:url(#SVGID_00000042733690830651335210000013303037103016229534_);fill:url(#SVGID_00000057136074597638046340000014412435238822986886_);}
	
		.st72{clip-path:url(#SVGID_00000042733690830651335210000013303037103016229534_);fill:url(#SVGID_00000098191190493174682250000015589883372615473342_);}
	
		.st73{clip-path:url(#SVGID_00000042733690830651335210000013303037103016229534_);fill:url(#SVGID_00000114782923667226002070000010363568835140866200_);}
	
		.st74{clip-path:url(#SVGID_00000042733690830651335210000013303037103016229534_);fill:url(#SVGID_00000029043101310102650340000003541210104172741055_);}
	
		.st75{clip-path:url(#SVGID_00000042733690830651335210000013303037103016229534_);fill:url(#SVGID_00000018235233999319072980000004540519308009012367_);}
	
		.st76{clip-path:url(#SVGID_00000042733690830651335210000013303037103016229534_);fill:url(#SVGID_00000072262723834041452620000012329080354804617097_);}
	
		.st77{clip-path:url(#SVGID_00000042733690830651335210000013303037103016229534_);fill:url(#SVGID_00000176766034235596422460000013632986190757487014_);}
	
		.st78{clip-path:url(#SVGID_00000042733690830651335210000013303037103016229534_);fill:url(#SVGID_00000147918762022176328640000007401891974034163387_);}
	
		.st79{clip-path:url(#SVGID_00000042733690830651335210000013303037103016229534_);fill:url(#SVGID_00000149373662563484564590000018272800851212083095_);}
	.st80{fill:url(#SVGID_00000068654376097201938980000009309485082967946651_);}
	.st81{fill:url(#SVGID_00000035529873855163805910000005791638387514743699_);}
	.st82{fill:url(#SVGID_00000173849793427943433880000006867235117016987053_);}
	.st83{fill:url(#SVGID_00000177462896310636650050000014060395167554385072_);}
	.st84{fill:url(#SVGID_00000136409963180536918590000015427755488341569436_);}
	.st85{fill:url(#SVGID_00000091725526810512809590000005133297849680965255_);}
	.st86{fill:url(#SVGID_00000039092834075892936460000002521234638445426083_);}
	.st87{fill:url(#SVGID_00000025415534297520394740000011996493920375823277_);}
	.st88{fill:url(#SVGID_00000117650608537674763150000004644237428888775833_);}
	.st89{fill:url(#SVGID_00000112600103304181867540000003556444711743822006_);}
	.st90{clip-path:url(#SVGID_00000045581420660369392000000008637047821617760930_);}
	.st91{fill:url(#SVGID_00000118355681771899134010000010348154353556195746_);}
	.st92{fill:url(#SVGID_00000070104579108443009980000016368349676677778353_);}
	.st93{fill:url(#SVGID_00000081622126892970025230000000790467725387103911_);}
	.st94{fill:url(#SVGID_00000140014832926979135520000007887402543680991163_);}
	.st95{fill:url(#SVGID_00000106852426083031388730000002852925209192273280_);}
	.st96{fill:url(#SVGID_00000005962153442137034070000003853587754911432339_);}
	.st97{fill:url(#SVGID_00000047762375706627231750000004914135887705850242_);}
	.st98{fill:none;stroke:#666364;stroke-miterlimit:10;}
	.st99{fill:#666364;}
	.st100{fill:#FFFFFF;}
	.st101{fill:#C1C0C1;}
	.st102{fill:none;stroke:#4F4C4D;stroke-width:0.0179;stroke-miterlimit:10;}
	.st103{fill:#D5D4D5;}
	.st104{clip-path:url(#SVGID_00000031895919699418931040000012619438841236076443_);}
	.st105{fill:none;stroke:#4F4C4D;stroke-width:0.8884;stroke-linecap:round;stroke-linejoin:round;stroke-miterlimit:10;}
	.st106{fill:none;stroke:#4F4C4D;stroke-width:0.8448;stroke-linecap:round;stroke-linejoin:round;stroke-miterlimit:10;}
	.st107{fill:none;stroke:#4F4C4D;stroke-width:0.9746;stroke-linecap:round;stroke-linejoin:round;stroke-miterlimit:10;}
	.st108{fill:none;stroke:#4F4C4D;stroke-width:0.8608;stroke-linecap:round;stroke-linejoin:round;stroke-miterlimit:10;}
	
		.st109{fill:none;stroke:#4F4C4D;stroke-width:0.8608;stroke-linecap:round;stroke-linejoin:round;stroke-miterlimit:10;stroke-dasharray:1.0632;}
	.st110{fill:none;stroke:#4F4C4D;stroke-width:0.9757;stroke-linecap:round;stroke-linejoin:round;stroke-miterlimit:10;}
	.st111{fill:none;stroke:#4F4C4D;stroke-width:1.1046;stroke-linecap:round;stroke-linejoin:round;stroke-miterlimit:10;}
	.st112{fill:none;stroke:#4F4C4D;stroke-width:1.0333;stroke-linecap:round;stroke-linejoin:round;stroke-miterlimit:10;}
	
		.st113{fill:none;stroke:#4F4C4D;stroke-width:1.0333;stroke-linecap:round;stroke-linejoin:round;stroke-miterlimit:10;stroke-dasharray:1.2;}
	.st114{fill:none;stroke:#4F4C4D;stroke-linecap:round;stroke-linejoin:round;stroke-miterlimit:10;}
	.st115{fill:none;stroke:#4F4C4D;stroke-linecap:round;stroke-linejoin:round;stroke-miterlimit:10;stroke-dasharray:1.0878;}
</style>
<g>
	<g>
		<path class="st0" d="M27.36,60.49L2.69,46.25V17.76L27.36,3.52l24.67,14.24v28.48L27.36,60.49z M4.53,45.18l22.83,13.18
			l22.83-13.18V18.83L27.36,5.65L4.53,18.83V45.18z"/>
	</g>
</g>
<g id="xo7p2I_1_">
	<g>
		<path class="st0" d="M31.29,35.64c1.26,0.31,2,1.4,1.98,2.61c-0.04,2.52-0.01,5.03-0.01,7.55c0,0.44-0.17,0.61-0.61,0.61
			c-0.59,0-1.19,0-1.78,0c-0.39,0-0.56-0.17-0.56-0.56c0-0.45,0-0.9,0-1.38c-4.9,0-9.8,0-14.74,0c0,0.12,0,0.24,0,0.37
			c0,1.74,0.17,1.57-1.58,1.57c-0.27,0-0.53,0-0.8,0c-0.38,0-0.56-0.17-0.56-0.56c0-2.64-0.01-5.28,0-7.92
			c0-1.07,0.75-1.93,1.96-2.3c0-0.67,0-1.36,0-2.04c0-0.81,0-1.62,0-2.42c0.01-0.82,0.64-1.46,1.46-1.46c4.59,0,9.19,0,13.78,0
			c0.81,0,1.45,0.65,1.45,1.47c0,1.34,0,2.68,0,4.02C31.29,35.34,31.29,35.49,31.29,35.64z M13.61,40.5c6.24,0,12.44,0,18.66,0
			c0-0.86,0.01-1.7-0.01-2.53c-0.01-0.39-0.19-0.73-0.49-0.99c-0.33-0.3-0.73-0.39-1.16-0.39c-2.67,0-5.34,0-8.01,0
			c-2.48,0-4.95,0-7.43,0c-0.85,0-1.52,0.56-1.55,1.37C13.58,38.8,13.61,39.64,13.61,40.5z M13.63,41.51c0,1.32,0,2.61,0,3.9
			c0.33,0,0.63,0,0.93,0c0.01-0.03,0.03-0.05,0.03-0.07c0-0.4,0.01-0.8,0.01-1.2c0-0.56,0.13-0.69,0.68-0.69c5.14,0,10.27,0,15.41,0
			c0.44,0,0.61,0.16,0.61,0.61c0,0.45,0,0.89,0,1.33c0.35,0,0.66,0,0.97,0c0-1.31,0-2.6,0-3.89C26.04,41.51,19.85,41.51,13.63,41.51
			z M23.43,35.6c0-0.68,0-1.32,0-1.96c0.01-0.82,0.64-1.46,1.46-1.46c1-0.01,2.01-0.02,3.01,0.01c0.26,0.01,0.55,0.11,0.77,0.24
			c0.44,0.27,0.66,0.69,0.66,1.21c0,0.65,0,1.3,0,1.95c0.35,0,0.66,0,0.98,0c0-1.42,0-2.82,0-4.23c0-0.49-0.17-0.66-0.66-0.66
			c-4.48,0-8.96,0-13.44,0c-0.45,0-0.63,0.18-0.63,0.63c0,1.34,0,2.68,0,4.02c0,0.08,0.01,0.16,0.01,0.24c0.33,0,0.64,0,0.97,0
			c0-0.66,0-1.29,0-1.92c0-0.86,0.63-1.49,1.49-1.49c0.94,0,1.88,0,2.82,0c0.98,0,1.58,0.6,1.58,1.59c0,0.61,0,1.22,0,1.84
			C22.79,35.6,23.09,35.6,23.43,35.6z M21.47,35.59c0-0.66,0.01-1.28,0-1.91c0-0.32-0.2-0.53-0.51-0.53c-0.96-0.01-1.92-0.01-2.88,0
			c-0.28,0-0.5,0.16-0.51,0.43c-0.03,0.67-0.01,1.34-0.01,2.01C18.87,35.59,20.15,35.59,21.47,35.59z M28.34,35.6
			c0-0.66,0.01-1.28,0-1.9c0-0.34-0.2-0.54-0.53-0.54c-0.95-0.01-1.9-0.01-2.85,0c-0.35,0-0.54,0.2-0.54,0.56
			c-0.01,0.48,0,0.96,0,1.44c0,0.15,0,0.3,0,0.44C25.75,35.6,27.03,35.6,28.34,35.6z"/>
		<path class="st0" d="M13.61,29.7c-0.34,0-0.64,0-0.98,0c0-0.37,0-0.74,0-1.1c0-1.55,0.01-3.11,0-4.66c0-0.31,0.11-0.49,0.39-0.62
			c4.68-2.09,9.35-4.19,14.03-6.27c0.18-0.08,0.45-0.08,0.63,0c4.68,2.08,9.35,4.18,14.03,6.28c0.24,0.11,0.39,0.25,0.39,0.52
			c0,1.91,0,3.83,0,5.74c0,0.03-0.01,0.06-0.02,0.11c-0.31,0-0.62,0-0.96,0c0-0.51,0-1.01,0-1.5c0-1.27,0-2.54,0.01-3.81
			c0-0.18-0.05-0.27-0.22-0.34c-4.45-1.99-8.9-3.99-13.36-5.98c-0.1-0.05-0.26-0.04-0.37,0c-4.45,1.99-8.9,3.99-13.36,5.98
			c-0.17,0.08-0.21,0.17-0.21,0.34c0.01,1.65,0,3.29,0,4.94C13.61,29.44,13.61,29.55,13.61,29.7z"/>
		<path class="st0" d="M42.08,43.46c-0.33,0-0.62,0-0.95,0c0-0.97,0-1.93,0-2.92c-1.98,0-3.93,0-5.91,0c0,0.97,0,1.93,0,2.91
			c-0.34,0-0.64,0-0.96,0c-0.01-0.08-0.02-0.16-0.02-0.23c0-2.32,0-4.64,0-6.96c0-0.5,0.15-0.64,0.63-0.65c2.22,0,4.44,0,6.66,0
			c0.39,0,0.57,0.17,0.57,0.55c0,2.36,0,4.72,0,7.09C42.09,43.31,42.09,43.37,42.08,43.46z M35.24,36.6c0,0.99,0,1.95,0,2.91
			c1.97,0,3.91,0,5.86,0c0-0.98,0-1.94,0-2.91C39.14,36.6,37.2,36.6,35.24,36.6z"/>
		<path class="st0" d="M38.67,32.17c0,0.51,0,0.98,0,1.46c0.32,0,0.62,0,0.95,0c0,0.33,0,0.64,0,0.97c-0.96,0-1.92,0-2.91,0
			c0-0.31,0-0.61,0-0.95c0.31,0,0.62,0,0.95,0c0-0.51,0-0.98,0-1.49c-0.47,0-0.92,0-1.38,0c-0.45,0-0.66-0.28-0.52-0.7
			c0.31-0.95,0.63-1.9,0.94-2.84c0.08-0.25,0.25-0.38,0.52-0.38c0.63,0,1.27,0,1.9,0c0.26,0,0.43,0.13,0.51,0.36
			c0.32,0.96,0.64,1.91,0.95,2.87c0.13,0.41-0.08,0.69-0.51,0.69C39.61,32.17,39.15,32.17,38.67,32.17z M36.9,31.17
			c0.86,0,1.68,0,2.54,0c-0.12-0.36-0.23-0.68-0.34-1.01c-0.11-0.31-0.14-0.74-0.35-0.88c-0.24-0.16-0.65-0.05-0.98-0.05
			c-0.02,0-0.05-0.01-0.06,0c-0.07,0.04-0.17,0.08-0.19,0.14C37.29,29.95,37.1,30.54,36.9,31.17z"/>
		<path class="st0" d="M28.5,21.1c-0.1,0.29-0.21,0.58-0.31,0.88c-2-0.53-3.21,0.95-3.29,2.21c-0.08,1.36,1.05,2.58,2.42,2.59
			c1.4,0.01,2.64-1.14,2.47-2.87c0.31-0.05,0.63-0.11,0.94-0.16c0.34,1.35-0.49,2.97-1.84,3.65c-1.45,0.73-3.2,0.34-4.23-0.93
			c-1.02-1.26-1-3.05,0.03-4.33C25.71,20.88,27.42,20.61,28.5,21.1z"/>
		<path class="st0" d="M27.3,24.17c1.11-1.11,2.12-2.12,3.15-3.15c0.23,0.24,0.44,0.47,0.67,0.71c-0.05,0.05-0.11,0.12-0.17,0.19
			c-1.04,1.04-2.08,2.08-3.12,3.12c-0.36,0.36-0.57,0.35-0.93,0c-0.28-0.28-0.57-0.55-0.88-0.84c0.27-0.24,0.5-0.44,0.77-0.68
			C26.92,23.69,27.1,23.91,27.3,24.17z"/>
		<path class="st0" d="M37.21,37.58c0.65,0,1.28,0,1.92,0c0,0.32,0,0.63,0,0.96c-0.64,0-1.27,0-1.92,0
			C37.21,38.23,37.21,37.92,37.21,37.58z"/>
	</g>
</g>
</svg>
