<?xml version="1.0" encoding="utf-8"?>
<!-- Generator: Adobe Illustrator 27.2.0, SVG Export Plug-In . SVG Version: 6.00 Build 0)  -->
<svg version="1.1" id="Layer_1" xmlns="http://www.w3.org/2000/svg" xmlns:xlink="http://www.w3.org/1999/xlink" x="0px" y="0px"
	 viewBox="0 0 54.72 63.62" style="enable-background:new 0 0 54.72 63.62;" xml:space="preserve">
<style type="text/css">
	.st0{fill:#4F4C4D;}
	.st1{fill:url(#SVGID_1_);}
	.st2{fill:url(#SVGID_00000009578414925770071300000007985122184524516743_);}
	
		.st3{clip-path:url(#SVGID_00000174576570176251261860000012746143933894106285_);fill:url(#SVGID_00000066493712683231430970000010172220998050844032_);}
	
		.st4{clip-path:url(#SVGID_00000174576570176251261860000012746143933894106285_);fill:url(#SVGID_00000137822999487958026800000015638712281605610112_);}
	
		.st5{clip-path:url(#SVGID_00000174576570176251261860000012746143933894106285_);fill:url(#SVGID_00000070116652884468998440000011673571284582327958_);}
	
		.st6{clip-path:url(#SVGID_00000174576570176251261860000012746143933894106285_);fill:url(#SVGID_00000052066915195269009320000015793827943634347932_);}
	
		.st7{clip-path:url(#SVGID_00000174576570176251261860000012746143933894106285_);fill:url(#SVGID_00000183935701997956733580000014485712714377414582_);}
	
		.st8{clip-path:url(#SVGID_00000174576570176251261860000012746143933894106285_);fill:url(#SVGID_00000135688784782331992720000017129302357257528743_);}
	
		.st9{clip-path:url(#SVGID_00000174576570176251261860000012746143933894106285_);fill:url(#SVGID_00000041270223279298345730000018173766201126959491_);}
	
		.st10{clip-path:url(#SVGID_00000174576570176251261860000012746143933894106285_);fill:url(#SVGID_00000038386836024836809100000017569951426113107077_);}
	
		.st11{clip-path:url(#SVGID_00000174576570176251261860000012746143933894106285_);fill:url(#SVGID_00000163773081842593761810000017270295067715129511_);}
	
		.st12{clip-path:url(#SVGID_00000174576570176251261860000012746143933894106285_);fill:url(#SVGID_00000073694256967627670540000013688620928637107074_);}
	
		.st13{clip-path:url(#SVGID_00000174576570176251261860000012746143933894106285_);fill:url(#SVGID_00000114786178512504814030000009127861861085296770_);}
	
		.st14{clip-path:url(#SVGID_00000174576570176251261860000012746143933894106285_);fill:url(#SVGID_00000052784570289239657550000012465459441119203755_);}
	
		.st15{clip-path:url(#SVGID_00000174576570176251261860000012746143933894106285_);fill:url(#SVGID_00000109023083108715565410000018062773804229677748_);}
	
		.st16{clip-path:url(#SVGID_00000174576570176251261860000012746143933894106285_);fill:url(#SVGID_00000069369921885079190350000016003743964956921522_);}
	
		.st17{clip-path:url(#SVGID_00000174576570176251261860000012746143933894106285_);fill:url(#SVGID_00000018228049034207990070000014617179895362625439_);}
	
		.st18{clip-path:url(#SVGID_00000174576570176251261860000012746143933894106285_);fill:url(#SVGID_00000032624953075681428650000008540894825578943675_);}
	.st19{clip-path:url(#SVGID_00000174576570176251261860000012746143933894106285_);}
	.st20{fill:url(#SVGID_00000076598008240512668580000011885363554858153389_);}
	.st21{fill:url(#SVGID_00000169538095702714281870000002421511658046874795_);}
	.st22{fill:url(#SVGID_00000144336481432314600650000017916776749548123317_);}
	.st23{fill:url(#SVGID_00000075856930345733752210000012802186317818597262_);}
	
		.st24{clip-path:url(#SVGID_00000174576570176251261860000012746143933894106285_);fill:url(#SVGID_00000128464812563520103430000001743333640971619255_);}
	
		.st25{clip-path:url(#SVGID_00000174576570176251261860000012746143933894106285_);fill:url(#SVGID_00000154411002187115599840000007035536088480040336_);}
	
		.st26{clip-path:url(#SVGID_00000174576570176251261860000012746143933894106285_);fill:url(#SVGID_00000134940168795409373630000012079066535847445919_);}
	
		.st27{clip-path:url(#SVGID_00000174576570176251261860000012746143933894106285_);fill:url(#SVGID_00000028317250636834262950000004010159753683533473_);}
	
		.st28{clip-path:url(#SVGID_00000174576570176251261860000012746143933894106285_);fill:url(#SVGID_00000050640697866443089740000001009231376779427742_);}
	
		.st29{clip-path:url(#SVGID_00000174576570176251261860000012746143933894106285_);fill:url(#SVGID_00000064342242777947720430000006149269761331650964_);}
	
		.st30{clip-path:url(#SVGID_00000174576570176251261860000012746143933894106285_);fill:url(#SVGID_00000112630404991541638340000007685956433233607588_);}
	
		.st31{clip-path:url(#SVGID_00000174576570176251261860000012746143933894106285_);fill:url(#SVGID_00000111170356821527600840000003368188519375240589_);}
	
		.st32{clip-path:url(#SVGID_00000174576570176251261860000012746143933894106285_);fill:url(#SVGID_00000147923919135471731840000006942618118883861413_);}
	
		.st33{clip-path:url(#SVGID_00000174576570176251261860000012746143933894106285_);fill:url(#SVGID_00000035493965663483757940000005878932056475520926_);}
	
		.st34{clip-path:url(#SVGID_00000174576570176251261860000012746143933894106285_);fill:url(#SVGID_00000145744882789335801540000000591422010884360882_);}
	
		.st35{clip-path:url(#SVGID_00000174576570176251261860000012746143933894106285_);fill:url(#SVGID_00000147189076950631972860000005966063476358664634_);}
	
		.st36{clip-path:url(#SVGID_00000174576570176251261860000012746143933894106285_);fill:url(#SVGID_00000072986572293522263250000008348865864025204654_);}
	
		.st37{clip-path:url(#SVGID_00000174576570176251261860000012746143933894106285_);fill:url(#SVGID_00000109729520663236251890000017270632306658983615_);}
	
		.st38{clip-path:url(#SVGID_00000174576570176251261860000012746143933894106285_);fill:url(#SVGID_00000034091847759811634510000006347205407893177253_);}
	
		.st39{clip-path:url(#SVGID_00000174576570176251261860000012746143933894106285_);fill:url(#SVGID_00000009588143237247603280000015158884707186318269_);}
	.st40{fill:url(#SVGID_00000173849834187848549010000007296803305998702006_);}
	.st41{fill:url(#SVGID_00000124840895077022650100000003198046047767010448_);}
	.st42{fill:url(#SVGID_00000098942297781812977910000005930050911636950677_);}
	.st43{fill:url(#SVGID_00000096046628874055563180000001042461036510953898_);}
	
		.st44{clip-path:url(#SVGID_00000174576570176251261860000012746143933894106285_);fill:url(#SVGID_00000060016305745487356350000007640177589591906449_);}
	
		.st45{clip-path:url(#SVGID_00000174576570176251261860000012746143933894106285_);fill:url(#SVGID_00000018234460426657274810000006589492813027324844_);}
	
		.st46{clip-path:url(#SVGID_00000174576570176251261860000012746143933894106285_);fill:url(#SVGID_00000124119226827276554950000003663160666649386167_);}
	
		.st47{clip-path:url(#SVGID_00000174576570176251261860000012746143933894106285_);fill:url(#SVGID_00000152980564670220094720000013310996969480686778_);}
	
		.st48{clip-path:url(#SVGID_00000174576570176251261860000012746143933894106285_);fill:url(#SVGID_00000065051485984816612210000016331159569411260070_);}
	
		.st49{clip-path:url(#SVGID_00000174576570176251261860000012746143933894106285_);fill:url(#SVGID_00000088854874525694828110000010156180370317632903_);}
	
		.st50{clip-path:url(#SVGID_00000174576570176251261860000012746143933894106285_);fill:url(#SVGID_00000034059506703943965980000002675094765032329399_);}
	
		.st51{clip-path:url(#SVGID_00000174576570176251261860000012746143933894106285_);fill:url(#SVGID_00000003102812480828534040000014819687393915530166_);}
	
		.st52{clip-path:url(#SVGID_00000174576570176251261860000012746143933894106285_);fill:url(#SVGID_00000170990976965515198730000008607495220510605967_);}
	
		.st53{clip-path:url(#SVGID_00000174576570176251261860000012746143933894106285_);fill:url(#SVGID_00000141439477812386018810000010407791698601192079_);}
	
		.st54{clip-path:url(#SVGID_00000174576570176251261860000012746143933894106285_);fill:url(#SVGID_00000006705451694796039840000005431827956289266609_);}
	
		.st55{clip-path:url(#SVGID_00000174576570176251261860000012746143933894106285_);fill:url(#SVGID_00000078024135859020691100000004144048232788672667_);}
	
		.st56{clip-path:url(#SVGID_00000174576570176251261860000012746143933894106285_);fill:url(#SVGID_00000044873290529001843640000002908622447333281179_);}
	
		.st57{clip-path:url(#SVGID_00000174576570176251261860000012746143933894106285_);fill:url(#SVGID_00000029018339011238835970000004711405077384190873_);}
	
		.st58{clip-path:url(#SVGID_00000174576570176251261860000012746143933894106285_);fill:url(#SVGID_00000077313624999516080590000011534465133249682341_);}
	
		.st59{clip-path:url(#SVGID_00000174576570176251261860000012746143933894106285_);fill:url(#SVGID_00000163788913353812704620000018039896346783933058_);}
	.st60{fill:url(#SVGID_00000152249247643958172300000001449192900781703077_);}
	.st61{fill:url(#SVGID_00000055672455418547103510000016696880363767321752_);}
	.st62{fill:url(#SVGID_00000108285713423696783830000002203972912215502746_);}
	.st63{fill:url(#SVGID_00000133491734184990631400000009074130347081669529_);}
	
		.st64{clip-path:url(#SVGID_00000174576570176251261860000012746143933894106285_);fill:url(#SVGID_00000105416631265758577000000018068199157010658453_);}
	
		.st65{clip-path:url(#SVGID_00000174576570176251261860000012746143933894106285_);fill:url(#SVGID_00000085964487597505921180000005058017291740716707_);}
	
		.st66{clip-path:url(#SVGID_00000174576570176251261860000012746143933894106285_);fill:url(#SVGID_00000029031269146035136400000001560936720766388394_);}
	
		.st67{clip-path:url(#SVGID_00000174576570176251261860000012746143933894106285_);fill:url(#SVGID_00000099639157371170298560000008296395539584712886_);}
	
		.st68{clip-path:url(#SVGID_00000174576570176251261860000012746143933894106285_);fill:url(#SVGID_00000079454025197146839800000002932270086792369574_);}
	
		.st69{clip-path:url(#SVGID_00000174576570176251261860000012746143933894106285_);fill:url(#SVGID_00000058547695362600548580000004534891970418621605_);}
	
		.st70{clip-path:url(#SVGID_00000174576570176251261860000012746143933894106285_);fill:url(#SVGID_00000111908106311736004890000016157421542648935071_);}
	
		.st71{clip-path:url(#SVGID_00000174576570176251261860000012746143933894106285_);fill:url(#SVGID_00000168819896812914803470000010921375417815205042_);}
	
		.st72{clip-path:url(#SVGID_00000174576570176251261860000012746143933894106285_);fill:url(#SVGID_00000137838006030778657150000005110583992627377063_);}
	
		.st73{clip-path:url(#SVGID_00000174576570176251261860000012746143933894106285_);fill:url(#SVGID_00000142883764819045740480000013316195603422884781_);}
	
		.st74{clip-path:url(#SVGID_00000174576570176251261860000012746143933894106285_);fill:url(#SVGID_00000045619233734575648090000001890664880043294384_);}
	
		.st75{clip-path:url(#SVGID_00000174576570176251261860000012746143933894106285_);fill:url(#SVGID_00000062155842863167185530000000313616749266656152_);}
	
		.st76{clip-path:url(#SVGID_00000174576570176251261860000012746143933894106285_);fill:url(#SVGID_00000134944948367335155340000018304480959584313500_);}
	
		.st77{clip-path:url(#SVGID_00000174576570176251261860000012746143933894106285_);fill:url(#SVGID_00000152260398356381435350000006341537146324205237_);}
	
		.st78{clip-path:url(#SVGID_00000174576570176251261860000012746143933894106285_);fill:url(#SVGID_00000159454207193960950540000016813570738927946686_);}
	
		.st79{clip-path:url(#SVGID_00000174576570176251261860000012746143933894106285_);fill:url(#SVGID_00000037682683180934907500000008973722303552404919_);}
	.st80{fill:url(#SVGID_00000151529457894941194390000007087735497400955566_);}
	.st81{fill:url(#SVGID_00000160174826703386626210000015133707554138570120_);}
	.st82{fill:url(#SVGID_00000012463679482684651330000007572968124288380847_);}
	.st83{fill:url(#SVGID_00000160160220619902901020000013620783989971838135_);}
	.st84{fill:url(#SVGID_00000039095885566630300670000013271449040206021522_);}
	.st85{fill:url(#SVGID_00000119837416518613900200000005131541067545292210_);}
	.st86{fill:url(#SVGID_00000034775954850525248740000003837107580836921021_);}
	.st87{fill:url(#SVGID_00000062159034610819741820000009501703849584801161_);}
	.st88{fill:url(#SVGID_00000150811848254158728450000009448316859921906869_);}
	.st89{fill:url(#SVGID_00000164503670651740653460000017599798709944669075_);}
	.st90{clip-path:url(#SVGID_00000013161448898535001150000012861994036321082250_);}
	.st91{fill:url(#SVGID_00000114788502279678426720000012645508334287370163_);}
	.st92{fill:url(#SVGID_00000049902295730172757570000013832744726715108251_);}
	.st93{fill:url(#SVGID_00000065042979993404752350000010270358317857417117_);}
	.st94{fill:url(#SVGID_00000045587029722792584110000007841995832579944344_);}
	.st95{fill:url(#SVGID_00000132045883660080891100000006906543008358664608_);}
	.st96{fill:url(#SVGID_00000086687073630326786410000002130132681848809883_);}
	.st97{fill:url(#SVGID_00000049220845977493639640000009084712866096506268_);}
	.st98{fill:none;stroke:#666364;stroke-miterlimit:10;}
	.st99{fill:#666364;}
	.st100{fill:#FFFFFF;}
	.st101{fill:#C1C0C1;}
	.st102{fill:none;stroke:#4F4C4D;stroke-width:0.0179;stroke-miterlimit:10;}
	.st103{fill:#D5D4D5;}
	.st104{clip-path:url(#SVGID_00000008124923683554982750000014131381976864204696_);}
	.st105{fill:none;stroke:#4F4C4D;stroke-width:0.8884;stroke-linecap:round;stroke-linejoin:round;stroke-miterlimit:10;}
	.st106{fill:none;stroke:#4F4C4D;stroke-width:0.8448;stroke-linecap:round;stroke-linejoin:round;stroke-miterlimit:10;}
	.st107{fill:none;stroke:#4F4C4D;stroke-width:0.9746;stroke-linecap:round;stroke-linejoin:round;stroke-miterlimit:10;}
	.st108{fill:none;stroke:#4F4C4D;stroke-width:0.8608;stroke-linecap:round;stroke-linejoin:round;stroke-miterlimit:10;}
	
		.st109{fill:none;stroke:#4F4C4D;stroke-width:0.8608;stroke-linecap:round;stroke-linejoin:round;stroke-miterlimit:10;stroke-dasharray:1.0632;}
	.st110{fill:none;stroke:#4F4C4D;stroke-width:0.9757;stroke-linecap:round;stroke-linejoin:round;stroke-miterlimit:10;}
	.st111{fill:none;stroke:#4F4C4D;stroke-width:1.1046;stroke-linecap:round;stroke-linejoin:round;stroke-miterlimit:10;}
	.st112{fill:none;stroke:#4F4C4D;stroke-width:1.0333;stroke-linecap:round;stroke-linejoin:round;stroke-miterlimit:10;}
	
		.st113{fill:none;stroke:#4F4C4D;stroke-width:1.0333;stroke-linecap:round;stroke-linejoin:round;stroke-miterlimit:10;stroke-dasharray:1.2;}
	.st114{fill:none;stroke:#4F4C4D;stroke-linecap:round;stroke-linejoin:round;stroke-miterlimit:10;}
	.st115{fill:none;stroke:#4F4C4D;stroke-linecap:round;stroke-linejoin:round;stroke-miterlimit:10;stroke-dasharray:1.0878;}
</style>
<g>
	<g>
		<path class="st0" d="M27.36,60.49L2.69,46.25V17.76L27.36,3.52l24.67,14.24v28.48L27.36,60.49z M4.53,45.18l22.83,13.18
			l22.83-13.18V18.83L27.36,5.65L4.53,18.83V45.18z"/>
	</g>
</g>
<g>
	<path class="st0" d="M11.38,17.89c10.3,0,20.54,0,30.81,0c0,9.36,0,18.71,0,28.1c0.78,0,1.53,0,2.29,0c0,0.28,0,0.51,0,0.76
		c-11.79,0-23.57,0-35.38,0c0-0.23,0-0.46,0-0.74c0.75,0,1.49,0,2.27,0C11.38,36.62,11.38,27.27,11.38,17.89z M12.19,45.98
		c9.75,0,19.47,0,29.21,0c0-9.12,0-18.22,0-27.32c-9.75,0-19.47,0-29.21,0C12.19,27.78,12.19,36.88,12.19,45.98z"/>
	<path class="st0" d="M13.35,19.44c4.36,0,8.68,0,13.04,0c0,8.33,0,16.64,0,24.98c-4.33,0-8.67,0-13.04,0
		C13.35,36.1,13.35,27.79,13.35,19.44z M25.62,31.74c0-3.88,0-7.69,0-11.51c-3.85,0-7.68,0-11.51,0c0,7.83,0,15.63,0,23.43
		c3.85,0,7.68,0,11.51,0c0-3.72,0-7.41,0-11.15c-0.64,0-1.27,0-1.88,0c0-0.28,0-0.51,0-0.77C24.38,31.74,24.99,31.74,25.62,31.74z"
		/>
	<path class="st0" d="M27.2,19.45c4.35,0,8.68,0,13.04,0c0,8.31,0,16.63,0,24.97c-4.34,0-8.68,0-13.04,0
		C27.2,36.1,27.2,27.79,27.2,19.45z M27.98,32.52c0,3.74,0,7.44,0,11.14c3.86,0,7.68,0,11.5,0c0-7.83,0-15.63,0-23.44
		c-3.85,0-7.67,0-11.5,0c0,3.84,0,7.67,0,11.54c0.65,0,1.27,0,1.89,0c0,0.27,0,0.49,0,0.76C29.24,32.52,28.62,32.52,27.98,32.52z"/>
	<path class="st0" d="M17.21,34.52c0.07,0.14,0.15,0.29,0.21,0.43c0.09,0.22,0.2,0.44,0.25,0.66c0.1,0.44,0.36,0.68,0.79,0.78
		c0.23,0.05,0.46,0.14,0.66,0.26c0.12,0.07,0.26,0.24,0.26,0.36c0,0.12-0.14,0.3-0.26,0.36c-0.31,0.15-0.66,0.24-0.97,0.39
		c-0.14,0.07-0.28,0.2-0.35,0.34c-0.14,0.29-0.21,0.62-0.36,0.9c-0.08,0.15-0.25,0.33-0.39,0.33c-0.13,0-0.36-0.18-0.39-0.32
		c-0.18-0.93-0.74-1.43-1.64-1.63c-0.13-0.03-0.31-0.24-0.3-0.36c0.01-0.14,0.18-0.37,0.31-0.4c0.91-0.19,1.46-0.72,1.64-1.64
		c0.03-0.15,0.22-0.26,0.34-0.39C17.08,34.59,17.14,34.55,17.21,34.52z M17.06,37.83c0.09-0.46,0.4-0.68,0.81-0.82
		c-0.47-0.09-0.69-0.39-0.84-0.82c-0.06,0.5-0.39,0.69-0.79,0.84C16.69,37.13,16.94,37.4,17.06,37.83z"/>
	<path class="st0" d="M18.55,23.76c0.13,0.15,0.29,0.33,0.42,0.47c-1.14,1.15-2.32,2.32-3.5,3.5c-0.14-0.15-0.3-0.31-0.44-0.46
		C16.2,26.11,17.37,24.94,18.55,23.76z"/>
	<path class="st0" d="M21.19,24.21c0.14,0.14,0.31,0.3,0.45,0.44c-1.18,1.19-2.34,2.36-3.5,3.52c-0.15-0.15-0.31-0.32-0.45-0.46
		C18.83,26.57,19.99,25.41,21.19,24.21z"/>
	<path class="st0" d="M19.69,23.47c-0.11-0.11-0.27-0.28-0.42-0.44c0.38-0.37,0.75-0.73,1.13-1.1c0.12,0.13,0.28,0.3,0.44,0.48
		C20.47,22.74,20.09,23.1,19.69,23.47z"/>
	<path class="st0" d="M38.88,29.11c-0.24,0.18-0.37,0.34-0.53,0.41c-0.6,0.25-1.22,0.46-1.82,0.71c-0.14,0.06-0.28,0.2-0.34,0.34
		c-0.25,0.6-0.46,1.22-0.71,1.81c-0.07,0.16-0.26,0.36-0.4,0.36c-0.14,0-0.33-0.2-0.4-0.35c-0.24-0.55-0.46-1.11-0.64-1.68
		c-0.1-0.31-0.28-0.46-0.58-0.56c-0.56-0.19-1.11-0.39-1.65-0.63c-0.16-0.07-0.38-0.27-0.37-0.39c0.02-0.16,0.21-0.35,0.38-0.42
		c0.58-0.25,1.19-0.45,1.78-0.7c0.15-0.06,0.3-0.22,0.36-0.37c0.25-0.59,0.44-1.19,0.7-1.78c0.07-0.16,0.27-0.35,0.43-0.37
		c0.12-0.01,0.32,0.2,0.39,0.36c0.25,0.57,0.44,1.17,0.68,1.74c0.07,0.17,0.24,0.34,0.41,0.42c0.58,0.25,1.19,0.45,1.78,0.7
		C38.52,28.77,38.64,28.92,38.88,29.11z M32.89,29.1c0.48,0.18,0.87,0.3,1.23,0.48c0.19,0.1,0.38,0.28,0.47,0.47
		c0.18,0.36,0.3,0.75,0.48,1.22c0.17-0.43,0.32-0.76,0.42-1.1c0.1-0.34,0.29-0.55,0.64-0.65c0.35-0.1,0.68-0.26,1.11-0.43
		c-0.47-0.18-0.86-0.3-1.22-0.48c-0.19-0.1-0.37-0.28-0.47-0.47c-0.18-0.36-0.3-0.75-0.48-1.23c-0.18,0.49-0.3,0.88-0.49,1.24
		c-0.1,0.19-0.28,0.37-0.47,0.47C33.75,28.8,33.36,28.92,32.89,29.1z"/>
	<path class="st0" d="M31.58,27.61c-0.17-0.19-0.31-0.29-0.37-0.43c-0.15-0.33-0.25-0.68-0.41-1.01c-0.07-0.15-0.22-0.3-0.37-0.37
		c-0.33-0.16-0.68-0.24-1.01-0.4c-0.13-0.06-0.28-0.25-0.28-0.37c0-0.13,0.16-0.34,0.29-0.37c0.99-0.21,1.59-0.79,1.79-1.79
		c0.03-0.13,0.25-0.31,0.36-0.3c0.14,0.02,0.31,0.18,0.39,0.32c0.13,0.24,0.24,0.5,0.3,0.77c0.09,0.39,0.33,0.58,0.7,0.69
		c0.28,0.08,0.55,0.18,0.8,0.31c0.12,0.07,0.28,0.24,0.27,0.35c-0.01,0.14-0.15,0.32-0.28,0.38c-0.33,0.17-0.7,0.26-1.04,0.42
		c-0.14,0.07-0.28,0.2-0.35,0.34c-0.15,0.33-0.25,0.68-0.4,1.01C31.91,27.32,31.75,27.43,31.58,27.61z M32.51,25.02
		c-0.54-0.1-0.77-0.47-0.94-0.93c-0.09,0.54-0.42,0.8-0.91,0.95c0.53,0.11,0.81,0.43,0.94,0.95C31.69,25.47,31.99,25.17,32.51,25.02
		z"/>
</g>
</svg>
