<?xml version="1.0" encoding="utf-8"?>
<!-- Generator: Adobe Illustrator 27.2.0, SVG Export Plug-In . SVG Version: 6.00 Build 0)  -->
<svg version="1.1" id="Layer_1" xmlns="http://www.w3.org/2000/svg" xmlns:xlink="http://www.w3.org/1999/xlink" x="0px" y="0px"
	 viewBox="0 0 54.72 63.62" style="enable-background:new 0 0 54.72 63.62;" xml:space="preserve">
<style type="text/css">
	.st0{fill:#4F4C4D;}
	.st1{fill:url(#SVGID_1_);}
	.st2{fill:url(#SVGID_00000098180700604469293870000004029650493765725115_);}
	
		.st3{clip-path:url(#SVGID_00000011723208320438794200000015654786234992858558_);fill:url(#SVGID_00000165200705157186747730000007531547418035529907_);}
	
		.st4{clip-path:url(#SVGID_00000011723208320438794200000015654786234992858558_);fill:url(#SVGID_00000085208537054898288790000009316595865853002668_);}
	
		.st5{clip-path:url(#SVGID_00000011723208320438794200000015654786234992858558_);fill:url(#SVGID_00000163069559202238623830000012003247838265654409_);}
	
		.st6{clip-path:url(#SVGID_00000011723208320438794200000015654786234992858558_);fill:url(#SVGID_00000051354323502604331180000007305948088313324958_);}
	
		.st7{clip-path:url(#SVGID_00000011723208320438794200000015654786234992858558_);fill:url(#SVGID_00000155835032502420107190000012120796503899684262_);}
	
		.st8{clip-path:url(#SVGID_00000011723208320438794200000015654786234992858558_);fill:url(#SVGID_00000020401132858831124140000000952321998524202161_);}
	
		.st9{clip-path:url(#SVGID_00000011723208320438794200000015654786234992858558_);fill:url(#SVGID_00000031197940070293577790000008562442770088787600_);}
	
		.st10{clip-path:url(#SVGID_00000011723208320438794200000015654786234992858558_);fill:url(#SVGID_00000017506541660220616330000001030718562824365710_);}
	
		.st11{clip-path:url(#SVGID_00000011723208320438794200000015654786234992858558_);fill:url(#SVGID_00000176731673100640242210000005710110995637680284_);}
	
		.st12{clip-path:url(#SVGID_00000011723208320438794200000015654786234992858558_);fill:url(#SVGID_00000072260776132763827470000001411793743981255088_);}
	
		.st13{clip-path:url(#SVGID_00000011723208320438794200000015654786234992858558_);fill:url(#SVGID_00000070102717109800399090000008056221068855499433_);}
	
		.st14{clip-path:url(#SVGID_00000011723208320438794200000015654786234992858558_);fill:url(#SVGID_00000096057545461559032380000001094178818529211816_);}
	
		.st15{clip-path:url(#SVGID_00000011723208320438794200000015654786234992858558_);fill:url(#SVGID_00000078029738797867616970000008800313712473388990_);}
	
		.st16{clip-path:url(#SVGID_00000011723208320438794200000015654786234992858558_);fill:url(#SVGID_00000049925426517944737470000015146569222512298679_);}
	
		.st17{clip-path:url(#SVGID_00000011723208320438794200000015654786234992858558_);fill:url(#SVGID_00000060026188232267228330000014584181221047892118_);}
	
		.st18{clip-path:url(#SVGID_00000011723208320438794200000015654786234992858558_);fill:url(#SVGID_00000044137312803636610090000014793495519573662096_);}
	.st19{clip-path:url(#SVGID_00000011723208320438794200000015654786234992858558_);}
	.st20{fill:url(#SVGID_00000122681825862524078200000016878138469870816925_);}
	.st21{fill:url(#SVGID_00000023992351534557629680000014151159377556713915_);}
	.st22{fill:url(#SVGID_00000006703022180260913130000007816758276274612612_);}
	.st23{fill:url(#SVGID_00000172419750464968458640000017489917222196652204_);}
	
		.st24{clip-path:url(#SVGID_00000011723208320438794200000015654786234992858558_);fill:url(#SVGID_00000149365428264087546980000000962160582258206604_);}
	
		.st25{clip-path:url(#SVGID_00000011723208320438794200000015654786234992858558_);fill:url(#SVGID_00000158723022744483992990000008080128384782240173_);}
	
		.st26{clip-path:url(#SVGID_00000011723208320438794200000015654786234992858558_);fill:url(#SVGID_00000150785702455520367490000005728048817946672518_);}
	
		.st27{clip-path:url(#SVGID_00000011723208320438794200000015654786234992858558_);fill:url(#SVGID_00000134238366803576461380000000552427187573026997_);}
	
		.st28{clip-path:url(#SVGID_00000011723208320438794200000015654786234992858558_);fill:url(#SVGID_00000115501059764885305900000006028410269827202227_);}
	
		.st29{clip-path:url(#SVGID_00000011723208320438794200000015654786234992858558_);fill:url(#SVGID_00000060028200356478980620000002599547257564291251_);}
	
		.st30{clip-path:url(#SVGID_00000011723208320438794200000015654786234992858558_);fill:url(#SVGID_00000124869524850864104150000014587599374371137681_);}
	
		.st31{clip-path:url(#SVGID_00000011723208320438794200000015654786234992858558_);fill:url(#SVGID_00000063617958548229249160000012805701435046147718_);}
	
		.st32{clip-path:url(#SVGID_00000011723208320438794200000015654786234992858558_);fill:url(#SVGID_00000005967782820367324690000010687860965741997228_);}
	
		.st33{clip-path:url(#SVGID_00000011723208320438794200000015654786234992858558_);fill:url(#SVGID_00000142165829438221921950000012274330112669579953_);}
	
		.st34{clip-path:url(#SVGID_00000011723208320438794200000015654786234992858558_);fill:url(#SVGID_00000168834462874864754790000010217350293727649461_);}
	
		.st35{clip-path:url(#SVGID_00000011723208320438794200000015654786234992858558_);fill:url(#SVGID_00000106856239093089996040000006211772569664176573_);}
	
		.st36{clip-path:url(#SVGID_00000011723208320438794200000015654786234992858558_);fill:url(#SVGID_00000067217678206379773170000010873781346203323275_);}
	
		.st37{clip-path:url(#SVGID_00000011723208320438794200000015654786234992858558_);fill:url(#SVGID_00000051355467423243892460000009084310883802863248_);}
	
		.st38{clip-path:url(#SVGID_00000011723208320438794200000015654786234992858558_);fill:url(#SVGID_00000170251576557795926550000014771826313380859293_);}
	
		.st39{clip-path:url(#SVGID_00000011723208320438794200000015654786234992858558_);fill:url(#SVGID_00000082350843685036754290000016109287678143012785_);}
	.st40{fill:url(#SVGID_00000104683064151823957370000005737482115687803316_);}
	.st41{fill:url(#SVGID_00000002346743491325565630000009088676073587831452_);}
	.st42{fill:url(#SVGID_00000123431082791925182110000010932406167708361868_);}
	.st43{fill:url(#SVGID_00000178185577774071685460000008109920205186230661_);}
	
		.st44{clip-path:url(#SVGID_00000011723208320438794200000015654786234992858558_);fill:url(#SVGID_00000103964889244112217610000008679345319194064532_);}
	
		.st45{clip-path:url(#SVGID_00000011723208320438794200000015654786234992858558_);fill:url(#SVGID_00000150084024607766785020000012807680249104765612_);}
	
		.st46{clip-path:url(#SVGID_00000011723208320438794200000015654786234992858558_);fill:url(#SVGID_00000120516634235193125330000001156640569213246903_);}
	
		.st47{clip-path:url(#SVGID_00000011723208320438794200000015654786234992858558_);fill:url(#SVGID_00000178900429155995792790000009176236101283373490_);}
	
		.st48{clip-path:url(#SVGID_00000011723208320438794200000015654786234992858558_);fill:url(#SVGID_00000002372148067185914110000002282900763052057529_);}
	
		.st49{clip-path:url(#SVGID_00000011723208320438794200000015654786234992858558_);fill:url(#SVGID_00000137824843080472383980000015886194095756236465_);}
	
		.st50{clip-path:url(#SVGID_00000011723208320438794200000015654786234992858558_);fill:url(#SVGID_00000175286835986990391270000004449642362357713078_);}
	
		.st51{clip-path:url(#SVGID_00000011723208320438794200000015654786234992858558_);fill:url(#SVGID_00000183207501269173277760000016373577547806291108_);}
	
		.st52{clip-path:url(#SVGID_00000011723208320438794200000015654786234992858558_);fill:url(#SVGID_00000109730607153041986570000005878226688066879897_);}
	
		.st53{clip-path:url(#SVGID_00000011723208320438794200000015654786234992858558_);fill:url(#SVGID_00000170271955537970409960000007894042527953935748_);}
	
		.st54{clip-path:url(#SVGID_00000011723208320438794200000015654786234992858558_);fill:url(#SVGID_00000023261104011735368980000016055012197018063289_);}
	
		.st55{clip-path:url(#SVGID_00000011723208320438794200000015654786234992858558_);fill:url(#SVGID_00000057847074342542018880000001276235215855354791_);}
	
		.st56{clip-path:url(#SVGID_00000011723208320438794200000015654786234992858558_);fill:url(#SVGID_00000069390889777970201210000007509305039936558002_);}
	
		.st57{clip-path:url(#SVGID_00000011723208320438794200000015654786234992858558_);fill:url(#SVGID_00000121988830510844158660000005123843278984385204_);}
	
		.st58{clip-path:url(#SVGID_00000011723208320438794200000015654786234992858558_);fill:url(#SVGID_00000097487819734364455290000000432492857026919306_);}
	
		.st59{clip-path:url(#SVGID_00000011723208320438794200000015654786234992858558_);fill:url(#SVGID_00000106144026203221196190000003707120231534987413_);}
	.st60{fill:url(#SVGID_00000157281114961187346460000016674128182778663329_);}
	.st61{fill:url(#SVGID_00000137130076842379333430000006542243118926132871_);}
	.st62{fill:url(#SVGID_00000063617101264250613140000007970439424990793885_);}
	.st63{fill:url(#SVGID_00000089561191961600953150000004175477969052469415_);}
	
		.st64{clip-path:url(#SVGID_00000011723208320438794200000015654786234992858558_);fill:url(#SVGID_00000178892183074004292660000007326277793157369519_);}
	
		.st65{clip-path:url(#SVGID_00000011723208320438794200000015654786234992858558_);fill:url(#SVGID_00000010268955402596355710000005672392117128906132_);}
	
		.st66{clip-path:url(#SVGID_00000011723208320438794200000015654786234992858558_);fill:url(#SVGID_00000053504700449317388700000009377434157663889810_);}
	
		.st67{clip-path:url(#SVGID_00000011723208320438794200000015654786234992858558_);fill:url(#SVGID_00000101826347742624589860000010653987009356155295_);}
	
		.st68{clip-path:url(#SVGID_00000011723208320438794200000015654786234992858558_);fill:url(#SVGID_00000142897343545291729260000001626853478414612874_);}
	
		.st69{clip-path:url(#SVGID_00000011723208320438794200000015654786234992858558_);fill:url(#SVGID_00000176738614927341148380000014259537791555211666_);}
	
		.st70{clip-path:url(#SVGID_00000011723208320438794200000015654786234992858558_);fill:url(#SVGID_00000024715352109113259500000013870429662395537313_);}
	
		.st71{clip-path:url(#SVGID_00000011723208320438794200000015654786234992858558_);fill:url(#SVGID_00000138533350308442272880000003709958281001851546_);}
	
		.st72{clip-path:url(#SVGID_00000011723208320438794200000015654786234992858558_);fill:url(#SVGID_00000122695676836152097500000011730527587924623488_);}
	
		.st73{clip-path:url(#SVGID_00000011723208320438794200000015654786234992858558_);fill:url(#SVGID_00000137129121397544854060000008727214503323478150_);}
	
		.st74{clip-path:url(#SVGID_00000011723208320438794200000015654786234992858558_);fill:url(#SVGID_00000152256042259269520600000000998211258224921513_);}
	
		.st75{clip-path:url(#SVGID_00000011723208320438794200000015654786234992858558_);fill:url(#SVGID_00000127031225593992512390000016692743978220222126_);}
	
		.st76{clip-path:url(#SVGID_00000011723208320438794200000015654786234992858558_);fill:url(#SVGID_00000133520028128699202360000008756472806382123455_);}
	
		.st77{clip-path:url(#SVGID_00000011723208320438794200000015654786234992858558_);fill:url(#SVGID_00000039815880164378611090000006145465039718086588_);}
	
		.st78{clip-path:url(#SVGID_00000011723208320438794200000015654786234992858558_);fill:url(#SVGID_00000088100444428144523100000007166828509401235111_);}
	
		.st79{clip-path:url(#SVGID_00000011723208320438794200000015654786234992858558_);fill:url(#SVGID_00000098938473827223423870000007859133235060963718_);}
	.st80{fill:url(#SVGID_00000039109597603821251630000001835736831564938409_);}
	.st81{fill:url(#SVGID_00000119831401310390414420000012731807985018384286_);}
	.st82{fill:url(#SVGID_00000013173830334091068460000015686167031995541129_);}
	.st83{fill:url(#SVGID_00000008868595670864027440000000551306855683716021_);}
	.st84{fill:url(#SVGID_00000157282136273369704010000002883409475884713113_);}
	.st85{fill:url(#SVGID_00000042012625129082992270000013118727421451233468_);}
	.st86{fill:url(#SVGID_00000082346868757188977760000017141538374854900097_);}
	.st87{fill:url(#SVGID_00000041286459395476017580000009392207457178041534_);}
	.st88{fill:url(#SVGID_00000139285667977303062060000016951361453862221993_);}
	.st89{fill:url(#SVGID_00000117666043778875268400000013380891986381074816_);}
	.st90{clip-path:url(#SVGID_00000137854948638486945110000015177325608820947107_);}
	.st91{fill:url(#SVGID_00000068661222620675014680000000134443707570792335_);}
	.st92{fill:url(#SVGID_00000014605807087460270430000006819445192894589596_);}
	.st93{fill:url(#SVGID_00000011009012938753979280000016102261639210566077_);}
	.st94{fill:url(#SVGID_00000171719951225639440260000006477389905335116990_);}
	.st95{fill:url(#SVGID_00000076593286684899387720000010071934410743339428_);}
	.st96{fill:url(#SVGID_00000155148836460082865910000013734168431727685769_);}
	.st97{fill:url(#SVGID_00000114060696028885709540000008543491322408236209_);}
	.st98{fill:none;stroke:#666364;stroke-miterlimit:10;}
	.st99{fill:#666364;}
	.st100{fill:#FFFFFF;}
	.st101{fill:#C1C0C1;}
	.st102{fill:none;stroke:#4F4C4D;stroke-width:0.0179;stroke-miterlimit:10;}
	.st103{fill:#D5D4D5;}
	.st104{clip-path:url(#SVGID_00000089549118298167265660000012101733809716324270_);}
	.st105{fill:none;stroke:#4F4C4D;stroke-width:0.8884;stroke-linecap:round;stroke-linejoin:round;stroke-miterlimit:10;}
	.st106{fill:none;stroke:#4F4C4D;stroke-width:0.8448;stroke-linecap:round;stroke-linejoin:round;stroke-miterlimit:10;}
	.st107{fill:none;stroke:#4F4C4D;stroke-width:0.9746;stroke-linecap:round;stroke-linejoin:round;stroke-miterlimit:10;}
	.st108{fill:none;stroke:#4F4C4D;stroke-width:0.8608;stroke-linecap:round;stroke-linejoin:round;stroke-miterlimit:10;}
	
		.st109{fill:none;stroke:#4F4C4D;stroke-width:0.8608;stroke-linecap:round;stroke-linejoin:round;stroke-miterlimit:10;stroke-dasharray:1.0632;}
	.st110{fill:none;stroke:#4F4C4D;stroke-width:0.9757;stroke-linecap:round;stroke-linejoin:round;stroke-miterlimit:10;}
	.st111{fill:none;stroke:#4F4C4D;stroke-width:1.1046;stroke-linecap:round;stroke-linejoin:round;stroke-miterlimit:10;}
	.st112{fill:none;stroke:#4F4C4D;stroke-width:1.0333;stroke-linecap:round;stroke-linejoin:round;stroke-miterlimit:10;}
	
		.st113{fill:none;stroke:#4F4C4D;stroke-width:1.0333;stroke-linecap:round;stroke-linejoin:round;stroke-miterlimit:10;stroke-dasharray:1.2;}
	.st114{fill:none;stroke:#4F4C4D;stroke-linecap:round;stroke-linejoin:round;stroke-miterlimit:10;}
	.st115{fill:none;stroke:#4F4C4D;stroke-linecap:round;stroke-linejoin:round;stroke-miterlimit:10;stroke-dasharray:1.0878;}
</style>
<g>
	<g>
		<path class="st0" d="M27.36,60.49L2.69,46.25V17.76L27.36,3.52l24.67,14.24v28.48L27.36,60.49z M4.53,45.18l22.83,13.18
			l22.83-13.18V18.83L27.36,5.65L4.53,18.83V45.18z"/>
	</g>
</g>
<g>
	<g>
		<defs>
			<polygon id="SVGID_00000055667463052760962990000008334253486526607498_" points="-62.61,18.3 -38.98,4.65 -15.34,18.3 
				-15.34,45.59 -38.98,59.24 -62.61,45.59 			"/>
		</defs>
		<clipPath id="SVGID_00000079443895400994627820000005792564517383873980_">
			<use xlink:href="#SVGID_00000055667463052760962990000008334253486526607498_"  style="overflow:visible;"/>
		</clipPath>
		<g style="clip-path:url(#SVGID_00000079443895400994627820000005792564517383873980_);">
			
				<linearGradient id="SVGID_1_" gradientUnits="userSpaceOnUse" x1="725.7314" y1="48.3646" x2="216.635" y2="18.4174" gradientTransform="matrix(1 0 0 1 -357.8621 0)">
				<stop  offset="0" style="stop-color:#4F4C4D"/>
				<stop  offset="0.2271" style="stop-color:#4F4C4D"/>
				<stop  offset="0.4719" style="stop-color:#4F4C4D"/>
				<stop  offset="0.7526" style="stop-color:#4F4C4D"/>
				<stop  offset="1" style="stop-color:#4F4C4D"/>
			</linearGradient>
			<path class="st1" d="M-2.77,30.68c1.79-0.78,2.67-1.15,4.42-1.8c-0.13-1.54-0.23-2.31-0.48-3.84C1.14,25.02,1.13,25.02,1.1,25
				c-1.89-1-2.83-1.53-4.72-2.61c-1.64,0.56-2.47,0.87-4.16,1.57c0.19,1.76,0.27,2.65,0.37,4.41c0.03,0.01,0.04,0.02,0.07,0.04
				C-5.51,29.36-4.59,29.82-2.77,30.68z M1.34,28.74c-1.63,0.61-2.46,0.95-4.12,1.67c-1.73-0.83-2.6-1.26-4.34-2.17
				c-0.1-1.64-0.17-2.47-0.35-4.11c1.58-0.65,2.37-0.94,3.9-1.47c1.79,1.02,2.68,1.52,4.47,2.46C1.13,26.57,1.22,27.29,1.34,28.74z"
				/>
		</g>
	</g>
</g>
<g>
	<g id="TjOe1Y_00000052073063803603542970000006955818548718516407_">
		<g>
			<path class="st0" d="M10.23,45.93c0.08-0.17,0.14-0.35,0.24-0.5c0.33-0.53,0.8-0.83,1.43-0.84c0.64-0.01,1.27,0,1.91,0
				c0.11,0,0.21,0,0.37,0c-2.21-2.02-2.91-4.39-1.63-7.08c1.1-2.32,3.12-3.29,5.68-3.2c0.15-0.78,0.59-1.33,1.41-1.49
				c0.82-0.16,1.41,0.28,1.92,0.89c0.97-0.97,1.91-1.92,2.86-2.87c5.44-5.44,10.88-10.88,16.32-16.33c0.34-0.34,0.69-0.63,1.15-0.77
				c0.25,0,0.49,0,0.74,0c0.12,0.06,0.24,0.11,0.35,0.17c1.05,0.52,1.3,1.93,0.33,2.89c-6.36,6.32-12.69,12.67-19.03,19.01
				c-0.09,0.09-0.23,0.15-0.37,0.23c0.65,0.59,1.11,1.15,0.95,1.96c-0.16,0.82-0.69,1.26-1.48,1.42c-0.03,0.58-0.05,1.14-0.08,1.74
				c1.04-0.08,2,0.09,2.81,0.77c0.82,0.68,1.21,1.57,1.27,2.63c1.3,0,2.57,0,3.84,0c0-0.04,0.01-0.07,0.01-0.09
				c-0.47-2.53-0.95-5.06-1.42-7.59c-0.05-0.25-0.13-0.4-0.38-0.52c-0.64-0.31-1.01-1.03-0.91-1.71c0.1-0.73,0.62-1.29,1.34-1.45
				c0.12-0.03,0.23-0.05,0.35-0.07c0.2-1.23,0.48-1.59,1.67-2.17c0.08-0.04,0.14-0.15,0.18-0.25c0.39-1.04,1.33-1.64,2.44-1.52
				c0.19,0.02,0.3-0.03,0.42-0.17c0.63-0.72,1.43-1.07,2.38-0.98c1.43,0.13,2.44,1.12,2.61,2.55c0.03,0.25,0.13,0.36,0.34,0.48
				c0.36,0.21,0.73,0.46,0.96,0.79c0.25,0.36,0.36,0.82,0.55,1.29c-0.04-0.01,0,0,0.04,0.01c0.87,0.16,1.42,0.68,1.54,1.49
				c0.11,0.73-0.28,1.39-1.05,1.8c-0.1,0.05-0.18,0.19-0.2,0.3c-0.36,1.86-0.71,3.72-1.06,5.58c-0.14,0.74-0.27,1.48-0.41,2.25
				c0.76,0,1.48-0.01,2.21,0c0.69,0.01,1.18,0.35,1.49,0.96c0.06,0.13,0.12,0.26,0.18,0.39c0,0.22,0,0.45,0,0.67
				c-0.21,0.73-0.68,1.2-1.41,1.41c-10.48,0-20.97,0-31.45,0c-0.73-0.21-1.2-0.67-1.41-1.41C10.23,46.38,10.23,46.15,10.23,45.93z
				 M26.2,44.58c0.02-1.17-0.91-2.2-2.03-2.27c-0.47-0.03-0.94-0.01-1.4-0.02c-0.56,0-1.11,0.01-1.67-0.01
				c-0.36-0.01-0.57-0.25-0.57-0.57c0-0.33,0.22-0.54,0.58-0.56c0.24-0.01,0.49-0.02,0.74,0c0.2,0.01,0.3-0.08,0.3-0.26
				c0.01-0.54,0.02-1.09,0.01-1.63c0-0.1-0.08-0.23-0.16-0.31c-1.08-1.09-2.17-2.18-3.26-3.26c-0.09-0.09-0.21-0.17-0.33-0.19
				c-2.97-0.59-5.78,2.21-5.25,5.2c0.41,2.32,2.26,3.87,4.62,3.87c2.7,0,5.39,0,8.09,0C25.96,44.58,26.07,44.58,26.2,44.58z
				 M39.45,44.57c0.5-2.67,1-5.32,1.5-7.97c-3.37,0-6.69,0-10.04,0c0.5,2.67,1,5.32,1.5,7.97C34.76,44.57,37.09,44.57,39.45,44.57z
				 M27.36,45.72c-5.02,0-10.04,0-15.05,0c-0.11,0-0.22,0-0.33,0c-0.35,0.01-0.59,0.24-0.6,0.55c-0.01,0.32,0.24,0.57,0.6,0.59
				c0.08,0,0.16,0,0.23,0c10.1,0,20.21,0,30.31,0c0.56,0,0.84-0.2,0.83-0.59c-0.01-0.37-0.28-0.55-0.83-0.55
				C37.46,45.72,32.41,45.72,27.36,45.72z M23.23,35.31c0.06-0.09,0.13-0.2,0.21-0.28c6.33-6.33,12.66-12.66,18.99-18.99
				c0.06-0.06,0.11-0.11,0.17-0.17c0.24-0.27,0.24-0.61,0.01-0.84c-0.23-0.22-0.54-0.21-0.81,0.03c-0.06,0.05-0.11,0.11-0.17,0.16
				c-6.33,6.33-12.66,12.66-18.99,18.99c-0.09,0.09-0.17,0.17-0.26,0.27C22.66,34.76,22.92,35.01,23.23,35.31z M31.38,33.14
				c3.05,0,6.06,0,9.08,0c0-0.65-0.45-1.08-1.13-1.12c-0.45-0.03-0.64-0.25-0.6-0.69c0.02-0.2,0.06-0.4,0.04-0.6
				c-0.07-0.76-0.6-1.36-1.31-1.51c-0.77-0.17-1.49,0.16-1.9,0.86c-0.24,0.41-0.45,0.49-0.88,0.33c-0.8-0.29-1.49,0.13-1.61,0.98
				c-0.07,0.47-0.18,0.58-0.65,0.64C31.8,32.09,31.39,32.53,31.38,33.14z M35.93,35.44c1.87,0,3.74,0,5.62,0
				c0.4,0,0.65-0.22,0.66-0.55c0.01-0.34-0.26-0.58-0.67-0.59c-0.06,0-0.11,0-0.17,0c-3.63,0-7.26,0-10.9,0
				c-0.13,0-0.3-0.03-0.39,0.04c-0.16,0.11-0.36,0.26-0.4,0.43c-0.04,0.15,0.06,0.4,0.18,0.52c0.11,0.11,0.34,0.15,0.52,0.15
				C32.23,35.44,34.08,35.44,35.93,35.44z M19.9,33.86c-0.17,0.15-0.37,0.26-0.47,0.43c-0.13,0.23-0.04,0.47,0.15,0.67
				c1.04,1.04,2.08,2.08,3.12,3.12c0.29,0.29,0.61,0.3,0.86,0.05c0.25-0.25,0.24-0.57-0.05-0.86c-1.04-1.05-2.08-2.09-3.12-3.12
				C20.28,34.04,20.12,33.98,19.9,33.86z"/>
			<path class="st0" d="M25.82,13.74c0.3,0.17,0.39,0.44,0.41,0.78c0.08,1.33,0.43,2.57,1.33,3.6c0.74,0.84,1.7,1.24,2.8,1.32
				c0.17,0.01,0.34,0,0.5,0.03c0.31,0.05,0.51,0.3,0.5,0.58c-0.01,0.29-0.22,0.5-0.53,0.54c-0.42,0.05-0.85,0.06-1.26,0.16
				c-1.5,0.36-2.44,1.35-2.92,2.76c-0.23,0.68-0.31,1.41-0.42,2.12c-0.06,0.42-0.24,0.68-0.58,0.69c-0.34,0.01-0.55-0.25-0.58-0.68
				c-0.07-1.01-0.28-1.98-0.77-2.88c-0.72-1.3-1.82-2.01-3.3-2.13c-0.18-0.01-0.36-0.02-0.53-0.04c-0.32-0.04-0.52-0.24-0.54-0.53
				c-0.01-0.31,0.19-0.55,0.52-0.59c0.26-0.03,0.54-0.02,0.8-0.06c1.76-0.25,2.87-1.3,3.42-2.94c0.21-0.65,0.3-1.34,0.39-2.02
				c0.04-0.32,0.14-0.55,0.43-0.69C25.6,13.74,25.71,13.74,25.82,13.74z M25.64,22.88c0.52-1.27,1.35-2.19,2.53-2.86
				c-1.19-0.66-2-1.59-2.53-2.86c-0.52,1.27-1.34,2.2-2.53,2.86C24.3,20.69,25.12,21.62,25.64,22.88z"/>
			<path class="st0" d="M10.23,26.66c0.19-0.26,0.45-0.34,0.77-0.36c1.32-0.1,2.15-0.88,2.5-2.3c0.08-0.33,0.11-0.68,0.15-1.02
				c0.04-0.4,0.24-0.65,0.57-0.66c0.34-0.01,0.52,0.23,0.59,0.63c0.1,0.57,0.18,1.15,0.38,1.68c0.4,1.06,1.21,1.62,2.35,1.68
				c0.04,0,0.09,0,0.13,0.01c0.34,0.03,0.54,0.25,0.55,0.56c0,0.31-0.2,0.53-0.54,0.58c-0.3,0.04-0.6,0.04-0.89,0.13
				c-1.14,0.35-1.61,1.26-1.87,2.32c-0.07,0.29-0.1,0.59-0.13,0.89c-0.04,0.42-0.24,0.65-0.57,0.65c-0.34,0-0.56-0.25-0.58-0.68
				c-0.03-0.65-0.17-1.28-0.47-1.86c-0.46-0.91-1.2-1.41-2.23-1.44c-0.32-0.01-0.55-0.14-0.71-0.4
				C10.23,26.93,10.23,26.79,10.23,26.66z M14.23,25.48c-0.4,0.46-0.83,0.95-1.22,1.39c0.41,0.48,0.83,0.97,1.21,1.41
				c0.39-0.45,0.82-0.94,1.22-1.4C15.05,26.43,14.62,25.94,14.23,25.48z"/>
			<path class="st0" d="M18.25,15.36c-0.04,0.17-0.03,0.27-0.08,0.32c-0.38,0.39-0.74,0.79-1.16,1.14
				c-0.21,0.18-0.48,0.07-0.65-0.14c-0.19-0.22-0.2-0.49-0.01-0.7c0.3-0.34,0.62-0.68,0.97-0.96c0.13-0.1,0.41-0.12,0.58-0.05
				C18.06,15.03,18.16,15.25,18.25,15.36z"/>
			<path class="st0" d="M17.67,19.51c-0.19-0.11-0.34-0.16-0.45-0.26c-0.28-0.26-0.54-0.53-0.8-0.8c-0.25-0.26-0.25-0.61-0.02-0.83
				c0.23-0.22,0.55-0.22,0.81,0.02c0.29,0.27,0.57,0.56,0.85,0.85c0.18,0.19,0.23,0.43,0.08,0.64
				C18.03,19.28,17.83,19.38,17.67,19.51z"/>
			<path class="st0" d="M15.15,17.43c0.13,0.11,0.35,0.21,0.41,0.37c0.06,0.16,0.04,0.44-0.06,0.58c-0.27,0.35-0.6,0.65-0.93,0.95
				c-0.21,0.19-0.53,0.16-0.73-0.02c-0.21-0.19-0.27-0.51-0.08-0.72c0.31-0.36,0.66-0.69,1.01-1.01
				C14.84,17.5,14.97,17.49,15.15,17.43z"/>
			<path class="st0" d="M15.69,16.37c-0.11,0.13-0.2,0.36-0.36,0.42c-0.16,0.07-0.45,0.05-0.58-0.05c-0.35-0.27-0.66-0.6-0.95-0.93
				c-0.19-0.22-0.18-0.48,0.01-0.7c0.19-0.22,0.46-0.32,0.68-0.13c0.39,0.32,0.73,0.71,1.09,1.08
				C15.63,16.1,15.63,16.21,15.69,16.37z"/>
			<path class="st0" d="M37.65,24.59c0-0.95,0.75-1.7,1.69-1.7c0.95,0,1.73,0.77,1.73,1.71c0,0.93-0.77,1.7-1.7,1.71
				C38.42,26.32,37.64,25.54,37.65,24.59z M38.79,24.6c0,0.32,0.27,0.57,0.58,0.56c0.29-0.01,0.55-0.27,0.56-0.56
				c0.01-0.31-0.25-0.57-0.57-0.57C39.03,24.03,38.79,24.27,38.79,24.6z"/>
			<path class="st0" d="M42.2,26.31c0.96,0,1.72,0.76,1.71,1.72c-0.01,0.94-0.77,1.7-1.7,1.7c-0.94,0-1.73-0.79-1.72-1.73
				C40.5,27.07,41.26,26.32,42.2,26.31z M42.77,28.01c-0.01-0.32-0.26-0.56-0.58-0.55c-0.3,0.01-0.55,0.26-0.55,0.56
				c0,0.31,0.27,0.58,0.57,0.58C42.52,28.59,42.77,28.33,42.77,28.01z"/>
			<path class="st0" d="M37.36,38.86c-0.28,0-0.56,0.01-0.84,0c-0.36-0.02-0.59-0.23-0.6-0.55c-0.01-0.32,0.23-0.58,0.6-0.58
				c0.56-0.01,1.11-0.02,1.67,0c0.35,0.01,0.58,0.26,0.58,0.57c0,0.31-0.23,0.55-0.58,0.56C37.92,38.87,37.64,38.86,37.36,38.86
				C37.36,38.86,37.36,38.86,37.36,38.86z"/>
			<path class="st0" d="M33.62,38.85c-0.21,0-0.42,0.02-0.63,0c-0.29-0.04-0.45-0.22-0.47-0.52c-0.02-0.29,0.15-0.55,0.44-0.57
				c0.45-0.03,0.91-0.03,1.36,0c0.29,0.02,0.47,0.29,0.47,0.56c-0.01,0.28-0.21,0.51-0.5,0.54C34.06,38.87,33.84,38.85,33.62,38.85
				C33.62,38.85,33.62,38.85,33.62,38.85z"/>
		</g>
	</g>
</g>
</svg>
