<?xml version="1.0" encoding="utf-8"?>
<!-- Generator: Adobe Illustrator 27.2.0, SVG Export Plug-In . SVG Version: 6.00 Build 0)  -->
<svg version="1.1" id="Layer_1" xmlns="http://www.w3.org/2000/svg" xmlns:xlink="http://www.w3.org/1999/xlink" x="0px" y="0px"
	 viewBox="0 0 54.72 63.62" style="enable-background:new 0 0 54.72 63.62;" xml:space="preserve">
<style type="text/css">
	.st0{fill:#4F4C4D;}
	.st1{fill:url(#SVGID_1_);}
	.st2{fill:url(#SVGID_00000093897771883471130860000007056500687778414239_);}
	
		.st3{clip-path:url(#SVGID_00000024699771083194122700000002923498187161757070_);fill:url(#SVGID_00000130638274820747526770000006240886401434479530_);}
	
		.st4{clip-path:url(#SVGID_00000024699771083194122700000002923498187161757070_);fill:url(#SVGID_00000002352090307811787090000009396557897736485507_);}
	
		.st5{clip-path:url(#SVGID_00000024699771083194122700000002923498187161757070_);fill:url(#SVGID_00000134948636663426251300000013981300055704696198_);}
	
		.st6{clip-path:url(#SVGID_00000024699771083194122700000002923498187161757070_);fill:url(#SVGID_00000141449441342511068060000005877314890237545372_);}
	
		.st7{clip-path:url(#SVGID_00000024699771083194122700000002923498187161757070_);fill:url(#SVGID_00000168088924152593349010000005082429644374948798_);}
	
		.st8{clip-path:url(#SVGID_00000024699771083194122700000002923498187161757070_);fill:url(#SVGID_00000029030511166171053910000004012651796485475505_);}
	
		.st9{clip-path:url(#SVGID_00000024699771083194122700000002923498187161757070_);fill:url(#SVGID_00000008861196760031381440000005836139172178477742_);}
	
		.st10{clip-path:url(#SVGID_00000024699771083194122700000002923498187161757070_);fill:url(#SVGID_00000117657931301075062640000015108738619367375784_);}
	
		.st11{clip-path:url(#SVGID_00000024699771083194122700000002923498187161757070_);fill:url(#SVGID_00000078731542462020281530000006019158324351279039_);}
	
		.st12{clip-path:url(#SVGID_00000024699771083194122700000002923498187161757070_);fill:url(#SVGID_00000037676821202831543840000003093108795747178686_);}
	
		.st13{clip-path:url(#SVGID_00000024699771083194122700000002923498187161757070_);fill:url(#SVGID_00000013184078134772308120000008012105158001939113_);}
	
		.st14{clip-path:url(#SVGID_00000024699771083194122700000002923498187161757070_);fill:url(#SVGID_00000003822955553630221770000015748730975050635695_);}
	
		.st15{clip-path:url(#SVGID_00000024699771083194122700000002923498187161757070_);fill:url(#SVGID_00000079469809313746013390000000012659422979024816_);}
	
		.st16{clip-path:url(#SVGID_00000024699771083194122700000002923498187161757070_);fill:url(#SVGID_00000005955485987954216470000003787871029333113254_);}
	
		.st17{clip-path:url(#SVGID_00000024699771083194122700000002923498187161757070_);fill:url(#SVGID_00000029763548326860608440000001508532620176711611_);}
	
		.st18{clip-path:url(#SVGID_00000024699771083194122700000002923498187161757070_);fill:url(#SVGID_00000048472714018259962150000010454075207403263136_);}
	.st19{clip-path:url(#SVGID_00000024699771083194122700000002923498187161757070_);}
	.st20{fill:url(#SVGID_00000036220452057680376960000012379191028241085107_);}
	.st21{fill:url(#SVGID_00000123406642661482077180000016197520693250674843_);}
	.st22{fill:url(#SVGID_00000128445782622185319010000014076396309740422326_);}
	.st23{fill:url(#SVGID_00000065784192948875305810000008951907920803207824_);}
	
		.st24{clip-path:url(#SVGID_00000024699771083194122700000002923498187161757070_);fill:url(#SVGID_00000027592220975724704150000004999967677027031954_);}
	
		.st25{clip-path:url(#SVGID_00000024699771083194122700000002923498187161757070_);fill:url(#SVGID_00000178190525145724981010000001801973797097387933_);}
	
		.st26{clip-path:url(#SVGID_00000024699771083194122700000002923498187161757070_);fill:url(#SVGID_00000169516477535967942090000006815671329437537434_);}
	
		.st27{clip-path:url(#SVGID_00000024699771083194122700000002923498187161757070_);fill:url(#SVGID_00000035508553306383028370000010352141189776343715_);}
	
		.st28{clip-path:url(#SVGID_00000024699771083194122700000002923498187161757070_);fill:url(#SVGID_00000159430887357107117520000015072354982324446394_);}
	
		.st29{clip-path:url(#SVGID_00000024699771083194122700000002923498187161757070_);fill:url(#SVGID_00000042002904108235853730000002967115670981016448_);}
	
		.st30{clip-path:url(#SVGID_00000024699771083194122700000002923498187161757070_);fill:url(#SVGID_00000063615586743569203150000016457023728128680855_);}
	
		.st31{clip-path:url(#SVGID_00000024699771083194122700000002923498187161757070_);fill:url(#SVGID_00000159458359094106234130000010126422153010069930_);}
	
		.st32{clip-path:url(#SVGID_00000024699771083194122700000002923498187161757070_);fill:url(#SVGID_00000064326890357713452380000004784540193104924077_);}
	
		.st33{clip-path:url(#SVGID_00000024699771083194122700000002923498187161757070_);fill:url(#SVGID_00000158739433366521156140000003409482575125623982_);}
	
		.st34{clip-path:url(#SVGID_00000024699771083194122700000002923498187161757070_);fill:url(#SVGID_00000019680507338538002270000004670118949479909303_);}
	
		.st35{clip-path:url(#SVGID_00000024699771083194122700000002923498187161757070_);fill:url(#SVGID_00000125597492284254180860000006188944252195177136_);}
	
		.st36{clip-path:url(#SVGID_00000024699771083194122700000002923498187161757070_);fill:url(#SVGID_00000105428777926339376010000003062053367848205243_);}
	
		.st37{clip-path:url(#SVGID_00000024699771083194122700000002923498187161757070_);fill:url(#SVGID_00000158729418086543125220000017239063370993213610_);}
	
		.st38{clip-path:url(#SVGID_00000024699771083194122700000002923498187161757070_);fill:url(#SVGID_00000019640521917119901530000004441870009162781315_);}
	
		.st39{clip-path:url(#SVGID_00000024699771083194122700000002923498187161757070_);fill:url(#SVGID_00000089542880006316643840000007124223428507141558_);}
	.st40{fill:url(#SVGID_00000170986474630650017190000007955864836386205061_);}
	.st41{fill:url(#SVGID_00000080201795999962344630000006690193240461425805_);}
	.st42{fill:url(#SVGID_00000056429240463557932590000008647290277415493045_);}
	.st43{fill:url(#SVGID_00000173879069708897455630000012466994215039819196_);}
	
		.st44{clip-path:url(#SVGID_00000024699771083194122700000002923498187161757070_);fill:url(#SVGID_00000107555375324028966270000012784916208368176571_);}
	
		.st45{clip-path:url(#SVGID_00000024699771083194122700000002923498187161757070_);fill:url(#SVGID_00000141431351420357771120000006183626154728302743_);}
	
		.st46{clip-path:url(#SVGID_00000024699771083194122700000002923498187161757070_);fill:url(#SVGID_00000127724102759388300640000013015450228616984972_);}
	
		.st47{clip-path:url(#SVGID_00000024699771083194122700000002923498187161757070_);fill:url(#SVGID_00000150782288274463685160000016699001318902848652_);}
	
		.st48{clip-path:url(#SVGID_00000024699771083194122700000002923498187161757070_);fill:url(#SVGID_00000006667286010871935180000001890010949486472093_);}
	
		.st49{clip-path:url(#SVGID_00000024699771083194122700000002923498187161757070_);fill:url(#SVGID_00000085933881819647056200000012938045908808756123_);}
	
		.st50{clip-path:url(#SVGID_00000024699771083194122700000002923498187161757070_);fill:url(#SVGID_00000063613266514425736820000002435020239706200741_);}
	
		.st51{clip-path:url(#SVGID_00000024699771083194122700000002923498187161757070_);fill:url(#SVGID_00000070090577164072650530000003124805252094023082_);}
	
		.st52{clip-path:url(#SVGID_00000024699771083194122700000002923498187161757070_);fill:url(#SVGID_00000165946804215818483440000018049155895138579081_);}
	
		.st53{clip-path:url(#SVGID_00000024699771083194122700000002923498187161757070_);fill:url(#SVGID_00000133524261230258145520000005819931149891794606_);}
	
		.st54{clip-path:url(#SVGID_00000024699771083194122700000002923498187161757070_);fill:url(#SVGID_00000109008695295209737150000015396404860548730554_);}
	
		.st55{clip-path:url(#SVGID_00000024699771083194122700000002923498187161757070_);fill:url(#SVGID_00000111170203989748114160000016331761055249750171_);}
	
		.st56{clip-path:url(#SVGID_00000024699771083194122700000002923498187161757070_);fill:url(#SVGID_00000183953075253620201090000015712206912076316332_);}
	
		.st57{clip-path:url(#SVGID_00000024699771083194122700000002923498187161757070_);fill:url(#SVGID_00000118391164325257356530000007467156051815109783_);}
	
		.st58{clip-path:url(#SVGID_00000024699771083194122700000002923498187161757070_);fill:url(#SVGID_00000147912093418061655090000009534072509117400976_);}
	
		.st59{clip-path:url(#SVGID_00000024699771083194122700000002923498187161757070_);fill:url(#SVGID_00000151531504209175047770000001995153250226312118_);}
	.st60{fill:url(#SVGID_00000142888751066534858750000015276737415071464592_);}
	.st61{fill:url(#SVGID_00000178179592927953456930000000943599360391943823_);}
	.st62{fill:url(#SVGID_00000067917350904624512790000008159457406136642723_);}
	.st63{fill:url(#SVGID_00000118397366720980527370000016140821606123810187_);}
	
		.st64{clip-path:url(#SVGID_00000024699771083194122700000002923498187161757070_);fill:url(#SVGID_00000141427908022855758300000004160330906229020295_);}
	
		.st65{clip-path:url(#SVGID_00000024699771083194122700000002923498187161757070_);fill:url(#SVGID_00000023992897641272389310000018333337895169669555_);}
	
		.st66{clip-path:url(#SVGID_00000024699771083194122700000002923498187161757070_);fill:url(#SVGID_00000109008802163454844330000017832085619515821457_);}
	
		.st67{clip-path:url(#SVGID_00000024699771083194122700000002923498187161757070_);fill:url(#SVGID_00000119812660958489498230000005617813565923964575_);}
	
		.st68{clip-path:url(#SVGID_00000024699771083194122700000002923498187161757070_);fill:url(#SVGID_00000129182668818766318380000002254099368676281530_);}
	
		.st69{clip-path:url(#SVGID_00000024699771083194122700000002923498187161757070_);fill:url(#SVGID_00000048481556661183860880000002217024646905575340_);}
	
		.st70{clip-path:url(#SVGID_00000024699771083194122700000002923498187161757070_);fill:url(#SVGID_00000127012675331342279780000014736697195409709467_);}
	
		.st71{clip-path:url(#SVGID_00000024699771083194122700000002923498187161757070_);fill:url(#SVGID_00000170251205190302868680000018159051806079776917_);}
	
		.st72{clip-path:url(#SVGID_00000024699771083194122700000002923498187161757070_);fill:url(#SVGID_00000081620339237530385940000011405541771395870907_);}
	
		.st73{clip-path:url(#SVGID_00000024699771083194122700000002923498187161757070_);fill:url(#SVGID_00000088850284229715274810000014117171565177137836_);}
	
		.st74{clip-path:url(#SVGID_00000024699771083194122700000002923498187161757070_);fill:url(#SVGID_00000042016135282340494460000006737613109549964436_);}
	
		.st75{clip-path:url(#SVGID_00000024699771083194122700000002923498187161757070_);fill:url(#SVGID_00000001657054231970747110000000275600297689728682_);}
	
		.st76{clip-path:url(#SVGID_00000024699771083194122700000002923498187161757070_);fill:url(#SVGID_00000142171743194811331520000013624926553326135964_);}
	
		.st77{clip-path:url(#SVGID_00000024699771083194122700000002923498187161757070_);fill:url(#SVGID_00000119801458685751401760000011243485529626888859_);}
	
		.st78{clip-path:url(#SVGID_00000024699771083194122700000002923498187161757070_);fill:url(#SVGID_00000182517462790695508960000007310940901786619042_);}
	
		.st79{clip-path:url(#SVGID_00000024699771083194122700000002923498187161757070_);fill:url(#SVGID_00000049206583006842112420000004686258361357991322_);}
	.st80{fill:url(#SVGID_00000170268914701474228540000009553979755574387869_);}
	.st81{fill:url(#SVGID_00000146485831465271444590000006896168867111155604_);}
	.st82{fill:url(#SVGID_00000088824871624050945880000001451290058442664596_);}
	.st83{fill:url(#SVGID_00000038405014227729970540000015224135945234452112_);}
	.st84{fill:url(#SVGID_00000049928236856825566970000008047632020944988805_);}
	.st85{fill:url(#SVGID_00000145034384265237161880000006566575995376462977_);}
	.st86{fill:url(#SVGID_00000030485248942854409900000010000013016739293081_);}
	.st87{fill:url(#SVGID_00000103944489396881653880000014324622585489938825_);}
	.st88{fill:url(#SVGID_00000092421060290756188050000011001236962212094639_);}
	.st89{fill:url(#SVGID_00000039847537974089724230000003513468886561411481_);}
	.st90{clip-path:url(#SVGID_00000017508768866234777180000012600484061270429090_);}
	.st91{fill:url(#SVGID_00000066497906401721896670000003280767572250202787_);}
	.st92{fill:url(#SVGID_00000086658048542861405090000005590169358937507254_);}
	.st93{fill:url(#SVGID_00000147905226281874461690000016130939372365176224_);}
	.st94{fill:url(#SVGID_00000092443504938350536500000006592369691557061552_);}
	.st95{fill:url(#SVGID_00000132791354170277427490000016515982767305095574_);}
	.st96{fill:url(#SVGID_00000170238381997405662030000007965507579721260978_);}
	.st97{fill:url(#SVGID_00000143591901624760277330000008443189497610720433_);}
	.st98{fill:none;stroke:#666364;stroke-miterlimit:10;}
	.st99{fill:#666364;}
	.st100{fill:#FFFFFF;}
	.st101{fill:#C1C0C1;}
	.st102{fill:none;stroke:#4F4C4D;stroke-width:0.0179;stroke-miterlimit:10;}
	.st103{fill:#D5D4D5;}
	.st104{clip-path:url(#SVGID_00000156560138456494049040000018016036726870683559_);}
	.st105{fill:none;stroke:#4F4C4D;stroke-width:0.8884;stroke-linecap:round;stroke-linejoin:round;stroke-miterlimit:10;}
	.st106{fill:none;stroke:#4F4C4D;stroke-width:0.8448;stroke-linecap:round;stroke-linejoin:round;stroke-miterlimit:10;}
	.st107{fill:none;stroke:#4F4C4D;stroke-width:0.9746;stroke-linecap:round;stroke-linejoin:round;stroke-miterlimit:10;}
	.st108{fill:none;stroke:#4F4C4D;stroke-width:0.8608;stroke-linecap:round;stroke-linejoin:round;stroke-miterlimit:10;}
	
		.st109{fill:none;stroke:#4F4C4D;stroke-width:0.8608;stroke-linecap:round;stroke-linejoin:round;stroke-miterlimit:10;stroke-dasharray:1.0632;}
	.st110{fill:none;stroke:#4F4C4D;stroke-width:0.9757;stroke-linecap:round;stroke-linejoin:round;stroke-miterlimit:10;}
	.st111{fill:none;stroke:#4F4C4D;stroke-width:1.1046;stroke-linecap:round;stroke-linejoin:round;stroke-miterlimit:10;}
	.st112{fill:none;stroke:#4F4C4D;stroke-width:1.0333;stroke-linecap:round;stroke-linejoin:round;stroke-miterlimit:10;}
	
		.st113{fill:none;stroke:#4F4C4D;stroke-width:1.0333;stroke-linecap:round;stroke-linejoin:round;stroke-miterlimit:10;stroke-dasharray:1.2;}
	.st114{fill:none;stroke:#4F4C4D;stroke-linecap:round;stroke-linejoin:round;stroke-miterlimit:10;}
	.st115{fill:none;stroke:#4F4C4D;stroke-linecap:round;stroke-linejoin:round;stroke-miterlimit:10;stroke-dasharray:1.0878;}
</style>
<g>
	<g>
		<path class="st0" d="M27.36,60.49L2.69,46.25V17.76L27.36,3.52l24.67,14.24v28.48L27.36,60.49z M4.53,45.18l22.83,13.18
			l22.83-13.18V18.83L27.36,5.65L4.53,18.83V45.18z"/>
	</g>
</g>
<g>
	<g>
		<path class="st100" d="M27.47,26.81c0.01,0.05,0.3,2.02,0.3,2.02l2.14-2.02l-0.71-1.59L27.47,26.81z"/>
		<g>
			<g>
				<path class="st0" d="M27.55,52.91l-0.06-0.92c-0.06-0.87-0.24-1.72-0.54-2.54c-0.28-0.77-0.77-1.45-1.34-2.19l-1.77-2.33
					c-1.7-2.21-2.33-4.93-2.79-7.29c-0.05-0.28-0.18-0.74-0.27-1.01c-0.13-0.37-0.25-0.7-0.38-1.02c-0.28-0.71-0.6-1.44-0.98-2.25
					c-0.11-0.24-0.1-0.52,0.02-0.75c0.12-0.23,0.33-0.38,0.58-0.42c0.82-0.12,1.63,0.11,2.17,0.63c0.53,0.51,0.81,1.2,1.06,1.8
					c0.07,0.17,0.14,0.34,0.22,0.51l0.61,1.46c0.28,0.79,0.67,1.75,1.28,2.36c0.26,0.26,0.73,0.52,1.13,0.53
					c0.18-0.01,0.32-0.07,0.43-0.2c0.11-0.13,0.18-0.31,0.24-0.61c0.12-0.59,0.14-1.23,0.17-1.85c0.01-0.32,0.03-0.65,0.05-0.96
					c0.07-0.89,0.15-1.77,0.24-2.66l0.04-0.41c0.1-1.03,0.08-2.06-0.05-3.07l-0.03-0.21c-0.15-1.01-0.3-2.02-0.45-3.03
					c-0.13-0.83-0.26-1.69-0.31-2.56c-0.05-0.92,0.26-1.74,0.86-2.25c0.22-0.19,0.53-0.24,0.8-0.15c0.28,0.1,0.47,0.33,0.52,0.62
					c0.55,3.07,1.02,5.27,1.23,5.74c0.14,0.33,0.26,0.67,0.37,1.02c0.08,0.23,0.15,0.46,0.24,0.68c0.23,0.61,0.45,1.2,0.53,1.84
					c0.09,0.67,0.12,1.35,0.16,2.01c0.02,0.35,0.04,0.7,0.07,1.05l0.22,2.83l-0.88,0.06l-0.22-2.83c-0.03-0.36-0.05-0.71-0.07-1.07
					c-0.04-0.64-0.07-1.31-0.16-1.95c-0.07-0.54-0.26-1.06-0.48-1.64c-0.09-0.24-0.17-0.48-0.25-0.72
					c-0.11-0.32-0.21-0.64-0.34-0.94c-0.32-0.73-0.92-3.9-1.26-5.81c-0.33,0.33-0.49,0.85-0.46,1.44c0.05,0.82,0.17,1.66,0.3,2.47
					c0.15,1.02,0.3,2.03,0.45,3.04l0.03,0.22c0.14,1.08,0.16,2.17,0.06,3.27l-0.04,0.41c-0.08,0.88-0.16,1.77-0.24,2.65
					c-0.02,0.31-0.04,0.62-0.05,0.93c-0.03,0.65-0.06,1.33-0.19,1.98c-0.06,0.3-0.16,0.69-0.44,1.01c-0.27,0.32-0.64,0.49-1.07,0.51
					c-0.71,0.04-1.41-0.41-1.79-0.78c-0.73-0.73-1.17-1.81-1.48-2.66l-0.6-1.42c-0.07-0.16-0.15-0.34-0.22-0.53
					c-0.23-0.55-0.46-1.12-0.86-1.5c-0.32-0.31-0.81-0.46-1.33-0.41c0.37,0.8,0.69,1.52,0.97,2.23c0.13,0.33,0.25,0.66,0.37,1
					c0.13,0.36,0.26,0.86,0.33,1.19c0.44,2.27,1.04,4.86,2.63,6.92l1.77,2.33c0.61,0.8,1.14,1.53,1.46,2.42
					c0.33,0.9,0.53,1.83,0.59,2.78l0.06,0.92L27.55,52.91z"/>
			</g>
			<g>
				<path class="st0" d="M27.27,26.97c-0.19-0.25-0.38-0.49-0.57-0.74c-0.32-0.41-0.65-0.83-0.95-1.25c-0.5-0.7-0.58-1.49-0.25-2.43
					c0.08-0.23,0.27-0.4,0.5-0.45c0.23-0.06,0.48,0.01,0.65,0.17l0.9,0.85l-0.61,0.64l-0.7-0.66c-0.14,0.54-0.07,0.97,0.22,1.37
					c0.3,0.42,0.61,0.82,0.93,1.22c0.2,0.25,0.39,0.5,0.58,0.75L27.27,26.97z"/>
			</g>
			<g>
				<path class="st0" d="M33.08,36.65c-0.05-0.13-0.14-0.4-0.3-1.27c-0.24-1.38-0.49-3.39-0.58-4.45c-0.04-0.47-0.21-0.91-0.49-1.29
					l-2.83-3.74l0.7-0.53l2.83,3.74c0.38,0.51,0.62,1.11,0.67,1.74c0.09,1.05,0.33,3.02,0.57,4.37c0.14,0.81,0.22,1.03,0.24,1.08
					L33.08,36.65z"/>
			</g>
			<g>
				<path class="st0" d="M34.61,35.69c-0.09-0.25-0.17-0.6-0.25-1.02c-0.1-0.53-0.19-1.07-0.26-1.6c-0.11-0.81-0.2-1.61-0.28-2.42
					c-0.04-0.46-0.11-0.92-0.17-1.37c-0.06-0.46-0.13-0.92-0.17-1.38c-0.18-1.78-0.25-3.66-0.22-5.58c0-0.2-0.02-0.35-0.04-0.45
					c-0.29,0.17-0.81,0.75-0.89,1.78l-0.06,0.7c-0.06,0.73-0.12,1.42-0.12,2.13l0,0.49c0,0.29,0.01,0.59,0,0.88
					c-0.01,0.41-0.01,0.79,0.11,1.12l-0.83,0.29c-0.17-0.48-0.16-0.98-0.16-1.43c0-0.29,0-0.57,0-0.86l0-0.5
					c0-0.75,0.06-1.49,0.12-2.21l0.06-0.69c0.12-1.53,1.03-2.4,1.57-2.59c0.25-0.09,0.5-0.06,0.69,0.09
					c0.36,0.26,0.43,0.83,0.42,1.26c-0.03,1.89,0.04,3.74,0.21,5.48c0.04,0.45,0.11,0.9,0.17,1.35c0.06,0.47,0.13,0.94,0.18,1.41
					c0.08,0.8,0.17,1.59,0.27,2.39c0.07,0.52,0.15,1.04,0.25,1.55c0.08,0.38,0.15,0.69,0.22,0.91L34.61,35.69z"/>
			</g>
			<g>
				<path class="st0" d="M34.92,52.93l-0.21-2.66c-0.03-0.32-0.06-0.66-0.1-1c-0.14-1.22-0.29-2.49,0.08-3.66
					c0.18-0.58,0.38-1.17,0.58-1.76c0.69-2.02,1.39-4.1,1.42-6.2c0-0.19-0.01-0.39-0.02-0.59c-0.02-0.32-0.04-0.66-0.01-0.99
					c0.28-2.53,1.6-7.63,2.05-9.33c-0.53,0.04-1.2,0.37-1.66,1.63l-1.96,5.87l-0.83-0.28l1.96-5.88c0.72-1.95,1.93-2.22,2.63-2.22
					c0.25,0,0.47,0.12,0.62,0.31c0.15,0.19,0.19,0.44,0.13,0.67c-0.41,1.55-1.78,6.79-2.06,9.32c-0.03,0.25-0.01,0.53,0.01,0.83
					c0.02,0.22,0.03,0.45,0.03,0.66c-0.03,2.23-0.76,4.39-1.47,6.47c-0.2,0.58-0.39,1.16-0.57,1.74c-0.31,0.99-0.17,2.16-0.04,3.29
					c0.04,0.35,0.08,0.69,0.11,1.03l0.21,2.66L34.92,52.93z"/>
			</g>
			<g>
				<path class="st0" d="M30.86,36.17c0.03,0.39,0.06,0.78,0.09,1.17c0.01,0.11,0.04,0.21,0.12,0.3c0.07,0.07,0.19,0.13,0.3,0.12
					c0.21-0.01,0.44-0.18,0.42-0.42c-0.03-0.39-0.06-0.78-0.09-1.17c-0.01-0.11-0.04-0.21-0.12-0.3c-0.07-0.07-0.19-0.13-0.3-0.12
					C31.07,35.76,30.85,35.93,30.86,36.17L30.86,36.17z"/>
			</g>
			<g>
				<path class="st0" d="M32.81,35.42c0.04,0.25,0.09,0.49,0.14,0.73c0.03,0.15,0.07,0.3,0.13,0.44c0.04,0.11,0.09,0.19,0.19,0.25
					c0.09,0.05,0.22,0.07,0.32,0.04c0.1-0.03,0.2-0.1,0.25-0.19c0.05-0.09,0.08-0.22,0.04-0.32c-0.06-0.14-0.09-0.29-0.13-0.44
					c-0.06-0.24-0.1-0.49-0.14-0.73c-0.02-0.1-0.11-0.2-0.19-0.25c-0.09-0.05-0.22-0.07-0.32-0.04c-0.1,0.03-0.2,0.1-0.25,0.19
					C32.8,35.2,32.79,35.3,32.81,35.42L32.81,35.42z"/>
			</g>
			<g>
				<path class="st0" d="M34.38,34.69c0.06,0.32,0.13,0.65,0.24,0.96c0.03,0.1,0.1,0.19,0.19,0.25c0.09,0.05,0.22,0.07,0.32,0.04
					c0.1-0.03,0.2-0.1,0.25-0.19c0.05-0.1,0.08-0.22,0.04-0.32c-0.11-0.31-0.18-0.64-0.24-0.96c-0.02-0.1-0.11-0.2-0.19-0.25
					c-0.09-0.05-0.22-0.07-0.32-0.04c-0.1,0.03-0.2,0.1-0.25,0.19C34.37,34.47,34.36,34.58,34.38,34.69L34.38,34.69z"/>
			</g>
		</g>
		<g>
			<g>
				<path class="st0" d="M24.35,28.91c-0.06,0-0.1-0.02-0.16-0.04l0.02-0.04c-0.51-0.18-1.37-0.77-1.91-1.17
					c-2.78-2.04-4.54-4.63-5.08-7.49c-0.42-2.22-0.05-4.91,2.26-5.82c1.2-0.47,2.73-0.22,4.01,0.64c0.31,0.21,0.61,0.45,0.88,0.72
					c0.27-0.26,0.57-0.5,0.88-0.71c1.28-0.86,2.81-1.11,4.01-0.64c2.31,0.91,2.68,3.6,2.26,5.82c-0.13,0.65-0.31,1.3-0.56,1.91
					l-0.82-0.32c0.22-0.56,0.4-1.16,0.51-1.75c0.36-1.87,0.09-4.12-1.72-4.83c-0.93-0.36-2.16-0.16-3.19,0.55
					c-0.38,0.26-0.73,0.57-1.05,0.91l-0.32,0.35l-0.32-0.35c-0.32-0.35-0.67-0.65-1.05-0.91c-1.04-0.7-2.26-0.91-3.19-0.54
					c-1.81,0.71-2.07,2.96-1.72,4.83c0.51,2.68,2.1,5.01,4.74,6.95c0.22,0.17,1.13,0.74,1.55,1c0.24-0.15,0.63-0.39,0.96-0.61
					l0.48,0.74c-0.72,0.46-1.06,0.68-1.26,0.78l0,0.01c-0.02,0.01-0.03,0.01-0.06,0.02C24.44,28.9,24.39,28.91,24.35,28.91z"/>
			</g>
		</g>
		<g>
			<path class="st0" d="M24.37,28.87c0.09-0.01,0.16-0.03,0.24-0.07c0.03-0.01,0.05-0.03,0.08-0.05c0.1-0.06,0.19-0.12,0.29-0.18
				c0.27-0.17,0.54-0.34,0.81-0.52c0.09-0.06,0.16-0.14,0.19-0.25c0.03-0.1,0.02-0.23-0.04-0.32c-0.12-0.18-0.38-0.28-0.57-0.15
				c-0.26,0.17-0.52,0.33-0.78,0.5c-0.1,0.06-0.19,0.12-0.29,0.18c-0.04,0.03-0.08,0.06-0.13,0.08c0.03-0.01,0.07-0.03,0.1-0.04
				c0,0,0,0,0,0c0.04,0,0.07-0.01,0.11-0.01c0,0,0,0,0,0c-0.11,0.01-0.21,0.04-0.3,0.12c-0.07,0.07-0.13,0.19-0.12,0.3
				c0,0.11,0.04,0.22,0.12,0.3C24.15,28.82,24.26,28.88,24.37,28.87L24.37,28.87z"/>
		</g>
		<g>
			<path class="st0" d="M30.96,22.02c0.23-0.59,0.41-1.21,0.53-1.83c0.04-0.21-0.06-0.46-0.29-0.51c-0.21-0.05-0.47,0.06-0.51,0.29
				c-0.12,0.63-0.3,1.24-0.53,1.83c-0.08,0.2,0.09,0.47,0.29,0.51C30.68,22.37,30.87,22.24,30.96,22.02L30.96,22.02z"/>
		</g>
	</g>
	<g>
		<path class="st0" d="M28.41,52.88c-0.02-0.31-0.04-0.61-0.06-0.92c-0.01-0.11-0.04-0.21-0.12-0.3c-0.07-0.07-0.19-0.13-0.3-0.12
			c-0.11,0-0.22,0.04-0.3,0.12c-0.07,0.08-0.13,0.19-0.12,0.3c0.02,0.31,0.04,0.61,0.06,0.92c0.01,0.11,0.04,0.21,0.12,0.3
			c0.07,0.07,0.19,0.13,0.3,0.12c0.11,0,0.22-0.04,0.3-0.12C28.36,53.09,28.41,52.99,28.41,52.88L28.41,52.88z"/>
	</g>
	<g>
		<path class="st0" d="M34.9,52.46c0.01,0.15,0.02,0.29,0.03,0.44c0,0.06,0.01,0.11,0.04,0.16c0.02,0.05,0.05,0.1,0.09,0.13
			c0.04,0.04,0.08,0.07,0.13,0.09c0.05,0.03,0.1,0.04,0.16,0.04c0.04,0,0.07-0.01,0.11-0.01c0.07-0.02,0.13-0.06,0.18-0.11
			c0.07-0.08,0.13-0.19,0.12-0.3c-0.01-0.15-0.02-0.29-0.03-0.44c0-0.06-0.01-0.11-0.04-0.16c-0.02-0.05-0.05-0.1-0.09-0.13
			c-0.04-0.04-0.08-0.07-0.13-0.09c-0.05-0.03-0.1-0.04-0.16-0.04c-0.04,0-0.07,0.01-0.11,0.01c-0.07,0.02-0.13,0.06-0.18,0.11
			C34.95,52.24,34.9,52.35,34.9,52.46L34.9,52.46z"/>
	</g>
</g>
</svg>
