<?xml version="1.0" encoding="utf-8"?>
<!-- Generator: Adobe Illustrator 27.2.0, SVG Export Plug-In . SVG Version: 6.00 Build 0)  -->
<svg version="1.1" id="Layer_1" xmlns="http://www.w3.org/2000/svg" xmlns:xlink="http://www.w3.org/1999/xlink" x="0px" y="0px"
	 viewBox="0 0 54.72 63.62" style="enable-background:new 0 0 54.72 63.62;" xml:space="preserve">
<style type="text/css">
	.st0{fill:#4F4C4D;}
	.st1{fill:url(#SVGID_1_);}
	.st2{fill:url(#SVGID_00000061460588653850130300000005768252806184170173_);}
	
		.st3{clip-path:url(#SVGID_00000043438925578947095750000013894822081001076882_);fill:url(#SVGID_00000036235201748145703760000012139353427906061456_);}
	
		.st4{clip-path:url(#SVGID_00000043438925578947095750000013894822081001076882_);fill:url(#SVGID_00000168796609374777924710000001537139877208486792_);}
	
		.st5{clip-path:url(#SVGID_00000043438925578947095750000013894822081001076882_);fill:url(#SVGID_00000121277171068141194640000017473246138474710973_);}
	
		.st6{clip-path:url(#SVGID_00000043438925578947095750000013894822081001076882_);fill:url(#SVGID_00000101790401438403604660000016864943310439619242_);}
	
		.st7{clip-path:url(#SVGID_00000043438925578947095750000013894822081001076882_);fill:url(#SVGID_00000127764408498202234040000018024979920243997112_);}
	
		.st8{clip-path:url(#SVGID_00000043438925578947095750000013894822081001076882_);fill:url(#SVGID_00000096046413859142650380000010120295451060065665_);}
	
		.st9{clip-path:url(#SVGID_00000043438925578947095750000013894822081001076882_);fill:url(#SVGID_00000048472228257852086750000016608778255676263568_);}
	
		.st10{clip-path:url(#SVGID_00000043438925578947095750000013894822081001076882_);fill:url(#SVGID_00000039094356617838139700000009974259984007620229_);}
	
		.st11{clip-path:url(#SVGID_00000043438925578947095750000013894822081001076882_);fill:url(#SVGID_00000081620650019869953850000011811150853718557858_);}
	
		.st12{clip-path:url(#SVGID_00000043438925578947095750000013894822081001076882_);fill:url(#SVGID_00000057827708431363840460000001043847482069078953_);}
	
		.st13{clip-path:url(#SVGID_00000043438925578947095750000013894822081001076882_);fill:url(#SVGID_00000158750087845823743590000007281856280969404090_);}
	
		.st14{clip-path:url(#SVGID_00000043438925578947095750000013894822081001076882_);fill:url(#SVGID_00000157295805234321807530000017563152299933186691_);}
	
		.st15{clip-path:url(#SVGID_00000043438925578947095750000013894822081001076882_);fill:url(#SVGID_00000078013777431633217550000011263407927664633502_);}
	
		.st16{clip-path:url(#SVGID_00000043438925578947095750000013894822081001076882_);fill:url(#SVGID_00000002365133711317518490000001012137869918079135_);}
	
		.st17{clip-path:url(#SVGID_00000043438925578947095750000013894822081001076882_);fill:url(#SVGID_00000116223864496218026580000013208600808006094009_);}
	
		.st18{clip-path:url(#SVGID_00000043438925578947095750000013894822081001076882_);fill:url(#SVGID_00000068636031483960362520000014336937093465961914_);}
	.st19{clip-path:url(#SVGID_00000043438925578947095750000013894822081001076882_);}
	.st20{fill:url(#SVGID_00000160175386379073015880000006552578740245974688_);}
	.st21{fill:url(#SVGID_00000019669864565918634600000013035549800362481818_);}
	.st22{fill:url(#SVGID_00000020389978604071061250000007952890149977673629_);}
	.st23{fill:url(#SVGID_00000113340457982133783840000013931461711700078260_);}
	
		.st24{clip-path:url(#SVGID_00000043438925578947095750000013894822081001076882_);fill:url(#SVGID_00000134219587139725752130000000609913991644680111_);}
	
		.st25{clip-path:url(#SVGID_00000043438925578947095750000013894822081001076882_);fill:url(#SVGID_00000018213674534667448020000000216032678660029312_);}
	
		.st26{clip-path:url(#SVGID_00000043438925578947095750000013894822081001076882_);fill:url(#SVGID_00000092457338427652727910000000639109968096931212_);}
	
		.st27{clip-path:url(#SVGID_00000043438925578947095750000013894822081001076882_);fill:url(#SVGID_00000062177192293147849780000007451235735037335951_);}
	
		.st28{clip-path:url(#SVGID_00000043438925578947095750000013894822081001076882_);fill:url(#SVGID_00000116225621492209161050000000254746576366078336_);}
	
		.st29{clip-path:url(#SVGID_00000043438925578947095750000013894822081001076882_);fill:url(#SVGID_00000034050182108740349480000017325421559465525638_);}
	
		.st30{clip-path:url(#SVGID_00000043438925578947095750000013894822081001076882_);fill:url(#SVGID_00000145743539841098291960000001020063468856294819_);}
	
		.st31{clip-path:url(#SVGID_00000043438925578947095750000013894822081001076882_);fill:url(#SVGID_00000008835553517948480200000008732017926300959922_);}
	
		.st32{clip-path:url(#SVGID_00000043438925578947095750000013894822081001076882_);fill:url(#SVGID_00000047045095273491571720000004029796837504816056_);}
	
		.st33{clip-path:url(#SVGID_00000043438925578947095750000013894822081001076882_);fill:url(#SVGID_00000037653899666173550080000015642243222134801322_);}
	
		.st34{clip-path:url(#SVGID_00000043438925578947095750000013894822081001076882_);fill:url(#SVGID_00000036971183062190939370000012068889243120807079_);}
	
		.st35{clip-path:url(#SVGID_00000043438925578947095750000013894822081001076882_);fill:url(#SVGID_00000142138216523438878200000001934604265655727278_);}
	
		.st36{clip-path:url(#SVGID_00000043438925578947095750000013894822081001076882_);fill:url(#SVGID_00000165916313299593447660000002727013994438781573_);}
	
		.st37{clip-path:url(#SVGID_00000043438925578947095750000013894822081001076882_);fill:url(#SVGID_00000157990212128689703180000005110259408466282158_);}
	
		.st38{clip-path:url(#SVGID_00000043438925578947095750000013894822081001076882_);fill:url(#SVGID_00000147904293267155300420000010186386613520874411_);}
	
		.st39{clip-path:url(#SVGID_00000043438925578947095750000013894822081001076882_);fill:url(#SVGID_00000000922663012157920630000002648228614022981291_);}
	.st40{fill:url(#SVGID_00000096025575697679543120000017003541388351390093_);}
	.st41{fill:url(#SVGID_00000086671947249673637870000004565563880630893498_);}
	.st42{fill:url(#SVGID_00000129181419504348694790000014728661222243956115_);}
	.st43{fill:url(#SVGID_00000168838054165864900620000018145480731825136059_);}
	
		.st44{clip-path:url(#SVGID_00000043438925578947095750000013894822081001076882_);fill:url(#SVGID_00000032610848271529952880000010453415064551826611_);}
	
		.st45{clip-path:url(#SVGID_00000043438925578947095750000013894822081001076882_);fill:url(#SVGID_00000082344841852024549250000007562310477666303908_);}
	
		.st46{clip-path:url(#SVGID_00000043438925578947095750000013894822081001076882_);fill:url(#SVGID_00000062914768051915736170000009228249820997400498_);}
	
		.st47{clip-path:url(#SVGID_00000043438925578947095750000013894822081001076882_);fill:url(#SVGID_00000098197372731545015010000002804439038542822787_);}
	
		.st48{clip-path:url(#SVGID_00000043438925578947095750000013894822081001076882_);fill:url(#SVGID_00000040537838425851026200000011828506106113698439_);}
	
		.st49{clip-path:url(#SVGID_00000043438925578947095750000013894822081001076882_);fill:url(#SVGID_00000130611198478858465890000011292336100139879314_);}
	
		.st50{clip-path:url(#SVGID_00000043438925578947095750000013894822081001076882_);fill:url(#SVGID_00000153671446404195868030000014709281011308695476_);}
	
		.st51{clip-path:url(#SVGID_00000043438925578947095750000013894822081001076882_);fill:url(#SVGID_00000039838216535848053220000001759007270501716158_);}
	
		.st52{clip-path:url(#SVGID_00000043438925578947095750000013894822081001076882_);fill:url(#SVGID_00000172425127982695574340000015789891929208569234_);}
	
		.st53{clip-path:url(#SVGID_00000043438925578947095750000013894822081001076882_);fill:url(#SVGID_00000154427000591527815880000000127272296040373159_);}
	
		.st54{clip-path:url(#SVGID_00000043438925578947095750000013894822081001076882_);fill:url(#SVGID_00000044142494265697564840000013134320250058253985_);}
	
		.st55{clip-path:url(#SVGID_00000043438925578947095750000013894822081001076882_);fill:url(#SVGID_00000047052720609910118180000013698043432094366896_);}
	
		.st56{clip-path:url(#SVGID_00000043438925578947095750000013894822081001076882_);fill:url(#SVGID_00000181064422858379242800000002667634683277640580_);}
	
		.st57{clip-path:url(#SVGID_00000043438925578947095750000013894822081001076882_);fill:url(#SVGID_00000035524994684113698690000009416461800433175706_);}
	
		.st58{clip-path:url(#SVGID_00000043438925578947095750000013894822081001076882_);fill:url(#SVGID_00000038406351863477214980000005879356630047574704_);}
	
		.st59{clip-path:url(#SVGID_00000043438925578947095750000013894822081001076882_);fill:url(#SVGID_00000160154683561394833820000005132686456860102067_);}
	.st60{fill:url(#SVGID_00000078032757373617622850000005469939998824860052_);}
	.st61{fill:url(#SVGID_00000140698528510849159190000003402428939427366072_);}
	.st62{fill:url(#SVGID_00000150098812067984651840000011022196155784496827_);}
	.st63{fill:url(#SVGID_00000136384573063174039660000005739335017501743027_);}
	
		.st64{clip-path:url(#SVGID_00000043438925578947095750000013894822081001076882_);fill:url(#SVGID_00000013892056335024048640000017616011185194233491_);}
	
		.st65{clip-path:url(#SVGID_00000043438925578947095750000013894822081001076882_);fill:url(#SVGID_00000103943404424416988380000011861729847233117825_);}
	
		.st66{clip-path:url(#SVGID_00000043438925578947095750000013894822081001076882_);fill:url(#SVGID_00000135691637351584857690000012643640332372403588_);}
	
		.st67{clip-path:url(#SVGID_00000043438925578947095750000013894822081001076882_);fill:url(#SVGID_00000140697115776469033340000018286862229572708261_);}
	
		.st68{clip-path:url(#SVGID_00000043438925578947095750000013894822081001076882_);fill:url(#SVGID_00000026125246074945883720000012553891096820818827_);}
	
		.st69{clip-path:url(#SVGID_00000043438925578947095750000013894822081001076882_);fill:url(#SVGID_00000021081101318329617010000006903879954857112966_);}
	
		.st70{clip-path:url(#SVGID_00000043438925578947095750000013894822081001076882_);fill:url(#SVGID_00000023247096197487978490000015121085173540853675_);}
	
		.st71{clip-path:url(#SVGID_00000043438925578947095750000013894822081001076882_);fill:url(#SVGID_00000014592036390898928050000007878539079952209565_);}
	
		.st72{clip-path:url(#SVGID_00000043438925578947095750000013894822081001076882_);fill:url(#SVGID_00000031922613273689632580000014289826999798519427_);}
	
		.st73{clip-path:url(#SVGID_00000043438925578947095750000013894822081001076882_);fill:url(#SVGID_00000011019450292089145330000014010919816515859086_);}
	
		.st74{clip-path:url(#SVGID_00000043438925578947095750000013894822081001076882_);fill:url(#SVGID_00000056395885825749245380000000971005678883592600_);}
	
		.st75{clip-path:url(#SVGID_00000043438925578947095750000013894822081001076882_);fill:url(#SVGID_00000018935524129972185490000000845017323977008574_);}
	
		.st76{clip-path:url(#SVGID_00000043438925578947095750000013894822081001076882_);fill:url(#SVGID_00000150097268496956964630000015337691479830318503_);}
	
		.st77{clip-path:url(#SVGID_00000043438925578947095750000013894822081001076882_);fill:url(#SVGID_00000026159217557592858560000010430897920466655131_);}
	
		.st78{clip-path:url(#SVGID_00000043438925578947095750000013894822081001076882_);fill:url(#SVGID_00000014624088681192093610000001196786563247112843_);}
	
		.st79{clip-path:url(#SVGID_00000043438925578947095750000013894822081001076882_);fill:url(#SVGID_00000114066605190100346490000006331710558016500903_);}
	.st80{fill:url(#SVGID_00000072263600711476540760000018040760856164980902_);}
	.st81{fill:url(#SVGID_00000024702529029445319550000012603518397506835081_);}
	.st82{fill:url(#SVGID_00000117667553184308705470000004763824591312686720_);}
	.st83{fill:url(#SVGID_00000155145003932303820480000012680568835416523954_);}
	.st84{fill:url(#SVGID_00000060007644327870350720000015099086383519879081_);}
	.st85{fill:url(#SVGID_00000002377996554215034670000014308741833245181589_);}
	.st86{fill:url(#SVGID_00000140696674783169429410000013384133059225030804_);}
	.st87{fill:url(#SVGID_00000036945948317122281020000008498533568153683646_);}
	.st88{fill:url(#SVGID_00000131337452170228161280000009564378540016761744_);}
	.st89{fill:url(#SVGID_00000010308445687938985390000015156299686814550960_);}
	.st90{clip-path:url(#SVGID_00000040555411762824234750000010456252897192443033_);}
	.st91{fill:url(#SVGID_00000179627826610999015290000011074760464996158632_);}
	.st92{fill:url(#SVGID_00000051374683907498446360000014009650933974922900_);}
	.st93{fill:url(#SVGID_00000029045863423578443820000015695167546957457850_);}
	.st94{fill:url(#SVGID_00000021831744623925627440000008825464215368138159_);}
	.st95{fill:url(#SVGID_00000170964440341863884560000007574421599490856595_);}
	.st96{fill:url(#SVGID_00000049205863820411228560000014734033316061327022_);}
	.st97{fill:url(#SVGID_00000124842532088300211750000013552175857731556499_);}
	.st98{fill:none;stroke:#666364;stroke-miterlimit:10;}
	.st99{fill:#666364;}
	.st100{fill:#FFFFFF;}
	.st101{fill:#C1C0C1;}
	.st102{fill:none;stroke:#4F4C4D;stroke-width:0.0179;stroke-miterlimit:10;}
	.st103{fill:#D5D4D5;}
	.st104{clip-path:url(#SVGID_00000011025902750892192140000005192158228978191792_);}
	.st105{fill:none;stroke:#4F4C4D;stroke-width:0.8884;stroke-linecap:round;stroke-linejoin:round;stroke-miterlimit:10;}
	.st106{fill:none;stroke:#4F4C4D;stroke-width:0.8448;stroke-linecap:round;stroke-linejoin:round;stroke-miterlimit:10;}
	.st107{fill:none;stroke:#4F4C4D;stroke-width:0.9746;stroke-linecap:round;stroke-linejoin:round;stroke-miterlimit:10;}
	.st108{fill:none;stroke:#4F4C4D;stroke-width:0.8608;stroke-linecap:round;stroke-linejoin:round;stroke-miterlimit:10;}
	
		.st109{fill:none;stroke:#4F4C4D;stroke-width:0.8608;stroke-linecap:round;stroke-linejoin:round;stroke-miterlimit:10;stroke-dasharray:1.0632;}
	.st110{fill:none;stroke:#4F4C4D;stroke-width:0.9757;stroke-linecap:round;stroke-linejoin:round;stroke-miterlimit:10;}
	.st111{fill:none;stroke:#4F4C4D;stroke-width:1.1046;stroke-linecap:round;stroke-linejoin:round;stroke-miterlimit:10;}
	.st112{fill:none;stroke:#4F4C4D;stroke-width:1.0333;stroke-linecap:round;stroke-linejoin:round;stroke-miterlimit:10;}
	
		.st113{fill:none;stroke:#4F4C4D;stroke-width:1.0333;stroke-linecap:round;stroke-linejoin:round;stroke-miterlimit:10;stroke-dasharray:1.2;}
	.st114{fill:none;stroke:#4F4C4D;stroke-linecap:round;stroke-linejoin:round;stroke-miterlimit:10;}
	.st115{fill:none;stroke:#4F4C4D;stroke-linecap:round;stroke-linejoin:round;stroke-miterlimit:10;stroke-dasharray:1.0878;}
</style>
<g>
	<g>
		<path class="st0" d="M27.36,60.49L2.69,46.25V17.76L27.36,3.52l24.67,14.24v28.48L27.36,60.49z M4.53,45.18l22.83,13.18
			l22.83-13.18V18.83L27.36,5.65L4.53,18.83V45.18z"/>
	</g>
</g>
<g>
	<path class="st0" d="M28.31,19.67c-0.13,0-0.27,0.07-0.42,0.21c-1.96,1.89-3.51,4.02-4.6,6.32c-1.41,2.99-1.74,5.87-1,8.78
		c0.56,2.22,1.63,4.36,3.18,6.36c0.74,0.95,1.59,1.85,2.41,2.72l0.11,0.12c0.1,0.11,0.28,0.29,0.66-0.03
		c0.12-0.1,0.23-0.21,0.34-0.32c1.44-1.45,2.65-3.01,3.58-4.66c1.46-2.55,2.11-4.88,2.1-7.55v-0.01c0.01-0.73-0.15-1.8-0.42-2.79
		c-0.9-3.25-2.74-6.2-5.63-9.01C28.52,19.72,28.42,19.67,28.31,19.67 M28.27,45.59c-0.43,0-0.85-0.18-1.19-0.55l-0.11-0.11
		c-0.84-0.9-1.72-1.82-2.49-2.82c-1.66-2.13-2.8-4.43-3.41-6.82c-0.8-3.17-0.43-6.41,1.09-9.63c1.16-2.45,2.8-4.7,4.87-6.69
		c0.75-0.72,1.76-0.75,2.47-0.07c3.05,2.97,5.01,6.11,5.97,9.58c0.31,1.12,0.48,2.29,0.47,3.14c0,2.86-0.72,5.45-2.27,8.17
		c-0.99,1.74-2.26,3.39-3.78,4.92c-0.13,0.13-0.27,0.26-0.41,0.38C29.09,45.43,28.68,45.59,28.27,45.59"/>
	<path class="st0" d="M37.37,27.8c0.67,2.46,0.76,4.88,0.27,7.25c-0.58,2.83-1.85,5.52-3.87,8.24c-0.14,0.19-0.28,0.37-0.43,0.55
		c0.65-0.14,1.3-0.28,1.94-0.46c4.25-1.27,7.2-3.88,8.77-7.78c1.05-2.6,1.54-5.42,1.46-8.38c-0.01-0.48-0.13-0.59-0.6-0.6
		c-1.86-0.03-3.73,0.16-5.54,0.6c-0.58,0.14-1.16,0.32-1.74,0.5L37.37,27.8z M30.66,45.37l0.66-1.02l0.48-0.6
		c0.33-0.41,0.65-0.8,0.96-1.21c1.91-2.56,3.1-5.09,3.64-7.74c0.47-2.29,0.36-4.64-0.34-6.99l-0.24-0.86l1.44-0.43
		c0.6-0.19,1.21-0.37,1.82-0.52c1.91-0.46,3.92-0.66,5.86-0.63c1.15,0.03,1.79,0.67,1.83,1.82c0.09,3.13-0.44,6.12-1.55,8.88
		c-1.72,4.27-4.94,7.13-9.57,8.51c-0.76,0.23-1.54,0.39-2.32,0.55l-0.97,0.2c-0.14,0.03-0.27,0.03-0.38,0.03L30.66,45.37z"/>
	<path class="st0" d="M12.09,26.62c-0.22,0-0.44,0-0.67,0.01c-0.19,0.01-0.35,0.19-0.35,0.35c-0.1,2.78,0.3,5.44,1.18,7.89
		c1.07,2.98,2.74,5.18,5.1,6.69c1.68,1.09,3.62,1.85,5.91,2.31c-1.09-1.38-1.99-2.78-2.71-4.24c-1.15-2.32-1.77-4.56-1.9-6.84
		c-0.09-1.65,0.1-3.33,0.56-5C16.97,27.02,14.59,26.62,12.09,26.62 M26.26,45.52l-1.96-0.2c-0.3-0.04-0.56-0.08-0.83-0.13
		c-2.65-0.48-4.87-1.32-6.81-2.57c-2.6-1.67-4.43-4.07-5.6-7.32c-0.94-2.61-1.36-5.42-1.25-8.36c0.03-0.84,0.74-1.54,1.57-1.56
		c3.1-0.09,6.01,0.39,8.71,1.42l0.25,0.16l0.28,0.27l-0.07,0.41c-0.53,1.73-0.75,3.39-0.66,5.1c0.11,2.1,0.69,4.18,1.76,6.35
		c0.86,1.72,1.96,3.35,3.38,4.99L26.26,45.52z"/>
	<path class="st0" d="M17.92,24l2.43,0.71l1.22-2.23l-0.2-0.09c-0.7-0.31-1.39-0.62-2.08-0.9c-0.17-0.07-0.37,0-0.45,0.17
		c-0.3,0.71-0.57,1.42-0.85,2.13L17.92,24z M20.97,26.2l-4.71-1.38l0.57-1.48c0.28-0.73,0.56-1.46,0.87-2.18
		c0.34-0.8,1.26-1.17,2.07-0.84c0.72,0.29,1.42,0.6,2.13,0.92l1.45,0.64L20.97,26.2z"/>
	<path class="st0" d="M35.02,22.52l1.21,2.2l2.43-0.71l-0.07-0.18c-0.25-0.65-0.49-1.31-0.76-1.96c-0.05-0.12-0.15-0.31-0.29-0.37
		c-0.13-0.05-0.31,0-0.45,0.06c-0.62,0.26-1.23,0.55-1.84,0.85L35.02,22.52z M35.61,26.2l-2.24-4.08l0.4-0.33
		c0.05-0.04,0.15-0.14,0.29-0.2l0.67-0.32c0.62-0.3,1.25-0.6,1.89-0.87c0.64-0.27,1.12-0.18,1.41-0.06c0.3,0.12,0.71,0.4,0.97,1.06
		c0.27,0.66,0.52,1.33,0.77,2l0.54,1.44L35.61,26.2z"/>
</g>
</svg>
