<?xml version="1.0" encoding="utf-8"?>
<!-- Generator: Adobe Illustrator 27.2.0, SVG Export Plug-In . SVG Version: 6.00 Build 0)  -->
<svg version="1.1" id="Layer_1" xmlns="http://www.w3.org/2000/svg" xmlns:xlink="http://www.w3.org/1999/xlink" x="0px" y="0px"
	 viewBox="0 0 54.72 63.62" style="enable-background:new 0 0 54.72 63.62;" xml:space="preserve">
<style type="text/css">
	.st0{fill:#4F4C4D;}
	.st1{fill:url(#SVGID_1_);}
	.st2{fill:url(#SVGID_00000159438440024462235180000015501541334124416703_);}
	
		.st3{clip-path:url(#SVGID_00000176750596744514663680000002932271852904968323_);fill:url(#SVGID_00000116229679396275834710000000879031330817743291_);}
	
		.st4{clip-path:url(#SVGID_00000176750596744514663680000002932271852904968323_);fill:url(#SVGID_00000040540649184863008970000013677403680918320267_);}
	
		.st5{clip-path:url(#SVGID_00000176750596744514663680000002932271852904968323_);fill:url(#SVGID_00000028321340192923060580000007030363380222209936_);}
	
		.st6{clip-path:url(#SVGID_00000176750596744514663680000002932271852904968323_);fill:url(#SVGID_00000072262516366648458650000002308445825705998470_);}
	
		.st7{clip-path:url(#SVGID_00000176750596744514663680000002932271852904968323_);fill:url(#SVGID_00000062891693935611456570000004999115260573295009_);}
	
		.st8{clip-path:url(#SVGID_00000176750596744514663680000002932271852904968323_);fill:url(#SVGID_00000165950754427117161280000000144070399373723012_);}
	
		.st9{clip-path:url(#SVGID_00000176750596744514663680000002932271852904968323_);fill:url(#SVGID_00000054265587344758877440000004340376940986508728_);}
	
		.st10{clip-path:url(#SVGID_00000176750596744514663680000002932271852904968323_);fill:url(#SVGID_00000098209566922170672010000018190133692410083716_);}
	
		.st11{clip-path:url(#SVGID_00000176750596744514663680000002932271852904968323_);fill:url(#SVGID_00000160158502678931057040000001622885840876875414_);}
	
		.st12{clip-path:url(#SVGID_00000176750596744514663680000002932271852904968323_);fill:url(#SVGID_00000172409598557266473120000015948979456478625690_);}
	
		.st13{clip-path:url(#SVGID_00000176750596744514663680000002932271852904968323_);fill:url(#SVGID_00000001627103176713108600000010436199998101380543_);}
	
		.st14{clip-path:url(#SVGID_00000176750596744514663680000002932271852904968323_);fill:url(#SVGID_00000102506833708812761430000006359184286182659728_);}
	
		.st15{clip-path:url(#SVGID_00000176750596744514663680000002932271852904968323_);fill:url(#SVGID_00000053506536098987328780000015288701377086704301_);}
	
		.st16{clip-path:url(#SVGID_00000176750596744514663680000002932271852904968323_);fill:url(#SVGID_00000122717664522588126870000011057190209910480289_);}
	
		.st17{clip-path:url(#SVGID_00000176750596744514663680000002932271852904968323_);fill:url(#SVGID_00000138575539716121034920000014918289658083044492_);}
	
		.st18{clip-path:url(#SVGID_00000176750596744514663680000002932271852904968323_);fill:url(#SVGID_00000020371238593105048660000000013803530546949518_);}
	.st19{clip-path:url(#SVGID_00000176750596744514663680000002932271852904968323_);}
	.st20{fill:url(#SVGID_00000097480586034275990020000001881404642839070340_);}
	.st21{fill:url(#SVGID_00000165912743832913697500000013913809824614265509_);}
	.st22{fill:url(#SVGID_00000137817868948697053770000011194409671715052732_);}
	.st23{fill:url(#SVGID_00000164499133980921481030000002414912127854629768_);}
	
		.st24{clip-path:url(#SVGID_00000176750596744514663680000002932271852904968323_);fill:url(#SVGID_00000159472303601062257120000012583556927082919862_);}
	
		.st25{clip-path:url(#SVGID_00000176750596744514663680000002932271852904968323_);fill:url(#SVGID_00000106827623403619716140000016650450680774838408_);}
	
		.st26{clip-path:url(#SVGID_00000176750596744514663680000002932271852904968323_);fill:url(#SVGID_00000154395046910646278650000017141958858671949746_);}
	
		.st27{clip-path:url(#SVGID_00000176750596744514663680000002932271852904968323_);fill:url(#SVGID_00000035520096439747291520000015270078977217737612_);}
	
		.st28{clip-path:url(#SVGID_00000176750596744514663680000002932271852904968323_);fill:url(#SVGID_00000119096981573933466470000008144282924013176457_);}
	
		.st29{clip-path:url(#SVGID_00000176750596744514663680000002932271852904968323_);fill:url(#SVGID_00000090998630369047487500000010088004143248180147_);}
	
		.st30{clip-path:url(#SVGID_00000176750596744514663680000002932271852904968323_);fill:url(#SVGID_00000072982156624871028960000006234757759973330828_);}
	
		.st31{clip-path:url(#SVGID_00000176750596744514663680000002932271852904968323_);fill:url(#SVGID_00000131349789652304563900000007713982447075211912_);}
	
		.st32{clip-path:url(#SVGID_00000176750596744514663680000002932271852904968323_);fill:url(#SVGID_00000160905599738179713230000014632495817803467148_);}
	
		.st33{clip-path:url(#SVGID_00000176750596744514663680000002932271852904968323_);fill:url(#SVGID_00000076581198555737677590000009004454009056388750_);}
	
		.st34{clip-path:url(#SVGID_00000176750596744514663680000002932271852904968323_);fill:url(#SVGID_00000040544391155943050060000016867250241583895225_);}
	
		.st35{clip-path:url(#SVGID_00000176750596744514663680000002932271852904968323_);fill:url(#SVGID_00000018954068609388686170000003586007930819598511_);}
	
		.st36{clip-path:url(#SVGID_00000176750596744514663680000002932271852904968323_);fill:url(#SVGID_00000104678471352603469270000005648952998277339059_);}
	
		.st37{clip-path:url(#SVGID_00000176750596744514663680000002932271852904968323_);fill:url(#SVGID_00000099639341856238999960000012685007967909744029_);}
	
		.st38{clip-path:url(#SVGID_00000176750596744514663680000002932271852904968323_);fill:url(#SVGID_00000139275851739825907650000001911304904033314435_);}
	
		.st39{clip-path:url(#SVGID_00000176750596744514663680000002932271852904968323_);fill:url(#SVGID_00000049932004475383763440000010071331728042113956_);}
	.st40{fill:url(#SVGID_00000071519397597119260900000001417626260982332856_);}
	.st41{fill:url(#SVGID_00000083088395422057315380000008256947487700917641_);}
	.st42{fill:url(#SVGID_00000153696111142300658290000011819048039136561297_);}
	.st43{fill:url(#SVGID_00000025411357956382020010000002943227504560907653_);}
	
		.st44{clip-path:url(#SVGID_00000176750596744514663680000002932271852904968323_);fill:url(#SVGID_00000011754019427075126750000018037977135111683469_);}
	
		.st45{clip-path:url(#SVGID_00000176750596744514663680000002932271852904968323_);fill:url(#SVGID_00000053512410512245001090000009022640294542076310_);}
	
		.st46{clip-path:url(#SVGID_00000176750596744514663680000002932271852904968323_);fill:url(#SVGID_00000053539524209695015880000013541165818565847695_);}
	
		.st47{clip-path:url(#SVGID_00000176750596744514663680000002932271852904968323_);fill:url(#SVGID_00000182527360989888187800000001915089429766956698_);}
	
		.st48{clip-path:url(#SVGID_00000176750596744514663680000002932271852904968323_);fill:url(#SVGID_00000051351523303476153350000016889847155601819546_);}
	
		.st49{clip-path:url(#SVGID_00000176750596744514663680000002932271852904968323_);fill:url(#SVGID_00000051369346393491632040000012946191413250730630_);}
	
		.st50{clip-path:url(#SVGID_00000176750596744514663680000002932271852904968323_);fill:url(#SVGID_00000017513205641234937900000010844042854376511113_);}
	
		.st51{clip-path:url(#SVGID_00000176750596744514663680000002932271852904968323_);fill:url(#SVGID_00000010277428071791181280000010379309034391025545_);}
	
		.st52{clip-path:url(#SVGID_00000176750596744514663680000002932271852904968323_);fill:url(#SVGID_00000090988574319505393110000016404798242726560394_);}
	
		.st53{clip-path:url(#SVGID_00000176750596744514663680000002932271852904968323_);fill:url(#SVGID_00000140699609213203681870000018110150862334304432_);}
	
		.st54{clip-path:url(#SVGID_00000176750596744514663680000002932271852904968323_);fill:url(#SVGID_00000183949987313370185980000012373894225620946362_);}
	
		.st55{clip-path:url(#SVGID_00000176750596744514663680000002932271852904968323_);fill:url(#SVGID_00000011732652407834604670000016123499299904118152_);}
	
		.st56{clip-path:url(#SVGID_00000176750596744514663680000002932271852904968323_);fill:url(#SVGID_00000061471445757909929310000008191728399982991760_);}
	
		.st57{clip-path:url(#SVGID_00000176750596744514663680000002932271852904968323_);fill:url(#SVGID_00000119808115915282933900000015378883261843006124_);}
	
		.st58{clip-path:url(#SVGID_00000176750596744514663680000002932271852904968323_);fill:url(#SVGID_00000059297756361599696930000016963005039960926366_);}
	
		.st59{clip-path:url(#SVGID_00000176750596744514663680000002932271852904968323_);fill:url(#SVGID_00000161591812073470456220000000756884614747949189_);}
	.st60{fill:url(#SVGID_00000018925811138448927370000017641878160075326123_);}
	.st61{fill:url(#SVGID_00000006699294612943210460000011430681506202357681_);}
	.st62{fill:url(#SVGID_00000129190098967193351610000001364276420204830367_);}
	.st63{fill:url(#SVGID_00000048469323105174124640000010374635138279070374_);}
	
		.st64{clip-path:url(#SVGID_00000176750596744514663680000002932271852904968323_);fill:url(#SVGID_00000068664495896311340160000007008612049976784802_);}
	
		.st65{clip-path:url(#SVGID_00000176750596744514663680000002932271852904968323_);fill:url(#SVGID_00000087396363403649580500000005257961538567582338_);}
	
		.st66{clip-path:url(#SVGID_00000176750596744514663680000002932271852904968323_);fill:url(#SVGID_00000006673083184089915150000011865830485982769823_);}
	
		.st67{clip-path:url(#SVGID_00000176750596744514663680000002932271852904968323_);fill:url(#SVGID_00000016034320659532562630000009115978831248176828_);}
	
		.st68{clip-path:url(#SVGID_00000176750596744514663680000002932271852904968323_);fill:url(#SVGID_00000047053922752340035970000010625362689099473550_);}
	
		.st69{clip-path:url(#SVGID_00000176750596744514663680000002932271852904968323_);fill:url(#SVGID_00000052822402873535339440000016916213763159676585_);}
	
		.st70{clip-path:url(#SVGID_00000176750596744514663680000002932271852904968323_);fill:url(#SVGID_00000119812418809044254460000016854282184234041023_);}
	
		.st71{clip-path:url(#SVGID_00000176750596744514663680000002932271852904968323_);fill:url(#SVGID_00000008132336395961215930000016136358233022502786_);}
	
		.st72{clip-path:url(#SVGID_00000176750596744514663680000002932271852904968323_);fill:url(#SVGID_00000176723204173307289050000005098958890182319266_);}
	
		.st73{clip-path:url(#SVGID_00000176750596744514663680000002932271852904968323_);fill:url(#SVGID_00000003800009183322596870000013326247549636474250_);}
	
		.st74{clip-path:url(#SVGID_00000176750596744514663680000002932271852904968323_);fill:url(#SVGID_00000085945415019330962060000011245887328191275394_);}
	
		.st75{clip-path:url(#SVGID_00000176750596744514663680000002932271852904968323_);fill:url(#SVGID_00000057865115630172829050000010010466536773894078_);}
	
		.st76{clip-path:url(#SVGID_00000176750596744514663680000002932271852904968323_);fill:url(#SVGID_00000062164619318159357000000007621866862057994140_);}
	
		.st77{clip-path:url(#SVGID_00000176750596744514663680000002932271852904968323_);fill:url(#SVGID_00000098938880380354862590000005454421561327526023_);}
	
		.st78{clip-path:url(#SVGID_00000176750596744514663680000002932271852904968323_);fill:url(#SVGID_00000048494127845000800640000011979816547878040762_);}
	
		.st79{clip-path:url(#SVGID_00000176750596744514663680000002932271852904968323_);fill:url(#SVGID_00000167375455501628447950000000323634228289118642_);}
	.st80{fill:url(#SVGID_00000178195590286381776930000015581083242863135649_);}
	.st81{fill:url(#SVGID_00000142889732485490352980000000386665763002112917_);}
	.st82{fill:url(#SVGID_00000098917146434029566510000009653195996775530685_);}
	.st83{fill:url(#SVGID_00000095310969679493137440000005880562484391744149_);}
	.st84{fill:url(#SVGID_00000054260576163395401960000012763779351394616764_);}
	.st85{fill:url(#SVGID_00000108988659287959821090000006407626002235988911_);}
	.st86{fill:url(#SVGID_00000039816600481355855830000009847878194573026718_);}
	.st87{fill:url(#SVGID_00000076570303992775853720000001703764895665393553_);}
	.st88{fill:url(#SVGID_00000013180405181629791420000007152754111971833249_);}
	.st89{fill:url(#SVGID_00000005964433707177781490000007553954780186481562_);}
	.st90{clip-path:url(#SVGID_00000059999163884422851430000003001588472750479008_);}
	.st91{fill:url(#SVGID_00000171701772402132517880000008771552418861240717_);}
	.st92{fill:url(#SVGID_00000102538841012708694540000009081327062252643243_);}
	.st93{fill:url(#SVGID_00000163056273302065565620000012509665721287657099_);}
	.st94{fill:url(#SVGID_00000069367627531502249660000017331004164664427662_);}
	.st95{fill:url(#SVGID_00000080926260597749348860000017311105310031663520_);}
	.st96{fill:url(#SVGID_00000117645816845268734480000006129463665039239808_);}
	.st97{fill:url(#SVGID_00000145777934109491361160000011058240963660736137_);}
	.st98{fill:none;stroke:#666364;stroke-miterlimit:10;}
	.st99{fill:#666364;}
	.st100{fill:#FFFFFF;}
	.st101{fill:#C1C0C1;}
	.st102{fill:none;stroke:#4F4C4D;stroke-width:0.0179;stroke-miterlimit:10;}
	.st103{fill:#D5D4D5;}
	.st104{clip-path:url(#SVGID_00000127009964209890033020000006435702143622821818_);}
	.st105{fill:none;stroke:#4F4C4D;stroke-width:0.8884;stroke-linecap:round;stroke-linejoin:round;stroke-miterlimit:10;}
	.st106{fill:none;stroke:#4F4C4D;stroke-width:0.8448;stroke-linecap:round;stroke-linejoin:round;stroke-miterlimit:10;}
	.st107{fill:none;stroke:#4F4C4D;stroke-width:0.9746;stroke-linecap:round;stroke-linejoin:round;stroke-miterlimit:10;}
	.st108{fill:none;stroke:#4F4C4D;stroke-width:0.8608;stroke-linecap:round;stroke-linejoin:round;stroke-miterlimit:10;}
	
		.st109{fill:none;stroke:#4F4C4D;stroke-width:0.8608;stroke-linecap:round;stroke-linejoin:round;stroke-miterlimit:10;stroke-dasharray:1.0632;}
	.st110{fill:none;stroke:#4F4C4D;stroke-width:0.9757;stroke-linecap:round;stroke-linejoin:round;stroke-miterlimit:10;}
	.st111{fill:none;stroke:#4F4C4D;stroke-width:1.1046;stroke-linecap:round;stroke-linejoin:round;stroke-miterlimit:10;}
	.st112{fill:none;stroke:#4F4C4D;stroke-width:1.0333;stroke-linecap:round;stroke-linejoin:round;stroke-miterlimit:10;}
	
		.st113{fill:none;stroke:#4F4C4D;stroke-width:1.0333;stroke-linecap:round;stroke-linejoin:round;stroke-miterlimit:10;stroke-dasharray:1.2;}
	.st114{fill:none;stroke:#4F4C4D;stroke-linecap:round;stroke-linejoin:round;stroke-miterlimit:10;}
	.st115{fill:none;stroke:#4F4C4D;stroke-linecap:round;stroke-linejoin:round;stroke-miterlimit:10;stroke-dasharray:1.0878;}
</style>
<g>
	<g>
		<path class="st0" d="M27.36,60.49L2.69,46.25V17.76L27.36,3.52l24.67,14.24v28.48L27.36,60.49z M4.53,45.18l22.83,13.18
			l22.83-13.18V18.83L27.36,5.65L4.53,18.83V45.18z"/>
	</g>
</g>
<g>
	<g>
		<path class="st0" d="M30.94,40.96c1,0.81,1.53,1.53,1.43,1.89c-0.06,0.2-0.13,0.23-0.15,0.25c-0.49,0.24-2.08-0.3-3.64-0.83
			c-0.45-0.16-0.88-0.31-1.31-0.46c-2.1-0.74-3.91-1.39-6.53-1.6c-0.47-0.04-0.89,0.32-0.93,0.79c-0.04,0.47,0.32,0.89,0.79,0.93
			c2.39,0.19,4.11,0.8,6.09,1.51l0.18,0.06c0.37,0.13,0.75,0.26,1.14,0.4c1.6,0.55,2.87,0.98,3.86,0.98c0.43,0,0.8-0.08,1.12-0.25
			c0.49-0.25,0.83-0.68,1.01-1.28c0.48-1.6-1.25-3.34-3.37-4.7l0.34,0.08c0.18,0,0.36-0.06,0.51-0.17c0.43-0.31,0.84-0.62,1.22-0.92
			l0.11-0.09c1.42-1.08,2.64-2.02,3.56-2.1c0.21-0.02,0.34-0.01,0.43,0c-1.27,0.63-2.62,1.49-3.95,2.34l-0.7,0.45
			c-0.19,0.12-0.33,0.31-0.38,0.54c-0.05,0.22-0.01,0.46,0.11,0.65c0.16,0.25,0.43,0.4,0.73,0.4c0.17,0,0.32-0.05,0.46-0.13
			l0.7-0.45c2.21-1.41,4.71-3.02,6.15-3.02c0.6,0,0.76,0.14,0.77,0.15c0.13,0.14,0.29,0.21,0.46,0.24c-1.51,0.6-3.22,1.48-5.04,2.45
			c-0.7,0.37-1.4,0.74-2.08,1.08c-0.42,0.21-0.59,0.73-0.38,1.16c0.1,0.21,0.28,0.36,0.5,0.43c0.22,0.07,0.45,0.05,0.66-0.05
			c0.69-0.35,1.39-0.72,2.1-1.1c2.75-1.45,6.92-3.63,7.86-2.86l0.13,0.16c-0.11,1.18-5.63,4.22-8.29,5.68
			c-5.64,3.1-8.38,3.78-9.69,3.78l-0.1,0c-1.81-0.05-3.34-0.47-5.45-1.49c-0.76-0.37-1.43-0.71-2.05-1.04l-0.33-0.18
			c-1.8-0.94-4.14-1.24-6.19-1.4c-0.47-0.05-0.89,0.32-0.93,0.79c-0.02,0.23,0.05,0.45,0.2,0.63c0.15,0.17,0.36,0.28,0.59,0.3
			c1.87,0.15,3.99,0.41,5.51,1.2l0.2,0.11l0.05,0.02l0.06,0.04c0.65,0.35,1.35,0.7,2.14,1.09c2.32,1.12,4.1,1.6,6.15,1.66l0.14,0
			c2.17,0,5.71-1.34,10.53-3.99c6.21-3.41,9.01-5.24,9.17-7.03c0.04-0.44-0.06-1.08-0.75-1.64c-0.9-0.74-2.23-0.64-3.86-0.1
			c0.24-0.33,0.24-0.78-0.04-1.08c-0.42-0.46-1.13-0.71-2.05-0.71c-0.63,0-1.33,0.19-2.08,0.49l0.08-0.17
			c0.05-0.23,0.01-0.46-0.11-0.65c-0.12-0.2-0.31-0.33-0.54-0.38c-0.31-0.07-0.66-0.08-1.05-0.06c-0.76,0.06-1.5,0.4-2.29,0.89
			l0.01-0.01c0.04-0.23,0-0.46-0.14-0.64c-0.13-0.19-0.32-0.32-0.55-0.36c-0.31-0.06-0.65-0.06-1.03,0c-1,0.15-1.57,0.68-2.36,1.42
			l0.1,0.12l-0.12-0.1c-0.35,0.32-0.74,0.69-1.25,1.11c-0.37,0.3-0.42,0.84-0.13,1.21c0.17,0.2,0.41,0.32,0.67,0.32
			c0.2,0,0.39-0.07,0.54-0.19c0.57-0.47,1.01-0.88,1.36-1.21c0.68-0.64,0.98-0.91,1.43-0.97c0.23-0.04,0.38-0.03,0.46-0.01h0
			c-0.38,0.27-0.77,0.57-1.18,0.89l-0.15,0.12c-0.37,0.28-0.75,0.57-1.16,0.87c-0.19,0.13-0.31,0.33-0.34,0.56
			c-0.04,0.23,0.02,0.45,0.16,0.64l0.21,0.18c-1.04-0.65-2.17-1.21-3.16-1.61c-0.95-0.38-1.8-0.93-2.64-1.47
			c-1.3-0.83-2.52-1.62-4.04-1.82c-2.05-0.27-3.92,0.23-5.32,0.68c-1.01,0.33-1.92,0.59-2.77,0.79c-0.23,0.05-0.42,0.19-0.54,0.38
			c-0.12,0.19-0.16,0.42-0.11,0.65c0.1,0.46,0.56,0.75,1.03,0.65h0c0.9-0.21,1.86-0.48,2.93-0.83c1.3-0.43,2.86-0.83,4.55-0.62
			c1.14,0.15,2.2,0.83,3.34,1.57c0.9,0.58,1.82,1.18,2.92,1.62C28.47,39.25,29.94,40.15,30.94,40.96"/>
		<path class="st0" d="M26.62,32.13c3.43,0,6.22-2.79,6.22-6.22c0-6.03-5.44-10.56-5.68-10.76c-0.32-0.26-0.77-0.25-1.09,0
			c-0.23,0.19-5.67,4.72-5.67,10.75C20.41,29.35,23.2,32.13,26.62,32.13 M22.12,25.92c0-4.21,3.31-7.79,4.5-8.93
			c1.19,1.14,4.5,4.72,4.5,8.93c0,2.48-2.02,4.5-4.5,4.5C24.14,30.42,22.12,28.4,22.12,25.92"/>
		<path class="st0" d="M28.34,28.57c0.24,0,0.47-0.1,0.63-0.28c0.69-0.75,1.06-1.72,1.06-2.73c0-0.47-0.39-0.86-0.86-0.86
			c-0.48,0-0.86,0.39-0.86,0.86c0,0.58-0.22,1.14-0.61,1.56c-0.16,0.17-0.24,0.39-0.23,0.62c0.01,0.23,0.11,0.44,0.28,0.6
			C27.92,28.49,28.13,28.57,28.34,28.57"/>
	</g>
</g>
</svg>
