<?xml version="1.0" encoding="utf-8"?>
<!-- Generator: Adobe Illustrator 27.2.0, SVG Export Plug-In . SVG Version: 6.00 Build 0)  -->
<svg version="1.1" id="Layer_1" xmlns="http://www.w3.org/2000/svg" xmlns:xlink="http://www.w3.org/1999/xlink" x="0px" y="0px"
	 viewBox="0 0 54.72 63.62" style="enable-background:new 0 0 54.72 63.62;" xml:space="preserve">
<style type="text/css">
	.st0{fill:#4F4C4D;}
	.st1{fill:url(#SVGID_1_);}
	.st2{fill:url(#SVGID_00000127755513753634696710000016537711052930728085_);}
	
		.st3{clip-path:url(#SVGID_00000124151986158782989630000005363338558485748927_);fill:url(#SVGID_00000045606991332088240610000008126036082192695737_);}
	
		.st4{clip-path:url(#SVGID_00000124151986158782989630000005363338558485748927_);fill:url(#SVGID_00000101083226535780407790000014282688257030560154_);}
	
		.st5{clip-path:url(#SVGID_00000124151986158782989630000005363338558485748927_);fill:url(#SVGID_00000119838807634076706250000014372338372201653689_);}
	
		.st6{clip-path:url(#SVGID_00000124151986158782989630000005363338558485748927_);fill:url(#SVGID_00000166653405492659132240000011153930465607824282_);}
	
		.st7{clip-path:url(#SVGID_00000124151986158782989630000005363338558485748927_);fill:url(#SVGID_00000062881470751451261820000011484905204357673889_);}
	
		.st8{clip-path:url(#SVGID_00000124151986158782989630000005363338558485748927_);fill:url(#SVGID_00000145047768637050418410000008413116146481366448_);}
	
		.st9{clip-path:url(#SVGID_00000124151986158782989630000005363338558485748927_);fill:url(#SVGID_00000161616328778935532750000005175797312669732797_);}
	
		.st10{clip-path:url(#SVGID_00000124151986158782989630000005363338558485748927_);fill:url(#SVGID_00000057827219595985465820000004432722622623574456_);}
	
		.st11{clip-path:url(#SVGID_00000124151986158782989630000005363338558485748927_);fill:url(#SVGID_00000017500351651155404050000012213058265962707639_);}
	
		.st12{clip-path:url(#SVGID_00000124151986158782989630000005363338558485748927_);fill:url(#SVGID_00000072988142671587831890000013441109039699408011_);}
	
		.st13{clip-path:url(#SVGID_00000124151986158782989630000005363338558485748927_);fill:url(#SVGID_00000066484314193049983870000018263870532467272596_);}
	
		.st14{clip-path:url(#SVGID_00000124151986158782989630000005363338558485748927_);fill:url(#SVGID_00000019643402422229843920000011297973472664715662_);}
	
		.st15{clip-path:url(#SVGID_00000124151986158782989630000005363338558485748927_);fill:url(#SVGID_00000041257415475254936870000004754210974912362658_);}
	
		.st16{clip-path:url(#SVGID_00000124151986158782989630000005363338558485748927_);fill:url(#SVGID_00000106864586415417200570000011231724669875970975_);}
	
		.st17{clip-path:url(#SVGID_00000124151986158782989630000005363338558485748927_);fill:url(#SVGID_00000122683886489383962740000016323118467523773836_);}
	
		.st18{clip-path:url(#SVGID_00000124151986158782989630000005363338558485748927_);fill:url(#SVGID_00000183938968217970263390000002670040214136379012_);}
	.st19{clip-path:url(#SVGID_00000124151986158782989630000005363338558485748927_);}
	.st20{fill:url(#SVGID_00000146492872658023490220000002518281935487739811_);}
	.st21{fill:url(#SVGID_00000021115633740051373580000010382563419453643701_);}
	.st22{fill:url(#SVGID_00000147220514353310364770000009785773134146391478_);}
	.st23{fill:url(#SVGID_00000087375420747315576420000000877450932824268421_);}
	
		.st24{clip-path:url(#SVGID_00000124151986158782989630000005363338558485748927_);fill:url(#SVGID_00000052090450250173854340000012604140104889201061_);}
	
		.st25{clip-path:url(#SVGID_00000124151986158782989630000005363338558485748927_);fill:url(#SVGID_00000147909981632153855500000014134666746919887508_);}
	
		.st26{clip-path:url(#SVGID_00000124151986158782989630000005363338558485748927_);fill:url(#SVGID_00000043420863959438439520000006317242158691645096_);}
	
		.st27{clip-path:url(#SVGID_00000124151986158782989630000005363338558485748927_);fill:url(#SVGID_00000093856294679829637350000001544092850534003849_);}
	
		.st28{clip-path:url(#SVGID_00000124151986158782989630000005363338558485748927_);fill:url(#SVGID_00000005979071603652852180000009771546142769691266_);}
	
		.st29{clip-path:url(#SVGID_00000124151986158782989630000005363338558485748927_);fill:url(#SVGID_00000150083810610445435980000009184104100211986088_);}
	
		.st30{clip-path:url(#SVGID_00000124151986158782989630000005363338558485748927_);fill:url(#SVGID_00000131355697688506334900000003380057374113436808_);}
	
		.st31{clip-path:url(#SVGID_00000124151986158782989630000005363338558485748927_);fill:url(#SVGID_00000093896268110180224560000013117400863932691861_);}
	
		.st32{clip-path:url(#SVGID_00000124151986158782989630000005363338558485748927_);fill:url(#SVGID_00000180347596699156095120000007633479501826637954_);}
	
		.st33{clip-path:url(#SVGID_00000124151986158782989630000005363338558485748927_);fill:url(#SVGID_00000101817045718952299280000003295095924178152852_);}
	
		.st34{clip-path:url(#SVGID_00000124151986158782989630000005363338558485748927_);fill:url(#SVGID_00000183956140326112189370000010135582913273861529_);}
	
		.st35{clip-path:url(#SVGID_00000124151986158782989630000005363338558485748927_);fill:url(#SVGID_00000042018371006463565400000017126681447986176935_);}
	
		.st36{clip-path:url(#SVGID_00000124151986158782989630000005363338558485748927_);fill:url(#SVGID_00000054960811443783024230000006687677998124832680_);}
	
		.st37{clip-path:url(#SVGID_00000124151986158782989630000005363338558485748927_);fill:url(#SVGID_00000086679807257642414430000012847936462001088432_);}
	
		.st38{clip-path:url(#SVGID_00000124151986158782989630000005363338558485748927_);fill:url(#SVGID_00000000204574787379573210000011830084431943063477_);}
	
		.st39{clip-path:url(#SVGID_00000124151986158782989630000005363338558485748927_);fill:url(#SVGID_00000073693273605809919340000014032915630178492041_);}
	.st40{fill:url(#SVGID_00000053515953174585584300000008373551539929857464_);}
	.st41{fill:url(#SVGID_00000103947880522375442490000005758621135485710475_);}
	.st42{fill:url(#SVGID_00000137830297517881588290000009684132245135804584_);}
	.st43{fill:url(#SVGID_00000049942764831557346010000012252926637118092215_);}
	
		.st44{clip-path:url(#SVGID_00000124151986158782989630000005363338558485748927_);fill:url(#SVGID_00000120552681180951009590000016758922182473463457_);}
	
		.st45{clip-path:url(#SVGID_00000124151986158782989630000005363338558485748927_);fill:url(#SVGID_00000090280418587568751370000010574010609829246647_);}
	
		.st46{clip-path:url(#SVGID_00000124151986158782989630000005363338558485748927_);fill:url(#SVGID_00000043414714742091064880000015628206725816403371_);}
	
		.st47{clip-path:url(#SVGID_00000124151986158782989630000005363338558485748927_);fill:url(#SVGID_00000129170570011096213650000000452522457419352201_);}
	
		.st48{clip-path:url(#SVGID_00000124151986158782989630000005363338558485748927_);fill:url(#SVGID_00000170963100936433949640000006347152599735527595_);}
	
		.st49{clip-path:url(#SVGID_00000124151986158782989630000005363338558485748927_);fill:url(#SVGID_00000083775701759560534860000016496401224465853065_);}
	
		.st50{clip-path:url(#SVGID_00000124151986158782989630000005363338558485748927_);fill:url(#SVGID_00000167369855819975276870000005793617276597706645_);}
	
		.st51{clip-path:url(#SVGID_00000124151986158782989630000005363338558485748927_);fill:url(#SVGID_00000034805994473349990060000008573102749958812292_);}
	
		.st52{clip-path:url(#SVGID_00000124151986158782989630000005363338558485748927_);fill:url(#SVGID_00000152969616789279892190000008593111101202841007_);}
	
		.st53{clip-path:url(#SVGID_00000124151986158782989630000005363338558485748927_);fill:url(#SVGID_00000046320341094290597320000009069643633473752726_);}
	
		.st54{clip-path:url(#SVGID_00000124151986158782989630000005363338558485748927_);fill:url(#SVGID_00000152960429368522034700000015924555585663834261_);}
	
		.st55{clip-path:url(#SVGID_00000124151986158782989630000005363338558485748927_);fill:url(#SVGID_00000098198273700769866950000008372686001710170302_);}
	
		.st56{clip-path:url(#SVGID_00000124151986158782989630000005363338558485748927_);fill:url(#SVGID_00000093873496389697406910000001830307663227431613_);}
	
		.st57{clip-path:url(#SVGID_00000124151986158782989630000005363338558485748927_);fill:url(#SVGID_00000019642889438430401160000010494556235558104235_);}
	
		.st58{clip-path:url(#SVGID_00000124151986158782989630000005363338558485748927_);fill:url(#SVGID_00000098919760248137629840000010835861146356604337_);}
	
		.st59{clip-path:url(#SVGID_00000124151986158782989630000005363338558485748927_);fill:url(#SVGID_00000001655137275279301440000017935641512232223138_);}
	.st60{fill:url(#SVGID_00000015317058930304173980000003287462925778920122_);}
	.st61{fill:url(#SVGID_00000055702214481035027600000012806713820031613373_);}
	.st62{fill:url(#SVGID_00000010310133590883313670000000827251824288836749_);}
	.st63{fill:url(#SVGID_00000098215445286702283680000005330460719190053531_);}
	
		.st64{clip-path:url(#SVGID_00000124151986158782989630000005363338558485748927_);fill:url(#SVGID_00000183234695208367801880000008687973040597754526_);}
	
		.st65{clip-path:url(#SVGID_00000124151986158782989630000005363338558485748927_);fill:url(#SVGID_00000136408753078907921830000003135465129434363811_);}
	
		.st66{clip-path:url(#SVGID_00000124151986158782989630000005363338558485748927_);fill:url(#SVGID_00000121254639907763814760000006935616869744284040_);}
	
		.st67{clip-path:url(#SVGID_00000124151986158782989630000005363338558485748927_);fill:url(#SVGID_00000045595366097804703130000013057641783656491142_);}
	
		.st68{clip-path:url(#SVGID_00000124151986158782989630000005363338558485748927_);fill:url(#SVGID_00000142143687582153864570000006346882061141624483_);}
	
		.st69{clip-path:url(#SVGID_00000124151986158782989630000005363338558485748927_);fill:url(#SVGID_00000065060540951481914200000015141501173229588646_);}
	
		.st70{clip-path:url(#SVGID_00000124151986158782989630000005363338558485748927_);fill:url(#SVGID_00000095319008603025521290000018291452062732472210_);}
	
		.st71{clip-path:url(#SVGID_00000124151986158782989630000005363338558485748927_);fill:url(#SVGID_00000023272742158044710000000004356560240815673790_);}
	
		.st72{clip-path:url(#SVGID_00000124151986158782989630000005363338558485748927_);fill:url(#SVGID_00000106854171032779911190000001913249530873275562_);}
	
		.st73{clip-path:url(#SVGID_00000124151986158782989630000005363338558485748927_);fill:url(#SVGID_00000005252304122071901570000001803520192092485015_);}
	
		.st74{clip-path:url(#SVGID_00000124151986158782989630000005363338558485748927_);fill:url(#SVGID_00000025420880409302263440000015329302202748596409_);}
	
		.st75{clip-path:url(#SVGID_00000124151986158782989630000005363338558485748927_);fill:url(#SVGID_00000000925194159680964870000012277252175771127981_);}
	
		.st76{clip-path:url(#SVGID_00000124151986158782989630000005363338558485748927_);fill:url(#SVGID_00000036973237470067923100000013537123698707460002_);}
	
		.st77{clip-path:url(#SVGID_00000124151986158782989630000005363338558485748927_);fill:url(#SVGID_00000178182430021983664710000007453958139462151054_);}
	
		.st78{clip-path:url(#SVGID_00000124151986158782989630000005363338558485748927_);fill:url(#SVGID_00000003814253962744735230000002557229956271853956_);}
	
		.st79{clip-path:url(#SVGID_00000124151986158782989630000005363338558485748927_);fill:url(#SVGID_00000181773077435059560820000017363354800700353706_);}
	.st80{fill:url(#SVGID_00000082336064300372366880000004469899539564603268_);}
	.st81{fill:url(#SVGID_00000111875913526453892810000017280616123025895297_);}
	.st82{fill:url(#SVGID_00000146490852824229238090000005345094383960364221_);}
	.st83{fill:url(#SVGID_00000001652568443527121260000000707826112775815089_);}
	.st84{fill:url(#SVGID_00000006665706090022503530000000822485906976393391_);}
	.st85{fill:url(#SVGID_00000096743372988943815120000016285022792316052141_);}
	.st86{fill:url(#SVGID_00000101813480952979670430000009617275566183819916_);}
	.st87{fill:url(#SVGID_00000157266239908689338150000008286379674447831180_);}
	.st88{fill:url(#SVGID_00000124145601389027616040000000742697767528644254_);}
	.st89{fill:url(#SVGID_00000153684430129771611060000005690553712656188544_);}
	.st90{clip-path:url(#SVGID_00000142897692970143200500000004914999740352736921_);}
	.st91{fill:url(#SVGID_00000096758965104059903370000006280397560661940875_);}
	.st92{fill:url(#SVGID_00000072264515223838014640000002671542771723664027_);}
	.st93{fill:url(#SVGID_00000113327511532197350110000006462164201089091999_);}
	.st94{fill:url(#SVGID_00000183231488955515401540000018314654471275928713_);}
	.st95{fill:url(#SVGID_00000057863152513147589010000009709356846634925203_);}
	.st96{fill:url(#SVGID_00000077313497098694254690000013288565555701199287_);}
	.st97{fill:url(#SVGID_00000134943508045073809620000017548390002672594828_);}
	.st98{fill:none;stroke:#666364;stroke-miterlimit:10;}
	.st99{fill:#666364;}
	.st100{fill:#FFFFFF;}
	.st101{fill:#C1C0C1;}
	.st102{fill:none;stroke:#4F4C4D;stroke-width:0.0179;stroke-miterlimit:10;}
	.st103{fill:#D5D4D5;}
	.st104{clip-path:url(#SVGID_00000165918170617288572770000003536624490747788933_);}
	.st105{fill:none;stroke:#4F4C4D;stroke-width:0.8884;stroke-linecap:round;stroke-linejoin:round;stroke-miterlimit:10;}
	.st106{fill:none;stroke:#4F4C4D;stroke-width:0.8448;stroke-linecap:round;stroke-linejoin:round;stroke-miterlimit:10;}
	.st107{fill:none;stroke:#4F4C4D;stroke-width:0.9746;stroke-linecap:round;stroke-linejoin:round;stroke-miterlimit:10;}
	.st108{fill:none;stroke:#4F4C4D;stroke-width:0.8608;stroke-linecap:round;stroke-linejoin:round;stroke-miterlimit:10;}
	
		.st109{fill:none;stroke:#4F4C4D;stroke-width:0.8608;stroke-linecap:round;stroke-linejoin:round;stroke-miterlimit:10;stroke-dasharray:1.0632;}
	.st110{fill:none;stroke:#4F4C4D;stroke-width:0.9757;stroke-linecap:round;stroke-linejoin:round;stroke-miterlimit:10;}
	.st111{fill:none;stroke:#4F4C4D;stroke-width:1.1046;stroke-linecap:round;stroke-linejoin:round;stroke-miterlimit:10;}
	.st112{fill:none;stroke:#4F4C4D;stroke-width:1.0333;stroke-linecap:round;stroke-linejoin:round;stroke-miterlimit:10;}
	
		.st113{fill:none;stroke:#4F4C4D;stroke-width:1.0333;stroke-linecap:round;stroke-linejoin:round;stroke-miterlimit:10;stroke-dasharray:1.2;}
	.st114{fill:none;stroke:#4F4C4D;stroke-linecap:round;stroke-linejoin:round;stroke-miterlimit:10;}
	.st115{fill:none;stroke:#4F4C4D;stroke-linecap:round;stroke-linejoin:round;stroke-miterlimit:10;stroke-dasharray:1.0878;}
</style>
<g>
	<g>
		<path class="st0" d="M27.36,60.49L2.69,46.25V17.76L27.36,3.52l24.67,14.24v28.48L27.36,60.49z M4.53,45.18l22.83,13.18
			l22.83-13.18V18.83L27.36,5.65L4.53,18.83V45.18z"/>
	</g>
</g>
<g>
	<path class="st0" d="M22.06,22.92c-0.27,0.1-0.54,0.2-0.81,0.3c-0.1-0.03-0.19-0.06-0.29-0.08c-0.12-0.02-0.23-0.04-0.35-0.07
		c-0.16-0.17-0.38-0.06-0.57-0.12C20.71,22.73,21.38,22.25,22.06,22.92"/>
	<path class="st0" d="M13.32,22.45c0.01,0.22-0.12,0.31-0.23,0.27c-0.3-0.1-0.67-0.06-0.87-0.37c-0.08-0.13,0.06-0.27,0.19-0.25
		C12.74,22.16,13.1,22.19,13.32,22.45"/>
	<path class="st0" d="M10.15,21.74c0.1-0.26,0.29-0.18,0.45-0.14c0.25,0.07,0.62,0.04,0.64,0.39c0.01,0.22-0.27,0.2-0.43,0.13
		C10.59,22.02,10.26,22.05,10.15,21.74"/>
	<path class="st0" d="M5.24,22.94c-0.03-0.01-0.04-0.03-0.03-0.07l0.06,0.02L5.24,22.94z"/>
	<path class="st0" d="M9.6,35.48c-0.22,0.27-0.53,0.45-0.9,0.54c-0.13,0.03-0.17-0.12-0.13-0.2c0.2-0.34,0.52-0.52,0.89-0.59
		C9.56,35.21,9.63,35.32,9.6,35.48"/>
	<path class="st0" d="M19.4,24.73c0.08,0.14,0.16,0.28,0.1,0.45c-0.34-0.23-0.65,0.19-1,0.05c-0.18-0.08-0.46-0.01-0.42-0.31
		c0.03-0.24,0.27-0.16,0.44-0.16C18.82,24.74,19.12,24.93,19.4,24.73"/>
	<path class="st0" d="M13.26,33.14c-0.16,0.33-0.51,0.43-0.81,0.6c-0.1,0.05-0.24,0-0.21-0.12c0.09-0.41,0.49-0.46,0.78-0.62
		C13.11,32.94,13.23,32.98,13.26,33.14"/>
	<path class="st0" d="M17.11,24.83c-0.11,0.08-0.17,0.16-0.23,0.15c-0.31-0.01-0.66,0.1-0.91-0.17c-0.07-0.08-0.01-0.21,0.1-0.23
		C16.43,24.53,16.79,24.53,17.11,24.83"/>
	<path class="st0" d="M10,30c-0.18,0.03-0.39,0-0.31-0.19c0.14-0.34,0.53-0.3,0.83-0.4c0.13-0.04,0.31,0.04,0.27,0.16
		C10.67,29.96,10.27,29.9,10,30"/>
	<path class="st0" d="M14.88,28.27c0.01,0.07,0.02,0.1,0.01,0.12c-0.26,0.32-0.61,0.39-0.99,0.35c-0.03,0-0.08-0.17-0.07-0.18
		C14.15,28.32,14.48,28.16,14.88,28.27"/>
	<path class="st0" d="M12.69,31.34c-0.47,0.58-0.5,0.6-1.18,0.61C11.79,31.54,12.13,31.38,12.69,31.34"/>
	<path class="st0" d="M16.47,29.59c-0.22,0.28-0.53,0.44-0.88,0.52c-0.13,0.03-0.29-0.07-0.19-0.22c0.2-0.31,0.55-0.41,0.88-0.51
		C16.37,29.35,16.44,29.47,16.47,29.59"/>
	<path class="st0" d="M5.16,38.26C5,38.27,4.9,38.18,4.93,38.09c0.14-0.39,0.51-0.5,0.86-0.61c0.1-0.03,0.2,0.09,0.15,0.19
		C5.78,38.01,5.44,38.12,5.16,38.26"/>
	<path class="st0" d="M10.13,24.37c-0.2-0.08-0.59,0.1-0.57-0.28c0.01-0.24,0.32-0.17,0.51-0.14c0.21,0.03,0.54-0.04,0.54,0.26
		C10.61,24.5,10.32,24.37,10.13,24.37"/>
	<path class="st0" d="M14.54,30.51c-0.14,0.38-0.53,0.41-0.83,0.56c-0.13,0.07-0.27-0.05-0.22-0.19c0.13-0.33,0.49-0.39,0.76-0.54
		C14.4,30.28,14.49,30.37,14.54,30.51"/>
	<path class="st0" d="M19.5,28.13c-0.15,0.02-0.29-0.03-0.25-0.13c0.14-0.37,0.53-0.42,0.83-0.55c0.1-0.04,0.21,0.09,0.18,0.18
		C20.11,27.97,19.74,27.98,19.5,28.13"/>
	<path class="st0" d="M19,27.17c-0.19,0.33-0.55,0.3-0.85,0.39c-0.15,0.04-0.29-0.11-0.22-0.21c0.18-0.25,0.51-0.27,0.79-0.36
		C18.85,26.95,18.96,27.01,19,27.17"/>
	<path class="st0" d="M16.6,27.61c0.16-0.01,0.35-0.01,0.33,0.12c-0.05,0.4-0.45,0.31-0.7,0.41c-0.13,0.05-0.38,0.06-0.34-0.13
		C15.98,27.66,16.38,27.74,16.6,27.61"/>
	<path class="st0" d="M16.88,30.92c-0.13,0.3-0.47,0.38-0.74,0.54c-0.12,0.07-0.3-0.02-0.24-0.16c0.14-0.32,0.47-0.43,0.76-0.56
		C16.75,30.7,16.86,30.74,16.88,30.92"/>
	<path class="st0" d="M9.62,32.98c0.05-0.15,0.05-0.22,0.08-0.24c0.3-0.16,0.53-0.48,0.93-0.38c0.03,0.01,0.06,0.17,0.04,0.18
		C10.37,32.76,10.1,33.04,9.62,32.98"/>
	<path class="st0" d="M11.41,34.34c-0.22,0.25-0.48,0.47-0.84,0.52c-0.12,0.02-0.19-0.12-0.14-0.2c0.19-0.31,0.48-0.49,0.84-0.54
		C11.38,34.09,11.43,34.2,11.41,34.34"/>
	<path class="st0" d="M12.31,24.62c-0.2-0.11-0.61,0.13-0.63-0.31c-0.01-0.23,0.27-0.19,0.43-0.16c0.24,0.04,0.63-0.11,0.65,0.3
		C12.77,24.68,12.49,24.6,12.31,24.62"/>
	<path class="st0" d="M7.97,24.19c-0.21-0.07-0.58,0.1-0.56-0.3c0.02-0.28,0.32-0.17,0.5-0.16c0.23,0.01,0.59-0.05,0.57,0.3
		C8.46,24.3,8.15,24.15,7.97,24.19"/>
	<path class="st0" d="M14.43,24.81c-0.26-0.06-0.62,0.06-0.6-0.31c0.01-0.26,0.32-0.18,0.5-0.16c0.22,0.03,0.59-0.06,0.57,0.31
		C14.87,24.93,14.55,24.73,14.43,24.81"/>
	<path class="st0" d="M16.73,26.58c-0.23-0.01-0.5,0.04-0.45-0.2c0.06-0.32,0.41-0.22,0.64-0.26c0.18-0.03,0.44-0.03,0.42,0.19
		C17.3,26.74,16.88,26.43,16.73,26.58"/>
	<path class="st0" d="M8.4,27.34c-0.23-0.01-0.5,0.04-0.45-0.2c0.06-0.32,0.41-0.22,0.64-0.26c0.17-0.03,0.44-0.03,0.42,0.19
		C8.97,27.51,8.55,27.2,8.4,27.34"/>
	<path class="st0" d="M18.51,26.35c-0.23-0.01-0.5,0.04-0.45-0.2c0.06-0.32,0.41-0.22,0.64-0.26c0.17-0.03,0.44-0.03,0.42,0.19
		C19.08,26.52,18.66,26.21,18.51,26.35"/>
	<path class="st0" d="M14.07,32.42c0.14-0.31,0.47-0.4,0.75-0.55c0.13-0.07,0.29,0.04,0.22,0.17c-0.15,0.3-0.48,0.43-0.77,0.56
		C14.18,32.64,14.09,32.57,14.07,32.42"/>
	<path class="st0" d="M18.11,28.41c0.11,0.04,0.26,0.03,0.22,0.17c-0.12,0.39-0.53,0.41-0.83,0.56c-0.08,0.04-0.23-0.05-0.2-0.16
		C17.42,28.59,17.83,28.58,18.11,28.41"/>
	<path class="st0" d="M20.52,28.34c0,0.15,0.01,0.3,0.01,0.45c-0.34,0.07-0.72,0.65-0.93,0.32c-0.19-0.31,0.47-0.42,0.72-0.67
		C20.37,28.4,20.45,28.37,20.52,28.34"/>
	<path class="st0" d="M17.07,23.78c-0.23-0.11-0.62-0.02-0.66-0.38c-0.02-0.21,0.24-0.16,0.35-0.12c0.24,0.09,0.61,0.04,0.66,0.38
		C17.45,23.84,17.22,23.82,17.07,23.78"/>
	<path class="st0" d="M7.48,36.37c0.2,0.02,0.31,0.11,0.25,0.2C7.56,36.84,7.28,37,6.98,37.11c-0.09,0.03-0.23-0.03-0.2-0.15
		C6.9,36.59,7.3,36.57,7.48,36.37"/>
	<path class="st0" d="M18.75,29.56c-0.08,0.24-0.08,0.3-0.11,0.33c-0.25,0.2-0.48,0.44-0.83,0.46c-0.04,0-0.12-0.13-0.11-0.15
		C17.93,29.84,18.26,29.68,18.75,29.56"/>
	<path class="st0" d="M11.77,29.25c0.31-0.26,0.61-0.51,1.13-0.33C12.56,29.32,12.19,29.37,11.77,29.25"/>
	<path class="st0" d="M8.69,30.15c-0.26,0.4-0.62,0.49-1.11,0.4C7.87,30.07,8.28,30.11,8.69,30.15"/>
	<path class="st0" d="M10.26,27.1c-0.17-0.02-0.45,0.05-0.4-0.19c0.06-0.31,0.41-0.2,0.63-0.26c0.18-0.04,0.43-0.01,0.39,0.2
		C10.82,27.18,10.48,27.05,10.26,27.1"/>
	<path class="st0" d="M11.99,26.98c-0.17-0.02-0.45,0.05-0.4-0.19c0.06-0.31,0.41-0.2,0.63-0.26c0.18-0.04,0.43-0.01,0.39,0.2
		C12.56,27.05,12.21,26.92,11.99,26.98"/>
	<path class="st0" d="M13.67,26.86c-0.17-0.02-0.45,0.05-0.4-0.19c0.06-0.31,0.41-0.2,0.63-0.26c0.18-0.05,0.43-0.01,0.39,0.2
		C14.23,26.94,13.89,26.8,13.67,26.86"/>
	<path class="st0" d="M15.17,26.69c-0.17-0.02-0.45,0.05-0.4-0.19c0.06-0.31,0.41-0.2,0.63-0.26c0.18-0.05,0.43-0.01,0.39,0.2
		C15.74,26.77,15.39,26.63,15.17,26.69"/>
	<path class="st0" d="M5.52,23.99l0.02-0.43c0.1,0,0.2-0.01,0.29,0c0.2,0.03,0.53-0.04,0.49,0.28c-0.03,0.25-0.32,0.12-0.5,0.13
		C5.72,23.98,5.62,23.98,5.52,23.99"/>
	<polygon class="st0" points="20.65,28.93 20.67,28.95 20.66,28.99 20.62,28.97 	"/>
	<path class="st0" d="M23.56,25.99c0.01-0.31,0.02-0.62,0.03-0.92C23.79,25.39,23.82,25.7,23.56,25.99"/>
	<path class="st0" d="M23.45,26.27l0.06-1.51l0.17,0.26c0.24,0.38,0.23,0.73-0.04,1.04L23.45,26.27z"/>
	<path class="st0" d="M21.58,22.62L21.58,22.62L21.58,22.62z M23.08,30.04l2.4,0.06c0.14,0,0.25,0.1,0.28,0.24
		c1.35,7.06-3.73,14.27-3.94,14.57c-0.3,0.51-0.62,1.23-0.33,1.68c0.37,0.58,1.61,0.6,2.13,0.55c4-2.45,6.48-10.5,7.46-14.37
		c-0.02-0.67,0.1-1.43,0.52-2.2c0.07-0.13,0.22-0.19,0.36-0.14c0.14,0.05,0.22,0.19,0.19,0.33c-0.03,0.13-0.18,0.9-0.47,2.07
		c0.05,1.02,0.45,1.77,0.46,1.79c0.01,0.03,0.02,0.05,0.03,0.08c0.02,0.1,0.08,0.18,0.18,0.24c0.5,0.3,1.75,0.04,2.14-0.07
		c0.15-0.04,0.3,0.04,0.36,0.18c0.05,0.15-0.02,0.31-0.16,0.37c-2.07,0.92-1.7,2.05-1.7,2.06c0.01,0.03,0.02,0.07,0.02,0.1
		l-0.12,4.62c0.33,1.54,2.52,2.43,6.17,2.43h0.01c4.01,0,4.46-2.29,4.48-2.39c-0.01-1.56,0.29-3.67,0.31-3.76
		c0.09-1.46-0.6-1.66-0.63-1.67c-0.15-0.04-0.26-0.2-0.22-0.35c0.35-1.5,0.45-4.95,0.45-4.98c0-0.14,0.11-0.26,0.26-0.28
		c3.03-0.4,4.72-1.39,4.74-1.4c0.62-0.56-1.07-3.32-2.41-5c-3.91-3.78-9.3-3.6-9.35-3.59c-9.39,0.45-14.99,1.68-15.05,1.7
		c0,0-0.01,0-0.01,0c-0.9,0.16-1.51,0.48-1.74,0.92c-0.22,0.41-0.06,0.81-0.05,0.81l1.41,4.01c0.1,0.55,0.31,0.91,0.63,1.14
		C22.4,30.15,23.08,30.04,23.08,30.04 M23.2,47.74c-0.67,0-1.75-0.12-2.21-0.84c-0.36-0.56-0.25-1.35,0.33-2.32
		c0.07-0.09,5.04-7.16,3.9-13.9l-2.1-0.06c0.03,0-0.85,0.15-1.58-0.35c-0.46-0.32-0.75-0.81-0.86-1.47l-1.39-3.95
		c0-0.01-0.27-0.64,0.08-1.3c0.33-0.61,1.05-1.02,2.15-1.22c0.22-0.05,5.84-1.26,15.14-1.71c0.23-0.01,5.7-0.2,9.81,3.79
		c0.64,0.79,3.64,4.68,2.33,5.87c-0.12,0.07-1.76,1.04-4.76,1.48c-0.03,0.79-0.13,3.22-0.4,4.61c0.35,0.21,0.9,0.77,0.81,2.19
		c-0.01,0.04-0.31,2.18-0.31,3.75c-0.02,0.17-0.54,2.93-5.07,2.93h-0.01c-5.07-0.01-6.47-1.62-6.75-2.97l0.11-4.64
		c-0.06-0.23-0.19-1.09,0.76-1.94c-0.41,0.01-0.83-0.04-1.13-0.22c-0.23-0.14-0.38-0.33-0.44-0.58c-0.05-0.09-0.17-0.34-0.28-0.69
		c-1.17,4.24-3.61,11.19-7.46,13.49c-0.04,0.02-0.08,0.03-0.12,0.04C23.68,47.72,23.48,47.74,23.2,47.74"/>
	<path class="st0" d="M26.66,22.22c0.95,0.26,1.92,0.71,2.42,1.63c0.65,1.2,0.05,2.51-0.44,3.58c-0.78,1.67-1.94,2.19-3.62,2.62
		c-0.37,0.09-0.21,0.66,0.16,0.57c2.58-0.65,3.92-1.9,4.61-4.54c0.59-2.25-0.85-3.85-2.97-4.42C26.44,21.55,26.29,22.12,26.66,22.22
		"/>
	<path class="st0" d="M30.36,23.76c3.75-0.32,9.26-1.98,12.7,0.12c0.32,0.2,0.62-0.31,0.3-0.51c-3.63-2.21-9.06-0.54-13-0.2
		C29.98,23.21,29.98,23.79,30.36,23.76"/>
	<path class="st0" d="M28.91,26.84c0.2,2.25-0.28,2.8,1.76,3.73c1.52,0.69,3.05,1.19,4.45,2.14c1.9,1.29,2.63,2.94,3.13,5.13
		c0.09,0.37,0.65,0.21,0.57-0.16c-0.66-2.91-1.73-4.55-4.35-6.07c-1.3-0.76-3.11-1.12-4.25-2.09c-0.84-0.72-0.63-1.53-0.73-2.68
		C29.47,26.46,28.88,26.46,28.91,26.84"/>
	<path class="st0" d="M33.32,35.86c0.81,1.75,2.25,2.41,4.11,2.58c2.02,0.18,4.33,0.29,5.9-1.17c0.28-0.26-0.14-0.67-0.42-0.42
		c-2.23,2.06-7.8,1.48-9.09-1.28C33.67,35.22,33.17,35.51,33.32,35.86"/>
	<path class="st0" d="M33.54,38.41c1.9,2.1,5.78,2.11,8.18,0.98c0.34-0.16,0.04-0.67-0.3-0.51c-2.15,1.01-5.77,0.98-7.46-0.89
		C33.7,37.71,33.28,38.13,33.54,38.41"/>
	<path class="st0" d="M33.98,35.51c1.25,0.76,2.6,1.26,4.04,1.47c0.37,0.06,0.53-0.51,0.16-0.57c-1.4-0.21-2.7-0.67-3.9-1.42
		C33.95,34.8,33.66,35.31,33.98,35.51"/>
	<path class="st0" d="M29.52,31.67c0.37,4.6-3.07,10.34-6.11,13.63c-0.26,0.28,0.16,0.7,0.42,0.42c3.18-3.45,6.67-9.19,6.28-14.05
		C30.07,31.29,29.49,31.29,29.52,31.67"/>
	<path class="st0" d="M21.02,23.22c2.5,0.01,2.69,2.86,1.95,4.61c-0.15,0.35,0.42,0.5,0.57,0.16c0.9-2.14,0.34-5.35-2.52-5.36
		C20.64,22.64,20.64,23.22,21.02,23.22"/>
	<path class="st0" d="M23.95,23.79c0.81,0.67,0.69,1.75,0.57,2.69c-0.05,0.37,0.54,0.37,0.59,0c0.14-1.1,0.2-2.33-0.74-3.11
		C24.07,23.14,23.66,23.55,23.95,23.79"/>
	<path class="st0" d="M22.49,25.85c0.22,0.8,0.05,1.55-0.38,1.67c-0.44,0.12-0.97-0.43-1.19-1.23c-0.22-0.8-0.05-1.55,0.38-1.67
		C21.73,24.5,22.26,25.05,22.49,25.85"/>
</g>
</svg>
