<?xml version="1.0" encoding="utf-8"?>
<!-- Generator: Adobe Illustrator 27.2.0, SVG Export Plug-In . SVG Version: 6.00 Build 0)  -->
<svg version="1.1" id="Layer_1" xmlns="http://www.w3.org/2000/svg" xmlns:xlink="http://www.w3.org/1999/xlink" x="0px" y="0px"
	 viewBox="0 0 54.72 63.62" style="enable-background:new 0 0 54.72 63.62;" xml:space="preserve">
<style type="text/css">
	.st0{fill:#4F4C4D;}
	.st1{fill:url(#SVGID_1_);}
	.st2{fill:url(#SVGID_00000010287271580796010490000012355965541660928659_);}
	
		.st3{clip-path:url(#SVGID_00000103978685136101467700000005880345164523232642_);fill:url(#SVGID_00000178202145119017274070000017102979258844085694_);}
	
		.st4{clip-path:url(#SVGID_00000103978685136101467700000005880345164523232642_);fill:url(#SVGID_00000052808119142399441960000013145158318776015279_);}
	
		.st5{clip-path:url(#SVGID_00000103978685136101467700000005880345164523232642_);fill:url(#SVGID_00000136405257946842537600000007867805946669627014_);}
	
		.st6{clip-path:url(#SVGID_00000103978685136101467700000005880345164523232642_);fill:url(#SVGID_00000161604057344491568660000016876153169650787478_);}
	
		.st7{clip-path:url(#SVGID_00000103978685136101467700000005880345164523232642_);fill:url(#SVGID_00000026878946568998589350000008982781560133100205_);}
	
		.st8{clip-path:url(#SVGID_00000103978685136101467700000005880345164523232642_);fill:url(#SVGID_00000121251391986792259250000008457490146742298763_);}
	
		.st9{clip-path:url(#SVGID_00000103978685136101467700000005880345164523232642_);fill:url(#SVGID_00000067939041298284157860000009134736602248984735_);}
	
		.st10{clip-path:url(#SVGID_00000103978685136101467700000005880345164523232642_);fill:url(#SVGID_00000065772658171979139380000003964281577323123344_);}
	
		.st11{clip-path:url(#SVGID_00000103978685136101467700000005880345164523232642_);fill:url(#SVGID_00000150097639206516838670000000092509721642434729_);}
	
		.st12{clip-path:url(#SVGID_00000103978685136101467700000005880345164523232642_);fill:url(#SVGID_00000078039176131132424900000004192339954771863438_);}
	
		.st13{clip-path:url(#SVGID_00000103978685136101467700000005880345164523232642_);fill:url(#SVGID_00000045585673473926569980000007766373506048858255_);}
	
		.st14{clip-path:url(#SVGID_00000103978685136101467700000005880345164523232642_);fill:url(#SVGID_00000178885011168255474270000015652807415715174029_);}
	
		.st15{clip-path:url(#SVGID_00000103978685136101467700000005880345164523232642_);fill:url(#SVGID_00000108310046715732613780000011003895721509067680_);}
	
		.st16{clip-path:url(#SVGID_00000103978685136101467700000005880345164523232642_);fill:url(#SVGID_00000060030420312693700120000015913571572252774539_);}
	
		.st17{clip-path:url(#SVGID_00000103978685136101467700000005880345164523232642_);fill:url(#SVGID_00000180361901488030954020000002596580642024759978_);}
	
		.st18{clip-path:url(#SVGID_00000103978685136101467700000005880345164523232642_);fill:url(#SVGID_00000025435068869807642300000001383745733649325226_);}
	.st19{clip-path:url(#SVGID_00000103978685136101467700000005880345164523232642_);}
	.st20{fill:url(#SVGID_00000063602626531177405780000007085561927226644150_);}
	.st21{fill:url(#SVGID_00000070826244244346012100000001604260677191751552_);}
	.st22{fill:url(#SVGID_00000093151141737493426970000016247993908148845243_);}
	.st23{fill:url(#SVGID_00000172424640386137587060000016763641752786106285_);}
	
		.st24{clip-path:url(#SVGID_00000103978685136101467700000005880345164523232642_);fill:url(#SVGID_00000150093981395724078980000001044347552841891729_);}
	
		.st25{clip-path:url(#SVGID_00000103978685136101467700000005880345164523232642_);fill:url(#SVGID_00000182510435209068649550000006929182211319064213_);}
	
		.st26{clip-path:url(#SVGID_00000103978685136101467700000005880345164523232642_);fill:url(#SVGID_00000145019647022088518740000009975939528848303269_);}
	
		.st27{clip-path:url(#SVGID_00000103978685136101467700000005880345164523232642_);fill:url(#SVGID_00000111890098690176560170000010510103646744299165_);}
	
		.st28{clip-path:url(#SVGID_00000103978685136101467700000005880345164523232642_);fill:url(#SVGID_00000133505005921791900160000018239921046445157006_);}
	
		.st29{clip-path:url(#SVGID_00000103978685136101467700000005880345164523232642_);fill:url(#SVGID_00000085970628801350891400000008253454049036145304_);}
	
		.st30{clip-path:url(#SVGID_00000103978685136101467700000005880345164523232642_);fill:url(#SVGID_00000108289179522239579780000017157803336730602414_);}
	
		.st31{clip-path:url(#SVGID_00000103978685136101467700000005880345164523232642_);fill:url(#SVGID_00000036225676276640537020000012977097401046939302_);}
	
		.st32{clip-path:url(#SVGID_00000103978685136101467700000005880345164523232642_);fill:url(#SVGID_00000090269323463111650080000002839243430223964832_);}
	
		.st33{clip-path:url(#SVGID_00000103978685136101467700000005880345164523232642_);fill:url(#SVGID_00000018225376742528104540000011183762538275594123_);}
	
		.st34{clip-path:url(#SVGID_00000103978685136101467700000005880345164523232642_);fill:url(#SVGID_00000098908845106367816490000000407408949993418410_);}
	
		.st35{clip-path:url(#SVGID_00000103978685136101467700000005880345164523232642_);fill:url(#SVGID_00000181791225509263571510000003993813951871092155_);}
	
		.st36{clip-path:url(#SVGID_00000103978685136101467700000005880345164523232642_);fill:url(#SVGID_00000054268091347282857280000004591598046447688085_);}
	
		.st37{clip-path:url(#SVGID_00000103978685136101467700000005880345164523232642_);fill:url(#SVGID_00000070826561584745749220000013722428340995902866_);}
	
		.st38{clip-path:url(#SVGID_00000103978685136101467700000005880345164523232642_);fill:url(#SVGID_00000148634453952656890900000007831821829747733392_);}
	
		.st39{clip-path:url(#SVGID_00000103978685136101467700000005880345164523232642_);fill:url(#SVGID_00000067231894959650067950000013501260032598515351_);}
	.st40{fill:url(#SVGID_00000016049506864796186170000014813781601036620947_);}
	.st41{fill:url(#SVGID_00000118381062577777193680000010599843148985908612_);}
	.st42{fill:url(#SVGID_00000019664751826493247810000002344380146382518931_);}
	.st43{fill:url(#SVGID_00000034779575452164800990000012253011366076530854_);}
	
		.st44{clip-path:url(#SVGID_00000103978685136101467700000005880345164523232642_);fill:url(#SVGID_00000165938065455992977600000007043493019879594881_);}
	
		.st45{clip-path:url(#SVGID_00000103978685136101467700000005880345164523232642_);fill:url(#SVGID_00000098936605632535546320000014879457306070904207_);}
	
		.st46{clip-path:url(#SVGID_00000103978685136101467700000005880345164523232642_);fill:url(#SVGID_00000043452685668670537690000012126463966260326307_);}
	
		.st47{clip-path:url(#SVGID_00000103978685136101467700000005880345164523232642_);fill:url(#SVGID_00000106860040791323550530000001595523985775798177_);}
	
		.st48{clip-path:url(#SVGID_00000103978685136101467700000005880345164523232642_);fill:url(#SVGID_00000068669396116670005200000006364594407944424876_);}
	
		.st49{clip-path:url(#SVGID_00000103978685136101467700000005880345164523232642_);fill:url(#SVGID_00000066483545745456024080000012404883980692564876_);}
	
		.st50{clip-path:url(#SVGID_00000103978685136101467700000005880345164523232642_);fill:url(#SVGID_00000081609181421453899470000000040006775381469834_);}
	
		.st51{clip-path:url(#SVGID_00000103978685136101467700000005880345164523232642_);fill:url(#SVGID_00000122678275505571428730000010886726728731031708_);}
	
		.st52{clip-path:url(#SVGID_00000103978685136101467700000005880345164523232642_);fill:url(#SVGID_00000139260070501745956790000002491494271434809784_);}
	
		.st53{clip-path:url(#SVGID_00000103978685136101467700000005880345164523232642_);fill:url(#SVGID_00000053527571107980694280000007404646941827407275_);}
	
		.st54{clip-path:url(#SVGID_00000103978685136101467700000005880345164523232642_);fill:url(#SVGID_00000059301029766954252820000009738982747739504816_);}
	
		.st55{clip-path:url(#SVGID_00000103978685136101467700000005880345164523232642_);fill:url(#SVGID_00000137105911997541771140000004117462540266994314_);}
	
		.st56{clip-path:url(#SVGID_00000103978685136101467700000005880345164523232642_);fill:url(#SVGID_00000065774064448212321440000007993176210700271513_);}
	
		.st57{clip-path:url(#SVGID_00000103978685136101467700000005880345164523232642_);fill:url(#SVGID_00000096029744438735411300000004248463455428136878_);}
	
		.st58{clip-path:url(#SVGID_00000103978685136101467700000005880345164523232642_);fill:url(#SVGID_00000029753076783854696040000011523996382839146424_);}
	
		.st59{clip-path:url(#SVGID_00000103978685136101467700000005880345164523232642_);fill:url(#SVGID_00000129166294014938235390000006786378899354118056_);}
	.st60{fill:url(#SVGID_00000065791116717795324550000005203752381532517516_);}
	.st61{fill:url(#SVGID_00000139985758766241770110000015682458832305510070_);}
	.st62{fill:url(#SVGID_00000081611591461669673440000003564917329606342841_);}
	.st63{fill:url(#SVGID_00000098926281895673637220000012416939921976187023_);}
	
		.st64{clip-path:url(#SVGID_00000103978685136101467700000005880345164523232642_);fill:url(#SVGID_00000018237817945052743110000008653115708456437405_);}
	
		.st65{clip-path:url(#SVGID_00000103978685136101467700000005880345164523232642_);fill:url(#SVGID_00000068635810299272114540000003245467189962200743_);}
	
		.st66{clip-path:url(#SVGID_00000103978685136101467700000005880345164523232642_);fill:url(#SVGID_00000129904560353921503340000014157489316068553345_);}
	
		.st67{clip-path:url(#SVGID_00000103978685136101467700000005880345164523232642_);fill:url(#SVGID_00000039132935441384299240000002401475698819023039_);}
	
		.st68{clip-path:url(#SVGID_00000103978685136101467700000005880345164523232642_);fill:url(#SVGID_00000168081602229257898720000002575691573238408099_);}
	
		.st69{clip-path:url(#SVGID_00000103978685136101467700000005880345164523232642_);fill:url(#SVGID_00000020367791010665678340000014249738682584777388_);}
	
		.st70{clip-path:url(#SVGID_00000103978685136101467700000005880345164523232642_);fill:url(#SVGID_00000022542389418426276000000006254878940586341263_);}
	
		.st71{clip-path:url(#SVGID_00000103978685136101467700000005880345164523232642_);fill:url(#SVGID_00000153696162286881046430000012671826028664788363_);}
	
		.st72{clip-path:url(#SVGID_00000103978685136101467700000005880345164523232642_);fill:url(#SVGID_00000142894125007328970070000012364504826351890599_);}
	
		.st73{clip-path:url(#SVGID_00000103978685136101467700000005880345164523232642_);fill:url(#SVGID_00000037674210067736469030000014200159340547356063_);}
	
		.st74{clip-path:url(#SVGID_00000103978685136101467700000005880345164523232642_);fill:url(#SVGID_00000008114107685824527080000002859796659917985463_);}
	
		.st75{clip-path:url(#SVGID_00000103978685136101467700000005880345164523232642_);fill:url(#SVGID_00000173123071416557159620000010016198180731579807_);}
	
		.st76{clip-path:url(#SVGID_00000103978685136101467700000005880345164523232642_);fill:url(#SVGID_00000056415582544312991370000010261906648955619742_);}
	
		.st77{clip-path:url(#SVGID_00000103978685136101467700000005880345164523232642_);fill:url(#SVGID_00000030481476502741071290000006873708458041274778_);}
	
		.st78{clip-path:url(#SVGID_00000103978685136101467700000005880345164523232642_);fill:url(#SVGID_00000093866802119398998050000004928107489080631979_);}
	
		.st79{clip-path:url(#SVGID_00000103978685136101467700000005880345164523232642_);fill:url(#SVGID_00000043416057264455917100000007992030954663660696_);}
	.st80{fill:url(#SVGID_00000055692477890014324080000006071751715065774211_);}
	.st81{fill:url(#SVGID_00000146492118083094516200000016304350199325405611_);}
	.st82{fill:url(#SVGID_00000011710398048810244230000000968350701999169676_);}
	.st83{fill:url(#SVGID_00000182498479941515280260000009426222278130826396_);}
	.st84{fill:url(#SVGID_00000158738005893556192590000009859654365168983945_);}
	.st85{fill:url(#SVGID_00000026160885126269447800000014273368403899935926_);}
	.st86{fill:url(#SVGID_00000087400572676964422300000001309916742338998428_);}
	.st87{fill:url(#SVGID_00000145754060757474221600000015210606990808665991_);}
	.st88{fill:url(#SVGID_00000085218670614546869230000010497116472188546216_);}
	.st89{fill:url(#SVGID_00000042003029381800607790000015205444769531037115_);}
	.st90{clip-path:url(#SVGID_00000072239427454542855880000017460097236170552222_);}
	.st91{fill:url(#SVGID_00000091695136974798820990000010135223052993900688_);}
	.st92{fill:url(#SVGID_00000096042336873877909550000014456310014803442859_);}
	.st93{fill:url(#SVGID_00000023964859580035628670000014046351883954422698_);}
	.st94{fill:url(#SVGID_00000051373371521648095570000011663561872220639886_);}
	.st95{fill:url(#SVGID_00000034788655489815551710000017667232867687804818_);}
	.st96{fill:url(#SVGID_00000012466870875003268290000006546191622509434510_);}
	.st97{fill:url(#SVGID_00000181771721270964580060000003657681260944816556_);}
	.st98{fill:none;stroke:#666364;stroke-miterlimit:10;}
	.st99{fill:#666364;}
	.st100{fill:#FFFFFF;}
	.st101{fill:#C1C0C1;}
	.st102{fill:none;stroke:#4F4C4D;stroke-width:0.0179;stroke-miterlimit:10;}
	.st103{fill:#D5D4D5;}
	.st104{clip-path:url(#SVGID_00000031170558213163460270000001217067715620786096_);}
	.st105{fill:none;stroke:#4F4C4D;stroke-width:0.8884;stroke-linecap:round;stroke-linejoin:round;stroke-miterlimit:10;}
	.st106{fill:none;stroke:#4F4C4D;stroke-width:0.8448;stroke-linecap:round;stroke-linejoin:round;stroke-miterlimit:10;}
	.st107{fill:none;stroke:#4F4C4D;stroke-width:0.9746;stroke-linecap:round;stroke-linejoin:round;stroke-miterlimit:10;}
	.st108{fill:none;stroke:#4F4C4D;stroke-width:0.8608;stroke-linecap:round;stroke-linejoin:round;stroke-miterlimit:10;}
	
		.st109{fill:none;stroke:#4F4C4D;stroke-width:0.8608;stroke-linecap:round;stroke-linejoin:round;stroke-miterlimit:10;stroke-dasharray:1.0632;}
	.st110{fill:none;stroke:#4F4C4D;stroke-width:0.9757;stroke-linecap:round;stroke-linejoin:round;stroke-miterlimit:10;}
	.st111{fill:none;stroke:#4F4C4D;stroke-width:1.1046;stroke-linecap:round;stroke-linejoin:round;stroke-miterlimit:10;}
	.st112{fill:none;stroke:#4F4C4D;stroke-width:1.0333;stroke-linecap:round;stroke-linejoin:round;stroke-miterlimit:10;}
	
		.st113{fill:none;stroke:#4F4C4D;stroke-width:1.0333;stroke-linecap:round;stroke-linejoin:round;stroke-miterlimit:10;stroke-dasharray:1.2;}
	.st114{fill:none;stroke:#4F4C4D;stroke-linecap:round;stroke-linejoin:round;stroke-miterlimit:10;}
	.st115{fill:none;stroke:#4F4C4D;stroke-linecap:round;stroke-linejoin:round;stroke-miterlimit:10;stroke-dasharray:1.0878;}
</style>
<g>
	<g>
		<path class="st0" d="M27.36,60.49L2.69,46.25V17.76L27.36,3.52l24.67,14.24v28.48L27.36,60.49z M4.53,45.18l22.83,13.18
			l22.83-13.18V18.83L27.36,5.65L4.53,18.83V45.18z"/>
	</g>
</g>
<g>
	<g>
		<g>
			<g>
				<path class="st0" d="M43.1,23.3c0,0,0.34,3,2.58,2.96c0,0-2.53,0.57-2.49,3.12c0,0-0.08-3.08-2.58-3.04
					C40.61,26.34,43.15,26.14,43.1,23.3z"/>
			</g>
		</g>
	</g>
	<g>
		<path class="st0" d="M19.46,33.64c1.06,0,2.18,0,3.34,0c-0.37-0.71-0.22-1.43-0.18-2.15c0.11-1.97,0.24-3.94,0.36-5.91
			c0.01-0.11-0.05-0.25-0.13-0.32c-0.66-0.6-0.95-1.35-0.94-2.24c0.01-1.58,0-3.16,0-4.77c0.37,0,0.72,0,1.1,0c0,0.13,0,0.25,0,0.37
			c0,1.48,0,2.96,0,4.44c0,1.03,0.7,1.77,1.65,1.77c0.95,0,1.65-0.75,1.65-1.78c0-1.59,0-3.19,0-4.8c0.37,0,0.71,0,1.08,0
			c0.01,0.09,0.02,0.18,0.02,0.27c0,1.53,0,3.05,0,4.58c0,0.85-0.3,1.56-0.92,2.15c-0.09,0.08-0.16,0.23-0.15,0.34
			c0.13,2.26,0.28,4.51,0.39,6.76c0.02,0.42-0.07,0.85-0.12,1.29c1.08,0,2.22,0,3.35,0c0.59,0,0.78,0.2,0.74,0.8
			c-0.06,0.82-0.35,1.56-0.87,2.2c-0.07,0.08-0.13,0.16-0.19,0.24c0,0,0.01,0.02,0.02,0.06c0.13,0,0.28,0,0.42,0
			c0.44,0.01,0.65,0.22,0.63,0.67c-0.03,0.88-0.33,1.66-0.88,2.33c-0.06,0.08-0.13,0.16-0.25,0.3c0.21,0,0.36,0,0.51,0
			c0.42,0.01,0.64,0.22,0.62,0.64c-0.03,0.88-0.32,1.66-0.87,2.34c-0.07,0.09-0.14,0.17-0.27,0.32c0.21,0,0.36,0,0.52,0
			c0.42,0.01,0.62,0.23,0.62,0.65c-0.01,1.77-1.42,3.41-3.17,3.68c-0.27,0.04-0.55,0.07-0.82,0.07c-3.95,0-7.89,0.01-11.84,0
			c-2.08,0-3.63-1.33-3.96-3.37c-0.02-0.14-0.03-0.27-0.03-0.41c0-0.4,0.21-0.61,0.62-0.62c0.15,0,0.29,0,0.5,0
			c-0.09-0.11-0.14-0.19-0.2-0.26c-0.56-0.67-0.87-1.45-0.91-2.32c-0.02-0.51,0.18-0.71,0.69-0.71c0.12,0,0.25,0,0.43,0
			c-0.12-0.16-0.21-0.27-0.3-0.38c-0.5-0.64-0.78-1.37-0.82-2.18c-0.03-0.54,0.17-0.74,0.7-0.74c0.12,0,0.24,0,0.43,0
			c-0.1-0.13-0.17-0.2-0.23-0.28c-0.56-0.68-0.86-1.45-0.9-2.33c-0.02-0.49,0.18-0.7,0.67-0.7c1.22,0,2.43,0,3.65,0
			c0.13,0,0.25,0,0.38,0c-0.39-1.26-0.09-2.51-0.06-3.76c0.05-1.79,0.17-3.57,0.25-5.36c0.01-0.13-0.1-0.3-0.2-0.39
			c-1.72-1.49-1.88-4.35-0.31-6c1.33-1.4,3.34-1.34,4.58,0.15c1.43,1.71,1.21,4.4-0.47,5.87c-0.1,0.09-0.18,0.27-0.18,0.4
			c0.12,2.6,0.26,5.2,0.37,7.8C19.6,32.78,19.51,33.21,19.46,33.64z M29.54,34.78c-5.83,0-11.64,0-17.46,0
			c0.01,0.07,0.01,0.11,0.03,0.15c0.34,1.22,1.41,2.02,2.71,2.03c2.75,0,5.5,0,8.26,0c1.28,0,2.57,0.01,3.85,0
			C28.21,36.94,29.34,35.99,29.54,34.78z M12.08,38.07c0.01,0.07,0.01,0.13,0.03,0.18c0.33,1.19,1.41,2.01,2.69,2.01
			c3.3,0.01,6.6,0,9.91,0c0.76,0,1.51,0.01,2.27-0.01c1.26-0.03,2.43-1.03,2.56-2.18C23.72,38.07,17.91,38.07,12.08,38.07z
			 M29.54,41.38c-5.83,0-11.64,0-17.46,0c0.01,0.07,0.01,0.11,0.03,0.15c0.34,1.22,1.41,2.02,2.71,2.03c2.77,0,5.55,0,8.32,0
			c1.26,0,2.52,0.01,3.78,0C28.21,43.54,29.34,42.59,29.54,41.38z M12.08,44.68c0.01,0.07,0.01,0.13,0.03,0.18
			c0.33,1.19,1.41,2.01,2.69,2.01c3.35,0.01,6.7,0,10.04,0c0.71,0,1.42,0.01,2.13-0.01c1.26-0.03,2.44-1.04,2.56-2.18
			C23.72,44.68,17.91,44.68,12.08,44.68z M16.72,28.34c-0.07,1.38-0.14,2.77-0.21,4.15c-0.03,0.66,0.38,1.15,0.99,1.16
			c0.62,0,1.03-0.49,1-1.18c-0.14-2.77-0.28-5.54-0.42-8.31c-0.02-0.29,0.07-0.51,0.33-0.66c1.47-0.83,1.79-3.29,0.49-4.64
			c-0.79-0.82-1.94-0.83-2.76-0.03c-1.3,1.27-1.07,3.67,0.46,4.66c0.25,0.16,0.36,0.37,0.34,0.66
			C16.87,25.55,16.79,26.94,16.72,28.34z M24.08,25.92c-0.01,0.09-0.02,0.17-0.03,0.24c-0.13,2.1-0.25,4.21-0.38,6.31
			c-0.04,0.68,0.37,1.18,0.99,1.18c0.62,0,1.02-0.5,0.98-1.19c-0.1-1.76-0.21-3.52-0.31-5.28c-0.03-0.43-0.06-0.85-0.09-1.26
			C24.84,25.92,24.48,25.92,24.08,25.92z"/>
		<path class="st0" d="M32.05,29.65c-1.44,0.47-2.62,1.25-3.62,2.35c-0.27-0.24-0.53-0.47-0.82-0.72c1.11-1.25,2.45-2.1,4-2.65
			c-0.07-0.41-0.25-0.66-0.65-0.79c-0.67-0.22-1.32-0.52-1.98-0.78c-0.26-0.1-0.44-0.25-0.45-0.54c-0.01-0.31,0.19-0.47,0.46-0.57
			c0.7-0.27,1.4-0.56,2.11-0.83c0.22-0.08,0.35-0.2,0.44-0.43c0.27-0.71,0.56-1.4,0.83-2.11c0.1-0.27,0.25-0.47,0.56-0.47
			c0.31,0,0.46,0.2,0.56,0.47c0.27,0.7,0.57,1.4,0.84,2.11c0.08,0.21,0.19,0.33,0.41,0.41c0.72,0.27,1.42,0.57,2.14,0.85
			c0.27,0.11,0.46,0.26,0.45,0.57c-0.01,0.29-0.2,0.44-0.45,0.54c-0.69,0.27-1.38,0.55-2.07,0.83c-0.12,0.05-0.24,0.11-0.37,0.2
			c4.12,0.21,7.14,2.08,8.8,5.89c1.02,2.35,0.98,4.77-0.01,7.12c-2.05,4.86-7.31,6.73-11.53,5.29c0.11-0.33,0.21-0.66,0.32-0.98
			c0.58,0.1,1.12,0.24,1.67,0.3c4.59,0.51,8.66-2.82,9.11-7.43c0.43-4.49-2.84-8.5-7.33-8.97c-0.4-0.04-0.8-0.03-1.2-0.06
			c-0.24-0.02-0.35,0.09-0.42,0.3c-0.11,0.31-0.24,0.62-0.36,0.93c-0.1,0.24-0.26,0.41-0.53,0.42c-0.29,0.01-0.46-0.17-0.56-0.43
			C32.28,30.2,32.17,29.94,32.05,29.65z M32.92,24.13c-0.2,0.49-0.37,0.88-0.51,1.28c-0.1,0.29-0.29,0.48-0.58,0.58
			c-0.4,0.14-0.79,0.31-1.27,0.51c0.46,0.19,0.81,0.35,1.17,0.47c0.37,0.12,0.6,0.34,0.72,0.71c0.12,0.37,0.29,0.73,0.47,1.18
			c0.15-0.37,0.29-0.64,0.37-0.93c0.15-0.56,0.48-0.91,1.04-1.05c0.3-0.08,0.58-0.23,0.94-0.38c-0.51-0.2-0.94-0.35-1.34-0.55
			c-0.19-0.09-0.36-0.27-0.46-0.46C33.28,25.08,33.13,24.65,32.92,24.13z"/>
		<path class="st0" d="M43.94,20.98c-0.02,0.3-0.19,0.47-0.47,0.56c-0.89,0.29-1.78,0.6-2.67,0.89c-0.21,0.07-0.31,0.18-0.38,0.38
			c-0.28,0.88-0.59,1.76-0.88,2.64c-0.09,0.29-0.25,0.5-0.58,0.49c-0.31-0.01-0.45-0.21-0.54-0.49c-0.29-0.88-0.59-1.76-0.88-2.64
			c-0.07-0.2-0.17-0.32-0.38-0.38c-0.83-0.26-1.65-0.55-2.48-0.82c-0.32-0.11-0.66-0.2-0.66-0.63c0-0.41,0.33-0.5,0.64-0.61
			c0.83-0.27,1.65-0.56,2.48-0.82c0.22-0.07,0.33-0.19,0.4-0.41c0.28-0.87,0.58-1.74,0.86-2.61c0.09-0.29,0.24-0.5,0.57-0.5
			c0.33,0,0.47,0.22,0.57,0.5c0.29,0.88,0.59,1.76,0.87,2.64c0.06,0.2,0.16,0.3,0.36,0.36c0.89,0.29,1.78,0.59,2.67,0.89
			C43.73,20.52,43.91,20.68,43.94,20.98z M38.94,23.53c0.03,0,0.05,0,0.08,0c0.15-0.43,0.32-0.86,0.43-1.3
			c0.11-0.43,0.35-0.66,0.77-0.77c0.44-0.12,0.87-0.29,1.3-0.44c-0.45-0.22-0.89-0.39-1.34-0.51c-0.4-0.11-0.62-0.33-0.73-0.72
			c-0.12-0.45-0.29-0.9-0.44-1.34c-0.22,0.43-0.39,0.84-0.49,1.27c-0.11,0.45-0.35,0.71-0.81,0.82c-0.43,0.11-0.85,0.28-1.27,0.43
			c0.5,0.24,0.98,0.41,1.47,0.56c0.29,0.09,0.46,0.26,0.55,0.55C38.61,22.56,38.78,23.04,38.94,23.53z"/>
		<path class="st0" d="M31.57,42.74c0.18-0.31,0.35-0.61,0.54-0.93c1.34,0.71,2.72,0.86,4.13,0.36c1.06-0.37,1.9-1.05,2.51-1.99
			c1.21-1.87,0.99-4.35-0.49-5.99c-1.33-1.48-3.99-2.42-6.6-0.71c-0.2-0.28-0.41-0.56-0.61-0.84c1.89-1.51,5.24-1.77,7.61,0.4
			c2.35,2.14,2.65,5.69,0.71,8.19C37.4,43.75,33.96,44.18,31.57,42.74z"/>
		<path class="st0" d="M25.19,22.63c-0.36,0-0.7,0-1.06,0c0-1.46,0-2.91,0-4.37c0.35,0,0.69,0,1.06,0
			C25.19,19.7,25.19,21.15,25.19,22.63z"/>
	</g>
</g>
</svg>
