<?xml version="1.0" encoding="utf-8"?>
<!-- Generator: Adobe Illustrator 27.2.0, SVG Export Plug-In . SVG Version: 6.00 Build 0)  -->
<svg version="1.1" id="Layer_1" xmlns="http://www.w3.org/2000/svg" xmlns:xlink="http://www.w3.org/1999/xlink" x="0px" y="0px"
	 viewBox="0 0 54.72 63.62" style="enable-background:new 0 0 54.72 63.62;" xml:space="preserve">
<style type="text/css">
	.st0{fill:#4F4C4D;}
	.st1{fill:url(#SVGID_1_);}
	.st2{fill:url(#SVGID_00000165939133433141298040000011794565856607671728_);}
	
		.st3{clip-path:url(#SVGID_00000071551188813661280430000014561142893271524010_);fill:url(#SVGID_00000119092876721640122680000005349341198191556785_);}
	
		.st4{clip-path:url(#SVGID_00000071551188813661280430000014561142893271524010_);fill:url(#SVGID_00000043425674652438612880000004421461416362913425_);}
	
		.st5{clip-path:url(#SVGID_00000071551188813661280430000014561142893271524010_);fill:url(#SVGID_00000073687368955706959520000002722704345088242588_);}
	
		.st6{clip-path:url(#SVGID_00000071551188813661280430000014561142893271524010_);fill:url(#SVGID_00000126294870401219733810000009726223711109802129_);}
	
		.st7{clip-path:url(#SVGID_00000071551188813661280430000014561142893271524010_);fill:url(#SVGID_00000012431415281997624980000013221812975608857022_);}
	
		.st8{clip-path:url(#SVGID_00000071551188813661280430000014561142893271524010_);fill:url(#SVGID_00000096752184176148290900000016989285876851255464_);}
	
		.st9{clip-path:url(#SVGID_00000071551188813661280430000014561142893271524010_);fill:url(#SVGID_00000016074267049152427430000010888639170215032496_);}
	
		.st10{clip-path:url(#SVGID_00000071551188813661280430000014561142893271524010_);fill:url(#SVGID_00000039105615027465552820000014363216738543824033_);}
	
		.st11{clip-path:url(#SVGID_00000071551188813661280430000014561142893271524010_);fill:url(#SVGID_00000085226026305326776740000001324451715872230286_);}
	
		.st12{clip-path:url(#SVGID_00000071551188813661280430000014561142893271524010_);fill:url(#SVGID_00000089575381629482902130000004249538342905684878_);}
	
		.st13{clip-path:url(#SVGID_00000071551188813661280430000014561142893271524010_);fill:url(#SVGID_00000093136238566471493880000000297070885756217522_);}
	
		.st14{clip-path:url(#SVGID_00000071551188813661280430000014561142893271524010_);fill:url(#SVGID_00000020368517208536127950000007571555256583447971_);}
	
		.st15{clip-path:url(#SVGID_00000071551188813661280430000014561142893271524010_);fill:url(#SVGID_00000123404080840418459760000004742372265639765691_);}
	
		.st16{clip-path:url(#SVGID_00000071551188813661280430000014561142893271524010_);fill:url(#SVGID_00000167376100571413149350000015287385705934608829_);}
	
		.st17{clip-path:url(#SVGID_00000071551188813661280430000014561142893271524010_);fill:url(#SVGID_00000094580955093735810670000015665585810503062680_);}
	
		.st18{clip-path:url(#SVGID_00000071551188813661280430000014561142893271524010_);fill:url(#SVGID_00000034776272777909545070000010065237068145287588_);}
	.st19{clip-path:url(#SVGID_00000071551188813661280430000014561142893271524010_);}
	.st20{fill:url(#SVGID_00000154410479635159479610000011356855524377675676_);}
	.st21{fill:url(#SVGID_00000179609280926309308140000000050123521176445876_);}
	.st22{fill:url(#SVGID_00000177450413302124860220000007570640279093859757_);}
	.st23{fill:url(#SVGID_00000150061152723855523010000014901078142434540984_);}
	
		.st24{clip-path:url(#SVGID_00000071551188813661280430000014561142893271524010_);fill:url(#SVGID_00000180338301436230993620000007032834642125122480_);}
	
		.st25{clip-path:url(#SVGID_00000071551188813661280430000014561142893271524010_);fill:url(#SVGID_00000116216089862129574500000014648020120324845719_);}
	
		.st26{clip-path:url(#SVGID_00000071551188813661280430000014561142893271524010_);fill:url(#SVGID_00000008871154341567762480000007407835677809496991_);}
	
		.st27{clip-path:url(#SVGID_00000071551188813661280430000014561142893271524010_);fill:url(#SVGID_00000174574671765507691800000012373791375451977877_);}
	
		.st28{clip-path:url(#SVGID_00000071551188813661280430000014561142893271524010_);fill:url(#SVGID_00000079445237831381845910000015458093452838933930_);}
	
		.st29{clip-path:url(#SVGID_00000071551188813661280430000014561142893271524010_);fill:url(#SVGID_00000008129511354876343800000015971276941155555477_);}
	
		.st30{clip-path:url(#SVGID_00000071551188813661280430000014561142893271524010_);fill:url(#SVGID_00000172399624402725750620000000985013631999163554_);}
	
		.st31{clip-path:url(#SVGID_00000071551188813661280430000014561142893271524010_);fill:url(#SVGID_00000053525804542217571590000006083581278465845389_);}
	
		.st32{clip-path:url(#SVGID_00000071551188813661280430000014561142893271524010_);fill:url(#SVGID_00000177444255893789863170000012641214960991522193_);}
	
		.st33{clip-path:url(#SVGID_00000071551188813661280430000014561142893271524010_);fill:url(#SVGID_00000170969566361649307210000006781118411919659935_);}
	
		.st34{clip-path:url(#SVGID_00000071551188813661280430000014561142893271524010_);fill:url(#SVGID_00000153680774576661530300000018354609008916905143_);}
	
		.st35{clip-path:url(#SVGID_00000071551188813661280430000014561142893271524010_);fill:url(#SVGID_00000096741323729129591990000014537043424843276215_);}
	
		.st36{clip-path:url(#SVGID_00000071551188813661280430000014561142893271524010_);fill:url(#SVGID_00000091012804310832860290000000714192557912106666_);}
	
		.st37{clip-path:url(#SVGID_00000071551188813661280430000014561142893271524010_);fill:url(#SVGID_00000155826317311810170350000014961645466027616433_);}
	
		.st38{clip-path:url(#SVGID_00000071551188813661280430000014561142893271524010_);fill:url(#SVGID_00000010292132770669909050000013198002706521020063_);}
	
		.st39{clip-path:url(#SVGID_00000071551188813661280430000014561142893271524010_);fill:url(#SVGID_00000145739049193624486340000004547726903940952204_);}
	.st40{fill:url(#SVGID_00000083789341624233496840000004675659584211070355_);}
	.st41{fill:url(#SVGID_00000031888847842268633150000014217074101880428177_);}
	.st42{fill:url(#SVGID_00000002365923125732164850000004493721652196548028_);}
	.st43{fill:url(#SVGID_00000033339713385869215920000003783717467738412704_);}
	
		.st44{clip-path:url(#SVGID_00000071551188813661280430000014561142893271524010_);fill:url(#SVGID_00000154406895795272476050000003271542074966551472_);}
	
		.st45{clip-path:url(#SVGID_00000071551188813661280430000014561142893271524010_);fill:url(#SVGID_00000132789218162420209360000012084431699396274864_);}
	
		.st46{clip-path:url(#SVGID_00000071551188813661280430000014561142893271524010_);fill:url(#SVGID_00000112632820476011571940000004004088146921200553_);}
	
		.st47{clip-path:url(#SVGID_00000071551188813661280430000014561142893271524010_);fill:url(#SVGID_00000076567043053051478330000013476532150987213698_);}
	
		.st48{clip-path:url(#SVGID_00000071551188813661280430000014561142893271524010_);fill:url(#SVGID_00000173880800213991001070000012386970340966038419_);}
	
		.st49{clip-path:url(#SVGID_00000071551188813661280430000014561142893271524010_);fill:url(#SVGID_00000002362533749719416050000011385683623924340645_);}
	
		.st50{clip-path:url(#SVGID_00000071551188813661280430000014561142893271524010_);fill:url(#SVGID_00000153667498600257373350000002911219267045046152_);}
	
		.st51{clip-path:url(#SVGID_00000071551188813661280430000014561142893271524010_);fill:url(#SVGID_00000134223374135079040060000013101658973460840380_);}
	
		.st52{clip-path:url(#SVGID_00000071551188813661280430000014561142893271524010_);fill:url(#SVGID_00000104668476358947629990000015569317195202715061_);}
	
		.st53{clip-path:url(#SVGID_00000071551188813661280430000014561142893271524010_);fill:url(#SVGID_00000121969984317538873590000004058677674511208332_);}
	
		.st54{clip-path:url(#SVGID_00000071551188813661280430000014561142893271524010_);fill:url(#SVGID_00000056427533689710633460000012458798541929954732_);}
	
		.st55{clip-path:url(#SVGID_00000071551188813661280430000014561142893271524010_);fill:url(#SVGID_00000016782708182346935410000009003973792391953061_);}
	
		.st56{clip-path:url(#SVGID_00000071551188813661280430000014561142893271524010_);fill:url(#SVGID_00000037666017942701552700000017207568506675464840_);}
	
		.st57{clip-path:url(#SVGID_00000071551188813661280430000014561142893271524010_);fill:url(#SVGID_00000047023327287052777510000013828465761381013147_);}
	
		.st58{clip-path:url(#SVGID_00000071551188813661280430000014561142893271524010_);fill:url(#SVGID_00000052082353698984428260000003677600898145472695_);}
	
		.st59{clip-path:url(#SVGID_00000071551188813661280430000014561142893271524010_);fill:url(#SVGID_00000068668344642395710890000005994178491647599038_);}
	.st60{fill:url(#SVGID_00000147920584477455529210000013694068967142718655_);}
	.st61{fill:url(#SVGID_00000149344575334737771200000000931750102164011454_);}
	.st62{fill:url(#SVGID_00000018952745828357630330000016619894409689127848_);}
	.st63{fill:url(#SVGID_00000173135970771718070160000000576480978700894095_);}
	
		.st64{clip-path:url(#SVGID_00000071551188813661280430000014561142893271524010_);fill:url(#SVGID_00000152246280403565393770000009214865553783697573_);}
	
		.st65{clip-path:url(#SVGID_00000071551188813661280430000014561142893271524010_);fill:url(#SVGID_00000096749858409801632750000004649387484903275179_);}
	
		.st66{clip-path:url(#SVGID_00000071551188813661280430000014561142893271524010_);fill:url(#SVGID_00000065758013304320620370000013711442899938269618_);}
	
		.st67{clip-path:url(#SVGID_00000071551188813661280430000014561142893271524010_);fill:url(#SVGID_00000041995564037475227500000006758281168400397966_);}
	
		.st68{clip-path:url(#SVGID_00000071551188813661280430000014561142893271524010_);fill:url(#SVGID_00000150807263707910546780000015540936081285461132_);}
	
		.st69{clip-path:url(#SVGID_00000071551188813661280430000014561142893271524010_);fill:url(#SVGID_00000017496911491392849920000007204714683264790674_);}
	
		.st70{clip-path:url(#SVGID_00000071551188813661280430000014561142893271524010_);fill:url(#SVGID_00000044175343086816725190000015177048077694414218_);}
	
		.st71{clip-path:url(#SVGID_00000071551188813661280430000014561142893271524010_);fill:url(#SVGID_00000103229290503944921080000017105827625550763910_);}
	
		.st72{clip-path:url(#SVGID_00000071551188813661280430000014561142893271524010_);fill:url(#SVGID_00000088123655214112866670000017886689457642824071_);}
	
		.st73{clip-path:url(#SVGID_00000071551188813661280430000014561142893271524010_);fill:url(#SVGID_00000133524127254567751150000011460622096516433316_);}
	
		.st74{clip-path:url(#SVGID_00000071551188813661280430000014561142893271524010_);fill:url(#SVGID_00000144308394829876234310000017342456198751065790_);}
	
		.st75{clip-path:url(#SVGID_00000071551188813661280430000014561142893271524010_);fill:url(#SVGID_00000176759067655133392180000004768820644111359142_);}
	
		.st76{clip-path:url(#SVGID_00000071551188813661280430000014561142893271524010_);fill:url(#SVGID_00000070833863652873272480000015682251224523444658_);}
	
		.st77{clip-path:url(#SVGID_00000071551188813661280430000014561142893271524010_);fill:url(#SVGID_00000049909818269443952590000014170581298404990878_);}
	
		.st78{clip-path:url(#SVGID_00000071551188813661280430000014561142893271524010_);fill:url(#SVGID_00000061455874670740003880000010877503723174439072_);}
	
		.st79{clip-path:url(#SVGID_00000071551188813661280430000014561142893271524010_);fill:url(#SVGID_00000092444603538583271460000003136354391795302581_);}
	.st80{fill:url(#SVGID_00000043432181460165378920000016566298426430748846_);}
	.st81{fill:url(#SVGID_00000065042166749846207650000009493087982666306181_);}
	.st82{fill:url(#SVGID_00000060018891107004285020000015744933054313904791_);}
	.st83{fill:url(#SVGID_00000063618440185642122990000009059147975797094819_);}
	.st84{fill:url(#SVGID_00000033338144155854398370000016100428039922358170_);}
	.st85{fill:url(#SVGID_00000039101565931834822110000001224228222374158765_);}
	.st86{fill:url(#SVGID_00000095336845298539293520000016762192243888653207_);}
	.st87{fill:url(#SVGID_00000000190204723233246730000005427800141635326597_);}
	.st88{fill:url(#SVGID_00000121277049779776846390000005028631329844897704_);}
	.st89{fill:url(#SVGID_00000170246144661562520990000008620298661024771994_);}
	.st90{clip-path:url(#SVGID_00000016794539071998866980000010976424791502694075_);}
	.st91{fill:url(#SVGID_00000026147947324287710710000008692067340859419839_);}
	.st92{fill:url(#SVGID_00000155121570246736973500000003169187023318050191_);}
	.st93{fill:url(#SVGID_00000023272145890018959140000001553880772615926670_);}
	.st94{fill:url(#SVGID_00000111873818552631288890000006714043705139572881_);}
	.st95{fill:url(#SVGID_00000137831657835999210360000011392029389666228647_);}
	.st96{fill:url(#SVGID_00000170260232540836503130000004638943022787877552_);}
	.st97{fill:url(#SVGID_00000137123117483474628630000017878961130949257912_);}
	.st98{fill:none;stroke:#666364;stroke-miterlimit:10;}
	.st99{fill:#666364;}
	.st100{fill:#FFFFFF;}
	.st101{fill:#C1C0C1;}
	.st102{fill:none;stroke:#4F4C4D;stroke-width:0.0179;stroke-miterlimit:10;}
	.st103{fill:#D5D4D5;}
	.st104{clip-path:url(#SVGID_00000141453327335532041900000005426920976529351866_);}
	.st105{fill:none;stroke:#4F4C4D;stroke-width:0.8884;stroke-linecap:round;stroke-linejoin:round;stroke-miterlimit:10;}
	.st106{fill:none;stroke:#4F4C4D;stroke-width:0.8448;stroke-linecap:round;stroke-linejoin:round;stroke-miterlimit:10;}
	.st107{fill:none;stroke:#4F4C4D;stroke-width:0.9746;stroke-linecap:round;stroke-linejoin:round;stroke-miterlimit:10;}
	.st108{fill:none;stroke:#4F4C4D;stroke-width:0.8608;stroke-linecap:round;stroke-linejoin:round;stroke-miterlimit:10;}
	
		.st109{fill:none;stroke:#4F4C4D;stroke-width:0.8608;stroke-linecap:round;stroke-linejoin:round;stroke-miterlimit:10;stroke-dasharray:1.0632;}
	.st110{fill:none;stroke:#4F4C4D;stroke-width:0.9757;stroke-linecap:round;stroke-linejoin:round;stroke-miterlimit:10;}
	.st111{fill:none;stroke:#4F4C4D;stroke-width:1.1046;stroke-linecap:round;stroke-linejoin:round;stroke-miterlimit:10;}
	.st112{fill:none;stroke:#4F4C4D;stroke-width:1.0333;stroke-linecap:round;stroke-linejoin:round;stroke-miterlimit:10;}
	
		.st113{fill:none;stroke:#4F4C4D;stroke-width:1.0333;stroke-linecap:round;stroke-linejoin:round;stroke-miterlimit:10;stroke-dasharray:1.2;}
	.st114{fill:none;stroke:#4F4C4D;stroke-linecap:round;stroke-linejoin:round;stroke-miterlimit:10;}
	.st115{fill:none;stroke:#4F4C4D;stroke-linecap:round;stroke-linejoin:round;stroke-miterlimit:10;stroke-dasharray:1.0878;}
</style>
<g>
	<g>
		<path class="st0" d="M27.36,60.49L2.69,46.25V17.76L27.36,3.52l24.67,14.24v28.48L27.36,60.49z M4.53,45.18l22.83,13.18
			l22.83-13.18V18.83L27.36,5.65L4.53,18.83V45.18z"/>
	</g>
</g>
<g id="xXZZCm_1_">
	<g>
		<path class="st0" d="M25.97,50.88c0-1.78,0-3.57,0-5.45c-0.37-0.02-0.66-0.06-0.95-0.06c-1.17-0.01-2.35,0.03-3.52-0.02
			c-1.23-0.04-2.01-0.97-1.77-2.12c0.08-0.36,0.3-0.73,0.55-0.99c1.66-1.7,3.34-3.37,5.02-5.05c0.52-0.52,1.14-0.77,1.88-0.77
			c2.15,0.01,4.3-0.02,6.45,0.02c0.69,0.01,1.19-0.17,1.69-0.68c2.18-2.24,4.4-4.44,6.62-6.65c0.26-0.25,0.52-0.51,0.83-0.7
			c0.61-0.38,1.38-0.29,1.86,0.17c0.51,0.49,0.64,1.19,0.27,1.84c-0.19,0.33-0.47,0.63-0.74,0.9c-2.5,2.52-5,5.03-7.51,7.52
			c-0.39,0.38-0.56,0.77-0.55,1.32c0.02,3.24,0.02,6.47,0.01,9.71c0,0.33-0.04,0.66-0.07,1C32.68,50.88,29.33,50.88,25.97,50.88z
			 M27.2,41.81c0.98,0.25,1.81,0.63,1.82,1.77c0.02,1.2-0.9,1.55-1.83,1.86c0.09,0.48,0.34,0.72,0.8,0.72c0.47,0,0.95,0.02,1.42,0
			c0.72-0.03,1.05-0.36,1.07-1.1c0.02-0.95,0.01-1.9,0-2.84c0-0.21-0.05-0.46-0.17-0.63c-0.5-0.71-1.27-0.39-1.94-0.44
			C27.92,41.11,27.4,41.07,27.2,41.81z"/>
		<path class="st0" d="M14.91,17.35c0.11,0.12,0.24,0.24,0.34,0.37c0.32,0.41,0.69,0.53,1.16,0.27c0.12-0.07,0.26-0.1,0.39-0.15
			c1.12-0.42,1.12-0.42,1.95,0.66c-1.48,1.52-2.97,3.05-4.45,4.56c-1.1-0.76-1.1-0.76-0.79-1.85c0.24-0.85,0.24-0.85-0.57-2.03
			c0.59-0.6,1.2-1.21,1.8-1.82C14.79,17.35,14.85,17.35,14.91,17.35z"/>
		<path class="st0" d="M34.61,32c0.02,2.18-1.75,3.98-3.9,3.97c-2.12-0.02-3.89-1.78-3.92-3.89c-0.02-2.13,1.8-3.98,3.93-3.97
			C32.85,28.11,34.59,29.85,34.61,32z"/>
		<path class="st0" d="M35.93,27.96c-0.59,0-1.07-0.48-1.07-1.06c0.01-0.58,0.49-1.05,1.08-1.05c0.59,0,1.07,0.48,1.07,1.06
			C37.02,27.47,36.52,27.96,35.93,27.96z"/>
		<path class="st0" d="M25.03,32.09c0.57-0.02,1.09,0.48,1.1,1.04c0.01,0.58-0.47,1.05-1.07,1.05c-0.57,0-1.03-0.43-1.05-0.98
			C23.97,32.65,24.47,32.11,25.03,32.09z"/>
		<path class="st0" d="M26.78,28.78c-0.6,0.01-1.07-0.46-1.06-1.05c0.01-0.56,0.43-1.01,1-1.03c0.6-0.03,1.09,0.42,1.11,1.01
			C27.85,28.29,27.37,28.78,26.78,28.78z"/>
		<path class="st0" d="M21.28,35.92c0.6,0.01,1.04,0.48,1.03,1.07c-0.01,0.58-0.49,1.03-1.08,1.02c-0.6-0.01-1.03-0.46-1.02-1.07
			C20.22,36.33,20.67,35.91,21.28,35.92z"/>
		<path class="st0" d="M34.22,25.73c0.02,0.56-0.4,1.02-0.96,1.05c-0.59,0.03-1.09-0.45-1.09-1.02c0.01-0.52,0.5-1.02,1.02-1.03
			C33.72,24.73,34.2,25.19,34.22,25.73z"/>
		<path class="st0" d="M20.16,35.33c-0.56,0-1.02-0.45-1.01-1c0.01-0.53,0.5-1.02,1.02-1.02c0.54,0,0.99,0.46,0.99,1.02
			C21.15,34.91,20.73,35.33,20.16,35.33z"/>
		<path class="st0" d="M23.45,32.04c-0.55-0.01-1.01-0.47-1-1.01c0.01-0.54,0.47-0.98,1.03-0.98c0.55,0.01,1.01,0.46,1,1
			C24.47,31.59,23.99,32.05,23.45,32.04z"/>
		<path class="st0" d="M30.46,25.61c-0.52-0.01-0.96-0.43-0.97-0.94c-0.01-0.54,0.45-1,1-0.99c0.52,0.01,0.96,0.42,0.97,0.93
			C31.48,25.15,31.02,25.61,30.46,25.61z"/>
		<path class="st0" d="M24.64,27.11c-0.53-0.01-0.97-0.43-0.99-0.94c-0.02-0.54,0.46-1,1.02-1c0.56,0.01,1.01,0.48,0.98,1.02
			C25.62,26.72,25.17,27.12,24.64,27.11z"/>
		<path class="st0" d="M22.82,28.97c-0.02,0.52-0.47,0.94-0.98,0.92c-0.52-0.02-0.93-0.48-0.91-0.99c0.02-0.52,0.47-0.94,0.99-0.92
			C22.42,28,22.83,28.44,22.82,28.97z"/>
		<path class="st0" d="M19.07,32.65c-0.53-0.01-0.96-0.44-0.96-0.96c0.01-0.5,0.48-0.96,0.98-0.95c0.52,0.01,0.95,0.45,0.95,0.98
			C20.04,32.25,19.61,32.66,19.07,32.65z"/>
		<path class="st0" d="M27.74,24.43c-0.52,0-0.96-0.45-0.94-0.95c0.01-0.49,0.5-0.94,0.99-0.92c0.47,0.02,0.88,0.45,0.89,0.93
			C28.69,24.01,28.27,24.43,27.74,24.43z"/>
		<path class="st0" d="M22.51,25.45c-0.5-0.02-0.9-0.42-0.9-0.9c0-0.51,0.45-0.94,0.97-0.93c0.51,0.01,0.94,0.49,0.9,1
			C23.43,25.11,23.01,25.47,22.51,25.45z"/>
		<path class="st0" d="M17.99,29.98c-0.5-0.01-0.91-0.42-0.91-0.9c0.01-0.5,0.42-0.88,0.93-0.88c0.5,0.01,0.92,0.42,0.91,0.9
			C18.91,29.58,18.49,29.99,17.99,29.98z"/>
		<path class="st0" d="M19.39,26.85c-0.01-0.5,0.38-0.92,0.86-0.94c0.48-0.02,0.9,0.39,0.91,0.88c0.01,0.49-0.38,0.93-0.86,0.94
			C19.82,27.75,19.4,27.34,19.39,26.85z"/>
		<path class="st0" d="M25.05,21.5c0.5,0.02,0.9,0.45,0.86,0.93c-0.03,0.46-0.42,0.82-0.89,0.83c-0.5,0-0.92-0.41-0.91-0.89
			C24.13,21.87,24.55,21.48,25.05,21.5z"/>
		<path class="st0" d="M20.39,22.07c0.43-0.02,0.87,0.37,0.9,0.82c0.03,0.46-0.32,0.87-0.78,0.91c-0.5,0.04-0.93-0.34-0.94-0.84
			C19.57,22.52,19.95,22.1,20.39,22.07z"/>
		<path class="st0" d="M19.52,24.74c-0.01,0.46-0.42,0.85-0.87,0.83c-0.45-0.02-0.84-0.43-0.83-0.89c0.01-0.46,0.41-0.84,0.88-0.82
			C19.17,23.88,19.53,24.27,19.52,24.74z"/>
		<path class="st0" d="M16.87,27.3c-0.48-0.02-0.83-0.4-0.81-0.87c0.02-0.45,0.43-0.85,0.86-0.84c0.47,0,0.88,0.47,0.85,0.94
			C17.74,26.99,17.35,27.33,16.87,27.3z"/>
		<path class="st0" d="M22.29,22.08c-0.47,0-0.86-0.38-0.85-0.85c0-0.44,0.43-0.86,0.86-0.86c0.44,0,0.84,0.42,0.85,0.87
			C23.15,21.72,22.77,22.09,22.29,22.08z"/>
		<path class="st0" d="M18.94,20.72c-0.06-0.16-0.16-0.31-0.17-0.47c-0.06-0.5,0.26-0.89,0.74-0.92c0.48-0.03,0.89,0.34,0.87,0.8
			c-0.02,0.47-0.41,0.82-0.9,0.77c-0.19-0.02-0.36-0.13-0.54-0.19L18.94,20.72z"/>
		<path class="st0" d="M17.6,21.89c-0.02-0.13-0.05-0.27-0.06-0.4c-0.01-0.84,0.43-1.08,1.4-0.78l-0.01-0.01
			c0.14,0.38,0.34,0.75,0.02,1.14c-0.34,0.41-0.76,0.31-1.19,0.21C17.7,22,17.65,21.94,17.6,21.89z"/>
		<path class="st0" d="M17.6,21.89c0.05,0.05,0.11,0.1,0.16,0.15c0.13,0.4,0.23,0.78-0.13,1.13c-0.4,0.38-0.81,0.18-1.22,0.04
			l0.02,0.02C16.1,22.09,16.42,21.72,17.6,21.89z"/>
		<path class="st0" d="M16.4,23.22c0.07,0.18,0.19,0.35,0.21,0.53c0.05,0.49-0.3,0.88-0.77,0.89c-0.44,0.01-0.79-0.33-0.8-0.78
			c-0.01-0.48,0.35-0.85,0.84-0.81c0.18,0.01,0.36,0.12,0.54,0.19L16.4,23.22z"/>
	</g>
</g>
</svg>
