<?xml version="1.0" encoding="utf-8"?>
<!-- Generator: Adobe Illustrator 27.2.0, SVG Export Plug-In . SVG Version: 6.00 Build 0)  -->
<svg version="1.1" id="Layer_1" xmlns="http://www.w3.org/2000/svg" xmlns:xlink="http://www.w3.org/1999/xlink" x="0px" y="0px"
	 viewBox="0 0 54.72 63.62" style="enable-background:new 0 0 54.72 63.62;" xml:space="preserve">
<style type="text/css">
	.st0{fill:#4F4C4D;}
	.st1{fill:url(#SVGID_1_);}
	.st2{fill:url(#SVGID_00000038396445706225112840000001575582208415370644_);}
	
		.st3{clip-path:url(#SVGID_00000150098946276934818670000011003148111647524234_);fill:url(#SVGID_00000023251342521005800920000011313650760813167498_);}
	
		.st4{clip-path:url(#SVGID_00000150098946276934818670000011003148111647524234_);fill:url(#SVGID_00000163058314667113243420000008599978881144376750_);}
	
		.st5{clip-path:url(#SVGID_00000150098946276934818670000011003148111647524234_);fill:url(#SVGID_00000135682137948609901260000017882229863896213439_);}
	
		.st6{clip-path:url(#SVGID_00000150098946276934818670000011003148111647524234_);fill:url(#SVGID_00000133501160239048436910000005828813541661714345_);}
	
		.st7{clip-path:url(#SVGID_00000150098946276934818670000011003148111647524234_);fill:url(#SVGID_00000157995637037000538230000010192157865887600558_);}
	
		.st8{clip-path:url(#SVGID_00000150098946276934818670000011003148111647524234_);fill:url(#SVGID_00000132065373231828275600000005509075300372156039_);}
	
		.st9{clip-path:url(#SVGID_00000150098946276934818670000011003148111647524234_);fill:url(#SVGID_00000140711426645189147160000010511418273210733495_);}
	
		.st10{clip-path:url(#SVGID_00000150098946276934818670000011003148111647524234_);fill:url(#SVGID_00000035531946357308147340000013457092527011729085_);}
	
		.st11{clip-path:url(#SVGID_00000150098946276934818670000011003148111647524234_);fill:url(#SVGID_00000072966504589579908420000009771813611005878452_);}
	
		.st12{clip-path:url(#SVGID_00000150098946276934818670000011003148111647524234_);fill:url(#SVGID_00000160892265358533146660000011236924003094107539_);}
	
		.st13{clip-path:url(#SVGID_00000150098946276934818670000011003148111647524234_);fill:url(#SVGID_00000014630778807311520720000013499034112969908389_);}
	
		.st14{clip-path:url(#SVGID_00000150098946276934818670000011003148111647524234_);fill:url(#SVGID_00000140005853973529922630000013380757216813135799_);}
	
		.st15{clip-path:url(#SVGID_00000150098946276934818670000011003148111647524234_);fill:url(#SVGID_00000092414215926363496560000008701062300085095091_);}
	
		.st16{clip-path:url(#SVGID_00000150098946276934818670000011003148111647524234_);fill:url(#SVGID_00000036964863428641646640000011061761737395573927_);}
	
		.st17{clip-path:url(#SVGID_00000150098946276934818670000011003148111647524234_);fill:url(#SVGID_00000170966689441041382390000015063477996401682356_);}
	
		.st18{clip-path:url(#SVGID_00000150098946276934818670000011003148111647524234_);fill:url(#SVGID_00000080922951934332026020000005583766761890850490_);}
	.st19{clip-path:url(#SVGID_00000150098946276934818670000011003148111647524234_);}
	.st20{fill:url(#SVGID_00000103227977090604654570000006908766457459245744_);}
	.st21{fill:url(#SVGID_00000181068685914904194050000004589505387452285097_);}
	.st22{fill:url(#SVGID_00000113345874230157077330000014442643847646163133_);}
	.st23{fill:url(#SVGID_00000166643187481110735530000007039958537165623703_);}
	
		.st24{clip-path:url(#SVGID_00000150098946276934818670000011003148111647524234_);fill:url(#SVGID_00000088096352912282333120000007333691532417320104_);}
	
		.st25{clip-path:url(#SVGID_00000150098946276934818670000011003148111647524234_);fill:url(#SVGID_00000000919668851519460790000013358751519057921435_);}
	
		.st26{clip-path:url(#SVGID_00000150098946276934818670000011003148111647524234_);fill:url(#SVGID_00000109748000090350876040000015858624723936744346_);}
	
		.st27{clip-path:url(#SVGID_00000150098946276934818670000011003148111647524234_);fill:url(#SVGID_00000132806932414552538540000007621931349447152516_);}
	
		.st28{clip-path:url(#SVGID_00000150098946276934818670000011003148111647524234_);fill:url(#SVGID_00000129906738509236237720000010697840340188457405_);}
	
		.st29{clip-path:url(#SVGID_00000150098946276934818670000011003148111647524234_);fill:url(#SVGID_00000068655654592718610700000014909822205265109690_);}
	
		.st30{clip-path:url(#SVGID_00000150098946276934818670000011003148111647524234_);fill:url(#SVGID_00000038382521561916420370000009742774368969332384_);}
	
		.st31{clip-path:url(#SVGID_00000150098946276934818670000011003148111647524234_);fill:url(#SVGID_00000132773967056556411120000005739272755516617344_);}
	
		.st32{clip-path:url(#SVGID_00000150098946276934818670000011003148111647524234_);fill:url(#SVGID_00000176745675340649749760000014212548263771511951_);}
	
		.st33{clip-path:url(#SVGID_00000150098946276934818670000011003148111647524234_);fill:url(#SVGID_00000111155530988814691250000008063211448845775539_);}
	
		.st34{clip-path:url(#SVGID_00000150098946276934818670000011003148111647524234_);fill:url(#SVGID_00000177442655590102242950000003076182504827101587_);}
	
		.st35{clip-path:url(#SVGID_00000150098946276934818670000011003148111647524234_);fill:url(#SVGID_00000065066050575147043130000011695305477517993110_);}
	
		.st36{clip-path:url(#SVGID_00000150098946276934818670000011003148111647524234_);fill:url(#SVGID_00000165943088312919067510000012861525918902172086_);}
	
		.st37{clip-path:url(#SVGID_00000150098946276934818670000011003148111647524234_);fill:url(#SVGID_00000040565386130291204190000013603612913490907571_);}
	
		.st38{clip-path:url(#SVGID_00000150098946276934818670000011003148111647524234_);fill:url(#SVGID_00000180352231603963781000000011949564199362888863_);}
	
		.st39{clip-path:url(#SVGID_00000150098946276934818670000011003148111647524234_);fill:url(#SVGID_00000020382347412177754530000006514069404585293989_);}
	.st40{fill:url(#SVGID_00000065785762959883925090000018031944460573850280_);}
	.st41{fill:url(#SVGID_00000168829841988917428440000009854807002452132783_);}
	.st42{fill:url(#SVGID_00000070108316755911353860000016461092719792011941_);}
	.st43{fill:url(#SVGID_00000009583493708566760750000012126684363933181115_);}
	
		.st44{clip-path:url(#SVGID_00000150098946276934818670000011003148111647524234_);fill:url(#SVGID_00000018229532704156613960000010373734558999723157_);}
	
		.st45{clip-path:url(#SVGID_00000150098946276934818670000011003148111647524234_);fill:url(#SVGID_00000148632715822619579740000016108918837731305878_);}
	
		.st46{clip-path:url(#SVGID_00000150098946276934818670000011003148111647524234_);fill:url(#SVGID_00000098941296010128834290000016759230363045637248_);}
	
		.st47{clip-path:url(#SVGID_00000150098946276934818670000011003148111647524234_);fill:url(#SVGID_00000161591085849534370170000015457098637941162421_);}
	
		.st48{clip-path:url(#SVGID_00000150098946276934818670000011003148111647524234_);fill:url(#SVGID_00000075841813901747858710000001730251423347817120_);}
	
		.st49{clip-path:url(#SVGID_00000150098946276934818670000011003148111647524234_);fill:url(#SVGID_00000016057008782335436130000005416223467864032665_);}
	
		.st50{clip-path:url(#SVGID_00000150098946276934818670000011003148111647524234_);fill:url(#SVGID_00000145048855742981210100000011379032612492860554_);}
	
		.st51{clip-path:url(#SVGID_00000150098946276934818670000011003148111647524234_);fill:url(#SVGID_00000065772251344230079240000017309338993639165343_);}
	
		.st52{clip-path:url(#SVGID_00000150098946276934818670000011003148111647524234_);fill:url(#SVGID_00000177471377179710661480000003192796584266182564_);}
	
		.st53{clip-path:url(#SVGID_00000150098946276934818670000011003148111647524234_);fill:url(#SVGID_00000080190455319631901990000005184214278312832658_);}
	
		.st54{clip-path:url(#SVGID_00000150098946276934818670000011003148111647524234_);fill:url(#SVGID_00000013903091551981945410000003640764709283283081_);}
	
		.st55{clip-path:url(#SVGID_00000150098946276934818670000011003148111647524234_);fill:url(#SVGID_00000144303500761598495600000012041979326605966236_);}
	
		.st56{clip-path:url(#SVGID_00000150098946276934818670000011003148111647524234_);fill:url(#SVGID_00000085216676127492187220000003386122037397107388_);}
	
		.st57{clip-path:url(#SVGID_00000150098946276934818670000011003148111647524234_);fill:url(#SVGID_00000062192669001685779950000000531010181207345047_);}
	
		.st58{clip-path:url(#SVGID_00000150098946276934818670000011003148111647524234_);fill:url(#SVGID_00000041983886794864874460000010128364661087896253_);}
	
		.st59{clip-path:url(#SVGID_00000150098946276934818670000011003148111647524234_);fill:url(#SVGID_00000093863520160762290320000016380940540530517435_);}
	.st60{fill:url(#SVGID_00000064322373250829007940000014856787632151988155_);}
	.st61{fill:url(#SVGID_00000033339361403978442470000001461515717851143320_);}
	.st62{fill:url(#SVGID_00000043443200987382541460000016153498267542255544_);}
	.st63{fill:url(#SVGID_00000005262378474707763060000004046749990418309818_);}
	
		.st64{clip-path:url(#SVGID_00000150098946276934818670000011003148111647524234_);fill:url(#SVGID_00000037676616395143150020000018374336254561637527_);}
	
		.st65{clip-path:url(#SVGID_00000150098946276934818670000011003148111647524234_);fill:url(#SVGID_00000026872273233224401350000004969147029977681281_);}
	
		.st66{clip-path:url(#SVGID_00000150098946276934818670000011003148111647524234_);fill:url(#SVGID_00000057840895659965252570000002141190501322570898_);}
	
		.st67{clip-path:url(#SVGID_00000150098946276934818670000011003148111647524234_);fill:url(#SVGID_00000054248044977305157150000005507840160775840411_);}
	
		.st68{clip-path:url(#SVGID_00000150098946276934818670000011003148111647524234_);fill:url(#SVGID_00000165930706517057602390000007978130495222851725_);}
	
		.st69{clip-path:url(#SVGID_00000150098946276934818670000011003148111647524234_);fill:url(#SVGID_00000072999234232788333330000014075219403951512501_);}
	
		.st70{clip-path:url(#SVGID_00000150098946276934818670000011003148111647524234_);fill:url(#SVGID_00000122714950964455132360000013241092115716291494_);}
	
		.st71{clip-path:url(#SVGID_00000150098946276934818670000011003148111647524234_);fill:url(#SVGID_00000025409020597430860310000012343182162626000044_);}
	
		.st72{clip-path:url(#SVGID_00000150098946276934818670000011003148111647524234_);fill:url(#SVGID_00000073694185037837111340000000404662598989606575_);}
	
		.st73{clip-path:url(#SVGID_00000150098946276934818670000011003148111647524234_);fill:url(#SVGID_00000135654938856328992550000010253587061159580573_);}
	
		.st74{clip-path:url(#SVGID_00000150098946276934818670000011003148111647524234_);fill:url(#SVGID_00000181766758295666765050000014949689325713337511_);}
	
		.st75{clip-path:url(#SVGID_00000150098946276934818670000011003148111647524234_);fill:url(#SVGID_00000021819181026662902520000013913474717335605423_);}
	
		.st76{clip-path:url(#SVGID_00000150098946276934818670000011003148111647524234_);fill:url(#SVGID_00000006668363906905859160000004762697467473206714_);}
	
		.st77{clip-path:url(#SVGID_00000150098946276934818670000011003148111647524234_);fill:url(#SVGID_00000012458118275098780750000001310770754271047065_);}
	
		.st78{clip-path:url(#SVGID_00000150098946276934818670000011003148111647524234_);fill:url(#SVGID_00000036228086774861104220000015749323664513753240_);}
	
		.st79{clip-path:url(#SVGID_00000150098946276934818670000011003148111647524234_);fill:url(#SVGID_00000075151141561329723190000004519382570659781034_);}
	.st80{fill:url(#SVGID_00000072277946953147169830000000654951318609208504_);}
	.st81{fill:url(#SVGID_00000038376160830124812570000010024425424881594753_);}
	.st82{fill:url(#SVGID_00000143592442418082744260000005888123259308254357_);}
	.st83{fill:url(#SVGID_00000101094708550676142340000011258025611515453092_);}
	.st84{fill:url(#SVGID_00000041979510342441495700000002239406248788733844_);}
	.st85{fill:url(#SVGID_00000152945479279672863010000016546755965586160264_);}
	.st86{fill:url(#SVGID_00000137125009749546962960000016169825747741365666_);}
	.st87{fill:url(#SVGID_00000132775338672187960310000014478515113660662150_);}
	.st88{fill:url(#SVGID_00000121263234986241744240000009021337655716921504_);}
	.st89{fill:url(#SVGID_00000176015896183709016280000005056096285116072592_);}
	.st90{clip-path:url(#SVGID_00000029745428902391562860000001363992108477206463_);}
	.st91{fill:url(#SVGID_00000181056530406087506720000017606953862271583148_);}
	.st92{fill:url(#SVGID_00000127029156149681739730000012245405098842726053_);}
	.st93{fill:url(#SVGID_00000142133856464201881660000013308376433091546793_);}
	.st94{fill:url(#SVGID_00000030484055917125392360000007458654857773489313_);}
	.st95{fill:url(#SVGID_00000170959646242619139840000012227446100202454462_);}
	.st96{fill:url(#SVGID_00000139270296605193901080000014214350685870339481_);}
	.st97{fill:url(#SVGID_00000139992808561582380720000016631002071825748374_);}
	.st98{fill:none;stroke:#666364;stroke-miterlimit:10;}
	.st99{fill:#666364;}
	.st100{fill:#FFFFFF;}
	.st101{fill:#C1C0C1;}
	.st102{fill:none;stroke:#4F4C4D;stroke-width:0.0179;stroke-miterlimit:10;}
	.st103{fill:#D5D4D5;}
	.st104{clip-path:url(#SVGID_00000170246052758488327220000012799157331420276612_);}
	.st105{fill:none;stroke:#4F4C4D;stroke-width:0.8884;stroke-linecap:round;stroke-linejoin:round;stroke-miterlimit:10;}
	.st106{fill:none;stroke:#4F4C4D;stroke-width:0.8448;stroke-linecap:round;stroke-linejoin:round;stroke-miterlimit:10;}
	.st107{fill:none;stroke:#4F4C4D;stroke-width:0.9746;stroke-linecap:round;stroke-linejoin:round;stroke-miterlimit:10;}
	.st108{fill:none;stroke:#4F4C4D;stroke-width:0.8608;stroke-linecap:round;stroke-linejoin:round;stroke-miterlimit:10;}
	
		.st109{fill:none;stroke:#4F4C4D;stroke-width:0.8608;stroke-linecap:round;stroke-linejoin:round;stroke-miterlimit:10;stroke-dasharray:1.0632;}
	.st110{fill:none;stroke:#4F4C4D;stroke-width:0.9757;stroke-linecap:round;stroke-linejoin:round;stroke-miterlimit:10;}
	.st111{fill:none;stroke:#4F4C4D;stroke-width:1.1046;stroke-linecap:round;stroke-linejoin:round;stroke-miterlimit:10;}
	.st112{fill:none;stroke:#4F4C4D;stroke-width:1.0333;stroke-linecap:round;stroke-linejoin:round;stroke-miterlimit:10;}
	
		.st113{fill:none;stroke:#4F4C4D;stroke-width:1.0333;stroke-linecap:round;stroke-linejoin:round;stroke-miterlimit:10;stroke-dasharray:1.2;}
	.st114{fill:none;stroke:#4F4C4D;stroke-linecap:round;stroke-linejoin:round;stroke-miterlimit:10;}
	.st115{fill:none;stroke:#4F4C4D;stroke-linecap:round;stroke-linejoin:round;stroke-miterlimit:10;stroke-dasharray:1.0878;}
</style>
<g>
	<g>
		<path class="st0" d="M27.36,60.49L2.69,46.25V17.76L27.36,3.52l24.67,14.24v28.48L27.36,60.49z M4.53,45.18l22.83,13.18
			l22.83-13.18V18.83L27.36,5.65L4.53,18.83V45.18z"/>
	</g>
</g>
<g>
	<g>
		<g>
			<g>
				<path class="st100" d="M29.22,13.48v4.9h-3.63v-5.05c0.41,0.13,0.83,0.24,1.24,0.29C27.62,13.71,28.45,13.69,29.22,13.48z"/>
				<path class="st0" d="M29.69,18.85h-4.58v-6.16l0.61,0.19c0.32,0.1,0.74,0.22,1.16,0.27c0.79,0.09,1.56,0.05,2.21-0.13l0.59-0.16
					V18.85z M26.06,17.9h2.69v-3.84c-0.62,0.1-1.28,0.11-1.97,0.03c-0.25-0.03-0.49-0.08-0.72-0.13V17.9z"/>
			</g>
			<g>
				<path class="st0" d="M20.63,14.59l-0.84-0.42c0.49-0.99,1.66-1.77,2.83-1.9c0.93-0.1,1.81,0.18,2.66,0.46l0.46,0.15
					c0.32,0.1,0.74,0.22,1.16,0.27c0.79,0.09,1.56,0.05,2.21-0.13c0.49-0.13,0.93-0.34,1.3-0.63l0.57,0.75
					c-0.47,0.36-1.01,0.62-1.62,0.79c-0.78,0.21-1.65,0.27-2.57,0.15c-0.49-0.06-0.97-0.2-1.33-0.31l-0.47-0.15
					c-0.79-0.26-1.52-0.51-2.26-0.42C21.87,13.3,20.98,13.89,20.63,14.59z"/>
			</g>
			<g>
				<path class="st101" d="M22.66,12.74c-0.96,0.11-2.02,0.76-2.46,1.64"/>
				<g>
					<path class="st0" d="M22.66,12.29c-1.15,0.13-2.31,0.81-2.84,1.86c-0.11,0.21-0.06,0.5,0.16,0.61c0.2,0.11,0.5,0.06,0.61-0.16
						c0.05-0.11,0.11-0.21,0.18-0.3c0.01-0.01,0.07-0.09,0.03-0.04c-0.04,0.05,0.02-0.03,0.03-0.04c0.04-0.05,0.08-0.09,0.12-0.14
						c0.08-0.09,0.17-0.17,0.27-0.25c0.02-0.02,0.05-0.04,0.07-0.06c0.05-0.04-0.08,0.06,0.01-0.01c0.05-0.04,0.1-0.07,0.15-0.11
						c0.1-0.07,0.21-0.13,0.32-0.19c0.06-0.03,0.11-0.05,0.17-0.08c0.04-0.02,0.03-0.01,0,0c0.03-0.01,0.06-0.02,0.09-0.03
						c0.11-0.04,0.23-0.08,0.35-0.11c0.06-0.01,0.12-0.03,0.17-0.04c0.03-0.01,0.06-0.01,0.09-0.02c0.1-0.02-0.09,0.01,0.02,0
						c0.23-0.03,0.46-0.19,0.45-0.45C23.1,12.52,22.91,12.26,22.66,12.29L22.66,12.29z"/>
				</g>
			</g>
			<g>
				<path class="st101" d="M30.68,12.77c-0.44,0.33-0.93,0.56-1.46,0.71"/>
				<g>
					<path class="st0" d="M30.45,12.39c-0.27,0.2-0.56,0.37-0.87,0.5c0.04-0.02,0.07-0.03,0.11-0.05c-0.19,0.08-0.39,0.15-0.59,0.2
						c-0.23,0.06-0.39,0.32-0.31,0.55c0.07,0.23,0.31,0.38,0.55,0.31c0.56-0.15,1.1-0.4,1.57-0.75c0.1-0.07,0.17-0.15,0.21-0.27
						c0.03-0.11,0.02-0.25-0.05-0.35c-0.06-0.1-0.15-0.18-0.27-0.21C30.69,12.32,30.55,12.32,30.45,12.39L30.45,12.39z"/>
				</g>
			</g>
		</g>
		<g>
			<path class="st100" d="M30.71,23.11h-6.62v-4.87c0-0.06,0.05-0.12,0.12-0.12h6.39c0.06,0,0.12,0.05,0.12,0.12V23.11z"/>
			<path class="st0" d="M31.18,23.58h-7.56v-4.37c0-0.86,0.7-1.56,1.56-1.56h4.44c0.86,0,1.56,0.7,1.56,1.56V23.58z M24.56,22.64
				h5.68v-3.42c0-0.34-0.28-0.62-0.62-0.62h-4.44c-0.34,0-0.62,0.28-0.62,0.62V22.64z"/>
		</g>
		<g>
			<path class="st100" d="M36.31,30.31v19.48c0,0.61-3.99,1.11-8.91,1.11c-4.93,0-8.91-0.5-8.91-1.11V30.31
				c0-4.92,3.99-8.91,8.91-8.91c2.46,0,4.69,1,6.3,2.61C35.32,25.62,36.31,27.85,36.31,30.31z"/>
			<path class="st0" d="M27.4,51.37c-3.51,0-9.39-0.21-9.39-1.58V30.31c0-5.18,4.21-9.39,9.39-9.39c2.51,0,4.87,0.98,6.64,2.75
				c1.77,1.77,2.75,4.13,2.75,6.63v19.48C36.78,51.17,30.9,51.37,27.4,51.37z M18.96,49.64c0.62,0.34,3.73,0.79,8.44,0.79
				c4.71,0,7.82-0.44,8.44-0.79V30.31c0-2.25-0.88-4.37-2.47-5.97c-1.59-1.6-3.71-2.47-5.97-2.47c-4.66,0-8.44,3.79-8.44,8.44V49.64
				z"/>
		</g>
		<g>
			<path class="st100" d="M32.47,48.06c-1.44,0.12-3.18,0.2-5.07,0.2c-4.93,0-8.91-0.5-8.91-1.11"/>
			<path class="st0" d="M27.4,48.73c-3.51,0-9.39-0.21-9.39-1.58h0.94c0-0.11-0.05-0.18-0.07-0.2c0.4,0.35,3.58,0.83,8.52,0.83
				c1.81,0,3.55-0.07,5.03-0.19l0.08,0.94C31,48.66,29.24,48.73,27.4,48.73z"/>
		</g>
		<g>
			<path class="st101" d="M32.47,48.06c-1.44,0.12-3.18,0.2-5.07,0.2"/>
			<g>
				<path class="st0" d="M32.47,47.61c-1.68,0.14-3.38,0.19-5.07,0.2c-0.58,0-0.58,0.9,0,0.9c1.69,0,3.38-0.05,5.07-0.2
					C33.04,48.46,33.04,47.56,32.47,47.61L32.47,47.61z"/>
			</g>
		</g>
	</g>
	<g>
		<g>
			<g>
				<path class="st100" d="M27.67,45.28c0,0-3.66-0.89-3.66-5.37c0-4.85,3.66-9.02,3.66-9.02s3.66,4.06,3.66,9.02
					c0,2.29-0.87,3.63-1.76,4.39"/>
				<path class="st0" d="M27.55,45.74c-0.04-0.01-4.02-1.03-4.02-5.83c0-4.97,3.62-9.15,3.77-9.33l0.35-0.4l0.36,0.39
					c0.15,0.17,3.78,4.25,3.78,9.34c0,2.56-1.05,4-1.92,4.75l-0.61-0.71c1.06-0.91,1.59-2.27,1.59-4.03c0-3.81-2.29-7.12-3.18-8.27
					c-0.89,1.17-3.19,4.54-3.19,8.27c0,4.04,3.16,4.88,3.3,4.91L27.55,45.74z"/>
			</g>
			<g>
				<path class="st0" d="M27.22,36.06c0,3.54,0,7.09,0,10.63c0,0.5,0,1,0,1.5c0,0.58,0.9,0.58,0.9,0c0-3.54,0-7.09,0-10.63
					c0-0.5,0-1,0-1.5C28.11,35.49,27.22,35.49,27.22,36.06L27.22,36.06z"/>
			</g>
		</g>
		<g>
			<path class="st0" d="M30.88,39.91c0,0.87-0.13,1.78-0.5,2.57c-0.28,0.61-0.63,1.07-1.13,1.51c-0.18,0.16-0.16,0.47,0,0.63
				c0.18,0.18,0.45,0.16,0.63,0c1.36-1.18,1.88-2.96,1.89-4.71C31.77,39.34,30.88,39.33,30.88,39.91L30.88,39.91z"/>
		</g>
	</g>
</g>
</svg>
