<?xml version="1.0" encoding="utf-8"?>
<!-- Generator: Adobe Illustrator 27.2.0, SVG Export Plug-In . SVG Version: 6.00 Build 0)  -->
<svg version="1.1" id="Layer_1" xmlns="http://www.w3.org/2000/svg" xmlns:xlink="http://www.w3.org/1999/xlink" x="0px" y="0px"
	 viewBox="0 0 54.72 63.62" style="enable-background:new 0 0 54.72 63.62;" xml:space="preserve">
<style type="text/css">
	.st0{fill:#4F4C4D;}
	.st1{fill:url(#SVGID_1_);}
	.st2{fill:url(#SVGID_00000117661495736370593170000017709689762915548064_);}
	
		.st3{clip-path:url(#SVGID_00000082333864213324668670000000068945316765865896_);fill:url(#SVGID_00000061444479812615692530000010834527892138637749_);}
	
		.st4{clip-path:url(#SVGID_00000082333864213324668670000000068945316765865896_);fill:url(#SVGID_00000026163478533569908320000006098998457946493322_);}
	
		.st5{clip-path:url(#SVGID_00000082333864213324668670000000068945316765865896_);fill:url(#SVGID_00000119097087512626225050000016470760726153097108_);}
	
		.st6{clip-path:url(#SVGID_00000082333864213324668670000000068945316765865896_);fill:url(#SVGID_00000141453823325460101260000011409381576496988032_);}
	
		.st7{clip-path:url(#SVGID_00000082333864213324668670000000068945316765865896_);fill:url(#SVGID_00000100373848115012373120000001550529235007573411_);}
	
		.st8{clip-path:url(#SVGID_00000082333864213324668670000000068945316765865896_);fill:url(#SVGID_00000157287778582482404850000003222937118545524645_);}
	
		.st9{clip-path:url(#SVGID_00000082333864213324668670000000068945316765865896_);fill:url(#SVGID_00000028295122543989314320000015291638712537596086_);}
	
		.st10{clip-path:url(#SVGID_00000082333864213324668670000000068945316765865896_);fill:url(#SVGID_00000098219730902508580960000004599828666332000404_);}
	
		.st11{clip-path:url(#SVGID_00000082333864213324668670000000068945316765865896_);fill:url(#SVGID_00000025444128027766617900000014955394781982407614_);}
	
		.st12{clip-path:url(#SVGID_00000082333864213324668670000000068945316765865896_);fill:url(#SVGID_00000170244244912790200480000015135076303789928098_);}
	
		.st13{clip-path:url(#SVGID_00000082333864213324668670000000068945316765865896_);fill:url(#SVGID_00000142876588848466717200000006213554536467378569_);}
	
		.st14{clip-path:url(#SVGID_00000082333864213324668670000000068945316765865896_);fill:url(#SVGID_00000150094611220694861410000001770127680336171706_);}
	
		.st15{clip-path:url(#SVGID_00000082333864213324668670000000068945316765865896_);fill:url(#SVGID_00000089532313289052151560000015364428702929812637_);}
	
		.st16{clip-path:url(#SVGID_00000082333864213324668670000000068945316765865896_);fill:url(#SVGID_00000178190718556003569490000002359326834770624413_);}
	
		.st17{clip-path:url(#SVGID_00000082333864213324668670000000068945316765865896_);fill:url(#SVGID_00000065793461383260338720000003276257762443139204_);}
	
		.st18{clip-path:url(#SVGID_00000082333864213324668670000000068945316765865896_);fill:url(#SVGID_00000155128717935053043420000017733028136447573905_);}
	.st19{clip-path:url(#SVGID_00000082333864213324668670000000068945316765865896_);}
	.st20{fill:url(#SVGID_00000020361780981684448460000001821065898307967402_);}
	.st21{fill:url(#SVGID_00000146470344471040065600000014404346729351870390_);}
	.st22{fill:url(#SVGID_00000004508741486917445280000013592760301386870414_);}
	.st23{fill:url(#SVGID_00000124857603367975298020000006567398567845710495_);}
	
		.st24{clip-path:url(#SVGID_00000082333864213324668670000000068945316765865896_);fill:url(#SVGID_00000075880083153915686540000013999154109729369786_);}
	
		.st25{clip-path:url(#SVGID_00000082333864213324668670000000068945316765865896_);fill:url(#SVGID_00000082337900144330556570000008296800057155012233_);}
	
		.st26{clip-path:url(#SVGID_00000082333864213324668670000000068945316765865896_);fill:url(#SVGID_00000093880508828264400710000008867438630854145189_);}
	
		.st27{clip-path:url(#SVGID_00000082333864213324668670000000068945316765865896_);fill:url(#SVGID_00000119120079679739459260000006629965330869483680_);}
	
		.st28{clip-path:url(#SVGID_00000082333864213324668670000000068945316765865896_);fill:url(#SVGID_00000173864830904541632720000009974191000936981183_);}
	
		.st29{clip-path:url(#SVGID_00000082333864213324668670000000068945316765865896_);fill:url(#SVGID_00000074403030749688303820000003576326494967215275_);}
	
		.st30{clip-path:url(#SVGID_00000082333864213324668670000000068945316765865896_);fill:url(#SVGID_00000027573193265006197690000003507981713217466003_);}
	
		.st31{clip-path:url(#SVGID_00000082333864213324668670000000068945316765865896_);fill:url(#SVGID_00000065795496065677577620000010987087731408418201_);}
	
		.st32{clip-path:url(#SVGID_00000082333864213324668670000000068945316765865896_);fill:url(#SVGID_00000060024397622728799480000014485668696141072520_);}
	
		.st33{clip-path:url(#SVGID_00000082333864213324668670000000068945316765865896_);fill:url(#SVGID_00000073000430947269275630000000656408460392692403_);}
	
		.st34{clip-path:url(#SVGID_00000082333864213324668670000000068945316765865896_);fill:url(#SVGID_00000169559421242914526340000009128831674714442429_);}
	
		.st35{clip-path:url(#SVGID_00000082333864213324668670000000068945316765865896_);fill:url(#SVGID_00000139262416548031229810000017957171980665474443_);}
	
		.st36{clip-path:url(#SVGID_00000082333864213324668670000000068945316765865896_);fill:url(#SVGID_00000137094917052172841580000010522888209386695836_);}
	
		.st37{clip-path:url(#SVGID_00000082333864213324668670000000068945316765865896_);fill:url(#SVGID_00000088101330993090428600000015237268203027659157_);}
	
		.st38{clip-path:url(#SVGID_00000082333864213324668670000000068945316765865896_);fill:url(#SVGID_00000181781593462354964110000006598342038095408277_);}
	
		.st39{clip-path:url(#SVGID_00000082333864213324668670000000068945316765865896_);fill:url(#SVGID_00000096743939799631788900000002465307763084797840_);}
	.st40{fill:url(#SVGID_00000013159339371281322470000002049729482485470370_);}
	.st41{fill:url(#SVGID_00000159452712506270496090000013240030463491347329_);}
	.st42{fill:url(#SVGID_00000034049414611334291880000006814286758516129947_);}
	.st43{fill:url(#SVGID_00000165214995483729597700000017834890606272721036_);}
	
		.st44{clip-path:url(#SVGID_00000082333864213324668670000000068945316765865896_);fill:url(#SVGID_00000096033227831161620720000011406870177869050503_);}
	
		.st45{clip-path:url(#SVGID_00000082333864213324668670000000068945316765865896_);fill:url(#SVGID_00000093156739349941473880000003003637573223691912_);}
	
		.st46{clip-path:url(#SVGID_00000082333864213324668670000000068945316765865896_);fill:url(#SVGID_00000091702728137610810270000013989328486621479846_);}
	
		.st47{clip-path:url(#SVGID_00000082333864213324668670000000068945316765865896_);fill:url(#SVGID_00000085933843955403795110000012135716085224701864_);}
	
		.st48{clip-path:url(#SVGID_00000082333864213324668670000000068945316765865896_);fill:url(#SVGID_00000181791233302611117700000005694962623456365245_);}
	
		.st49{clip-path:url(#SVGID_00000082333864213324668670000000068945316765865896_);fill:url(#SVGID_00000179638505751612117980000006292059954475694266_);}
	
		.st50{clip-path:url(#SVGID_00000082333864213324668670000000068945316765865896_);fill:url(#SVGID_00000008144468550577064070000006887850726265835708_);}
	
		.st51{clip-path:url(#SVGID_00000082333864213324668670000000068945316765865896_);fill:url(#SVGID_00000177443317088059644520000015796747879303664059_);}
	
		.st52{clip-path:url(#SVGID_00000082333864213324668670000000068945316765865896_);fill:url(#SVGID_00000041256008633960004880000004417515879932333726_);}
	
		.st53{clip-path:url(#SVGID_00000082333864213324668670000000068945316765865896_);fill:url(#SVGID_00000096048626699761224860000009781871427044343438_);}
	
		.st54{clip-path:url(#SVGID_00000082333864213324668670000000068945316765865896_);fill:url(#SVGID_00000142160936610937969950000013972699583040206003_);}
	
		.st55{clip-path:url(#SVGID_00000082333864213324668670000000068945316765865896_);fill:url(#SVGID_00000120522055728911999620000011466158006704191885_);}
	
		.st56{clip-path:url(#SVGID_00000082333864213324668670000000068945316765865896_);fill:url(#SVGID_00000103227279842201232980000011903188916284753822_);}
	
		.st57{clip-path:url(#SVGID_00000082333864213324668670000000068945316765865896_);fill:url(#SVGID_00000145765241364797169730000005899458302163312768_);}
	
		.st58{clip-path:url(#SVGID_00000082333864213324668670000000068945316765865896_);fill:url(#SVGID_00000039829004341863545180000003417572561244621729_);}
	
		.st59{clip-path:url(#SVGID_00000082333864213324668670000000068945316765865896_);fill:url(#SVGID_00000036236784811847902410000010285077441186179258_);}
	.st60{fill:url(#SVGID_00000011021507398803118510000016482536765062966435_);}
	.st61{fill:url(#SVGID_00000182521663354390024770000010031500412438104483_);}
	.st62{fill:url(#SVGID_00000163787634219604794990000002017481505130010271_);}
	.st63{fill:url(#SVGID_00000118367224231181179230000010661761660855800751_);}
	
		.st64{clip-path:url(#SVGID_00000082333864213324668670000000068945316765865896_);fill:url(#SVGID_00000161595001597846601900000007571662113545053371_);}
	
		.st65{clip-path:url(#SVGID_00000082333864213324668670000000068945316765865896_);fill:url(#SVGID_00000033337156869454136560000006671146740076137105_);}
	
		.st66{clip-path:url(#SVGID_00000082333864213324668670000000068945316765865896_);fill:url(#SVGID_00000096765149768952890750000005089719515421957821_);}
	
		.st67{clip-path:url(#SVGID_00000082333864213324668670000000068945316765865896_);fill:url(#SVGID_00000074401877748029795980000003566041478043114922_);}
	
		.st68{clip-path:url(#SVGID_00000082333864213324668670000000068945316765865896_);fill:url(#SVGID_00000162330388846534969110000008449261247467197868_);}
	
		.st69{clip-path:url(#SVGID_00000082333864213324668670000000068945316765865896_);fill:url(#SVGID_00000079480482597838880670000007405479576545725341_);}
	
		.st70{clip-path:url(#SVGID_00000082333864213324668670000000068945316765865896_);fill:url(#SVGID_00000171706950812800271440000014804826535568153757_);}
	
		.st71{clip-path:url(#SVGID_00000082333864213324668670000000068945316765865896_);fill:url(#SVGID_00000000225095472977533570000001981980463640861859_);}
	
		.st72{clip-path:url(#SVGID_00000082333864213324668670000000068945316765865896_);fill:url(#SVGID_00000000195877944184124430000000383240148530265009_);}
	
		.st73{clip-path:url(#SVGID_00000082333864213324668670000000068945316765865896_);fill:url(#SVGID_00000000912983264623926370000010649381753957276060_);}
	
		.st74{clip-path:url(#SVGID_00000082333864213324668670000000068945316765865896_);fill:url(#SVGID_00000164492643588507571410000009145222121944555915_);}
	
		.st75{clip-path:url(#SVGID_00000082333864213324668670000000068945316765865896_);fill:url(#SVGID_00000049908609127393072760000010866506813170196619_);}
	
		.st76{clip-path:url(#SVGID_00000082333864213324668670000000068945316765865896_);fill:url(#SVGID_00000181075402518064984400000015903680937424404663_);}
	
		.st77{clip-path:url(#SVGID_00000082333864213324668670000000068945316765865896_);fill:url(#SVGID_00000163057846834332062130000014512415846763868093_);}
	
		.st78{clip-path:url(#SVGID_00000082333864213324668670000000068945316765865896_);fill:url(#SVGID_00000102512006534639707090000001186208900949709207_);}
	
		.st79{clip-path:url(#SVGID_00000082333864213324668670000000068945316765865896_);fill:url(#SVGID_00000016067260636418518510000007242122994224920990_);}
	.st80{fill:url(#SVGID_00000063628383718015724430000002900417376378207628_);}
	.st81{fill:url(#SVGID_00000088117565881450802610000005955136197748119973_);}
	.st82{fill:url(#SVGID_00000153665336021984077920000006890346623444220583_);}
	.st83{fill:url(#SVGID_00000116193928206642059990000005263390034901389999_);}
	.st84{fill:url(#SVGID_00000131359722731982138280000018204940021662202498_);}
	.st85{fill:url(#SVGID_00000042720588906033477120000012315269610104533942_);}
	.st86{fill:url(#SVGID_00000137843573525721054800000002541818885332944784_);}
	.st87{fill:url(#SVGID_00000143589857492312004600000003006168203065597365_);}
	.st88{fill:url(#SVGID_00000089532912370775542200000015146871007593286303_);}
	.st89{fill:url(#SVGID_00000038393447675567945810000007852606574783901624_);}
	.st90{clip-path:url(#SVGID_00000122683835917739685610000009878128919007408264_);}
	.st91{fill:url(#SVGID_00000064314696526615149290000009183322876221530257_);}
	.st92{fill:url(#SVGID_00000170971224550141961180000007267650237212763312_);}
	.st93{fill:url(#SVGID_00000180334749612072514300000018058245675655447986_);}
	.st94{fill:url(#SVGID_00000031911900959533417840000002724800924578198433_);}
	.st95{fill:url(#SVGID_00000053523701826911655240000001574422416369210502_);}
	.st96{fill:url(#SVGID_00000166654592920695088080000018383137522512774311_);}
	.st97{fill:url(#SVGID_00000106830980746410077250000013027157204399788426_);}
	.st98{fill:none;stroke:#666364;stroke-miterlimit:10;}
	.st99{fill:#666364;}
	.st100{fill:#FFFFFF;}
	.st101{fill:#C1C0C1;}
	.st102{fill:none;stroke:#4F4C4D;stroke-width:0.0179;stroke-miterlimit:10;}
	.st103{fill:#D5D4D5;}
	.st104{clip-path:url(#SVGID_00000073698764954996531220000000230413544131005368_);}
	.st105{fill:none;stroke:#4F4C4D;stroke-width:0.8884;stroke-linecap:round;stroke-linejoin:round;stroke-miterlimit:10;}
	.st106{fill:none;stroke:#4F4C4D;stroke-width:0.8448;stroke-linecap:round;stroke-linejoin:round;stroke-miterlimit:10;}
	.st107{fill:none;stroke:#4F4C4D;stroke-width:0.9746;stroke-linecap:round;stroke-linejoin:round;stroke-miterlimit:10;}
	.st108{fill:none;stroke:#4F4C4D;stroke-width:0.8608;stroke-linecap:round;stroke-linejoin:round;stroke-miterlimit:10;}
	
		.st109{fill:none;stroke:#4F4C4D;stroke-width:0.8608;stroke-linecap:round;stroke-linejoin:round;stroke-miterlimit:10;stroke-dasharray:1.0632;}
	.st110{fill:none;stroke:#4F4C4D;stroke-width:0.9757;stroke-linecap:round;stroke-linejoin:round;stroke-miterlimit:10;}
	.st111{fill:none;stroke:#4F4C4D;stroke-width:1.1046;stroke-linecap:round;stroke-linejoin:round;stroke-miterlimit:10;}
	.st112{fill:none;stroke:#4F4C4D;stroke-width:1.0333;stroke-linecap:round;stroke-linejoin:round;stroke-miterlimit:10;}
	
		.st113{fill:none;stroke:#4F4C4D;stroke-width:1.0333;stroke-linecap:round;stroke-linejoin:round;stroke-miterlimit:10;stroke-dasharray:1.2;}
	.st114{fill:none;stroke:#4F4C4D;stroke-linecap:round;stroke-linejoin:round;stroke-miterlimit:10;}
	.st115{fill:none;stroke:#4F4C4D;stroke-linecap:round;stroke-linejoin:round;stroke-miterlimit:10;stroke-dasharray:1.0878;}
</style>
<g>
	<g>
		<path class="st0" d="M27.36,60.49L2.69,46.25V17.76L27.36,3.52l24.67,14.24v28.48L27.36,60.49z M4.53,45.18l22.83,13.18
			l22.83-13.18V18.83L27.36,5.65L4.53,18.83V45.18z"/>
	</g>
</g>
<g>
	<g>
		<path class="st0" d="M42.94,31.56c0.96-4.29-1.36-8.59-4.63-11.25c-3.59-2.92-8.2-4.24-12.78-4.27c-0.64,0-0.64,0.99,0,0.99
			c4.19,0.03,8.44,1.18,11.79,3.76c3.14,2.42,5.57,6.43,4.66,10.51C41.85,31.92,42.81,32.19,42.94,31.56L42.94,31.56z"/>
	</g>
	<g>
		<ellipse class="st100" cx="25.44" cy="48.91" rx="6.44" ry="2.68"/>
		<path class="st0" d="M25.44,52.1c-3.97,0-6.97-1.37-6.97-3.2c0-1.82,2.99-3.2,6.97-3.2s6.97,1.38,6.97,3.2
			C32.4,50.73,29.41,52.1,25.44,52.1z M25.44,46.75c-3.39,0-5.92,1.14-5.92,2.15c0,1.02,2.53,2.15,5.92,2.15
			c3.39,0,5.92-1.14,5.92-2.15C31.36,47.89,28.82,46.75,25.44,46.75z"/>
	</g>
	<g>
		<path class="st0" d="M26.03,19.61c0-1.15,0-2.29,0-3.44c0-0.64-0.99-0.64-0.99,0c0,2.29,0,4.59,0,6.88c0,0.64,0.99,0.64,0.99,0
			C26.03,21.9,26.03,20.75,26.03,19.61c0-0.64-0.99-0.64-0.99,0c0,1.15,0,2.29,0,3.44c0,0.64,0.99,0.64,0.99,0c0-2.29,0-4.59,0-6.88
			c0-0.64-0.99-0.64-0.99,0c0,1.15,0,2.29,0,3.44C25.03,20.25,26.03,20.25,26.03,19.61z"/>
	</g>
	<g>
		<ellipse class="st100" cx="25.53" cy="16.54" rx="1.59" ry="1.68"/>
		<path class="st0" d="M25.53,18.74c-1.17,0-2.11-0.99-2.11-2.21c0-1.22,0.95-2.21,2.11-2.21c1.17,0,2.11,0.99,2.11,2.21
			C27.64,17.75,26.7,18.74,25.53,18.74z M25.53,15.37c-0.59,0-1.07,0.52-1.07,1.16c0,0.64,0.48,1.16,1.07,1.16
			c0.59,0,1.07-0.52,1.07-1.16C26.6,15.9,26.12,15.37,25.53,15.37z"/>
	</g>
	<g>
		<path class="st100" d="M30.93,21.45c-0.34-0.33-0.78-0.53-1.27-0.53h-8.25c-0.49,0-0.93,0.2-1.27,0.53
			c-0.38,0.37-0.62,0.89-0.62,1.48v3.42h12.03v-3.42C31.55,22.34,31.31,21.81,30.93,21.45z"/>
		<path class="st0" d="M32.07,26.87H18.99v-3.94c0-0.71,0.28-1.37,0.78-1.85c0.45-0.43,1.03-0.67,1.64-0.67h8.25
			c0.6,0,1.18,0.24,1.63,0.67l0,0c0.5,0.49,0.78,1.15,0.78,1.85V26.87z M20.04,25.82h10.99v-2.9c0-0.42-0.16-0.81-0.46-1.1l0,0
			c-0.26-0.25-0.58-0.38-0.91-0.38h-8.25c-0.33,0-0.65,0.14-0.91,0.38c-0.3,0.29-0.46,0.68-0.46,1.1V25.82z"/>
	</g>
	<g>
		<path class="st100" d="M25.53,24.19L25.53,24.19L25.53,24.19c-6.74,0-12.2,4.23-12.2,9.44c0,0.08,0,0.17,0,0.25h0.01
			c0,0.01,0,0.02,0,0.03c-0.04,0.89,1.11,3.83,2.85,7.13c1.74,3.32,3.48,5.92,4.21,6.34h0.02c0.23,0.46,2.43,0.82,5.11,0.82
			c2.68,0,4.88-0.36,5.11-0.82h0.02c0.73-0.42,2.47-3.02,4.21-6.34c1.74-3.31,2.89-6.25,2.85-7.13c0-0.01,0-0.02,0-0.03h0.01
			c0-0.08,0-0.17,0-0.25C37.73,28.42,32.27,24.19,25.53,24.19z"/>
		<path class="st0" d="M25.53,48.73c-1.1,0-4.54-0.07-5.42-0.91c-0.98-0.6-2.9-3.71-4.38-6.54c-1.31-2.49-2.6-5.41-2.86-6.88h-0.02
			L12.8,34l0.01-0.07l0-0.02c0-0.09,0-0.18,0-0.27c0-5.49,5.71-9.96,12.72-9.96s12.72,4.47,12.72,9.96c0,0.09,0,0.18,0,0.27l0,0.04
			l0.01,0.1l-0.02,0.02l-0.05,0.34c-0.26,1.47-1.56,4.39-2.86,6.88c-1.48,2.83-3.4,5.93-4.38,6.54
			C30.07,48.66,26.63,48.73,25.53,48.73z M20.56,46.87h0.16l0.17,0.29c0.19,0.14,1.81,0.53,4.64,0.53c2.83,0,4.45-0.39,4.68-0.59
			l0.14-0.29l0.17,0.04c0.59-0.51,2.05-2.55,3.88-6.04c1.79-3.41,2.82-6.17,2.79-6.87l-0.01-0.14l0.01-0.02l0.01-0.34
			c-0.14-4.83-5.32-8.72-11.68-8.72c-6.33,0-11.51,3.87-11.67,8.68l0.02,0.41l-0.01,0.14c-0.03,0.7,1,3.46,2.79,6.87
			C18.51,44.35,20,46.4,20.56,46.87z"/>
	</g>
	<g>
		
			<ellipse transform="matrix(0.9705 -0.2412 0.2412 0.9705 -5.5044 10.965)" class="st100" cx="42.04" cy="27.97" rx="2.51" ry="3.97"/>
		<path class="st0" d="M42.6,32.39c-0.41,0-0.82-0.11-1.22-0.34c-1.01-0.56-1.85-1.77-2.25-3.23c-0.65-2.43,0.1-4.71,1.72-5.2
			c0.59-0.18,1.23-0.09,1.85,0.24c1.01,0.56,1.85,1.77,2.25,3.23c0.65,2.43-0.1,4.71-1.72,5.2C43.02,32.36,42.81,32.39,42.6,32.39z
			 M41.47,24.58c-0.11,0-0.22,0.02-0.32,0.05c-1.04,0.31-1.5,2.11-1.01,3.93c0.32,1.17,0.99,2.16,1.75,2.58
			c0.37,0.2,0.71,0.26,1.04,0.16h0c1.04-0.31,1.5-2.11,1.01-3.93c-0.32-1.17-0.99-2.16-1.75-2.58
			C41.94,24.65,41.7,24.58,41.47,24.58z"/>
	</g>
	<g>
		<path class="st0" d="M23.94,27.47c-3.27,0.02-7.27,2.09-7.31,5.76c-0.01,0.64,0.99,0.64,0.99,0c0.03-3.11,3.6-4.76,6.31-4.77
			C24.58,28.46,24.58,27.47,23.94,27.47L23.94,27.47z"/>
	</g>
</g>
</svg>
