<?xml version="1.0" encoding="utf-8"?>
<!-- Generator: Adobe Illustrator 27.2.0, SVG Export Plug-In . SVG Version: 6.00 Build 0)  -->
<svg version="1.1" id="Layer_1" xmlns="http://www.w3.org/2000/svg" xmlns:xlink="http://www.w3.org/1999/xlink" x="0px" y="0px"
	 viewBox="0 0 54.72 63.62" style="enable-background:new 0 0 54.72 63.62;" xml:space="preserve">
<style type="text/css">
	.st0{fill:#4F4C4D;}
	.st1{fill:url(#SVGID_1_);}
	.st2{fill:url(#SVGID_00000029730043199590797350000014980294900284743848_);}
	
		.st3{clip-path:url(#SVGID_00000118386209464404822390000014046600796166084764_);fill:url(#SVGID_00000062151868257889231770000000141299939209871787_);}
	
		.st4{clip-path:url(#SVGID_00000118386209464404822390000014046600796166084764_);fill:url(#SVGID_00000011729681162726139490000011706770439320577972_);}
	
		.st5{clip-path:url(#SVGID_00000118386209464404822390000014046600796166084764_);fill:url(#SVGID_00000183933836832832413000000010020207973033420933_);}
	
		.st6{clip-path:url(#SVGID_00000118386209464404822390000014046600796166084764_);fill:url(#SVGID_00000010290757703922607070000003521841018675902877_);}
	
		.st7{clip-path:url(#SVGID_00000118386209464404822390000014046600796166084764_);fill:url(#SVGID_00000165193287454674363370000009340891623542418076_);}
	
		.st8{clip-path:url(#SVGID_00000118386209464404822390000014046600796166084764_);fill:url(#SVGID_00000124858938627321075610000002437435630266060722_);}
	
		.st9{clip-path:url(#SVGID_00000118386209464404822390000014046600796166084764_);fill:url(#SVGID_00000090989052994694472410000006863563524827577243_);}
	
		.st10{clip-path:url(#SVGID_00000118386209464404822390000014046600796166084764_);fill:url(#SVGID_00000054241965492332578600000007068414551957523368_);}
	
		.st11{clip-path:url(#SVGID_00000118386209464404822390000014046600796166084764_);fill:url(#SVGID_00000145026284889973142280000018114122310486082492_);}
	
		.st12{clip-path:url(#SVGID_00000118386209464404822390000014046600796166084764_);fill:url(#SVGID_00000127762118894476102580000008424132190878850959_);}
	
		.st13{clip-path:url(#SVGID_00000118386209464404822390000014046600796166084764_);fill:url(#SVGID_00000115504151890128742650000017973218302101680260_);}
	
		.st14{clip-path:url(#SVGID_00000118386209464404822390000014046600796166084764_);fill:url(#SVGID_00000039838408938975820850000012271698567251643047_);}
	
		.st15{clip-path:url(#SVGID_00000118386209464404822390000014046600796166084764_);fill:url(#SVGID_00000095316349949608790870000007961334570156039312_);}
	
		.st16{clip-path:url(#SVGID_00000118386209464404822390000014046600796166084764_);fill:url(#SVGID_00000044866527395510364020000007448921499323731369_);}
	
		.st17{clip-path:url(#SVGID_00000118386209464404822390000014046600796166084764_);fill:url(#SVGID_00000137844423743498127550000008643581187532162218_);}
	
		.st18{clip-path:url(#SVGID_00000118386209464404822390000014046600796166084764_);fill:url(#SVGID_00000060730360302197847330000006697591251987523724_);}
	.st19{clip-path:url(#SVGID_00000118386209464404822390000014046600796166084764_);}
	.st20{fill:url(#SVGID_00000171688861404107338290000013443722961029532077_);}
	.st21{fill:url(#SVGID_00000064334036498395498010000001812816733820186031_);}
	.st22{fill:url(#SVGID_00000137094635392211978860000015057065356257118911_);}
	.st23{fill:url(#SVGID_00000163792000046509424690000014902051422144713134_);}
	
		.st24{clip-path:url(#SVGID_00000118386209464404822390000014046600796166084764_);fill:url(#SVGID_00000109713683372619787270000001422975659182053556_);}
	
		.st25{clip-path:url(#SVGID_00000118386209464404822390000014046600796166084764_);fill:url(#SVGID_00000111165171723586711130000006192250157508759988_);}
	
		.st26{clip-path:url(#SVGID_00000118386209464404822390000014046600796166084764_);fill:url(#SVGID_00000142134598237053369930000005740162096911490206_);}
	
		.st27{clip-path:url(#SVGID_00000118386209464404822390000014046600796166084764_);fill:url(#SVGID_00000077298978667979773020000014242186600076330933_);}
	
		.st28{clip-path:url(#SVGID_00000118386209464404822390000014046600796166084764_);fill:url(#SVGID_00000018218005732041286990000012095296228631771017_);}
	
		.st29{clip-path:url(#SVGID_00000118386209464404822390000014046600796166084764_);fill:url(#SVGID_00000139985269985531522290000015192579604272893314_);}
	
		.st30{clip-path:url(#SVGID_00000118386209464404822390000014046600796166084764_);fill:url(#SVGID_00000011004491040882954450000011184657828209317285_);}
	
		.st31{clip-path:url(#SVGID_00000118386209464404822390000014046600796166084764_);fill:url(#SVGID_00000051372058254689900490000002505941574017234573_);}
	
		.st32{clip-path:url(#SVGID_00000118386209464404822390000014046600796166084764_);fill:url(#SVGID_00000057870102847406055220000004792006698048081837_);}
	
		.st33{clip-path:url(#SVGID_00000118386209464404822390000014046600796166084764_);fill:url(#SVGID_00000027572784708876319450000010850996398575493296_);}
	
		.st34{clip-path:url(#SVGID_00000118386209464404822390000014046600796166084764_);fill:url(#SVGID_00000086666033530949990820000007112642495475567262_);}
	
		.st35{clip-path:url(#SVGID_00000118386209464404822390000014046600796166084764_);fill:url(#SVGID_00000064338870888719334180000016075886732819041688_);}
	
		.st36{clip-path:url(#SVGID_00000118386209464404822390000014046600796166084764_);fill:url(#SVGID_00000030448277500319105390000005642079000349411478_);}
	
		.st37{clip-path:url(#SVGID_00000118386209464404822390000014046600796166084764_);fill:url(#SVGID_00000182529424000836781560000010778764311028397229_);}
	
		.st38{clip-path:url(#SVGID_00000118386209464404822390000014046600796166084764_);fill:url(#SVGID_00000121274285280109229140000006267082549292474808_);}
	
		.st39{clip-path:url(#SVGID_00000118386209464404822390000014046600796166084764_);fill:url(#SVGID_00000122000353058901896450000010167839006343925926_);}
	.st40{fill:url(#SVGID_00000165227473443173526450000004229045285870411705_);}
	.st41{fill:url(#SVGID_00000102543774464756335560000005561296325336601765_);}
	.st42{fill:url(#SVGID_00000051382682817348206180000000084345796065008791_);}
	.st43{fill:url(#SVGID_00000107554956974341804010000013677570410173934782_);}
	
		.st44{clip-path:url(#SVGID_00000118386209464404822390000014046600796166084764_);fill:url(#SVGID_00000131334106758887462600000003869702631478367390_);}
	
		.st45{clip-path:url(#SVGID_00000118386209464404822390000014046600796166084764_);fill:url(#SVGID_00000067942600232811235470000011894847304780260263_);}
	
		.st46{clip-path:url(#SVGID_00000118386209464404822390000014046600796166084764_);fill:url(#SVGID_00000142878925343454497720000005176666751284134811_);}
	
		.st47{clip-path:url(#SVGID_00000118386209464404822390000014046600796166084764_);fill:url(#SVGID_00000168109545429238421440000000781750967866188956_);}
	
		.st48{clip-path:url(#SVGID_00000118386209464404822390000014046600796166084764_);fill:url(#SVGID_00000034047338860018460580000008775974903997575355_);}
	
		.st49{clip-path:url(#SVGID_00000118386209464404822390000014046600796166084764_);fill:url(#SVGID_00000106126682248136255280000010453987153641347722_);}
	
		.st50{clip-path:url(#SVGID_00000118386209464404822390000014046600796166084764_);fill:url(#SVGID_00000174567905715102140740000002812461558085910937_);}
	
		.st51{clip-path:url(#SVGID_00000118386209464404822390000014046600796166084764_);fill:url(#SVGID_00000075147122016229404090000008236345927410477744_);}
	
		.st52{clip-path:url(#SVGID_00000118386209464404822390000014046600796166084764_);fill:url(#SVGID_00000060002967887439617330000014041836786967796395_);}
	
		.st53{clip-path:url(#SVGID_00000118386209464404822390000014046600796166084764_);fill:url(#SVGID_00000093144727581840548460000018045158669735140031_);}
	
		.st54{clip-path:url(#SVGID_00000118386209464404822390000014046600796166084764_);fill:url(#SVGID_00000109726016231971698370000012774156880867271300_);}
	
		.st55{clip-path:url(#SVGID_00000118386209464404822390000014046600796166084764_);fill:url(#SVGID_00000145760832191378558830000002390064083014156201_);}
	
		.st56{clip-path:url(#SVGID_00000118386209464404822390000014046600796166084764_);fill:url(#SVGID_00000026147114996888944090000012880869358714210692_);}
	
		.st57{clip-path:url(#SVGID_00000118386209464404822390000014046600796166084764_);fill:url(#SVGID_00000125583159903720142040000018005138027915613868_);}
	
		.st58{clip-path:url(#SVGID_00000118386209464404822390000014046600796166084764_);fill:url(#SVGID_00000114047820790003278970000005960371573997226882_);}
	
		.st59{clip-path:url(#SVGID_00000118386209464404822390000014046600796166084764_);fill:url(#SVGID_00000080167189570227855970000015613602678923624359_);}
	.st60{fill:url(#SVGID_00000073687123200803716910000016496411950382779552_);}
	.st61{fill:url(#SVGID_00000073711628914048646690000015061708656030256522_);}
	.st62{fill:url(#SVGID_00000020370179810831581060000004590874089863990185_);}
	.st63{fill:url(#SVGID_00000183246905269259119650000008172079238534991250_);}
	
		.st64{clip-path:url(#SVGID_00000118386209464404822390000014046600796166084764_);fill:url(#SVGID_00000004511803685751891450000012971212649853971356_);}
	
		.st65{clip-path:url(#SVGID_00000118386209464404822390000014046600796166084764_);fill:url(#SVGID_00000012435308658480152940000002701255032601994658_);}
	
		.st66{clip-path:url(#SVGID_00000118386209464404822390000014046600796166084764_);fill:url(#SVGID_00000007422358988258148410000006791431142355565997_);}
	
		.st67{clip-path:url(#SVGID_00000118386209464404822390000014046600796166084764_);fill:url(#SVGID_00000154393942063470323880000005068501258120992180_);}
	
		.st68{clip-path:url(#SVGID_00000118386209464404822390000014046600796166084764_);fill:url(#SVGID_00000165955828760188133050000007784197892232549509_);}
	
		.st69{clip-path:url(#SVGID_00000118386209464404822390000014046600796166084764_);fill:url(#SVGID_00000036218060992255427850000014163978152029357234_);}
	
		.st70{clip-path:url(#SVGID_00000118386209464404822390000014046600796166084764_);fill:url(#SVGID_00000061446336688358764460000003862721345717715635_);}
	
		.st71{clip-path:url(#SVGID_00000118386209464404822390000014046600796166084764_);fill:url(#SVGID_00000054265482095231867630000001319114927322018201_);}
	
		.st72{clip-path:url(#SVGID_00000118386209464404822390000014046600796166084764_);fill:url(#SVGID_00000053524254121539446240000009725463246028748730_);}
	
		.st73{clip-path:url(#SVGID_00000118386209464404822390000014046600796166084764_);fill:url(#SVGID_00000111180161368243894020000013848924453942519454_);}
	
		.st74{clip-path:url(#SVGID_00000118386209464404822390000014046600796166084764_);fill:url(#SVGID_00000057866044295333841210000009474283603428584075_);}
	
		.st75{clip-path:url(#SVGID_00000118386209464404822390000014046600796166084764_);fill:url(#SVGID_00000072260483987415446170000003136901080009671064_);}
	
		.st76{clip-path:url(#SVGID_00000118386209464404822390000014046600796166084764_);fill:url(#SVGID_00000165198953660107447790000014877878011952417157_);}
	
		.st77{clip-path:url(#SVGID_00000118386209464404822390000014046600796166084764_);fill:url(#SVGID_00000119836826170431650140000001380744335877300358_);}
	
		.st78{clip-path:url(#SVGID_00000118386209464404822390000014046600796166084764_);fill:url(#SVGID_00000009562757535397095690000005869546592980509346_);}
	
		.st79{clip-path:url(#SVGID_00000118386209464404822390000014046600796166084764_);fill:url(#SVGID_00000113321160090843652760000007556041939160472985_);}
	.st80{fill:url(#SVGID_00000080197175727008022190000014623045889534811826_);}
	.st81{fill:url(#SVGID_00000178206424606644431990000011198827736628198053_);}
	.st82{fill:url(#SVGID_00000087372328162441920170000010559086654536037799_);}
	.st83{fill:url(#SVGID_00000136406189480770530720000013269861780661476518_);}
	.st84{fill:url(#SVGID_00000048466958802817904220000011974155627605035686_);}
	.st85{fill:url(#SVGID_00000076575202278989835130000005828311755345931145_);}
	.st86{fill:url(#SVGID_00000177477697171616573920000010114856201813411214_);}
	.st87{fill:url(#SVGID_00000036244128737100125270000003798564451141941174_);}
	.st88{fill:url(#SVGID_00000056391384806739442670000001094367004476419258_);}
	.st89{fill:url(#SVGID_00000013882725254648252700000011705028555452522406_);}
	.st90{clip-path:url(#SVGID_00000114052729700520306980000007842549152588767166_);}
	.st91{fill:url(#SVGID_00000175308338397854664730000007009229540499719084_);}
	.st92{fill:url(#SVGID_00000181072199748103526060000001746384706943367099_);}
	.st93{fill:url(#SVGID_00000154420869880357998970000005597226731116319133_);}
	.st94{fill:url(#SVGID_00000025433559921290839380000000160067687863597218_);}
	.st95{fill:url(#SVGID_00000055683750154941640070000008686349811686286244_);}
	.st96{fill:url(#SVGID_00000081623747951688529800000013766675168778355584_);}
	.st97{fill:url(#SVGID_00000080908467454353228330000014762638543438168471_);}
	.st98{fill:none;stroke:#666364;stroke-miterlimit:10;}
	.st99{fill:#666364;}
	.st100{fill:#FFFFFF;}
	.st101{fill:#C1C0C1;}
	.st102{fill:none;stroke:#4F4C4D;stroke-width:0.0179;stroke-miterlimit:10;}
	.st103{fill:#D5D4D5;}
	.st104{clip-path:url(#SVGID_00000096782308806443702780000017923539673138647436_);}
	.st105{fill:none;stroke:#4F4C4D;stroke-width:0.8884;stroke-linecap:round;stroke-linejoin:round;stroke-miterlimit:10;}
	.st106{fill:none;stroke:#4F4C4D;stroke-width:0.8448;stroke-linecap:round;stroke-linejoin:round;stroke-miterlimit:10;}
	.st107{fill:none;stroke:#4F4C4D;stroke-width:0.9746;stroke-linecap:round;stroke-linejoin:round;stroke-miterlimit:10;}
	.st108{fill:none;stroke:#4F4C4D;stroke-width:0.8608;stroke-linecap:round;stroke-linejoin:round;stroke-miterlimit:10;}
	
		.st109{fill:none;stroke:#4F4C4D;stroke-width:0.8608;stroke-linecap:round;stroke-linejoin:round;stroke-miterlimit:10;stroke-dasharray:1.0632;}
	.st110{fill:none;stroke:#4F4C4D;stroke-width:0.9757;stroke-linecap:round;stroke-linejoin:round;stroke-miterlimit:10;}
	.st111{fill:none;stroke:#4F4C4D;stroke-width:1.1046;stroke-linecap:round;stroke-linejoin:round;stroke-miterlimit:10;}
	.st112{fill:none;stroke:#4F4C4D;stroke-width:1.0333;stroke-linecap:round;stroke-linejoin:round;stroke-miterlimit:10;}
	
		.st113{fill:none;stroke:#4F4C4D;stroke-width:1.0333;stroke-linecap:round;stroke-linejoin:round;stroke-miterlimit:10;stroke-dasharray:1.2;}
	.st114{fill:none;stroke:#4F4C4D;stroke-linecap:round;stroke-linejoin:round;stroke-miterlimit:10;}
	.st115{fill:none;stroke:#4F4C4D;stroke-linecap:round;stroke-linejoin:round;stroke-miterlimit:10;stroke-dasharray:1.0878;}
</style>
<g>
	<g>
		<path class="st0" d="M27.36,60.49L2.69,46.25V17.76L27.36,3.52l24.67,14.24v28.48L27.36,60.49z M4.53,45.18l22.83,13.18
			l22.83-13.18V18.83L27.36,5.65L4.53,18.83V45.18z"/>
	</g>
</g>
<g>
	<g>
		<path class="st0" d="M36.33,40.66H26.14v-0.88h10.19c1.44,0,2.79-0.57,3.8-1.59c0.98-1,1.51-2.32,1.49-3.7
			c0-0.19-0.02-0.31-0.02-0.32c-0.15-3.01-3.22-4.05-4.15-4.29c-0.31-0.08-0.52-0.36-0.5-0.68c0.03-0.6-0.01-1.5-0.12-2.61
			c-0.12-1.17-0.41-2.19-0.85-3.04c-2.19-4.2-6.49-3.98-6.67-3.97c-0.01,0-0.02,0-0.03,0c-5.05,0-6.91,5.3-7.23,6.36
			c-0.06,0.2-0.23,0.34-0.43,0.38c-0.21,0.03-0.42-0.06-0.53-0.24c-1.95-2.94-4.93-1.87-4.96-1.86c-3.46,0.89-3.47,4.49-3.44,5.21
			c0.01,0.27-0.18,0.51-0.46,0.54c-0.91,0.13-1.74,0.52-2.46,1.17c-1.6,1.44-2.11,3.78-1.25,5.69c0.07,0.15,0.14,0.29,0.21,0.43
			c0.47,0.84,1.2,1.53,2.11,1.97c0.74,0.37,1.58,0.56,2.43,0.56v0.88c-0.98,0-1.95-0.22-2.81-0.65c-1.07-0.53-1.94-1.33-2.49-2.34
			c-0.09-0.16-0.17-0.32-0.25-0.49c-1.01-2.26-0.41-5.02,1.47-6.71c0.77-0.7,1.65-1.14,2.63-1.34c0.01-1.17,0.36-4.82,4.06-5.77
			c-0.01,0,3.24-1.16,5.57,1.68c0.7-1.89,2.89-6.36,7.83-6.36c0.01,0,0.02,0,0.04,0c0.02,0,5.02-0.27,7.48,4.44
			c0.5,0.95,0.81,2.08,0.95,3.35c0.11,1.06,0.16,1.93,0.13,2.57c1.05,0.31,4.46,1.57,4.64,5.03c0,0,0.02,0.15,0.02,0.38
			c0.03,1.63-0.59,3.17-1.74,4.34C39.58,40,38,40.66,36.33,40.66z M12.09,29.08C12.09,29.08,12.09,29.08,12.09,29.08
			C12.09,29.08,12.09,29.08,12.09,29.08z M37.67,29.01C37.67,29.01,37.67,29.01,37.67,29.01C37.67,29.01,37.67,29.01,37.67,29.01z"
			/>
	</g>
	<g>
		<g>
			<g>
				<path class="st100" d="M19.26,44.43c0,0-3.87-0.94-3.87-5.67c0-5.12,3.87-9.53,3.87-9.53s3.87,4.29,3.87,9.53
					c0,2.42-0.92,3.83-1.86,4.64"/>
				<path class="st0" d="M19.16,44.86c-0.04-0.01-4.2-1.08-4.2-6.1c0-5.23,3.81-9.64,3.97-9.82l0.33-0.37l0.33,0.37
					c0.16,0.18,3.98,4.48,3.98,9.83c0,2.68-1.09,4.18-2.01,4.97l-0.57-0.67c1.13-0.97,1.7-2.42,1.7-4.31c0-4.12-2.5-7.67-3.42-8.84
					c-0.91,1.19-3.43,4.81-3.43,8.84c0,4.31,3.39,5.21,3.53,5.25L19.16,44.86z"/>
			</g>
			<g>
				<path class="st0" d="M18.84,34.69c0,3.49,0,6.98,0,10.46c0,0.49,0,0.99,0,1.48c0,0.54,0.84,0.54,0.84,0c0-3.49,0-6.98,0-10.46
					c0-0.49,0-0.99,0-1.48C19.68,34.15,18.84,34.15,18.84,34.69L18.84,34.69z"/>
			</g>
		</g>
		<g>
			<path class="st0" d="M22.71,38.76c-0.01,1.64-0.48,3.25-1.74,4.34c-0.41,0.35,0.19,0.94,0.59,0.59c1.43-1.24,1.97-3.1,1.98-4.93
				C23.55,38.22,22.71,38.22,22.71,38.76L22.71,38.76z"/>
		</g>
	</g>
	<g>
		<path class="st0" d="M29.12,39.8c-0.87,0-1.74,0-2.61,0c-0.12,0-0.25,0-0.37,0c-0.23,0-0.42,0.19-0.42,0.42
			c0,0.23,0.19,0.42,0.42,0.42c0.87,0,1.74,0,2.61,0c0.12,0,0.25,0,0.37,0c0.23,0,0.42-0.19,0.42-0.42
			C29.54,39.99,29.34,39.8,29.12,39.8L29.12,39.8z"/>
	</g>
	<g>
		<path class="st0" d="M13.25,39.8c-0.46,0-0.81-0.04-1.24-0.14c-0.42-0.1-0.82-0.24-1.17-0.41c-0.2-0.1-0.46-0.06-0.57,0.15
			c-0.1,0.19-0.06,0.47,0.15,0.57c0.88,0.43,1.85,0.66,2.83,0.66c0.22,0,0.43-0.19,0.42-0.42C13.66,39.99,13.49,39.8,13.25,39.8
			L13.25,39.8z"/>
	</g>
</g>
</svg>
