<?xml version="1.0" encoding="utf-8"?>
<!-- Generator: Adobe Illustrator 27.2.0, SVG Export Plug-In . SVG Version: 6.00 Build 0)  -->
<svg version="1.1" id="Layer_1" xmlns="http://www.w3.org/2000/svg" xmlns:xlink="http://www.w3.org/1999/xlink" x="0px" y="0px"
	 viewBox="0 0 54.72 63.62" style="enable-background:new 0 0 54.72 63.62;" xml:space="preserve">
<style type="text/css">
	.st0{fill:#4F4C4D;}
	.st1{fill:url(#SVGID_1_);}
	.st2{fill:url(#SVGID_00000123401679381656445100000000708017607064788889_);}
	
		.st3{clip-path:url(#SVGID_00000025444051416399531630000018146980871838578583_);fill:url(#SVGID_00000093137828356320506280000011069777200139557034_);}
	
		.st4{clip-path:url(#SVGID_00000025444051416399531630000018146980871838578583_);fill:url(#SVGID_00000024714400796496022390000015070262158963321490_);}
	
		.st5{clip-path:url(#SVGID_00000025444051416399531630000018146980871838578583_);fill:url(#SVGID_00000121959398353526752340000008403148314396469149_);}
	
		.st6{clip-path:url(#SVGID_00000025444051416399531630000018146980871838578583_);fill:url(#SVGID_00000132810254996328701890000013795271028956628874_);}
	
		.st7{clip-path:url(#SVGID_00000025444051416399531630000018146980871838578583_);fill:url(#SVGID_00000036223993823202768180000001892959000910169772_);}
	
		.st8{clip-path:url(#SVGID_00000025444051416399531630000018146980871838578583_);fill:url(#SVGID_00000130614186564193026360000006645953828104510625_);}
	
		.st9{clip-path:url(#SVGID_00000025444051416399531630000018146980871838578583_);fill:url(#SVGID_00000032650299746446778100000011408398701004801153_);}
	
		.st10{clip-path:url(#SVGID_00000025444051416399531630000018146980871838578583_);fill:url(#SVGID_00000180359954634675810490000001270412976871154575_);}
	
		.st11{clip-path:url(#SVGID_00000025444051416399531630000018146980871838578583_);fill:url(#SVGID_00000164511047592032746710000017156465873832305301_);}
	
		.st12{clip-path:url(#SVGID_00000025444051416399531630000018146980871838578583_);fill:url(#SVGID_00000011033183661719218800000009170117406210544048_);}
	
		.st13{clip-path:url(#SVGID_00000025444051416399531630000018146980871838578583_);fill:url(#SVGID_00000049222665926696063450000014330600020990993822_);}
	
		.st14{clip-path:url(#SVGID_00000025444051416399531630000018146980871838578583_);fill:url(#SVGID_00000129207598488893899380000016946281286770546105_);}
	
		.st15{clip-path:url(#SVGID_00000025444051416399531630000018146980871838578583_);fill:url(#SVGID_00000130615710380149024520000001646198656334075265_);}
	
		.st16{clip-path:url(#SVGID_00000025444051416399531630000018146980871838578583_);fill:url(#SVGID_00000027568967407862409200000016479219887352256141_);}
	
		.st17{clip-path:url(#SVGID_00000025444051416399531630000018146980871838578583_);fill:url(#SVGID_00000054950834409624797310000017155447562449723298_);}
	
		.st18{clip-path:url(#SVGID_00000025444051416399531630000018146980871838578583_);fill:url(#SVGID_00000054258500976689277500000004283904291713476998_);}
	.st19{clip-path:url(#SVGID_00000025444051416399531630000018146980871838578583_);}
	.st20{fill:url(#SVGID_00000077322728343150731850000010062017948432064921_);}
	.st21{fill:url(#SVGID_00000039100481335542131610000016055375225333036423_);}
	.st22{fill:url(#SVGID_00000056417792466948218670000004334491829746881458_);}
	.st23{fill:url(#SVGID_00000178913205307894826960000004054888015668797596_);}
	
		.st24{clip-path:url(#SVGID_00000025444051416399531630000018146980871838578583_);fill:url(#SVGID_00000073720228568901258080000000321805872380040347_);}
	
		.st25{clip-path:url(#SVGID_00000025444051416399531630000018146980871838578583_);fill:url(#SVGID_00000181085236010316410330000009168945896627859072_);}
	
		.st26{clip-path:url(#SVGID_00000025444051416399531630000018146980871838578583_);fill:url(#SVGID_00000109713243582573858650000007480485062734474173_);}
	
		.st27{clip-path:url(#SVGID_00000025444051416399531630000018146980871838578583_);fill:url(#SVGID_00000090979583289814460720000000367758880334214063_);}
	
		.st28{clip-path:url(#SVGID_00000025444051416399531630000018146980871838578583_);fill:url(#SVGID_00000070093449450997950660000010443868285082661821_);}
	
		.st29{clip-path:url(#SVGID_00000025444051416399531630000018146980871838578583_);fill:url(#SVGID_00000121985940969627274090000006214640996928562104_);}
	
		.st30{clip-path:url(#SVGID_00000025444051416399531630000018146980871838578583_);fill:url(#SVGID_00000106859433790396689230000010615425004738079673_);}
	
		.st31{clip-path:url(#SVGID_00000025444051416399531630000018146980871838578583_);fill:url(#SVGID_00000018926636332330281820000005661042401743048080_);}
	
		.st32{clip-path:url(#SVGID_00000025444051416399531630000018146980871838578583_);fill:url(#SVGID_00000130632905506916037500000011283865914153504422_);}
	
		.st33{clip-path:url(#SVGID_00000025444051416399531630000018146980871838578583_);fill:url(#SVGID_00000148628908297219176510000015343396430939488693_);}
	
		.st34{clip-path:url(#SVGID_00000025444051416399531630000018146980871838578583_);fill:url(#SVGID_00000134237479696006340740000016896493421238251433_);}
	
		.st35{clip-path:url(#SVGID_00000025444051416399531630000018146980871838578583_);fill:url(#SVGID_00000123428950470429802680000009125205250268979865_);}
	
		.st36{clip-path:url(#SVGID_00000025444051416399531630000018146980871838578583_);fill:url(#SVGID_00000013881036285270024350000013675855635136864184_);}
	
		.st37{clip-path:url(#SVGID_00000025444051416399531630000018146980871838578583_);fill:url(#SVGID_00000075878049281827055660000009395914908778129322_);}
	
		.st38{clip-path:url(#SVGID_00000025444051416399531630000018146980871838578583_);fill:url(#SVGID_00000103969721510632262490000014382540725179841923_);}
	
		.st39{clip-path:url(#SVGID_00000025444051416399531630000018146980871838578583_);fill:url(#SVGID_00000015343922882570925840000006414524681589363360_);}
	.st40{fill:url(#SVGID_00000070079327100438006460000004411223060382884225_);}
	.st41{fill:url(#SVGID_00000062160807421793059300000010787088053009724066_);}
	.st42{fill:url(#SVGID_00000005967554664769160810000003240475939694342328_);}
	.st43{fill:url(#SVGID_00000088103584087376301580000003638516499707166902_);}
	
		.st44{clip-path:url(#SVGID_00000025444051416399531630000018146980871838578583_);fill:url(#SVGID_00000011001664906940187820000000439492672006569880_);}
	
		.st45{clip-path:url(#SVGID_00000025444051416399531630000018146980871838578583_);fill:url(#SVGID_00000076602896947233109420000006177545219014253232_);}
	
		.st46{clip-path:url(#SVGID_00000025444051416399531630000018146980871838578583_);fill:url(#SVGID_00000052799168979669466560000002619597644740378000_);}
	
		.st47{clip-path:url(#SVGID_00000025444051416399531630000018146980871838578583_);fill:url(#SVGID_00000046328864021821075920000003092633133020243596_);}
	
		.st48{clip-path:url(#SVGID_00000025444051416399531630000018146980871838578583_);fill:url(#SVGID_00000098928392602123644540000004230705970777698447_);}
	
		.st49{clip-path:url(#SVGID_00000025444051416399531630000018146980871838578583_);fill:url(#SVGID_00000117659180918863002100000009650923174789525409_);}
	
		.st50{clip-path:url(#SVGID_00000025444051416399531630000018146980871838578583_);fill:url(#SVGID_00000000938299282496451800000010522281019683324067_);}
	
		.st51{clip-path:url(#SVGID_00000025444051416399531630000018146980871838578583_);fill:url(#SVGID_00000182497267548136937910000002698419884604595115_);}
	
		.st52{clip-path:url(#SVGID_00000025444051416399531630000018146980871838578583_);fill:url(#SVGID_00000067203684468108262630000000157677671710155183_);}
	
		.st53{clip-path:url(#SVGID_00000025444051416399531630000018146980871838578583_);fill:url(#SVGID_00000062911910660546084730000004310528734882659975_);}
	
		.st54{clip-path:url(#SVGID_00000025444051416399531630000018146980871838578583_);fill:url(#SVGID_00000173153911897851719620000007772746993123673745_);}
	
		.st55{clip-path:url(#SVGID_00000025444051416399531630000018146980871838578583_);fill:url(#SVGID_00000034772678088445604300000008795631429929062529_);}
	
		.st56{clip-path:url(#SVGID_00000025444051416399531630000018146980871838578583_);fill:url(#SVGID_00000071539220943255567490000000153509251403427743_);}
	
		.st57{clip-path:url(#SVGID_00000025444051416399531630000018146980871838578583_);fill:url(#SVGID_00000098204214984022457360000005821075075885951873_);}
	
		.st58{clip-path:url(#SVGID_00000025444051416399531630000018146980871838578583_);fill:url(#SVGID_00000175299437100473626950000009222676892988351664_);}
	
		.st59{clip-path:url(#SVGID_00000025444051416399531630000018146980871838578583_);fill:url(#SVGID_00000047023426930471507410000004618750478241986717_);}
	.st60{fill:url(#SVGID_00000157305535380952303860000010564131372564542112_);}
	.st61{fill:url(#SVGID_00000052817061896795187040000012945307107890147467_);}
	.st62{fill:url(#SVGID_00000034794949648613062950000017496128327515769485_);}
	.st63{fill:url(#SVGID_00000101823392660461896770000002449542697994724524_);}
	
		.st64{clip-path:url(#SVGID_00000025444051416399531630000018146980871838578583_);fill:url(#SVGID_00000038395486629514882840000007541462775154451093_);}
	
		.st65{clip-path:url(#SVGID_00000025444051416399531630000018146980871838578583_);fill:url(#SVGID_00000016041235156363000210000003703020053202506916_);}
	
		.st66{clip-path:url(#SVGID_00000025444051416399531630000018146980871838578583_);fill:url(#SVGID_00000074438942327006903500000007077846997809207988_);}
	
		.st67{clip-path:url(#SVGID_00000025444051416399531630000018146980871838578583_);fill:url(#SVGID_00000098928445672921525450000014857981689740974268_);}
	
		.st68{clip-path:url(#SVGID_00000025444051416399531630000018146980871838578583_);fill:url(#SVGID_00000126318719481241619510000009151443854129801118_);}
	
		.st69{clip-path:url(#SVGID_00000025444051416399531630000018146980871838578583_);fill:url(#SVGID_00000055708874795459889610000002002896363347144893_);}
	
		.st70{clip-path:url(#SVGID_00000025444051416399531630000018146980871838578583_);fill:url(#SVGID_00000111893372634176946980000013357541117442188202_);}
	
		.st71{clip-path:url(#SVGID_00000025444051416399531630000018146980871838578583_);fill:url(#SVGID_00000031896793453680436210000014575660168898425535_);}
	
		.st72{clip-path:url(#SVGID_00000025444051416399531630000018146980871838578583_);fill:url(#SVGID_00000092436484158779181630000017284804996183061909_);}
	
		.st73{clip-path:url(#SVGID_00000025444051416399531630000018146980871838578583_);fill:url(#SVGID_00000081642118418664470590000011215665475867648951_);}
	
		.st74{clip-path:url(#SVGID_00000025444051416399531630000018146980871838578583_);fill:url(#SVGID_00000010276449302820810100000006492243770794461604_);}
	
		.st75{clip-path:url(#SVGID_00000025444051416399531630000018146980871838578583_);fill:url(#SVGID_00000031918854753193482750000016932583349580347522_);}
	
		.st76{clip-path:url(#SVGID_00000025444051416399531630000018146980871838578583_);fill:url(#SVGID_00000075847801731605770990000009815312466205493405_);}
	
		.st77{clip-path:url(#SVGID_00000025444051416399531630000018146980871838578583_);fill:url(#SVGID_00000067932108068262232810000011195512931217002669_);}
	
		.st78{clip-path:url(#SVGID_00000025444051416399531630000018146980871838578583_);fill:url(#SVGID_00000109747463193992326220000002381402776294840717_);}
	
		.st79{clip-path:url(#SVGID_00000025444051416399531630000018146980871838578583_);fill:url(#SVGID_00000020396288714362156460000008103994020856219009_);}
	.st80{fill:url(#SVGID_00000074440209217041860540000003075075495830137244_);}
	.st81{fill:url(#SVGID_00000121272987262058863900000005002922094438618030_);}
	.st82{fill:url(#SVGID_00000054245583734693005380000006615955513821525424_);}
	.st83{fill:url(#SVGID_00000099644281509490349450000014638202911079224990_);}
	.st84{fill:url(#SVGID_00000134958652076228137480000002915254374781791146_);}
	.st85{fill:url(#SVGID_00000068672323521930952560000008854264987205329289_);}
	.st86{fill:url(#SVGID_00000019678433665699611530000004705025318391426993_);}
	.st87{fill:url(#SVGID_00000033340350326375135600000017319705212578501276_);}
	.st88{fill:url(#SVGID_00000101065448557620593310000005808673724290317485_);}
	.st89{fill:url(#SVGID_00000047056789902873651400000014738268497408212912_);}
	.st90{clip-path:url(#SVGID_00000163765512030138396610000009150410515069765560_);}
	.st91{fill:url(#SVGID_00000119097826404245126660000008719598064012853428_);}
	.st92{fill:url(#SVGID_00000130616838171122428940000017176523255134585997_);}
	.st93{fill:url(#SVGID_00000026135774865227354010000016857864687971876535_);}
	.st94{fill:url(#SVGID_00000011008204858967253650000011694658192515159945_);}
	.st95{fill:url(#SVGID_00000088815730060942920910000006036037574536134792_);}
	.st96{fill:url(#SVGID_00000035498318734881747870000004548007453041900680_);}
	.st97{fill:url(#SVGID_00000123405121879084564460000003718143936716571052_);}
	.st98{fill:none;stroke:#666364;stroke-miterlimit:10;}
	.st99{fill:#666364;}
	.st100{fill:#FFFFFF;}
	.st101{fill:#C1C0C1;}
	.st102{fill:none;stroke:#4F4C4D;stroke-width:0.0179;stroke-miterlimit:10;}
	.st103{fill:#D5D4D5;}
	.st104{clip-path:url(#SVGID_00000107579078156286433740000008914753277681650330_);}
	.st105{fill:none;stroke:#4F4C4D;stroke-width:0.8884;stroke-linecap:round;stroke-linejoin:round;stroke-miterlimit:10;}
	.st106{fill:none;stroke:#4F4C4D;stroke-width:0.8448;stroke-linecap:round;stroke-linejoin:round;stroke-miterlimit:10;}
	.st107{fill:none;stroke:#4F4C4D;stroke-width:0.9746;stroke-linecap:round;stroke-linejoin:round;stroke-miterlimit:10;}
	.st108{fill:none;stroke:#4F4C4D;stroke-width:0.8608;stroke-linecap:round;stroke-linejoin:round;stroke-miterlimit:10;}
	
		.st109{fill:none;stroke:#4F4C4D;stroke-width:0.8608;stroke-linecap:round;stroke-linejoin:round;stroke-miterlimit:10;stroke-dasharray:1.0632;}
	.st110{fill:none;stroke:#4F4C4D;stroke-width:0.9757;stroke-linecap:round;stroke-linejoin:round;stroke-miterlimit:10;}
	.st111{fill:none;stroke:#4F4C4D;stroke-width:1.1046;stroke-linecap:round;stroke-linejoin:round;stroke-miterlimit:10;}
	.st112{fill:none;stroke:#4F4C4D;stroke-width:1.0333;stroke-linecap:round;stroke-linejoin:round;stroke-miterlimit:10;}
	
		.st113{fill:none;stroke:#4F4C4D;stroke-width:1.0333;stroke-linecap:round;stroke-linejoin:round;stroke-miterlimit:10;stroke-dasharray:1.2;}
	.st114{fill:none;stroke:#4F4C4D;stroke-linecap:round;stroke-linejoin:round;stroke-miterlimit:10;}
	.st115{fill:none;stroke:#4F4C4D;stroke-linecap:round;stroke-linejoin:round;stroke-miterlimit:10;stroke-dasharray:1.0878;}
</style>
<g>
	<path class="st100" d="M27.36,57.25c-3.43,0-6.76-0.67-9.91-2c-3.03-1.28-5.75-3.12-8.09-5.45c-2.33-2.33-4.17-5.05-5.45-8.09
		c-1.33-3.14-2-6.48-2-9.91s0.67-6.76,2-9.91c1.28-3.03,3.12-5.75,5.45-8.09c2.33-2.33,5.05-4.17,8.09-5.45c3.14-1.33,6.48-2,9.91-2
		s6.76,0.67,9.91,2c3.03,1.28,5.75,3.12,8.09,5.45c2.33,2.33,4.17,5.05,5.45,8.09c1.33,3.14,2,6.48,2,9.91s-0.67,6.76-2,9.91
		c-1.28,3.03-3.12,5.75-5.45,8.09c-2.33,2.33-5.05,4.17-8.09,5.45C34.12,56.58,30.79,57.25,27.36,57.25z"/>
	<path class="st100" d="M50.27,22.13c-1.25-2.96-3.04-5.62-5.33-7.9S40,10.15,37.04,8.9c-3.07-1.3-6.33-1.96-9.68-1.96
		S20.75,7.6,17.68,8.9c-2.96,1.25-5.62,3.04-7.9,5.33s-4.07,4.94-5.33,7.9c-1.3,3.07-1.96,6.33-1.96,9.68s0.66,6.61,1.96,9.68
		c1.25,2.96,3.04,5.62,5.33,7.9c2.28,2.28,4.94,4.07,7.9,5.33c3.07,1.3,6.33,1.96,9.68,1.96s6.61-0.66,9.68-1.96
		c2.96-1.25,5.62-3.04,7.9-5.33c2.28-2.28,4.07-4.94,5.33-7.9c1.3-3.07,1.96-6.33,1.96-9.68S51.57,25.2,50.27,22.13z"/>
	<path class="st0" d="M50.27,22.13c-1.25-2.96-3.04-5.62-5.33-7.9S40,10.15,37.04,8.9c-3.07-1.3-6.33-1.96-9.68-1.96
		S20.75,7.6,17.68,8.9c-2.96,1.25-5.62,3.04-7.9,5.33s-4.07,4.94-5.33,7.9c-1.3,3.07-1.96,6.33-1.96,9.68s0.66,6.61,1.96,9.68
		c1.25,2.96,3.04,5.62,5.33,7.9c2.28,2.28,4.94,4.07,7.9,5.33c3.07,1.3,6.33,1.96,9.68,1.96s6.61-0.66,9.68-1.96
		c2.96-1.25,5.62-3.04,7.9-5.33c2.28-2.28,4.07-4.94,5.33-7.9c1.3-3.07,1.96-6.33,1.96-9.68S51.57,25.2,50.27,22.13z"/>
	<circle class="st100" cx="27.36" cy="31.81" r="17.19"/>
	<g>
		<path class="st100" d="M8.43,32.43c0-0.03,0-0.05-0.01-0.06l0-0.05l0-0.01c0,0,0-0.01,0-0.01l0-0.03l0-0.02c0,0,0-0.01,0-0.04
			l0-0.02c-0.01-0.02-0.01-0.05-0.02-0.07c-0.01-0.03-0.01-0.05-0.02-0.08c-0.03-0.09-0.07-0.18-0.1-0.26
			c-0.04-0.08-0.08-0.16-0.13-0.23c-0.02-0.03-0.04-0.06-0.07-0.08C8.04,31.44,8.02,31.42,8,31.39c-0.02-0.02-0.03-0.04-0.05-0.05
			c0,0-0.01-0.01-0.01-0.02C7.97,31.31,8,31.3,8.02,31.29c0.03-0.01,0.06-0.02,0.09-0.03c0.03-0.01,0.06-0.03,0.09-0.05
			c0.03-0.02,0.05-0.05,0.07-0.09c0.01-0.03,0.02-0.08,0.02-0.14c0-0.05-0.01-0.08-0.02-0.1c-0.02-0.04-0.06-0.08-0.1-0.09
			c-0.03-0.01-0.06-0.01-0.09-0.01l-1.52,0.07c-0.03,0-0.05,0-0.08,0c-0.04,0-0.07,0-0.1,0.02c-0.06,0.02-0.09,0.06-0.1,0.09
			c-0.01,0.03-0.02,0.07-0.03,0.11c0,0.04,0,0.08,0,0.12c0,0.04,0.01,0.07,0.01,0.11l0.05,1.07c0,0.03,0.01,0.06,0.02,0.08
			c0.02,0.05,0.05,0.08,0.09,0.11c0.02,0.01,0.04,0.02,0.08,0.02c0.03,0,0.06,0.01,0.09,0c0.03,0,0.06,0,0.09-0.01
			c0.03-0.01,0.05-0.01,0.07-0.02c0.03-0.01,0.07-0.04,0.09-0.09l0-0.01c0.01-0.04,0.02-0.08,0.01-0.13L6.8,31.5
			c0-0.04,0-0.06,0.01-0.07c0.01-0.01,0.03-0.01,0.05-0.02c0.04,0,0.08,0,0.11,0c0.03,0.01,0.06,0.01,0.09,0.01
			c0.03,0,0.05,0.01,0.08,0.01c0.31,0.09,0.52,0.27,0.66,0.57c0.02,0.03,0.03,0.07,0.04,0.1c0.01,0.04,0.02,0.09,0.04,0.14l0,0.01
			c0,0,0,0.01,0,0.01c0,0.03,0,0.06,0.01,0.08c0,0.01,0,0.03,0.01,0.05l0,0.07c0,0.1,0,0.19-0.02,0.27
			c-0.01,0.03-0.01,0.05-0.02,0.07c0,0.02-0.01,0.04-0.02,0.07c-0.07,0.19-0.18,0.35-0.33,0.48c-0.03,0.03-0.06,0.05-0.1,0.08
			c-0.03,0.02-0.07,0.04-0.1,0.06c-0.05,0.02-0.09,0.04-0.14,0.06c-0.05,0.02-0.09,0.04-0.14,0.06C7,33.63,6.97,33.63,6.95,33.64
			c-0.03,0.01-0.05,0.01-0.08,0.02c-0.01,0-0.02,0.01-0.03,0c-0.03,0-0.06,0-0.1,0.01l-0.01,0c0,0,0,0,0,0c-0.01,0-0.03,0-0.04,0.01
			l-0.04,0l-0.01,0c-0.01,0-0.02,0-0.07,0.01c-0.04,0-0.06,0-0.07,0l-0.01,0l-0.05,0c-0.03-0.01-0.06-0.01-0.09,0
			c-0.02,0-0.03,0-0.05,0c-0.03-0.01-0.05-0.01-0.08-0.01c0,0-0.01,0-0.01,0l-0.01,0c-0.04-0.01-0.09-0.02-0.13-0.02
			c-0.04,0-0.07-0.01-0.11-0.02c-0.17-0.05-0.31-0.11-0.43-0.19c-0.12-0.08-0.22-0.18-0.31-0.31c-0.05-0.08-0.1-0.17-0.13-0.28
			c0-0.02-0.01-0.04-0.01-0.06c0-0.02-0.01-0.04-0.01-0.06c0-0.01,0-0.02,0-0.03c0-0.01,0-0.01,0-0.01l0-0.01
			c0-0.02-0.01-0.03-0.01-0.05l-0.01-0.12c0-0.02,0-0.03,0-0.05c0,0,0,0,0-0.01c0.01-0.03,0.01-0.07,0.01-0.1
			c0-0.03,0.01-0.05,0.01-0.08c0.01-0.06,0.03-0.11,0.05-0.16c0.02-0.05,0.04-0.1,0.06-0.14c0.01-0.01,0.02-0.03,0.02-0.04
			c0.01-0.02,0.02-0.03,0.04-0.05c0.02-0.03,0.04-0.05,0.07-0.08c0.01-0.01,0.03-0.02,0.04-0.04c0.01-0.01,0.01-0.01,0.01-0.02
			c0.03-0.03,0.07-0.05,0.1-0.07c0.03-0.02,0.07-0.04,0.11-0.06l0.01,0c0.02-0.01,0.05-0.02,0.07-0.03
			c0.04-0.01,0.08-0.04,0.11-0.07c0.02-0.02,0.03-0.05,0.03-0.08c0.01-0.03,0.01-0.06,0-0.07c0.01-0.03,0.01-0.06,0.01-0.1
			c0-0.04-0.01-0.07-0.01-0.09l0-0.04l0-0.01c0,0,0-0.01,0-0.01c0-0.03-0.01-0.06-0.03-0.07c-0.03-0.04-0.08-0.06-0.14-0.06
			c-0.04,0-0.09,0.01-0.13,0.02l-0.01,0c-0.07,0.03-0.13,0.06-0.2,0.09c-0.07,0.03-0.13,0.07-0.19,0.11
			C5.05,31.21,5.02,31.23,5,31.25c-0.02,0.02-0.04,0.04-0.06,0.05l-0.05,0.05c-0.05,0.06-0.1,0.12-0.14,0.18
			c-0.09,0.15-0.16,0.31-0.2,0.5c-0.04,0.18-0.06,0.4-0.04,0.64c0,0.03,0,0.06,0.01,0.09c0,0.03,0.01,0.06,0.01,0.09l0,0.01
			c0,0.01,0,0.02,0.01,0.03c0,0.02,0.01,0.05,0.02,0.07c0.01,0.03,0.02,0.06,0.02,0.1c0.01,0.04,0.02,0.08,0.04,0.12
			c0.08,0.2,0.18,0.37,0.3,0.51c0.12,0.14,0.27,0.26,0.44,0.36c0.1,0.06,0.2,0.1,0.31,0.13c0.11,0.03,0.22,0.06,0.33,0.09
			c0.04,0.01,0.09,0.02,0.13,0.02c0.04,0,0.08,0.01,0.12,0.02c0.02,0,0.04,0,0.07,0c0.01,0,0.03,0,0.04,0c0.02,0,0.05,0,0.07,0
			l0.1,0c0.02,0,0.04,0.01,0.07,0.01c0.01,0,0.02,0,0.04,0c0.05,0,0.08-0.01,0.11-0.02l0.04,0l0.01,0c0,0,0,0,0.01,0
			c0.02,0,0.04,0,0.07-0.01c0.04-0.01,0.08-0.02,0.11-0.03c0.04-0.01,0.09-0.02,0.13-0.03l0.01-0.01c0,0,0.01,0,0.01,0
			c0.02,0,0.04,0,0.05-0.01l0.01,0c0.05-0.02,0.09-0.04,0.13-0.05c0.04-0.02,0.09-0.04,0.13-0.06c0.2-0.1,0.37-0.23,0.52-0.39
			c0.15-0.16,0.26-0.34,0.34-0.55c0.02-0.06,0.04-0.12,0.05-0.18c0.01-0.06,0.02-0.12,0.04-0.18c0.01-0.04,0.02-0.08,0.02-0.12
			c0-0.03,0-0.06,0.01-0.1l0-0.01l0-0.09C8.43,32.48,8.44,32.46,8.43,32.43z"/>
		<path class="st100" d="M8.7,27.99c0-0.04,0-0.08-0.01-0.12c-0.04-0.29-0.14-0.53-0.28-0.73c-0.14-0.2-0.33-0.37-0.57-0.52
			c-0.05-0.03-0.1-0.06-0.16-0.08c-0.05-0.02-0.1-0.05-0.16-0.07l-0.01,0c-0.03-0.01-0.05-0.02-0.07-0.02
			c-0.02-0.01-0.04-0.01-0.07-0.03c-0.03-0.01-0.07-0.02-0.11-0.03c-0.03-0.01-0.06-0.01-0.09-0.02l-0.07-0.01
			c-0.02-0.01-0.05-0.01-0.08-0.02C7,26.33,6.97,26.33,6.95,26.33l-0.01,0c0,0-0.01,0-0.01,0c-0.02-0.01-0.05-0.01-0.07-0.01
			l-0.03-0.01l-0.01,0c-0.02,0-0.04,0-0.06,0c-0.03,0-0.06-0.01-0.09,0c-0.01,0-0.02,0-0.03,0c-0.02,0-0.05,0-0.07,0
			c-0.04,0-0.07,0.01-0.11,0.01c-0.04,0-0.08,0.01-0.11,0.01c-0.02,0-0.04,0.01-0.06,0.01c-0.02,0-0.04,0-0.07,0.01
			C6.14,26.36,6.07,26.37,6,26.39c-0.02,0.01-0.05,0.02-0.07,0.03c-0.02,0.01-0.03,0.01-0.05,0.02c-0.01,0-0.02,0.01-0.04,0.01
			l-0.01,0c-0.03,0.01-0.06,0.03-0.1,0.04c-0.03,0.02-0.06,0.03-0.09,0.05c-0.03,0.01-0.05,0.02-0.07,0.04
			c-0.01,0.01-0.01,0.01-0.02,0.01l-0.01,0c-0.06,0.03-0.11,0.07-0.16,0.11c-0.05,0.04-0.09,0.09-0.13,0.13
			c-0.12,0.12-0.22,0.26-0.3,0.42c-0.08,0.16-0.14,0.37-0.17,0.6l0,0.01c-0.01,0.02-0.01,0.04-0.01,0.05c0,0.02,0,0.05,0,0.07
			c0,0.03,0,0.05-0.01,0.08l0,0.01l0,0.01c0,0.01,0,0.03,0,0.04c0,0.03-0.01,0.06,0,0.09c0.01,0.04,0.01,0.09,0.01,0.13
			c0,0.05,0.01,0.09,0.02,0.14c0.04,0.19,0.11,0.37,0.2,0.52c0.09,0.15,0.21,0.29,0.35,0.41c0.05,0.05,0.11,0.09,0.17,0.13
			c0.06,0.03,0.11,0.07,0.17,0.11c0.05,0.03,0.1,0.06,0.15,0.08c0.05,0.02,0.1,0.04,0.15,0.06c0.02,0.01,0.05,0.02,0.08,0.03
			c0.01,0,0.02,0.01,0.04,0.01l0.19,0.05l0.06,0.01c0.02,0.01,0.05,0.02,0.08,0.02c0.03,0.01,0.06,0.01,0.08,0l0.09,0.02l0.01,0
			l0.01,0c0,0,0,0,0,0c0.02,0.01,0.05,0.01,0.07,0c0.02,0,0.04,0,0.06,0c0.02,0,0.04,0.01,0.06,0.01c0.01,0,0.02,0,0.04,0l0.01,0
			c0,0,0.01,0,0.01,0c0.02,0.01,0.04,0.01,0.07,0c0.05-0.01,0.1-0.01,0.15-0.01c0.06,0,0.11-0.01,0.17-0.02
			c0.23-0.05,0.44-0.14,0.63-0.24c0.19-0.11,0.35-0.27,0.48-0.47L8.5,29l0-0.01c0.02-0.03,0.03-0.07,0.04-0.1
			c0.01-0.03,0.02-0.06,0.04-0.09l0-0.01c0.01-0.02,0.01-0.05,0.02-0.07c0-0.02,0.01-0.03,0.02-0.05l0-0.01l0.01-0.06
			c0.01-0.02,0.01-0.04,0.01-0.06c0-0.01,0-0.01,0-0.02c0.01-0.01,0.01-0.03,0.02-0.08c0.01-0.04,0.01-0.06,0.01-0.08l0.01-0.17
			l0-0.01c0-0.01,0-0.02,0-0.02c0-0.02,0-0.04,0-0.06l0-0.01C8.71,28.06,8.7,28.03,8.7,27.99z M6.94,29.32
			c-0.01,0-0.03-0.01-0.05-0.01c0,0-0.01,0-0.02,0c-0.02,0-0.05,0-0.08,0c-0.03,0-0.07,0-0.09,0c-0.01,0-0.03,0-0.04,0
			c-0.01,0-0.02,0-0.03,0l-0.01,0l-0.01,0c-0.01,0-0.02,0-0.08-0.01c-0.05-0.01-0.07-0.01-0.08-0.02l-0.05-0.01
			c-0.02-0.01-0.04-0.01-0.06-0.01l-0.01-0.01l-0.01,0c-0.02-0.01-0.04-0.01-0.06-0.02c-0.01,0-0.02,0-0.03-0.01
			c-0.04-0.02-0.08-0.03-0.12-0.05c-0.03-0.01-0.06-0.02-0.1-0.04c-0.18-0.09-0.33-0.2-0.45-0.32c-0.12-0.12-0.2-0.27-0.24-0.45
			c-0.01-0.04-0.02-0.09-0.02-0.13c0-0.05-0.01-0.09-0.01-0.14c0-0.02,0-0.05,0-0.07c0-0.02,0-0.04,0-0.07
			c0.01-0.05,0.02-0.11,0.03-0.17c0.01-0.05,0.02-0.1,0.04-0.14l0-0.01c0.03-0.09,0.07-0.17,0.12-0.23
			c0.08-0.11,0.18-0.21,0.29-0.28C5.93,27.05,6.06,27,6.2,26.97c0.04-0.01,0.08-0.02,0.12-0.02c0.04,0,0.09-0.01,0.14-0.02
			c0.03,0,0.05,0,0.08,0c0.03,0,0.06,0,0.1,0l0.01,0c0.01,0,0.01,0,0.01,0c0.02,0.01,0.05,0.01,0.07,0c0.02,0,0.03,0,0.04,0
			c0.01,0,0.02,0,0.04,0l0.05,0.01l0.01,0c0,0,0.01,0,0.06,0.01C6.98,26.95,7,26.96,7,26.96l0.01,0.01l0.06,0.01l0.15,0.04
			c0.02,0.01,0.05,0.02,0.07,0.03c0.02,0,0.03,0.01,0.05,0.02c0.05,0.02,0.09,0.04,0.14,0.06c0.04,0.02,0.08,0.04,0.12,0.06
			c0.15,0.09,0.27,0.2,0.36,0.32c0.09,0.12,0.15,0.27,0.19,0.44c0.01,0.03,0.01,0.07,0.01,0.1c0,0.04,0,0.09,0,0.13
			c0,0.02,0,0.03-0.01,0.05c0,0.02,0,0.03,0,0.05l-0.01,0.04c0,0.03-0.01,0.06-0.01,0.08c0,0.02-0.01,0.03-0.01,0.04
			c-0.01,0.03-0.02,0.06-0.03,0.09c0,0.01,0,0.02-0.01,0.04c-0.03,0.05-0.05,0.11-0.07,0.15C8,28.77,7.98,28.81,7.94,28.85
			c-0.1,0.14-0.23,0.25-0.38,0.32c-0.03,0.01-0.06,0.02-0.08,0.03c-0.03,0.01-0.06,0.02-0.09,0.03c-0.03,0.01-0.06,0.02-0.1,0.03
			c-0.04,0.01-0.08,0.01-0.12,0.03c-0.03,0.01-0.07,0.01-0.1,0.01c-0.04,0-0.08,0-0.12,0.01L6.94,29.32z"/>
		<path class="st100" d="M9.33,22.61c-0.04-0.04-0.09-0.08-0.14-0.11c-0.04-0.03-0.09-0.07-0.14-0.1l-0.01-0.01
			C9.02,22.38,9,22.37,8.98,22.36c-0.02-0.01-0.04-0.02-0.06-0.04c-0.03-0.02-0.06-0.04-0.1-0.05c-0.03-0.01-0.06-0.03-0.08-0.04
			L8.68,22.2c-0.02-0.01-0.04-0.02-0.07-0.03c-0.03-0.01-0.06-0.02-0.08-0.03l-0.01,0l-0.01,0c0,0,0,0,0,0c-0.01,0-0.01,0-0.01,0
			c-0.02-0.01-0.04-0.02-0.07-0.03l-0.02-0.01l-0.02,0c-0.02,0-0.04-0.01-0.06-0.01c-0.03-0.01-0.06-0.02-0.09-0.02
			c-0.01,0-0.02-0.01-0.03-0.01c-0.02-0.01-0.05-0.01-0.07-0.01c-0.04,0-0.07-0.01-0.11-0.01C8,22.01,7.96,22.01,7.92,22
			c-0.02,0-0.04,0-0.06,0c-0.02,0-0.04,0-0.07-0.01c-0.07,0-0.15,0-0.22,0C7.55,22,7.53,22,7.5,22.01c-0.02,0-0.03,0.01-0.05,0.01
			c-0.01,0-0.02,0-0.04,0l-0.01,0c-0.03,0.01-0.07,0.01-0.1,0.02c-0.03,0.01-0.07,0.02-0.1,0.03c-0.03,0-0.05,0.01-0.07,0.03
			c-0.01,0-0.01,0.01-0.02,0.01l-0.01,0c-0.06,0.02-0.12,0.04-0.18,0.08c-0.05,0.03-0.11,0.07-0.16,0.1
			c-0.14,0.09-0.27,0.21-0.38,0.35c-0.12,0.14-0.22,0.33-0.3,0.55l0,0.01c-0.01,0.02-0.02,0.04-0.02,0.05
			c-0.01,0.02-0.01,0.04-0.02,0.06c-0.01,0.03-0.02,0.05-0.02,0.08l0,0.01c0,0.01,0,0.03-0.01,0.04c-0.01,0.03-0.02,0.06-0.02,0.08
			c0,0.04-0.01,0.09-0.01,0.13c-0.01,0.05-0.01,0.09-0.01,0.14c0,0.2,0.03,0.38,0.09,0.55c0.06,0.17,0.14,0.33,0.25,0.47
			c0.04,0.06,0.09,0.11,0.14,0.16c0.05,0.04,0.1,0.09,0.14,0.14c0.04,0.04,0.09,0.08,0.13,0.11c0.04,0.03,0.09,0.06,0.13,0.09
			c0.02,0.02,0.05,0.03,0.07,0.04c0.01,0,0.02,0.01,0.03,0.02l0.18,0.09l0.06,0.02c0.02,0.01,0.04,0.03,0.07,0.04
			c0.03,0.01,0.06,0.02,0.08,0.02l0.09,0.04l0.01,0l0.01,0c0,0,0,0,0,0c0.02,0.01,0.05,0.02,0.07,0.02c0.02,0,0.04,0.01,0.06,0.02
			c0.03,0.01,0.06,0.02,0.09,0.02l0.01,0c0,0,0.01,0,0.01,0c0.02,0.01,0.04,0.02,0.07,0.01c0.05,0,0.1,0.01,0.15,0.02
			c0.05,0.01,0.1,0.01,0.15,0.01c0.01,0,0.01,0,0.02,0c0.24,0,0.46-0.04,0.67-0.11c0.21-0.07,0.4-0.19,0.57-0.35l0.15-0.16l0,0
			c0.02-0.03,0.05-0.06,0.06-0.09c0.01-0.02,0.03-0.05,0.05-0.08L9.6,24.9c0.01-0.02,0.02-0.04,0.03-0.06
			c0.01-0.02,0.02-0.03,0.03-0.05l0.01-0.01l0.02-0.05c0.01-0.02,0.02-0.03,0.02-0.05c0-0.01,0.01-0.01,0.01-0.02
			c0.01-0.01,0.02-0.03,0.04-0.07c0.02-0.04,0.03-0.06,0.03-0.08l0.05-0.16l0-0.01c0-0.01,0-0.02,0.01-0.02
			c0.01-0.02,0.01-0.04,0.02-0.06l0-0.01c0-0.04,0.01-0.07,0.02-0.11c0.01-0.04,0.01-0.08,0.02-0.12c0.02-0.29-0.02-0.55-0.12-0.77
			C9.68,23.02,9.53,22.81,9.33,22.61z M7.87,25.06c-0.02-0.01-0.04-0.02-0.06-0.02c-0.02,0-0.05-0.01-0.07-0.02
			C7.71,25.01,7.68,25,7.65,25c-0.01,0-0.03-0.01-0.04-0.01c-0.01,0-0.02,0-0.03-0.01l-0.01,0c-0.01,0-0.02-0.01-0.07-0.03
			c-0.05-0.02-0.07-0.03-0.07-0.03L7.38,24.9c-0.02-0.01-0.03-0.02-0.06-0.03l-0.01-0.01l-0.01-0.01c-0.02-0.01-0.04-0.02-0.06-0.03
			c-0.01,0-0.02-0.01-0.03-0.01c-0.04-0.03-0.07-0.05-0.11-0.07c-0.03-0.02-0.06-0.04-0.08-0.06c-0.15-0.13-0.28-0.27-0.37-0.41
			c-0.09-0.14-0.14-0.3-0.14-0.49c0-0.04,0-0.09,0.01-0.13c0.01-0.05,0.01-0.09,0.02-0.14c0.01-0.02,0.01-0.04,0.02-0.06
			c0.01-0.02,0.01-0.04,0.02-0.07c0.02-0.05,0.04-0.1,0.06-0.16c0.02-0.05,0.05-0.09,0.07-0.13l0,0c0.05-0.08,0.11-0.15,0.16-0.2
			c0.1-0.1,0.22-0.17,0.35-0.22c0.13-0.05,0.27-0.07,0.41-0.08c0.04,0,0.08,0,0.12,0.01c0.04,0,0.09,0.01,0.14,0.01
			c0.03,0,0.05,0.01,0.08,0.01c0.03,0.01,0.06,0.01,0.1,0.02l0.01,0c0.01,0,0.01,0,0.01,0c0.02,0.01,0.04,0.02,0.07,0.02
			c0.01,0.01,0.03,0.01,0.04,0.01c0.01,0,0.02,0.01,0.04,0.01l0.05,0.02l0.01,0c0,0,0.02,0,0.06,0.02c0.04,0.02,0.06,0.03,0.06,0.03
			l0.01,0.01l0.05,0.02l0.14,0.07c0.02,0.02,0.04,0.03,0.07,0.04c0.01,0.01,0.03,0.02,0.04,0.03c0.04,0.03,0.08,0.06,0.12,0.09
			c0.04,0.03,0.07,0.06,0.1,0.08c0.13,0.12,0.22,0.25,0.29,0.39c0.06,0.14,0.09,0.29,0.1,0.47c0,0.03,0,0.07-0.01,0.11
			c-0.01,0.04-0.02,0.09-0.03,0.13c-0.01,0.02-0.01,0.03-0.02,0.05c0,0.02-0.01,0.03-0.01,0.05l-0.02,0.04
			c-0.01,0.03-0.02,0.05-0.03,0.08c0,0.02-0.01,0.03-0.02,0.04c-0.02,0.03-0.03,0.05-0.04,0.08c0,0.01-0.01,0.02-0.02,0.04
			c-0.04,0.05-0.07,0.09-0.1,0.13c-0.03,0.04-0.06,0.07-0.1,0.1c-0.13,0.12-0.28,0.2-0.44,0.24c-0.03,0.01-0.06,0.01-0.09,0.02
			c-0.03,0-0.06,0.01-0.09,0.02c-0.03,0.01-0.07,0.01-0.1,0.01c-0.02,0-0.04,0-0.06,0c-0.02,0-0.04,0-0.06,0
			c-0.03,0-0.07,0-0.1-0.01c-0.04-0.01-0.08-0.01-0.12-0.02L7.87,25.06L7.87,25.06z"/>
		<path class="st100" d="M11.5,19.27c-0.03-0.04-0.05-0.08-0.09-0.11c-0.03-0.03-0.06-0.06-0.08-0.1c-0.03-0.04-0.07-0.08-0.12-0.12
			c-0.04-0.03-0.07-0.06-0.11-0.09c-0.02-0.02-0.03-0.03-0.05-0.04c-0.01-0.01-0.02-0.01-0.03-0.02c-0.01-0.01-0.03-0.03-0.05-0.04
			c0,0,0,0,0,0l-0.01-0.01l-0.04-0.03c-0.02-0.02-0.05-0.04-0.08-0.06c-0.03-0.02-0.05-0.03-0.07-0.05
			c-0.06-0.04-0.12-0.08-0.18-0.12c-0.07-0.04-0.13-0.07-0.2-0.1c-0.01,0-0.02-0.01-0.03-0.01c-0.02-0.01-0.05-0.03-0.07-0.03
			c-0.04-0.01-0.07-0.02-0.11-0.04c-0.04-0.02-0.08-0.03-0.12-0.04l-0.01,0c-0.03,0-0.05-0.01-0.08-0.01
			c-0.03-0.01-0.06-0.01-0.09-0.01c-0.01,0-0.02,0-0.03,0c-0.01,0-0.03-0.01-0.05-0.01l-0.01,0l-0.01,0c-0.03,0-0.05,0-0.07,0
			c-0.03,0-0.06,0-0.09,0c-0.03,0-0.05,0-0.08,0.01c-0.02,0-0.04,0-0.06,0H9.47l-0.01,0.01c0,0-0.01,0-0.04,0.01l-0.07,0.01
			c-0.03,0.01-0.05,0.01-0.08,0.02l-0.01,0c-0.01,0-0.02,0.01-0.03,0.01c-0.02,0-0.03,0.01-0.04,0.01
			c-0.05,0.02-0.09,0.04-0.14,0.06c-0.07,0.03-0.13,0.07-0.19,0.12c-0.06,0.04-0.11,0.09-0.18,0.14c-0.03,0.02-0.06,0.05-0.08,0.08
			c-0.02,0.02-0.05,0.05-0.07,0.08c-0.02,0.02-0.03,0.03-0.04,0.05c-0.01,0.01-0.01,0.02-0.02,0.03c-0.02,0.02-0.03,0.03-0.04,0.05
			c-0.01,0.01-0.02,0.02-0.03,0.03c-0.02,0.02-0.03,0.04-0.04,0.07c0,0.01-0.01,0.01-0.01,0.01l-0.01,0.01
			c-0.02,0.02-0.03,0.03-0.04,0.05c-0.01,0.01-0.01,0.02-0.02,0.03l-0.62,0.93l0,0c-0.01,0.01-0.01,0.02-0.02,0.04
			c-0.03,0.06-0.01,0.11,0,0.14c0.02,0.04,0.06,0.08,0.11,0.11c0.04,0.02,0.07,0.05,0.11,0.07l2.5,1.66
			c0.03,0.02,0.07,0.05,0.11,0.08c0.05,0.04,0.09,0.06,0.14,0.06c0.01,0,0.03,0,0.04,0c0.05,0,0.09-0.02,0.12-0.06
			c0.03-0.03,0.06-0.07,0.09-0.12l0.56-0.85c0.01-0.01,0.01-0.02,0.02-0.03c0.01-0.01,0.02-0.03,0.03-0.05l0.03-0.05l0.01-0.01
			c0.01-0.03,0.03-0.05,0.04-0.08c0.02-0.03,0.04-0.07,0.06-0.11l0,0c0.01-0.04,0.03-0.07,0.05-0.11c0.02-0.04,0.04-0.09,0.05-0.13
			c0.02-0.09,0.05-0.17,0.06-0.25c0.02-0.08,0.03-0.16,0.03-0.24c0-0.16-0.02-0.32-0.07-0.46C11.66,19.55,11.59,19.41,11.5,19.27z
			 M11.18,20.39c-0.01,0.04-0.01,0.07-0.02,0.1c-0.01,0.04-0.02,0.07-0.03,0.11c-0.01,0.02-0.01,0.04-0.02,0.05
			c-0.01,0.02-0.02,0.04-0.03,0.07c-0.01,0.01-0.01,0.02-0.02,0.03c-0.01,0.02-0.03,0.04-0.04,0.06l-0.03,0.05l0,0.01
			c0,0.01-0.01,0.02-0.02,0.04c-0.02,0.02-0.03,0.04-0.05,0.07l-0.16,0.25c-0.04,0.06-0.08,0.12-0.12,0.18
			c-0.02,0.03-0.04,0.06-0.07,0.06c-0.01,0-0.02,0-0.04-0.01l-0.03-0.02l-0.02-0.01c-0.01,0-0.02-0.01-0.02-0.01l-2-1.33
			c-0.01-0.01-0.02-0.01-0.02-0.02l-0.04-0.03C8.37,20.01,8.36,20,8.36,20c0-0.01,0-0.03,0.01-0.04c0.01-0.01,0.02-0.02,0.02-0.04
			l0.36-0.54c0-0.01,0.01-0.01,0.01-0.01l0.01-0.01l0.06-0.09c0.03-0.03,0.05-0.06,0.08-0.09c0.02-0.03,0.04-0.05,0.07-0.07
			c0.03-0.03,0.06-0.05,0.08-0.07c0.02-0.02,0.04-0.04,0.07-0.05l0.01,0c0.15-0.1,0.32-0.15,0.48-0.15c0.1,0,0.21,0.02,0.32,0.05
			c0.03,0.01,0.05,0.02,0.07,0.03c0.03,0.01,0.05,0.02,0.08,0.03c0.03,0.01,0.06,0.02,0.09,0.04c0.03,0.02,0.07,0.04,0.1,0.05
			c0.01,0.01,0.02,0.01,0.04,0.02c0.01,0,0.01,0.01,0.02,0.01l0.01,0.01l0.01,0c0.02,0.01,0.03,0.01,0.04,0.02
			c0.02,0.02,0.04,0.03,0.07,0.05l0.1,0.06c0.03,0.02,0.05,0.04,0.07,0.06l0.04,0.03c0,0,0.01,0.01,0.02,0.02
			c0.03,0.03,0.06,0.06,0.1,0.09c0.03,0.03,0.06,0.05,0.08,0.08c0.03,0.04,0.06,0.07,0.09,0.1c0.03,0.03,0.05,0.06,0.07,0.09
			c0.07,0.11,0.12,0.23,0.15,0.35C11.2,20.14,11.2,20.26,11.18,20.39z"/>
		<path class="st100" d="M16.78,15.4c-0.02-0.03-0.05-0.05-0.07-0.08l-1.95-2.43c-0.03-0.04-0.06-0.08-0.1-0.11
			c-0.06-0.06-0.11-0.07-0.16-0.06c-0.04,0-0.07,0.02-0.11,0.05l-0.07,0.06c-0.03,0.02-0.05,0.04-0.09,0.07
			c-0.03,0.03-0.07,0.05-0.1,0.08c-0.03,0.03-0.06,0.06-0.09,0.09c-0.03,0.03-0.05,0.06-0.06,0.1c-0.01,0.04-0.01,0.09,0.02,0.15
			c0.01,0.04,0.02,0.07,0.03,0.09l0,0.01c0.02,0.07,0.04,0.14,0.07,0.21c0.02,0.07,0.05,0.14,0.07,0.21
			c0.06,0.21,0.13,0.41,0.2,0.61c0.07,0.2,0.14,0.4,0.19,0.6c0.02,0.07,0.05,0.14,0.07,0.21c0.02,0.06,0.04,0.13,0.06,0.19l0,0.01
			c0.01,0.02,0.01,0.04,0.02,0.06c0.01,0.02,0.01,0.04,0.02,0.05c0.02,0.07,0.05,0.15,0.07,0.22c0.02,0.07,0.05,0.15,0.07,0.22
			c0.01,0.03,0.01,0.05,0.02,0.07c0,0.01,0,0.02,0,0.03c0,0-0.01,0-0.01-0.01c-0.04-0.03-0.08-0.05-0.1-0.06
			c-0.07-0.04-0.14-0.08-0.21-0.12c-0.07-0.04-0.14-0.08-0.21-0.12c-0.01-0.01-0.03-0.02-0.04-0.03c-0.02-0.01-0.03-0.02-0.05-0.03
			c-0.14-0.08-0.28-0.17-0.42-0.25c-0.14-0.09-0.28-0.17-0.43-0.25c-0.04-0.02-0.09-0.05-0.13-0.08c-0.05-0.03-0.09-0.06-0.14-0.08
			c-0.06-0.03-0.11-0.06-0.17-0.1c-0.06-0.04-0.11-0.07-0.17-0.11c-0.06-0.03-0.12-0.07-0.17-0.1c-0.06-0.04-0.12-0.07-0.18-0.11
			c-0.03-0.02-0.07-0.04-0.09-0.05c-0.04-0.03-0.09-0.04-0.14-0.03c-0.04,0-0.08,0.02-0.11,0.05l-0.33,0.27l0,0
			c-0.02,0.01-0.03,0.02-0.04,0.04c-0.03,0.05-0.04,0.09-0.04,0.13c0,0.05,0.02,0.09,0.06,0.13c0.03,0.03,0.05,0.06,0.07,0.09
			l1.94,2.42c0.04,0.05,0.07,0.09,0.11,0.12c0.03,0.03,0.07,0.05,0.12,0.05c0.02,0,0.04,0,0.07-0.01c0.03-0.01,0.05-0.02,0.07-0.04
			l0.05-0.04c0.04-0.03,0.07-0.06,0.11-0.09c0.06-0.05,0.07-0.11,0.07-0.15c0-0.04-0.02-0.08-0.05-0.12
			c-0.02-0.03-0.05-0.06-0.07-0.09l-1.39-1.73c-0.02-0.02-0.04-0.04-0.06-0.06c-0.01-0.01-0.02-0.02-0.02-0.03l0-0.01l-0.04-0.04
			c0,0,0,0,0,0c0.03,0.02,0.07,0.04,0.1,0.06c0.06,0.04,0.13,0.07,0.19,0.11c0.07,0.04,0.13,0.08,0.2,0.12
			c0.18,0.1,0.36,0.2,0.53,0.31c0.17,0.11,0.35,0.21,0.54,0.31c0.06,0.03,0.11,0.06,0.16,0.1c0.06,0.04,0.12,0.07,0.18,0.11
			c0.06,0.04,0.13,0.07,0.19,0.11c0.07,0.04,0.13,0.08,0.2,0.12l0.01,0c0.03,0.01,0.06,0.03,0.09,0.05
			c0.04,0.03,0.09,0.04,0.13,0.03c0.04,0,0.08-0.02,0.12-0.05l0.08-0.06c0.01-0.01,0.02-0.01,0.03-0.02
			c0.02-0.01,0.04-0.03,0.05-0.04c0.02-0.01,0.03-0.02,0.04-0.04c0.04-0.05,0.05-0.11,0.03-0.16c-0.01-0.03-0.02-0.07-0.03-0.12
			c-0.02-0.06-0.04-0.13-0.06-0.19c-0.02-0.06-0.04-0.12-0.06-0.18c-0.05-0.16-0.1-0.33-0.16-0.49c-0.06-0.16-0.11-0.32-0.16-0.49
			c-0.02-0.05-0.03-0.11-0.06-0.16c-0.02-0.05-0.03-0.1-0.05-0.15c-0.02-0.07-0.04-0.13-0.07-0.2c-0.02-0.06-0.04-0.12-0.06-0.18
			c-0.01-0.02-0.01-0.04-0.02-0.05c0-0.01-0.01-0.02-0.01-0.03c-0.02-0.06-0.03-0.13-0.06-0.19c-0.02-0.06-0.04-0.12-0.06-0.18
			c0-0.01-0.01-0.03-0.01-0.05c0.01,0.01,0.01,0.01,0.02,0.02c0.05,0.06,0.11,0.13,0.16,0.19l1.28,1.59
			c0.01,0.02,0.03,0.04,0.04,0.06c0.02,0.02,0.03,0.05,0.05,0.06l0.04,0.05l0.01,0.01c0.01,0.01,0.02,0.01,0.02,0.02
			c0.02,0.02,0.04,0.03,0.06,0.03c0.04,0.01,0.09,0.02,0.16-0.03c0.03-0.02,0.06-0.05,0.1-0.08l0.06-0.05l0.06-0.07
			c0.02-0.03,0.03-0.07,0.03-0.11C16.83,15.49,16.81,15.44,16.78,15.4z"/>
		<path class="st100" d="M20.28,13.62c-0.02-0.02-0.04-0.05-0.06-0.07c-0.02-0.02-0.04-0.03-0.05-0.04l0,0
			c-0.07-0.06-0.14-0.13-0.22-0.19c-0.07-0.06-0.14-0.13-0.22-0.19c-0.02-0.02-0.04-0.04-0.06-0.06c-0.02-0.02-0.05-0.04-0.07-0.07
			c-0.2-0.17-0.4-0.35-0.6-0.54c-0.2-0.19-0.4-0.37-0.6-0.54c-0.06-0.05-0.11-0.09-0.16-0.15c-0.05-0.05-0.11-0.1-0.17-0.15
			c-0.06-0.05-0.13-0.11-0.18-0.16c-0.06-0.06-0.12-0.12-0.19-0.17c-0.03-0.02-0.06-0.05-0.09-0.08c-0.04-0.04-0.09-0.07-0.14-0.08
			c-0.06-0.01-0.13,0.01-0.22,0.05c-0.07,0.04-0.13,0.07-0.19,0.1l-0.02,0.01l0,0c-0.01,0.01-0.03,0.01-0.04,0.03
			c-0.03,0.03-0.05,0.05-0.06,0.08c-0.02,0.04-0.03,0.1-0.02,0.16c0.01,0.05,0.01,0.09,0.01,0.13c0.01,0.1,0.02,0.19,0.03,0.29
			c0.01,0.09,0.02,0.19,0.03,0.28c0.02,0.27,0.05,0.54,0.07,0.8c0.03,0.26,0.05,0.53,0.07,0.79c0.01,0.08,0.01,0.16,0.02,0.24
			c0.01,0.08,0.02,0.16,0.02,0.23c0.01,0.12,0.02,0.23,0.04,0.35c0.01,0.11,0.02,0.22,0.03,0.33c0,0.02,0,0.04,0,0.06
			c0,0.03,0.01,0.05,0.01,0.08c0.01,0.03,0.02,0.06,0.03,0.08c0.02,0.04,0.06,0.06,0.1,0.06c0.01,0,0.02,0,0.03,0
			c0.02,0,0.05-0.01,0.07-0.02c0.02-0.01,0.05-0.02,0.08-0.04c0.05-0.02,0.09-0.05,0.13-0.07c0.05-0.03,0.09-0.07,0.11-0.11
			c0.01-0.02,0.02-0.05,0.02-0.09c0-0.03,0-0.06,0-0.09c0-0.03-0.01-0.06-0.01-0.09l-0.01-0.07c0-0.09-0.01-0.17-0.03-0.26
			c-0.01-0.09-0.02-0.17-0.02-0.26c0-0.05-0.01-0.1-0.02-0.14c-0.01-0.03-0.01-0.07,0-0.1l0-0.01c0-0.01,0.01-0.01,0.01-0.02
			c0.02-0.02,0.04-0.03,0.07-0.05c0.03-0.02,0.05-0.03,0.09-0.05c0.04-0.02,0.07-0.03,0.1-0.04l0.86-0.43
			c0.02-0.01,0.04-0.02,0.06-0.04c0.01-0.01,0.02-0.01,0.02-0.01l0.01,0c0.03,0,0.05,0,0.06,0c0.02,0,0.03,0.01,0.04,0.02
			c0.02,0.01,0.04,0.03,0.05,0.05c0.02,0.02,0.04,0.04,0.07,0.07c0.07,0.06,0.14,0.13,0.21,0.2c0.07,0.07,0.14,0.14,0.22,0.2
			c0.03,0.03,0.06,0.06,0.1,0.1c0.05,0.05,0.1,0.08,0.16,0.09c0.05,0,0.1-0.01,0.16-0.04l0.2-0.1c0.03-0.01,0.05-0.03,0.07-0.05
			c0.03-0.04,0.04-0.08,0.03-0.13C20.31,13.68,20.3,13.64,20.28,13.62z M17.61,13.06c0-0.02,0-0.03-0.01-0.05
			c-0.01-0.14-0.03-0.28-0.05-0.43c-0.02-0.14-0.04-0.28-0.04-0.42c0-0.04-0.01-0.09-0.02-0.13c-0.01-0.03-0.01-0.07-0.01-0.11
			l0-0.01c0-0.02-0.01-0.04-0.01-0.06c0-0.01,0-0.01,0-0.02c0,0,0,0,0.01,0.01l0,0c0.03,0.02,0.05,0.04,0.08,0.07
			c0.03,0.03,0.06,0.06,0.09,0.09c0.1,0.08,0.19,0.17,0.28,0.27c0.09,0.1,0.19,0.19,0.29,0.28c0.02,0.02,0.04,0.04,0.06,0.06
			c0.02,0.02,0.04,0.05,0.07,0.07l0.01,0c0,0,0.01,0,0,0c0.01,0.02,0.03,0.04,0.05,0.05c0.02,0.01,0.04,0.03,0.06,0.05
			c0.02,0.02,0.04,0.04,0.05,0.05c0.01,0.01,0.02,0.03,0.02,0.04c0,0,0,0-0.01,0.01l0,0c-0.01,0.01-0.03,0.03-0.08,0.05
			c-0.05,0.02-0.09,0.04-0.13,0.06l-0.49,0.24c-0.04,0.02-0.09,0.04-0.14,0.07c-0.03,0.01-0.04,0.01-0.05,0.01
			c0,0-0.01-0.01-0.01-0.02c0-0.01-0.01-0.01-0.01-0.02l0-0.01c-0.01-0.02-0.01-0.05-0.01-0.08l-0.01-0.08
			C17.62,13.1,17.61,13.08,17.61,13.06z"/>
		<path class="st100" d="M23.66,12.53l-0.83-3c-0.02-0.06-0.03-0.11-0.05-0.15c-0.03-0.06-0.08-0.1-0.15-0.11
			c-0.03,0-0.06,0-0.09,0.01l-0.06,0.02c-0.05,0.01-0.09,0.03-0.13,0.04c-0.07,0.02-0.11,0.07-0.12,0.11
			c-0.01,0.02-0.01,0.05-0.01,0.07c0,0.01,0,0.01,0,0.02l0,0.02l0.02,0.06c0,0.03,0.01,0.06,0.02,0.09
			c0.01,0.02,0.02,0.04,0.02,0.06l0.63,2.28c0,0.01,0,0.01,0,0.02c0,0-0.01-0.01-0.01-0.01c-0.03-0.03-0.06-0.06-0.09-0.08
			c-0.08-0.07-0.16-0.14-0.24-0.21c-0.08-0.07-0.16-0.14-0.24-0.21c-0.04-0.04-0.08-0.08-0.13-0.11c-0.04-0.03-0.08-0.06-0.12-0.1
			c-0.14-0.13-0.29-0.26-0.43-0.38c-0.14-0.12-0.28-0.25-0.43-0.38c-0.03-0.03-0.07-0.06-0.1-0.09c-0.03-0.03-0.07-0.06-0.1-0.08
			c-0.06-0.06-0.13-0.11-0.19-0.17c-0.06-0.05-0.12-0.11-0.19-0.16c-0.03-0.02-0.06-0.05-0.09-0.08c-0.04-0.04-0.08-0.06-0.12-0.08
			c-0.06-0.02-0.13-0.02-0.22,0.01c-0.07,0.02-0.14,0.04-0.19,0.06l-0.02,0l0,0c-0.02,0-0.04,0.01-0.06,0.03
			c-0.04,0.03-0.06,0.06-0.07,0.1c-0.01,0.04-0.01,0.09,0,0.15l0.89,3.21c0.01,0.05,0.04,0.09,0.07,0.11
			c0.02,0.02,0.06,0.04,0.11,0.04c0.01,0,0.02,0,0.04,0c0.04-0.01,0.08-0.02,0.13-0.03l0.11-0.03l0.01-0.01
			c0.02-0.01,0.03-0.02,0.05-0.03c0.03-0.02,0.05-0.05,0.06-0.09c0-0.02,0-0.05,0-0.09l-0.01-0.04c0-0.02,0-0.05-0.01-0.08
			c-0.01-0.02-0.01-0.04-0.02-0.05l-0.58-2.11c-0.01-0.03-0.02-0.06-0.03-0.09c-0.01-0.02-0.01-0.03-0.01-0.05l0-0.01l-0.01-0.03
			c0-0.01,0-0.01,0-0.02c0.01,0,0.01,0.01,0.02,0.01c0.02,0.02,0.04,0.04,0.06,0.05l0,0c0.16,0.14,0.33,0.28,0.48,0.42
			c0.09,0.08,0.18,0.16,0.27,0.24c0.09,0.08,0.18,0.16,0.27,0.24c0.16,0.15,0.33,0.29,0.49,0.44c0.16,0.14,0.33,0.28,0.49,0.43
			c0.04,0.04,0.08,0.07,0.12,0.11c0.04,0.04,0.08,0.07,0.12,0.1c0.02,0.02,0.04,0.04,0.06,0.05c0.03,0.03,0.07,0.05,0.11,0.05
			c0.04,0.01,0.08,0,0.14-0.01l0.25-0.07l0.02-0.01c0.02-0.01,0.05-0.03,0.06-0.04c0.03-0.02,0.05-0.05,0.07-0.09
			c0.02-0.04,0.02-0.09,0-0.14C23.68,12.6,23.67,12.57,23.66,12.53z"/>
		<path class="st100" d="M27.5,10.89l-0.11-1.76c0-0.04,0-0.08-0.01-0.13c0-0.07-0.02-0.12-0.04-0.15
			c-0.03-0.04-0.08-0.07-0.14-0.08l-0.01,0l-0.01,0c-0.01,0-0.03,0-0.04,0c-0.02,0-0.04,0-0.06,0l-0.13,0.01
			c-0.07,0-0.12,0.03-0.15,0.07c-0.04,0.05-0.05,0.11-0.04,0.2c0.01,0.07,0.01,0.14,0.02,0.19l0.11,1.71
			c0.01,0.11,0.01,0.22,0.01,0.32c0,0.1-0.01,0.19-0.03,0.27c-0.03,0.13-0.08,0.23-0.14,0.31c-0.06,0.08-0.15,0.14-0.27,0.2
			c-0.03,0.02-0.06,0.03-0.09,0.04c-0.04,0.01-0.08,0.02-0.12,0.03c-0.01,0-0.02,0-0.03,0c-0.03,0-0.05,0-0.07,0.01l-0.01,0
			c-0.01,0-0.01,0-0.03,0c-0.02,0-0.05,0-0.07,0l-0.05,0c-0.02,0-0.04,0-0.06,0c-0.02,0-0.04,0-0.05,0
			c-0.04-0.01-0.09-0.01-0.13-0.02c-0.03,0-0.07-0.01-0.1-0.02c-0.12-0.04-0.22-0.1-0.3-0.17c-0.08-0.07-0.14-0.17-0.19-0.29
			c-0.03-0.08-0.06-0.17-0.07-0.28c-0.01-0.11-0.02-0.23-0.03-0.35l-0.11-1.71c0-0.05-0.01-0.11-0.01-0.17
			c0-0.08-0.03-0.14-0.07-0.18c-0.04-0.04-0.1-0.06-0.19-0.05c-0.07,0.01-0.12,0.01-0.17,0.01l-0.02,0L24.5,8.94c0,0-0.01,0-0.01,0
			l-0.01,0l-0.01,0C24.41,8.97,24.37,9,24.35,9.04c-0.02,0.03-0.03,0.07-0.02,0.12l0.14,2.09c0,0.02,0,0.05,0,0.08
			c0,0.03,0,0.07,0.01,0.1l0,0.04l0,0.01c0,0.03,0.01,0.05,0.01,0.07c0,0.03,0.01,0.05,0.01,0.08l0,0.01
			c0.02,0.06,0.03,0.11,0.05,0.16c0.01,0.06,0.04,0.11,0.06,0.17c0.06,0.12,0.13,0.23,0.2,0.31c0.08,0.09,0.18,0.17,0.28,0.23
			c0.03,0.02,0.05,0.03,0.08,0.04c0.03,0.01,0.05,0.03,0.08,0.03c0.06,0.02,0.11,0.04,0.18,0.05c0.06,0.01,0.11,0.02,0.17,0.04
			c0.03,0.01,0.06,0.01,0.09,0.01c0.02,0,0.05,0,0.07,0.01l0.01,0l0.04,0c0.03,0.01,0.06,0.01,0.09,0c0.02,0,0.03,0,0.05,0l0.01,0
			l0.06,0c0.02,0,0.05,0,0.09,0c0.04,0,0.07-0.01,0.09-0.01l0.05,0l0.01,0c0.03-0.01,0.06-0.01,0.09-0.01
			c0.04,0,0.08-0.01,0.12-0.02c0.03-0.01,0.06-0.02,0.09-0.02c0.03-0.01,0.07-0.02,0.1-0.03c0.06-0.03,0.13-0.05,0.18-0.08
			c0.06-0.03,0.11-0.06,0.17-0.1c0.13-0.1,0.23-0.21,0.31-0.34c0.07-0.13,0.13-0.28,0.17-0.46c0.02-0.1,0.03-0.22,0.03-0.35
			C27.52,11.14,27.51,11.01,27.5,10.89z"/>
		<path class="st100" d="M31.37,9.53c0.01-0.02,0.02-0.05,0.02-0.07c0-0.01,0-0.03,0-0.04c0.01-0.05,0.01-0.09,0.01-0.13
			c0-0.05-0.02-0.1-0.06-0.13c-0.03-0.03-0.07-0.04-0.12-0.05l-2.09-0.27l0,0c-0.02,0-0.04,0-0.05,0c-0.05,0.01-0.09,0.03-0.12,0.06
			C28.92,8.95,28.9,9,28.89,9.06c0,0.04-0.01,0.09-0.01,0.12l-0.4,3.17c-0.01,0.05,0,0.09,0.02,0.12c0.02,0.04,0.05,0.09,0.13,0.1
			c0.04,0.01,0.09,0.02,0.14,0.02l0.11,0.01l0.01,0c0.02,0,0.03,0,0.05,0c0.05,0,0.08-0.02,0.1-0.04c0.04-0.04,0.07-0.11,0.08-0.19
			c0.01-0.07,0.01-0.13,0.02-0.18l0.11-0.87c0-0.03,0.01-0.07,0.01-0.11c0-0.04,0.01-0.07,0.01-0.11c0.01-0.03,0.01-0.06,0.02-0.08
			c0.01-0.02,0.02-0.02,0.02-0.03c0.01,0,0.03-0.02,0.11,0c0.07,0.01,0.14,0.02,0.19,0.03l1.03,0.13c0.01,0,0.02,0,0.03,0.01
			c0.02,0.01,0.05,0.01,0.07,0c0.02,0,0.02,0,0.03,0c0.02,0,0.04,0,0.06-0.01c0.03,0,0.08-0.02,0.11-0.08
			c0.01-0.02,0.02-0.05,0.03-0.07l0.02-0.16c0.01-0.05,0-0.09-0.02-0.12c-0.02-0.03-0.05-0.06-0.09-0.08
			c-0.03-0.01-0.07-0.02-0.11-0.03c-0.04-0.01-0.08-0.01-0.11-0.01c-0.03,0-0.07-0.01-0.1-0.01l-0.91-0.12
			c-0.05-0.01-0.1-0.01-0.17-0.02c-0.07-0.01-0.09-0.02-0.1-0.03c0-0.02-0.01-0.03-0.01-0.05l0-0.04l0-0.01c0-0.02,0-0.05,0-0.08
			c0.01-0.04,0.01-0.08,0.02-0.1l0.06-0.5c0.01-0.05,0.01-0.1,0.02-0.15c0-0.02,0.01-0.04,0.02-0.05l0,0
			c0.02-0.01,0.05-0.01,0.09-0.01c0.06,0.01,0.12,0.02,0.17,0.02l1.27,0.16c0.07,0.01,0.13,0.01,0.18,0.01
			C31.24,9.65,31.32,9.63,31.37,9.53z"/>
		<path class="st100" d="M34.52,13.5L34.52,13.5c-0.01-0.1-0.02-0.19-0.03-0.29c-0.01-0.1-0.02-0.19-0.03-0.29c0-0.03,0-0.06,0-0.09
			c0-0.03,0-0.06-0.01-0.1c-0.03-0.26-0.05-0.53-0.07-0.8c-0.02-0.27-0.04-0.54-0.06-0.81c-0.01-0.07-0.02-0.14-0.02-0.22
			c0-0.07-0.01-0.15-0.02-0.23c-0.01-0.08-0.02-0.16-0.02-0.24c0-0.08-0.01-0.17-0.02-0.26c-0.01-0.04-0.01-0.08-0.01-0.13
			c0-0.06-0.02-0.11-0.05-0.15c-0.04-0.05-0.1-0.09-0.2-0.11c-0.08-0.02-0.15-0.04-0.2-0.06l-0.02,0l0,0
			c-0.01-0.01-0.03-0.01-0.05-0.01c-0.04,0-0.07,0-0.1,0.02c-0.05,0.02-0.09,0.05-0.13,0.1c-0.03,0.04-0.05,0.07-0.08,0.1
			c-0.06,0.07-0.12,0.15-0.18,0.23c-0.06,0.08-0.12,0.15-0.18,0.23c-0.17,0.21-0.33,0.42-0.49,0.63c-0.16,0.21-0.32,0.42-0.49,0.62
			c-0.05,0.06-0.1,0.13-0.15,0.19c-0.05,0.06-0.1,0.13-0.15,0.19c-0.07,0.09-0.15,0.19-0.21,0.28c-0.06,0.09-0.13,0.18-0.21,0.26
			c-0.01,0.01-0.03,0.03-0.04,0.05c-0.02,0.02-0.03,0.04-0.04,0.07c-0.02,0.03-0.03,0.05-0.03,0.08c-0.01,0.04,0,0.08,0.03,0.11
			c0.02,0.03,0.05,0.05,0.09,0.06c0.03,0.01,0.05,0.02,0.08,0.03c0.05,0.01,0.1,0.03,0.14,0.04c0.06,0.02,0.11,0.01,0.16,0
			c0.03-0.01,0.05-0.03,0.08-0.05c0.02-0.02,0.04-0.04,0.06-0.07c0.02-0.02,0.03-0.05,0.05-0.07l0.04-0.06
			c0.06-0.07,0.11-0.14,0.16-0.21c0.05-0.07,0.1-0.14,0.16-0.2c0.03-0.04,0.06-0.08,0.08-0.12c0.02-0.03,0.04-0.05,0.07-0.07l0.01,0
			c0,0,0.01,0,0.02,0c0.03,0,0.05,0.01,0.09,0.01c0.03,0.01,0.06,0.01,0.09,0.03c0.04,0.01,0.07,0.02,0.1,0.03l0.92,0.28
			c0.02,0.01,0.05,0.01,0.07,0.02c0.01,0,0.02,0.01,0.02,0.01l0.01,0c0.02,0.01,0.04,0.03,0.05,0.04c0.01,0.01,0.02,0.03,0.02,0.04
			c0,0.02,0.01,0.05,0.01,0.07c0,0.03,0,0.06,0,0.1c0.01,0.1,0.01,0.19,0.02,0.29c0,0.1,0.01,0.2,0.02,0.3
			c0,0.04,0.01,0.09,0.01,0.14c0,0.07,0.02,0.13,0.06,0.17c0.03,0.03,0.08,0.06,0.14,0.08l0.21,0.06c0.02,0.01,0.05,0.01,0.07,0.01
			c0.01,0,0.01,0,0.02,0c0.05-0.01,0.09-0.03,0.11-0.07c0.02-0.03,0.03-0.06,0.03-0.1c0-0.03,0-0.06,0-0.09
			C34.52,13.54,34.52,13.52,34.52,13.5z M33.78,11.75c0,0.02,0.01,0.05,0.01,0.07c0,0.03,0,0.05,0,0.07c0,0.02-0.01,0.03-0.01,0.04
			c0,0,0,0-0.01,0l0,0c-0.01,0-0.04,0-0.09-0.02c-0.05-0.02-0.1-0.03-0.13-0.04l-0.52-0.16c-0.04-0.01-0.09-0.03-0.14-0.05
			c-0.03-0.01-0.04-0.02-0.04-0.02c0,0,0-0.01,0-0.02c0-0.01,0-0.02,0.01-0.02l0.01-0.01c0.01-0.02,0.03-0.04,0.04-0.06l0.05-0.07
			c0.01-0.02,0.02-0.03,0.04-0.05c0.01-0.01,0.02-0.03,0.03-0.04c0.09-0.11,0.18-0.22,0.26-0.34c0.08-0.12,0.16-0.23,0.25-0.33
			c0.03-0.03,0.06-0.07,0.08-0.1c0.02-0.03,0.04-0.06,0.06-0.09l0-0.01c0.01-0.02,0.02-0.03,0.04-0.05c0-0.01,0.01-0.01,0.01-0.02
			c0,0,0,0.01,0,0.01l0,0.01c0.01,0.03,0.01,0.07,0.01,0.1c0,0.04,0,0.09,0.01,0.13c0.01,0.13,0.02,0.26,0.02,0.39
			c0,0.13,0.01,0.27,0.02,0.41c0,0.03,0.01,0.06,0.01,0.09c0,0.03,0,0.06,0,0.09l0,0.01c0,0,0,0.01,0,0.01c0,0,0,0,0,0
			C33.77,11.7,33.77,11.72,33.78,11.75z"/>
		<path class="st100" d="M39.01,12.64c-0.02-0.25-0.11-0.48-0.26-0.7c-0.15-0.21-0.38-0.4-0.69-0.56l-0.01-0.01
			c-0.02-0.01-0.03-0.02-0.05-0.02c-0.02-0.01-0.04-0.02-0.06-0.03c-0.02-0.01-0.05-0.02-0.08-0.03l-0.06-0.02
			c-0.02-0.01-0.04-0.01-0.06-0.02l-0.01,0c-0.04-0.01-0.08-0.02-0.12-0.03c-0.05-0.01-0.09-0.02-0.14-0.03
			c-0.07,0-0.13-0.01-0.2-0.01c-0.07,0-0.13,0-0.2,0.01c-0.03,0-0.06,0.01-0.08,0.01c-0.02,0-0.05,0.01-0.08,0.02
			c-0.03,0.01-0.06,0.01-0.09,0.02c-0.03,0.01-0.07,0.02-0.1,0.04l-0.01,0c-0.01,0.01-0.02,0.01-0.03,0.01
			c-0.03,0-0.05,0.01-0.08,0.03c-0.08,0.04-0.16,0.09-0.25,0.14c-0.04,0.02-0.08,0.05-0.13,0.09c-0.04,0.03-0.08,0.06-0.11,0.09
			c-0.04,0.04-0.09,0.08-0.12,0.12c-0.03,0.04-0.07,0.08-0.11,0.12c-0.02,0.02-0.04,0.05-0.05,0.07c-0.01,0.01-0.01,0.02-0.02,0.03
			l0,0c-0.02,0.02-0.04,0.05-0.06,0.08c-0.01,0.02-0.03,0.05-0.04,0.07l-0.02,0.04c-0.01,0.01-0.02,0.03-0.02,0.05
			c-0.02,0.02-0.04,0.05-0.06,0.09c-0.02,0.04-0.03,0.07-0.04,0.09l-0.04,0.08l-0.01,0.01c-0.01,0.03-0.02,0.05-0.03,0.08
			c-0.02,0.03-0.03,0.07-0.04,0.1c0,0.01-0.01,0.02-0.01,0.02c-0.01,0.02-0.02,0.04-0.03,0.07c-0.01,0.04-0.03,0.09-0.04,0.13
			c-0.01,0.05-0.02,0.09-0.03,0.14c-0.04,0.25-0.04,0.48,0,0.7c0.04,0.22,0.14,0.43,0.29,0.62c0.04,0.06,0.09,0.11,0.14,0.16
			c0.02,0.02,0.05,0.05,0.07,0.07c0.02,0.02,0.05,0.04,0.07,0.05c0.02,0.02,0.05,0.04,0.07,0.05c0.02,0.01,0.03,0.02,0.05,0.04
			l0.05,0.03c0.02,0.01,0.04,0.02,0.05,0.03c0.01,0,0.01,0.01,0.02,0.01c0.01,0.01,0.03,0.02,0.07,0.05
			c0.04,0.02,0.06,0.03,0.08,0.04c0.02,0.01,0.03,0.01,0.05,0.02c0.02,0.01,0.04,0.02,0.07,0.03l0.01,0c0,0,0.01,0,0.01,0.01
			c0.02,0.01,0.04,0.02,0.07,0.03c0.04,0.01,0.07,0.02,0.11,0.04c0.04,0.02,0.08,0.03,0.13,0.03c0.04,0.01,0.07,0.01,0.11,0.02
			c0.04,0.01,0.08,0.01,0.13,0.02c0.03,0,0.06,0,0.09,0c0.09,0,0.18-0.01,0.27-0.03c0.12-0.02,0.23-0.06,0.33-0.12
			c0.04-0.02,0.09-0.05,0.13-0.08c0.04-0.02,0.08-0.05,0.12-0.08l0,0c0.06-0.04,0.12-0.1,0.18-0.16c0.05-0.05,0.1-0.11,0.15-0.17
			c0.03-0.03,0.06-0.07,0.07-0.11c0.03-0.06,0.01-0.11,0-0.14c-0.01-0.02-0.02-0.04-0.04-0.05c-0.01,0-0.01-0.01-0.02-0.01
			l-0.01-0.01l-0.04-0.02c-0.01-0.01-0.03-0.02-0.05-0.03l-0.04-0.02c-0.04-0.02-0.08-0.04-0.12-0.06
			c-0.07-0.03-0.12-0.01-0.16,0.01c-0.04,0.02-0.07,0.05-0.09,0.08c-0.02,0.02-0.04,0.05-0.05,0.07c-0.06,0.06-0.11,0.11-0.16,0.15
			c-0.2,0.16-0.42,0.22-0.69,0.19c-0.03,0-0.05-0.01-0.08-0.02c-0.03-0.01-0.06-0.02-0.1-0.03l-0.02,0
			c-0.02-0.01-0.03-0.02-0.05-0.03l-0.04-0.02l-0.01,0c0,0-0.02,0-0.06-0.03c-0.05-0.03-0.06-0.04-0.07-0.04
			c-0.03-0.02-0.05-0.04-0.08-0.05c-0.01,0-0.02-0.01-0.03-0.02c-0.04-0.04-0.08-0.08-0.12-0.12c-0.03-0.03-0.06-0.07-0.09-0.11
			c-0.09-0.13-0.15-0.26-0.17-0.4c-0.02-0.14-0.02-0.3,0.01-0.47c0.01-0.04,0.02-0.08,0.03-0.12c0.01-0.04,0.02-0.09,0.04-0.13
			l0-0.01c0-0.01,0-0.01,0.01-0.02c0.02-0.03,0.03-0.05,0.03-0.08c0-0.02,0.01-0.03,0.02-0.04c0.02-0.02,0.03-0.05,0.03-0.08
			l0.02-0.04l0-0.01c0-0.01,0.01-0.03,0.02-0.05c0.01-0.02,0.03-0.05,0.04-0.07c0.02-0.03,0.04-0.07,0.06-0.1
			c0.02-0.03,0.04-0.06,0.06-0.08c0.01-0.02,0.02-0.03,0.03-0.04c0,0,0-0.01,0.01-0.01c0.02-0.02,0.04-0.04,0.05-0.07
			c0.01-0.01,0.01-0.02,0.03-0.03c0.04-0.04,0.08-0.08,0.12-0.12c0.03-0.04,0.07-0.07,0.12-0.1c0.23-0.19,0.49-0.26,0.78-0.24
			c0.03,0,0.06,0.01,0.08,0.01c0.03,0.01,0.06,0.02,0.09,0.03l0.01,0c0.03,0.01,0.07,0.02,0.11,0.03c0.04,0.02,0.09,0.04,0.13,0.06
			c0.04,0.02,0.09,0.05,0.12,0.07c0.04,0.02,0.07,0.05,0.09,0.07c0.04,0.04,0.08,0.07,0.11,0.11c0.03,0.03,0.06,0.06,0.08,0.1
			c0.04,0.07,0.07,0.14,0.1,0.21c0.02,0.07,0.04,0.14,0.04,0.22c0,0.04,0,0.08-0.01,0.11c-0.01,0.05-0.01,0.1-0.01,0.15
			c0,0.04,0.02,0.09,0.08,0.14c0.03,0.02,0.07,0.05,0.12,0.07l0.04,0.02c0.02,0.01,0.03,0.01,0.04,0.02l0.05,0.02l0.01,0
			c0.02,0,0.04,0.01,0.06,0.01c0.04,0.01,0.08,0,0.11-0.03c0.03-0.03,0.05-0.06,0.06-0.1c0.01-0.03,0.01-0.06,0.02-0.08
			c0.01-0.07,0.02-0.14,0.03-0.19C39.02,12.77,39.02,12.71,39.01,12.64z"/>
		<path class="st100" d="M41.33,14.46c0.03-0.04,0.05-0.06,0.06-0.07c0.01-0.01,0.03-0.01,0.04-0.01c0.01,0,0.03,0,0.04,0.01
			c0.02,0.01,0.04,0.03,0.07,0.05c0.03,0.02,0.06,0.05,0.09,0.07l0.56,0.45c0.05,0.04,0.09,0.06,0.14,0.06l0.01,0
			c0.04,0,0.07-0.01,0.1-0.03c0.02-0.01,0.03-0.02,0.06-0.04l0.05-0.06c0.03-0.04,0.05-0.07,0.07-0.1c0.02-0.04,0.03-0.09,0.01-0.15
			c-0.01-0.04-0.04-0.07-0.08-0.1l-2.06-1.64l0,0c-0.01-0.01-0.02-0.02-0.04-0.02c-0.01-0.01-0.03-0.01-0.04-0.02
			c-0.02-0.01-0.05-0.01-0.07,0c-0.03,0-0.05,0.02-0.08,0.04c-0.03,0.02-0.05,0.04-0.07,0.07c-0.02,0.03-0.04,0.05-0.06,0.08
			c-0.02,0.04-0.04,0.07-0.04,0.1c0,0.02,0,0.04,0.01,0.06l0.01,0.04l0.01,0.01c0.02,0.03,0.05,0.07,0.1,0.11
			c0.04,0.03,0.08,0.06,0.11,0.08l0.44,0.35c0.05,0.04,0.1,0.08,0.14,0.12c0.02,0.02,0.02,0.04,0.02,0.06
			c-0.01,0.02-0.02,0.04-0.05,0.08c-0.03,0.04-0.06,0.07-0.08,0.1l-1.64,2.06c-0.03,0.04-0.05,0.07-0.08,0.1
			c-0.03,0.04-0.05,0.09-0.05,0.13c0,0.05,0.02,0.1,0.08,0.15l0.11,0.09c0.02,0.02,0.04,0.03,0.07,0.05
			c0.03,0.02,0.05,0.03,0.08,0.04l0.01,0c0.01,0,0.03,0,0.04,0c0.05,0,0.09-0.02,0.13-0.05c0.03-0.03,0.06-0.07,0.1-0.11l1.64-2.07
			C41.27,14.54,41.3,14.5,41.33,14.46z"/>
		<path class="st100" d="M43.63,19.43c0.09-0.08,0.19-0.16,0.29-0.24l1.33-1.15c0.03-0.03,0.06-0.06,0.1-0.09
			c0.05-0.04,0.08-0.08,0.1-0.13c0.02-0.05,0.01-0.1-0.03-0.16l-0.01-0.01c-0.01-0.01-0.02-0.02-0.02-0.03
			c-0.01-0.01-0.02-0.03-0.03-0.04l-0.09-0.1c-0.04-0.05-0.09-0.08-0.15-0.07c-0.06,0-0.12,0.03-0.19,0.09
			c-0.05,0.05-0.1,0.09-0.14,0.13l-1.29,1.12c-0.08,0.07-0.17,0.14-0.25,0.21c-0.08,0.06-0.16,0.11-0.23,0.14
			c-0.12,0.05-0.23,0.08-0.33,0.08c-0.1,0-0.2-0.03-0.32-0.09c-0.03-0.01-0.06-0.03-0.09-0.05c-0.03-0.03-0.07-0.05-0.1-0.07
			c-0.01-0.01-0.02-0.01-0.02-0.02c-0.01-0.02-0.03-0.04-0.05-0.05l-0.01-0.01c-0.01,0-0.01-0.01-0.02-0.02
			c-0.01-0.02-0.03-0.04-0.04-0.05L42,18.76c-0.01-0.02-0.02-0.04-0.04-0.05c-0.01-0.02-0.02-0.03-0.03-0.05
			c-0.02-0.04-0.04-0.08-0.07-0.11c-0.02-0.03-0.03-0.06-0.04-0.09c-0.04-0.12-0.05-0.24-0.04-0.34c0.01-0.11,0.05-0.22,0.11-0.33
			c0.04-0.07,0.1-0.15,0.18-0.22c0.08-0.08,0.17-0.15,0.26-0.23l1.29-1.12c0.04-0.04,0.08-0.07,0.13-0.11
			c0.06-0.05,0.1-0.1,0.1-0.16c0.01-0.06-0.01-0.12-0.07-0.18c-0.04-0.05-0.08-0.09-0.11-0.13l-0.01-0.01l-0.01,0
			c0,0-0.01-0.01-0.01-0.01l-0.01-0.01l-0.01-0.01c-0.05-0.03-0.09-0.04-0.14-0.04c-0.04,0.01-0.07,0.02-0.11,0.05l-1.58,1.37
			c-0.02,0.02-0.04,0.03-0.06,0.05c-0.03,0.02-0.05,0.04-0.07,0.07l-0.03,0.03l-0.01,0.01c-0.02,0.02-0.03,0.04-0.05,0.05
			c-0.02,0.02-0.04,0.04-0.06,0.06l0,0.01c-0.04,0.05-0.07,0.09-0.1,0.13c-0.04,0.05-0.07,0.1-0.1,0.15
			c-0.06,0.12-0.1,0.24-0.13,0.35c-0.02,0.12-0.03,0.24-0.01,0.36c0,0.03,0.01,0.06,0.01,0.09c0,0.03,0.01,0.06,0.02,0.08
			c0.02,0.06,0.04,0.11,0.07,0.17c0.02,0.05,0.05,0.1,0.08,0.16c0.01,0.03,0.03,0.05,0.04,0.08c0.01,0.02,0.02,0.04,0.04,0.06
			l0.03,0.04c0.01,0.03,0.03,0.05,0.05,0.07c0.01,0.01,0.02,0.03,0.03,0.04l0,0.01l0.04,0.05c0.01,0.02,0.03,0.04,0.05,0.07
			c0.02,0.03,0.04,0.05,0.06,0.06l0.04,0.04l0.01,0.01c0.02,0.02,0.05,0.04,0.07,0.06c0.03,0.03,0.06,0.06,0.09,0.08
			c0.03,0.02,0.05,0.04,0.07,0.06c0.03,0.02,0.06,0.04,0.09,0.06c0.06,0.04,0.12,0.07,0.18,0.1c0.06,0.03,0.12,0.05,0.18,0.07
			c0.11,0.03,0.22,0.05,0.32,0.05c0.05,0,0.09,0,0.14-0.01c0.14-0.02,0.3-0.07,0.46-0.14C43.43,19.58,43.53,19.51,43.63,19.43z"/>
		<path class="st100" d="M45.01,23.25c0.02-0.02,0.04-0.04,0.06-0.06c0.03-0.02,0.06-0.05,0.09-0.07c0.01-0.01,0.02-0.01,0.02-0.01
			c0.02-0.01,0.04-0.02,0.06-0.04c0.01-0.01,0.03-0.02,0.05-0.03c0.03-0.01,0.06-0.03,0.08-0.05l0.04-0.02l0.01-0.01
			c0.01-0.01,0.02-0.02,0.03-0.02c0.03-0.01,0.06-0.03,0.08-0.05l0.06-0.05c0.02-0.02,0.04-0.03,0.06-0.05l0.01-0.01
			c0.05-0.05,0.1-0.1,0.14-0.14c0.05-0.05,0.09-0.11,0.11-0.17c0.02-0.04,0.04-0.09,0.05-0.14c0.01-0.04,0.01-0.09,0.02-0.14l0,0
			l0,0c0-0.01,0-0.02,0-0.03c0.01,0,0.02,0.01,0.03,0.02c0.03,0.02,0.06,0.03,0.09,0.04c0.03,0.01,0.06,0.02,0.09,0.04l0.01,0
			c0.01,0,0.02,0.01,0.04,0.01c0.01,0,0.02,0,0.02,0c0.01,0,0.02,0.01,0.03,0.01l0.02,0c0.02,0,0.03,0,0.04,0
			c0.02,0,0.05,0.01,0.07,0.01c0.05,0,0.11,0,0.16-0.01l0.15-0.03c0.03-0.01,0.06-0.02,0.08-0.03c0.02-0.01,0.04-0.02,0.06-0.02
			l0.06-0.03c0.02-0.01,0.04-0.01,0.06-0.02c0.02-0.01,0.04-0.02,0.06-0.04l0.04-0.02l0.01-0.01c0.02-0.02,0.04-0.03,0.06-0.04
			c0.03-0.02,0.05-0.04,0.08-0.06c0.08-0.09,0.15-0.18,0.2-0.27c0.05-0.1,0.08-0.2,0.09-0.31c0.01-0.06,0.01-0.13,0-0.19
			c-0.01-0.06-0.02-0.13-0.03-0.2c-0.01-0.03-0.02-0.06-0.03-0.09c-0.01-0.02-0.02-0.05-0.03-0.07l0-0.01
			c-0.01-0.02-0.02-0.05-0.03-0.06c-0.01-0.02-0.01-0.03-0.02-0.05l-0.03-0.05c-0.01-0.02-0.02-0.05-0.04-0.07
			c-0.01-0.02-0.03-0.04-0.04-0.06l-0.74-1.3l0,0c-0.01-0.01-0.02-0.03-0.03-0.04c-0.04-0.03-0.08-0.05-0.12-0.06
			c-0.05,0-0.09,0.01-0.14,0.04c-0.03,0.02-0.07,0.04-0.1,0.06l-2.8,1.6c-0.08,0.04-0.1,0.1-0.1,0.14c0,0.04,0,0.09,0.03,0.13
			c0.02,0.03,0.03,0.07,0.05,0.1c0.01,0.01,0.01,0.03,0.02,0.04c0.01,0.02,0.02,0.04,0.04,0.06l0.01,0.01
			c0.01,0.01,0.01,0.01,0.01,0.01c0,0,0,0,0,0c0.01,0.02,0.03,0.04,0.05,0.05c0.03,0.03,0.07,0.04,0.11,0.03
			c0.05,0,0.11-0.03,0.17-0.07c0.06-0.04,0.11-0.07,0.15-0.09l0.64-0.37c0.05-0.03,0.11-0.06,0.17-0.1c0.07-0.04,0.1-0.04,0.11-0.04
			c0.01,0,0.01,0,0.01,0.01c0.01,0.01,0.03,0.03,0.04,0.04l0.46,0.8c0.03,0.05,0.05,0.1,0.08,0.14c0.02,0.04,0.03,0.08,0.04,0.12
			c0.03,0.13,0,0.25-0.08,0.36c-0.03,0.04-0.07,0.08-0.11,0.11c-0.05,0.04-0.1,0.08-0.15,0.13c-0.02,0.02-0.03,0.03-0.05,0.04
			c-0.02,0.01-0.05,0.03-0.07,0.05l-0.18,0.12l-0.05,0.03c-0.02,0.01-0.04,0.03-0.06,0.04l0,0c0,0,0,0-0.01,0
			c-0.02,0.01-0.05,0.02-0.06,0.04l-0.02,0.01c-0.01,0.01-0.03,0.02-0.04,0.03c-0.03,0.02-0.06,0.05-0.08,0.08
			c-0.04,0.04-0.06,0.08-0.06,0.13c-0.01,0.05,0.01,0.11,0.04,0.17l0.08,0.14c0.01,0.03,0.03,0.05,0.04,0.07
			c0.02,0.03,0.04,0.05,0.07,0.07l0.01,0c0.02,0.01,0.04,0.01,0.06,0.01c0.05,0,0.09-0.02,0.12-0.07l0.08-0.1
			c0.01-0.01,0.02-0.02,0.03-0.03C44.98,23.29,45,23.27,45.01,23.25z M45.71,21.18c-0.06-0.11-0.12-0.22-0.19-0.34l-0.16-0.27
			c-0.02-0.03-0.03-0.06-0.04-0.09c-0.01-0.02,0-0.03,0-0.03c0.01-0.02,0.03-0.04,0.06-0.06c0.05-0.03,0.1-0.05,0.14-0.08l0.51-0.29
			c0.04-0.02,0.08-0.05,0.13-0.08c0.05-0.03,0.07-0.04,0.09-0.04c0,0,0,0,0.01,0c0.01,0,0.02,0,0.03,0.02l0,0c0,0,0,0,0,0
			c0.01,0.01,0.01,0.02,0.02,0.03l0.41,0.72c0.05,0.08,0.09,0.16,0.13,0.24c0.04,0.07,0.06,0.14,0.07,0.2
			c0.02,0.15-0.02,0.28-0.13,0.4c-0.02,0.03-0.05,0.05-0.09,0.08c-0.04,0.03-0.08,0.05-0.12,0.06l-0.05,0.02
			c-0.04,0.01-0.08,0.02-0.12,0.03c-0.03,0.01-0.07,0.01-0.11,0.01h0c-0.08,0-0.16-0.03-0.22-0.07c-0.07-0.05-0.14-0.11-0.2-0.19
			C45.83,21.38,45.77,21.29,45.71,21.18z"/>
		<path class="st100" d="M48.43,23.54c0.05-0.02,0.09-0.06,0.11-0.1c0.02-0.03,0.02-0.06,0.02-0.1c0-0.03-0.01-0.06-0.02-0.09
			c-0.01-0.03-0.02-0.06-0.04-0.09c-0.01-0.03-0.02-0.05-0.03-0.07l-0.01-0.02l0,0c0-0.01-0.01-0.03-0.02-0.04
			c-0.04-0.05-0.08-0.07-0.12-0.08c-0.05-0.01-0.1,0-0.15,0.02c-0.04,0.02-0.08,0.03-0.11,0.05l-2.96,1.18
			c-0.05,0.02-0.08,0.04-0.1,0.07c-0.03,0.03-0.05,0.09-0.03,0.16c0.01,0.04,0.03,0.08,0.05,0.13l0.04,0.09l0.01,0.02
			c0.02,0.02,0.03,0.04,0.04,0.05c0.02,0.03,0.05,0.05,0.09,0.06l0.01,0c0.01,0,0.02,0,0.04,0c0.04,0,0.07-0.01,0.12-0.03l2.96-1.18
			C48.35,23.57,48.39,23.56,48.43,23.54z"/>
		<path class="st100" d="M46.34,28.61c0.02,0,0.04,0,0.07-0.01c0.03-0.01,0.07-0.02,0.11-0.03l3.03-0.72
			c0.06-0.01,0.11-0.03,0.15-0.04c0.06-0.02,0.11-0.07,0.12-0.14c0-0.03,0-0.06,0-0.09l-0.01-0.06c-0.01-0.05-0.02-0.09-0.03-0.13
			c-0.02-0.08-0.07-0.11-0.11-0.13c-0.02-0.01-0.05-0.01-0.07-0.01c-0.01,0-0.01,0-0.02,0l-0.02,0l-0.06,0.01c0,0,0,0,0,0
			c-0.03,0-0.06,0.01-0.09,0.02c-0.02,0.01-0.04,0.02-0.06,0.02l-2.31,0.55c-0.01,0-0.01,0-0.02,0c0,0,0.01-0.01,0.01-0.01
			c0.03-0.03,0.06-0.06,0.08-0.08c0.07-0.08,0.15-0.15,0.22-0.23c0.07-0.08,0.15-0.16,0.22-0.23c0.04-0.04,0.08-0.08,0.12-0.12
			c0.03-0.04,0.07-0.08,0.11-0.11c0.13-0.14,0.27-0.28,0.4-0.42c0.13-0.14,0.26-0.28,0.4-0.41c0.03-0.03,0.06-0.07,0.09-0.1
			c0.03-0.03,0.06-0.06,0.09-0.09c0.06-0.06,0.12-0.12,0.18-0.18c0.06-0.06,0.11-0.12,0.17-0.18c0.02-0.03,0.05-0.06,0.08-0.09
			c0.04-0.04,0.07-0.08,0.08-0.12c0.02-0.06,0.02-0.13,0-0.22c-0.02-0.07-0.04-0.14-0.05-0.2l0-0.02l0,0c0-0.02-0.01-0.05-0.02-0.06
			c-0.03-0.04-0.06-0.06-0.09-0.07c-0.04-0.01-0.09-0.01-0.15,0l-3.24,0.77c-0.05,0.01-0.09,0.03-0.11,0.07
			c-0.03,0.03-0.05,0.08-0.04,0.15c0.01,0.04,0.01,0.08,0.03,0.13l0.03,0.11l0.01,0.01c0.01,0.02,0.02,0.03,0.03,0.05
			c0.02,0.03,0.05,0.06,0.09,0.06c0.02,0,0.05,0.01,0.09,0l0.04-0.01c0.02,0,0.05,0,0.08-0.01c0.02-0.01,0.04-0.01,0.05-0.02
			l2.13-0.51c0.03-0.01,0.06-0.02,0.09-0.03c0.02-0.01,0.03-0.01,0.05-0.01l0.01,0l0.03-0.01c0.01,0,0.01,0,0.02,0
			c0,0.01-0.01,0.01-0.01,0.02c-0.02,0.02-0.04,0.04-0.06,0.05l0,0c-0.14,0.16-0.29,0.31-0.44,0.46c-0.08,0.08-0.17,0.17-0.25,0.26
			c-0.08,0.09-0.16,0.17-0.25,0.26c-0.15,0.16-0.31,0.32-0.45,0.47c-0.15,0.16-0.3,0.32-0.44,0.48c-0.04,0.04-0.07,0.08-0.11,0.11
			c-0.04,0.04-0.07,0.08-0.11,0.11c-0.02,0.02-0.04,0.04-0.06,0.06c-0.03,0.03-0.05,0.07-0.05,0.11c-0.01,0.04-0.01,0.08,0.01,0.14
			l0.06,0.25l0.01,0.02c0.01,0.03,0.02,0.05,0.03,0.06c0.02,0.03,0.05,0.06,0.08,0.07C46.29,28.6,46.32,28.61,46.34,28.61z"/>
		<path class="st100" d="M50.2,30.94c0-0.03,0-0.06,0-0.09c0-0.03-0.01-0.06-0.01-0.09l0-0.01c0-0.01,0-0.02,0-0.03
			c0-0.02-0.01-0.05-0.02-0.07c-0.01-0.03-0.02-0.07-0.02-0.1c-0.01-0.04-0.02-0.08-0.03-0.12c-0.07-0.2-0.17-0.37-0.29-0.52
			c-0.12-0.14-0.27-0.27-0.44-0.37c-0.09-0.06-0.2-0.11-0.31-0.14c-0.11-0.03-0.22-0.07-0.33-0.1c-0.04-0.01-0.09-0.02-0.13-0.02
			c-0.04,0-0.08-0.01-0.12-0.02c-0.02,0-0.04-0.01-0.07,0c-0.01,0-0.03,0-0.04,0c-0.02,0-0.05,0-0.07,0l-0.1,0
			c-0.03-0.01-0.06-0.01-0.11-0.01c-0.05,0-0.08,0.01-0.11,0.01l-0.03,0l-0.01,0l-0.01,0c0,0,0,0-0.01,0c-0.02,0-0.05,0-0.07,0.01
			c-0.04,0.01-0.08,0.02-0.11,0.02c-0.04,0.01-0.09,0.02-0.13,0.03l-0.01,0.01c0,0-0.01,0-0.01,0c-0.02,0-0.04,0-0.06,0.01l-0.01,0
			c-0.05,0.02-0.09,0.04-0.14,0.05c-0.05,0.02-0.09,0.03-0.13,0.05c-0.2,0.1-0.38,0.22-0.53,0.38c-0.15,0.15-0.27,0.34-0.36,0.54
			c-0.02,0.06-0.04,0.12-0.06,0.18c-0.01,0.06-0.03,0.12-0.04,0.17c-0.01,0.04-0.02,0.08-0.02,0.12c0,0.03,0,0.06-0.01,0.1l0,0.01
			l0,0.09c0,0.02,0,0.04,0,0.07c0,0.02,0,0.05,0.01,0.06l0,0.05l0,0.01c0,0,0,0.01,0,0.01l0,0.03l0,0.02c0,0,0,0.01,0,0.04l0,0.02
			c0.01,0.02,0.01,0.05,0.02,0.07c0,0.03,0.01,0.05,0.02,0.08c0.03,0.09,0.06,0.18,0.09,0.26c0.03,0.08,0.08,0.16,0.13,0.24
			c0.02,0.03,0.04,0.06,0.07,0.09c0.02,0.02,0.04,0.04,0.06,0.07c0.02,0.02,0.03,0.04,0.05,0.05c0,0,0.01,0.01,0.01,0.02
			c-0.03,0.01-0.06,0.02-0.08,0.03c-0.03,0.01-0.06,0.02-0.09,0.03c-0.03,0.01-0.06,0.03-0.09,0.04c-0.03,0.02-0.05,0.05-0.07,0.09
			c-0.01,0.03-0.02,0.08-0.02,0.14c0,0.05,0.01,0.08,0.02,0.1c0.02,0.05,0.06,0.08,0.1,0.09c0.02,0.01,0.05,0.01,0.08,0.01
			c0,0,0.01,0,0.01,0l1.53-0.04c0.03,0,0.05,0,0.08,0c0.04,0,0.07,0,0.1-0.01c0.06-0.02,0.09-0.06,0.1-0.09
			c0.01-0.03,0.02-0.07,0.03-0.11c0-0.04,0.01-0.08,0-0.12c0-0.04,0-0.07-0.01-0.11l-0.03-1.07c0-0.03-0.01-0.06-0.02-0.08
			c-0.02-0.05-0.04-0.09-0.08-0.11C48.29,31.01,48.26,31,48.23,31c-0.03-0.01-0.06-0.01-0.09-0.01c-0.03,0-0.06,0-0.09,0.01
			c-0.03,0-0.06,0.01-0.08,0.02c-0.03,0.01-0.07,0.03-0.09,0.09l0,0.01c-0.01,0.04-0.02,0.08-0.02,0.13l0.02,0.82
			c0,0.04,0,0.06-0.01,0.07c-0.01,0.01-0.03,0.01-0.05,0.02c-0.04,0-0.08,0-0.11-0.01c-0.03-0.01-0.06-0.01-0.09-0.02
			c-0.02,0-0.05-0.01-0.07-0.01c-0.31-0.09-0.52-0.28-0.65-0.58c-0.02-0.03-0.03-0.07-0.04-0.1c-0.01-0.04-0.02-0.09-0.04-0.14
			l0-0.01c0,0,0-0.01,0-0.01c0-0.03,0-0.06-0.01-0.08c0-0.01,0-0.03,0-0.05l0-0.07c0-0.1,0.01-0.19,0.03-0.27
			c0.01-0.03,0.01-0.05,0.02-0.07c0.01-0.02,0.01-0.04,0.02-0.06c0.07-0.19,0.19-0.35,0.34-0.47c0.03-0.03,0.07-0.05,0.1-0.08
			c0.03-0.02,0.07-0.04,0.1-0.06c0.05-0.02,0.09-0.04,0.14-0.06c0.05-0.02,0.09-0.04,0.14-0.06c0.02-0.01,0.05-0.01,0.07-0.02
			c0.03-0.01,0.05-0.01,0.08-0.02c0.01,0,0.02-0.01,0.03,0c0.03,0,0.06,0,0.1-0.01l0.01,0c0,0,0,0,0,0c0.01,0,0.03,0,0.04-0.01
			l0.04,0l0.01,0c0.01,0,0.02,0,0.07-0.01c0.04,0,0.06,0,0.07,0l0.01,0l0.05,0c0.03,0.01,0.06,0.01,0.09,0.01c0.02,0,0.03,0,0.05,0
			c0.03,0.01,0.05,0.01,0.08,0.01c0,0,0.01,0,0.01,0l0.01,0c0.04,0.01,0.09,0.02,0.13,0.02c0.04,0.01,0.07,0.01,0.11,0.03
			c0.17,0.05,0.31,0.12,0.43,0.2c0.11,0.08,0.22,0.18,0.3,0.32c0.05,0.08,0.09,0.18,0.13,0.28c0,0.02,0.01,0.04,0.01,0.06
			c0,0.02,0.01,0.04,0.01,0.06c0,0.01,0,0.02,0,0.03c0,0.01,0,0.01,0,0.01l0,0.01c0,0.02,0.01,0.04,0.01,0.05l0,0.12
			c0,0.02,0,0.03,0,0.05c0,0,0,0,0,0.01c-0.01,0.03-0.01,0.07-0.01,0.1c0,0.03-0.01,0.05-0.01,0.08c-0.02,0.06-0.03,0.11-0.05,0.16
			c-0.02,0.05-0.04,0.1-0.06,0.14c-0.01,0.01-0.02,0.03-0.02,0.04c-0.01,0.02-0.03,0.03-0.04,0.05c-0.02,0.03-0.04,0.05-0.07,0.08
			c-0.01,0.01-0.03,0.02-0.04,0.04c-0.01,0.01-0.01,0.01-0.01,0.02c-0.03,0.02-0.07,0.05-0.1,0.07c-0.04,0.02-0.07,0.04-0.11,0.06
			l-0.01,0c-0.02,0.01-0.05,0.02-0.07,0.03c-0.04,0.01-0.08,0.04-0.11,0.07c-0.02,0.02-0.03,0.05-0.04,0.08
			c-0.01,0.03-0.01,0.05,0,0.07c-0.01,0.02-0.01,0.06-0.01,0.1c0,0.04,0.01,0.07,0.01,0.1l0,0.04l0,0.01c0,0,0,0.01,0,0.01
			c0,0.03,0.01,0.06,0.03,0.07c0.03,0.04,0.08,0.07,0.14,0.07c0.04,0,0.09-0.01,0.13-0.02l0.01,0c0.07-0.03,0.13-0.06,0.2-0.09
			c0.07-0.03,0.13-0.07,0.19-0.11c0.03-0.02,0.06-0.04,0.08-0.07c0.02-0.02,0.04-0.03,0.06-0.05l0.05-0.05
			c0.05-0.06,0.1-0.12,0.14-0.18c0.1-0.14,0.17-0.31,0.21-0.5C50.19,31.39,50.21,31.18,50.2,30.94z"/>
	</g>
	<g>
		<polygon class="st100" points="47.66,37.14 47.22,37.63 46.56,37.54 46.89,38.12 46.6,38.71 47.25,38.58 47.72,39.04 47.8,38.38 
			48.38,38.07 47.78,37.79 		"/>
		<polygon class="st100" points="46.96,39.61 46.21,40.01 45.45,39.61 45.6,40.45 44.99,41.05 45.83,41.17 46.2,41.93 46.58,41.17 
			47.42,41.05 46.81,40.45 		"/>
		<polygon class="st100" points="48.16,34.88 47.83,35.31 47.29,35.28 47.6,35.73 47.41,36.24 47.93,36.08 48.35,36.42 48.36,35.88 
			48.82,35.58 48.31,35.4 		"/>
		<polygon class="st100" points="45.15,42.19 44.59,42.53 43.98,42.26 44.13,42.9 43.69,43.39 44.35,43.45 44.67,44.03 44.93,43.42 
			45.58,43.28 45.08,42.85 		"/>
		<polygon class="st100" points="43.51,44.36 43.01,44.58 42.55,44.29 42.6,44.83 42.19,45.19 42.72,45.3 42.93,45.8 43.2,45.33 
			43.74,45.29 43.38,44.88 		"/>
	</g>
	<g>
		<path class="st100" d="M18.41,49.76c0.02-0.02,0.04-0.05,0.07-0.09c0.03-0.04,0.04-0.08,0.05-0.11l0,0c0-0.02,0.01-0.03,0.02-0.04
			c0.02-0.02,0.03-0.05,0.04-0.08c0.01-0.04,0.02-0.08,0.04-0.12c0.01-0.04,0.02-0.08,0.03-0.13c0.02-0.16,0.01-0.3-0.03-0.42
			c-0.04-0.12-0.11-0.25-0.22-0.37c-0.07-0.08-0.16-0.15-0.26-0.22c-0.1-0.06-0.21-0.13-0.32-0.2l-0.97-0.59l-0.01,0
			c-0.01-0.01-0.02-0.01-0.04-0.02c-0.05-0.01-0.09-0.01-0.12,0.01c-0.04,0.02-0.07,0.05-0.1,0.1c-0.02,0.04-0.04,0.07-0.06,0.1
			l-1.62,2.66c-0.02,0.04-0.03,0.07-0.03,0.1c0,0.04,0.01,0.09,0.07,0.13c0.03,0.02,0.07,0.05,0.12,0.08l0.08,0.05l0.01,0
			c0.03,0.01,0.05,0.02,0.07,0.02c0.01,0,0.02,0,0.03,0c0.02,0,0.04,0,0.06-0.02c0.04-0.02,0.07-0.06,0.11-0.12
			c0.03-0.06,0.06-0.1,0.08-0.14l0.38-0.62c0.03-0.05,0.06-0.11,0.1-0.17c0.03-0.05,0.05-0.07,0.08-0.07c0.03,0,0.06,0.01,0.1,0.03
			c0.05,0.03,0.09,0.06,0.14,0.09L16.95,50l0.01,0c0.01,0,0.02,0.01,0.02,0.01c0.02,0.02,0.03,0.03,0.06,0.04l0.01,0
			c0,0,0.01,0,0.01,0c0.01,0.01,0.03,0.02,0.05,0.03c0.02,0.01,0.05,0.02,0.07,0.03c0.03,0.01,0.05,0.03,0.08,0.03l0.15,0.04
			c0.05,0.02,0.11,0.02,0.16,0.02l0.12,0c0.02,0,0.03,0,0.05-0.01c0.01,0,0.02,0,0.03,0l0,0l0,0c0.01,0,0.03,0,0.05-0.01
			c0.02,0,0.04-0.01,0.06-0.02c0.06-0.02,0.13-0.05,0.19-0.09c0.02,0,0.03-0.01,0.04-0.02c0,0,0,0,0.01-0.01l0.01,0
			c0.02-0.02,0.04-0.03,0.06-0.05c0.02-0.02,0.04-0.04,0.06-0.05c0.02-0.02,0.03-0.03,0.05-0.05c0.01-0.01,0.03-0.03,0.04-0.04
			c0.02-0.02,0.04-0.04,0.05-0.07C18.39,49.78,18.4,49.77,18.41,49.76z M18.09,49.16c-0.01,0.03-0.03,0.08-0.05,0.14
			c-0.02,0.05-0.05,0.09-0.08,0.12l-0.01,0.01c-0.02,0.03-0.03,0.04-0.03,0.04c-0.04,0.04-0.07,0.07-0.11,0.1
			c-0.03,0.03-0.07,0.05-0.11,0.07c-0.07,0.03-0.13,0.04-0.2,0.03c-0.07-0.01-0.15-0.03-0.24-0.05c-0.04-0.01-0.08-0.03-0.12-0.05
			c-0.05-0.03-0.09-0.05-0.13-0.08l-0.57-0.35c-0.03-0.02-0.06-0.04-0.09-0.06c-0.02-0.02-0.02-0.03-0.02-0.04
			c0-0.03,0.01-0.07,0.04-0.11c0.03-0.05,0.06-0.1,0.09-0.14l0.31-0.51c0.02-0.04,0.05-0.08,0.08-0.13
			c0.02-0.04,0.05-0.07,0.07-0.09c0.01-0.01,0.02-0.01,0.03-0.01c0.01,0,0.02,0,0.03,0.01c0.01,0,0.01,0,0.01,0
			c0.01,0.01,0.02,0.01,0.03,0.01l0.54,0.33c0.09,0.05,0.17,0.11,0.24,0.16c0.07,0.05,0.13,0.11,0.17,0.17
			c0.05,0.07,0.08,0.14,0.1,0.21C18.11,49,18.11,49.08,18.09,49.16z"/>
		<path class="st100" d="M21.95,50.33c-0.02-0.1-0.06-0.2-0.12-0.28c-0.03-0.05-0.07-0.1-0.12-0.14c-0.04-0.04-0.09-0.08-0.15-0.13
			c-0.02-0.02-0.05-0.03-0.08-0.05c-0.02-0.01-0.05-0.03-0.07-0.04l0,0c-0.02-0.01-0.04-0.02-0.06-0.03
			c-0.02-0.01-0.03-0.02-0.05-0.03l-0.05-0.02c-0.02-0.01-0.04-0.02-0.07-0.03c-0.02-0.01-0.05-0.02-0.07-0.02l-1.36-0.52l-0.01,0
			c-0.01-0.01-0.03-0.01-0.04-0.01c-0.05,0-0.09,0.01-0.11,0.03c-0.03,0.02-0.06,0.06-0.07,0.11c-0.01,0.04-0.02,0.07-0.04,0.11
			l-1.12,2.95c-0.03,0.07-0.01,0.12,0.01,0.14c0.02,0.03,0.05,0.06,0.09,0.07c0.03,0.01,0.07,0.03,0.1,0.04
			c0.01,0.01,0.03,0.01,0.04,0.02c0.02,0.01,0.04,0.02,0.06,0.02l0,0l0,0c0.02,0,0.02,0,0.03,0c0.02,0.01,0.04,0.01,0.06,0.01
			c0.02,0,0.06-0.01,0.09-0.04c0.03-0.03,0.06-0.08,0.08-0.15c0.02-0.06,0.04-0.12,0.06-0.16l0.26-0.67
			c0.02-0.05,0.04-0.11,0.07-0.19c0.03-0.07,0.05-0.1,0.07-0.11c0.01-0.01,0.02-0.01,0.03-0.01c0.02,0,0.04,0,0.06,0.01l0.85,0.32
			c0.05,0.02,0.1,0.04,0.15,0.06c0.04,0.02,0.08,0.04,0.11,0.07c0.11,0.09,0.17,0.2,0.18,0.34c0,0.05,0,0.11-0.01,0.16
			c-0.01,0.06-0.02,0.12-0.03,0.19c0,0.02-0.01,0.04-0.01,0.06c-0.01,0.02-0.02,0.05-0.02,0.08l-0.06,0.21l-0.02,0.06
			c-0.01,0.02-0.01,0.04-0.02,0.07c0,0.01,0,0.01-0.01,0.02c-0.01,0.02-0.02,0.04-0.02,0.06l-0.01,0.02
			c-0.01,0.01-0.01,0.03-0.01,0.04c-0.01,0.04-0.01,0.07-0.02,0.11c-0.01,0.05,0,0.09,0.03,0.12c0.03,0.04,0.07,0.07,0.13,0.09
			l0.15,0.06c0.03,0.01,0.05,0.02,0.08,0.03c0.02,0.01,0.04,0.01,0.06,0.01c0.01,0,0.02,0,0.03,0l0.01,0
			c0.03-0.01,0.09-0.04,0.09-0.13l0-0.13c0-0.02,0-0.03,0.01-0.05c0.01-0.02,0.01-0.04,0.01-0.07c0-0.03,0.01-0.06,0.01-0.09
			c0.01-0.03,0.02-0.07,0.02-0.11c0-0.01,0.01-0.02,0.01-0.03c0.01-0.02,0.01-0.03,0.02-0.05c0-0.02,0.01-0.04,0.02-0.06
			c0.01-0.03,0.02-0.05,0.03-0.08l0.01-0.04l0-0.01c0-0.02,0.01-0.03,0.01-0.05c0.01-0.03,0.02-0.05,0.03-0.08l0.02-0.07
			c0.01-0.02,0.01-0.05,0.02-0.07l0-0.01c0.01-0.07,0.01-0.13,0.02-0.19c0.01-0.07,0-0.13-0.02-0.19c-0.01-0.05-0.03-0.09-0.05-0.13
			c-0.02-0.04-0.05-0.07-0.07-0.11l0,0c-0.01-0.01-0.02-0.02-0.03-0.04c0,0,0,0,0,0c0.01-0.01,0.01-0.01,0.02-0.01
			c0.01-0.01,0.03-0.01,0.05-0.01c0.03-0.01,0.06-0.01,0.09-0.02c0.03-0.01,0.06-0.02,0.09-0.03l0.01,0c0.01,0,0.02-0.01,0.03-0.02
			c0.01-0.01,0.02-0.01,0.02-0.01c0.01,0,0.02,0,0.03-0.01l0.01-0.01c0.01-0.01,0.03-0.02,0.04-0.03c0.02-0.01,0.04-0.02,0.05-0.03
			c0.04-0.03,0.08-0.07,0.11-0.1l0.1-0.12c0.02-0.02,0.03-0.04,0.04-0.07c0.01-0.02,0.02-0.04,0.03-0.06l0.02-0.06
			c0.01-0.01,0.02-0.03,0.03-0.05c0.01-0.02,0.02-0.04,0.02-0.06l0.02-0.04l0-0.01c0-0.02,0.01-0.05,0.02-0.07
			c0.01-0.03,0.02-0.06,0.02-0.09C21.97,50.54,21.97,50.43,21.95,50.33z M21.4,50.57c0,0.04-0.01,0.08-0.02,0.13
			c-0.01,0.05-0.03,0.09-0.05,0.13l-0.02,0.05c-0.02,0.04-0.05,0.07-0.07,0.1c-0.02,0.03-0.05,0.06-0.08,0.08l0,0
			c-0.07,0.05-0.14,0.08-0.22,0.09c-0.09,0.01-0.18,0-0.28-0.02c-0.1-0.02-0.21-0.06-0.32-0.1c-0.11-0.05-0.23-0.09-0.35-0.14
			l-0.29-0.11c-0.03-0.01-0.07-0.03-0.09-0.04c-0.02-0.01-0.03-0.03-0.03-0.04c-0.01-0.03,0-0.06,0.01-0.1
			c0.02-0.05,0.04-0.1,0.06-0.15l0.2-0.53c0.02-0.04,0.03-0.09,0.05-0.14c0.02-0.05,0.04-0.08,0.05-0.09
			c0.01-0.01,0.02-0.02,0.04-0.02c0,0,0.01,0,0.01,0c0.01,0,0.01,0,0.01,0c0.01,0,0.02,0.01,0.03,0.01l0.76,0.29
			c0.08,0.03,0.17,0.07,0.25,0.1c0.08,0.03,0.14,0.07,0.19,0.11C21.35,50.28,21.4,50.41,21.4,50.57z"/>
		<path class="st100" d="M25.17,53.91L25.17,53.91c-0.02-0.09-0.04-0.18-0.06-0.28c-0.02-0.09-0.04-0.19-0.06-0.27
			c0-0.03-0.01-0.06-0.01-0.09c0-0.03-0.01-0.06-0.02-0.09c-0.06-0.25-0.12-0.51-0.17-0.77c-0.05-0.26-0.1-0.52-0.16-0.77
			c-0.02-0.07-0.03-0.14-0.05-0.21c-0.01-0.07-0.03-0.15-0.04-0.22c-0.02-0.08-0.04-0.16-0.05-0.24c-0.01-0.08-0.03-0.16-0.05-0.24
			c-0.01-0.04-0.02-0.08-0.03-0.12c-0.01-0.06-0.03-0.1-0.06-0.13c-0.04-0.04-0.1-0.07-0.19-0.08c-0.08-0.01-0.15-0.02-0.21-0.03
			l-0.01,0l-0.01,0c-0.01,0-0.03-0.01-0.04,0c-0.04,0-0.06,0.01-0.09,0.02c-0.04,0.02-0.07,0.05-0.1,0.1
			c-0.02,0.04-0.04,0.08-0.06,0.11c-0.05,0.08-0.1,0.16-0.15,0.25c-0.05,0.08-0.09,0.16-0.14,0.24c-0.14,0.22-0.27,0.45-0.4,0.67
			c-0.13,0.22-0.26,0.45-0.4,0.67c-0.04,0.07-0.08,0.14-0.12,0.2c-0.04,0.07-0.08,0.13-0.12,0.2c-0.06,0.1-0.12,0.2-0.17,0.29
			c-0.05,0.09-0.11,0.19-0.17,0.28c-0.01,0.01-0.02,0.03-0.03,0.05c-0.01,0.02-0.02,0.04-0.03,0.07c-0.01,0.03-0.02,0.05-0.02,0.07
			c0,0.03,0.01,0.06,0.03,0.09c0.02,0.02,0.05,0.04,0.08,0.04c0.03,0.01,0.05,0.01,0.08,0.02c0.05,0.01,0.1,0.02,0.14,0.02
			c0.05,0.01,0.1,0,0.14-0.02c0.02-0.01,0.04-0.03,0.06-0.05c0.02-0.02,0.03-0.05,0.05-0.07c0.01-0.03,0.03-0.05,0.04-0.07
			l0.03-0.06c0.05-0.07,0.09-0.15,0.13-0.22c0.04-0.07,0.08-0.15,0.13-0.22c0.02-0.04,0.05-0.08,0.06-0.12
			c0.02-0.03,0.04-0.06,0.07-0.09c0-0.01,0.01-0.01,0.04-0.01c0.03,0,0.06,0,0.09,0c0.03,0,0.06,0.01,0.1,0.01
			c0.04,0.01,0.07,0.01,0.1,0.02L24.24,53c0.02,0,0.05,0.01,0.07,0.01c0.01,0,0.03,0,0.04,0.01c0.03,0.01,0.04,0.03,0.06,0.04
			c0.01,0.01,0.02,0.03,0.03,0.05c0.01,0.02,0.01,0.05,0.02,0.07c0,0.03,0.01,0.06,0.01,0.09c0.02,0.09,0.04,0.19,0.05,0.28
			c0.01,0.1,0.03,0.19,0.05,0.28c0.01,0.04,0.02,0.09,0.02,0.14c0.01,0.06,0.03,0.11,0.07,0.15c0.03,0.03,0.08,0.04,0.14,0.05
			l0.21,0.04c0.01,0,0.03,0,0.04,0c0.01,0,0.03,0,0.04,0c0.05-0.01,0.07-0.04,0.08-0.07c0.01-0.03,0.02-0.06,0.02-0.09
			c0-0.03,0-0.06-0.01-0.08C25.18,53.95,25.17,53.93,25.17,53.91z M24.02,51.02c0,0,0.01,0,0.01,0c0,0.01,0.01,0.03,0.01,0.04
			c0.01,0.03,0.02,0.07,0.02,0.1c0.01,0.04,0.01,0.08,0.02,0.12c0.03,0.12,0.05,0.25,0.07,0.38c0.02,0.13,0.04,0.26,0.07,0.39
			c0.01,0.03,0.01,0.06,0.02,0.08c0,0.03,0.01,0.06,0.02,0.09c0,0.01,0,0.01,0,0.01c0,0.02,0,0.04,0.01,0.06
			c0.01,0.02,0.01,0.04,0.02,0.07c0.01,0.03,0.01,0.05,0.01,0.08c0,0.02,0,0.04-0.01,0.05c0,0-0.01,0.01-0.03,0.02l0,0
			c-0.01,0-0.04,0-0.1-0.01c-0.05-0.01-0.1-0.02-0.13-0.02l-0.52-0.09c-0.05-0.01-0.09-0.02-0.15-0.03
			c-0.03-0.01-0.06-0.02-0.06-0.03c0-0.01,0-0.02,0-0.03c0-0.01,0-0.02,0.01-0.03l0-0.01c0.01-0.02,0.02-0.05,0.04-0.07l0.04-0.07
			c0.01-0.02,0.02-0.03,0.03-0.05c0.01-0.01,0.01-0.03,0.02-0.04c0.07-0.12,0.14-0.24,0.21-0.36c0.06-0.12,0.13-0.24,0.21-0.36
			c0.02-0.04,0.04-0.07,0.06-0.11c0.01-0.03,0.03-0.06,0.05-0.09l0,0c0.01-0.02,0.02-0.04,0.03-0.05
			C24,51.04,24.01,51.03,24.02,51.02C24.02,51.02,24.02,51.02,24.02,51.02z"/>
		<path class="st100" d="M29.22,52.94c-0.01-0.01-0.03-0.02-0.05-0.02c-0.01,0-0.02,0-0.02-0.01l-0.01,0l-0.04,0
			c-0.02,0-0.03,0-0.05,0l-0.05,0c-0.04,0-0.09,0-0.12,0.01c-0.06,0.01-0.1,0.04-0.12,0.07c-0.02,0.03-0.03,0.07-0.04,0.11
			c0,0.03-0.01,0.06-0.02,0.09c-0.02,0.08-0.05,0.15-0.07,0.21c-0.1,0.23-0.27,0.4-0.52,0.5c-0.03,0.01-0.05,0.02-0.08,0.02
			c-0.03,0.01-0.06,0.01-0.1,0.02l-0.01,0c-0.01,0-0.01,0-0.01,0c-0.02,0-0.03,0-0.05,0l-0.04,0l-0.01,0
			c-0.01,0-0.03,0.01-0.08,0.01c-0.05,0-0.07,0-0.08-0.01c-0.03-0.01-0.06-0.01-0.09-0.01c-0.01,0-0.03,0-0.05-0.01
			c-0.06-0.02-0.11-0.03-0.16-0.04c-0.04-0.01-0.09-0.03-0.13-0.05c-0.14-0.07-0.25-0.16-0.34-0.28c-0.09-0.11-0.16-0.25-0.21-0.41
			c-0.01-0.04-0.02-0.08-0.03-0.12c-0.01-0.04-0.02-0.08-0.03-0.13l0-0.01c0-0.01-0.01-0.02,0-0.03c0-0.03,0-0.05-0.01-0.08
			c-0.01-0.02-0.01-0.03-0.01-0.05c0-0.03,0-0.05-0.01-0.08l0-0.04l0-0.01c0-0.02,0-0.03,0-0.06c0-0.03,0-0.05,0-0.08
			c0-0.04,0-0.08,0-0.11c0-0.04,0.01-0.07,0.01-0.1c0-0.02,0.01-0.03,0.01-0.05c0,0,0-0.01,0-0.02c0.01-0.02,0.01-0.05,0.01-0.08
			c0-0.02,0-0.03,0.01-0.05c0.02-0.05,0.03-0.11,0.05-0.16c0.01-0.05,0.03-0.09,0.05-0.14c0.12-0.27,0.31-0.46,0.57-0.57
			c0.03-0.01,0.05-0.02,0.08-0.03c0.03-0.01,0.06-0.01,0.1-0.02c0.03-0.01,0.07-0.02,0.11-0.02c0.05,0,0.09-0.01,0.14-0.01
			c0.05,0,0.1,0,0.14,0.01c0.04,0,0.08,0.01,0.12,0.02c0.05,0.01,0.1,0.03,0.15,0.04c0.04,0.01,0.08,0.03,0.12,0.05
			c0.07,0.04,0.13,0.09,0.18,0.14c0.05,0.05,0.1,0.11,0.14,0.18c0.02,0.03,0.04,0.07,0.05,0.11c0.01,0.05,0.04,0.09,0.06,0.13
			c0.02,0.03,0.05,0.06,0.12,0.07c0.04,0.01,0.08,0.01,0.13,0.01l0.04,0c0.02,0,0.03,0,0.04-0.01l0.05,0l0.01,0
			c0.02-0.01,0.04-0.01,0.05-0.02c0.03-0.01,0.06-0.03,0.07-0.06c0.01-0.03,0.02-0.07,0.01-0.11c-0.01-0.03-0.01-0.05-0.02-0.07
			c-0.02-0.07-0.04-0.13-0.06-0.18c-0.02-0.05-0.05-0.1-0.09-0.16c-0.13-0.2-0.31-0.36-0.53-0.47c-0.23-0.11-0.51-0.17-0.84-0.16
			l-0.01,0l0,0c-0.02-0.01-0.04,0-0.05,0c-0.02,0-0.05,0.01-0.07,0.01c-0.03,0-0.05,0-0.08,0.01l-0.06,0.01
			c-0.02,0-0.04,0.01-0.06,0.01l-0.01,0c-0.04,0.01-0.08,0.02-0.12,0.03c-0.04,0.01-0.09,0.02-0.13,0.04
			c-0.06,0.03-0.12,0.05-0.17,0.08c-0.06,0.03-0.11,0.06-0.16,0.1c-0.02,0.02-0.05,0.03-0.06,0.05c-0.02,0.02-0.04,0.03-0.06,0.05
			c-0.02,0.02-0.05,0.04-0.07,0.06c-0.02,0.02-0.05,0.05-0.07,0.08l0,0c-0.01,0.01-0.02,0.02-0.03,0.03
			c-0.02,0.02-0.04,0.03-0.05,0.05c-0.05,0.07-0.1,0.15-0.15,0.24c-0.02,0.04-0.05,0.08-0.07,0.13c-0.02,0.05-0.04,0.09-0.05,0.13
			c-0.02,0.05-0.04,0.1-0.05,0.16c-0.01,0.05-0.02,0.1-0.04,0.16c-0.01,0.03-0.01,0.05-0.01,0.08c0,0.02,0,0.03-0.01,0.05
			c-0.01,0.03-0.01,0.06-0.01,0.09c0,0.03,0,0.05-0.01,0.08l0,0l0,0.04c0,0.01,0,0.03,0,0.05c-0.01,0.02-0.01,0.06-0.01,0.1
			c0,0.04,0,0.07,0.01,0.09l0,0.09l0,0.01c0.01,0.03,0.01,0.06,0.01,0.09c0,0.04,0.01,0.07,0.01,0.1c0,0.01,0,0.02,0,0.03
			c0,0.02,0,0.04,0.01,0.06c0.01,0.04,0.02,0.09,0.03,0.13c0.01,0.04,0.02,0.09,0.03,0.13c0.08,0.23,0.19,0.43,0.32,0.6
			c0.13,0.17,0.31,0.3,0.52,0.39c0.06,0.03,0.13,0.06,0.19,0.08c0.03,0.01,0.06,0.02,0.09,0.02c0.03,0,0.06,0.01,0.09,0.02
			c0.03,0.01,0.06,0.01,0.08,0.01c0.02,0,0.04,0,0.07,0.01l0.01,0l0.05,0c0.02,0,0.04,0,0.06,0c0.01,0,0.02,0,0.03,0
			c0.01,0,0.03,0.01,0.08,0.01c0.01,0,0.02,0,0.03,0c0.03,0,0.04,0,0.05,0c0.02,0,0.04,0,0.05,0c0.02,0,0.04,0,0.07-0.01
			c0.01,0,0.01,0,0.02,0c0.02,0,0.04,0,0.06-0.01c0.04-0.01,0.07-0.01,0.11-0.02c0.04-0.01,0.08-0.02,0.12-0.03
			c0.03-0.01,0.07-0.02,0.1-0.03c0.04-0.01,0.08-0.03,0.11-0.04c0.11-0.05,0.21-0.11,0.3-0.18c0.09-0.07,0.17-0.16,0.23-0.25
			c0.03-0.04,0.05-0.08,0.07-0.12c0.02-0.04,0.04-0.08,0.07-0.12c0.03-0.07,0.06-0.14,0.08-0.21c0.02-0.07,0.03-0.14,0.05-0.22
			c0.01-0.04,0.02-0.08,0.01-0.12C29.27,52.99,29.24,52.96,29.22,52.94z"/>
		<path class="st100" d="M32.43,50.25c-0.01-0.04-0.04-0.07-0.09-0.09c-0.03-0.01-0.07-0.01-0.11-0.01l-2.52,0.47l0,0
			c-0.01,0-0.03,0-0.04,0.01c-0.01,0.01-0.03,0.01-0.04,0.02c-0.02,0.01-0.03,0.03-0.04,0.04c-0.01,0.02-0.02,0.04-0.02,0.08
			c0,0.03,0,0.06,0,0.09c0,0.03,0.01,0.06,0.02,0.1c0.01,0.04,0.03,0.06,0.04,0.08c0.01,0.01,0.03,0.02,0.04,0.03l0.03,0.01l0.01,0
			c0.03,0.01,0.08,0,0.14-0.01c0.05-0.01,0.09-0.02,0.13-0.03l0.54-0.1c0.06-0.01,0.12-0.02,0.18-0.03c0.04,0,0.06,0.01,0.08,0.04
			c0.01,0.02,0.02,0.05,0.03,0.1c0.01,0.05,0.01,0.09,0.02,0.13l0.47,2.52c0.01,0.04,0.02,0.08,0.02,0.12
			c0.01,0.04,0.03,0.08,0.06,0.11c0.02,0.02,0.06,0.03,0.1,0.03c0.01,0,0.03,0,0.05,0l0.13-0.02c0.03-0.01,0.05-0.01,0.08-0.02
			c0.03-0.01,0.05-0.02,0.07-0.03c0.04-0.03,0.06-0.08,0.06-0.13c0-0.04-0.01-0.09-0.02-0.14l-0.47-2.53
			c-0.01-0.04-0.02-0.08-0.03-0.12c-0.01-0.04-0.01-0.07-0.01-0.1c0-0.02,0.01-0.04,0.02-0.05c0.01-0.01,0.03-0.02,0.05-0.03
			c0.02-0.01,0.05-0.02,0.08-0.02c0.04,0,0.07-0.01,0.11-0.02l0.69-0.13c0.06-0.01,0.1-0.03,0.13-0.06l0,0
			c0.02-0.02,0.03-0.05,0.04-0.08c0-0.02,0-0.04,0.01-0.07l0-0.01l-0.01-0.06C32.45,50.32,32.44,50.28,32.43,50.25z"/>
		<path class="st100" d="M33.54,50.07c-0.01-0.04-0.03-0.08-0.04-0.12c-0.02-0.05-0.04-0.09-0.08-0.11
			c-0.02-0.02-0.05-0.02-0.09-0.02c-0.03,0-0.06,0.01-0.09,0.01c-0.03,0.01-0.06,0.02-0.09,0.03c-0.03,0.01-0.05,0.02-0.07,0.03
			l-0.01,0l0,0c-0.01,0-0.03,0.01-0.04,0.02c-0.04,0.03-0.07,0.06-0.08,0.1c-0.01,0.04-0.01,0.09,0.01,0.14
			c0.01,0.04,0.03,0.08,0.04,0.11l0.94,2.97c0.01,0.04,0.03,0.07,0.06,0.09c0.02,0.02,0.05,0.04,0.1,0.04c0.01,0,0.03,0,0.04,0
			c0.04-0.01,0.08-0.02,0.13-0.04l0.09-0.03l0.01,0c0.02-0.01,0.04-0.02,0.06-0.03c0.03-0.01,0.05-0.04,0.06-0.07l0-0.01
			c0.01-0.04,0.01-0.09-0.01-0.14L33.54,50.07z"/>
		<path class="st100" d="M38.11,50.43c-0.01-0.04-0.02-0.08-0.04-0.11c-0.03-0.05-0.07-0.07-0.1-0.07c-0.02,0-0.03,0-0.05,0
			c-0.01,0-0.02,0-0.02,0.01l-0.01,0l-0.03,0.02c-0.02,0-0.03,0.01-0.05,0.02l-0.04,0.02c-0.04,0.02-0.08,0.04-0.11,0.06
			c-0.06,0.03-0.07,0.08-0.08,0.11c0,0.04,0,0.07,0.01,0.11c0.01,0.03,0.02,0.06,0.02,0.08c0.01,0.08,0.02,0.16,0.02,0.22
			c0.01,0.25-0.08,0.48-0.26,0.67c-0.02,0.02-0.04,0.04-0.06,0.06c-0.03,0.02-0.05,0.04-0.08,0.06l-0.01,0.01
			c0,0.01-0.01,0.01-0.01,0.01c-0.02,0.01-0.03,0.01-0.05,0.02l-0.03,0.02l-0.01,0.01c-0.01,0.01-0.02,0.02-0.07,0.04
			c-0.05,0.02-0.07,0.03-0.07,0.03c-0.03,0.01-0.06,0.02-0.08,0.03c-0.01,0.01-0.03,0.01-0.04,0.02c-0.06,0.01-0.11,0.02-0.16,0.03
			c-0.05,0.01-0.09,0.01-0.14,0.01c-0.16-0.01-0.3-0.04-0.42-0.11c-0.13-0.06-0.25-0.16-0.37-0.28c-0.03-0.03-0.05-0.06-0.08-0.09
			c-0.03-0.03-0.05-0.07-0.08-0.1L35.6,51.3c-0.01-0.01-0.01-0.02-0.02-0.03c-0.01-0.02-0.02-0.05-0.04-0.07
			c-0.01-0.01-0.02-0.03-0.03-0.05c-0.01-0.02-0.02-0.05-0.04-0.07l-0.02-0.04l0-0.01c-0.01-0.01-0.02-0.03-0.03-0.05
			c-0.01-0.02-0.02-0.05-0.03-0.07c-0.02-0.04-0.03-0.07-0.05-0.1c-0.01-0.03-0.03-0.07-0.03-0.1c0-0.02-0.01-0.03-0.01-0.04
			c0,0,0-0.01-0.01-0.02c0-0.03-0.01-0.05-0.02-0.07c-0.01-0.01-0.01-0.03-0.01-0.05c-0.01-0.06-0.02-0.11-0.02-0.16
			c-0.01-0.05-0.01-0.1-0.01-0.15c-0.01-0.29,0.08-0.55,0.27-0.76c0.02-0.02,0.04-0.04,0.06-0.06c0.02-0.02,0.05-0.04,0.08-0.06
			c0.02-0.02,0.05-0.04,0.09-0.07c0.04-0.02,0.08-0.05,0.13-0.07c0.04-0.02,0.09-0.04,0.13-0.05c0.04-0.01,0.08-0.03,0.11-0.03
			c0.05-0.01,0.1-0.02,0.15-0.03c0.04-0.01,0.09-0.01,0.13,0c0.08,0.01,0.16,0.03,0.23,0.05c0.07,0.02,0.14,0.06,0.2,0.1
			c0.03,0.02,0.06,0.05,0.09,0.08c0.03,0.04,0.07,0.07,0.11,0.09c0.03,0.02,0.07,0.03,0.13,0.01c0.04-0.01,0.08-0.03,0.12-0.05
			l0.04-0.02c0.02-0.01,0.03-0.01,0.04-0.02l0.05-0.02l0.01-0.01c0.01-0.01,0.03-0.03,0.04-0.04c0.03-0.02,0.04-0.06,0.03-0.09
			c0-0.04-0.01-0.07-0.04-0.1c-0.02-0.02-0.04-0.04-0.05-0.05c-0.05-0.05-0.09-0.1-0.13-0.13c-0.04-0.04-0.09-0.07-0.14-0.11
			c-0.2-0.13-0.43-0.2-0.69-0.2c-0.25,0-0.53,0.07-0.83,0.22l-0.01,0l0,0c-0.02,0-0.03,0.01-0.04,0.02
			c-0.02,0.01-0.04,0.02-0.06,0.04c-0.02,0.01-0.05,0.03-0.07,0.04l-0.05,0.03c-0.02,0.01-0.03,0.02-0.05,0.04l-0.01,0.01
			c-0.03,0.03-0.06,0.05-0.09,0.08c-0.04,0.03-0.07,0.06-0.1,0.09c-0.04,0.05-0.08,0.1-0.12,0.15c-0.04,0.05-0.07,0.1-0.11,0.16
			c-0.01,0.03-0.03,0.05-0.04,0.07c-0.01,0.02-0.02,0.04-0.03,0.07c-0.01,0.03-0.02,0.06-0.04,0.08c-0.01,0.03-0.02,0.06-0.03,0.1
			l0,0c0,0.01,0,0.03-0.01,0.04c-0.01,0.02-0.02,0.05-0.02,0.07c-0.02,0.08-0.03,0.18-0.03,0.28c-0.01,0.05-0.01,0.09,0,0.15
			c0,0.05,0.01,0.1,0.01,0.14c0,0.05,0.01,0.11,0.03,0.16c0.01,0.05,0.02,0.1,0.03,0.16c0,0.03,0.01,0.05,0.02,0.08
			c0.01,0.01,0.01,0.03,0.01,0.05c0.01,0.03,0.01,0.06,0.03,0.09c0.01,0.03,0.02,0.05,0.03,0.07l0.02,0.04
			c0,0.01,0.01,0.03,0.02,0.04c0,0.02,0.01,0.06,0.03,0.1c0.02,0.04,0.03,0.06,0.05,0.08L35,51.41l0.01,0.01
			c0.02,0.02,0.03,0.05,0.05,0.07c0.02,0.03,0.04,0.06,0.06,0.09c0.01,0.01,0.01,0.02,0.01,0.03c0.01,0.02,0.02,0.04,0.04,0.05
			c0.03,0.04,0.05,0.07,0.08,0.11c0.03,0.04,0.06,0.07,0.09,0.1c0.17,0.17,0.35,0.31,0.54,0.41c0.18,0.09,0.37,0.13,0.58,0.13
			c0.02,0,0.04,0,0.06,0c0.07,0,0.14,0,0.21-0.01c0.03,0,0.06-0.01,0.09-0.02c0.03-0.01,0.06-0.02,0.08-0.02
			c0.03-0.01,0.06-0.01,0.08-0.02c0.02-0.01,0.04-0.01,0.06-0.02l0.05-0.02c0.02-0.01,0.04-0.01,0.05-0.02
			c0.01,0,0.02-0.01,0.03-0.01c0.01,0,0.03-0.01,0.07-0.02c0.04-0.02,0.06-0.03,0.07-0.04c0.02-0.01,0.03-0.02,0.05-0.03
			c0.02-0.01,0.04-0.02,0.06-0.04c0.01,0,0.01-0.01,0.02-0.01c0.02-0.01,0.04-0.02,0.05-0.03c0.03-0.02,0.06-0.04,0.09-0.06
			c0.03-0.02,0.07-0.05,0.1-0.08c0.03-0.03,0.05-0.05,0.08-0.07c0.03-0.03,0.06-0.05,0.08-0.09c0.08-0.09,0.14-0.19,0.19-0.29
			c0.05-0.11,0.08-0.21,0.1-0.32c0.01-0.05,0.01-0.1,0.01-0.14c0-0.04,0.01-0.09,0.01-0.14c0-0.07,0-0.15-0.02-0.22
			C38.14,50.58,38.12,50.51,38.11,50.43z"/>
		<path class="st100" d="M41.71,49.21l0-0.01c-0.01-0.01-0.01-0.03-0.03-0.06c-0.01-0.02-0.03-0.05-0.05-0.07
			c-0.02-0.02-0.03-0.04-0.05-0.06c-0.02-0.02-0.04-0.04-0.06-0.04c-0.04-0.02-0.08-0.02-0.13,0c-0.03,0.01-0.05,0.02-0.08,0.04
			c-0.02,0.02-0.04,0.03-0.06,0.05l-1.23,0.89c-0.03,0.02-0.06,0.04-0.08,0.05c-0.02,0.01-0.04,0.02-0.05,0.02c0,0-0.02,0-0.04-0.03
			c-0.02-0.03-0.05-0.06-0.08-0.1l-0.44-0.61c-0.02-0.02-0.03-0.04-0.05-0.07c-0.01-0.02-0.02-0.03-0.03-0.05
			c-0.01-0.03,0-0.05,0-0.05c0.01-0.02,0.03-0.04,0.04-0.06c0.02-0.02,0.05-0.04,0.08-0.06c0.03-0.02,0.06-0.04,0.1-0.07l1-0.72
			c0.01-0.01,0.02-0.02,0.04-0.02c0.02-0.01,0.03-0.02,0.05-0.04l0.03-0.02l0-0.01c0-0.01,0.01-0.01,0.02-0.02
			c0.01-0.01,0.02-0.03,0.03-0.05c0.01-0.03,0.01-0.07,0-0.11c-0.01-0.02-0.02-0.05-0.04-0.07c-0.02-0.03-0.04-0.05-0.06-0.07
			c-0.02-0.02-0.04-0.04-0.06-0.06c-0.03-0.02-0.05-0.03-0.08-0.03c-0.03,0-0.05,0.01-0.09,0.03c-0.03,0.02-0.06,0.03-0.09,0.06
			c-0.03,0.02-0.06,0.04-0.09,0.07c-0.03,0.02-0.05,0.04-0.08,0.06l-0.93,0.67c-0.02,0.01-0.03,0.02-0.04,0.03
			c-0.01,0.01-0.01,0.01-0.02,0.01L39,48.69c-0.03,0.02-0.05,0.02-0.05,0.02c-0.01,0-0.03,0-0.05-0.02
			c-0.02-0.02-0.04-0.05-0.07-0.08c-0.03-0.04-0.05-0.08-0.07-0.11l-0.3-0.41c-0.03-0.04-0.06-0.08-0.09-0.12
			c-0.02-0.04-0.02-0.06-0.01-0.07c0.01-0.02,0.03-0.05,0.09-0.09c0.06-0.04,0.11-0.08,0.15-0.11l1.08-0.78
			c0.05-0.04,0.09-0.07,0.12-0.1c0.05-0.04,0.06-0.1,0.04-0.17c-0.01-0.03-0.03-0.07-0.07-0.11c-0.03-0.05-0.06-0.08-0.08-0.09
			l-0.05-0.02c-0.02-0.01-0.04-0.01-0.05-0.01c-0.04,0-0.08,0.02-0.12,0.04c-0.03,0.02-0.06,0.04-0.09,0.06l-1.67,1.21l0,0
			c-0.01,0.01-0.02,0.02-0.03,0.03c-0.03,0.04-0.04,0.08-0.04,0.11c0,0.03,0.01,0.06,0.03,0.09l1.92,2.66
			c0.02,0.03,0.05,0.06,0.08,0.07c0.02,0.01,0.04,0.01,0.06,0.01c0.02,0,0.05-0.01,0.07-0.02c0.03-0.02,0.07-0.04,0.11-0.07
			l1.71-1.24c0.03-0.02,0.06-0.05,0.07-0.08C41.71,49.28,41.71,49.25,41.71,49.21z"/>
	</g>
	<g>
		<g>
			<path class="st0" d="M22.02,33.41h-1.46c-0.05-0.19-0.09-0.59-0.1-0.83c-0.34,0.73-1.04,0.99-1.83,0.99
				c-1.79,0-2.37-1.17-2.37-3.03v-5.16c0-1.8,0.77-3.12,2.89-3.12c2.56,0,2.82,1.7,2.82,2.88v0.36h-1.88v-0.44
				c0-0.58-0.09-1.25-0.95-1.25c-0.68,0-0.98,0.43-0.98,1.3v5.62c0,0.88,0.28,1.34,0.96,1.34c0.81,0,1.01-0.62,1.01-1.74v-1.6h-1.06
				v-1.46h2.94V33.41z"/>
			<path class="st0" d="M29.75,29.32c0-1.87,0.02-4.19,0.06-5.45h-0.02c-0.28,1.91-0.95,6.36-1.48,9.54h-1.77
				c-0.39-2.85-1.07-7.55-1.35-9.56h-0.04c0.04,1.28,0.09,3.77,0.09,5.66v3.9h-1.7V22.42h2.8c0.47,2.79,0.96,5.92,1.13,7.46h0.02
				c0.2-1.56,0.86-4.83,1.34-7.46h2.7v10.99h-1.78V29.32z"/>
			<path class="st0" d="M33.18,22.42h2.71c1.93,0,2.92,0.86,2.92,2.81v0.65c0,1.81-0.72,3.02-3.02,3.02h-0.72v4.52h-1.88V22.42z
				 M35.05,27.51h0.51c1.17,0,1.37-0.62,1.37-1.69v-0.54c0-0.8-0.16-1.46-1.2-1.46h-0.68V27.51z"/>
		</g>
		<g>
			<path class="st0" d="M18.83,38.81v0.21c0,0.68-0.12,1.55-1.25,1.55c-1.03,0-1.23-0.68-1.23-1.54v-2.89c0-0.9,0.4-1.45,1.24-1.45
				c1.02,0,1.22,0.7,1.22,1.47v0.24h-0.77v-0.32c0-0.41-0.08-0.69-0.45-0.69c-0.35,0-0.46,0.26-0.46,0.7v3
				c0,0.46,0.1,0.78,0.47,0.78c0.37,0,0.45-0.31,0.45-0.78v-0.29H18.83z"/>
			<path class="st0" d="M21.41,37.81h-1.27v1.97h1.45l-0.1,0.7h-2.12v-5.72h2.1v0.71h-1.34v1.62h1.27V37.81z"/>
			<path class="st0" d="M22.81,37.88v2.6h-0.77v-5.72h1.13c0.87,0,1.34,0.36,1.34,1.35v0.24c0,0.84-0.32,1.1-0.58,1.2
				c0.35,0.15,0.53,0.4,0.53,1.17c0,0.48-0.01,1.41,0.05,1.76h-0.74c-0.07-0.35-0.06-1.3-0.06-1.71c0-0.72-0.1-0.9-0.63-0.9H22.81z
				 M22.81,37.25h0.27c0.5,0,0.66-0.23,0.66-0.85v-0.22c0-0.48-0.11-0.76-0.64-0.76h-0.29V37.25z"/>
			<path class="st0" d="M25.75,35.48h-0.92v-0.71h2.61v0.71h-0.92v5h-0.77V35.48z"/>
			<path class="st0" d="M28.6,34.77v5.72h-0.77v-5.72H28.6z"/>
			<path class="st0" d="M29.41,34.77h2.13v0.71h-1.36v1.65h1.29v0.71h-1.29v2.64h-0.77V34.77z"/>
			<path class="st0" d="M32.83,34.77v5.72h-0.77v-5.72H32.83z"/>
			<path class="st0" d="M35.67,37.81H34.4v1.97h1.45l-0.1,0.7h-2.12v-5.72h2.1v0.71H34.4v1.62h1.27V37.81z"/>
			<path class="st0" d="M36.3,34.77h1.14c1.22,0,1.46,0.69,1.46,1.68v2.22c0,0.88-0.14,1.81-1.48,1.81H36.3V34.77z M37.07,39.83
				h0.31c0.63,0,0.75-0.38,0.75-1.04v-2.41c0-0.58-0.1-0.95-0.75-0.95h-0.31V39.83z"/>
		</g>
	</g>
	<g>
		<polygon class="st100" points="8.15,38.48 8.6,38.97 9.25,38.88 8.93,39.46 9.22,40.05 8.57,39.92 8.09,40.38 8.02,39.72 
			7.43,39.41 8.04,39.14 		"/>
		<polygon class="st100" points="8.86,40.96 9.61,41.35 10.36,40.96 10.22,41.79 10.83,42.39 9.99,42.51 9.61,43.27 9.24,42.51 
			8.39,42.39 9,41.8 		"/>
		<polygon class="st100" points="7.65,36.22 7.98,36.65 8.52,36.63 8.21,37.07 8.41,37.58 7.89,37.43 7.46,37.77 7.45,37.22 
			7,36.93 7.51,36.75 		"/>
		<polygon class="st100" points="10.66,43.53 11.23,43.88 11.83,43.6 11.68,44.25 12.13,44.74 11.47,44.79 11.14,45.37 10.88,44.76 
			10.24,44.63 10.74,44.19 		"/>
		<polygon class="st100" points="12.31,45.7 12.81,45.92 13.27,45.64 13.21,46.18 13.63,46.53 13.09,46.64 12.89,47.14 12.61,46.67 
			12.07,46.63 12.44,46.23 		"/>
	</g>
</g>
</svg>
