<?xml version="1.0" encoding="utf-8"?>
<!-- Generator: Adobe Illustrator 27.2.0, SVG Export Plug-In . SVG Version: 6.00 Build 0)  -->
<svg version="1.1" id="Layer_1" xmlns="http://www.w3.org/2000/svg" xmlns:xlink="http://www.w3.org/1999/xlink" x="0px" y="0px"
	 viewBox="0 0 54.72 63.62" style="enable-background:new 0 0 54.72 63.62;" xml:space="preserve">
<style type="text/css">
	.st0{fill:#4F4C4D;}
	.st1{fill:url(#SVGID_1_);}
	.st2{fill:url(#SVGID_00000142889005847606870500000001180340351354093458_);}
	
		.st3{clip-path:url(#SVGID_00000137132755271663149630000006062544822573865859_);fill:url(#SVGID_00000033353431295461859090000000910363484369815208_);}
	
		.st4{clip-path:url(#SVGID_00000137132755271663149630000006062544822573865859_);fill:url(#SVGID_00000056414273090048978370000018139185255849761949_);}
	
		.st5{clip-path:url(#SVGID_00000137132755271663149630000006062544822573865859_);fill:url(#SVGID_00000166673121909844061040000013767609406108925887_);}
	
		.st6{clip-path:url(#SVGID_00000137132755271663149630000006062544822573865859_);fill:url(#SVGID_00000006706275402815218660000010071746187626648756_);}
	
		.st7{clip-path:url(#SVGID_00000137132755271663149630000006062544822573865859_);fill:url(#SVGID_00000167379232264093533460000014965835277210185149_);}
	
		.st8{clip-path:url(#SVGID_00000137132755271663149630000006062544822573865859_);fill:url(#SVGID_00000005237664791267627190000008246395995587401369_);}
	
		.st9{clip-path:url(#SVGID_00000137132755271663149630000006062544822573865859_);fill:url(#SVGID_00000114063393377932789250000001046978196567950225_);}
	
		.st10{clip-path:url(#SVGID_00000137132755271663149630000006062544822573865859_);fill:url(#SVGID_00000096028907003685814370000011184628798596029854_);}
	
		.st11{clip-path:url(#SVGID_00000137132755271663149630000006062544822573865859_);fill:url(#SVGID_00000067212180996636443870000006534524461109910439_);}
	
		.st12{clip-path:url(#SVGID_00000137132755271663149630000006062544822573865859_);fill:url(#SVGID_00000158751483283032631620000013549912268262273714_);}
	
		.st13{clip-path:url(#SVGID_00000137132755271663149630000006062544822573865859_);fill:url(#SVGID_00000080204040687583707180000014176382337672911031_);}
	
		.st14{clip-path:url(#SVGID_00000137132755271663149630000006062544822573865859_);fill:url(#SVGID_00000122001842363366089510000000186814298170893474_);}
	
		.st15{clip-path:url(#SVGID_00000137132755271663149630000006062544822573865859_);fill:url(#SVGID_00000121272221281612077290000017238084480165123510_);}
	
		.st16{clip-path:url(#SVGID_00000137132755271663149630000006062544822573865859_);fill:url(#SVGID_00000109002118967311662950000017761466271002392242_);}
	
		.st17{clip-path:url(#SVGID_00000137132755271663149630000006062544822573865859_);fill:url(#SVGID_00000178913847754013238580000014338410776431261098_);}
	
		.st18{clip-path:url(#SVGID_00000137132755271663149630000006062544822573865859_);fill:url(#SVGID_00000036931675184284868890000006972953699743261617_);}
	.st19{clip-path:url(#SVGID_00000137132755271663149630000006062544822573865859_);}
	.st20{fill:url(#SVGID_00000116935454852922514560000001703734508124946823_);}
	.st21{fill:url(#SVGID_00000160892946583248306920000016263555897302881425_);}
	.st22{fill:url(#SVGID_00000011747770883227789080000012730363484241985715_);}
	.st23{fill:url(#SVGID_00000123430660948302849050000008215429531443946128_);}
	
		.st24{clip-path:url(#SVGID_00000137132755271663149630000006062544822573865859_);fill:url(#SVGID_00000043425612405552052950000000647946488684655273_);}
	
		.st25{clip-path:url(#SVGID_00000137132755271663149630000006062544822573865859_);fill:url(#SVGID_00000129181758346576164530000011341342573025997495_);}
	
		.st26{clip-path:url(#SVGID_00000137132755271663149630000006062544822573865859_);fill:url(#SVGID_00000115502888403296674470000007203825807883202482_);}
	
		.st27{clip-path:url(#SVGID_00000137132755271663149630000006062544822573865859_);fill:url(#SVGID_00000008851168096961216610000000649919259752202655_);}
	
		.st28{clip-path:url(#SVGID_00000137132755271663149630000006062544822573865859_);fill:url(#SVGID_00000165949848022802506970000001947649299717988224_);}
	
		.st29{clip-path:url(#SVGID_00000137132755271663149630000006062544822573865859_);fill:url(#SVGID_00000054973500842467134290000008573816922971313323_);}
	
		.st30{clip-path:url(#SVGID_00000137132755271663149630000006062544822573865859_);fill:url(#SVGID_00000031179670637199884010000009999645518947699879_);}
	
		.st31{clip-path:url(#SVGID_00000137132755271663149630000006062544822573865859_);fill:url(#SVGID_00000163786979199181601110000011276588032617728403_);}
	
		.st32{clip-path:url(#SVGID_00000137132755271663149630000006062544822573865859_);fill:url(#SVGID_00000177480431389608220870000006751848164276765600_);}
	
		.st33{clip-path:url(#SVGID_00000137132755271663149630000006062544822573865859_);fill:url(#SVGID_00000139285465162276144640000001516716228441468059_);}
	
		.st34{clip-path:url(#SVGID_00000137132755271663149630000006062544822573865859_);fill:url(#SVGID_00000059269604593219709100000018421667046739201191_);}
	
		.st35{clip-path:url(#SVGID_00000137132755271663149630000006062544822573865859_);fill:url(#SVGID_00000020374591671625115350000013406305778130954372_);}
	
		.st36{clip-path:url(#SVGID_00000137132755271663149630000006062544822573865859_);fill:url(#SVGID_00000000935434829884235750000006061923081105918626_);}
	
		.st37{clip-path:url(#SVGID_00000137132755271663149630000006062544822573865859_);fill:url(#SVGID_00000132778844617230394690000009691850726637341328_);}
	
		.st38{clip-path:url(#SVGID_00000137132755271663149630000006062544822573865859_);fill:url(#SVGID_00000100368739539049314580000013343539858687867297_);}
	
		.st39{clip-path:url(#SVGID_00000137132755271663149630000006062544822573865859_);fill:url(#SVGID_00000153688881205723187200000003038230744924584619_);}
	.st40{fill:url(#SVGID_00000106828628662513761050000014683791416185829006_);}
	.st41{fill:url(#SVGID_00000136394378431519479480000017842816340193819308_);}
	.st42{fill:url(#SVGID_00000029005171282923953920000009739784612218054816_);}
	.st43{fill:url(#SVGID_00000084510132118415473590000006016528555674699659_);}
	
		.st44{clip-path:url(#SVGID_00000137132755271663149630000006062544822573865859_);fill:url(#SVGID_00000024722480807042744470000012092002151012951205_);}
	
		.st45{clip-path:url(#SVGID_00000137132755271663149630000006062544822573865859_);fill:url(#SVGID_00000127018181834072965680000000742943361178772156_);}
	
		.st46{clip-path:url(#SVGID_00000137132755271663149630000006062544822573865859_);fill:url(#SVGID_00000102508643720792123550000015284699381040253626_);}
	
		.st47{clip-path:url(#SVGID_00000137132755271663149630000006062544822573865859_);fill:url(#SVGID_00000071541719548996685840000011607185913951907261_);}
	
		.st48{clip-path:url(#SVGID_00000137132755271663149630000006062544822573865859_);fill:url(#SVGID_00000162333916198918969870000012183035503395735454_);}
	
		.st49{clip-path:url(#SVGID_00000137132755271663149630000006062544822573865859_);fill:url(#SVGID_00000060032959325532078560000011189945914017671056_);}
	
		.st50{clip-path:url(#SVGID_00000137132755271663149630000006062544822573865859_);fill:url(#SVGID_00000091004981779560002120000003772364133523113618_);}
	
		.st51{clip-path:url(#SVGID_00000137132755271663149630000006062544822573865859_);fill:url(#SVGID_00000095327905538683216220000005004808836988708798_);}
	
		.st52{clip-path:url(#SVGID_00000137132755271663149630000006062544822573865859_);fill:url(#SVGID_00000088124833816451032210000008116609503330129326_);}
	
		.st53{clip-path:url(#SVGID_00000137132755271663149630000006062544822573865859_);fill:url(#SVGID_00000105426743479284878720000010393929600157356216_);}
	
		.st54{clip-path:url(#SVGID_00000137132755271663149630000006062544822573865859_);fill:url(#SVGID_00000145025288949701539690000015482640104462483122_);}
	
		.st55{clip-path:url(#SVGID_00000137132755271663149630000006062544822573865859_);fill:url(#SVGID_00000137810648047040634900000010983752406301806728_);}
	
		.st56{clip-path:url(#SVGID_00000137132755271663149630000006062544822573865859_);fill:url(#SVGID_00000083087777396382671040000015105102777781588393_);}
	
		.st57{clip-path:url(#SVGID_00000137132755271663149630000006062544822573865859_);fill:url(#SVGID_00000115479494223073732420000012188172649245177271_);}
	
		.st58{clip-path:url(#SVGID_00000137132755271663149630000006062544822573865859_);fill:url(#SVGID_00000055690239082123688140000017506135973336914847_);}
	
		.st59{clip-path:url(#SVGID_00000137132755271663149630000006062544822573865859_);fill:url(#SVGID_00000167356878999336534420000017638425985907668125_);}
	.st60{fill:url(#SVGID_00000122694809497141125040000017192018972277060000_);}
	.st61{fill:url(#SVGID_00000157299997077970740040000013860421587082426768_);}
	.st62{fill:url(#SVGID_00000054959501668571905250000004195676149473416339_);}
	.st63{fill:url(#SVGID_00000006689515011684741910000010103634207460278418_);}
	
		.st64{clip-path:url(#SVGID_00000137132755271663149630000006062544822573865859_);fill:url(#SVGID_00000106114729278929385190000013314372238534825906_);}
	
		.st65{clip-path:url(#SVGID_00000137132755271663149630000006062544822573865859_);fill:url(#SVGID_00000072277577225696204220000004650530590772434091_);}
	
		.st66{clip-path:url(#SVGID_00000137132755271663149630000006062544822573865859_);fill:url(#SVGID_00000112598371354225173790000015402443150373418116_);}
	
		.st67{clip-path:url(#SVGID_00000137132755271663149630000006062544822573865859_);fill:url(#SVGID_00000047777203173171081730000004034350990779134397_);}
	
		.st68{clip-path:url(#SVGID_00000137132755271663149630000006062544822573865859_);fill:url(#SVGID_00000023965624117784248900000012110917653536200630_);}
	
		.st69{clip-path:url(#SVGID_00000137132755271663149630000006062544822573865859_);fill:url(#SVGID_00000065049757603311008960000005296880000243220135_);}
	
		.st70{clip-path:url(#SVGID_00000137132755271663149630000006062544822573865859_);fill:url(#SVGID_00000086672590656593629300000014807423000065936575_);}
	
		.st71{clip-path:url(#SVGID_00000137132755271663149630000006062544822573865859_);fill:url(#SVGID_00000156586651135635440910000011288137870473914021_);}
	
		.st72{clip-path:url(#SVGID_00000137132755271663149630000006062544822573865859_);fill:url(#SVGID_00000165219937518478786850000009711293398878935707_);}
	
		.st73{clip-path:url(#SVGID_00000137132755271663149630000006062544822573865859_);fill:url(#SVGID_00000079454483473833459370000012144107175166302103_);}
	
		.st74{clip-path:url(#SVGID_00000137132755271663149630000006062544822573865859_);fill:url(#SVGID_00000051352550742915182540000015304228755380220295_);}
	
		.st75{clip-path:url(#SVGID_00000137132755271663149630000006062544822573865859_);fill:url(#SVGID_00000032608900885912062470000017305710702706845340_);}
	
		.st76{clip-path:url(#SVGID_00000137132755271663149630000006062544822573865859_);fill:url(#SVGID_00000129197313677652495710000017560564144457304230_);}
	
		.st77{clip-path:url(#SVGID_00000137132755271663149630000006062544822573865859_);fill:url(#SVGID_00000003070455949522737350000018171964817353516448_);}
	
		.st78{clip-path:url(#SVGID_00000137132755271663149630000006062544822573865859_);fill:url(#SVGID_00000125573886199337313550000000670069754654440884_);}
	
		.st79{clip-path:url(#SVGID_00000137132755271663149630000006062544822573865859_);fill:url(#SVGID_00000144321034981520989900000007852432062412790407_);}
	.st80{fill:url(#SVGID_00000088098559276207705860000001335186951357468569_);}
	.st81{fill:url(#SVGID_00000024705066484493957310000014691935799396834967_);}
	.st82{fill:url(#SVGID_00000105393278258530454390000013919370774798159491_);}
	.st83{fill:url(#SVGID_00000163061557892225363520000003715722502730589080_);}
	.st84{fill:url(#SVGID_00000039835595881257863910000009857171224098600082_);}
	.st85{fill:url(#SVGID_00000183961434025043068090000009222970034123804323_);}
	.st86{fill:url(#SVGID_00000127020200603405008870000010248742204381422239_);}
	.st87{fill:url(#SVGID_00000132071841214504173040000009819775135627397784_);}
	.st88{fill:url(#SVGID_00000159468242511816387940000002115622728493061306_);}
	.st89{fill:url(#SVGID_00000134940053681251578740000014794963164915320231_);}
	.st90{clip-path:url(#SVGID_00000151526449896937001530000012414018290579535748_);}
	.st91{fill:url(#SVGID_00000065071888060390113840000002025579137641211781_);}
	.st92{fill:url(#SVGID_00000040536351869654208640000005395481022329197208_);}
	.st93{fill:url(#SVGID_00000036959410349716768750000001113393781984211376_);}
	.st94{fill:url(#SVGID_00000060009834912114221130000004741506824259872897_);}
	.st95{fill:url(#SVGID_00000173158591024341832470000014378348296269732259_);}
	.st96{fill:url(#SVGID_00000094581317005202468440000014597720822803869083_);}
	.st97{fill:url(#SVGID_00000000913975145152473510000007281108337168508549_);}
	.st98{fill:none;stroke:#666364;stroke-miterlimit:10;}
	.st99{fill:#666364;}
	.st100{fill:#FFFFFF;}
	.st101{fill:#C1C0C1;}
	.st102{fill:none;stroke:#4F4C4D;stroke-width:0.0179;stroke-miterlimit:10;}
	.st103{fill:#D5D4D5;}
	.st104{clip-path:url(#SVGID_00000122685731352127819890000011990285420392539523_);}
	.st105{fill:none;stroke:#4F4C4D;stroke-width:0.8884;stroke-linecap:round;stroke-linejoin:round;stroke-miterlimit:10;}
	.st106{fill:none;stroke:#4F4C4D;stroke-width:0.8448;stroke-linecap:round;stroke-linejoin:round;stroke-miterlimit:10;}
	.st107{fill:none;stroke:#4F4C4D;stroke-width:0.9746;stroke-linecap:round;stroke-linejoin:round;stroke-miterlimit:10;}
	.st108{fill:none;stroke:#4F4C4D;stroke-width:0.8608;stroke-linecap:round;stroke-linejoin:round;stroke-miterlimit:10;}
	
		.st109{fill:none;stroke:#4F4C4D;stroke-width:0.8608;stroke-linecap:round;stroke-linejoin:round;stroke-miterlimit:10;stroke-dasharray:1.0632;}
	.st110{fill:none;stroke:#4F4C4D;stroke-width:0.9757;stroke-linecap:round;stroke-linejoin:round;stroke-miterlimit:10;}
	.st111{fill:none;stroke:#4F4C4D;stroke-width:1.1046;stroke-linecap:round;stroke-linejoin:round;stroke-miterlimit:10;}
	.st112{fill:none;stroke:#4F4C4D;stroke-width:1.0333;stroke-linecap:round;stroke-linejoin:round;stroke-miterlimit:10;}
	
		.st113{fill:none;stroke:#4F4C4D;stroke-width:1.0333;stroke-linecap:round;stroke-linejoin:round;stroke-miterlimit:10;stroke-dasharray:1.2;}
	.st114{fill:none;stroke:#4F4C4D;stroke-linecap:round;stroke-linejoin:round;stroke-miterlimit:10;}
	.st115{fill:none;stroke:#4F4C4D;stroke-linecap:round;stroke-linejoin:round;stroke-miterlimit:10;stroke-dasharray:1.0878;}
</style>
<g>
	<g>
		<path class="st0" d="M27.36,60.49L2.69,46.25V17.76L27.36,3.52l24.67,14.24v28.48L27.36,60.49z M4.53,45.18l22.83,13.18
			l22.83-13.18V18.83L27.36,5.65L4.53,18.83V45.18z"/>
	</g>
</g>
<g>
	<g>
		<g>
			<path class="st0" d="M21.34,41.74c0.02-0.13,0.04-0.2,0.03-0.26c-0.05-0.43,0.08-0.77,0.53-0.88c0.49-0.11,0.73,0.18,0.93,0.59
				c0.2,0.4,0.41,0.81,0.69,1.17c2.25,2.86,6.64,2.33,8.15-0.99c0.08-0.17,0.11-0.42,0.25-0.5c0.22-0.14,0.52-0.28,0.76-0.23
				c0.19,0.04,0.38,0.31,0.49,0.52c0.08,0.15,0.03,0.36,0.04,0.55c1.07-0.03,1.85-0.55,2.2-1.45c0.35-0.89,0.19-1.96-0.64-2.53
				c-3.67-2.51-5.52-10.02-4.18-14.54c0.03-0.11,0.08-0.23,0.1-0.34c0.12-0.55,0.43-0.89,1.01-0.7c0.57,0.18,0.5,0.66,0.39,1.13
				c-0.15,0.67-0.31,1.35-0.39,2.03c-0.34,2.88,0.27,5.62,1.54,8.18c0.54,1.08,1.4,2.04,2.28,2.89c1.31,1.26,1.86,2.84,1.26,4.37
				c-0.62,1.59-2.01,2.47-3.82,2.46c-0.26,0-0.59,0.14-0.77,0.33c-2.7,2.97-6.98,2.99-9.63,0.01c-0.3-0.33-0.59-0.38-0.99-0.37
				c-1.64,0.05-3.02-0.87-3.63-2.4c-0.57-1.42-0.25-3.15,0.97-4.11c2.45-1.92,3.4-4.57,3.92-7.48c0.36-2.03,0.34-4.03-0.25-6.02
				c-0.14-0.45-0.09-0.89,0.44-1.04c0.55-0.15,0.82,0.15,0.98,0.67c0.9,3.02,0.56,5.99-0.26,8.95c-0.64,2.32-1.79,4.3-3.67,5.83
				c-0.76,0.62-1.12,1.42-0.84,2.41C19.52,41.03,20.23,41.58,21.34,41.74z"/>
			<path class="st0" d="M44.14,44.71c-0.28-0.11-0.44-0.16-0.58-0.23c-1.03-0.54-2.06-1.09-3.09-1.64
				c-0.45-0.24-0.76-0.56-0.46-1.09c0.29-0.51,0.71-0.45,1.17-0.2c1.05,0.57,2.12,1.08,3.14,1.7c0.24,0.15,0.4,0.61,0.4,0.92
				C44.71,44.36,44.33,44.55,44.14,44.71z"/>
			<path class="st0" d="M13.93,36.08c-1.4-0.8-2.73-1.55-4.04-2.36c-0.11-0.07-0.09-0.58,0.04-0.76c0.13-0.18,0.55-0.35,0.72-0.27
				c1.28,0.63,2.54,1.3,3.77,2.01c0.16,0.09,0.23,0.53,0.16,0.75C14.51,35.68,14.22,35.82,13.93,36.08z"/>
			<path class="st0" d="M40.46,35.92c-0.11-0.1-0.41-0.25-0.47-0.47c-0.07-0.22,0.01-0.66,0.17-0.75c1.23-0.71,2.49-1.39,3.77-2.01
				c0.17-0.08,0.63,0.13,0.75,0.33c0.12,0.2,0.06,0.73-0.09,0.82c-1.25,0.73-2.54,1.38-3.82,2.06
				C40.72,35.92,40.67,35.91,40.46,35.92z"/>
			<path class="st0" d="M10.3,44.66c-0.12-0.12-0.42-0.28-0.46-0.5c-0.04-0.25,0.05-0.69,0.24-0.8c1.19-0.69,2.41-1.34,3.66-1.93
				c0.18-0.09,0.66,0.14,0.8,0.35c0.12,0.18,0.05,0.71-0.11,0.8c-1.23,0.72-2.5,1.37-3.76,2.03C10.61,44.65,10.53,44.64,10.3,44.66z
				"/>
			<path class="st0" d="M12.25,37.91c0.52,0,1.05-0.01,1.57,0c0.5,0.01,0.85,0.25,0.83,0.77c-0.02,0.49-0.37,0.69-0.83,0.69
				c-1.07,0-2.14,0-3.21,0c-0.46,0-0.81-0.18-0.82-0.69c-0.02-0.54,0.33-0.76,0.82-0.77C11.16,37.9,11.7,37.91,12.25,37.91z"/>
			<path class="st0" d="M42.38,37.91c0.55,0,1.1-0.02,1.64,0c0.47,0.02,0.77,0.26,0.76,0.76c-0.01,0.46-0.3,0.69-0.74,0.69
				c-1.12,0.01-2.24,0.01-3.36,0c-0.48,0-0.84-0.28-0.74-0.74c0.06-0.28,0.44-0.63,0.73-0.68C41.22,37.83,41.81,37.91,42.38,37.91z"
				/>
		</g>
	</g>
</g>
</svg>
