<?xml version="1.0" encoding="utf-8"?>
<!-- Generator: Adobe Illustrator 27.2.0, SVG Export Plug-In . SVG Version: 6.00 Build 0)  -->
<svg version="1.1" id="Layer_1" xmlns="http://www.w3.org/2000/svg" xmlns:xlink="http://www.w3.org/1999/xlink" x="0px" y="0px"
	 viewBox="0 0 54.72 63.62" style="enable-background:new 0 0 54.72 63.62;" xml:space="preserve">
<style type="text/css">
	.st0{fill:#4F4C4D;}
	.st1{fill:url(#SVGID_1_);}
	.st2{fill:url(#SVGID_00000044860537701051418230000008052643794211012526_);}
	
		.st3{clip-path:url(#SVGID_00000054232772123567120680000002120772708570211479_);fill:url(#SVGID_00000176037737316834865820000010727497577267032451_);}
	
		.st4{clip-path:url(#SVGID_00000054232772123567120680000002120772708570211479_);fill:url(#SVGID_00000012463132405304232860000006011102340624912004_);}
	
		.st5{clip-path:url(#SVGID_00000054232772123567120680000002120772708570211479_);fill:url(#SVGID_00000132808648204299456100000010716995680222132927_);}
	
		.st6{clip-path:url(#SVGID_00000054232772123567120680000002120772708570211479_);fill:url(#SVGID_00000174580000134040221890000004424082115434896821_);}
	
		.st7{clip-path:url(#SVGID_00000054232772123567120680000002120772708570211479_);fill:url(#SVGID_00000101811418033311132830000011144522428598813597_);}
	
		.st8{clip-path:url(#SVGID_00000054232772123567120680000002120772708570211479_);fill:url(#SVGID_00000133493959650980716890000010361828133384416152_);}
	
		.st9{clip-path:url(#SVGID_00000054232772123567120680000002120772708570211479_);fill:url(#SVGID_00000131342609507228950630000014554669147456810932_);}
	
		.st10{clip-path:url(#SVGID_00000054232772123567120680000002120772708570211479_);fill:url(#SVGID_00000081613194460766181830000010266099663371165338_);}
	
		.st11{clip-path:url(#SVGID_00000054232772123567120680000002120772708570211479_);fill:url(#SVGID_00000111907945832840307970000014944115419011763893_);}
	
		.st12{clip-path:url(#SVGID_00000054232772123567120680000002120772708570211479_);fill:url(#SVGID_00000106833057515068763790000008992116043539483066_);}
	
		.st13{clip-path:url(#SVGID_00000054232772123567120680000002120772708570211479_);fill:url(#SVGID_00000061463336654580233120000004591655354634591385_);}
	
		.st14{clip-path:url(#SVGID_00000054232772123567120680000002120772708570211479_);fill:url(#SVGID_00000096749589928252643400000011186433683225810076_);}
	
		.st15{clip-path:url(#SVGID_00000054232772123567120680000002120772708570211479_);fill:url(#SVGID_00000129911230319917292770000005969918261622957999_);}
	
		.st16{clip-path:url(#SVGID_00000054232772123567120680000002120772708570211479_);fill:url(#SVGID_00000169529475438834130210000000068976377536109700_);}
	
		.st17{clip-path:url(#SVGID_00000054232772123567120680000002120772708570211479_);fill:url(#SVGID_00000034796120758978767680000017577761830903305662_);}
	
		.st18{clip-path:url(#SVGID_00000054232772123567120680000002120772708570211479_);fill:url(#SVGID_00000041994292838890128030000002689144240471973529_);}
	.st19{clip-path:url(#SVGID_00000054232772123567120680000002120772708570211479_);}
	.st20{fill:url(#SVGID_00000000217797694354084810000013563528710976716929_);}
	.st21{fill:url(#SVGID_00000079487738249143907800000015199458392632588984_);}
	.st22{fill:url(#SVGID_00000142173567472764410340000001829157804490238902_);}
	.st23{fill:url(#SVGID_00000155854023127494280570000008060397802169084055_);}
	
		.st24{clip-path:url(#SVGID_00000054232772123567120680000002120772708570211479_);fill:url(#SVGID_00000160162947336766583560000008024623643048995505_);}
	
		.st25{clip-path:url(#SVGID_00000054232772123567120680000002120772708570211479_);fill:url(#SVGID_00000098935517207006936610000011942904632552324794_);}
	
		.st26{clip-path:url(#SVGID_00000054232772123567120680000002120772708570211479_);fill:url(#SVGID_00000030482234070303636060000011593166188355784084_);}
	
		.st27{clip-path:url(#SVGID_00000054232772123567120680000002120772708570211479_);fill:url(#SVGID_00000007390219822444400730000003922342806503791527_);}
	
		.st28{clip-path:url(#SVGID_00000054232772123567120680000002120772708570211479_);fill:url(#SVGID_00000172420315118816622780000002471629476234051969_);}
	
		.st29{clip-path:url(#SVGID_00000054232772123567120680000002120772708570211479_);fill:url(#SVGID_00000161618957862443135850000000408801498119534986_);}
	
		.st30{clip-path:url(#SVGID_00000054232772123567120680000002120772708570211479_);fill:url(#SVGID_00000132074211920780797570000008028603717610409399_);}
	
		.st31{clip-path:url(#SVGID_00000054232772123567120680000002120772708570211479_);fill:url(#SVGID_00000091733041747006335640000012844743774379867545_);}
	
		.st32{clip-path:url(#SVGID_00000054232772123567120680000002120772708570211479_);fill:url(#SVGID_00000110472347610153940710000015940826139241773730_);}
	
		.st33{clip-path:url(#SVGID_00000054232772123567120680000002120772708570211479_);fill:url(#SVGID_00000040548607507180074650000000621023863886031804_);}
	
		.st34{clip-path:url(#SVGID_00000054232772123567120680000002120772708570211479_);fill:url(#SVGID_00000119094273150466498400000017196289596104098222_);}
	
		.st35{clip-path:url(#SVGID_00000054232772123567120680000002120772708570211479_);fill:url(#SVGID_00000005971784007073448020000003679366212242250885_);}
	
		.st36{clip-path:url(#SVGID_00000054232772123567120680000002120772708570211479_);fill:url(#SVGID_00000140016086201860521340000004670237936033259937_);}
	
		.st37{clip-path:url(#SVGID_00000054232772123567120680000002120772708570211479_);fill:url(#SVGID_00000020358626712481514070000016112258676408112298_);}
	
		.st38{clip-path:url(#SVGID_00000054232772123567120680000002120772708570211479_);fill:url(#SVGID_00000053509014302324918980000012118767891012658055_);}
	
		.st39{clip-path:url(#SVGID_00000054232772123567120680000002120772708570211479_);fill:url(#SVGID_00000178921051886326411970000013359847130121751218_);}
	.st40{fill:url(#SVGID_00000134970821021831986160000004240768040966093716_);}
	.st41{fill:url(#SVGID_00000154418256371737111170000005526815060795019959_);}
	.st42{fill:url(#SVGID_00000018929309938109205710000018269186889460676540_);}
	.st43{fill:url(#SVGID_00000102531082676293683150000013316119869660736434_);}
	
		.st44{clip-path:url(#SVGID_00000054232772123567120680000002120772708570211479_);fill:url(#SVGID_00000049912316961026246780000003189727736033534888_);}
	
		.st45{clip-path:url(#SVGID_00000054232772123567120680000002120772708570211479_);fill:url(#SVGID_00000135675368828860736420000000624967435439787704_);}
	
		.st46{clip-path:url(#SVGID_00000054232772123567120680000002120772708570211479_);fill:url(#SVGID_00000173857721158759815510000005985171389706396094_);}
	
		.st47{clip-path:url(#SVGID_00000054232772123567120680000002120772708570211479_);fill:url(#SVGID_00000044886291801663911350000017669859183855093688_);}
	
		.st48{clip-path:url(#SVGID_00000054232772123567120680000002120772708570211479_);fill:url(#SVGID_00000013179369924200823430000014550678012979708336_);}
	
		.st49{clip-path:url(#SVGID_00000054232772123567120680000002120772708570211479_);fill:url(#SVGID_00000104704179999298678750000008636106591166345094_);}
	
		.st50{clip-path:url(#SVGID_00000054232772123567120680000002120772708570211479_);fill:url(#SVGID_00000088128473214996969850000008501386748108669090_);}
	
		.st51{clip-path:url(#SVGID_00000054232772123567120680000002120772708570211479_);fill:url(#SVGID_00000008852393472806914500000006182127298643419541_);}
	
		.st52{clip-path:url(#SVGID_00000054232772123567120680000002120772708570211479_);fill:url(#SVGID_00000078730182212761145830000009951904362521601938_);}
	
		.st53{clip-path:url(#SVGID_00000054232772123567120680000002120772708570211479_);fill:url(#SVGID_00000029009917898901702450000016022235040319756720_);}
	
		.st54{clip-path:url(#SVGID_00000054232772123567120680000002120772708570211479_);fill:url(#SVGID_00000144301916305179306480000014722364099604331144_);}
	
		.st55{clip-path:url(#SVGID_00000054232772123567120680000002120772708570211479_);fill:url(#SVGID_00000032622978895747858300000013685581333923451308_);}
	
		.st56{clip-path:url(#SVGID_00000054232772123567120680000002120772708570211479_);fill:url(#SVGID_00000033350963087568739890000016682771389453728406_);}
	
		.st57{clip-path:url(#SVGID_00000054232772123567120680000002120772708570211479_);fill:url(#SVGID_00000155104054878631340970000011082260896914971786_);}
	
		.st58{clip-path:url(#SVGID_00000054232772123567120680000002120772708570211479_);fill:url(#SVGID_00000059989949580945011370000007400124739688807579_);}
	
		.st59{clip-path:url(#SVGID_00000054232772123567120680000002120772708570211479_);fill:url(#SVGID_00000080197531213038489430000007557589265263652777_);}
	.st60{fill:url(#SVGID_00000160186283443140079190000000053898177271701695_);}
	.st61{fill:url(#SVGID_00000182522598897800330170000018095581703708929952_);}
	.st62{fill:url(#SVGID_00000160183292634947504210000008535434962610156476_);}
	.st63{fill:url(#SVGID_00000148654401174809845080000011927783549701027470_);}
	
		.st64{clip-path:url(#SVGID_00000054232772123567120680000002120772708570211479_);fill:url(#SVGID_00000088821877696190878380000015760655262872137651_);}
	
		.st65{clip-path:url(#SVGID_00000054232772123567120680000002120772708570211479_);fill:url(#SVGID_00000152228084622526463360000008753272840736668084_);}
	
		.st66{clip-path:url(#SVGID_00000054232772123567120680000002120772708570211479_);fill:url(#SVGID_00000137851058936936164980000007872540768945674173_);}
	
		.st67{clip-path:url(#SVGID_00000054232772123567120680000002120772708570211479_);fill:url(#SVGID_00000088131720235519290510000014436702740470853775_);}
	
		.st68{clip-path:url(#SVGID_00000054232772123567120680000002120772708570211479_);fill:url(#SVGID_00000132802029554942533750000007049873229009039746_);}
	
		.st69{clip-path:url(#SVGID_00000054232772123567120680000002120772708570211479_);fill:url(#SVGID_00000075159462977254474970000002968312677635839659_);}
	
		.st70{clip-path:url(#SVGID_00000054232772123567120680000002120772708570211479_);fill:url(#SVGID_00000054257990162791062740000004845326775481883067_);}
	
		.st71{clip-path:url(#SVGID_00000054232772123567120680000002120772708570211479_);fill:url(#SVGID_00000016053011578637346120000017724582723557322125_);}
	
		.st72{clip-path:url(#SVGID_00000054232772123567120680000002120772708570211479_);fill:url(#SVGID_00000152235281216177830810000012677225385835646598_);}
	
		.st73{clip-path:url(#SVGID_00000054232772123567120680000002120772708570211479_);fill:url(#SVGID_00000183927387990901929900000006122746213217018241_);}
	
		.st74{clip-path:url(#SVGID_00000054232772123567120680000002120772708570211479_);fill:url(#SVGID_00000002368617456004282280000010043162665648584864_);}
	
		.st75{clip-path:url(#SVGID_00000054232772123567120680000002120772708570211479_);fill:url(#SVGID_00000173847901811291845650000016241797060283474855_);}
	
		.st76{clip-path:url(#SVGID_00000054232772123567120680000002120772708570211479_);fill:url(#SVGID_00000164505653320474117590000001891760651947211686_);}
	
		.st77{clip-path:url(#SVGID_00000054232772123567120680000002120772708570211479_);fill:url(#SVGID_00000176028839294213343280000000805852323027550876_);}
	
		.st78{clip-path:url(#SVGID_00000054232772123567120680000002120772708570211479_);fill:url(#SVGID_00000106869840264555655740000002373878246103649461_);}
	
		.st79{clip-path:url(#SVGID_00000054232772123567120680000002120772708570211479_);fill:url(#SVGID_00000021802933245752310380000015148430606405282988_);}
	.st80{fill:url(#SVGID_00000026858751086397594520000016477952122796916630_);}
	.st81{fill:url(#SVGID_00000119119378686708129980000008783380711953695649_);}
	.st82{fill:url(#SVGID_00000046324067262437759710000017179830075514475671_);}
	.st83{fill:url(#SVGID_00000037672815109714030690000008050386712784287897_);}
	.st84{fill:url(#SVGID_00000021830055090019464130000006451068379792340645_);}
	.st85{fill:url(#SVGID_00000108997215861304001620000005901273919864512407_);}
	.st86{fill:url(#SVGID_00000163765891419623483210000001795228696303167127_);}
	.st87{fill:url(#SVGID_00000183237160347399409210000000334513373931588281_);}
	.st88{fill:url(#SVGID_00000052079654855230972070000002971932349791959477_);}
	.st89{fill:url(#SVGID_00000021799353522919979000000000065680346929091772_);}
	.st90{clip-path:url(#SVGID_00000077308523712758661960000009678439728654986423_);}
	.st91{fill:url(#SVGID_00000099659581376463506650000016997771695258385580_);}
	.st92{fill:url(#SVGID_00000032626906784880900990000011000725464719300751_);}
	.st93{fill:url(#SVGID_00000076594058812401773180000013362147349436169385_);}
	.st94{fill:url(#SVGID_00000092431143920744686660000003378852666458637215_);}
	.st95{fill:url(#SVGID_00000016794877193163979190000010135272382958791317_);}
	.st96{fill:url(#SVGID_00000163039977240054313050000007247266209536959391_);}
	.st97{fill:url(#SVGID_00000109026318190201749760000003538592321257919644_);}
	.st98{fill:none;stroke:#666364;stroke-miterlimit:10;}
	.st99{fill:#666364;}
	.st100{fill:#FFFFFF;}
	.st101{fill:#C1C0C1;}
	.st102{fill:none;stroke:#4F4C4D;stroke-width:0.0179;stroke-miterlimit:10;}
	.st103{fill:#D5D4D5;}
	.st104{clip-path:url(#SVGID_00000179637011283335646680000014935053774757071744_);}
	.st105{fill:none;stroke:#4F4C4D;stroke-width:0.8884;stroke-linecap:round;stroke-linejoin:round;stroke-miterlimit:10;}
	.st106{fill:none;stroke:#4F4C4D;stroke-width:0.8448;stroke-linecap:round;stroke-linejoin:round;stroke-miterlimit:10;}
	.st107{fill:none;stroke:#4F4C4D;stroke-width:0.9746;stroke-linecap:round;stroke-linejoin:round;stroke-miterlimit:10;}
	.st108{fill:none;stroke:#4F4C4D;stroke-width:0.8608;stroke-linecap:round;stroke-linejoin:round;stroke-miterlimit:10;}
	
		.st109{fill:none;stroke:#4F4C4D;stroke-width:0.8608;stroke-linecap:round;stroke-linejoin:round;stroke-miterlimit:10;stroke-dasharray:1.0632;}
	.st110{fill:none;stroke:#4F4C4D;stroke-width:0.9757;stroke-linecap:round;stroke-linejoin:round;stroke-miterlimit:10;}
	.st111{fill:none;stroke:#4F4C4D;stroke-width:1.1046;stroke-linecap:round;stroke-linejoin:round;stroke-miterlimit:10;}
	.st112{fill:none;stroke:#4F4C4D;stroke-width:1.0333;stroke-linecap:round;stroke-linejoin:round;stroke-miterlimit:10;}
	
		.st113{fill:none;stroke:#4F4C4D;stroke-width:1.0333;stroke-linecap:round;stroke-linejoin:round;stroke-miterlimit:10;stroke-dasharray:1.2;}
	.st114{fill:none;stroke:#4F4C4D;stroke-linecap:round;stroke-linejoin:round;stroke-miterlimit:10;}
	.st115{fill:none;stroke:#4F4C4D;stroke-linecap:round;stroke-linejoin:round;stroke-miterlimit:10;stroke-dasharray:1.0878;}
</style>
<g>
	<g>
		<path class="st0" d="M27.36,60.49L2.69,46.25V17.76L27.36,3.52l24.67,14.24v28.48L27.36,60.49z M4.53,45.18l22.83,13.18
			l22.83-13.18V18.83L27.36,5.65L4.53,18.83V45.18z"/>
	</g>
</g>
<g>
	<path class="st0" d="M41.64,46.22c-0.24,0.48-0.62,0.64-1.16,0.63c-1.32-0.03-2.64-0.01-3.96-0.01c-0.09,0-0.19,0.01-0.28-0.01
		c-0.26-0.04-0.41-0.21-0.41-0.47c0-0.24,0.15-0.4,0.4-0.44c0.1-0.02,0.21-0.01,0.31-0.01c1.37,0,2.75,0,4.14,0
		c0-5.55,0-11.08,0-16.53c-4.43,4.43-8.91,8.91-13.39,13.4c-0.03-0.02-0.06-0.04-0.09-0.06c0.06,0.08,0.13,0.15,0.19,0.23
		c0.25,0.31,0.26,0.73-0.01,1.02c-0.48,0.5-0.96,0.99-1.47,1.47c-0.39,0.36-0.72,0.31-1.27-0.14c-0.19,0.19-0.37,0.39-0.6,0.62
		c0.14,0,0.24,0,0.35,0c2.86,0,5.72,0,8.58,0c0.08,0,0.17,0,0.25,0c0.39,0,0.61,0.18,0.61,0.47c0,0.29-0.22,0.46-0.61,0.46
		c-5.56,0-11.13,0-16.69,0c-0.6,0-0.94-0.34-0.95-0.94c-0.01-0.55,0-1.11,0-1.66c-0.03-0.02-0.06-0.05-0.1-0.07
		c-0.28,0.31-0.56,0.62-0.85,0.92c-0.09,0.1-0.19,0.2-0.3,0.27c-0.2,0.13-0.4,0.1-0.56-0.06c-0.17-0.17-0.19-0.37-0.06-0.56
		c0.07-0.1,0.16-0.19,0.25-0.28c1.48-1.48,2.96-2.96,4.46-4.46c-0.26-0.23-0.51-0.46-0.73-0.65c-2.2,2.2-4.44,4.44-6.68,6.68
		c0.2,0.19,0.44,0.42,0.72,0.69c0.11-0.12,0.23-0.27,0.37-0.41c0.23-0.22,0.5-0.23,0.69-0.05c0.19,0.19,0.19,0.46-0.03,0.69
		c-0.18,0.19-0.36,0.37-0.55,0.55c-0.32,0.29-0.75,0.3-1.07,0.01c-0.33-0.31-0.66-0.63-0.97-0.96c-0.35-0.38-0.34-0.8,0.03-1.18
		c0.37-0.39,0.76-0.76,1.14-1.14c1.34-1.34,2.69-2.68,4.02-4.04c0.11-0.11,0.17-0.29,0.19-0.45c0.03-0.29,0.02-0.58,0-0.87
		c-0.01-0.18-0.09-0.35-0.1-0.53c-0.02-0.2-0.01-0.4,0-0.6c0.03-0.5,0.08-0.99,0.1-1.49c0-0.08-0.1-0.17-0.17-0.24c-1-1-2-2-3-3
		c-0.53-0.53-0.53-0.92,0-1.45c0.39-0.39,0.77-0.78,1.16-1.16c0.45-0.44,0.86-0.44,1.32,0c0.22,0.21,0.43,0.43,0.71,0.72
		c0-0.22,0-0.34,0-0.45c0-4.19,0-8.38,0-12.57c0-0.84,0.29-1.13,1.14-1.13c7.94,0,15.87,0,23.81-0.01c0.53,0,0.89,0.16,1.11,0.64
		C41.64,27.14,41.64,36.68,41.64,46.22z M16.52,31.8c0.03,0.03,0.06,0.05,0.09,0.08c0.07-0.09,0.12-0.2,0.2-0.27
		c2.3-2.31,4.61-4.62,6.92-6.92c0.36-0.36,0.61-0.42,0.84-0.19c0.24,0.23,0.18,0.48-0.18,0.84c-2.35,2.35-4.7,4.7-7.05,7.05
		c-0.08,0.08-0.15,0.16-0.22,0.23c0.22,0.23,0.42,0.44,0.7,0.74c0.07-0.11,0.11-0.22,0.19-0.3c0.62-0.63,1.25-1.26,1.88-1.89
		c0.26-0.26,0.53-0.29,0.74-0.09c0.21,0.2,0.18,0.49-0.09,0.76c-0.04,0.04-0.07,0.07-0.11,0.11c-0.6,0.6-1.2,1.2-1.8,1.8
		c-0.07,0.07-0.14,0.14-0.17,0.18c2.03,2.04,4.05,4.05,6.07,6.08c1.28-1.28,2.58-2.58,3.88-3.88c0.09-0.09,0.18-0.18,0.28-0.24
		c0.2-0.13,0.43-0.1,0.55,0.09c0.08,0.14,0.08,0.36,0.05,0.53c-0.02,0.1-0.15,0.19-0.23,0.28c-1.23,1.23-2.45,2.45-3.68,3.68
		c-0.07,0.07-0.14,0.15-0.18,0.19c0.45,0.45,0.9,0.89,1.35,1.35c0.04-0.03,0.1-0.08,0.16-0.14c4.61-4.61,9.21-9.21,13.81-13.83
		c0.1-0.1,0.17-0.28,0.17-0.43c0.01-3.14,0.01-6.28,0.01-9.42c0-0.09-0.01-0.18-0.02-0.28c-0.09-0.01-0.16-0.01-0.23-0.01
		c-2.81,0-5.62,0-8.42,0.01c-0.13,0-0.29,0.09-0.39,0.18c-1.69,1.67-3.36,3.35-5.04,5.03c-0.08,0.08-0.16,0.16-0.25,0.23
		c-0.2,0.13-0.4,0.11-0.56-0.05c-0.18-0.18-0.19-0.38-0.06-0.59c0.06-0.09,0.15-0.17,0.23-0.25c1.42-1.42,2.85-2.85,4.27-4.27
		c0.08-0.08,0.15-0.16,0.24-0.26c-4.68,0-9.31,0-13.95,0C16.52,22.56,16.52,27.18,16.52,31.8z M16.51,45.9c2.04,0,4.03,0,6.02,0
		c0.06,0,0.14-0.01,0.17-0.04c0.42-0.42,0.84-0.84,1.23-1.23c-1.07-1.08-2.12-2.12-3.22-3.22c-0.14,0.16-0.29,0.34-0.46,0.5
		c-0.45,0.44-0.86,0.44-1.31-0.01c-0.19-0.19-0.36-0.39-0.55-0.6c-0.64,0.64-1.22,1.22-1.8,1.81c-0.05,0.05-0.09,0.12-0.09,0.19
		C16.51,44.16,16.51,45.01,16.51,45.9z M26.5,43.5c-4.13-4.13-8.24-8.25-12.31-12.32c-0.36,0.36-0.75,0.75-1.1,1.1
		c1.27,1.27,2.56,2.56,3.86,3.86c0.72-0.61,0.94-0.6,1.65,0.11c0.96,0.96,1.91,1.91,2.87,2.87c0.63,0.63,0.63,0.92,0.03,1.58
		c-0.01,0.01-0.01,0.03,0,0.01c1.31,1.31,2.61,2.61,3.9,3.9C25.76,44.24,26.15,43.85,26.5,43.5z M20.85,39.96
		c-1.05-1.05-2.12-2.12-3.15-3.15c-0.4,0.39-0.83,0.82-1.24,1.23c0.16,0.17,0.33,0.35,0.51,0.54c0.62-0.48,0.9-0.46,1.47,0.11
		c0.24,0.24,0.48,0.48,0.72,0.72c0.21,0.22,0.3,0.48,0.21,0.76c-0.06,0.19-0.19,0.35-0.28,0.51c0.16,0.18,0.33,0.37,0.49,0.55
		C20.03,40.78,20.46,40.34,20.85,39.96z"/>
	<path class="st0" d="M14.71,27.63c-0.14,0.18-0.26,0.37-0.41,0.52c-0.09,0.09-0.24,0.12-0.37,0.15c-0.46,0.12-0.75,0.41-0.87,0.87
		c-0.03,0.11-0.07,0.21-0.12,0.32c-0.12,0.26-0.33,0.4-0.61,0.4c-0.28,0-0.49-0.14-0.61-0.4c-0.02-0.05-0.05-0.09-0.06-0.14
		c-0.13-0.61-0.51-0.95-1.11-1.11c-0.38-0.1-0.55-0.35-0.54-0.66c0.01-0.34,0.21-0.57,0.52-0.64c0.61-0.15,0.98-0.51,1.13-1.13
		c0.07-0.31,0.29-0.52,0.64-0.53c0.32-0.01,0.56,0.15,0.67,0.53c0.16,0.61,0.53,0.97,1.13,1.13C14.49,27.03,14.63,27.26,14.71,27.63
		z M12.89,27.58c-0.15-0.14-0.42-0.42-0.7-0.69c0.09,0,0.19,0.01,0.28,0.01c-0.28,0.27-0.57,0.54-0.85,0.82
		c0.01-0.09,0.01-0.18,0.02-0.27c0.27,0.28,0.54,0.56,0.69,0.72C12.48,28.01,12.74,27.73,12.89,27.58z"/>
	<path class="st0" d="M33.78,22.55c0,0.29-0.12,0.51-0.38,0.63c-0.17,0.09-0.36,0.16-0.54,0.22c-0.57,0.16-0.92,0.53-1.08,1.09
		c-0.05,0.18-0.12,0.35-0.2,0.52c-0.12,0.25-0.34,0.39-0.62,0.39c-0.29,0-0.52-0.13-0.65-0.4c-0.1-0.21-0.18-0.44-0.25-0.66
		c-0.15-0.44-0.44-0.73-0.88-0.88c-0.19-0.07-0.39-0.14-0.58-0.22c-0.31-0.12-0.48-0.35-0.48-0.69c0-0.34,0.19-0.55,0.49-0.68
		c0.16-0.07,0.33-0.13,0.49-0.18c0.51-0.15,0.82-0.49,0.98-0.98c0.06-0.2,0.13-0.39,0.22-0.58c0.12-0.27,0.36-0.41,0.64-0.41
		c0.29,0,0.52,0.14,0.64,0.41c0.09,0.21,0.17,0.42,0.24,0.63c0.15,0.45,0.45,0.75,0.9,0.91c0.21,0.07,0.43,0.15,0.63,0.24
		C33.64,22.04,33.77,22.26,33.78,22.55z M32.46,22.56c-0.77-0.28-1.23-0.75-1.51-1.51c-0.27,0.77-0.74,1.24-1.43,1.51
		c0.71,0.27,1.17,0.75,1.44,1.51C31.22,23.31,31.7,22.85,32.46,22.56z"/>
	<path class="st0" d="M24.97,34.11c-0.44,0.01-0.67-0.37-0.49-0.68c0.06-0.11,0.15-0.2,0.24-0.28c2.14-2.14,4.27-4.28,6.41-6.41
		c0.05-0.05,0.1-0.1,0.16-0.15c0.22-0.19,0.49-0.2,0.67-0.02c0.2,0.19,0.19,0.44-0.02,0.69c-0.04,0.05-0.09,0.09-0.13,0.13
		c-2.14,2.14-4.29,4.29-6.43,6.43C25.23,33.94,25.06,34.04,24.97,34.11z"/>
	<path class="st0" d="M29.61,32.43c0-0.31,0.15-0.52,0.44-0.6c0.48-0.13,0.78-0.42,0.9-0.91c0.07-0.28,0.3-0.44,0.6-0.44
		c0.29,0,0.51,0.16,0.58,0.43c0.13,0.49,0.41,0.78,0.9,0.91c0.29,0.08,0.45,0.29,0.45,0.6c0,0.31-0.17,0.52-0.45,0.59
		c-0.48,0.12-0.76,0.41-0.88,0.89c-0.07,0.28-0.3,0.45-0.6,0.45c-0.3,0-0.53-0.16-0.6-0.45c-0.12-0.49-0.42-0.77-0.91-0.9
		C29.78,32.94,29.62,32.72,29.61,32.43z M31.53,32.8c0.13-0.11,0.29-0.26,0.43-0.38c-0.12-0.13-0.28-0.29-0.41-0.42
		c-0.14,0.14-0.3,0.29-0.42,0.41C31.27,32.53,31.42,32.68,31.53,32.8z"/>
</g>
</svg>
