<?xml version="1.0" encoding="utf-8"?>
<!-- Generator: Adobe Illustrator 27.2.0, SVG Export Plug-In . SVG Version: 6.00 Build 0)  -->
<svg version="1.1" id="Layer_1" xmlns="http://www.w3.org/2000/svg" xmlns:xlink="http://www.w3.org/1999/xlink" x="0px" y="0px"
	 viewBox="0 0 54.72 63.62" style="enable-background:new 0 0 54.72 63.62;" xml:space="preserve">
<style type="text/css">
	.st0{fill:#4F4C4D;}
	.st1{fill:url(#SVGID_1_);}
	.st2{fill:url(#SVGID_00000129896915686028745750000017021433415562925469_);}
	
		.st3{clip-path:url(#SVGID_00000116934281052335482840000004200007886711743661_);fill:url(#SVGID_00000116957296386329219090000002719696945541408420_);}
	
		.st4{clip-path:url(#SVGID_00000116934281052335482840000004200007886711743661_);fill:url(#SVGID_00000027589363385757037250000008698005751998976679_);}
	
		.st5{clip-path:url(#SVGID_00000116934281052335482840000004200007886711743661_);fill:url(#SVGID_00000142161294427450042140000001525258576941776828_);}
	
		.st6{clip-path:url(#SVGID_00000116934281052335482840000004200007886711743661_);fill:url(#SVGID_00000042700173231820137130000000434375974677977260_);}
	
		.st7{clip-path:url(#SVGID_00000116934281052335482840000004200007886711743661_);fill:url(#SVGID_00000170991389882292656870000008135906875400975754_);}
	
		.st8{clip-path:url(#SVGID_00000116934281052335482840000004200007886711743661_);fill:url(#SVGID_00000143618445440478908630000005232101473937356971_);}
	
		.st9{clip-path:url(#SVGID_00000116934281052335482840000004200007886711743661_);fill:url(#SVGID_00000075139232142629685390000017793334246440659329_);}
	
		.st10{clip-path:url(#SVGID_00000116934281052335482840000004200007886711743661_);fill:url(#SVGID_00000173150948913011161100000009864570203818795941_);}
	
		.st11{clip-path:url(#SVGID_00000116934281052335482840000004200007886711743661_);fill:url(#SVGID_00000096762711538224595370000009478362376995975599_);}
	
		.st12{clip-path:url(#SVGID_00000116934281052335482840000004200007886711743661_);fill:url(#SVGID_00000141452577348579203740000011258471567480135869_);}
	
		.st13{clip-path:url(#SVGID_00000116934281052335482840000004200007886711743661_);fill:url(#SVGID_00000049214821180889079110000000070098568974321798_);}
	
		.st14{clip-path:url(#SVGID_00000116934281052335482840000004200007886711743661_);fill:url(#SVGID_00000073681118453518584690000000675099776649623988_);}
	
		.st15{clip-path:url(#SVGID_00000116934281052335482840000004200007886711743661_);fill:url(#SVGID_00000016055875228480511520000006143287160700640445_);}
	
		.st16{clip-path:url(#SVGID_00000116934281052335482840000004200007886711743661_);fill:url(#SVGID_00000073001125096209613040000016096303366673949333_);}
	
		.st17{clip-path:url(#SVGID_00000116934281052335482840000004200007886711743661_);fill:url(#SVGID_00000181067202646633163480000015958626946212322436_);}
	
		.st18{clip-path:url(#SVGID_00000116934281052335482840000004200007886711743661_);fill:url(#SVGID_00000156587682611167146970000003621363168267220115_);}
	.st19{clip-path:url(#SVGID_00000116934281052335482840000004200007886711743661_);}
	.st20{fill:url(#SVGID_00000152948242173395565630000006089780874159059866_);}
	.st21{fill:url(#SVGID_00000161617455266095210880000003231994951681995931_);}
	.st22{fill:url(#SVGID_00000147180702603053879320000008113646638390845359_);}
	.st23{fill:url(#SVGID_00000067236282442199082770000016720707074427426946_);}
	
		.st24{clip-path:url(#SVGID_00000116934281052335482840000004200007886711743661_);fill:url(#SVGID_00000075881117828641085150000001680110021490417823_);}
	
		.st25{clip-path:url(#SVGID_00000116934281052335482840000004200007886711743661_);fill:url(#SVGID_00000137103733712540045640000015327674707363876524_);}
	
		.st26{clip-path:url(#SVGID_00000116934281052335482840000004200007886711743661_);fill:url(#SVGID_00000107548524416391799200000003739807092177344912_);}
	
		.st27{clip-path:url(#SVGID_00000116934281052335482840000004200007886711743661_);fill:url(#SVGID_00000173163105665018814380000010865645899724691890_);}
	
		.st28{clip-path:url(#SVGID_00000116934281052335482840000004200007886711743661_);fill:url(#SVGID_00000001647405961708977150000000043541730777830322_);}
	
		.st29{clip-path:url(#SVGID_00000116934281052335482840000004200007886711743661_);fill:url(#SVGID_00000083767062419898579250000013725365377788868234_);}
	
		.st30{clip-path:url(#SVGID_00000116934281052335482840000004200007886711743661_);fill:url(#SVGID_00000147219019025099218660000013018562933609284267_);}
	
		.st31{clip-path:url(#SVGID_00000116934281052335482840000004200007886711743661_);fill:url(#SVGID_00000150784175550082300640000008956867417119813521_);}
	
		.st32{clip-path:url(#SVGID_00000116934281052335482840000004200007886711743661_);fill:url(#SVGID_00000120531821696419446490000004715490934554568377_);}
	
		.st33{clip-path:url(#SVGID_00000116934281052335482840000004200007886711743661_);fill:url(#SVGID_00000042002504991192643480000014290835695629067190_);}
	
		.st34{clip-path:url(#SVGID_00000116934281052335482840000004200007886711743661_);fill:url(#SVGID_00000002377929457909471010000016639746387532911001_);}
	
		.st35{clip-path:url(#SVGID_00000116934281052335482840000004200007886711743661_);fill:url(#SVGID_00000150784767095993203740000008041081589340633744_);}
	
		.st36{clip-path:url(#SVGID_00000116934281052335482840000004200007886711743661_);fill:url(#SVGID_00000076584790746007926630000017674791140119306909_);}
	
		.st37{clip-path:url(#SVGID_00000116934281052335482840000004200007886711743661_);fill:url(#SVGID_00000090286411484902102830000000431398697624932276_);}
	
		.st38{clip-path:url(#SVGID_00000116934281052335482840000004200007886711743661_);fill:url(#SVGID_00000129916509327475220490000005759346799509477297_);}
	
		.st39{clip-path:url(#SVGID_00000116934281052335482840000004200007886711743661_);fill:url(#SVGID_00000092416086482637871810000007718460120411218567_);}
	.st40{fill:url(#SVGID_00000168812581380431593310000008153701933280183209_);}
	.st41{fill:url(#SVGID_00000182499718374905307970000007537634943423729833_);}
	.st42{fill:url(#SVGID_00000059288274929947295530000016899970686539379346_);}
	.st43{fill:url(#SVGID_00000165206175542060231540000014389785132142443172_);}
	
		.st44{clip-path:url(#SVGID_00000116934281052335482840000004200007886711743661_);fill:url(#SVGID_00000134218495306134935080000001066464518964569533_);}
	
		.st45{clip-path:url(#SVGID_00000116934281052335482840000004200007886711743661_);fill:url(#SVGID_00000101098128430100125300000014963276308331448250_);}
	
		.st46{clip-path:url(#SVGID_00000116934281052335482840000004200007886711743661_);fill:url(#SVGID_00000152225743750973827480000012882921413377726377_);}
	
		.st47{clip-path:url(#SVGID_00000116934281052335482840000004200007886711743661_);fill:url(#SVGID_00000108270212290483167500000005550855077829012870_);}
	
		.st48{clip-path:url(#SVGID_00000116934281052335482840000004200007886711743661_);fill:url(#SVGID_00000046302727636863248370000011950477980204872069_);}
	
		.st49{clip-path:url(#SVGID_00000116934281052335482840000004200007886711743661_);fill:url(#SVGID_00000134940483278363211280000011616469283583983764_);}
	
		.st50{clip-path:url(#SVGID_00000116934281052335482840000004200007886711743661_);fill:url(#SVGID_00000026121443008137503240000003735642758348830143_);}
	
		.st51{clip-path:url(#SVGID_00000116934281052335482840000004200007886711743661_);fill:url(#SVGID_00000150786377434547576650000010482348062449037969_);}
	
		.st52{clip-path:url(#SVGID_00000116934281052335482840000004200007886711743661_);fill:url(#SVGID_00000158730269954641014610000009923268730109660350_);}
	
		.st53{clip-path:url(#SVGID_00000116934281052335482840000004200007886711743661_);fill:url(#SVGID_00000161612425970571484760000006483017657160612514_);}
	
		.st54{clip-path:url(#SVGID_00000116934281052335482840000004200007886711743661_);fill:url(#SVGID_00000166638077922237010320000011231361796757613955_);}
	
		.st55{clip-path:url(#SVGID_00000116934281052335482840000004200007886711743661_);fill:url(#SVGID_00000024698615898295111940000002595949665970416033_);}
	
		.st56{clip-path:url(#SVGID_00000116934281052335482840000004200007886711743661_);fill:url(#SVGID_00000056407886480685740060000016316738652192436142_);}
	
		.st57{clip-path:url(#SVGID_00000116934281052335482840000004200007886711743661_);fill:url(#SVGID_00000080165932812858373380000000862524071106412208_);}
	
		.st58{clip-path:url(#SVGID_00000116934281052335482840000004200007886711743661_);fill:url(#SVGID_00000166665772432223426990000008939606290220351883_);}
	
		.st59{clip-path:url(#SVGID_00000116934281052335482840000004200007886711743661_);fill:url(#SVGID_00000172409695708615351880000006688235062448579204_);}
	.st60{fill:url(#SVGID_00000078764332512374905670000006021008379254291105_);}
	.st61{fill:url(#SVGID_00000145770878435795611850000012735168145691382698_);}
	.st62{fill:url(#SVGID_00000056428631673530377980000014891061435441104038_);}
	.st63{fill:url(#SVGID_00000009580450710003824250000007338151697431324330_);}
	
		.st64{clip-path:url(#SVGID_00000116934281052335482840000004200007886711743661_);fill:url(#SVGID_00000040572915339746555120000011649312180991635901_);}
	
		.st65{clip-path:url(#SVGID_00000116934281052335482840000004200007886711743661_);fill:url(#SVGID_00000066500774317591591740000006564283011866494642_);}
	
		.st66{clip-path:url(#SVGID_00000116934281052335482840000004200007886711743661_);fill:url(#SVGID_00000122706246129329921880000010888736527531244935_);}
	
		.st67{clip-path:url(#SVGID_00000116934281052335482840000004200007886711743661_);fill:url(#SVGID_00000005235482277050173430000001755070501917834907_);}
	
		.st68{clip-path:url(#SVGID_00000116934281052335482840000004200007886711743661_);fill:url(#SVGID_00000065057659866125054580000009427303476385046204_);}
	
		.st69{clip-path:url(#SVGID_00000116934281052335482840000004200007886711743661_);fill:url(#SVGID_00000178198900486759389240000011154833224703754885_);}
	
		.st70{clip-path:url(#SVGID_00000116934281052335482840000004200007886711743661_);fill:url(#SVGID_00000007428678742243086140000001608128751035913918_);}
	
		.st71{clip-path:url(#SVGID_00000116934281052335482840000004200007886711743661_);fill:url(#SVGID_00000150084413965788265760000009028603465247708828_);}
	
		.st72{clip-path:url(#SVGID_00000116934281052335482840000004200007886711743661_);fill:url(#SVGID_00000079462723375375609670000009883818697464736424_);}
	
		.st73{clip-path:url(#SVGID_00000116934281052335482840000004200007886711743661_);fill:url(#SVGID_00000084499408213414463320000013856949577854478255_);}
	
		.st74{clip-path:url(#SVGID_00000116934281052335482840000004200007886711743661_);fill:url(#SVGID_00000181070533837989290490000015408222888070951567_);}
	
		.st75{clip-path:url(#SVGID_00000116934281052335482840000004200007886711743661_);fill:url(#SVGID_00000092455517716539500940000006396246148071346575_);}
	
		.st76{clip-path:url(#SVGID_00000116934281052335482840000004200007886711743661_);fill:url(#SVGID_00000026153268749524817670000013828753065587272087_);}
	
		.st77{clip-path:url(#SVGID_00000116934281052335482840000004200007886711743661_);fill:url(#SVGID_00000015339547859914889510000000756267598144541825_);}
	
		.st78{clip-path:url(#SVGID_00000116934281052335482840000004200007886711743661_);fill:url(#SVGID_00000124157277149530614260000015184978584500753288_);}
	
		.st79{clip-path:url(#SVGID_00000116934281052335482840000004200007886711743661_);fill:url(#SVGID_00000173845948643557818010000007148428564430449571_);}
	.st80{fill:url(#SVGID_00000103244627651776103300000011771380850496485526_);}
	.st81{fill:url(#SVGID_00000073689606795536068570000017071076562362781314_);}
	.st82{fill:url(#SVGID_00000067927788707415781230000006155814945393400760_);}
	.st83{fill:url(#SVGID_00000042002437525560523490000003492523795428473020_);}
	.st84{fill:url(#SVGID_00000159455185121049762800000008390163376739489198_);}
	.st85{fill:url(#SVGID_00000005226599422682556440000017115328254037200552_);}
	.st86{fill:url(#SVGID_00000172434831775523942570000002332791334120433329_);}
	.st87{fill:url(#SVGID_00000042002823404453891130000005241611303110442895_);}
	.st88{fill:url(#SVGID_00000075881927259388482570000013559941756341800878_);}
	.st89{fill:url(#SVGID_00000158013111561071479730000018346922752935614105_);}
	.st90{clip-path:url(#SVGID_00000063604077314480223130000009054584075851477381_);}
	.st91{fill:url(#SVGID_00000108991117943506084690000014002246214762088589_);}
	.st92{fill:url(#SVGID_00000183931196792513128140000001952819201276858555_);}
	.st93{fill:url(#SVGID_00000099620565163187194950000007281593882117412497_);}
	.st94{fill:url(#SVGID_00000117647250930499150560000007346124109648662173_);}
	.st95{fill:url(#SVGID_00000060724556559868980720000017115757554387185336_);}
	.st96{fill:url(#SVGID_00000042736604864726160250000003696151261247149502_);}
	.st97{fill:url(#SVGID_00000137132436496007425440000017537520306569238971_);}
	.st98{fill:none;stroke:#666364;stroke-miterlimit:10;}
	.st99{fill:#666364;}
	.st100{fill:#FFFFFF;}
	.st101{fill:#C1C0C1;}
	.st102{fill:none;stroke:#4F4C4D;stroke-width:0.0179;stroke-miterlimit:10;}
	.st103{fill:#D5D4D5;}
	.st104{clip-path:url(#SVGID_00000140731653694444945400000005251585037419803838_);}
	.st105{fill:none;stroke:#4F4C4D;stroke-width:0.8884;stroke-linecap:round;stroke-linejoin:round;stroke-miterlimit:10;}
	.st106{fill:none;stroke:#4F4C4D;stroke-width:0.8448;stroke-linecap:round;stroke-linejoin:round;stroke-miterlimit:10;}
	.st107{fill:none;stroke:#4F4C4D;stroke-width:0.9746;stroke-linecap:round;stroke-linejoin:round;stroke-miterlimit:10;}
	.st108{fill:none;stroke:#4F4C4D;stroke-width:0.8608;stroke-linecap:round;stroke-linejoin:round;stroke-miterlimit:10;}
	
		.st109{fill:none;stroke:#4F4C4D;stroke-width:0.8608;stroke-linecap:round;stroke-linejoin:round;stroke-miterlimit:10;stroke-dasharray:1.0632;}
	.st110{fill:none;stroke:#4F4C4D;stroke-width:0.9757;stroke-linecap:round;stroke-linejoin:round;stroke-miterlimit:10;}
	.st111{fill:none;stroke:#4F4C4D;stroke-width:1.1046;stroke-linecap:round;stroke-linejoin:round;stroke-miterlimit:10;}
	.st112{fill:none;stroke:#4F4C4D;stroke-width:1.0333;stroke-linecap:round;stroke-linejoin:round;stroke-miterlimit:10;}
	
		.st113{fill:none;stroke:#4F4C4D;stroke-width:1.0333;stroke-linecap:round;stroke-linejoin:round;stroke-miterlimit:10;stroke-dasharray:1.2;}
	.st114{fill:none;stroke:#4F4C4D;stroke-linecap:round;stroke-linejoin:round;stroke-miterlimit:10;}
	.st115{fill:none;stroke:#4F4C4D;stroke-linecap:round;stroke-linejoin:round;stroke-miterlimit:10;stroke-dasharray:1.0878;}
</style>
<g>
	<g>
		<path class="st0" d="M27.36,60.49L2.69,46.25V17.76L27.36,3.52l24.67,14.24v28.48L27.36,60.49z M4.53,45.18l22.83,13.18
			l22.83-13.18V18.83L27.36,5.65L4.53,18.83V45.18z"/>
	</g>
</g>
<g id="dpCzhB_1_">
	<g>
		<path class="st0" d="M12.37,34.12c0.09-0.2,0.16-0.42,0.28-0.6c0.33-0.48,0.81-0.68,1.39-0.68c1.23,0,2.45,0,3.68,0
			c0.11,0,0.22,0,0.35,0c0-0.35,0-0.67,0-1.01c2.26,0,4.49,0,6.76,0c0,0.33,0,0.65,0,1c5.37,0,10.71,0,16.07,0
			c0.01-0.12,0.01-0.22,0.01-0.33c0-4.92,0-9.83,0-14.75c0-0.07,0.02-0.15-0.01-0.21c-0.03-0.09-0.07-0.19-0.14-0.23
			c-0.05-0.03-0.18,0.01-0.24,0.07c-0.44,0.43-0.88,0.87-1.32,1.31c0.42,0.59,0.63,1.22,0.6,1.92c-0.03,0.76-0.31,1.42-0.83,1.97
			c-0.25,0.26-0.54,0.24-0.82-0.04c-0.58-0.58-1.16-1.16-1.74-1.74s-1.16-1.16-1.74-1.74c-0.37-0.38-0.36-0.64,0.05-0.99
			c1.02-0.87,2.4-0.97,3.53-0.26c0.07,0.04,0.14,0.08,0.24,0.14c0.42-0.42,0.84-0.85,1.26-1.26c0.52-0.51,1.12-0.58,1.68-0.21
			c0.29,0.2,0.47,0.48,0.51,0.83c0.02,0.17,0.02,0.34,0.02,0.52c0,4.87,0,9.73,0,14.6c0,0.13,0,0.26,0,0.4
			c0.13,0.03,0.23,0.05,0.34,0.07c0.66,0.15,1.14,0.68,1.21,1.36c0.07,0.64-0.29,1.29-0.89,1.55c-0.19,0.08-0.27,0.19-0.32,0.38
			c-0.56,2.05-1.14,4.09-1.7,6.14c-0.38,1.38-1.22,2.33-2.59,2.79c-0.08,0.03-0.19,0.13-0.19,0.21c-0.02,0.32-0.01,0.65-0.01,1.01
			c0.13,0,0.23,0,0.34,0c1.56,0,3.12-0.01,4.68,0.01c0.19,0,0.43,0.08,0.56,0.21c0.25,0.24,0.14,0.54-0.24,0.82
			c-10.26,0-20.52,0-30.78,0c0-0.22,0-0.45,0-0.67c0.16-0.29,0.41-0.37,0.73-0.37c1.55,0.01,3.1,0,4.65,0c0.11,0,0.21,0,0.34,0
			c0-0.36,0.01-0.67-0.01-0.99c-0.01-0.09-0.11-0.21-0.19-0.24c-1.37-0.47-2.21-1.43-2.59-2.82c-0.56-2.06-1.14-4.11-1.71-6.16
			c-0.03-0.1-0.08-0.23-0.16-0.26c-0.57-0.22-0.89-0.65-1.05-1.21C12.37,34.48,12.37,34.3,12.37,34.12z M18.08,35.98
			c-1.16,0-2.3,0-3.44,0c0.01,0.05,0,0.08,0.01,0.11c0.56,2.04,1.12,4.08,1.7,6.11c0.37,1.31,1.4,2.07,2.78,2.07
			c5.88,0,11.76,0,17.64,0c1.41,0,2.43-0.79,2.81-2.15c0.37-1.32,0.73-2.63,1.1-3.95c0.2-0.73,0.41-1.46,0.61-2.2
			c-5.49,0-10.95,0-16.44,0c0,1.9,0,3.78,0,5.67c-2.26,0-4.5,0-6.76,0C18.08,39.75,18.08,37.87,18.08,35.98z M23.78,32.87
			c-1.57,0-3.11,0-4.64,0c0,1.9,0,3.78,0,5.68c1.55,0,3.09,0,4.64,0C23.78,36.64,23.78,34.76,23.78,32.87z M24.85,34.92
			c0.11,0,0.19,0,0.27,0c5.56,0,11.11,0,16.67,0c0.08,0,0.16,0,0.24-0.01c0.27-0.04,0.42-0.21,0.44-0.47
			c0.02-0.26-0.11-0.45-0.37-0.52c-0.12-0.03-0.26-0.04-0.39-0.04c-5.51,0-11.01,0-16.52,0c-0.11,0-0.22,0-0.34,0
			C24.85,34.23,24.85,34.55,24.85,34.92z M21.01,46.32c4.64,0,9.24,0,13.86,0c-0.13-0.27-0.27-0.49-0.36-0.74
			c-0.09-0.23-0.23-0.28-0.46-0.28c-4.07,0.01-8.15,0.01-12.22,0.01c-0.05,0-0.11-0.02-0.15,0c-0.08,0.04-0.19,0.07-0.23,0.14
			C21.3,45.72,21.17,46.01,21.01,46.32z M23.77,40.62c0-0.34,0-0.68,0-1.01c-1.56,0-3.09,0-4.63,0c0,0.35,0,0.67,0,1.01
			C20.69,40.62,22.22,40.62,23.77,40.62z M18.07,33.88c-0.63,0-1.24,0-1.84,0c-0.74,0-1.48,0-2.22,0c-0.24,0-0.47,0.07-0.54,0.31
			c-0.04,0.15-0.03,0.39,0.06,0.5c0.12,0.13,0.34,0.21,0.52,0.22c1.25,0.02,2.51,0.01,3.76,0.01c0.08,0,0.16-0.01,0.25-0.02
			C18.07,34.56,18.07,34.24,18.07,33.88z M35.82,18.58c0.93,0.92,1.85,1.85,2.77,2.76c0.42-0.78,0.24-1.69-0.52-2.39
			C37.39,18.31,36.47,18.18,35.82,18.58z M19.14,45.32c0,0.36,0,0.69,0,1.03c0.17,0,0.33,0.01,0.47,0c0.09-0.01,0.22-0.03,0.25-0.09
			c0.17-0.29,0.31-0.6,0.47-0.93C19.92,45.32,19.54,45.32,19.14,45.32z M36.75,45.33c-0.4,0-0.79,0-1.2,0
			c0.09,0.18,0.19,0.33,0.23,0.49c0.13,0.48,0.44,0.62,0.9,0.52c0.02,0,0.03-0.02,0.07-0.03C36.75,45.99,36.75,45.68,36.75,45.33z"
			/>
		<path class="st0" d="M35.83,21.93c-0.23,0.34-0.39,0.65-0.62,0.9c-0.14,0.15-0.41,0.14-0.54-0.03c-0.11-0.14-0.22-0.37-0.18-0.52
			c0.06-0.24,0.2-0.5,0.38-0.67c0.11-0.11,0.38-0.16,0.54-0.11C35.55,21.54,35.66,21.75,35.83,21.93z"/>
		<path class="st0" d="M30.29,24.23c-0.1-0.08-0.3-0.15-0.37-0.29c-0.07-0.14-0.08-0.38,0-0.5c0.13-0.21,0.33-0.39,0.52-0.54
			c0.21-0.16,0.45-0.11,0.63,0.07c0.17,0.18,0.22,0.41,0.07,0.61C30.95,23.85,30.74,24.14,30.29,24.23z"/>
		<path class="st0" d="M34.12,23.24c0.44,0.01,0.68,0.36,0.55,0.69c-0.08,0.21-0.19,0.4-0.32,0.58c-0.15,0.22-0.43,0.28-0.65,0.14
			c-0.23-0.14-0.34-0.36-0.23-0.62c0.09-0.2,0.19-0.41,0.32-0.58C33.89,23.34,34.06,23.28,34.12,23.24z"/>
		<path class="st0" d="M32.8,27.37c-0.22,0.34-0.37,0.65-0.6,0.89c-0.09,0.09-0.39,0.06-0.55-0.01c-0.21-0.09-0.3-0.32-0.2-0.54
			c0.1-0.23,0.22-0.45,0.37-0.66c0.13-0.18,0.35-0.24,0.54-0.13C32.52,27.02,32.63,27.19,32.8,27.37z"/>
		<path class="st0" d="M32.69,21.85c0.01,0.33-0.55,0.9-0.88,0.89c-0.37,0-0.64-0.43-0.44-0.74c0.15-0.23,0.36-0.44,0.59-0.59
			C32.28,21.2,32.69,21.47,32.69,21.85z"/>
		<path class="st0" d="M28.3,26.27c-0.01,0.31-0.56,0.86-0.88,0.87c-0.39,0-0.66-0.42-0.45-0.74c0.15-0.22,0.35-0.43,0.57-0.57
			C27.87,25.6,28.31,25.89,28.3,26.27z"/>
		<path class="st0" d="M29.77,24.69c0,0.41-0.55,0.99-0.87,0.96c-0.16-0.02-0.36-0.12-0.44-0.25c-0.07-0.13-0.08-0.37,0-0.5
			c0.13-0.21,0.32-0.4,0.53-0.53c0.13-0.08,0.36-0.08,0.5-0.01C29.63,24.43,29.71,24.62,29.77,24.69z"/>
		<path class="st0" d="M33.81,25.57c-0.22,0.33-0.39,0.64-0.62,0.89c-0.08,0.09-0.37,0.08-0.49,0c-0.13-0.09-0.27-0.34-0.24-0.46
			c0.09-0.29,0.25-0.57,0.44-0.81c0.08-0.1,0.35-0.11,0.49-0.05C33.55,25.19,33.64,25.38,33.81,25.57z"/>
		<path class="st0" d="M31.12,28.7c0.38-0.01,0.65,0.29,0.55,0.6c-0.08,0.25-0.21,0.51-0.39,0.71c-0.1,0.11-0.37,0.17-0.51,0.12
			c-0.14-0.05-0.28-0.25-0.33-0.42c-0.07-0.25,0.27-0.83,0.5-0.95C31.01,28.72,31.09,28.71,31.12,28.7z"/>
		<path class="st0" d="M36.25,26.88c0-0.52,0.17-0.78,0.51-0.78c0.35,0,0.53,0.26,0.53,0.77c0,0.52-0.17,0.77-0.52,0.78
			C36.43,27.65,36.25,27.4,36.25,26.88z"/>
		<path class="st0" d="M36.25,28.96c0-0.52,0.16-0.78,0.51-0.78c0.36-0.01,0.53,0.26,0.53,0.8c0,0.04,0,0.08,0,0.12
			c-0.02,0.39-0.2,0.62-0.51,0.63c-0.32,0.01-0.51-0.23-0.53-0.64C36.25,29.04,36.25,29,36.25,28.96z"/>
		<path class="st0" d="M26.83,27.72c0.01,0.33-0.56,0.88-0.89,0.88c-0.39,0-0.65-0.43-0.43-0.75c0.15-0.21,0.34-0.41,0.55-0.55
			C26.38,27.08,26.82,27.34,26.83,27.72z"/>
		<path class="st0" d="M36.25,31.04c0-0.53,0.16-0.77,0.51-0.77c0.36,0,0.53,0.25,0.53,0.79c0,0.03,0,0.06,0,0.09
			c-0.01,0.42-0.2,0.65-0.52,0.66c-0.32,0.01-0.51-0.23-0.52-0.65C36.25,31.12,36.25,31.08,36.25,31.04z"/>
		<path class="st0" d="M23.88,30.56c0,0.44-0.56,1.03-0.88,0.98c-0.16-0.02-0.36-0.14-0.43-0.28c-0.07-0.13-0.05-0.37,0.02-0.5
			c0.12-0.2,0.31-0.39,0.51-0.51c0.13-0.08,0.36-0.08,0.5-0.02C23.75,30.3,23.83,30.49,23.88,30.56z"/>
		<path class="st0" d="M36.25,22.71c0-0.52,0.17-0.77,0.53-0.76c0.35,0.01,0.52,0.26,0.51,0.78c0,0.05,0,0.1,0,0.15
			c-0.02,0.39-0.21,0.61-0.53,0.61c-0.32,0-0.5-0.22-0.51-0.62C36.25,22.81,36.25,22.76,36.25,22.71z"/>
		<path class="st0" d="M33.27,21.27c-0.37-0.01-0.63-0.44-0.42-0.75c0.15-0.23,0.37-0.44,0.6-0.59c0.29-0.19,0.68,0.05,0.71,0.4
			C34.19,20.68,33.62,21.28,33.27,21.27z"/>
		<path class="st0" d="M37.29,24.82c0,0.08,0.01,0.16,0,0.24c-0.04,0.32-0.25,0.52-0.53,0.51c-0.28-0.01-0.47-0.2-0.49-0.51
			c-0.01-0.17-0.01-0.34,0-0.51c0.03-0.31,0.23-0.51,0.5-0.51c0.27-0.01,0.48,0.19,0.52,0.49c0.01,0.1,0.01,0.2,0.02,0.3
			C37.29,24.82,37.29,24.82,37.29,24.82z"/>
		<path class="st0" d="M24.37,30.07c-0.07-0.06-0.26-0.14-0.33-0.28c-0.06-0.14-0.05-0.37,0.03-0.5c0.12-0.2,0.31-0.39,0.51-0.51
			c0.13-0.08,0.37-0.09,0.5-0.02c0.13,0.07,0.25,0.27,0.27,0.43C25.39,29.52,24.8,30.08,24.37,30.07z"/>
		<path class="st0" d="M30.68,31.04c-0.02,0.39-0.38,0.78-0.69,0.76c-0.27-0.02-0.48-0.25-0.47-0.53c0.01-0.39,0.36-0.77,0.69-0.76
			C30.48,30.53,30.69,30.76,30.68,31.04z"/>
	</g>
</g>
</svg>
