<?xml version="1.0" encoding="utf-8"?>
<!-- Generator: Adobe Illustrator 27.2.0, SVG Export Plug-In . SVG Version: 6.00 Build 0)  -->
<svg version="1.1" id="Layer_1" xmlns="http://www.w3.org/2000/svg" xmlns:xlink="http://www.w3.org/1999/xlink" x="0px" y="0px"
	 viewBox="0 0 54.72 63.62" style="enable-background:new 0 0 54.72 63.62;" xml:space="preserve">
<style type="text/css">
	.st0{fill:#4F4C4D;}
	.st1{fill:url(#SVGID_1_);}
	.st2{fill:url(#SVGID_00000126284796179804298750000007219763258045569180_);}
	
		.st3{clip-path:url(#SVGID_00000093168786688345888170000015402450656395867575_);fill:url(#SVGID_00000121238329815074042630000000210142727128063637_);}
	
		.st4{clip-path:url(#SVGID_00000093168786688345888170000015402450656395867575_);fill:url(#SVGID_00000021102427208248668030000004841758121650045364_);}
	
		.st5{clip-path:url(#SVGID_00000093168786688345888170000015402450656395867575_);fill:url(#SVGID_00000171698836699344906880000008965110420912200381_);}
	
		.st6{clip-path:url(#SVGID_00000093168786688345888170000015402450656395867575_);fill:url(#SVGID_00000082366326848232334550000000028640335025345427_);}
	
		.st7{clip-path:url(#SVGID_00000093168786688345888170000015402450656395867575_);fill:url(#SVGID_00000119798128945816091750000016410097019726728099_);}
	
		.st8{clip-path:url(#SVGID_00000093168786688345888170000015402450656395867575_);fill:url(#SVGID_00000044135958887235618290000001815041434949816983_);}
	
		.st9{clip-path:url(#SVGID_00000093168786688345888170000015402450656395867575_);fill:url(#SVGID_00000136376729778834939610000007468742449410199198_);}
	
		.st10{clip-path:url(#SVGID_00000093168786688345888170000015402450656395867575_);fill:url(#SVGID_00000011013046298855581120000014804762573520189583_);}
	
		.st11{clip-path:url(#SVGID_00000093168786688345888170000015402450656395867575_);fill:url(#SVGID_00000137133395223280757840000001797291282389620098_);}
	
		.st12{clip-path:url(#SVGID_00000093168786688345888170000015402450656395867575_);fill:url(#SVGID_00000172413034087873854780000005986442601910773170_);}
	
		.st13{clip-path:url(#SVGID_00000093168786688345888170000015402450656395867575_);fill:url(#SVGID_00000114759880425704341860000013501013521689373626_);}
	
		.st14{clip-path:url(#SVGID_00000093168786688345888170000015402450656395867575_);fill:url(#SVGID_00000096040444449595807370000017490963198282221749_);}
	
		.st15{clip-path:url(#SVGID_00000093168786688345888170000015402450656395867575_);fill:url(#SVGID_00000059302624210209893070000006485580615879174548_);}
	
		.st16{clip-path:url(#SVGID_00000093168786688345888170000015402450656395867575_);fill:url(#SVGID_00000154426727102469177720000002248661856087389569_);}
	
		.st17{clip-path:url(#SVGID_00000093168786688345888170000015402450656395867575_);fill:url(#SVGID_00000013177222075286152910000015396112555960756881_);}
	
		.st18{clip-path:url(#SVGID_00000093168786688345888170000015402450656395867575_);fill:url(#SVGID_00000090973685628420118400000002143705951132015509_);}
	.st19{clip-path:url(#SVGID_00000093168786688345888170000015402450656395867575_);}
	.st20{fill:url(#SVGID_00000020400642538077375090000002184568299113166989_);}
	.st21{fill:url(#SVGID_00000058588100874648614010000005135268147901266107_);}
	.st22{fill:url(#SVGID_00000116951896457117020670000011811137075840901287_);}
	.st23{fill:url(#SVGID_00000144335889943948527120000006437209346526449807_);}
	
		.st24{clip-path:url(#SVGID_00000093168786688345888170000015402450656395867575_);fill:url(#SVGID_00000081611727424045782500000016906105298095979953_);}
	
		.st25{clip-path:url(#SVGID_00000093168786688345888170000015402450656395867575_);fill:url(#SVGID_00000016069941998955049830000017811776412468325766_);}
	
		.st26{clip-path:url(#SVGID_00000093168786688345888170000015402450656395867575_);fill:url(#SVGID_00000165938021593303042700000016841496066574945975_);}
	
		.st27{clip-path:url(#SVGID_00000093168786688345888170000015402450656395867575_);fill:url(#SVGID_00000144339921692285783600000009932142100180759174_);}
	
		.st28{clip-path:url(#SVGID_00000093168786688345888170000015402450656395867575_);fill:url(#SVGID_00000047041515481566871510000015109845057089883562_);}
	
		.st29{clip-path:url(#SVGID_00000093168786688345888170000015402450656395867575_);fill:url(#SVGID_00000018204224732643069980000011817306601442797231_);}
	
		.st30{clip-path:url(#SVGID_00000093168786688345888170000015402450656395867575_);fill:url(#SVGID_00000178165686084893061630000012425227639037846926_);}
	
		.st31{clip-path:url(#SVGID_00000093168786688345888170000015402450656395867575_);fill:url(#SVGID_00000160178832475519488150000001482177329807941793_);}
	
		.st32{clip-path:url(#SVGID_00000093168786688345888170000015402450656395867575_);fill:url(#SVGID_00000083079791528022643950000006978152385983265172_);}
	
		.st33{clip-path:url(#SVGID_00000093168786688345888170000015402450656395867575_);fill:url(#SVGID_00000147214797192645313300000011171825610855822519_);}
	
		.st34{clip-path:url(#SVGID_00000093168786688345888170000015402450656395867575_);fill:url(#SVGID_00000062892261509140382480000010883827872857321118_);}
	
		.st35{clip-path:url(#SVGID_00000093168786688345888170000015402450656395867575_);fill:url(#SVGID_00000013159058173952797460000012610570804531345304_);}
	
		.st36{clip-path:url(#SVGID_00000093168786688345888170000015402450656395867575_);fill:url(#SVGID_00000160180353931219954620000009218572925558249647_);}
	
		.st37{clip-path:url(#SVGID_00000093168786688345888170000015402450656395867575_);fill:url(#SVGID_00000089559173206488880040000017886982843640098439_);}
	
		.st38{clip-path:url(#SVGID_00000093168786688345888170000015402450656395867575_);fill:url(#SVGID_00000136405766932884952400000006692965529232084893_);}
	
		.st39{clip-path:url(#SVGID_00000093168786688345888170000015402450656395867575_);fill:url(#SVGID_00000051359991958826274320000000876351003268831374_);}
	.st40{fill:url(#SVGID_00000163790952214899583990000015617245197244182407_);}
	.st41{fill:url(#SVGID_00000124883612295349547580000006673468939662653079_);}
	.st42{fill:url(#SVGID_00000011009434168244898690000006191097708138723971_);}
	.st43{fill:url(#SVGID_00000163780536541408636060000002685045175568815038_);}
	
		.st44{clip-path:url(#SVGID_00000093168786688345888170000015402450656395867575_);fill:url(#SVGID_00000084513332248092619370000009486963860413620103_);}
	
		.st45{clip-path:url(#SVGID_00000093168786688345888170000015402450656395867575_);fill:url(#SVGID_00000176034797086992772880000007820926574041323171_);}
	
		.st46{clip-path:url(#SVGID_00000093168786688345888170000015402450656395867575_);fill:url(#SVGID_00000130632990415781458970000017847774948769676169_);}
	
		.st47{clip-path:url(#SVGID_00000093168786688345888170000015402450656395867575_);fill:url(#SVGID_00000063621369167635822090000015721183022412053923_);}
	
		.st48{clip-path:url(#SVGID_00000093168786688345888170000015402450656395867575_);fill:url(#SVGID_00000088129699751099494130000002657018181432961199_);}
	
		.st49{clip-path:url(#SVGID_00000093168786688345888170000015402450656395867575_);fill:url(#SVGID_00000092444242385978562240000010808762815251966363_);}
	
		.st50{clip-path:url(#SVGID_00000093168786688345888170000015402450656395867575_);fill:url(#SVGID_00000103944359939325341730000018253630167528781455_);}
	
		.st51{clip-path:url(#SVGID_00000093168786688345888170000015402450656395867575_);fill:url(#SVGID_00000093175563061340374310000008384044116872434095_);}
	
		.st52{clip-path:url(#SVGID_00000093168786688345888170000015402450656395867575_);fill:url(#SVGID_00000007424216706009638390000016659439221531767180_);}
	
		.st53{clip-path:url(#SVGID_00000093168786688345888170000015402450656395867575_);fill:url(#SVGID_00000035506985159239807710000008867247032219327366_);}
	
		.st54{clip-path:url(#SVGID_00000093168786688345888170000015402450656395867575_);fill:url(#SVGID_00000121263146377289921360000006927071558221651072_);}
	
		.st55{clip-path:url(#SVGID_00000093168786688345888170000015402450656395867575_);fill:url(#SVGID_00000061441891283516978540000015214456854763904171_);}
	
		.st56{clip-path:url(#SVGID_00000093168786688345888170000015402450656395867575_);fill:url(#SVGID_00000067223866426047337390000016624121219179949971_);}
	
		.st57{clip-path:url(#SVGID_00000093168786688345888170000015402450656395867575_);fill:url(#SVGID_00000134213545204115487870000005276794310781750679_);}
	
		.st58{clip-path:url(#SVGID_00000093168786688345888170000015402450656395867575_);fill:url(#SVGID_00000154387678709489115370000006057037191997645705_);}
	
		.st59{clip-path:url(#SVGID_00000093168786688345888170000015402450656395867575_);fill:url(#SVGID_00000142857460171958774280000017934804485935095201_);}
	.st60{fill:url(#SVGID_00000182512279202385384580000014719059134149259434_);}
	.st61{fill:url(#SVGID_00000098212280812227424080000001493257605275726008_);}
	.st62{fill:url(#SVGID_00000123426511720126938270000005208033116337409687_);}
	.st63{fill:url(#SVGID_00000157289798293682506130000014061267824175135164_);}
	
		.st64{clip-path:url(#SVGID_00000093168786688345888170000015402450656395867575_);fill:url(#SVGID_00000131350429555868966030000006528220393344697019_);}
	
		.st65{clip-path:url(#SVGID_00000093168786688345888170000015402450656395867575_);fill:url(#SVGID_00000093171674030873844060000012748805620856441261_);}
	
		.st66{clip-path:url(#SVGID_00000093168786688345888170000015402450656395867575_);fill:url(#SVGID_00000076596343437240869760000015887462494684953528_);}
	
		.st67{clip-path:url(#SVGID_00000093168786688345888170000015402450656395867575_);fill:url(#SVGID_00000024724267778629291740000004897502776017223850_);}
	
		.st68{clip-path:url(#SVGID_00000093168786688345888170000015402450656395867575_);fill:url(#SVGID_00000029044646211543706070000005090315414796985003_);}
	
		.st69{clip-path:url(#SVGID_00000093168786688345888170000015402450656395867575_);fill:url(#SVGID_00000098912406842498249910000000118918546896557214_);}
	
		.st70{clip-path:url(#SVGID_00000093168786688345888170000015402450656395867575_);fill:url(#SVGID_00000110445212856906485050000003506953844650000780_);}
	
		.st71{clip-path:url(#SVGID_00000093168786688345888170000015402450656395867575_);fill:url(#SVGID_00000075136012086589948870000004268786807652995457_);}
	
		.st72{clip-path:url(#SVGID_00000093168786688345888170000015402450656395867575_);fill:url(#SVGID_00000038404294877344268720000009134798557359630730_);}
	
		.st73{clip-path:url(#SVGID_00000093168786688345888170000015402450656395867575_);fill:url(#SVGID_00000130625955086499811520000010841464285509121724_);}
	
		.st74{clip-path:url(#SVGID_00000093168786688345888170000015402450656395867575_);fill:url(#SVGID_00000085957086838253135030000012940393582269122462_);}
	
		.st75{clip-path:url(#SVGID_00000093168786688345888170000015402450656395867575_);fill:url(#SVGID_00000107570540692876871850000004023146269137801123_);}
	
		.st76{clip-path:url(#SVGID_00000093168786688345888170000015402450656395867575_);fill:url(#SVGID_00000029729470582076361310000008075937346215507080_);}
	
		.st77{clip-path:url(#SVGID_00000093168786688345888170000015402450656395867575_);fill:url(#SVGID_00000106857573157661238320000008678296644876319391_);}
	
		.st78{clip-path:url(#SVGID_00000093168786688345888170000015402450656395867575_);fill:url(#SVGID_00000034062367254512966720000018086645481567440028_);}
	
		.st79{clip-path:url(#SVGID_00000093168786688345888170000015402450656395867575_);fill:url(#SVGID_00000116224425197857111950000009301521520629411979_);}
	.st80{fill:url(#SVGID_00000008861011128190206690000013969839156069268665_);}
	.st81{fill:url(#SVGID_00000152944214406919203840000005467882821828866715_);}
	.st82{fill:url(#SVGID_00000030448996853198678670000001681609440030802823_);}
	.st83{fill:url(#SVGID_00000101808279331781300290000012205125503826087577_);}
	.st84{fill:url(#SVGID_00000077291320679013549420000006394585714407393710_);}
	.st85{fill:url(#SVGID_00000048475029663898747310000011181738282186447246_);}
	.st86{fill:url(#SVGID_00000118376400107315091410000004930892964956981680_);}
	.st87{fill:url(#SVGID_00000156572535857978455220000011512373416962352799_);}
	.st88{fill:url(#SVGID_00000119804371612038044820000015772156462170163854_);}
	.st89{fill:url(#SVGID_00000102507459644107425190000008249357898256869793_);}
	.st90{clip-path:url(#SVGID_00000155868539526960720030000011396646310443207615_);}
	.st91{fill:url(#SVGID_00000168825826569472576880000011024396669895111298_);}
	.st92{fill:url(#SVGID_00000029013977325916874460000014050565744485051809_);}
	.st93{fill:url(#SVGID_00000114785749826137977930000007518303453236938147_);}
	.st94{fill:url(#SVGID_00000116923766473395244830000012577115616845164728_);}
	.st95{fill:url(#SVGID_00000134928894685629121080000005649891331435717540_);}
	.st96{fill:url(#SVGID_00000013911731976879702750000015908999802346115229_);}
	.st97{fill:url(#SVGID_00000140720986442440569910000016622854622760012211_);}
	.st98{fill:none;stroke:#666364;stroke-miterlimit:10;}
	.st99{fill:#666364;}
	.st100{fill:#FFFFFF;}
	.st101{fill:#C1C0C1;}
	.st102{fill:none;stroke:#4F4C4D;stroke-width:0.0179;stroke-miterlimit:10;}
	.st103{fill:#D5D4D5;}
	.st104{clip-path:url(#SVGID_00000036950750453373814110000009960364951098869398_);}
	.st105{fill:none;stroke:#4F4C4D;stroke-width:0.8884;stroke-linecap:round;stroke-linejoin:round;stroke-miterlimit:10;}
	.st106{fill:none;stroke:#4F4C4D;stroke-width:0.8448;stroke-linecap:round;stroke-linejoin:round;stroke-miterlimit:10;}
	.st107{fill:none;stroke:#4F4C4D;stroke-width:0.9746;stroke-linecap:round;stroke-linejoin:round;stroke-miterlimit:10;}
	.st108{fill:none;stroke:#4F4C4D;stroke-width:0.8608;stroke-linecap:round;stroke-linejoin:round;stroke-miterlimit:10;}
	
		.st109{fill:none;stroke:#4F4C4D;stroke-width:0.8608;stroke-linecap:round;stroke-linejoin:round;stroke-miterlimit:10;stroke-dasharray:1.0632;}
	.st110{fill:none;stroke:#4F4C4D;stroke-width:0.9757;stroke-linecap:round;stroke-linejoin:round;stroke-miterlimit:10;}
	.st111{fill:none;stroke:#4F4C4D;stroke-width:1.1046;stroke-linecap:round;stroke-linejoin:round;stroke-miterlimit:10;}
	.st112{fill:none;stroke:#4F4C4D;stroke-width:1.0333;stroke-linecap:round;stroke-linejoin:round;stroke-miterlimit:10;}
	
		.st113{fill:none;stroke:#4F4C4D;stroke-width:1.0333;stroke-linecap:round;stroke-linejoin:round;stroke-miterlimit:10;stroke-dasharray:1.2;}
	.st114{fill:none;stroke:#4F4C4D;stroke-linecap:round;stroke-linejoin:round;stroke-miterlimit:10;}
	.st115{fill:none;stroke:#4F4C4D;stroke-linecap:round;stroke-linejoin:round;stroke-miterlimit:10;stroke-dasharray:1.0878;}
</style>
<g>
	<g>
		<path class="st0" d="M27.36,60.49L2.69,46.25V17.76L27.36,3.52l24.67,14.24v28.48L27.36,60.49z M4.53,45.18l22.83,13.18
			l22.83-13.18V18.83L27.36,5.65L4.53,18.83V45.18z"/>
	</g>
</g>
<g>
	<g>
		<g id="PqrONc_3_">
			<g>
				<g>
					<path class="st0" d="M35.71,45.3c0.35,1.75-0.46,2.71-2.07,2.72c-4.01,0.03-8.02,0.01-12.03,0.01c-0.22,0-0.44-0.01-0.65-0.01
						c-0.99,0-1.66-0.47-2-1.39c-1.51-4.13-2.96-8.27-3.66-12.63c-0.18-1.16,0.12-2.1,1.06-2.75c0.96-0.67,1.97-1.28,3-1.82
						c0.82-0.43,1.44-0.97,1.62-1.99c-0.15-0.11-0.32-0.22-0.48-0.34c-0.78-0.61-1.01-1.17-0.79-1.89c0.24-0.79,0.8-1.19,1.79-1.25
						c0.56-0.03,1.12-0.01,1.8-0.01c0.04-0.45,0.1-0.83,0.1-1.2c0.02-1.22-0.03-2.44,0.02-3.66c0.05-1.18,0.64-1.75,1.81-1.78
						c1.26-0.04,2.53-0.04,3.79,0c1.24,0.04,1.81,0.61,1.84,1.88c0.04,1.52,0.01,3.04,0.01,4.7c0.83,0.02,1.56-0.02,2.27,0.09
						c0.53,0.08,1.13,0.24,1.54,0.57c0.65,0.51,0.61,1.62,0.01,2.23c-0.27,0.27-0.6,0.47-0.91,0.71c0.21,1.01,0.85,1.56,1.73,1.99
						c0.93,0.46,1.81,1.02,2.69,1.59c1.1,0.72,1.51,1.78,1.26,3.06c-0.29,1.45-0.58,2.9-0.97,4.32c-0.48,1.76-1.07,3.49-1.63,5.23
						c-0.09,0.28-0.29,0.53-0.5,0.89c-0.56-0.6-0.26-1.02-0.14-1.46c0.69-2.38,1.39-4.75,2.06-7.14c0.2-0.71,0.29-1.45,0.4-2.18
						c0.12-0.75-0.1-1.4-0.73-1.84c-0.79-0.54-1.55-1.16-2.41-1.54c-1.38-0.6-2.37-1.45-2.66-3.03c-1.33,0-2.63,0-3.93,0
						c-0.28,0.86-0.35,4.72-0.12,6.22c1.26-0.1,2.52-0.32,3.76-0.25c1.01,0.06,2.06,0.35,2.99,0.76c1.21,0.53,1.56,1.3,1.19,2.56
						c-0.79,2.71-1.67,5.4-2.53,8.09c-0.26,0.81-0.84,1.18-1.68,1.18c-3.49,0-6.98,0-10.46,0c-0.79,0-1.34-0.37-1.58-1.12
						c-0.87-2.78-1.76-5.55-2.56-8.35c-0.32-1.11,0.18-1.88,1.35-2.32c1.52-0.56,3.09-0.4,4.64-0.14c0.64,0.11,1.26,0.28,2.1,0.47
						c0.03-2.39,0.01-4.67,0.01-6.81c-0.41-0.66-1.36,0.03-1.58-1.01c0.42-0.05,0.78-0.13,1.13-0.14c2.35-0.01,4.71,0,7.06-0.01
						c0.3,0,0.67,0.08,0.9-0.06c0.29-0.17,0.6-0.51,0.65-0.82c0.03-0.22-0.3-0.6-0.57-0.73c-0.29-0.15-0.68-0.13-1.02-0.13
						c-3.53-0.01-7.06-0.01-10.59,0c-0.3,0-0.61,0.03-0.91,0.09c-0.44,0.09-0.76,0.42-0.64,0.83c0.09,0.31,0.43,0.69,0.73,0.77
						c0.54,0.13,1.13,0.02,1.69,0.08c0.21,0.02,0.41,0.25,0.61,0.38c-0.03,0.09-0.06,0.19-0.09,0.28c-0.45,0.05-0.91,0.11-1.47,0.18
						c-0.08,0.18-0.2,0.4-0.27,0.64c-0.3,1.04-1.02,1.66-1.96,2.15c-0.96,0.5-1.89,1.07-2.79,1.67c-0.71,0.47-1.01,1.17-0.84,2.04
						c0.21,1.07,0.32,2.16,0.63,3.2c0.89,2.95,1.84,5.89,2.81,8.82c0.4,1.21,0.64,1.34,1.92,1.34c3.92,0.01,7.85-0.02,11.77,0.02
						c1.02,0.01,1.66-0.33,1.99-1.3C35.31,45.7,35.55,45.52,35.71,45.3z M35.91,37.11c-1.05,0.16-1.81,0.33-2.59,0.38
						c-1.96,0.14-3.76-0.44-5.54-1.24c-1.34-0.61-2.74-1.11-4.16-1.49c-1.26-0.34-2.59-0.37-3.87,0.07
						c-0.97,0.34-1.24,0.75-0.97,1.68c0.76,2.59,1.58,5.15,2.39,7.72c0.19,0.61,0.58,0.91,1.27,0.88c1-0.04,2.01-0.01,3.01-0.01
						c2.27,0,4.53-0.01,6.8,0.01c0.64,0.01,1.09-0.16,1.3-0.82C34.32,41.95,35.09,39.61,35.91,37.11z M30.07,23.88
						c0-1.62,0.02-3.09-0.01-4.56c-0.02-0.84-0.3-1.18-1.04-1.21c-1.26-0.05-2.52-0.03-3.77-0.01c-0.6,0.01-1,0.34-1.01,0.96
						c-0.03,1.59-0.01,3.18-0.01,4.83C26.22,23.88,28.07,23.88,30.07,23.88z M36.23,35.69c-0.46-0.38-0.79-0.81-1.22-1
						c-1.86-0.85-3.78-0.82-5.69-0.17c-0.25,0.09-0.56,0.46-0.56,0.7c-0.01,0.25,0.27,0.63,0.52,0.74c1.2,0.53,2.46,0.81,3.79,0.75
						C34.14,36.67,35.19,36.52,36.23,35.69z M27.83,35.21c0-2.67,0-5.26,0-7.83c-0.36,0-0.6,0-0.98,0c0,2.37,0,4.67,0,6.97
						C26.84,34.98,27.25,35.14,27.83,35.21z"/>
					<path class="st0" d="M41.78,27.83c-0.05,0.15-0.11,0.4-0.23,0.62c-0.41,0.74-1.09,0.89-1.87,0.46
						c-1.25-0.69-1.66-1.4-1.25-2.18c0.1-0.18,0.24-0.36,0.41-0.48c0.6-0.44,1.14-0.13,1.68,0.15
						C41.42,26.85,41.75,27.2,41.78,27.83z"/>
					<path class="st0" d="M41.82,18.98c-0.08,0.11-0.21,0.47-0.46,0.64c-0.43,0.29-0.92,0.5-1.41,0.66c-0.6,0.2-1.17-0.06-1.42-0.59
						c-0.24-0.51-0.24-1.04,0.22-1.43c0.39-0.34,0.83-0.66,1.3-0.85C41,17,41.9,17.71,41.82,18.98z"/>
					<path class="st0" d="M41.39,24.49c-0.35-0.03-0.7-0.02-1.04-0.09c-0.62-0.13-0.94-0.6-0.91-1.24c0.03-0.59,0.31-1,0.91-1.1
						c0.34-0.06,0.69-0.08,1.04-0.1c1.1-0.06,1.68,0.41,1.63,1.35C42.98,24.19,42.46,24.56,41.39,24.49z"/>
					<path class="st0" d="M26.95,21.08c0.02-1.06,0.64-1.91,1.39-1.91c0.75,0,1.37,0.86,1.39,1.91c0.02,1.06-0.7,2.04-1.46,1.99
						C27.56,23.03,26.93,22.09,26.95,21.08z M28.35,22.2c0.77-0.98,0.77-1.22-0.02-2.17C27.6,20.97,27.61,21.33,28.35,22.2z"/>
				</g>
			</g>
		</g>
	</g>
</g>
</svg>
