<?xml version="1.0" encoding="utf-8"?>
<!-- Generator: Adobe Illustrator 27.2.0, SVG Export Plug-In . SVG Version: 6.00 Build 0)  -->
<svg version="1.1" id="Layer_1" xmlns="http://www.w3.org/2000/svg" xmlns:xlink="http://www.w3.org/1999/xlink" x="0px" y="0px"
	 viewBox="0 0 54.72 63.62" style="enable-background:new 0 0 54.72 63.62;" xml:space="preserve">
<style type="text/css">
	.st0{fill:#4F4C4D;}
	.st1{fill:url(#SVGID_1_);}
	.st2{fill:url(#SVGID_00000046318122950519641910000017814306298855314564_);}
	
		.st3{clip-path:url(#SVGID_00000110431260953482057350000009852508591645913487_);fill:url(#SVGID_00000113326501968722011770000008040442500547752117_);}
	
		.st4{clip-path:url(#SVGID_00000110431260953482057350000009852508591645913487_);fill:url(#SVGID_00000054263578623231906240000006694637527579032716_);}
	
		.st5{clip-path:url(#SVGID_00000110431260953482057350000009852508591645913487_);fill:url(#SVGID_00000030449354448876919450000004369460795861821837_);}
	
		.st6{clip-path:url(#SVGID_00000110431260953482057350000009852508591645913487_);fill:url(#SVGID_00000023969108321080521580000000598283653077819063_);}
	
		.st7{clip-path:url(#SVGID_00000110431260953482057350000009852508591645913487_);fill:url(#SVGID_00000081607888191145695400000008517910893989515453_);}
	
		.st8{clip-path:url(#SVGID_00000110431260953482057350000009852508591645913487_);fill:url(#SVGID_00000049201006034270578560000001559720859584066978_);}
	
		.st9{clip-path:url(#SVGID_00000110431260953482057350000009852508591645913487_);fill:url(#SVGID_00000078763768735177041320000001302952642120454550_);}
	
		.st10{clip-path:url(#SVGID_00000110431260953482057350000009852508591645913487_);fill:url(#SVGID_00000029037514593133031590000005368791053796310916_);}
	
		.st11{clip-path:url(#SVGID_00000110431260953482057350000009852508591645913487_);fill:url(#SVGID_00000104691977776509323140000008434468093006332566_);}
	
		.st12{clip-path:url(#SVGID_00000110431260953482057350000009852508591645913487_);fill:url(#SVGID_00000132793391791745051020000005073139756132434871_);}
	
		.st13{clip-path:url(#SVGID_00000110431260953482057350000009852508591645913487_);fill:url(#SVGID_00000078042140775112521140000002738464285661414029_);}
	
		.st14{clip-path:url(#SVGID_00000110431260953482057350000009852508591645913487_);fill:url(#SVGID_00000158733054559563711170000013385454401933992833_);}
	
		.st15{clip-path:url(#SVGID_00000110431260953482057350000009852508591645913487_);fill:url(#SVGID_00000124149533649744464110000010728716420217717436_);}
	
		.st16{clip-path:url(#SVGID_00000110431260953482057350000009852508591645913487_);fill:url(#SVGID_00000106835983383521540580000012582411304418548100_);}
	
		.st17{clip-path:url(#SVGID_00000110431260953482057350000009852508591645913487_);fill:url(#SVGID_00000044893839744958464320000015940607698356676012_);}
	
		.st18{clip-path:url(#SVGID_00000110431260953482057350000009852508591645913487_);fill:url(#SVGID_00000160151732065711878880000003269555520213386423_);}
	.st19{clip-path:url(#SVGID_00000110431260953482057350000009852508591645913487_);}
	.st20{fill:url(#SVGID_00000036931006647366168520000006071188754410258837_);}
	.st21{fill:url(#SVGID_00000029764539068613195540000009831864638185134208_);}
	.st22{fill:url(#SVGID_00000032613294338363435690000005507439138208340159_);}
	.st23{fill:url(#SVGID_00000035517306286591979850000003429329843022212993_);}
	
		.st24{clip-path:url(#SVGID_00000110431260953482057350000009852508591645913487_);fill:url(#SVGID_00000029017419095347026190000000848355342960220306_);}
	
		.st25{clip-path:url(#SVGID_00000110431260953482057350000009852508591645913487_);fill:url(#SVGID_00000119111731019046713670000013300385331441475461_);}
	
		.st26{clip-path:url(#SVGID_00000110431260953482057350000009852508591645913487_);fill:url(#SVGID_00000054228900111942836580000011011066474453637563_);}
	
		.st27{clip-path:url(#SVGID_00000110431260953482057350000009852508591645913487_);fill:url(#SVGID_00000112615734444455451400000013471923319011607180_);}
	
		.st28{clip-path:url(#SVGID_00000110431260953482057350000009852508591645913487_);fill:url(#SVGID_00000039125699369385928030000012101911932186099884_);}
	
		.st29{clip-path:url(#SVGID_00000110431260953482057350000009852508591645913487_);fill:url(#SVGID_00000122719510217041898200000004620257039363036562_);}
	
		.st30{clip-path:url(#SVGID_00000110431260953482057350000009852508591645913487_);fill:url(#SVGID_00000109723398605209113090000011703666669713553282_);}
	
		.st31{clip-path:url(#SVGID_00000110431260953482057350000009852508591645913487_);fill:url(#SVGID_00000043433532915908008120000010275343524739113613_);}
	
		.st32{clip-path:url(#SVGID_00000110431260953482057350000009852508591645913487_);fill:url(#SVGID_00000062181212204228891280000010354819376158219193_);}
	
		.st33{clip-path:url(#SVGID_00000110431260953482057350000009852508591645913487_);fill:url(#SVGID_00000010989831055968629300000008542979248396785291_);}
	
		.st34{clip-path:url(#SVGID_00000110431260953482057350000009852508591645913487_);fill:url(#SVGID_00000098220389175139103980000006227914631831224489_);}
	
		.st35{clip-path:url(#SVGID_00000110431260953482057350000009852508591645913487_);fill:url(#SVGID_00000066490501183151091650000008563131519160479149_);}
	
		.st36{clip-path:url(#SVGID_00000110431260953482057350000009852508591645913487_);fill:url(#SVGID_00000177469024760911392600000009394251696006712965_);}
	
		.st37{clip-path:url(#SVGID_00000110431260953482057350000009852508591645913487_);fill:url(#SVGID_00000122713373979391118240000004837381478480537512_);}
	
		.st38{clip-path:url(#SVGID_00000110431260953482057350000009852508591645913487_);fill:url(#SVGID_00000100340642573965174810000007783706970977858473_);}
	
		.st39{clip-path:url(#SVGID_00000110431260953482057350000009852508591645913487_);fill:url(#SVGID_00000086655597070724384410000016013622771691650983_);}
	.st40{fill:url(#SVGID_00000057129100813308829600000007100554324052644256_);}
	.st41{fill:url(#SVGID_00000089572265000676592360000016780802241916464027_);}
	.st42{fill:url(#SVGID_00000166652711253437170250000004876650380377031336_);}
	.st43{fill:url(#SVGID_00000060709445245092943280000009994576707240053683_);}
	
		.st44{clip-path:url(#SVGID_00000110431260953482057350000009852508591645913487_);fill:url(#SVGID_00000122697792010066937600000017066692553500249750_);}
	
		.st45{clip-path:url(#SVGID_00000110431260953482057350000009852508591645913487_);fill:url(#SVGID_00000160182773315003278320000018078599222889506203_);}
	
		.st46{clip-path:url(#SVGID_00000110431260953482057350000009852508591645913487_);fill:url(#SVGID_00000109727231057928884900000000715608086459329707_);}
	
		.st47{clip-path:url(#SVGID_00000110431260953482057350000009852508591645913487_);fill:url(#SVGID_00000157275085214393242170000011357634685321584021_);}
	
		.st48{clip-path:url(#SVGID_00000110431260953482057350000009852508591645913487_);fill:url(#SVGID_00000025444699129154953110000013747860338113833601_);}
	
		.st49{clip-path:url(#SVGID_00000110431260953482057350000009852508591645913487_);fill:url(#SVGID_00000158003425832035888010000010053317266954759571_);}
	
		.st50{clip-path:url(#SVGID_00000110431260953482057350000009852508591645913487_);fill:url(#SVGID_00000101077774742524491520000017208378023735551167_);}
	
		.st51{clip-path:url(#SVGID_00000110431260953482057350000009852508591645913487_);fill:url(#SVGID_00000118386343855938204400000002243459802663330440_);}
	
		.st52{clip-path:url(#SVGID_00000110431260953482057350000009852508591645913487_);fill:url(#SVGID_00000031182369483871405640000014579179450480754365_);}
	
		.st53{clip-path:url(#SVGID_00000110431260953482057350000009852508591645913487_);fill:url(#SVGID_00000054267886447642673910000008446015801850662790_);}
	
		.st54{clip-path:url(#SVGID_00000110431260953482057350000009852508591645913487_);fill:url(#SVGID_00000085227648039780675440000008769856676302668188_);}
	
		.st55{clip-path:url(#SVGID_00000110431260953482057350000009852508591645913487_);fill:url(#SVGID_00000051377465247882109910000002769095057152794044_);}
	
		.st56{clip-path:url(#SVGID_00000110431260953482057350000009852508591645913487_);fill:url(#SVGID_00000163780566027491327150000008985229023852681093_);}
	
		.st57{clip-path:url(#SVGID_00000110431260953482057350000009852508591645913487_);fill:url(#SVGID_00000071551322198632401530000013352130405322191006_);}
	
		.st58{clip-path:url(#SVGID_00000110431260953482057350000009852508591645913487_);fill:url(#SVGID_00000152225474618251795030000001080227780869061787_);}
	
		.st59{clip-path:url(#SVGID_00000110431260953482057350000009852508591645913487_);fill:url(#SVGID_00000006679141137766058980000004200199711691798715_);}
	.st60{fill:url(#SVGID_00000145756930634840414490000016732284942057837211_);}
	.st61{fill:url(#SVGID_00000137839286817081254600000017470641438538649988_);}
	.st62{fill:url(#SVGID_00000142155869773129007600000018279480988751072681_);}
	.st63{fill:url(#SVGID_00000134942820252923626690000008804461937035804824_);}
	
		.st64{clip-path:url(#SVGID_00000110431260953482057350000009852508591645913487_);fill:url(#SVGID_00000018223443585400870210000012229655889452674461_);}
	
		.st65{clip-path:url(#SVGID_00000110431260953482057350000009852508591645913487_);fill:url(#SVGID_00000026142641528605844870000007351930294394972047_);}
	
		.st66{clip-path:url(#SVGID_00000110431260953482057350000009852508591645913487_);fill:url(#SVGID_00000138564520410788670360000003236457175566783144_);}
	
		.st67{clip-path:url(#SVGID_00000110431260953482057350000009852508591645913487_);fill:url(#SVGID_00000132085504967179401730000007951517110344417685_);}
	
		.st68{clip-path:url(#SVGID_00000110431260953482057350000009852508591645913487_);fill:url(#SVGID_00000027597222672400220110000013129706155909601941_);}
	
		.st69{clip-path:url(#SVGID_00000110431260953482057350000009852508591645913487_);fill:url(#SVGID_00000089572981717267337190000004952651826218030522_);}
	
		.st70{clip-path:url(#SVGID_00000110431260953482057350000009852508591645913487_);fill:url(#SVGID_00000049942720024565741220000003707544517623577507_);}
	
		.st71{clip-path:url(#SVGID_00000110431260953482057350000009852508591645913487_);fill:url(#SVGID_00000080169364079119992480000001140561433390798235_);}
	
		.st72{clip-path:url(#SVGID_00000110431260953482057350000009852508591645913487_);fill:url(#SVGID_00000156565013457683196200000018407202278983026365_);}
	
		.st73{clip-path:url(#SVGID_00000110431260953482057350000009852508591645913487_);fill:url(#SVGID_00000071553024088200227820000015215902435250842797_);}
	
		.st74{clip-path:url(#SVGID_00000110431260953482057350000009852508591645913487_);fill:url(#SVGID_00000111905061234934985780000000266837698897649834_);}
	
		.st75{clip-path:url(#SVGID_00000110431260953482057350000009852508591645913487_);fill:url(#SVGID_00000072965104475763764100000013080537138688737686_);}
	
		.st76{clip-path:url(#SVGID_00000110431260953482057350000009852508591645913487_);fill:url(#SVGID_00000044891089827725346860000000220338710401529257_);}
	
		.st77{clip-path:url(#SVGID_00000110431260953482057350000009852508591645913487_);fill:url(#SVGID_00000171702977983620103210000012883637435062525062_);}
	
		.st78{clip-path:url(#SVGID_00000110431260953482057350000009852508591645913487_);fill:url(#SVGID_00000062880401253104611540000009334596379670127293_);}
	
		.st79{clip-path:url(#SVGID_00000110431260953482057350000009852508591645913487_);fill:url(#SVGID_00000045587554286243831480000004856957102705504434_);}
	.st80{fill:url(#SVGID_00000062873056047295131900000001576684950934389383_);}
	.st81{fill:url(#SVGID_00000054966718137646468550000011132148106699425182_);}
	.st82{fill:url(#SVGID_00000064325780718934506930000009987909843160468149_);}
	.st83{fill:url(#SVGID_00000116212858503532975850000009673831255439190692_);}
	.st84{fill:url(#SVGID_00000142148501534389838320000000033662223548521880_);}
	.st85{fill:url(#SVGID_00000056426542739864594650000003446275023541998734_);}
	.st86{fill:url(#SVGID_00000015331166192469929110000008991825259674176185_);}
	.st87{fill:url(#SVGID_00000036235996623810230270000015444858121171598258_);}
	.st88{fill:url(#SVGID_00000059277230711532707240000015671469750479329199_);}
	.st89{fill:url(#SVGID_00000018206987301129266380000004223233019643491715_);}
	.st90{clip-path:url(#SVGID_00000003787785696082336430000002101835658419713949_);}
	.st91{fill:url(#SVGID_00000054239507978307265840000016563977842532333974_);}
	.st92{fill:url(#SVGID_00000021810601522582773600000006723948456488609190_);}
	.st93{fill:url(#SVGID_00000114071635252803179400000015459259786877733051_);}
	.st94{fill:url(#SVGID_00000173154642954527871010000017697331639198148739_);}
	.st95{fill:url(#SVGID_00000173149822650008916230000016164710893524142486_);}
	.st96{fill:url(#SVGID_00000016058761138962984710000017589419101532812181_);}
	.st97{fill:url(#SVGID_00000008108830823189878880000016061239615860572074_);}
	.st98{fill:none;stroke:#666364;stroke-miterlimit:10;}
	.st99{fill:#666364;}
	.st100{fill:#FFFFFF;}
	.st101{fill:#C1C0C1;}
	.st102{fill:none;stroke:#4F4C4D;stroke-width:0.0179;stroke-miterlimit:10;}
	.st103{fill:#D5D4D5;}
	.st104{clip-path:url(#SVGID_00000136406971037858958250000001383769303771516547_);}
	.st105{fill:none;stroke:#4F4C4D;stroke-width:0.8884;stroke-linecap:round;stroke-linejoin:round;stroke-miterlimit:10;}
	.st106{fill:none;stroke:#4F4C4D;stroke-width:0.8448;stroke-linecap:round;stroke-linejoin:round;stroke-miterlimit:10;}
	.st107{fill:none;stroke:#4F4C4D;stroke-width:0.9746;stroke-linecap:round;stroke-linejoin:round;stroke-miterlimit:10;}
	.st108{fill:none;stroke:#4F4C4D;stroke-width:0.8608;stroke-linecap:round;stroke-linejoin:round;stroke-miterlimit:10;}
	
		.st109{fill:none;stroke:#4F4C4D;stroke-width:0.8608;stroke-linecap:round;stroke-linejoin:round;stroke-miterlimit:10;stroke-dasharray:1.0632;}
	.st110{fill:none;stroke:#4F4C4D;stroke-width:0.9757;stroke-linecap:round;stroke-linejoin:round;stroke-miterlimit:10;}
	.st111{fill:none;stroke:#4F4C4D;stroke-width:1.1046;stroke-linecap:round;stroke-linejoin:round;stroke-miterlimit:10;}
	.st112{fill:none;stroke:#4F4C4D;stroke-width:1.0333;stroke-linecap:round;stroke-linejoin:round;stroke-miterlimit:10;}
	
		.st113{fill:none;stroke:#4F4C4D;stroke-width:1.0333;stroke-linecap:round;stroke-linejoin:round;stroke-miterlimit:10;stroke-dasharray:1.2;}
	.st114{fill:none;stroke:#4F4C4D;stroke-linecap:round;stroke-linejoin:round;stroke-miterlimit:10;}
	.st115{fill:none;stroke:#4F4C4D;stroke-linecap:round;stroke-linejoin:round;stroke-miterlimit:10;stroke-dasharray:1.0878;}
</style>
<g>
	<g>
		<g>
			<g>
				<path class="st0" d="M27.36,55.93c-6.75,0-13.24-2.86-17.8-7.84l0.99-0.91c4.31,4.71,10.43,7.41,16.81,7.41
					c12.56,0,22.78-10.22,22.78-22.78c0-4.01-1.06-7.95-3.06-11.4l1.16-0.67c2.12,3.65,3.24,7.83,3.24,12.08
					C51.48,45.11,40.66,55.93,27.36,55.93z"/>
			</g>
			<g>
				<g>
					<path class="st0" d="M10.81,52.35c-0.16-1.42-0.31-2.84-0.47-4.26c-0.02-0.2-0.05-0.41-0.07-0.61
						c-0.04-0.34-0.27-0.64-0.64-0.64c-0.32,0-0.68,0.29-0.64,0.64c0.16,1.42,0.31,2.84,0.47,4.26c0.02,0.2,0.05,0.41,0.07,0.61
						c0.04,0.34,0.27,0.64,0.64,0.64C10.49,52.99,10.85,52.69,10.81,52.35L10.81,52.35z"/>
				</g>
				<g>
					<path class="st0" d="M14.54,46.69c-1.43,0.04-2.86,0.09-4.29,0.13c-0.21,0.01-0.41,0.01-0.62,0.02C9.29,46.84,9,47.12,9,47.47
						c0,0.34,0.29,0.65,0.64,0.64c1.43-0.04,2.86-0.09,4.29-0.13c0.21-0.01,0.41-0.01,0.62-0.02c0.34-0.01,0.64-0.29,0.64-0.64
						C15.18,46.99,14.89,46.68,14.54,46.69L14.54,46.69z"/>
				</g>
			</g>
			<g>
				<path class="st0" d="M47.11,20.39c2,3.48,3.04,7.4,3.06,11.42c0,0.82,1.28,0.82,1.27,0c-0.02-4.24-1.12-8.38-3.23-12.06
					C47.8,19.04,46.7,19.68,47.11,20.39L47.11,20.39z"/>
			</g>
		</g>
		<g>
			<g>
				<path class="st0" d="M7.18,45.02c-2.58-3.93-3.94-8.5-3.94-13.21c0-13.3,10.82-24.12,24.12-24.12c6.01,0,11.77,2.23,16.22,6.27
					c0.82,0.75,1.61,1.57,2.32,2.43l-1.03,0.86c-0.68-0.81-1.41-1.58-2.19-2.29c-4.2-3.82-9.64-5.92-15.32-5.92
					C14.8,9.03,4.58,19.25,4.58,31.81c0,4.45,1.29,8.77,3.72,12.48L7.18,45.02z"/>
			</g>
			<g>
				<g>
					<path class="st0" d="M44.21,11.94c0.16,1.42,0.31,2.84,0.47,4.26c0.02,0.2,0.05,0.41,0.07,0.61c0.04,0.34,0.27,0.64,0.64,0.64
						c0.32,0,0.68-0.29,0.64-0.64c-0.16-1.42-0.31-2.84-0.47-4.26c-0.02-0.2-0.05-0.41-0.07-0.61c-0.04-0.34-0.27-0.64-0.64-0.64
						C44.53,11.3,44.17,11.59,44.21,11.94L44.21,11.94z"/>
				</g>
				<g>
					<path class="st0" d="M40.48,17.6c1.43-0.04,2.86-0.08,4.29-0.13c0.21-0.01,0.41-0.01,0.62-0.02c0.34-0.01,0.64-0.29,0.64-0.64
						c0-0.34-0.29-0.65-0.64-0.64c-1.43,0.04-2.86,0.09-4.29,0.13c-0.21,0.01-0.41,0.01-0.62,0.02c-0.34,0.01-0.64,0.29-0.64,0.64
						C39.84,17.3,40.13,17.61,40.48,17.6L40.48,17.6z"/>
				</g>
			</g>
			<g>
				<path class="st0" d="M8.29,44.33c-2.43-3.74-3.72-8.06-3.74-12.52c0-0.82-1.28-0.82-1.27,0c0.02,4.67,1.37,9.25,3.92,13.17
					C7.64,45.66,8.74,45.02,8.29,44.33L8.29,44.33z"/>
			</g>
		</g>
	</g>
	<g>
		<g>
			<path class="st100" d="M36.78,35.54c1.01-0.62,1.83-1.55,2.25-2.79c0.25-0.73,0.39-1.57,0.39-2.56c0-6.82-5.99-12.69-5.99-12.69
				s-1.29,1.23-2.67,3.24"/>
			<path class="st0" d="M37.13,36.11l-0.7-1.15c0.94-0.58,1.62-1.41,1.97-2.43c0.24-0.7,0.36-1.48,0.36-2.34
				c0-5.36-3.95-10.2-5.32-11.72c-0.48,0.52-1.28,1.44-2.11,2.65l-1.11-0.76c1.4-2.05,2.7-3.29,2.76-3.34l0.47-0.45l0.46,0.45
				c0.25,0.25,6.19,6.14,6.19,13.17c0,1-0.14,1.94-0.43,2.77C39.22,34.28,38.34,35.37,37.13,36.11z"/>
		</g>
		<g>
			<path class="st100" d="M17.69,36.78c0,1.35,0.18,2.51,0.48,3.51c2.13,6.94,13.29,6.94,15.63,0.05c0.34-1.01,0.55-2.19,0.55-3.56
				c0-9.49-8.33-17.65-8.33-17.65S17.69,27.07,17.69,36.78z"/>
			<path class="st0" d="M25.93,46.17c-0.06,0-0.11,0-0.17,0c-3.96-0.06-7.2-2.29-8.23-5.68c-0.34-1.11-0.51-2.36-0.51-3.71
				c0-9.88,8.19-17.81,8.54-18.14l0.47-0.45l0.46,0.45c0.35,0.34,8.53,8.47,8.53,18.13c0,1.37-0.2,2.64-0.58,3.77
				C33.28,43.98,29.95,46.17,25.93,46.17z M26.01,20.09c-1.73,1.84-7.66,8.7-7.66,16.69c0,1.21,0.15,2.33,0.46,3.31
				c0.87,2.83,3.6,4.69,6.97,4.74c2.66,0.04,6.18-1.17,7.38-4.71c0.34-1,0.51-2.12,0.51-3.34C33.68,28.97,27.74,21.96,26.01,20.09z"
				/>
		</g>
		<g>
			<path class="st0" d="M32.98,17.06c-1.05,1-1.95,2.18-2.77,3.37c-0.19,0.28-0.06,0.72,0.23,0.87c0.32,0.17,0.67,0.07,0.87-0.23
				c0.16-0.24,0.33-0.47,0.5-0.7c0.08-0.11,0.16-0.22,0.24-0.32c0.04-0.06,0.05-0.06,0,0c0.02-0.03,0.04-0.06,0.07-0.09
				c0.03-0.04,0.07-0.08,0.1-0.13c0.27-0.34,0.56-0.68,0.85-1.01c0.26-0.29,0.52-0.58,0.8-0.85c0.24-0.23,0.25-0.67,0-0.9
				C33.62,16.82,33.24,16.81,32.98,17.06L32.98,17.06z"/>
		</g>
		<g>
			<path class="st0" d="M37.1,36.09c1.2-0.74,2.09-1.84,2.54-3.17c0.11-0.32-0.12-0.71-0.45-0.78c-0.35-0.08-0.67,0.11-0.78,0.45
				c-0.03,0.08-0.05,0.15-0.08,0.23c-0.01,0.03-0.03,0.07-0.04,0.1c0.02-0.07,0.04-0.09,0-0.01c-0.06,0.14-0.13,0.27-0.2,0.41
				c-0.07,0.13-0.15,0.26-0.24,0.38c-0.04,0.06-0.08,0.11-0.12,0.17c-0.05,0.06,0.08-0.1,0.01-0.01c-0.03,0.03-0.05,0.06-0.08,0.1
				c-0.18,0.22-0.38,0.42-0.59,0.6c-0.06,0.05-0.11,0.1-0.17,0.14c-0.09,0.07,0.08-0.06,0.02-0.01c-0.03,0.02-0.05,0.04-0.08,0.06
				c-0.12,0.09-0.25,0.17-0.37,0.25c-0.28,0.17-0.42,0.58-0.23,0.87C36.41,36.14,36.8,36.27,37.1,36.09L37.1,36.09z"/>
		</g>
	</g>
</g>
</svg>
