<?xml version="1.0" encoding="utf-8"?>
<!-- Generator: Adobe Illustrator 27.2.0, SVG Export Plug-In . SVG Version: 6.00 Build 0)  -->
<svg version="1.1" id="Layer_1" xmlns="http://www.w3.org/2000/svg" xmlns:xlink="http://www.w3.org/1999/xlink" x="0px" y="0px"
	 viewBox="0 0 54.72 63.62" style="enable-background:new 0 0 54.72 63.62;" xml:space="preserve">
<style type="text/css">
	.st0{fill:#4F4C4D;}
	.st1{fill:url(#SVGID_1_);}
	.st2{fill:url(#SVGID_00000090976045228820315810000014921244140822749617_);}
	
		.st3{clip-path:url(#SVGID_00000093178663284083076190000012099355523548764039_);fill:url(#SVGID_00000135663882390418348260000015528015091759064233_);}
	
		.st4{clip-path:url(#SVGID_00000093178663284083076190000012099355523548764039_);fill:url(#SVGID_00000117655827552500997980000013258792831659894688_);}
	
		.st5{clip-path:url(#SVGID_00000093178663284083076190000012099355523548764039_);fill:url(#SVGID_00000086691013071784478110000006855875497949857208_);}
	
		.st6{clip-path:url(#SVGID_00000093178663284083076190000012099355523548764039_);fill:url(#SVGID_00000047778490271943277110000014500704691264690561_);}
	
		.st7{clip-path:url(#SVGID_00000093178663284083076190000012099355523548764039_);fill:url(#SVGID_00000153696784758491604230000017276634518764174519_);}
	
		.st8{clip-path:url(#SVGID_00000093178663284083076190000012099355523548764039_);fill:url(#SVGID_00000148619905258530730610000002746870281076471226_);}
	
		.st9{clip-path:url(#SVGID_00000093178663284083076190000012099355523548764039_);fill:url(#SVGID_00000011011281453182895150000011237122011856195990_);}
	
		.st10{clip-path:url(#SVGID_00000093178663284083076190000012099355523548764039_);fill:url(#SVGID_00000136373330641350261460000017006834318519769234_);}
	
		.st11{clip-path:url(#SVGID_00000093178663284083076190000012099355523548764039_);fill:url(#SVGID_00000098923884975075516400000015554571893008610491_);}
	
		.st12{clip-path:url(#SVGID_00000093178663284083076190000012099355523548764039_);fill:url(#SVGID_00000080203668639959413580000000197016839889013930_);}
	
		.st13{clip-path:url(#SVGID_00000093178663284083076190000012099355523548764039_);fill:url(#SVGID_00000099626580667462837950000013686647159589208510_);}
	
		.st14{clip-path:url(#SVGID_00000093178663284083076190000012099355523548764039_);fill:url(#SVGID_00000084508412386253240430000011839106003612397954_);}
	
		.st15{clip-path:url(#SVGID_00000093178663284083076190000012099355523548764039_);fill:url(#SVGID_00000021829386396886867410000013307041070521174461_);}
	
		.st16{clip-path:url(#SVGID_00000093178663284083076190000012099355523548764039_);fill:url(#SVGID_00000052791068399606638800000000296942179308083852_);}
	
		.st17{clip-path:url(#SVGID_00000093178663284083076190000012099355523548764039_);fill:url(#SVGID_00000172398051744059603290000005229940847058547379_);}
	
		.st18{clip-path:url(#SVGID_00000093178663284083076190000012099355523548764039_);fill:url(#SVGID_00000099631612354457096100000006915812686893643165_);}
	.st19{clip-path:url(#SVGID_00000093178663284083076190000012099355523548764039_);}
	.st20{fill:url(#SVGID_00000086689907921641186320000012618602627453878407_);}
	.st21{fill:url(#SVGID_00000012457865059880282420000003185765872888341947_);}
	.st22{fill:url(#SVGID_00000162338428213987790020000006181817465487566496_);}
	.st23{fill:url(#SVGID_00000119809102542448799810000011701269329640292504_);}
	
		.st24{clip-path:url(#SVGID_00000093178663284083076190000012099355523548764039_);fill:url(#SVGID_00000114055396202428789540000018316342921514230201_);}
	
		.st25{clip-path:url(#SVGID_00000093178663284083076190000012099355523548764039_);fill:url(#SVGID_00000137116509086561772330000012348475853437875342_);}
	
		.st26{clip-path:url(#SVGID_00000093178663284083076190000012099355523548764039_);fill:url(#SVGID_00000017488348236057046960000004511741366127134622_);}
	
		.st27{clip-path:url(#SVGID_00000093178663284083076190000012099355523548764039_);fill:url(#SVGID_00000033358704190683613290000002882266281875434653_);}
	
		.st28{clip-path:url(#SVGID_00000093178663284083076190000012099355523548764039_);fill:url(#SVGID_00000133513616312273277310000010348593401088781247_);}
	
		.st29{clip-path:url(#SVGID_00000093178663284083076190000012099355523548764039_);fill:url(#SVGID_00000141416435482856520180000009914523273847417000_);}
	
		.st30{clip-path:url(#SVGID_00000093178663284083076190000012099355523548764039_);fill:url(#SVGID_00000029004549027610307910000012667132277612087173_);}
	
		.st31{clip-path:url(#SVGID_00000093178663284083076190000012099355523548764039_);fill:url(#SVGID_00000147186998517989757490000009917277581559283089_);}
	
		.st32{clip-path:url(#SVGID_00000093178663284083076190000012099355523548764039_);fill:url(#SVGID_00000105421065838002357400000011998812098222342320_);}
	
		.st33{clip-path:url(#SVGID_00000093178663284083076190000012099355523548764039_);fill:url(#SVGID_00000149348888637818367810000006443989331812821903_);}
	
		.st34{clip-path:url(#SVGID_00000093178663284083076190000012099355523548764039_);fill:url(#SVGID_00000000926115786897413160000008541502035447297701_);}
	
		.st35{clip-path:url(#SVGID_00000093178663284083076190000012099355523548764039_);fill:url(#SVGID_00000058554960204132782110000011908876123223395210_);}
	
		.st36{clip-path:url(#SVGID_00000093178663284083076190000012099355523548764039_);fill:url(#SVGID_00000152978993753246863360000011468908417661479075_);}
	
		.st37{clip-path:url(#SVGID_00000093178663284083076190000012099355523548764039_);fill:url(#SVGID_00000058566346587230170280000011914617359598716337_);}
	
		.st38{clip-path:url(#SVGID_00000093178663284083076190000012099355523548764039_);fill:url(#SVGID_00000123434501703615961820000003973713786733250454_);}
	
		.st39{clip-path:url(#SVGID_00000093178663284083076190000012099355523548764039_);fill:url(#SVGID_00000179604389202165871930000015127546044385111220_);}
	.st40{fill:url(#SVGID_00000042736228608812495530000008212361575618262151_);}
	.st41{fill:url(#SVGID_00000051364236775730932220000004406483208097713562_);}
	.st42{fill:url(#SVGID_00000013888837239479051820000005411275195353247874_);}
	.st43{fill:url(#SVGID_00000161598159690895059790000007865107693388269474_);}
	
		.st44{clip-path:url(#SVGID_00000093178663284083076190000012099355523548764039_);fill:url(#SVGID_00000073679737784943731780000013295021923951908278_);}
	
		.st45{clip-path:url(#SVGID_00000093178663284083076190000012099355523548764039_);fill:url(#SVGID_00000048499698520949998670000005832795285235651255_);}
	
		.st46{clip-path:url(#SVGID_00000093178663284083076190000012099355523548764039_);fill:url(#SVGID_00000137098779789379860370000003063794039926692756_);}
	
		.st47{clip-path:url(#SVGID_00000093178663284083076190000012099355523548764039_);fill:url(#SVGID_00000116201017967953012360000008369027655801824179_);}
	
		.st48{clip-path:url(#SVGID_00000093178663284083076190000012099355523548764039_);fill:url(#SVGID_00000093882379749920581130000001872652375487728771_);}
	
		.st49{clip-path:url(#SVGID_00000093178663284083076190000012099355523548764039_);fill:url(#SVGID_00000160889288079444919150000016274322408637523112_);}
	
		.st50{clip-path:url(#SVGID_00000093178663284083076190000012099355523548764039_);fill:url(#SVGID_00000049207161253250478670000004198321604024644524_);}
	
		.st51{clip-path:url(#SVGID_00000093178663284083076190000012099355523548764039_);fill:url(#SVGID_00000110431883053474870730000017555447092407799708_);}
	
		.st52{clip-path:url(#SVGID_00000093178663284083076190000012099355523548764039_);fill:url(#SVGID_00000024710835162763358990000005493789055160936349_);}
	
		.st53{clip-path:url(#SVGID_00000093178663284083076190000012099355523548764039_);fill:url(#SVGID_00000033338437309401480340000016007402816111000744_);}
	
		.st54{clip-path:url(#SVGID_00000093178663284083076190000012099355523548764039_);fill:url(#SVGID_00000025438421310537080780000004181584743583845792_);}
	
		.st55{clip-path:url(#SVGID_00000093178663284083076190000012099355523548764039_);fill:url(#SVGID_00000038405641751907191320000000133369815048684465_);}
	
		.st56{clip-path:url(#SVGID_00000093178663284083076190000012099355523548764039_);fill:url(#SVGID_00000135683698651447607410000010049144002078411177_);}
	
		.st57{clip-path:url(#SVGID_00000093178663284083076190000012099355523548764039_);fill:url(#SVGID_00000158728290458601261250000001290162625008058501_);}
	
		.st58{clip-path:url(#SVGID_00000093178663284083076190000012099355523548764039_);fill:url(#SVGID_00000174583045024913934990000011056348751858077605_);}
	
		.st59{clip-path:url(#SVGID_00000093178663284083076190000012099355523548764039_);fill:url(#SVGID_00000102513332797559713070000009670884702508301954_);}
	.st60{fill:url(#SVGID_00000021815209102437457510000011314123293616684183_);}
	.st61{fill:url(#SVGID_00000000210519884072198000000002268956066184116158_);}
	.st62{fill:url(#SVGID_00000057125463648289841250000004711021910591842234_);}
	.st63{fill:url(#SVGID_00000183210449693232157290000001794367319825461655_);}
	
		.st64{clip-path:url(#SVGID_00000093178663284083076190000012099355523548764039_);fill:url(#SVGID_00000000186891095388612380000008269811721716438179_);}
	
		.st65{clip-path:url(#SVGID_00000093178663284083076190000012099355523548764039_);fill:url(#SVGID_00000128466864026004592090000010092440426324519343_);}
	
		.st66{clip-path:url(#SVGID_00000093178663284083076190000012099355523548764039_);fill:url(#SVGID_00000081648203313624339100000002419096460861033128_);}
	
		.st67{clip-path:url(#SVGID_00000093178663284083076190000012099355523548764039_);fill:url(#SVGID_00000009565526876056931150000008262192203099379593_);}
	
		.st68{clip-path:url(#SVGID_00000093178663284083076190000012099355523548764039_);fill:url(#SVGID_00000152983115516174581530000002432523546467239297_);}
	
		.st69{clip-path:url(#SVGID_00000093178663284083076190000012099355523548764039_);fill:url(#SVGID_00000183209584677252437260000010431007492427120316_);}
	
		.st70{clip-path:url(#SVGID_00000093178663284083076190000012099355523548764039_);fill:url(#SVGID_00000050663009546266738130000013294400257535882379_);}
	
		.st71{clip-path:url(#SVGID_00000093178663284083076190000012099355523548764039_);fill:url(#SVGID_00000050663762794692907570000012077281124739371947_);}
	
		.st72{clip-path:url(#SVGID_00000093178663284083076190000012099355523548764039_);fill:url(#SVGID_00000049903369205918300320000017192316772674700940_);}
	
		.st73{clip-path:url(#SVGID_00000093178663284083076190000012099355523548764039_);fill:url(#SVGID_00000070798269772398226400000006242568071972097951_);}
	
		.st74{clip-path:url(#SVGID_00000093178663284083076190000012099355523548764039_);fill:url(#SVGID_00000024693909172870377110000000471633237206853553_);}
	
		.st75{clip-path:url(#SVGID_00000093178663284083076190000012099355523548764039_);fill:url(#SVGID_00000111880350955912002910000016132378821274286227_);}
	
		.st76{clip-path:url(#SVGID_00000093178663284083076190000012099355523548764039_);fill:url(#SVGID_00000059288476205942091860000011523961234781427604_);}
	
		.st77{clip-path:url(#SVGID_00000093178663284083076190000012099355523548764039_);fill:url(#SVGID_00000147928960341198100120000015290526763392078258_);}
	
		.st78{clip-path:url(#SVGID_00000093178663284083076190000012099355523548764039_);fill:url(#SVGID_00000104694746530870683540000004411395352649595576_);}
	
		.st79{clip-path:url(#SVGID_00000093178663284083076190000012099355523548764039_);fill:url(#SVGID_00000150781557237115588060000006185262803759205028_);}
	.st80{fill:url(#SVGID_00000078034325731103664720000010943995463519312030_);}
	.st81{fill:url(#SVGID_00000076562980737181593650000000545516909230566534_);}
	.st82{fill:url(#SVGID_00000031928660048523826020000003393088860055677087_);}
	.st83{fill:url(#SVGID_00000091694902851043537160000009005309292686996150_);}
	.st84{fill:url(#SVGID_00000036954591204722741760000006465521452163352503_);}
	.st85{fill:url(#SVGID_00000167388992206745618140000003664923863440825518_);}
	.st86{fill:url(#SVGID_00000014627436450735353670000003199612643972342179_);}
	.st87{fill:url(#SVGID_00000049183637014946925830000015832037296487413684_);}
	.st88{fill:url(#SVGID_00000013167561308183110950000001874608308154587819_);}
	.st89{fill:url(#SVGID_00000096052047340912460020000004755842431343810223_);}
	.st90{clip-path:url(#SVGID_00000036253406018976825240000012217358009218135725_);}
	.st91{fill:url(#SVGID_00000181064291414669949590000008956278213301913757_);}
	.st92{fill:url(#SVGID_00000135649845937732398620000013979718750210062980_);}
	.st93{fill:url(#SVGID_00000016756126451792721710000016575365252533166516_);}
	.st94{fill:url(#SVGID_00000178884541537060177510000008652301315278726585_);}
	.st95{fill:url(#SVGID_00000035531258932835123820000004025948758104479887_);}
	.st96{fill:url(#SVGID_00000108274759726823448830000017967877230566210235_);}
	.st97{fill:url(#SVGID_00000040554106936358458060000001863399599269997969_);}
	.st98{fill:none;stroke:#666364;stroke-miterlimit:10;}
	.st99{fill:#666364;}
	.st100{fill:#FFFFFF;}
	.st101{fill:#C1C0C1;}
	.st102{fill:none;stroke:#4F4C4D;stroke-width:0.0179;stroke-miterlimit:10;}
	.st103{fill:#D5D4D5;}
	.st104{clip-path:url(#SVGID_00000172411226501602468810000014861168728984475071_);}
	.st105{fill:none;stroke:#4F4C4D;stroke-width:0.8884;stroke-linecap:round;stroke-linejoin:round;stroke-miterlimit:10;}
	.st106{fill:none;stroke:#4F4C4D;stroke-width:0.8448;stroke-linecap:round;stroke-linejoin:round;stroke-miterlimit:10;}
	.st107{fill:none;stroke:#4F4C4D;stroke-width:0.9746;stroke-linecap:round;stroke-linejoin:round;stroke-miterlimit:10;}
	.st108{fill:none;stroke:#4F4C4D;stroke-width:0.8608;stroke-linecap:round;stroke-linejoin:round;stroke-miterlimit:10;}
	
		.st109{fill:none;stroke:#4F4C4D;stroke-width:0.8608;stroke-linecap:round;stroke-linejoin:round;stroke-miterlimit:10;stroke-dasharray:1.0632;}
	.st110{fill:none;stroke:#4F4C4D;stroke-width:0.9757;stroke-linecap:round;stroke-linejoin:round;stroke-miterlimit:10;}
	.st111{fill:none;stroke:#4F4C4D;stroke-width:1.1046;stroke-linecap:round;stroke-linejoin:round;stroke-miterlimit:10;}
	.st112{fill:none;stroke:#4F4C4D;stroke-width:1.0333;stroke-linecap:round;stroke-linejoin:round;stroke-miterlimit:10;}
	
		.st113{fill:none;stroke:#4F4C4D;stroke-width:1.0333;stroke-linecap:round;stroke-linejoin:round;stroke-miterlimit:10;stroke-dasharray:1.2;}
	.st114{fill:none;stroke:#4F4C4D;stroke-linecap:round;stroke-linejoin:round;stroke-miterlimit:10;}
	.st115{fill:none;stroke:#4F4C4D;stroke-linecap:round;stroke-linejoin:round;stroke-miterlimit:10;stroke-dasharray:1.0878;}
</style>
<g>
	<g>
		<path class="st0" d="M27.36,60.49L2.69,46.25V17.76L27.36,3.52l24.67,14.24v28.48L27.36,60.49z M4.53,45.18l22.83,13.18
			l22.83-13.18V18.83L27.36,5.65L4.53,18.83V45.18z"/>
	</g>
</g>
<g>
	<defs>
		<polygon id="SVGID_00000131336379172910376690000011869870975050619783_" points="4.53,45.18 27.36,58.37 50.19,45.18 
			50.19,18.83 27.36,5.65 4.53,18.83 		"/>
	</defs>
	<clipPath id="SVGID_00000156563639538991198890000002020337441249263253_">
		<use xlink:href="#SVGID_00000131336379172910376690000011869870975050619783_"  style="overflow:visible;"/>
	</clipPath>
	<g style="clip-path:url(#SVGID_00000156563639538991198890000002020337441249263253_);">
		<g id="igUkl0_00000111894276085674998760000005887549753805222293_">
			<g>
				<path class="st0" d="M18.95,65.57c-0.28-0.23-0.57-0.44-0.83-0.68c-0.43-0.41-0.68-0.91-0.67-1.52c0.01-0.33,0-0.65,0-0.98
					c0-9.3,0-18.61,0-27.91c0-0.44,0-0.89,0-1.3c-1.11-0.54-2.18-1.02-3.21-1.56c-0.76-0.4-1.39-0.95-1.92-1.65
					c-0.99-1.31-1.01-3.17-0.11-4.57c0.66-1.02,1.55-1.78,2.53-2.44c0.91-0.61,1.88-1.13,2.81-1.71c0.62-0.38,1.23-0.45,1.82-0.01
					c0.39,0.29,0.72,0.29,1.12,0.04c0.55-0.33,1.16-0.59,1.66-0.97c0.99-0.76,1.73-0.64,2.36,0.49c0.06,0.11,0.11,0.21,0.21,0.4
					c0.13-0.18,0.23-0.32,0.34-0.46c0.5-0.65,1.34-0.79,1.88-0.2c0.6,0.65,1.37,0.99,2.1,1.43c1.47,0.88,2.88,1.82,3.89,3.26
					c1.38,1.95,0.99,4.41-1.07,5.86c-1,0.71-2.05,1.31-3.22,1.69c-0.27,0.08-0.52,0.2-0.86,0.34c0,0.44,0,0.88,0,1.33
					c0,9.34-0.02,18.69,0.02,28.03c0.01,1.34-0.42,2.35-1.5,3.1c-0.57,0-1.14,0-1.71,0c-0.34-0.27-0.73-0.5-1.02-0.81
					c-0.6-0.63-0.68-1.43-0.68-2.27c0.01-5.01,0.01-10.01,0-15.02c0-0.39-0.03-0.78-0.05-1.19c-0.24,0-0.4,0-0.66,0
					c0,0.43,0,0.82,0,1.22c0,4.8,0,9.61,0,14.41c0,0.45-0.01,0.9,0,1.34c0.03,0.75-0.3,1.33-0.85,1.81
					c-0.21,0.18-0.44,0.34-0.66,0.51C20.09,65.57,19.52,65.57,18.95,65.57z M18.84,24.25c-1.91,0.64-3.66,2.13-4.17,3.53
					c0.05,0.11,0.1,0.23,0.16,0.33c0.06,0.1,0.13,0.22,0.23,0.28c1.48,1.03,3.04,1.87,4.92,1.88c1.63,0,3.27-0.04,4.9,0.01
					c1.88,0.06,3.47-0.67,5-1.65c0.41-0.26,0.66-0.59,0.8-1.15c-0.25-0.33-0.5-0.77-0.85-1.08c-0.64-0.56-1.33-1.06-2.04-1.54
					c-0.42-0.28-0.78-0.51-0.82-1.11c-0.02-0.41-0.24-0.84-0.79-1.32c0.2,0.51,0.3,0.78,0.41,1.03c0.4,0.9,0.4,1.88,0.12,2.75
					c-0.66,2.13-2.45,3.2-4.31,3.09c-1.8-0.1-3.59-1.3-3.98-3.34C18.21,24.93,18.17,24.93,18.84,24.25z M24.07,21.25
					c0-0.47-0.48-0.94-0.95-0.92c-0.38,0.01-0.75,0.47-0.76,0.96c-0.01,0.5,0.3,0.85,0.79,0.89C23.62,22.21,24.07,21.76,24.07,21.25
					z M20.9,22.77c0.02-0.41-0.25-0.75-0.61-0.76c-0.36-0.01-0.79,0.39-0.81,0.76c-0.02,0.37,0.28,0.65,0.71,0.65
					C20.63,23.43,20.88,23.2,20.9,22.77z M26.06,20.73c-0.44,0-0.73,0.27-0.71,0.66c0.02,0.38,0.34,0.63,0.77,0.6
					c0.37-0.03,0.61-0.2,0.64-0.6C26.79,20.99,26.51,20.73,26.06,20.73z"/>
				<path class="st0" d="M45.43,38.38c-4.7,0-9.28,0-13.94,0c0-0.62,0-1.21,0-1.93c4.6-0.06,9.18-0.01,13.8-0.03
					C45.56,37.04,45.42,37.65,45.43,38.38z"/>
				<path class="st0" d="M40.96,30c0,1.95,0,3.77,0,5.65c-1.35,0-2.64,0-3.93,0c-0.24-0.81-0.28-4.16-0.06-5.54
					c0.1-0.03,0.21-0.1,0.33-0.1C38.47,30,39.65,30,40.96,30z M39.45,31.3c-0.7,0.02-1.3-0.14-1.83,0.11c0,0.95,0,1.83,0,2.73
					c0.64,0,1.23,0,1.83,0C39.45,33.19,39.45,32.3,39.45,31.3z"/>
				<path class="st0" d="M36.04,28.93c0.74-0.91,1.81-1.18,3.84-1.02c0.53,0.81-0.66,1.17-0.4,1.91c-0.39,0-0.67,0-1.01,0
					c-0.23-0.4-0.15-1.12-0.81-1.14C37.17,28.66,36.67,28.82,36.04,28.93z"/>
				<path class="st0" d="M29.47,19.34c0.03,0.51-0.49,1.09-1.06,1.16c-0.57,0.07-1.11-0.39-1.16-0.99
					c-0.05-0.61,0.37-1.16,0.93-1.22C28.78,18.22,29.43,18.76,29.47,19.34z"/>
				<path class="st0" d="M18.51,19.47c-0.03,0.61-0.54,1.08-1.11,1.03c-0.57-0.05-0.98-0.57-0.95-1.19
					c0.03-0.61,0.54-1.08,1.11-1.03C18.13,18.33,18.55,18.85,18.51,19.47z"/>
				<path class="st0" d="M22.45,16.55c0.67-0.01,1.16,0.46,1.18,1.12c0.02,0.62-0.62,1.35-1.17,1.34c-0.58-0.01-1.26-0.68-1.29-1.27
					C21.14,17.12,21.74,16.56,22.45,16.55z M22.41,18.47c0.32,0,0.68-0.36,0.69-0.69c0.01-0.43-0.21-0.68-0.63-0.71
					c-0.42-0.03-0.75,0.22-0.78,0.58C21.66,18.01,22.06,18.47,22.41,18.47z"/>
				<path class="st0" d="M25.18,17.53c0.68,0,1.15,0.45,1.16,1.13c0.01,0.7-0.52,1.33-1.14,1.34c-0.57,0.01-1.31-0.7-1.3-1.24
					C23.91,18.14,24.55,17.53,25.18,17.53z M24.37,18.86c0.3,0.25,0.41,0.76,0.97,0.54c0.34-0.13,0.52-0.37,0.47-0.75
					c-0.04-0.32-0.2-0.52-0.53-0.58C24.76,17.96,24.55,18.28,24.37,18.86z"/>
				<path class="st0" d="M19.15,19.6c0.02-0.68,0.5-1.12,1.18-1.11c0.66,0.01,1.25,0.62,1.19,1.25c-0.06,0.66-0.57,1.19-1.2,1.14
					C19.7,20.84,19.07,20.32,19.15,19.6z M19.63,19.13c0.09,0.42,0.13,0.76,0.25,1.07c0.04,0.11,0.27,0.18,0.42,0.19
					c0.27,0.03,0.71-0.43,0.73-0.71C21.08,19.24,20.67,19.04,19.63,19.13z"/>
			</g>
		</g>
	</g>
</g>
</svg>
