<?xml version="1.0" encoding="utf-8"?>
<!-- Generator: Adobe Illustrator 27.2.0, SVG Export Plug-In . SVG Version: 6.00 Build 0)  -->
<svg version="1.1" id="Layer_1" xmlns="http://www.w3.org/2000/svg" xmlns:xlink="http://www.w3.org/1999/xlink" x="0px" y="0px"
	 viewBox="0 0 54.72 63.62" style="enable-background:new 0 0 54.72 63.62;" xml:space="preserve">
<style type="text/css">
	.st0{fill:#4F4C4D;}
	.st1{fill:url(#SVGID_1_);}
	.st2{fill:url(#SVGID_00000115491212502213075770000016120785821771238019_);}
	
		.st3{clip-path:url(#SVGID_00000103985204023763727480000017075671910566500774_);fill:url(#SVGID_00000018928922253299446690000000700690608217917318_);}
	
		.st4{clip-path:url(#SVGID_00000103985204023763727480000017075671910566500774_);fill:url(#SVGID_00000111895761255129763420000011803552196727286948_);}
	
		.st5{clip-path:url(#SVGID_00000103985204023763727480000017075671910566500774_);fill:url(#SVGID_00000098902951731319043380000000924797397527949965_);}
	
		.st6{clip-path:url(#SVGID_00000103985204023763727480000017075671910566500774_);fill:url(#SVGID_00000024701028535442197700000012666903970511693732_);}
	
		.st7{clip-path:url(#SVGID_00000103985204023763727480000017075671910566500774_);fill:url(#SVGID_00000116209050885003030310000012298288868146235035_);}
	
		.st8{clip-path:url(#SVGID_00000103985204023763727480000017075671910566500774_);fill:url(#SVGID_00000181802819142648749140000005785892479808413602_);}
	
		.st9{clip-path:url(#SVGID_00000103985204023763727480000017075671910566500774_);fill:url(#SVGID_00000121959905235291200880000014615323548388398722_);}
	
		.st10{clip-path:url(#SVGID_00000103985204023763727480000017075671910566500774_);fill:url(#SVGID_00000099647331473945684490000011127906424021917568_);}
	
		.st11{clip-path:url(#SVGID_00000103985204023763727480000017075671910566500774_);fill:url(#SVGID_00000173882154737180124550000011956072725665725866_);}
	
		.st12{clip-path:url(#SVGID_00000103985204023763727480000017075671910566500774_);fill:url(#SVGID_00000115482199612029357800000007830507783840469664_);}
	
		.st13{clip-path:url(#SVGID_00000103985204023763727480000017075671910566500774_);fill:url(#SVGID_00000079486840461834302170000001845746241397792412_);}
	
		.st14{clip-path:url(#SVGID_00000103985204023763727480000017075671910566500774_);fill:url(#SVGID_00000080178633355892813240000017316008274373913002_);}
	
		.st15{clip-path:url(#SVGID_00000103985204023763727480000017075671910566500774_);fill:url(#SVGID_00000170961295553174204730000000814834223628072341_);}
	
		.st16{clip-path:url(#SVGID_00000103985204023763727480000017075671910566500774_);fill:url(#SVGID_00000145025192772587588540000002066625883036919472_);}
	
		.st17{clip-path:url(#SVGID_00000103985204023763727480000017075671910566500774_);fill:url(#SVGID_00000018233006320689806260000018263961834914568601_);}
	
		.st18{clip-path:url(#SVGID_00000103985204023763727480000017075671910566500774_);fill:url(#SVGID_00000024711581817899106690000015921215444852323515_);}
	.st19{clip-path:url(#SVGID_00000103985204023763727480000017075671910566500774_);}
	.st20{fill:url(#SVGID_00000061446358109704621130000005126956190636965766_);}
	.st21{fill:url(#SVGID_00000024710722013019156740000010017372310413637007_);}
	.st22{fill:url(#SVGID_00000131331336308576604560000004593564556500704682_);}
	.st23{fill:url(#SVGID_00000097460069246071367480000002275602512630913727_);}
	
		.st24{clip-path:url(#SVGID_00000103985204023763727480000017075671910566500774_);fill:url(#SVGID_00000170997570698373887210000004445902104433048983_);}
	
		.st25{clip-path:url(#SVGID_00000103985204023763727480000017075671910566500774_);fill:url(#SVGID_00000070816911488853227980000006977612087562141600_);}
	
		.st26{clip-path:url(#SVGID_00000103985204023763727480000017075671910566500774_);fill:url(#SVGID_00000046309633794092454520000004102380119686093195_);}
	
		.st27{clip-path:url(#SVGID_00000103985204023763727480000017075671910566500774_);fill:url(#SVGID_00000158020085645318758640000012984594592537532338_);}
	
		.st28{clip-path:url(#SVGID_00000103985204023763727480000017075671910566500774_);fill:url(#SVGID_00000022534322906510219800000013882865282718669225_);}
	
		.st29{clip-path:url(#SVGID_00000103985204023763727480000017075671910566500774_);fill:url(#SVGID_00000016040973313967664390000006566411144097628056_);}
	
		.st30{clip-path:url(#SVGID_00000103985204023763727480000017075671910566500774_);fill:url(#SVGID_00000061472798782336447420000008400159661548736686_);}
	
		.st31{clip-path:url(#SVGID_00000103985204023763727480000017075671910566500774_);fill:url(#SVGID_00000118389709795287188560000016804660391440049799_);}
	
		.st32{clip-path:url(#SVGID_00000103985204023763727480000017075671910566500774_);fill:url(#SVGID_00000119081725865088852870000000695023072025075372_);}
	
		.st33{clip-path:url(#SVGID_00000103985204023763727480000017075671910566500774_);fill:url(#SVGID_00000113347195901994510700000013008954313887768492_);}
	
		.st34{clip-path:url(#SVGID_00000103985204023763727480000017075671910566500774_);fill:url(#SVGID_00000001659715439431022380000014523840802896309165_);}
	
		.st35{clip-path:url(#SVGID_00000103985204023763727480000017075671910566500774_);fill:url(#SVGID_00000126312737352327101540000009623603053104397485_);}
	
		.st36{clip-path:url(#SVGID_00000103985204023763727480000017075671910566500774_);fill:url(#SVGID_00000051345977646859341430000001916831968444787384_);}
	
		.st37{clip-path:url(#SVGID_00000103985204023763727480000017075671910566500774_);fill:url(#SVGID_00000152228583316300605670000013696929958203197091_);}
	
		.st38{clip-path:url(#SVGID_00000103985204023763727480000017075671910566500774_);fill:url(#SVGID_00000067230268326954262070000014599685262133282218_);}
	
		.st39{clip-path:url(#SVGID_00000103985204023763727480000017075671910566500774_);fill:url(#SVGID_00000093172772932042925940000004143567413283265443_);}
	.st40{fill:url(#SVGID_00000038398880410387775340000003495677679247842948_);}
	.st41{fill:url(#SVGID_00000053542033870522534230000001792798012416852366_);}
	.st42{fill:url(#SVGID_00000151505302541623258100000001248971795862064265_);}
	.st43{fill:url(#SVGID_00000178203206042309791730000004862209241706534804_);}
	
		.st44{clip-path:url(#SVGID_00000103985204023763727480000017075671910566500774_);fill:url(#SVGID_00000091702730546075268720000007872570864323106445_);}
	
		.st45{clip-path:url(#SVGID_00000103985204023763727480000017075671910566500774_);fill:url(#SVGID_00000044885951511635198290000010843051734316048541_);}
	
		.st46{clip-path:url(#SVGID_00000103985204023763727480000017075671910566500774_);fill:url(#SVGID_00000147221751053045447910000012210253258302871943_);}
	
		.st47{clip-path:url(#SVGID_00000103985204023763727480000017075671910566500774_);fill:url(#SVGID_00000172411088433670915440000007192817687801886115_);}
	
		.st48{clip-path:url(#SVGID_00000103985204023763727480000017075671910566500774_);fill:url(#SVGID_00000016769396546529875830000008014882812890885287_);}
	
		.st49{clip-path:url(#SVGID_00000103985204023763727480000017075671910566500774_);fill:url(#SVGID_00000018218773763454882960000001054377075078540208_);}
	
		.st50{clip-path:url(#SVGID_00000103985204023763727480000017075671910566500774_);fill:url(#SVGID_00000109715562341016516930000002901246151038145983_);}
	
		.st51{clip-path:url(#SVGID_00000103985204023763727480000017075671910566500774_);fill:url(#SVGID_00000125600672468157845970000018061617934516477333_);}
	
		.st52{clip-path:url(#SVGID_00000103985204023763727480000017075671910566500774_);fill:url(#SVGID_00000122696762492490169500000000604254001697561247_);}
	
		.st53{clip-path:url(#SVGID_00000103985204023763727480000017075671910566500774_);fill:url(#SVGID_00000161613773034017554380000002577129101601477045_);}
	
		.st54{clip-path:url(#SVGID_00000103985204023763727480000017075671910566500774_);fill:url(#SVGID_00000103230810626882425250000016608219250536756638_);}
	
		.st55{clip-path:url(#SVGID_00000103985204023763727480000017075671910566500774_);fill:url(#SVGID_00000104699702919046425760000010949632357191075763_);}
	
		.st56{clip-path:url(#SVGID_00000103985204023763727480000017075671910566500774_);fill:url(#SVGID_00000183955096628373085610000008037011452549761202_);}
	
		.st57{clip-path:url(#SVGID_00000103985204023763727480000017075671910566500774_);fill:url(#SVGID_00000128449403369914221400000012783243306676602022_);}
	
		.st58{clip-path:url(#SVGID_00000103985204023763727480000017075671910566500774_);fill:url(#SVGID_00000129899966893198733820000001280707372451802557_);}
	
		.st59{clip-path:url(#SVGID_00000103985204023763727480000017075671910566500774_);fill:url(#SVGID_00000088829099055910560950000001602717694062412982_);}
	.st60{fill:url(#SVGID_00000090272190444571781110000013657011752664154021_);}
	.st61{fill:url(#SVGID_00000047773304833882733970000016004701327941161915_);}
	.st62{fill:url(#SVGID_00000013913843592691260570000014765039071448047807_);}
	.st63{fill:url(#SVGID_00000020358814636793534560000000913453880497699753_);}
	
		.st64{clip-path:url(#SVGID_00000103985204023763727480000017075671910566500774_);fill:url(#SVGID_00000034798652506391525970000009256641196060385690_);}
	
		.st65{clip-path:url(#SVGID_00000103985204023763727480000017075671910566500774_);fill:url(#SVGID_00000059294119557226112910000018409779657645529265_);}
	
		.st66{clip-path:url(#SVGID_00000103985204023763727480000017075671910566500774_);fill:url(#SVGID_00000141448781590412950590000012804976128307721866_);}
	
		.st67{clip-path:url(#SVGID_00000103985204023763727480000017075671910566500774_);fill:url(#SVGID_00000101081258364766454400000012107198439802999980_);}
	
		.st68{clip-path:url(#SVGID_00000103985204023763727480000017075671910566500774_);fill:url(#SVGID_00000099657262778684109350000006331816810069885353_);}
	
		.st69{clip-path:url(#SVGID_00000103985204023763727480000017075671910566500774_);fill:url(#SVGID_00000060026006953772865420000017453166240677181884_);}
	
		.st70{clip-path:url(#SVGID_00000103985204023763727480000017075671910566500774_);fill:url(#SVGID_00000095332293065709443860000017566040518938093189_);}
	
		.st71{clip-path:url(#SVGID_00000103985204023763727480000017075671910566500774_);fill:url(#SVGID_00000032615211279092787090000016068546343215137686_);}
	
		.st72{clip-path:url(#SVGID_00000103985204023763727480000017075671910566500774_);fill:url(#SVGID_00000178894689019506134820000016832239621515138473_);}
	
		.st73{clip-path:url(#SVGID_00000103985204023763727480000017075671910566500774_);fill:url(#SVGID_00000037694780480223127010000016511974924633153712_);}
	
		.st74{clip-path:url(#SVGID_00000103985204023763727480000017075671910566500774_);fill:url(#SVGID_00000040557029125717120370000012473982533698156183_);}
	
		.st75{clip-path:url(#SVGID_00000103985204023763727480000017075671910566500774_);fill:url(#SVGID_00000044141171312248014580000013431054150809200256_);}
	
		.st76{clip-path:url(#SVGID_00000103985204023763727480000017075671910566500774_);fill:url(#SVGID_00000058550099553197764360000013380058941288758414_);}
	
		.st77{clip-path:url(#SVGID_00000103985204023763727480000017075671910566500774_);fill:url(#SVGID_00000051350012047656006600000013688028225864628864_);}
	
		.st78{clip-path:url(#SVGID_00000103985204023763727480000017075671910566500774_);fill:url(#SVGID_00000047752499093371023710000002137103060708712352_);}
	
		.st79{clip-path:url(#SVGID_00000103985204023763727480000017075671910566500774_);fill:url(#SVGID_00000015339025860901115710000002130956368651344021_);}
	.st80{fill:url(#SVGID_00000138539661772357593490000014941381506979016874_);}
	.st81{fill:url(#SVGID_00000009558124834063098240000014631303708988910516_);}
	.st82{fill:url(#SVGID_00000021814731702596027700000012691501281529360514_);}
	.st83{fill:url(#SVGID_00000112608850636803813690000013715383949715817140_);}
	.st84{fill:url(#SVGID_00000040548827750215828140000017293159362876306569_);}
	.st85{fill:url(#SVGID_00000031917571049885985190000013403187657097215646_);}
	.st86{fill:url(#SVGID_00000121964035942792612240000002289947704461039275_);}
	.st87{fill:url(#SVGID_00000125595506503538513030000018322387246982933153_);}
	.st88{fill:url(#SVGID_00000102522296340663262680000011548536624873901222_);}
	.st89{fill:url(#SVGID_00000156555703715566604630000014893114946840656036_);}
	.st90{clip-path:url(#SVGID_00000011736048929530293160000018272413428034076302_);}
	.st91{fill:url(#SVGID_00000051348380005406766470000016735864174447545241_);}
	.st92{fill:url(#SVGID_00000072260819186997728930000012473117453067192484_);}
	.st93{fill:url(#SVGID_00000026849050588150274810000017048811032573300414_);}
	.st94{fill:url(#SVGID_00000031204117951479654570000010241054759910459784_);}
	.st95{fill:url(#SVGID_00000153689439987801165890000013458981126707297981_);}
	.st96{fill:url(#SVGID_00000029768442642270107110000006546580651048823959_);}
	.st97{fill:url(#SVGID_00000068658159345636517700000016438413418569206411_);}
	.st98{fill:none;stroke:#666364;stroke-miterlimit:10;}
	.st99{fill:#666364;}
	.st100{fill:#FFFFFF;}
	.st101{fill:#C1C0C1;}
	.st102{fill:none;stroke:#4F4C4D;stroke-width:0.0179;stroke-miterlimit:10;}
	.st103{fill:#D5D4D5;}
	.st104{clip-path:url(#SVGID_00000134941999479345680850000003711225003473923261_);}
	.st105{fill:none;stroke:#4F4C4D;stroke-width:0.8884;stroke-linecap:round;stroke-linejoin:round;stroke-miterlimit:10;}
	.st106{fill:none;stroke:#4F4C4D;stroke-width:0.8448;stroke-linecap:round;stroke-linejoin:round;stroke-miterlimit:10;}
	.st107{fill:none;stroke:#4F4C4D;stroke-width:0.9746;stroke-linecap:round;stroke-linejoin:round;stroke-miterlimit:10;}
	.st108{fill:none;stroke:#4F4C4D;stroke-width:0.8608;stroke-linecap:round;stroke-linejoin:round;stroke-miterlimit:10;}
	
		.st109{fill:none;stroke:#4F4C4D;stroke-width:0.8608;stroke-linecap:round;stroke-linejoin:round;stroke-miterlimit:10;stroke-dasharray:1.0632;}
	.st110{fill:none;stroke:#4F4C4D;stroke-width:0.9757;stroke-linecap:round;stroke-linejoin:round;stroke-miterlimit:10;}
	.st111{fill:none;stroke:#4F4C4D;stroke-width:1.1046;stroke-linecap:round;stroke-linejoin:round;stroke-miterlimit:10;}
	.st112{fill:none;stroke:#4F4C4D;stroke-width:1.0333;stroke-linecap:round;stroke-linejoin:round;stroke-miterlimit:10;}
	
		.st113{fill:none;stroke:#4F4C4D;stroke-width:1.0333;stroke-linecap:round;stroke-linejoin:round;stroke-miterlimit:10;stroke-dasharray:1.2;}
	.st114{fill:none;stroke:#4F4C4D;stroke-linecap:round;stroke-linejoin:round;stroke-miterlimit:10;}
	.st115{fill:none;stroke:#4F4C4D;stroke-linecap:round;stroke-linejoin:round;stroke-miterlimit:10;stroke-dasharray:1.0878;}
</style>
<g>
	<g>
		<path class="st0" d="M27.36,60.49L2.69,46.25V17.76L27.36,3.52l24.67,14.24v28.48L27.36,60.49z M4.53,45.18l22.83,13.18
			l22.83-13.18V18.83L27.36,5.65L4.53,18.83V45.18z"/>
	</g>
</g>
<g>
	<g>
		<g>
			<path class="st100" d="M37.87,20.78c0.07,0.36,0.1,0.74,0.1,1.12c0,3.4-2.75,6.15-6.15,6.15c-3.4,0-6.15-2.75-6.15-6.15
				c0-3.4,2.75-6.15,6.15-6.15c0.61,0,1.19,0.09,1.74,0.25"/>
			<path class="st0" d="M31.82,28.49c-3.63,0-6.59-2.95-6.59-6.59c0-3.63,2.96-6.59,6.59-6.59c0.64,0,1.26,0.09,1.87,0.27
				l-0.25,0.84c-0.52-0.15-1.07-0.23-1.62-0.23c-3.15,0-5.71,2.56-5.71,5.71c0,3.15,2.56,5.71,5.71,5.71c3.15,0,5.71-2.56,5.71-5.71
				c0-0.35-0.03-0.7-0.09-1.04l0.87-0.16c0.07,0.39,0.11,0.8,0.11,1.2C38.41,25.53,35.45,28.49,31.82,28.49z"/>
		</g>
		<g>
			<path class="st0" d="M28.2,20.77c1.01,1.25,2.02,2.49,3.03,3.74c0.14,0.17,0.45,0.15,0.59,0c1.81-2,3.62-4,5.42-6
				c0.26-0.29,0.52-0.58,0.78-0.86c0.36-0.4-0.23-0.99-0.59-0.59c-1.81,2-3.62,4-5.42,6c-0.26,0.29-0.52,0.58-0.78,0.86
				c0.2,0,0.39,0,0.59,0c-1.01-1.25-2.02-2.49-3.03-3.74C28.45,19.76,27.86,20.35,28.2,20.77L28.2,20.77z"/>
		</g>
		<g>
			<path class="st0" d="M31.82,16.17c0.14,0,0.29,0.01,0.43,0.02c0.08,0.01,0.15,0.01,0.23,0.02c0.03,0,0.07,0.01,0.1,0.01
				c0.05,0.01,0.04,0.01-0.01,0c0.02,0,0.03,0,0.05,0.01c0.28,0.04,0.56,0.1,0.84,0.18c0.21,0.06,0.46-0.07,0.51-0.29
				c0.05-0.22-0.07-0.45-0.29-0.51c-0.6-0.18-1.23-0.26-1.86-0.27c-0.22,0-0.43,0.19-0.42,0.42C31.41,15.98,31.59,16.17,31.82,16.17
				L31.82,16.17z"/>
		</g>
		<g>
			<path class="st0" d="M37.46,20.89c0.02,0.1,0.03,0.19,0.05,0.29c0-0.04-0.01-0.07-0.01-0.11c0.04,0.28,0.06,0.55,0.06,0.83
				c0,0.22,0.19,0.43,0.42,0.42c0.23-0.01,0.42-0.18,0.42-0.42c0-0.41-0.04-0.83-0.12-1.23c-0.02-0.1-0.11-0.2-0.19-0.25
				c-0.09-0.05-0.22-0.07-0.32-0.04c-0.1,0.03-0.2,0.1-0.25,0.19C37.45,20.67,37.44,20.78,37.46,20.89L37.46,20.89z"/>
		</g>
	</g>
	<g>
		<g>
			<path class="st100" d="M22.37,23.96c2.28-2.29,2.15-4.01,1.74-4.75c-0.05-0.07-0.09-0.14-0.13-0.2c-0.15-0.2-0.45-0.22-0.63-0.03
				c-0.07,0.07-0.13,0.13-0.2,0.2c-0.43,0.44-1.13,1.06-1.17,1.09"/>
			<path class="st0" d="M22.68,24.28l-0.62-0.62c1.9-1.91,2.09-3.47,1.66-4.23l-0.1-0.15l-0.03,0.09l-0.14,0.14
				c-0.37,0.38-1.14,1.08-1.26,1.15l-0.45-0.76c0.04-0.03,0.67-0.59,1.08-1.01l0.21-0.21c0.17-0.18,0.42-0.27,0.68-0.26
				c0.25,0.02,0.48,0.14,0.62,0.35L24.49,19C25.09,20.07,24.93,22.02,22.68,24.28z"/>
		</g>
		<g>
			<path class="st100" d="M23.99,52.59c-0.22-1.16-0.28-1.94-0.47-2.88c-0.03-0.16-0.06-0.32-0.1-0.47
				c-0.15-0.83-0.31-1.68-0.7-2.43c-0.42-0.83-1.01-1.57-1.5-2.35c-0.01-0.03-0.03-0.05-0.04-0.08c-0.26-0.41-0.49-0.83-0.7-1.26
				c-0.18-0.36-0.36-0.73-0.53-1.1c-0.23-0.5-0.52-0.97-0.88-1.39c-0.08-0.1-0.17-0.19-0.26-0.28c-0.43-0.43-0.92-0.79-1.37-1.21
				c-0.17-0.16-0.34-0.32-0.49-0.51c-0.17-0.2-0.31-0.41-0.45-0.63c-0.79-1.27-1.13-2.78-1.31-4.25c-0.02-0.2-0.28-1.97-0.39-2.63
				c-0.02-0.13,0.08-0.25,0.21-0.25c0.77,0,1.41,0.58,1.71,1.26c0.36,0.81,0.34,1.71,0.64,2.53c0.26,0.71,0.87,1.35,1.3,1.97
				c0.07,0.1-0.02-0.27-0.04-0.4c-0.01-0.06-0.29-1.17-0.36-1.72c-0.1-0.69-0.19-1.38-0.29-2.06c-0.06-0.43-0.05-0.77,0.21-1.13
				c0.26-0.36,0.58-0.64,0.97-0.85c0.07-0.03,0.14-0.08,0.19-0.13c0.11-0.15,0.03-0.34-0.03-0.51c-0.61-1.39-0.74-2.95,0.32-4.19
				c0.07-0.08,0.14-0.16,0.16-0.26c0.02-0.09,0-0.19-0.02-0.28c-0.18-0.79-0.06-1.57-0.04-2.35c0.03-0.83,0.08-1.66,0.1-2.48
				c0.04-0.83,0.07-1.67,0.1-2.5c0-0.15,0.16-0.26,0.29-0.21c0.29,0.12,0.55,0.3,0.75,0.53c0.14,0.14,0.26,0.3,0.37,0.46
				c0.5,0.81,0.68,1.79,0.75,2.71c0.03,0.41,0.04,0.83,0.03,1.24c-0.01,0.51-0.09,0.9,0.19,1.36c0.17,0.27,0.33,0.55,0.49,0.81
				c1.04,1.7,2.01,3.44,3.01,5.17c0.37,0.66,0.75,1.32,1.12,1.97c0.15,0.26,0.23,0.17,0.24-0.1c0.03-1.09-0.06-2.01-0.37-3.07
				c-0.36-1.2-0.35-2.37,0.17-3.53c0.1-0.24,0.36-0.65,0.66-0.83c0.16-0.09,0.32-0.13,0.5-0.06c0.48,0.2,0.59,1.21,0.66,1.64
				c0.07,0.34,0.13,0.69,0.2,1.02c0.5,2.53,1.21,4.96,2.33,7.31c0.37,0.79,0.77,1.57,1.03,2.41c0.06,0.16,0.1,0.33,0.14,0.5
				c0.03,0.11,0.06,0.23,0.08,0.34c0.21,1.08,0.23,2.19,0.12,3.29c-0.06,0.66-0.17,1.3-0.3,1.93c-0.03,0.14-0.06,0.29-0.09,0.43
				c-0.08,0.37-0.16,0.73-0.24,1.09c-0.12,0.55-0.24,1.1-0.32,1.66c-0.1,0.59-0.16,1.17-0.17,1.77v0.45c0,0.77,0.03,1.55,0.08,2.31
				c0.01,0.1,0.01,0.21,0.01,0.32c0.01,0.32,0.05,0.97,0.08,1.3"/>
			<path class="st0" d="M23.56,52.68c-0.11-0.59-0.19-1.09-0.25-1.56c-0.06-0.44-0.12-0.86-0.22-1.32L23,49.35
				c-0.15-0.8-0.29-1.61-0.66-2.32c-0.26-0.51-0.59-1-0.92-1.47c-0.19-0.28-0.39-0.56-0.57-0.85l-0.05-0.09
				c-0.25-0.4-0.49-0.84-0.72-1.28c-0.18-0.36-0.36-0.74-0.54-1.11c-0.23-0.49-0.51-0.93-0.82-1.3c-0.08-0.09-0.15-0.17-0.23-0.25
				c-0.24-0.25-0.51-0.47-0.77-0.69c-0.2-0.17-0.39-0.33-0.58-0.51c-0.19-0.17-0.37-0.35-0.53-0.56c-0.18-0.21-0.33-0.43-0.48-0.67
				c-0.71-1.15-1.15-2.55-1.37-4.43c-0.02-0.19-0.28-1.96-0.39-2.61c-0.03-0.2,0.02-0.39,0.15-0.53c0.12-0.15,0.3-0.23,0.49-0.23
				c0.88,0,1.71,0.6,2.11,1.52c0.21,0.48,0.3,0.98,0.39,1.47c0.07,0.39,0.13,0.75,0.26,1.09c0.02,0.05,0.04,0.1,0.06,0.15
				c0-0.03-0.01-0.06-0.01-0.09l-0.09-0.66c-0.06-0.46-0.13-0.93-0.2-1.39c-0.06-0.44-0.08-0.94,0.28-1.45
				c0.31-0.43,0.68-0.74,1.12-0.98c-0.01-0.02-0.03-0.06-0.04-0.09c-0.78-1.77-0.64-3.43,0.4-4.64c0.04-0.05,0.06-0.07,0.07-0.09
				c-0.01,0.02-0.02-0.04-0.03-0.06c-0.15-0.65-0.11-1.29-0.08-1.9c0.01-0.19,0.02-0.38,0.03-0.56l0.04-0.84
				c0.02-0.55,0.05-1.1,0.07-1.65c0.03-0.57,0.05-1.13,0.07-1.69l0.03-0.82c0-0.2,0.11-0.41,0.3-0.53c0.18-0.12,0.41-0.14,0.6-0.06
				c0.35,0.15,0.65,0.37,0.91,0.64c0.17,0.16,0.32,0.37,0.41,0.51c0.6,0.98,0.76,2.13,0.82,2.92c0.03,0.38,0.04,0.8,0.04,1.28
				l-0.01,0.25c-0.02,0.38-0.03,0.6,0.13,0.87l0.49,0.81c0.82,1.34,1.61,2.73,2.38,4.08l0.63,1.11c0.17,0.3,0.34,0.6,0.51,0.9
				c-0.05-0.63-0.15-1.18-0.33-1.76c-0.41-1.38-0.35-2.64,0.19-3.83c0.11-0.26,0.41-0.77,0.83-1.03c0.32-0.18,0.62-0.21,0.91-0.08
				c0.64,0.27,0.79,1.2,0.89,1.82l0.11,0.58c0.04,0.2,0.07,0.39,0.11,0.58c0.56,2.82,1.29,5.11,2.29,7.21l0.16,0.35
				c0.32,0.68,0.65,1.38,0.89,2.12c0.06,0.16,0.11,0.34,0.15,0.52c0.03,0.12,0.06,0.24,0.08,0.36c0.21,1.04,0.25,2.16,0.13,3.42
				c-0.06,0.6-0.16,1.23-0.31,1.98c-0.03,0.15-0.06,0.3-0.09,0.45c-0.07,0.35-0.16,0.72-0.24,1.09c-0.11,0.51-0.23,1.06-0.32,1.63
				c-0.1,0.61-0.16,1.17-0.17,1.72v0.44c0,0.72,0.03,1.49,0.08,2.28c0.01,0.1,0.01,0.22,0.01,0.34c0.01,0.31,0.05,0.94,0.07,1.26
				l-0.88,0.08c-0.03-0.34-0.07-1-0.08-1.33c0-0.11,0-0.21-0.01-0.3c-0.05-0.82-0.08-1.6-0.08-2.34v-0.45
				c0.01-0.6,0.07-1.2,0.18-1.85c0.09-0.59,0.21-1.16,0.33-1.69c0.08-0.36,0.16-0.72,0.24-1.08c0.04-0.15,0.06-0.28,0.09-0.42
				c0.15-0.74,0.25-1.33,0.3-1.9c0.11-1.17,0.07-2.2-0.12-3.17c-0.02-0.1-0.05-0.21-0.07-0.32c-0.04-0.15-0.08-0.31-0.13-0.46
				c-0.22-0.7-0.52-1.34-0.85-2.02l-0.16-0.35c-1.03-2.17-1.78-4.52-2.36-7.41c-0.04-0.19-0.08-0.39-0.12-0.59l-0.11-0.6
				c-0.15-0.93-0.3-1.12-0.37-1.15c-0.03-0.01-0.1,0.02-0.11,0.03c-0.17,0.1-0.38,0.4-0.47,0.62c-0.45,1-0.5,2.06-0.15,3.23
				c0.31,1.02,0.42,1.98,0.39,3.21c-0.02,0.39-0.16,0.61-0.42,0.68c-0.17,0.04-0.43,0.01-0.64-0.36c-0.37-0.66-0.75-1.31-1.12-1.98
				l-0.63-1.11c-0.76-1.34-1.55-2.72-2.37-4.06l-0.49-0.81c-0.3-0.5-0.28-0.94-0.26-1.37l0.01-0.23c0.01-0.45,0-0.84-0.03-1.19
				c-0.09-1.1-0.31-1.9-0.69-2.52c-0.1-0.15-0.2-0.27-0.29-0.37c-0.1-0.11-0.2-0.2-0.31-0.28l-0.02,0.47
				c-0.02,0.56-0.04,1.13-0.07,1.69c-0.02,0.54-0.04,1.09-0.07,1.65l-0.04,0.83c-0.01,0.19-0.02,0.39-0.03,0.58
				c-0.03,0.58-0.06,1.12,0.06,1.65c0.02,0.11,0.06,0.28,0.02,0.47c-0.05,0.21-0.18,0.37-0.26,0.45c-1.03,1.2-0.7,2.68-0.25,3.72
				c0.09,0.23,0.23,0.61-0.02,0.95c-0.13,0.15-0.26,0.22-0.35,0.27c-0.32,0.17-0.59,0.4-0.81,0.72c-0.15,0.21-0.18,0.4-0.13,0.82
				c0.07,0.45,0.13,0.92,0.2,1.39l0.09,0.67c0.05,0.4,0.23,1.17,0.31,1.49c0.03,0.13,0.05,0.21,0.05,0.22l0.02,0.13
				c0.05,0.28,0.12,0.62-0.23,0.76l-0.33,0.14l-0.22-0.32c-0.11-0.17-0.25-0.34-0.38-0.52c-0.37-0.48-0.75-0.98-0.96-1.55
				c-0.15-0.41-0.23-0.83-0.3-1.24c-0.08-0.45-0.16-0.88-0.33-1.27c-0.17-0.39-0.53-0.84-1.03-0.96c0.12,0.78,0.33,2.16,0.35,2.36
				c0.21,1.74,0.61,3.03,1.25,4.06c0.13,0.2,0.26,0.39,0.41,0.58c0.14,0.17,0.29,0.32,0.45,0.47c0.18,0.17,0.37,0.32,0.55,0.48
				c0.28,0.24,0.57,0.48,0.83,0.74c0.09,0.09,0.18,0.2,0.27,0.3c0.37,0.44,0.68,0.94,0.95,1.5c0.17,0.36,0.35,0.73,0.53,1.09
				c0.21,0.42,0.44,0.83,0.68,1.22l0.06,0.11c0.15,0.24,0.34,0.51,0.53,0.78c0.34,0.5,0.69,1.01,0.98,1.56
				c0.43,0.82,0.6,1.74,0.74,2.55l0.09,0.46c0.1,0.48,0.16,0.91,0.22,1.37c0.07,0.46,0.14,0.94,0.25,1.52L23.56,52.68z M20.38,17.79
				l0,0.02C20.38,17.8,20.38,17.8,20.38,17.79z"/>
		</g>
		<g>
			<path class="st0" d="M19.42,25.53c1.07,2.43,2.15,4.87,3.22,7.3c0.15,0.34,0.3,0.69,0.45,1.03c0.22,0.49,0.94,0.07,0.72-0.42
				c-1.07-2.43-2.15-4.87-3.22-7.3c-0.15-0.34-0.3-0.69-0.45-1.03C19.93,24.62,19.21,25.04,19.42,25.53L19.42,25.53z"/>
		</g>
		<g>
			<path class="st0" d="M21.66,35.57c-0.35-1.01-0.71-2.03-1.05-3.04c-0.22-0.65-0.38-1.33-0.61-1.98
				c-0.08-0.23-0.17-0.45-0.25-0.68c-0.02-0.06-0.05-0.13-0.07-0.19c-0.09-0.19,0.06-0.11-0.08,0.19c0.23-0.48-0.49-0.91-0.72-0.42
				c-0.15,0.32,0.1,0.72,0.22,1.02c0.25,0.66,0.41,1.35,0.63,2.01c0.37,1.11,0.76,2.21,1.15,3.31
				C21.03,36.29,21.84,36.08,21.66,35.57L21.66,35.57z"/>
		</g>
		<g>
			<path class="st0" d="M19.28,37.83c-0.04-0.19-0.06-0.39-0.09-0.58c-0.05-0.3-0.09-0.59-0.14-0.89c-0.01-0.07-0.02-0.14-0.03-0.21
				c-0.01-0.1-0.11-0.2-0.19-0.25c-0.09-0.05-0.22-0.07-0.32-0.04c-0.1,0.03-0.2,0.1-0.25,0.19c-0.06,0.11-0.06,0.2-0.04,0.32
				c0.07,0.48,0.15,0.97,0.22,1.45c0.01,0.08,0.02,0.16,0.04,0.23c0.05,0.21,0.31,0.36,0.51,0.29
				C19.22,38.27,19.33,38.06,19.28,37.83L19.28,37.83z"/>
		</g>
		<g>
			<path class="st0" d="M26.56,32.02c0.3,0.55,0.59,1.11,0.89,1.66c0.04,0.08,0.09,0.16,0.13,0.24c0.1,0.19,0.39,0.27,0.57,0.15
				c0.2-0.13,0.26-0.37,0.15-0.57c-0.3-0.55-0.59-1.11-0.89-1.66c-0.04-0.08-0.09-0.16-0.13-0.24c-0.1-0.19-0.39-0.27-0.57-0.15
				C26.51,31.58,26.45,31.82,26.56,32.02L26.56,32.02z"/>
		</g>
		<g>
			<path class="st0" d="M31.22,50.72c0.01,0.43,0.04,0.87,0.08,1.3c0.01,0.11,0.04,0.21,0.12,0.3c0.07,0.07,0.19,0.13,0.3,0.12
				c0.21-0.01,0.44-0.18,0.42-0.42c-0.04-0.43-0.07-0.87-0.08-1.3c0-0.22-0.19-0.43-0.42-0.42C31.42,50.32,31.22,50.49,31.22,50.72
				L31.22,50.72z"/>
		</g>
		<g>
			<path class="st0" d="M24.4,52.48c-0.18-0.96-0.28-1.92-0.47-2.88c-0.04-0.22-0.31-0.35-0.51-0.29c-0.23,0.06-0.34,0.29-0.29,0.51
				c0.19,0.95,0.29,1.92,0.47,2.88c0.04,0.22,0.31,0.35,0.51,0.29C24.34,52.93,24.44,52.71,24.4,52.48L24.4,52.48z"/>
		</g>
	</g>
</g>
</svg>
