<?xml version="1.0" encoding="utf-8"?>
<!-- Generator: Adobe Illustrator 27.2.0, SVG Export Plug-In . SVG Version: 6.00 Build 0)  -->
<svg version="1.1" id="Layer_1" xmlns="http://www.w3.org/2000/svg" xmlns:xlink="http://www.w3.org/1999/xlink" x="0px" y="0px"
	 viewBox="0 0 54.72 63.62" style="enable-background:new 0 0 54.72 63.62;" xml:space="preserve">
<style type="text/css">
	.st0{fill:#4F4C4D;}
	.st1{fill:url(#SVGID_1_);}
	.st2{fill:url(#SVGID_00000159445013249285099390000017708592704732769927_);}
	
		.st3{clip-path:url(#SVGID_00000026880504358979153400000017987252880167733665_);fill:url(#SVGID_00000052814737829171562770000005156077603382440364_);}
	
		.st4{clip-path:url(#SVGID_00000026880504358979153400000017987252880167733665_);fill:url(#SVGID_00000020388912343793019170000002531358316328293288_);}
	
		.st5{clip-path:url(#SVGID_00000026880504358979153400000017987252880167733665_);fill:url(#SVGID_00000124149141636373779930000014257949273543256970_);}
	
		.st6{clip-path:url(#SVGID_00000026880504358979153400000017987252880167733665_);fill:url(#SVGID_00000158715025929899324880000008870051877918280127_);}
	
		.st7{clip-path:url(#SVGID_00000026880504358979153400000017987252880167733665_);fill:url(#SVGID_00000132797949980880529960000017724526018041466241_);}
	
		.st8{clip-path:url(#SVGID_00000026880504358979153400000017987252880167733665_);fill:url(#SVGID_00000176025686185769758920000001081530055887740562_);}
	
		.st9{clip-path:url(#SVGID_00000026880504358979153400000017987252880167733665_);fill:url(#SVGID_00000018201172823713722070000015651237840318539398_);}
	
		.st10{clip-path:url(#SVGID_00000026880504358979153400000017987252880167733665_);fill:url(#SVGID_00000153686626038469583590000000368036348540087217_);}
	
		.st11{clip-path:url(#SVGID_00000026880504358979153400000017987252880167733665_);fill:url(#SVGID_00000147183566963847484940000011707242205215061163_);}
	
		.st12{clip-path:url(#SVGID_00000026880504358979153400000017987252880167733665_);fill:url(#SVGID_00000153674189769452164190000007783110587339757480_);}
	
		.st13{clip-path:url(#SVGID_00000026880504358979153400000017987252880167733665_);fill:url(#SVGID_00000165231921049585609090000007389198736728052134_);}
	
		.st14{clip-path:url(#SVGID_00000026880504358979153400000017987252880167733665_);fill:url(#SVGID_00000096777133701591161890000011887819864838121405_);}
	
		.st15{clip-path:url(#SVGID_00000026880504358979153400000017987252880167733665_);fill:url(#SVGID_00000069381939976411641690000010501009408010242691_);}
	
		.st16{clip-path:url(#SVGID_00000026880504358979153400000017987252880167733665_);fill:url(#SVGID_00000073687144573182902960000006181533050504921265_);}
	
		.st17{clip-path:url(#SVGID_00000026880504358979153400000017987252880167733665_);fill:url(#SVGID_00000091016448988960596320000003154456685874579372_);}
	
		.st18{clip-path:url(#SVGID_00000026880504358979153400000017987252880167733665_);fill:url(#SVGID_00000181087515713895861440000005445221175050498203_);}
	.st19{clip-path:url(#SVGID_00000026880504358979153400000017987252880167733665_);}
	.st20{fill:url(#SVGID_00000044880662281612259160000009353373822416879274_);}
	.st21{fill:url(#SVGID_00000038380894115057550430000012007603287121465279_);}
	.st22{fill:url(#SVGID_00000138543443978326998250000003116141411306309017_);}
	.st23{fill:url(#SVGID_00000088117105748913131360000004353604329711451556_);}
	
		.st24{clip-path:url(#SVGID_00000026880504358979153400000017987252880167733665_);fill:url(#SVGID_00000053513561529184487850000012274256250589904028_);}
	
		.st25{clip-path:url(#SVGID_00000026880504358979153400000017987252880167733665_);fill:url(#SVGID_00000163065075392181022890000007573336654120862877_);}
	
		.st26{clip-path:url(#SVGID_00000026880504358979153400000017987252880167733665_);fill:url(#SVGID_00000011018531735894214450000012082514046696350365_);}
	
		.st27{clip-path:url(#SVGID_00000026880504358979153400000017987252880167733665_);fill:url(#SVGID_00000147199439327360333070000018281274414998719154_);}
	
		.st28{clip-path:url(#SVGID_00000026880504358979153400000017987252880167733665_);fill:url(#SVGID_00000127742727479526724630000008882344535811727541_);}
	
		.st29{clip-path:url(#SVGID_00000026880504358979153400000017987252880167733665_);fill:url(#SVGID_00000075137622287072740490000006488658338346239160_);}
	
		.st30{clip-path:url(#SVGID_00000026880504358979153400000017987252880167733665_);fill:url(#SVGID_00000127753247796236726170000016224284554534444713_);}
	
		.st31{clip-path:url(#SVGID_00000026880504358979153400000017987252880167733665_);fill:url(#SVGID_00000158746418470184079100000011978550574709145518_);}
	
		.st32{clip-path:url(#SVGID_00000026880504358979153400000017987252880167733665_);fill:url(#SVGID_00000153681753025785975300000012259793080483963577_);}
	
		.st33{clip-path:url(#SVGID_00000026880504358979153400000017987252880167733665_);fill:url(#SVGID_00000073698644877287847690000016222025693105136819_);}
	
		.st34{clip-path:url(#SVGID_00000026880504358979153400000017987252880167733665_);fill:url(#SVGID_00000044161568363732856130000011673678669227797694_);}
	
		.st35{clip-path:url(#SVGID_00000026880504358979153400000017987252880167733665_);fill:url(#SVGID_00000072976972966412688780000012781943217556989887_);}
	
		.st36{clip-path:url(#SVGID_00000026880504358979153400000017987252880167733665_);fill:url(#SVGID_00000119802420717908817480000012615653217191894454_);}
	
		.st37{clip-path:url(#SVGID_00000026880504358979153400000017987252880167733665_);fill:url(#SVGID_00000129186843416354722120000006123989340393743000_);}
	
		.st38{clip-path:url(#SVGID_00000026880504358979153400000017987252880167733665_);fill:url(#SVGID_00000150091360278192423200000012586359286251209399_);}
	
		.st39{clip-path:url(#SVGID_00000026880504358979153400000017987252880167733665_);fill:url(#SVGID_00000152949586076109288920000010649246288064771505_);}
	.st40{fill:url(#SVGID_00000119105134165257553110000017548344536833558665_);}
	.st41{fill:url(#SVGID_00000140728534390084688590000011290400402257445045_);}
	.st42{fill:url(#SVGID_00000133531405724786612630000002525646836380602556_);}
	.st43{fill:url(#SVGID_00000160187960019961204320000004654874667504300973_);}
	
		.st44{clip-path:url(#SVGID_00000026880504358979153400000017987252880167733665_);fill:url(#SVGID_00000109009497527632385190000018270512716476575891_);}
	
		.st45{clip-path:url(#SVGID_00000026880504358979153400000017987252880167733665_);fill:url(#SVGID_00000114036639416202716850000006782082744820941450_);}
	
		.st46{clip-path:url(#SVGID_00000026880504358979153400000017987252880167733665_);fill:url(#SVGID_00000149365715877235065570000014735515038255766700_);}
	
		.st47{clip-path:url(#SVGID_00000026880504358979153400000017987252880167733665_);fill:url(#SVGID_00000174602379825512877400000016906206967484436115_);}
	
		.st48{clip-path:url(#SVGID_00000026880504358979153400000017987252880167733665_);fill:url(#SVGID_00000111899602934776049040000000645545527045921938_);}
	
		.st49{clip-path:url(#SVGID_00000026880504358979153400000017987252880167733665_);fill:url(#SVGID_00000060013537715621405100000005462512339648290223_);}
	
		.st50{clip-path:url(#SVGID_00000026880504358979153400000017987252880167733665_);fill:url(#SVGID_00000021111631804114260630000018041948618163932574_);}
	
		.st51{clip-path:url(#SVGID_00000026880504358979153400000017987252880167733665_);fill:url(#SVGID_00000052806131530085550450000008066491430997103518_);}
	
		.st52{clip-path:url(#SVGID_00000026880504358979153400000017987252880167733665_);fill:url(#SVGID_00000168838886144172331100000006451885910354200990_);}
	
		.st53{clip-path:url(#SVGID_00000026880504358979153400000017987252880167733665_);fill:url(#SVGID_00000012448968821422395610000004016640854718898308_);}
	
		.st54{clip-path:url(#SVGID_00000026880504358979153400000017987252880167733665_);fill:url(#SVGID_00000070109492338646902610000012761207937463995582_);}
	
		.st55{clip-path:url(#SVGID_00000026880504358979153400000017987252880167733665_);fill:url(#SVGID_00000082363006434637352720000001952230202848125113_);}
	
		.st56{clip-path:url(#SVGID_00000026880504358979153400000017987252880167733665_);fill:url(#SVGID_00000079468710172029347550000015525252832256307374_);}
	
		.st57{clip-path:url(#SVGID_00000026880504358979153400000017987252880167733665_);fill:url(#SVGID_00000002342619140613851590000008755027475938744475_);}
	
		.st58{clip-path:url(#SVGID_00000026880504358979153400000017987252880167733665_);fill:url(#SVGID_00000057865701074925770530000015867732019906476728_);}
	
		.st59{clip-path:url(#SVGID_00000026880504358979153400000017987252880167733665_);fill:url(#SVGID_00000161593733924047872680000014856830597424078250_);}
	.st60{fill:url(#SVGID_00000167363023792646411960000009410184871578637487_);}
	.st61{fill:url(#SVGID_00000018955450105901100730000012498215969587254202_);}
	.st62{fill:url(#SVGID_00000034081114368776535130000013326746831271449001_);}
	.st63{fill:url(#SVGID_00000160880602040619665100000002436074938341642899_);}
	
		.st64{clip-path:url(#SVGID_00000026880504358979153400000017987252880167733665_);fill:url(#SVGID_00000034811726187179894970000002113850106692277131_);}
	
		.st65{clip-path:url(#SVGID_00000026880504358979153400000017987252880167733665_);fill:url(#SVGID_00000165955998229448282540000006904652509922445466_);}
	
		.st66{clip-path:url(#SVGID_00000026880504358979153400000017987252880167733665_);fill:url(#SVGID_00000099650986517756220180000013034876426286276013_);}
	
		.st67{clip-path:url(#SVGID_00000026880504358979153400000017987252880167733665_);fill:url(#SVGID_00000008846409121811050820000002706179107239498921_);}
	
		.st68{clip-path:url(#SVGID_00000026880504358979153400000017987252880167733665_);fill:url(#SVGID_00000127014794105612833960000007991005398449143711_);}
	
		.st69{clip-path:url(#SVGID_00000026880504358979153400000017987252880167733665_);fill:url(#SVGID_00000008867285236245707110000010848061986257128878_);}
	
		.st70{clip-path:url(#SVGID_00000026880504358979153400000017987252880167733665_);fill:url(#SVGID_00000108302841773817626410000007139571296171204504_);}
	
		.st71{clip-path:url(#SVGID_00000026880504358979153400000017987252880167733665_);fill:url(#SVGID_00000000945168073259540510000003729062210150403499_);}
	
		.st72{clip-path:url(#SVGID_00000026880504358979153400000017987252880167733665_);fill:url(#SVGID_00000109022424195308314350000012946987979907205007_);}
	
		.st73{clip-path:url(#SVGID_00000026880504358979153400000017987252880167733665_);fill:url(#SVGID_00000138534330264339978200000002425162505810182028_);}
	
		.st74{clip-path:url(#SVGID_00000026880504358979153400000017987252880167733665_);fill:url(#SVGID_00000026874367162053280350000011388204302824230784_);}
	
		.st75{clip-path:url(#SVGID_00000026880504358979153400000017987252880167733665_);fill:url(#SVGID_00000093877253969550742390000012482821066419352236_);}
	
		.st76{clip-path:url(#SVGID_00000026880504358979153400000017987252880167733665_);fill:url(#SVGID_00000140729794601687796390000001700293040460172195_);}
	
		.st77{clip-path:url(#SVGID_00000026880504358979153400000017987252880167733665_);fill:url(#SVGID_00000107552407979566984230000008572824340586076607_);}
	
		.st78{clip-path:url(#SVGID_00000026880504358979153400000017987252880167733665_);fill:url(#SVGID_00000174602504851964215710000003691108571688852660_);}
	
		.st79{clip-path:url(#SVGID_00000026880504358979153400000017987252880167733665_);fill:url(#SVGID_00000102507185200410414550000011379620457090651058_);}
	.st80{fill:url(#SVGID_00000126293035923182526320000009286155236378643614_);}
	.st81{fill:url(#SVGID_00000086679063696690046510000011767870684730084770_);}
	.st82{fill:url(#SVGID_00000048474035314319511070000005630085117792732599_);}
	.st83{fill:url(#SVGID_00000150074253047660144760000012729383347021838239_);}
	.st84{fill:url(#SVGID_00000124876597880504137600000007431215263032862358_);}
	.st85{fill:url(#SVGID_00000124130049114853977680000000968759093389459647_);}
	.st86{fill:url(#SVGID_00000061462856055356293030000012267636522999817112_);}
	.st87{fill:url(#SVGID_00000154412794409253985090000015553395124302996108_);}
	.st88{fill:url(#SVGID_00000090999815581829749490000009495971982444714168_);}
	.st89{fill:url(#SVGID_00000010301445428516635870000013551397453778892988_);}
	.st90{clip-path:url(#SVGID_00000114057230493648068860000002167011980007386549_);}
	.st91{fill:url(#SVGID_00000183931637481204557840000010569440007350465664_);}
	.st92{fill:url(#SVGID_00000153680476954114118440000013199706278689256895_);}
	.st93{fill:url(#SVGID_00000046306436621662855670000014269155377087639173_);}
	.st94{fill:url(#SVGID_00000003802093546770075060000001000978800978371748_);}
	.st95{fill:url(#SVGID_00000104696250955364920160000017985214942954822076_);}
	.st96{fill:url(#SVGID_00000170975011325218677880000001892271706128151941_);}
	.st97{fill:url(#SVGID_00000128445231329244455790000004184223287711668925_);}
	.st98{fill:none;stroke:#666364;stroke-miterlimit:10;}
	.st99{fill:#666364;}
	.st100{fill:#FFFFFF;}
	.st101{fill:#C1C0C1;}
	.st102{fill:none;stroke:#4F4C4D;stroke-width:0.0179;stroke-miterlimit:10;}
	.st103{fill:#D5D4D5;}
	.st104{clip-path:url(#SVGID_00000163759168973180493380000002558024281263803307_);}
	.st105{fill:none;stroke:#4F4C4D;stroke-width:0.8884;stroke-linecap:round;stroke-linejoin:round;stroke-miterlimit:10;}
	.st106{fill:none;stroke:#4F4C4D;stroke-width:0.8448;stroke-linecap:round;stroke-linejoin:round;stroke-miterlimit:10;}
	.st107{fill:none;stroke:#4F4C4D;stroke-width:0.9746;stroke-linecap:round;stroke-linejoin:round;stroke-miterlimit:10;}
	.st108{fill:none;stroke:#4F4C4D;stroke-width:0.8608;stroke-linecap:round;stroke-linejoin:round;stroke-miterlimit:10;}
	
		.st109{fill:none;stroke:#4F4C4D;stroke-width:0.8608;stroke-linecap:round;stroke-linejoin:round;stroke-miterlimit:10;stroke-dasharray:1.0632;}
	.st110{fill:none;stroke:#4F4C4D;stroke-width:0.9757;stroke-linecap:round;stroke-linejoin:round;stroke-miterlimit:10;}
	.st111{fill:none;stroke:#4F4C4D;stroke-width:1.1046;stroke-linecap:round;stroke-linejoin:round;stroke-miterlimit:10;}
	.st112{fill:none;stroke:#4F4C4D;stroke-width:1.0333;stroke-linecap:round;stroke-linejoin:round;stroke-miterlimit:10;}
	
		.st113{fill:none;stroke:#4F4C4D;stroke-width:1.0333;stroke-linecap:round;stroke-linejoin:round;stroke-miterlimit:10;stroke-dasharray:1.2;}
	.st114{fill:none;stroke:#4F4C4D;stroke-linecap:round;stroke-linejoin:round;stroke-miterlimit:10;}
	.st115{fill:none;stroke:#4F4C4D;stroke-linecap:round;stroke-linejoin:round;stroke-miterlimit:10;stroke-dasharray:1.0878;}
</style>
<g>
	<g>
		<path class="st0" d="M27.36,60.49L2.69,46.25V17.76L27.36,3.52l24.67,14.24v28.48L27.36,60.49z M4.53,45.18l22.83,13.18
			l22.83-13.18V18.83L27.36,5.65L4.53,18.83V45.18z"/>
	</g>
</g>
<g>
	<path class="st0" d="M17.59,45.26c-1.18,0.02-2.36-0.07-3.53,0.3c-1.68,0.53-3.4,0.95-5.1,1.42c-0.75,0.21-1.03-0.01-1.03-0.78
		c0-4.04,0-8.08,0-12.12c0-0.69,0.17-0.86,0.87-0.86c1.02,0,2.03-0.01,3.05,0c0.58,0.01,1.05-0.21,1.42-0.65
		c0.36-0.42,0.71-0.85,1.05-1.28c0.08-0.1,0.13-0.24,0.17-0.37c1.74-5.71,5.47-9.42,11.22-11.06c0.23-0.07,0.31-0.18,0.35-0.4
		c0.15-0.94,0.65-1.65,1.47-2.12c0.2-0.11,0.28-0.22,0.28-0.46c0.02-1.68,1.23-3.13,2.86-3.47c1.65-0.34,3.31,0.47,4.02,2.01
		c0.11,0.24,0.24,0.31,0.5,0.32c1.19,0.06,2.13,0.59,2.83,1.56c0.08,0.11,0.21,0.23,0.33,0.24c1.5,0.2,2.58,0.96,3.1,2.4
		c0.52,1.44,0.15,2.71-0.89,3.84c0.18,0.19,0.37,0.39,0.55,0.59c2.9,3.2,4.3,6.96,4.16,11.27c-0.24,7.36-5.81,13.65-13.09,14.81
		c-4.19,0.67-8.04-0.22-11.54-2.62c-0.13-0.09-0.28-0.18-0.43-0.2c-1.32-0.22-2.16-0.98-2.54-2.26
		C17.63,45.34,17.61,45.31,17.59,45.26z M9.14,45.65c0.12-0.03,0.22-0.04,0.31-0.07c1.18-0.32,2.38-0.61,3.55-0.97
		c1.33-0.41,2.67-0.59,4.07-0.57c3.27,0.05,6.55,0.02,9.82,0.02c0.13,0,0.25,0.01,0.38-0.01c0.32-0.06,0.52-0.26,0.52-0.59
		c0-0.33-0.2-0.53-0.52-0.59c-0.11-0.02-0.23-0.01-0.34-0.01c-1.78,0-3.56,0-5.35,0c-0.13,0-0.26,0-0.4,0c0-0.43,0-0.8,0-1.2
		c0.15,0,0.29,0,0.42,0c2.37,0,4.74,0,7.11,0c0.13,0,0.25,0.01,0.38-0.01c0.3-0.07,0.49-0.26,0.5-0.58c0-0.33-0.19-0.54-0.51-0.6
		c-0.12-0.02-0.25-0.01-0.38-0.01c-2.37,0-4.74,0-7.11,0c-0.13,0-0.27,0-0.4,0c0-0.43,0-0.81,0-1.2c0.16,0,0.3,0,0.44,0
		c2.95,0,5.9,0,8.85,0c0.11,0,0.23,0.01,0.34,0c0.35-0.03,0.59-0.28,0.59-0.61c-0.01-0.31-0.24-0.55-0.58-0.59
		c-0.11-0.01-0.23,0-0.34,0c-2.96,0-5.92,0-8.88,0c-0.13,0-0.27,0-0.42,0c0-0.42,0-0.8,0-1.2c0.16,0,0.29,0,0.43,0
		c2.36,0,4.72,0,7.08,0c0.13,0,0.25,0.01,0.38-0.01c0.32-0.06,0.52-0.26,0.52-0.59c0-0.33-0.2-0.53-0.52-0.59
		c-0.12-0.02-0.25-0.01-0.38-0.01c-3.06,0-6.12,0-9.18,0c-0.35,0-0.63-0.1-0.72-0.46c-0.09-0.35,0.11-0.57,0.39-0.73
		c0.59-0.35,1.21-0.67,1.77-1.07c0.83-0.59,1.75-0.89,2.74-1.05c0.17-0.03,0.34-0.07,0.51-0.11c0.45-0.11,0.62-0.37,0.58-0.82
		c-0.04-0.38-0.28-0.58-0.74-0.58c-0.69,0-1.38-0.04-2.07,0.01c-0.4,0.03-0.82,0.12-1.18,0.31c-0.99,0.52-1.95,1.08-2.91,1.65
		c-0.32,0.19-0.61,0.44-0.85,0.72c-0.97,1.14-1.88,2.32-2.87,3.44c-0.33,0.37-0.79,0.65-1.23,0.89c-0.3,0.15-0.68,0.19-1.02,0.2
		c-0.92,0.03-1.85,0.01-2.78,0.01C9.14,40.59,9.14,43.1,9.14,45.65z M15.3,33.7c0.25-0.31,0.48-0.64,0.77-0.92
		c0.41-0.39,0.84-0.79,1.31-1.1c0.35-0.22,0.48-0.4,0.28-0.78c-0.09-0.17-0.1-0.39-0.1-0.59c-0.05-1.52,0.98-2.79,2.49-3.08
		c0.21-0.04,0.45-0.12,0.58-0.26c2.94-3.11,6.53-4.45,10.77-3.86c7.08,0.99,11.74,8.14,9.83,15.05c-1.43,5.19-5.98,8.74-11.38,8.9
		c-0.14,0-0.3,0.05-0.42,0.12c-0.54,0.33-1.12,0.48-1.75,0.48c-1.52-0.01-3.04,0-4.56,0c-0.12,0-0.24,0-0.36,0
		c0.07,0.11,0.15,0.17,0.23,0.21c4.71,2.28,9.39,2.2,13.93-0.42c5.23-3.02,7.9-8.84,6.91-14.87c-0.51-3.09-1.93-5.73-4.16-7.92
		c-0.09-0.09-0.29-0.14-0.41-0.1c-2.27,0.71-4.38-0.54-4.79-2.87c-0.04-0.22-0.13-0.33-0.35-0.41c-2.01-0.66-4.07-0.93-6.16-0.63
		c-5.99,0.87-10.04,4.17-12.1,9.87C15.5,31.54,15.3,32.6,15.3,33.7z M30.6,45.77c3.85-0.23,8.42-3.12,9.6-8.44
		c1.12-5.04-1.55-10.22-6.24-12.25c-4.62-2-9.45-0.36-11.75,2.1c0.15,0,0.27,0,0.39,0c1.72,0,3.44,0,5.16,0
		c1.4,0,2.51,0.82,2.93,2.16c0.03,0.08,0.05,0.16,0.08,0.23c0.06,0.01,0.1,0.02,0.13,0.02c2,0.11,3.47,1.3,4.01,3.22
		c0.04,0.16,0.19,0.31,0.33,0.41c2.1,1.44,2.14,4.48,0.05,5.94c-0.2,0.14-0.27,0.28-0.3,0.51c-0.24,1.86-1.48,3.25-3.25,3.66
		c-0.37,0.09-0.76,0.1-1.17,0.15C30.87,44.24,30.89,44.99,30.6,45.77z M28.54,34.39c0.02-0.08,0.04-0.15,0.06-0.22
		c0.3-1.14,0.56-2.29,0.9-3.41c0.36-1.18-0.42-2.36-1.66-2.37c-2.43-0.02-4.87-0.01-7.3,0c-0.9,0-1.64,0.68-1.75,1.56
		c-0.03,0.26,0.04,0.54,0.07,0.87c0.55-0.31,0.97-0.61,1.44-0.81c0.47-0.19,0.97-0.37,1.46-0.41c0.8-0.07,1.6-0.03,2.41-0.02
		c0.95,0.01,1.72,0.7,1.81,1.63c0.11,1.06-0.45,1.91-1.42,2.13c-0.54,0.12-1.09,0.2-1.61,0.36c-0.45,0.14-0.87,0.38-1.3,0.58
		c0.01,0.03,0.03,0.07,0.04,0.1C23.97,34.39,26.25,34.39,28.54,34.39z M30.73,36.79c0.11,0.01,0.21,0.02,0.3,0.04
		c0.75,0.13,1.31,0.53,1.48,1.26c0.11,0.47,0.35,0.54,0.73,0.52c0.2-0.01,0.4-0.02,0.59-0.08c0.89-0.24,1.49-0.81,1.73-1.71
		c0.22-0.83,0.02-1.58-0.58-2.26c-0.07,0.23-0.14,0.41-0.21,0.63c-0.38-0.14-0.74-0.27-1.09-0.39c0.43-2.3-0.92-4.13-2.91-3.99
		c-0.38,0.79-0.94,2.81-0.99,3.57c0,0.09,0.06,0.22,0.13,0.26C30.67,35.16,30.94,35.85,30.73,36.79z M34.58,20.12
		c0.37-1.12,1.12-1.91,2.21-2.36c-0.41-0.53-1.15-0.86-1.73-0.77c-0.04,0.26-0.08,0.51-0.12,0.8c-0.41-0.1-0.78-0.19-1.15-0.28
		c0.17-1.13-0.17-2.03-1.12-2.62c-0.83-0.51-1.7-0.49-2.53,0.03c-0.73,0.46-1.09,1.13-1.12,2c1.55,0.17,2.56,0.93,2.94,2.45
		c0.02,0.08,0.13,0.18,0.21,0.2C32.95,19.76,33.75,19.93,34.58,20.12z M38.04,18.75c-1.33,0-2.41,1.08-2.41,2.41
		c0,1.32,1.07,2.39,2.39,2.4c1.33,0.01,2.43-1.07,2.43-2.4C40.45,19.84,39.38,18.75,38.04,18.75z M28.98,42.77
		c-0.04,0.14-0.05,0.16-0.05,0.18c0.22,1.42-0.53,2.31-1.97,2.31c-2.55,0-5.09,0-7.64,0c-0.13,0-0.26,0-0.41,0
		c0.2,0.7,0.84,1.18,1.58,1.2c0.34,0.01,0.68,0,1.02,0c2.08,0,4.16,0.01,6.25,0c1.15-0.01,2.04-1.04,1.81-2.09
		c-0.1-0.44-0.23-0.87-0.36-1.3C29.19,42.97,29.09,42.9,28.98,42.77z M9.14,36.82c1,0,1.97,0.01,2.93-0.01
		c0.61-0.01,1.8-0.96,1.86-1.53c0.06-0.56,0.01-1.13,0.01-1.68c-1.03,0.74-1.23,0.8-2.59,0.8c-0.73,0-1.47,0-2.22,0
		C9.14,35.23,9.14,36,9.14,36.82z M30.71,40.45c0.22,0.65,0.06,1.21-0.28,1.74c1.49,0.28,3.12-0.89,3.3-2.32
		c-0.44-0.04-0.89-0.09-1.33-0.12c-0.07-0.01-0.18,0.03-0.22,0.08C31.79,40.23,31.31,40.42,30.71,40.45z M30.66,19.36
		c-0.2-0.73-0.93-1.24-1.72-1.21c-0.8,0.02-1.5,0.6-1.64,1.35c0.55-0.05,1.1-0.11,1.65-0.13C29.51,19.34,30.07,19.36,30.66,19.36z"
		/>
	<path class="st0" d="M16.94,16.94c1.33-0.01,2.43,1.07,2.43,2.4c0,1.33-1.08,2.42-2.41,2.42c-1.31,0-2.4-1.07-2.41-2.38
		C14.53,18.04,15.61,16.95,16.94,16.94z M16.96,18.15c-0.66,0-1.2,0.53-1.2,1.19c-0.01,0.65,0.53,1.21,1.18,1.21
		c0.67,0.01,1.23-0.54,1.22-1.21C18.15,18.69,17.61,18.15,16.96,18.15z"/>
</g>
</svg>
