<?xml version="1.0" encoding="utf-8"?>
<!-- Generator: Adobe Illustrator 27.2.0, SVG Export Plug-In . SVG Version: 6.00 Build 0)  -->
<svg version="1.1" id="Layer_1" xmlns="http://www.w3.org/2000/svg" xmlns:xlink="http://www.w3.org/1999/xlink" x="0px" y="0px"
	 viewBox="0 0 54.72 63.62" style="enable-background:new 0 0 54.72 63.62;" xml:space="preserve">
<style type="text/css">
	.st0{fill:#4F4C4D;}
	.st1{fill:url(#SVGID_1_);}
	.st2{fill:url(#SVGID_00000132785155497673012070000016304397039186693021_);}
	
		.st3{clip-path:url(#SVGID_00000129182148962784395660000010235084147557955259_);fill:url(#SVGID_00000122703407392444433210000008042204869386293894_);}
	
		.st4{clip-path:url(#SVGID_00000129182148962784395660000010235084147557955259_);fill:url(#SVGID_00000119827892295365692960000007084674148112180358_);}
	
		.st5{clip-path:url(#SVGID_00000129182148962784395660000010235084147557955259_);fill:url(#SVGID_00000137091784739770724590000004989339645229538185_);}
	
		.st6{clip-path:url(#SVGID_00000129182148962784395660000010235084147557955259_);fill:url(#SVGID_00000121265725190993036880000005875354206171622030_);}
	
		.st7{clip-path:url(#SVGID_00000129182148962784395660000010235084147557955259_);fill:url(#SVGID_00000111882491241987686610000009217951171526507953_);}
	
		.st8{clip-path:url(#SVGID_00000129182148962784395660000010235084147557955259_);fill:url(#SVGID_00000157310693557780395140000001653472497928644503_);}
	
		.st9{clip-path:url(#SVGID_00000129182148962784395660000010235084147557955259_);fill:url(#SVGID_00000150818132626236682200000000360458248275350683_);}
	
		.st10{clip-path:url(#SVGID_00000129182148962784395660000010235084147557955259_);fill:url(#SVGID_00000180362676547459279940000006441740740627672731_);}
	
		.st11{clip-path:url(#SVGID_00000129182148962784395660000010235084147557955259_);fill:url(#SVGID_00000130630685848075434690000006073380187258390187_);}
	
		.st12{clip-path:url(#SVGID_00000129182148962784395660000010235084147557955259_);fill:url(#SVGID_00000026165316047202988050000010979549429174706585_);}
	
		.st13{clip-path:url(#SVGID_00000129182148962784395660000010235084147557955259_);fill:url(#SVGID_00000063608250943904357810000001303271820707084461_);}
	
		.st14{clip-path:url(#SVGID_00000129182148962784395660000010235084147557955259_);fill:url(#SVGID_00000064346487257892487410000007403696357646100132_);}
	
		.st15{clip-path:url(#SVGID_00000129182148962784395660000010235084147557955259_);fill:url(#SVGID_00000119840417053830928190000008039059500281379460_);}
	
		.st16{clip-path:url(#SVGID_00000129182148962784395660000010235084147557955259_);fill:url(#SVGID_00000031181097603951846280000000238523603928303241_);}
	
		.st17{clip-path:url(#SVGID_00000129182148962784395660000010235084147557955259_);fill:url(#SVGID_00000117656029467596880040000005632150718297300917_);}
	
		.st18{clip-path:url(#SVGID_00000129182148962784395660000010235084147557955259_);fill:url(#SVGID_00000107550910706518868300000003523202188401225896_);}
	.st19{clip-path:url(#SVGID_00000129182148962784395660000010235084147557955259_);}
	.st20{fill:url(#SVGID_00000035515519954615319140000018284790789865502878_);}
	.st21{fill:url(#SVGID_00000039096908117490558850000007645522689318203834_);}
	.st22{fill:url(#SVGID_00000111172045839827088210000004397613273506086565_);}
	.st23{fill:url(#SVGID_00000102546490764488229520000008059394796213072529_);}
	
		.st24{clip-path:url(#SVGID_00000129182148962784395660000010235084147557955259_);fill:url(#SVGID_00000026137364254874997700000008161840726469413281_);}
	
		.st25{clip-path:url(#SVGID_00000129182148962784395660000010235084147557955259_);fill:url(#SVGID_00000075871482116520950440000003735959272463570852_);}
	
		.st26{clip-path:url(#SVGID_00000129182148962784395660000010235084147557955259_);fill:url(#SVGID_00000014591866835406329860000001469422264683148452_);}
	
		.st27{clip-path:url(#SVGID_00000129182148962784395660000010235084147557955259_);fill:url(#SVGID_00000090285291448942859400000005530849769057944485_);}
	
		.st28{clip-path:url(#SVGID_00000129182148962784395660000010235084147557955259_);fill:url(#SVGID_00000165915316478278143630000004828972919160207745_);}
	
		.st29{clip-path:url(#SVGID_00000129182148962784395660000010235084147557955259_);fill:url(#SVGID_00000091714627558755064410000007105340588535088789_);}
	
		.st30{clip-path:url(#SVGID_00000129182148962784395660000010235084147557955259_);fill:url(#SVGID_00000111193201131776937380000016924891946243713962_);}
	
		.st31{clip-path:url(#SVGID_00000129182148962784395660000010235084147557955259_);fill:url(#SVGID_00000152265950494330993240000009336192962532894392_);}
	
		.st32{clip-path:url(#SVGID_00000129182148962784395660000010235084147557955259_);fill:url(#SVGID_00000136398535735635925680000008837593141921111181_);}
	
		.st33{clip-path:url(#SVGID_00000129182148962784395660000010235084147557955259_);fill:url(#SVGID_00000129884321917650905220000004967763779346245014_);}
	
		.st34{clip-path:url(#SVGID_00000129182148962784395660000010235084147557955259_);fill:url(#SVGID_00000168097666547694541100000009429433516825191862_);}
	
		.st35{clip-path:url(#SVGID_00000129182148962784395660000010235084147557955259_);fill:url(#SVGID_00000159446815728210629690000014341454490417559201_);}
	
		.st36{clip-path:url(#SVGID_00000129182148962784395660000010235084147557955259_);fill:url(#SVGID_00000006674331181580387720000001769699785448427959_);}
	
		.st37{clip-path:url(#SVGID_00000129182148962784395660000010235084147557955259_);fill:url(#SVGID_00000023997747831305915660000007758596360691119290_);}
	
		.st38{clip-path:url(#SVGID_00000129182148962784395660000010235084147557955259_);fill:url(#SVGID_00000085216000891674511470000017141480239657956741_);}
	
		.st39{clip-path:url(#SVGID_00000129182148962784395660000010235084147557955259_);fill:url(#SVGID_00000126288318811048243210000016458116165182575518_);}
	.st40{fill:url(#SVGID_00000144332686472039617400000014299882987899970987_);}
	.st41{fill:url(#SVGID_00000139972224793536560160000006091696369554863248_);}
	.st42{fill:url(#SVGID_00000158719065041908852210000007690504460695150502_);}
	.st43{fill:url(#SVGID_00000049917265519862713980000001139518172014072729_);}
	
		.st44{clip-path:url(#SVGID_00000129182148962784395660000010235084147557955259_);fill:url(#SVGID_00000172426003374354322010000012243691389305134757_);}
	
		.st45{clip-path:url(#SVGID_00000129182148962784395660000010235084147557955259_);fill:url(#SVGID_00000073701240513290855020000007945420135560710051_);}
	
		.st46{clip-path:url(#SVGID_00000129182148962784395660000010235084147557955259_);fill:url(#SVGID_00000129913147622587175830000008411560509489546885_);}
	
		.st47{clip-path:url(#SVGID_00000129182148962784395660000010235084147557955259_);fill:url(#SVGID_00000013156476252771820120000015631606134053308079_);}
	
		.st48{clip-path:url(#SVGID_00000129182148962784395660000010235084147557955259_);fill:url(#SVGID_00000121269337995604089200000017699084471180169363_);}
	
		.st49{clip-path:url(#SVGID_00000129182148962784395660000010235084147557955259_);fill:url(#SVGID_00000030462307210520301190000001205420836690049671_);}
	
		.st50{clip-path:url(#SVGID_00000129182148962784395660000010235084147557955259_);fill:url(#SVGID_00000121984392545689482730000011484825913421321644_);}
	
		.st51{clip-path:url(#SVGID_00000129182148962784395660000010235084147557955259_);fill:url(#SVGID_00000108277195243948439030000008668743386105157295_);}
	
		.st52{clip-path:url(#SVGID_00000129182148962784395660000010235084147557955259_);fill:url(#SVGID_00000031165424005148972660000011226885036410956682_);}
	
		.st53{clip-path:url(#SVGID_00000129182148962784395660000010235084147557955259_);fill:url(#SVGID_00000110465315780872964860000004089898842110244004_);}
	
		.st54{clip-path:url(#SVGID_00000129182148962784395660000010235084147557955259_);fill:url(#SVGID_00000123431109401335142730000016343032791049323672_);}
	
		.st55{clip-path:url(#SVGID_00000129182148962784395660000010235084147557955259_);fill:url(#SVGID_00000114050886104190137730000015785485828998412434_);}
	
		.st56{clip-path:url(#SVGID_00000129182148962784395660000010235084147557955259_);fill:url(#SVGID_00000034076662604935981270000010190724145860936603_);}
	
		.st57{clip-path:url(#SVGID_00000129182148962784395660000010235084147557955259_);fill:url(#SVGID_00000082347307110509276290000018373698930443698876_);}
	
		.st58{clip-path:url(#SVGID_00000129182148962784395660000010235084147557955259_);fill:url(#SVGID_00000060006443066466306960000013050265451945629829_);}
	
		.st59{clip-path:url(#SVGID_00000129182148962784395660000010235084147557955259_);fill:url(#SVGID_00000039135459711488267050000009971626106735925657_);}
	.st60{fill:url(#SVGID_00000071520981391582514300000003746950769989526669_);}
	.st61{fill:url(#SVGID_00000042714617073313932720000016978148027776990886_);}
	.st62{fill:url(#SVGID_00000046320407524406160480000008800944138385316534_);}
	.st63{fill:url(#SVGID_00000180357910443693251310000005192153515036973739_);}
	
		.st64{clip-path:url(#SVGID_00000129182148962784395660000010235084147557955259_);fill:url(#SVGID_00000031922916232203883430000001936281524928934275_);}
	
		.st65{clip-path:url(#SVGID_00000129182148962784395660000010235084147557955259_);fill:url(#SVGID_00000160181277071741477750000011360695721554826943_);}
	
		.st66{clip-path:url(#SVGID_00000129182148962784395660000010235084147557955259_);fill:url(#SVGID_00000107567609149569366790000016649208146463818658_);}
	
		.st67{clip-path:url(#SVGID_00000129182148962784395660000010235084147557955259_);fill:url(#SVGID_00000096782342941557464560000014781108204523783613_);}
	
		.st68{clip-path:url(#SVGID_00000129182148962784395660000010235084147557955259_);fill:url(#SVGID_00000071523957038078359520000012925618440046147203_);}
	
		.st69{clip-path:url(#SVGID_00000129182148962784395660000010235084147557955259_);fill:url(#SVGID_00000174563534243113291750000003818383485311951539_);}
	
		.st70{clip-path:url(#SVGID_00000129182148962784395660000010235084147557955259_);fill:url(#SVGID_00000101791963729921184060000015893650771531959975_);}
	
		.st71{clip-path:url(#SVGID_00000129182148962784395660000010235084147557955259_);fill:url(#SVGID_00000013911321299731723720000011579323606004190116_);}
	
		.st72{clip-path:url(#SVGID_00000129182148962784395660000010235084147557955259_);fill:url(#SVGID_00000030478387881993556270000004056019883452633752_);}
	
		.st73{clip-path:url(#SVGID_00000129182148962784395660000010235084147557955259_);fill:url(#SVGID_00000148636715693825558040000014113400575539167378_);}
	
		.st74{clip-path:url(#SVGID_00000129182148962784395660000010235084147557955259_);fill:url(#SVGID_00000116944664195902127120000006761130547132179381_);}
	
		.st75{clip-path:url(#SVGID_00000129182148962784395660000010235084147557955259_);fill:url(#SVGID_00000113325813726801452430000010018677031293263806_);}
	
		.st76{clip-path:url(#SVGID_00000129182148962784395660000010235084147557955259_);fill:url(#SVGID_00000141453549427078448700000001878010518099561130_);}
	
		.st77{clip-path:url(#SVGID_00000129182148962784395660000010235084147557955259_);fill:url(#SVGID_00000165915504014947788650000010032434892906611621_);}
	
		.st78{clip-path:url(#SVGID_00000129182148962784395660000010235084147557955259_);fill:url(#SVGID_00000043423494035685633890000012895170246600212925_);}
	
		.st79{clip-path:url(#SVGID_00000129182148962784395660000010235084147557955259_);fill:url(#SVGID_00000032609258492183508820000008279031764694767237_);}
	.st80{fill:url(#SVGID_00000065071404831251970730000009954826136514476947_);}
	.st81{fill:url(#SVGID_00000017505840508662860800000017534792539666778768_);}
	.st82{fill:url(#SVGID_00000119098754553241832470000014467482839959738528_);}
	.st83{fill:url(#SVGID_00000022535716795525651400000015300115932193616804_);}
	.st84{fill:url(#SVGID_00000108272071037009670270000005371062914363332779_);}
	.st85{fill:url(#SVGID_00000115479861823790439220000017528550697025709441_);}
	.st86{fill:url(#SVGID_00000179634216790722816730000001635912611722598556_);}
	.st87{fill:url(#SVGID_00000090281107769136887240000005533759431344841345_);}
	.st88{fill:url(#SVGID_00000016044513623277468920000003853132064268808107_);}
	.st89{fill:url(#SVGID_00000129888182518370495870000013432441119069195194_);}
	.st90{clip-path:url(#SVGID_00000132055252244825875190000000532876166626551725_);}
	.st91{fill:url(#SVGID_00000063610121133676596030000018166229902776389017_);}
	.st92{fill:url(#SVGID_00000052808688642218073520000003337134387189746358_);}
	.st93{fill:url(#SVGID_00000039836584176710364960000003154582970090738311_);}
	.st94{fill:url(#SVGID_00000154412994111664437740000015152057337664205471_);}
	.st95{fill:url(#SVGID_00000022537002176237515080000008562036573585520816_);}
	.st96{fill:url(#SVGID_00000052077895185076372310000017672106588627698337_);}
	.st97{fill:url(#SVGID_00000025405912767823367020000011244109582097767608_);}
	.st98{fill:none;stroke:#666364;stroke-miterlimit:10;}
	.st99{fill:#666364;}
	.st100{fill:#FFFFFF;}
	.st101{fill:#C1C0C1;}
	.st102{fill:none;stroke:#4F4C4D;stroke-width:0.0179;stroke-miterlimit:10;}
	.st103{fill:#D5D4D5;}
	.st104{clip-path:url(#SVGID_00000098195015916340809680000016567240919127146916_);}
	.st105{fill:none;stroke:#4F4C4D;stroke-width:0.8884;stroke-linecap:round;stroke-linejoin:round;stroke-miterlimit:10;}
	.st106{fill:none;stroke:#4F4C4D;stroke-width:0.8448;stroke-linecap:round;stroke-linejoin:round;stroke-miterlimit:10;}
	.st107{fill:none;stroke:#4F4C4D;stroke-width:0.9746;stroke-linecap:round;stroke-linejoin:round;stroke-miterlimit:10;}
	.st108{fill:none;stroke:#4F4C4D;stroke-width:0.8608;stroke-linecap:round;stroke-linejoin:round;stroke-miterlimit:10;}
	
		.st109{fill:none;stroke:#4F4C4D;stroke-width:0.8608;stroke-linecap:round;stroke-linejoin:round;stroke-miterlimit:10;stroke-dasharray:1.0632;}
	.st110{fill:none;stroke:#4F4C4D;stroke-width:0.9757;stroke-linecap:round;stroke-linejoin:round;stroke-miterlimit:10;}
	.st111{fill:none;stroke:#4F4C4D;stroke-width:1.1046;stroke-linecap:round;stroke-linejoin:round;stroke-miterlimit:10;}
	.st112{fill:none;stroke:#4F4C4D;stroke-width:1.0333;stroke-linecap:round;stroke-linejoin:round;stroke-miterlimit:10;}
	
		.st113{fill:none;stroke:#4F4C4D;stroke-width:1.0333;stroke-linecap:round;stroke-linejoin:round;stroke-miterlimit:10;stroke-dasharray:1.2;}
	.st114{fill:none;stroke:#4F4C4D;stroke-linecap:round;stroke-linejoin:round;stroke-miterlimit:10;}
	.st115{fill:none;stroke:#4F4C4D;stroke-linecap:round;stroke-linejoin:round;stroke-miterlimit:10;stroke-dasharray:1.0878;}
</style>
<g>
	<g>
		<path class="st0" d="M27.36,60.49L2.69,46.25V17.76L27.36,3.52l24.67,14.24v28.48L27.36,60.49z M4.53,45.18l22.83,13.18
			l22.83-13.18V18.83L27.36,5.65L4.53,18.83V45.18z"/>
	</g>
</g>
<g>
	<path class="st0" d="M35.28,17.14c0.59,0.06,1.18,0.11,1.77,0.19c1.4,0.18,2.76,0.49,4.03,1.12c0.16,0.08,0.32,0.17,0.47,0.27
		c0.34,0.22,0.4,0.42,0.24,0.8c-0.68,1.62-1.52,3.17-2.56,4.59c-1.35,1.84-2.8,3.6-4.45,5.19c-0.36,0.34-0.74,0.66-1.11,0.98
		c-1.01,0.87-2.24,1.11-3.52,1.16c-0.46,0.02-0.92,0-1.41,0.04c0.44,0.15,0.88,0.33,1.33,0.44c0.45,0.11,0.91,0.15,1.37,0.21
		c0.25,0.03,0.48,0.08,0.58,0.36c0.1,0.27-0.03,0.46-0.22,0.64c-2.07,2.01-4.25,3.88-6.6,5.55c-0.42,0.29-1.01,0.37-1.54,0.46
		c-1.13,0.18-2.25,0.1-3.36-0.21c-0.05-0.01-0.1-0.02-0.15-0.03c0.15,0.44,0.77,0.88,1.36,0.98c0.51,0.08,0.69,0.21,0.72,0.51
		c0.03,0.29-0.15,0.46-0.62,0.63c-1.46,0.5-2.96,0.78-4.5,0.85c-0.31,0.01-0.63-0.01-0.94-0.05c-0.19-0.02-0.29,0.03-0.36,0.21
		c-0.43,1.18-0.86,2.36-1.31,3.54c-0.08,0.2-0.2,0.4-0.35,0.53c-0.76,0.63-1.54,1.24-2.31,1.86c-0.42,0.33-0.67,0.29-0.97-0.15
		c0-0.26,0-0.53,0-0.79c0.03-0.21,0.06-0.42,0.08-0.62c0.24-2.41,0.86-4.71,1.88-6.91c0.05-0.1,0.07-0.23,0.05-0.34
		c-0.07-0.61-0.17-1.22-0.23-1.83c-0.16-1.9-0.06-3.77,0.58-5.59c0.48-1.37,1.19-2.58,2.34-3.5c0.19-0.16,0.4-0.29,0.66-0.17
		c0.26,0.11,0.31,0.34,0.33,0.59c0.04,0.48,0.2,0.91,0.55,1.29c0.02-0.07,0.04-0.09,0.04-0.12c0.3-1.6,0.6-3.21,0.92-4.81
		c0.04-0.22,0.18-0.45,0.33-0.62c1.17-1.29,2.49-2.42,3.94-3.39c2.88-1.92,6-3.22,9.44-3.68c0.48-0.06,0.96-0.11,1.44-0.17
		C33.91,17.14,34.59,17.14,35.28,17.14z M13.78,37.75c0.05-0.07,0.1-0.14,0.16-0.21c0.63-0.86,1.23-1.75,1.9-2.59
		c2.82-3.52,5.97-6.68,9.67-9.29c1.15-0.81,2.35-1.53,3.62-2.13c0.39-0.18,0.77-0.17,1.11,0.1c0.33,0.26,0.45,0.61,0.38,1.02
		c-0.06,0.36-0.31,0.57-0.59,0.77C24.46,29.45,20,34.47,16.63,40.46c-0.06,0.1-0.1,0.2-0.16,0.31c0.67,0.16,3.14-0.15,3.57-0.46
		c-0.05-0.04-0.1-0.07-0.15-0.11c-0.66-0.58-1.07-1.3-1.25-2.16c-0.05-0.25-0.03-0.47,0.18-0.62c0.21-0.16,0.43-0.12,0.65,0.02
		c0.2,0.12,0.4,0.23,0.62,0.32c1.27,0.52,2.58,0.53,3.9,0.26c0.25-0.05,0.53-0.1,0.73-0.25c1.91-1.39,3.73-2.9,5.46-4.51
		c0.05-0.05,0.09-0.11,0.12-0.15c-0.53-0.17-1.04-0.3-1.54-0.5c-0.88-0.35-1.61-0.92-2.23-1.63c-0.17-0.19-0.23-0.41-0.09-0.64
		c0.13-0.22,0.34-0.3,0.6-0.24c0.08,0.02,0.16,0.03,0.24,0.05c1.15,0.22,2.31,0.35,3.49,0.21c0.75-0.09,1.47-0.27,2.08-0.75
		c0.36-0.29,0.72-0.59,1.06-0.9c0.35-0.32,0.69-0.67,1.03-1c-0.17-0.03-0.3,0-0.42,0.01c-0.97,0.1-1.94,0.2-2.92,0.28
		c-0.38,0.03-0.63-0.27-0.56-0.61c0.05-0.26,0.26-0.41,0.62-0.42c1.33-0.02,2.63-0.22,3.92-0.53c0.44-0.11,0.77-0.31,1.06-0.67
		c1.54-1.86,2.96-3.81,3.94-6.04c0.04-0.1,0.08-0.2,0.14-0.34c-0.51-0.19-0.97-0.4-1.45-0.54c-3.79-1.05-7.54-0.87-11.25,0.43
		c-0.1,0.04-0.22,0.13-0.26,0.22c-0.29,0.59-0.56,1.2-0.85,1.8c-0.07,0.14-0.14,0.3-0.25,0.4c-0.17,0.15-0.37,0.13-0.56,0.01
		c-0.23-0.15-0.27-0.37-0.2-0.61c0.11-0.36,0.24-0.72,0.37-1.11c-1.13,0.5-2.17,1.09-3.18,1.75c-1.19,0.78-1.19,0.78-1.54,2.15
		c-0.01,0.04-0.02,0.08-0.02,0.12c-0.1,0.8-0.21,1.6-0.31,2.4c-0.04,0.36-0.23,0.58-0.54,0.57c-0.3-0.01-0.5-0.22-0.49-0.57
		c0.01-0.34,0.02-0.69,0.06-1.03c0.06-0.52,0.16-1.04,0.24-1.62c-0.47,0.47-0.9,0.9-1.33,1.34c-0.05,0.05-0.07,0.12-0.09,0.19
		c-0.42,1.88-0.86,3.76-0.95,5.69c-0.01,0.25-0.05,0.48-0.31,0.6c-0.27,0.12-0.46-0.01-0.66-0.16c-0.64-0.5-1.11-1.13-1.46-1.93
		C13.63,31.94,13.47,34.78,13.78,37.75z M11.92,46.43c0.04,0.01,0.08,0.02,0.12,0.03c0.46-0.37,0.92-0.73,1.37-1.1
		c0.08-0.06,0.13-0.18,0.16-0.28c0.55-1.95,1.38-3.78,2.38-5.55c3.29-5.82,7.71-10.63,13.04-14.63c0.09-0.07,0.19-0.14,0.28-0.21
		c-0.14,0-0.25,0.04-0.35,0.11c-1.06,0.66-2.16,1.27-3.17,2c-3.57,2.58-6.61,5.7-9.36,9.12c-1.78,2.22-3.18,4.64-3.84,7.44
		C12.3,44.37,12.12,45.4,11.92,46.43z"/>
</g>
</svg>
