<?xml version="1.0" encoding="utf-8"?>
<!-- Generator: Adobe Illustrator 27.2.0, SVG Export Plug-In . SVG Version: 6.00 Build 0)  -->
<svg version="1.1" id="Layer_1" xmlns="http://www.w3.org/2000/svg" xmlns:xlink="http://www.w3.org/1999/xlink" x="0px" y="0px"
	 viewBox="0 0 54.72 63.62" style="enable-background:new 0 0 54.72 63.62;" xml:space="preserve">
<style type="text/css">
	.st0{fill:#4F4C4D;}
	.st1{fill:url(#SVGID_1_);}
	.st2{fill:url(#SVGID_00000098220316707007195380000016418606641375217299_);}
	
		.st3{clip-path:url(#SVGID_00000171706522886400474990000013632526614416799165_);fill:url(#SVGID_00000134969847093514412150000016400850699223503282_);}
	
		.st4{clip-path:url(#SVGID_00000171706522886400474990000013632526614416799165_);fill:url(#SVGID_00000155142684636328629890000003338146471660140184_);}
	
		.st5{clip-path:url(#SVGID_00000171706522886400474990000013632526614416799165_);fill:url(#SVGID_00000104679737687021189710000006721331624300093583_);}
	
		.st6{clip-path:url(#SVGID_00000171706522886400474990000013632526614416799165_);fill:url(#SVGID_00000094580620162095245580000002369787208689393055_);}
	
		.st7{clip-path:url(#SVGID_00000171706522886400474990000013632526614416799165_);fill:url(#SVGID_00000039107955403397030250000002925797963373263496_);}
	
		.st8{clip-path:url(#SVGID_00000171706522886400474990000013632526614416799165_);fill:url(#SVGID_00000127750662151199830020000015143260386392244111_);}
	
		.st9{clip-path:url(#SVGID_00000171706522886400474990000013632526614416799165_);fill:url(#SVGID_00000150083155609815089290000013938617971197191809_);}
	
		.st10{clip-path:url(#SVGID_00000171706522886400474990000013632526614416799165_);fill:url(#SVGID_00000167382182345944037820000018195213521645303990_);}
	
		.st11{clip-path:url(#SVGID_00000171706522886400474990000013632526614416799165_);fill:url(#SVGID_00000183248720438046541780000013676245154665007292_);}
	
		.st12{clip-path:url(#SVGID_00000171706522886400474990000013632526614416799165_);fill:url(#SVGID_00000094580745961932837110000006500370845608367294_);}
	
		.st13{clip-path:url(#SVGID_00000171706522886400474990000013632526614416799165_);fill:url(#SVGID_00000137822683973741045530000015695582085586402487_);}
	
		.st14{clip-path:url(#SVGID_00000171706522886400474990000013632526614416799165_);fill:url(#SVGID_00000027588441617010694800000000224272249474955656_);}
	
		.st15{clip-path:url(#SVGID_00000171706522886400474990000013632526614416799165_);fill:url(#SVGID_00000079446627386458560110000014542894745299130789_);}
	
		.st16{clip-path:url(#SVGID_00000171706522886400474990000013632526614416799165_);fill:url(#SVGID_00000060720522661074547050000016854246976872234143_);}
	
		.st17{clip-path:url(#SVGID_00000171706522886400474990000013632526614416799165_);fill:url(#SVGID_00000026125415567684822080000000491521835720400258_);}
	
		.st18{clip-path:url(#SVGID_00000171706522886400474990000013632526614416799165_);fill:url(#SVGID_00000044883271210345722900000005070940890880717190_);}
	.st19{clip-path:url(#SVGID_00000171706522886400474990000013632526614416799165_);}
	.st20{fill:url(#SVGID_00000033349865354580609160000015132192481507234699_);}
	.st21{fill:url(#SVGID_00000098196330754549793800000001217155697870641337_);}
	.st22{fill:url(#SVGID_00000142870509516641556790000015786995809547800747_);}
	.st23{fill:url(#SVGID_00000010290657445010995380000004977083462780248990_);}
	
		.st24{clip-path:url(#SVGID_00000171706522886400474990000013632526614416799165_);fill:url(#SVGID_00000059302115568561852230000015798327936137727626_);}
	
		.st25{clip-path:url(#SVGID_00000171706522886400474990000013632526614416799165_);fill:url(#SVGID_00000121975283344678818280000015453834272865671860_);}
	
		.st26{clip-path:url(#SVGID_00000171706522886400474990000013632526614416799165_);fill:url(#SVGID_00000058591626255700054910000016682918303094612624_);}
	
		.st27{clip-path:url(#SVGID_00000171706522886400474990000013632526614416799165_);fill:url(#SVGID_00000065772851266635311950000006908444213315281824_);}
	
		.st28{clip-path:url(#SVGID_00000171706522886400474990000013632526614416799165_);fill:url(#SVGID_00000018225548781105998000000016447186172394533283_);}
	
		.st29{clip-path:url(#SVGID_00000171706522886400474990000013632526614416799165_);fill:url(#SVGID_00000083069859883539030900000013554580899814221967_);}
	
		.st30{clip-path:url(#SVGID_00000171706522886400474990000013632526614416799165_);fill:url(#SVGID_00000024693241992910707370000010454917126960661902_);}
	
		.st31{clip-path:url(#SVGID_00000171706522886400474990000013632526614416799165_);fill:url(#SVGID_00000138556997891081725810000000832323791292863156_);}
	
		.st32{clip-path:url(#SVGID_00000171706522886400474990000013632526614416799165_);fill:url(#SVGID_00000032635576563124159120000010034655411308325022_);}
	
		.st33{clip-path:url(#SVGID_00000171706522886400474990000013632526614416799165_);fill:url(#SVGID_00000181048902843337924250000017300887827712528549_);}
	
		.st34{clip-path:url(#SVGID_00000171706522886400474990000013632526614416799165_);fill:url(#SVGID_00000155825442748544128510000015316734392730628512_);}
	
		.st35{clip-path:url(#SVGID_00000171706522886400474990000013632526614416799165_);fill:url(#SVGID_00000033339596859695899280000011865621948694873506_);}
	
		.st36{clip-path:url(#SVGID_00000171706522886400474990000013632526614416799165_);fill:url(#SVGID_00000048473301088999652710000015002412672097401240_);}
	
		.st37{clip-path:url(#SVGID_00000171706522886400474990000013632526614416799165_);fill:url(#SVGID_00000054979386845665382700000012058011474420447399_);}
	
		.st38{clip-path:url(#SVGID_00000171706522886400474990000013632526614416799165_);fill:url(#SVGID_00000011011615423763716290000005396531867758798235_);}
	
		.st39{clip-path:url(#SVGID_00000171706522886400474990000013632526614416799165_);fill:url(#SVGID_00000087371219248918545490000010505259801363601075_);}
	.st40{fill:url(#SVGID_00000105398276846956583890000014742830085144242093_);}
	.st41{fill:url(#SVGID_00000027569869199134943050000009278050993606506402_);}
	.st42{fill:url(#SVGID_00000146490950560942666590000015873129105519013796_);}
	.st43{fill:url(#SVGID_00000044891202280553567320000001241071835627942560_);}
	
		.st44{clip-path:url(#SVGID_00000171706522886400474990000013632526614416799165_);fill:url(#SVGID_00000051383709347294697230000017697269615850851995_);}
	
		.st45{clip-path:url(#SVGID_00000171706522886400474990000013632526614416799165_);fill:url(#SVGID_00000000192270905441056790000008709131705513488015_);}
	
		.st46{clip-path:url(#SVGID_00000171706522886400474990000013632526614416799165_);fill:url(#SVGID_00000029042022743495774700000018065883343932631428_);}
	
		.st47{clip-path:url(#SVGID_00000171706522886400474990000013632526614416799165_);fill:url(#SVGID_00000132770370002874514110000009954468492203904654_);}
	
		.st48{clip-path:url(#SVGID_00000171706522886400474990000013632526614416799165_);fill:url(#SVGID_00000093866386215136378900000015616433201054043578_);}
	
		.st49{clip-path:url(#SVGID_00000171706522886400474990000013632526614416799165_);fill:url(#SVGID_00000090975989748467324430000004648907246491721141_);}
	
		.st50{clip-path:url(#SVGID_00000171706522886400474990000013632526614416799165_);fill:url(#SVGID_00000157297592840352359360000010998165723426512021_);}
	
		.st51{clip-path:url(#SVGID_00000171706522886400474990000013632526614416799165_);fill:url(#SVGID_00000152973833320042627190000014004235184738345380_);}
	
		.st52{clip-path:url(#SVGID_00000171706522886400474990000013632526614416799165_);fill:url(#SVGID_00000161604805196792500080000014266592195135844776_);}
	
		.st53{clip-path:url(#SVGID_00000171706522886400474990000013632526614416799165_);fill:url(#SVGID_00000168087487508253835040000012060622864791032478_);}
	
		.st54{clip-path:url(#SVGID_00000171706522886400474990000013632526614416799165_);fill:url(#SVGID_00000018236416510988671790000014760646988776265897_);}
	
		.st55{clip-path:url(#SVGID_00000171706522886400474990000013632526614416799165_);fill:url(#SVGID_00000034052342498070801500000008070023399056627862_);}
	
		.st56{clip-path:url(#SVGID_00000171706522886400474990000013632526614416799165_);fill:url(#SVGID_00000121265102821550944860000003514951183771324837_);}
	
		.st57{clip-path:url(#SVGID_00000171706522886400474990000013632526614416799165_);fill:url(#SVGID_00000001636629068744434090000005953653990869749924_);}
	
		.st58{clip-path:url(#SVGID_00000171706522886400474990000013632526614416799165_);fill:url(#SVGID_00000180363502621847364310000004026743335064146056_);}
	
		.st59{clip-path:url(#SVGID_00000171706522886400474990000013632526614416799165_);fill:url(#SVGID_00000052820982093893481050000007150320437669285532_);}
	.st60{fill:url(#SVGID_00000175292159292269336060000007444973868983057803_);}
	.st61{fill:url(#SVGID_00000078022932224305081010000007743425483275663541_);}
	.st62{fill:url(#SVGID_00000061467984858097743400000016460838809055271845_);}
	.st63{fill:url(#SVGID_00000059301301633486126120000004236124834328407963_);}
	
		.st64{clip-path:url(#SVGID_00000171706522886400474990000013632526614416799165_);fill:url(#SVGID_00000112625814377377817390000015891511884967592089_);}
	
		.st65{clip-path:url(#SVGID_00000171706522886400474990000013632526614416799165_);fill:url(#SVGID_00000114751947082886524150000007104496962500656803_);}
	
		.st66{clip-path:url(#SVGID_00000171706522886400474990000013632526614416799165_);fill:url(#SVGID_00000165209259554843613090000001338030664743153836_);}
	
		.st67{clip-path:url(#SVGID_00000171706522886400474990000013632526614416799165_);fill:url(#SVGID_00000018198189327341001280000001532704486629783690_);}
	
		.st68{clip-path:url(#SVGID_00000171706522886400474990000013632526614416799165_);fill:url(#SVGID_00000019638942573782560500000011811265156458303132_);}
	
		.st69{clip-path:url(#SVGID_00000171706522886400474990000013632526614416799165_);fill:url(#SVGID_00000121274759354516417430000007708802220786117264_);}
	
		.st70{clip-path:url(#SVGID_00000171706522886400474990000013632526614416799165_);fill:url(#SVGID_00000140712459688657852600000008236055598332111787_);}
	
		.st71{clip-path:url(#SVGID_00000171706522886400474990000013632526614416799165_);fill:url(#SVGID_00000052073662530313631030000009687950800599358399_);}
	
		.st72{clip-path:url(#SVGID_00000171706522886400474990000013632526614416799165_);fill:url(#SVGID_00000147909902288068396320000011326205842091380639_);}
	
		.st73{clip-path:url(#SVGID_00000171706522886400474990000013632526614416799165_);fill:url(#SVGID_00000085240057449818504030000016879411685272031372_);}
	
		.st74{clip-path:url(#SVGID_00000171706522886400474990000013632526614416799165_);fill:url(#SVGID_00000036932501625403140290000000860849145168218025_);}
	
		.st75{clip-path:url(#SVGID_00000171706522886400474990000013632526614416799165_);fill:url(#SVGID_00000034087519495326752620000001879622414861675149_);}
	
		.st76{clip-path:url(#SVGID_00000171706522886400474990000013632526614416799165_);fill:url(#SVGID_00000153702922065746361460000010364659534164777142_);}
	
		.st77{clip-path:url(#SVGID_00000171706522886400474990000013632526614416799165_);fill:url(#SVGID_00000043429707744970526960000017891838278465611650_);}
	
		.st78{clip-path:url(#SVGID_00000171706522886400474990000013632526614416799165_);fill:url(#SVGID_00000061430535248502230080000014288251655713198762_);}
	
		.st79{clip-path:url(#SVGID_00000171706522886400474990000013632526614416799165_);fill:url(#SVGID_00000053545880208104061850000014907426658290034598_);}
	.st80{fill:url(#SVGID_00000096758864510144432020000014159160839477238422_);}
	.st81{fill:url(#SVGID_00000015325639345706555530000001970939433597066117_);}
	.st82{fill:url(#SVGID_00000143579223697700738390000001149133365795234443_);}
	.st83{fill:url(#SVGID_00000072998937001509316030000000330490548696634278_);}
	.st84{fill:url(#SVGID_00000042010499884390268880000018196629178599541896_);}
	.st85{fill:url(#SVGID_00000153701408195255800410000002778125533263965056_);}
	.st86{fill:url(#SVGID_00000007389665963589575620000002520572602399920300_);}
	.st87{fill:url(#SVGID_00000078009973715094425010000016229210220700576186_);}
	.st88{fill:url(#SVGID_00000119089530925817524570000003627638013804785546_);}
	.st89{fill:url(#SVGID_00000072989488176818928480000018218103558582361275_);}
	.st90{clip-path:url(#SVGID_00000099654787201191848740000003680853955729218469_);}
	.st91{fill:url(#SVGID_00000097470868603275974530000006178303055055889540_);}
	.st92{fill:url(#SVGID_00000063610585079508132920000011087286889977947064_);}
	.st93{fill:url(#SVGID_00000182526178639408562890000010623181328094987395_);}
	.st94{fill:url(#SVGID_00000006698051339518786930000008116372996599494797_);}
	.st95{fill:url(#SVGID_00000052094829074044849680000001539444794911917727_);}
	.st96{fill:url(#SVGID_00000040558045893153961670000016585155338216318893_);}
	.st97{fill:url(#SVGID_00000097491187932806421250000001051670459092663222_);}
	.st98{fill:none;stroke:#666364;stroke-miterlimit:10;}
	.st99{fill:#666364;}
	.st100{fill:#FFFFFF;}
	.st101{fill:#C1C0C1;}
	.st102{fill:none;stroke:#4F4C4D;stroke-width:0.0179;stroke-miterlimit:10;}
	.st103{fill:#D5D4D5;}
	.st104{clip-path:url(#SVGID_00000111881025437255938890000003517992420838115986_);}
	.st105{fill:none;stroke:#4F4C4D;stroke-width:0.8884;stroke-linecap:round;stroke-linejoin:round;stroke-miterlimit:10;}
	.st106{fill:none;stroke:#4F4C4D;stroke-width:0.8448;stroke-linecap:round;stroke-linejoin:round;stroke-miterlimit:10;}
	.st107{fill:none;stroke:#4F4C4D;stroke-width:0.9746;stroke-linecap:round;stroke-linejoin:round;stroke-miterlimit:10;}
	.st108{fill:none;stroke:#4F4C4D;stroke-width:0.8608;stroke-linecap:round;stroke-linejoin:round;stroke-miterlimit:10;}
	
		.st109{fill:none;stroke:#4F4C4D;stroke-width:0.8608;stroke-linecap:round;stroke-linejoin:round;stroke-miterlimit:10;stroke-dasharray:1.0632;}
	.st110{fill:none;stroke:#4F4C4D;stroke-width:0.9757;stroke-linecap:round;stroke-linejoin:round;stroke-miterlimit:10;}
	.st111{fill:none;stroke:#4F4C4D;stroke-width:1.1046;stroke-linecap:round;stroke-linejoin:round;stroke-miterlimit:10;}
	.st112{fill:none;stroke:#4F4C4D;stroke-width:1.0333;stroke-linecap:round;stroke-linejoin:round;stroke-miterlimit:10;}
	
		.st113{fill:none;stroke:#4F4C4D;stroke-width:1.0333;stroke-linecap:round;stroke-linejoin:round;stroke-miterlimit:10;stroke-dasharray:1.2;}
	.st114{fill:none;stroke:#4F4C4D;stroke-linecap:round;stroke-linejoin:round;stroke-miterlimit:10;}
	.st115{fill:none;stroke:#4F4C4D;stroke-linecap:round;stroke-linejoin:round;stroke-miterlimit:10;stroke-dasharray:1.0878;}
</style>
<g>
	<g>
		<path class="st0" d="M27.36,60.49L2.69,46.25V17.76L27.36,3.52l24.67,14.24v28.48L27.36,60.49z M4.53,45.18l22.83,13.18
			l22.83-13.18V18.83L27.36,5.65L4.53,18.83V45.18z"/>
	</g>
</g>
<g>
	<g>
		<path class="st100" d="M34.22,33.51v14.98c0,1.3-2.68,2.35-6,2.35c-3.31,0-5.99-1.05-5.99-2.35V33.51c0-3.3,2.6-6.81,2.6-6.81
			h6.79C31.61,26.7,34.22,30.21,34.22,33.51z"/>
		<path class="st0" d="M28.22,51.28c-3.12,0-6.43-0.98-6.43-2.79V33.51c0-3.41,2.58-6.92,2.69-7.07l0.13-0.18h7.23l0.13,0.18
			c0.11,0.15,2.69,3.66,2.69,7.07v14.98C34.66,50.3,31.34,51.28,28.22,51.28z M25.05,27.14c-0.51,0.74-2.39,3.66-2.39,6.37v14.98
			c0,0.9,2.37,1.91,5.55,1.91c3.18,0,5.56-1.01,5.56-1.91V33.51c0-2.71-1.88-5.63-2.39-6.37H25.05z"/>
	</g>
	<g>
		<path class="st100" d="M25.14,47.05c0.9-0.23,1.97-0.36,3.12-0.36c3.2,0,5.8,1.02,5.8,2.27"/>
		<path class="st0" d="M34.5,48.97h-0.88c0-0.77-2.04-1.83-5.36-1.83c-1.08,0-2.12,0.12-3.02,0.35l-0.21-0.85
			c0.97-0.24,2.08-0.37,3.23-0.37C31.28,46.25,34.5,47.2,34.5,48.97z"/>
	</g>
	<circle class="st103" cx="28.23" cy="50.04" r="0.03"/>
	<g>
		<path class="st100" d="M29.16,42.12c-0.08,0.25-0.02,0.51,0.12,0.73c0.13,0.19,0.2,0.42,0.2,0.67c0,0.69-0.55,1.25-1.25,1.25
			c-0.69,0-1.24-0.56-1.24-1.25c0-0.25,0.07-0.48,0.2-0.67c0.14-0.22,0.2-0.48,0.12-0.73l-0.28-0.91l-0.04-0.12V26.58h2.49v14.51
			l-0.04,0.12L29.16,42.12z"/>
		<path class="st0" d="M28.23,45.21c-0.93,0-1.68-0.76-1.68-1.69c0-0.33,0.09-0.64,0.27-0.91c0.04-0.07,0.11-0.21,0.07-0.36
			l-0.34-1.16V26.14h3.37l-0.05,15.19l-0.29,0.92c-0.05,0.15,0.02,0.29,0.07,0.36c0.17,0.26,0.27,0.58,0.27,0.91
			C29.92,44.45,29.16,45.21,28.23,45.21z M27.43,41.03l0.3,0.96c0.11,0.36,0.05,0.76-0.17,1.1c-0.09,0.13-0.13,0.27-0.13,0.43
			c0,0.45,0.36,0.81,0.8,0.81c0.45,0,0.81-0.36,0.81-0.81c0-0.16-0.04-0.3-0.12-0.42c-0.22-0.35-0.29-0.75-0.17-1.11l0.3-0.96V27.02
			h-1.61V41.03z"/>
	</g>
	<g>
		<path class="st100" d="M24.01,22.14l0.01,4.25c0.07,0.6,1.93,1.07,4.22,1.07c2.29,0,4.15-0.48,4.22-1.07l0.01-4.25H24.01z"/>
		<path class="st0" d="M28.23,27.91c-0.46,0-4.48-0.04-4.65-1.46l-0.01-4.75h9.33l-0.01,4.69C32.72,27.87,28.69,27.91,28.23,27.91z
			 M24.45,22.58l0.01,3.81c0.14,0.17,1.54,0.64,3.78,0.64c2.24,0,3.64-0.46,3.79-0.72l-0.01-3.72H24.45z"/>
	</g>
	<g>
		<path class="st100" d="M32.46,22.14c0,0.61-1.89,1.11-4.23,1.11c-2.33,0-4.22-0.5-4.22-1.11c0-0.61,1.89-1.11,4.22-1.11
			C30.57,21.03,32.46,21.53,32.46,22.14z"/>
		<path class="st0" d="M28.23,23.69c-0.48,0-4.66-0.04-4.66-1.55c0-1.51,4.19-1.55,4.66-1.55c0.48,0,4.67,0.04,4.67,1.55
			C32.9,23.65,28.71,23.69,28.23,23.69z M24.48,22.14c0.29,0.26,1.65,0.67,3.75,0.67c2.1,0,3.46-0.41,3.75-0.67
			c-0.29-0.26-1.65-0.67-3.75-0.67C26.13,21.47,24.77,21.88,24.48,22.14z"/>
	</g>
	<g>
		<path class="st100" d="M28.2,12.78c-1.12,0-2.03,0.91-2.03,2.03V21c0,0.28,0.91,0.5,2.03,0.5c1.12,0,2.03-0.22,2.03-0.5v-6.19
			C30.24,13.69,29.33,12.78,28.2,12.78z"/>
		<path class="st0" d="M28.2,21.94c-0.74,0-2.47-0.09-2.47-0.94v-6.19c0-1.36,1.11-2.47,2.47-2.47c1.36,0,2.47,1.11,2.47,2.47V21
			C30.68,21.82,29.13,21.94,28.2,21.94z M26.61,20.85c0.21,0.09,0.77,0.21,1.59,0.21c0.82,0,1.38-0.12,1.59-0.21v-6.04
			c0-0.88-0.71-1.59-1.59-1.59s-1.59,0.71-1.59,1.59V20.85z"/>
	</g>
	<g>
		<path class="st0" d="M25.25,47.48c0.99-0.25,1.98-0.34,3.01-0.34c0.24,0,0.44-0.2,0.44-0.44c0-0.24-0.2-0.44-0.44-0.44
			c-1.09,0-2.18,0.11-3.24,0.37c-0.23,0.06-0.37,0.32-0.31,0.54C24.78,47.4,25.02,47.53,25.25,47.48L25.25,47.48z"/>
	</g>
</g>
</svg>
