<?xml version="1.0" encoding="utf-8"?>
<!-- Generator: Adobe Illustrator 27.2.0, SVG Export Plug-In . SVG Version: 6.00 Build 0)  -->
<svg version="1.1" id="Layer_1" xmlns="http://www.w3.org/2000/svg" xmlns:xlink="http://www.w3.org/1999/xlink" x="0px" y="0px"
	 viewBox="0 0 54.72 63.62" style="enable-background:new 0 0 54.72 63.62;" xml:space="preserve">
<style type="text/css">
	.st0{fill:#4F4C4D;}
	.st1{fill:url(#SVGID_1_);}
	.st2{fill:url(#SVGID_00000005238275975223956230000004311656053559104434_);}
	
		.st3{clip-path:url(#SVGID_00000149382700815985683650000006669740253946898337_);fill:url(#SVGID_00000085219075128515884600000006885558428908413592_);}
	
		.st4{clip-path:url(#SVGID_00000149382700815985683650000006669740253946898337_);fill:url(#SVGID_00000033336162445919684020000002130933710515169941_);}
	
		.st5{clip-path:url(#SVGID_00000149382700815985683650000006669740253946898337_);fill:url(#SVGID_00000177486062054002391620000004460418710319316663_);}
	
		.st6{clip-path:url(#SVGID_00000149382700815985683650000006669740253946898337_);fill:url(#SVGID_00000088840208719143618410000012871157087872474541_);}
	
		.st7{clip-path:url(#SVGID_00000149382700815985683650000006669740253946898337_);fill:url(#SVGID_00000008141022063879301080000014636882986862027684_);}
	
		.st8{clip-path:url(#SVGID_00000149382700815985683650000006669740253946898337_);fill:url(#SVGID_00000124128279559815564610000005566630631228595358_);}
	
		.st9{clip-path:url(#SVGID_00000149382700815985683650000006669740253946898337_);fill:url(#SVGID_00000054985214979697881550000018240485308170599554_);}
	
		.st10{clip-path:url(#SVGID_00000149382700815985683650000006669740253946898337_);fill:url(#SVGID_00000154422840032363637370000007623979994380064660_);}
	
		.st11{clip-path:url(#SVGID_00000149382700815985683650000006669740253946898337_);fill:url(#SVGID_00000047744902676343291710000015208039160943221896_);}
	
		.st12{clip-path:url(#SVGID_00000149382700815985683650000006669740253946898337_);fill:url(#SVGID_00000153664342569757436700000017029042856401206151_);}
	
		.st13{clip-path:url(#SVGID_00000149382700815985683650000006669740253946898337_);fill:url(#SVGID_00000103965926940432777910000007310866434122684564_);}
	
		.st14{clip-path:url(#SVGID_00000149382700815985683650000006669740253946898337_);fill:url(#SVGID_00000079454337844636937910000004779111857105545348_);}
	
		.st15{clip-path:url(#SVGID_00000149382700815985683650000006669740253946898337_);fill:url(#SVGID_00000154427286198824937460000010193468758122559623_);}
	
		.st16{clip-path:url(#SVGID_00000149382700815985683650000006669740253946898337_);fill:url(#SVGID_00000089549812183225667540000013130154673961496234_);}
	
		.st17{clip-path:url(#SVGID_00000149382700815985683650000006669740253946898337_);fill:url(#SVGID_00000173871494426973738910000012402949961945034368_);}
	
		.st18{clip-path:url(#SVGID_00000149382700815985683650000006669740253946898337_);fill:url(#SVGID_00000021838224947190257880000010562741056120487040_);}
	.st19{clip-path:url(#SVGID_00000149382700815985683650000006669740253946898337_);}
	.st20{fill:url(#SVGID_00000041275768900349240760000009416367879977756839_);}
	.st21{fill:url(#SVGID_00000071540447416171927740000000883852051636029570_);}
	.st22{fill:url(#SVGID_00000080915696602296750990000002529298958168876953_);}
	.st23{fill:url(#SVGID_00000153679647319899279580000007495652124648792238_);}
	
		.st24{clip-path:url(#SVGID_00000149382700815985683650000006669740253946898337_);fill:url(#SVGID_00000179644781916877821840000007391131006973318055_);}
	
		.st25{clip-path:url(#SVGID_00000149382700815985683650000006669740253946898337_);fill:url(#SVGID_00000000181385985229163400000003615902343839519399_);}
	
		.st26{clip-path:url(#SVGID_00000149382700815985683650000006669740253946898337_);fill:url(#SVGID_00000096756722679918941570000013966215754977930408_);}
	
		.st27{clip-path:url(#SVGID_00000149382700815985683650000006669740253946898337_);fill:url(#SVGID_00000047739175391823544410000011467240570109635482_);}
	
		.st28{clip-path:url(#SVGID_00000149382700815985683650000006669740253946898337_);fill:url(#SVGID_00000081639674841791561650000004290999727336044198_);}
	
		.st29{clip-path:url(#SVGID_00000149382700815985683650000006669740253946898337_);fill:url(#SVGID_00000008866878642569792560000011004304989572431238_);}
	
		.st30{clip-path:url(#SVGID_00000149382700815985683650000006669740253946898337_);fill:url(#SVGID_00000001636926644342719750000013316149567831792570_);}
	
		.st31{clip-path:url(#SVGID_00000149382700815985683650000006669740253946898337_);fill:url(#SVGID_00000027576027587578260020000018397529249403367063_);}
	
		.st32{clip-path:url(#SVGID_00000149382700815985683650000006669740253946898337_);fill:url(#SVGID_00000012432958666080294160000017514762277379181749_);}
	
		.st33{clip-path:url(#SVGID_00000149382700815985683650000006669740253946898337_);fill:url(#SVGID_00000047047834639583503330000012377882621467881603_);}
	
		.st34{clip-path:url(#SVGID_00000149382700815985683650000006669740253946898337_);fill:url(#SVGID_00000055681610563887379650000001586264814676433806_);}
	
		.st35{clip-path:url(#SVGID_00000149382700815985683650000006669740253946898337_);fill:url(#SVGID_00000033343444553981609580000010768391448553671057_);}
	
		.st36{clip-path:url(#SVGID_00000149382700815985683650000006669740253946898337_);fill:url(#SVGID_00000114757223688310883900000012142769733799799443_);}
	
		.st37{clip-path:url(#SVGID_00000149382700815985683650000006669740253946898337_);fill:url(#SVGID_00000039109849804047510990000008993683790728246418_);}
	
		.st38{clip-path:url(#SVGID_00000149382700815985683650000006669740253946898337_);fill:url(#SVGID_00000060748063600151363840000008224362713813531319_);}
	
		.st39{clip-path:url(#SVGID_00000149382700815985683650000006669740253946898337_);fill:url(#SVGID_00000021082025643719819600000008708175394135839381_);}
	.st40{fill:url(#SVGID_00000039828850252080644800000015931821584041601444_);}
	.st41{fill:url(#SVGID_00000047768436864328251300000010740521232982421656_);}
	.st42{fill:url(#SVGID_00000091013263309701594320000001652478305164014466_);}
	.st43{fill:url(#SVGID_00000008859100262522863810000014871001925923824830_);}
	
		.st44{clip-path:url(#SVGID_00000149382700815985683650000006669740253946898337_);fill:url(#SVGID_00000158004292453412154650000005436575135516526269_);}
	
		.st45{clip-path:url(#SVGID_00000149382700815985683650000006669740253946898337_);fill:url(#SVGID_00000084509895088698490150000003187663644431290533_);}
	
		.st46{clip-path:url(#SVGID_00000149382700815985683650000006669740253946898337_);fill:url(#SVGID_00000135660117474642784410000001860879612031701123_);}
	
		.st47{clip-path:url(#SVGID_00000149382700815985683650000006669740253946898337_);fill:url(#SVGID_00000030455174929035661750000016537552971096149898_);}
	
		.st48{clip-path:url(#SVGID_00000149382700815985683650000006669740253946898337_);fill:url(#SVGID_00000176031463612622552020000007220510368981620114_);}
	
		.st49{clip-path:url(#SVGID_00000149382700815985683650000006669740253946898337_);fill:url(#SVGID_00000130618271034849542520000015018079683256781726_);}
	
		.st50{clip-path:url(#SVGID_00000149382700815985683650000006669740253946898337_);fill:url(#SVGID_00000015322150232933931130000012893036682097535899_);}
	
		.st51{clip-path:url(#SVGID_00000149382700815985683650000006669740253946898337_);fill:url(#SVGID_00000088113639096615177370000006106535241695614605_);}
	
		.st52{clip-path:url(#SVGID_00000149382700815985683650000006669740253946898337_);fill:url(#SVGID_00000143604901953951420830000013243517205973404330_);}
	
		.st53{clip-path:url(#SVGID_00000149382700815985683650000006669740253946898337_);fill:url(#SVGID_00000031208765715593913610000003162157281481352589_);}
	
		.st54{clip-path:url(#SVGID_00000149382700815985683650000006669740253946898337_);fill:url(#SVGID_00000133531545459201664540000017154501953153937570_);}
	
		.st55{clip-path:url(#SVGID_00000149382700815985683650000006669740253946898337_);fill:url(#SVGID_00000010297953638801916070000015556576381891780021_);}
	
		.st56{clip-path:url(#SVGID_00000149382700815985683650000006669740253946898337_);fill:url(#SVGID_00000070799827429395075250000001401649147385442187_);}
	
		.st57{clip-path:url(#SVGID_00000149382700815985683650000006669740253946898337_);fill:url(#SVGID_00000153694761851801165940000008317920485881450882_);}
	
		.st58{clip-path:url(#SVGID_00000149382700815985683650000006669740253946898337_);fill:url(#SVGID_00000050664610650541075530000017264136748491671210_);}
	
		.st59{clip-path:url(#SVGID_00000149382700815985683650000006669740253946898337_);fill:url(#SVGID_00000018217857552741362310000013398707190591608717_);}
	.st60{fill:url(#SVGID_00000139979521097880034160000010489097440065165492_);}
	.st61{fill:url(#SVGID_00000007397550561508785430000002235315973543642265_);}
	.st62{fill:url(#SVGID_00000179635974775786167880000003030650112413380022_);}
	.st63{fill:url(#SVGID_00000088103567462066764150000004575979276954697635_);}
	
		.st64{clip-path:url(#SVGID_00000149382700815985683650000006669740253946898337_);fill:url(#SVGID_00000161620477990482021370000004030061949204070036_);}
	
		.st65{clip-path:url(#SVGID_00000149382700815985683650000006669740253946898337_);fill:url(#SVGID_00000061438077667146196160000002515055346805107084_);}
	
		.st66{clip-path:url(#SVGID_00000149382700815985683650000006669740253946898337_);fill:url(#SVGID_00000132799336361942471710000008621920822926852510_);}
	
		.st67{clip-path:url(#SVGID_00000149382700815985683650000006669740253946898337_);fill:url(#SVGID_00000117634563720027662720000001525470972870543270_);}
	
		.st68{clip-path:url(#SVGID_00000149382700815985683650000006669740253946898337_);fill:url(#SVGID_00000083795070915210803330000001767084337100677506_);}
	
		.st69{clip-path:url(#SVGID_00000149382700815985683650000006669740253946898337_);fill:url(#SVGID_00000160180250880529617700000013238670632481293440_);}
	
		.st70{clip-path:url(#SVGID_00000149382700815985683650000006669740253946898337_);fill:url(#SVGID_00000043446750159698616620000016573965960683644323_);}
	
		.st71{clip-path:url(#SVGID_00000149382700815985683650000006669740253946898337_);fill:url(#SVGID_00000075844382977140614490000005948145000565289147_);}
	
		.st72{clip-path:url(#SVGID_00000149382700815985683650000006669740253946898337_);fill:url(#SVGID_00000016768917196548883520000003598587475345413287_);}
	
		.st73{clip-path:url(#SVGID_00000149382700815985683650000006669740253946898337_);fill:url(#SVGID_00000079476190660891075400000008508121660866494634_);}
	
		.st74{clip-path:url(#SVGID_00000149382700815985683650000006669740253946898337_);fill:url(#SVGID_00000071521288986788220540000015645787831919176330_);}
	
		.st75{clip-path:url(#SVGID_00000149382700815985683650000006669740253946898337_);fill:url(#SVGID_00000117655516780318275020000011882691492130389692_);}
	
		.st76{clip-path:url(#SVGID_00000149382700815985683650000006669740253946898337_);fill:url(#SVGID_00000167365358572024531840000005025527450428314501_);}
	
		.st77{clip-path:url(#SVGID_00000149382700815985683650000006669740253946898337_);fill:url(#SVGID_00000036945403590174354320000012583792777398431646_);}
	
		.st78{clip-path:url(#SVGID_00000149382700815985683650000006669740253946898337_);fill:url(#SVGID_00000037665306985533452480000018118253709954563764_);}
	
		.st79{clip-path:url(#SVGID_00000149382700815985683650000006669740253946898337_);fill:url(#SVGID_00000113350636378640018510000004038697236050419376_);}
	.st80{fill:url(#SVGID_00000040532907607385357950000003558691364993945729_);}
	.st81{fill:url(#SVGID_00000178916889093929211670000008946386425491027876_);}
	.st82{fill:url(#SVGID_00000139991403716012906220000000919022774389125053_);}
	.st83{fill:url(#SVGID_00000078736576985372666710000007184707720534773412_);}
	.st84{fill:url(#SVGID_00000113324224583650491780000014822241546706342032_);}
	.st85{fill:url(#SVGID_00000085962501693853343800000007881820504500595372_);}
	.st86{fill:url(#SVGID_00000181049164397316539780000004127825113532244659_);}
	.st87{fill:url(#SVGID_00000052089391403131982300000002143069877695921323_);}
	.st88{fill:url(#SVGID_00000130614401138552902940000009299594576377830276_);}
	.st89{fill:url(#SVGID_00000173155592990447729530000007578944854585094052_);}
	.st90{clip-path:url(#SVGID_00000148622641219881451420000010318418690169467042_);}
	.st91{fill:url(#SVGID_00000147935039749874517850000003673655571849813433_);}
	.st92{fill:url(#SVGID_00000002363810728996357030000006406953016374796679_);}
	.st93{fill:url(#SVGID_00000091734145619297757430000018039647441619219366_);}
	.st94{fill:url(#SVGID_00000107590605593644091010000017518501496990366115_);}
	.st95{fill:url(#SVGID_00000047025688138058117140000008672127240848698774_);}
	.st96{fill:url(#SVGID_00000007391392950357511700000002493290716567134356_);}
	.st97{fill:url(#SVGID_00000057113651342748996030000013960495695817213056_);}
	.st98{fill:none;stroke:#666364;stroke-miterlimit:10;}
	.st99{fill:#666364;}
	.st100{fill:#FFFFFF;}
	.st101{fill:#C1C0C1;}
	.st102{fill:none;stroke:#4F4C4D;stroke-width:0.0179;stroke-miterlimit:10;}
	.st103{fill:#D5D4D5;}
	.st104{clip-path:url(#SVGID_00000005233738329014922540000011383263267610918567_);}
	.st105{fill:none;stroke:#4F4C4D;stroke-width:0.8884;stroke-linecap:round;stroke-linejoin:round;stroke-miterlimit:10;}
	.st106{fill:none;stroke:#4F4C4D;stroke-width:0.8448;stroke-linecap:round;stroke-linejoin:round;stroke-miterlimit:10;}
	.st107{fill:none;stroke:#4F4C4D;stroke-width:0.9746;stroke-linecap:round;stroke-linejoin:round;stroke-miterlimit:10;}
	.st108{fill:none;stroke:#4F4C4D;stroke-width:0.8608;stroke-linecap:round;stroke-linejoin:round;stroke-miterlimit:10;}
	
		.st109{fill:none;stroke:#4F4C4D;stroke-width:0.8608;stroke-linecap:round;stroke-linejoin:round;stroke-miterlimit:10;stroke-dasharray:1.0632;}
	.st110{fill:none;stroke:#4F4C4D;stroke-width:0.9757;stroke-linecap:round;stroke-linejoin:round;stroke-miterlimit:10;}
	.st111{fill:none;stroke:#4F4C4D;stroke-width:1.1046;stroke-linecap:round;stroke-linejoin:round;stroke-miterlimit:10;}
	.st112{fill:none;stroke:#4F4C4D;stroke-width:1.0333;stroke-linecap:round;stroke-linejoin:round;stroke-miterlimit:10;}
	
		.st113{fill:none;stroke:#4F4C4D;stroke-width:1.0333;stroke-linecap:round;stroke-linejoin:round;stroke-miterlimit:10;stroke-dasharray:1.2;}
	.st114{fill:none;stroke:#4F4C4D;stroke-linecap:round;stroke-linejoin:round;stroke-miterlimit:10;}
	.st115{fill:none;stroke:#4F4C4D;stroke-linecap:round;stroke-linejoin:round;stroke-miterlimit:10;stroke-dasharray:1.0878;}
</style>
<g>
	<g>
		<path class="st0" d="M27.36,60.49L2.69,46.25V17.76L27.36,3.52l24.67,14.24v28.48L27.36,60.49z M4.53,45.18l22.83,13.18
			l22.83-13.18V18.83L27.36,5.65L4.53,18.83V45.18z"/>
	</g>
</g>
<g>
	<g>
		<path class="st100" d="M41.84,34.88l0.69-3.33l0.58-2.77c0.03-0.16-0.02-0.33-0.14-0.45l-6.04-6.04
			c-0.12-0.12-0.29-0.17-0.45-0.14l-6.1,1.27c-0.09,0.02-0.18,0.07-0.25,0.14L15.85,37.84c-0.19,0.19-0.19,0.51,0,0.7l9.85,9.85
			l1.02,1.02c0.19,0.19,0.51,0.19,0.7,0l14.28-14.28C41.78,35.06,41.82,34.97,41.84,34.88z"/>
		<path class="st0" d="M27.07,50c-0.24,0-0.48-0.09-0.66-0.27L15.54,38.85c-0.37-0.37-0.37-0.96,0-1.33l14.28-14.28
			c0.13-0.13,0.29-0.22,0.47-0.25l6.1-1.27c0.31-0.07,0.63,0.03,0.85,0.25l6.04,6.04c0.22,0.23,0.32,0.54,0.25,0.85l-1.27,6.1
			c-0.04,0.18-0.13,0.34-0.25,0.47L27.73,49.72C27.55,49.91,27.31,50,27.07,50z M36.62,22.6l-6.15,1.25l-14.31,14.3L27.03,49.1
			L41.4,34.82l0.45,0.06l-0.43-0.09l1.27-6.1L36.62,22.6z"/>
	</g>
	<g>
		<circle class="st100" cx="36.58" cy="28.68" r="1.98"/>
		<path class="st0" d="M36.59,31.09c-0.06,0-0.12,0-0.17-0.01c-1.33-0.09-2.33-1.25-2.24-2.58l0,0c0.09-1.33,1.25-2.33,2.58-2.24
			c1.33,0.09,2.33,1.25,2.24,2.58c-0.05,0.64-0.34,1.23-0.83,1.65C37.72,30.88,37.17,31.09,36.59,31.09z M36.58,27.14
			c-0.8,0-1.47,0.62-1.53,1.43l0,0c-0.06,0.84,0.58,1.58,1.42,1.64c0.41,0.02,0.8-0.1,1.11-0.37c0.31-0.27,0.5-0.64,0.53-1.05
			c0.06-0.84-0.58-1.58-1.42-1.64C36.66,27.14,36.62,27.14,36.58,27.14z"/>
	</g>
	<g>
		<path class="st0" d="M34.65,29.6c-2.06,0-5.34-1.22-8.35-2.87c-4.35-2.39-8.24-5.75-7.25-7.54c0.77-1.4,3.17-0.73,4.32-0.41
			l0.12,0.03c1.55,0.43,3.1,1.04,4.59,1.82c0.53,0.28,1.06,0.58,1.56,0.89l-0.46,0.75c-0.49-0.3-1-0.59-1.51-0.86
			c-1.43-0.75-2.92-1.34-4.41-1.75l-0.12-0.03c-0.71-0.2-2.88-0.8-3.31-0.01c-0.44,0.8,2.03,3.67,6.9,6.35
			c4.87,2.68,8.62,3.22,9.06,2.42c0.12-0.21,0.01-0.62-0.31-1.11l0.74-0.47c0.51,0.81,0.62,1.48,0.34,2.01
			C36.25,29.35,35.57,29.6,34.65,29.6z"/>
	</g>
	<g>
		<path class="st101" d="M27.87,21.01c0.52,0.27,1.04,0.57,1.54,0.88"/>
		<g>
			<path class="st0" d="M27.66,21.37c0.52,0.27,1.03,0.57,1.54,0.88c0.19,0.12,0.47,0.05,0.57-0.15c0.11-0.2,0.05-0.45-0.15-0.57
				c-0.5-0.31-1.01-0.6-1.54-0.88c-0.19-0.1-0.46-0.06-0.57,0.15C27.41,20.99,27.45,21.26,27.66,21.37L27.66,21.37z"/>
		</g>
	</g>
	<g>
		<g>
			<g>
				<path class="st100" d="M23.05,41.96c0,0-1.83-3,1.13-5.96c3.2-3.2,8.37-3.54,8.37-3.54s-0.26,5.09-3.54,8.37
					c-1.51,1.51-2.97,1.82-4.06,1.74"/>
				<path class="st0" d="M25.27,43.02c-0.12,0-0.24-0.01-0.35-0.01l0.07-0.88c1.3,0.1,2.55-0.44,3.71-1.61
					c2.52-2.52,3.19-6.21,3.36-7.56c-1.36,0.18-5.11,0.89-7.57,3.35c-2.67,2.67-1.13,5.31-1.06,5.42l-0.75,0.46
					c-0.02-0.03-1.97-3.33,1.2-6.5c3.28-3.28,8.43-3.65,8.65-3.67l0.49-0.03l-0.03,0.5c-0.01,0.21-0.31,5.3-3.67,8.66
					C27.81,42.66,26.33,43.02,25.27,43.02z"/>
			</g>
			<g>
				<path class="st0" d="M28.84,35.58c-2.34,2.34-4.67,4.67-7.01,7.01c-0.33,0.33-0.67,0.67-1,1c-0.38,0.38,0.21,0.97,0.59,0.59
					c2.34-2.34,4.67-4.67,7.01-7.01c0.33-0.33,0.67-0.67,1-1C29.81,35.79,29.22,35.2,28.84,35.58L28.84,35.58z"/>
			</g>
		</g>
		<g>
			<path class="st0" d="M28.72,40.53c-0.58,0.58-1.25,1.09-2.03,1.37c-0.59,0.21-1.11,0.29-1.73,0.25c-0.23-0.02-0.42,0.2-0.42,0.42
				c0,0.24,0.19,0.4,0.42,0.42c1.67,0.12,3.19-0.71,4.35-1.86C29.69,40.75,29.1,40.15,28.72,40.53L28.72,40.53z"/>
		</g>
	</g>
</g>
</svg>
