<?xml version="1.0" encoding="utf-8"?>
<!-- Generator: Adobe Illustrator 27.2.0, SVG Export Plug-In . SVG Version: 6.00 Build 0)  -->
<svg version="1.1" id="Layer_1" xmlns="http://www.w3.org/2000/svg" xmlns:xlink="http://www.w3.org/1999/xlink" x="0px" y="0px"
	 viewBox="0 0 54.72 63.62" style="enable-background:new 0 0 54.72 63.62;" xml:space="preserve">
<style type="text/css">
	.st0{fill:#4F4C4D;}
	.st1{fill:url(#SVGID_1_);}
	.st2{fill:url(#SVGID_00000064317959663170883840000004958677778282802062_);}
	
		.st3{clip-path:url(#SVGID_00000053542605197006810200000002692021198633029515_);fill:url(#SVGID_00000062166239838107588660000010549975327323677359_);}
	
		.st4{clip-path:url(#SVGID_00000053542605197006810200000002692021198633029515_);fill:url(#SVGID_00000088820632739060767470000010383271108687714708_);}
	
		.st5{clip-path:url(#SVGID_00000053542605197006810200000002692021198633029515_);fill:url(#SVGID_00000092416614552655702000000011660047639250458758_);}
	
		.st6{clip-path:url(#SVGID_00000053542605197006810200000002692021198633029515_);fill:url(#SVGID_00000068644471313718740620000012683258918627165875_);}
	
		.st7{clip-path:url(#SVGID_00000053542605197006810200000002692021198633029515_);fill:url(#SVGID_00000120544586609428257460000012801452519159133590_);}
	
		.st8{clip-path:url(#SVGID_00000053542605197006810200000002692021198633029515_);fill:url(#SVGID_00000181787917976507677420000003830962976413822901_);}
	
		.st9{clip-path:url(#SVGID_00000053542605197006810200000002692021198633029515_);fill:url(#SVGID_00000086684199107740314100000001710844720021125016_);}
	
		.st10{clip-path:url(#SVGID_00000053542605197006810200000002692021198633029515_);fill:url(#SVGID_00000182496302344529276710000009372924290836590480_);}
	
		.st11{clip-path:url(#SVGID_00000053542605197006810200000002692021198633029515_);fill:url(#SVGID_00000062911775541451693540000009601086500642344072_);}
	
		.st12{clip-path:url(#SVGID_00000053542605197006810200000002692021198633029515_);fill:url(#SVGID_00000128476467042506462370000003501484938898354585_);}
	
		.st13{clip-path:url(#SVGID_00000053542605197006810200000002692021198633029515_);fill:url(#SVGID_00000023995843961657463600000002185565420327414178_);}
	
		.st14{clip-path:url(#SVGID_00000053542605197006810200000002692021198633029515_);fill:url(#SVGID_00000024723314877635465890000013872417827757403785_);}
	
		.st15{clip-path:url(#SVGID_00000053542605197006810200000002692021198633029515_);fill:url(#SVGID_00000117660811607998169120000007846253361690042792_);}
	
		.st16{clip-path:url(#SVGID_00000053542605197006810200000002692021198633029515_);fill:url(#SVGID_00000015356345990433407670000014241534583361129406_);}
	
		.st17{clip-path:url(#SVGID_00000053542605197006810200000002692021198633029515_);fill:url(#SVGID_00000137846275171690791570000008586144959714803590_);}
	
		.st18{clip-path:url(#SVGID_00000053542605197006810200000002692021198633029515_);fill:url(#SVGID_00000026151904625576774040000003818970362915927711_);}
	.st19{clip-path:url(#SVGID_00000053542605197006810200000002692021198633029515_);}
	.st20{fill:url(#SVGID_00000155126420379761955270000001573276748171011993_);}
	.st21{fill:url(#SVGID_00000154385701699617562990000005960482811424309639_);}
	.st22{fill:url(#SVGID_00000137822960457668571020000005183526169002450082_);}
	.st23{fill:url(#SVGID_00000031886999562622645590000014349414427117903781_);}
	
		.st24{clip-path:url(#SVGID_00000053542605197006810200000002692021198633029515_);fill:url(#SVGID_00000150100297729374923870000018017613295913461172_);}
	
		.st25{clip-path:url(#SVGID_00000053542605197006810200000002692021198633029515_);fill:url(#SVGID_00000095332529079329308580000003043663959278035593_);}
	
		.st26{clip-path:url(#SVGID_00000053542605197006810200000002692021198633029515_);fill:url(#SVGID_00000081618408286658084170000003705134321243900810_);}
	
		.st27{clip-path:url(#SVGID_00000053542605197006810200000002692021198633029515_);fill:url(#SVGID_00000183953570247759559750000007221258456408016062_);}
	
		.st28{clip-path:url(#SVGID_00000053542605197006810200000002692021198633029515_);fill:url(#SVGID_00000183941368561482596860000016299074175250678199_);}
	
		.st29{clip-path:url(#SVGID_00000053542605197006810200000002692021198633029515_);fill:url(#SVGID_00000165951536774679669570000013607067273181597885_);}
	
		.st30{clip-path:url(#SVGID_00000053542605197006810200000002692021198633029515_);fill:url(#SVGID_00000143605748090946316140000001947629015160551574_);}
	
		.st31{clip-path:url(#SVGID_00000053542605197006810200000002692021198633029515_);fill:url(#SVGID_00000078742399308927987940000009842561583882103696_);}
	
		.st32{clip-path:url(#SVGID_00000053542605197006810200000002692021198633029515_);fill:url(#SVGID_00000075131984847487413260000017760421067405475480_);}
	
		.st33{clip-path:url(#SVGID_00000053542605197006810200000002692021198633029515_);fill:url(#SVGID_00000145766641420418716240000010968107797615488648_);}
	
		.st34{clip-path:url(#SVGID_00000053542605197006810200000002692021198633029515_);fill:url(#SVGID_00000117635017754508627370000003860618263313428118_);}
	
		.st35{clip-path:url(#SVGID_00000053542605197006810200000002692021198633029515_);fill:url(#SVGID_00000129205733225250033830000005018294886071318706_);}
	
		.st36{clip-path:url(#SVGID_00000053542605197006810200000002692021198633029515_);fill:url(#SVGID_00000116211882851315999570000000045239378947802264_);}
	
		.st37{clip-path:url(#SVGID_00000053542605197006810200000002692021198633029515_);fill:url(#SVGID_00000176748119647843194610000009181266241590939274_);}
	
		.st38{clip-path:url(#SVGID_00000053542605197006810200000002692021198633029515_);fill:url(#SVGID_00000097474987528563285820000001139931565312967863_);}
	
		.st39{clip-path:url(#SVGID_00000053542605197006810200000002692021198633029515_);fill:url(#SVGID_00000111177124770119454100000017717538149901819052_);}
	.st40{fill:url(#SVGID_00000168103910140164128180000016878496066496311178_);}
	.st41{fill:url(#SVGID_00000116212251336794545310000005418843810995296897_);}
	.st42{fill:url(#SVGID_00000119828377556497606880000005071928379583567295_);}
	.st43{fill:url(#SVGID_00000000942502903892755820000013563086607729661086_);}
	
		.st44{clip-path:url(#SVGID_00000053542605197006810200000002692021198633029515_);fill:url(#SVGID_00000057863943988603609110000007499094936186338693_);}
	
		.st45{clip-path:url(#SVGID_00000053542605197006810200000002692021198633029515_);fill:url(#SVGID_00000000224475201525974980000002182022194407022502_);}
	
		.st46{clip-path:url(#SVGID_00000053542605197006810200000002692021198633029515_);fill:url(#SVGID_00000171694954228532457480000004448133482779644588_);}
	
		.st47{clip-path:url(#SVGID_00000053542605197006810200000002692021198633029515_);fill:url(#SVGID_00000008859953496402959360000001092927183368197263_);}
	
		.st48{clip-path:url(#SVGID_00000053542605197006810200000002692021198633029515_);fill:url(#SVGID_00000104667671324314019570000013797963939284539567_);}
	
		.st49{clip-path:url(#SVGID_00000053542605197006810200000002692021198633029515_);fill:url(#SVGID_00000046306036485201355580000016156102637492020415_);}
	
		.st50{clip-path:url(#SVGID_00000053542605197006810200000002692021198633029515_);fill:url(#SVGID_00000052082827744405908930000012299956759048899263_);}
	
		.st51{clip-path:url(#SVGID_00000053542605197006810200000002692021198633029515_);fill:url(#SVGID_00000000934004403178037020000017402955404959903142_);}
	
		.st52{clip-path:url(#SVGID_00000053542605197006810200000002692021198633029515_);fill:url(#SVGID_00000076593493358732770410000004292487499067848344_);}
	
		.st53{clip-path:url(#SVGID_00000053542605197006810200000002692021198633029515_);fill:url(#SVGID_00000063622102225523710670000010504238302499337148_);}
	
		.st54{clip-path:url(#SVGID_00000053542605197006810200000002692021198633029515_);fill:url(#SVGID_00000139289224801219917440000004970054639062530472_);}
	
		.st55{clip-path:url(#SVGID_00000053542605197006810200000002692021198633029515_);fill:url(#SVGID_00000141449496202793671290000007682878073230724749_);}
	
		.st56{clip-path:url(#SVGID_00000053542605197006810200000002692021198633029515_);fill:url(#SVGID_00000013168387853924456660000003415426074168547998_);}
	
		.st57{clip-path:url(#SVGID_00000053542605197006810200000002692021198633029515_);fill:url(#SVGID_00000046320309463724276380000014204795048765907364_);}
	
		.st58{clip-path:url(#SVGID_00000053542605197006810200000002692021198633029515_);fill:url(#SVGID_00000033368595120771583510000016090947951135305118_);}
	
		.st59{clip-path:url(#SVGID_00000053542605197006810200000002692021198633029515_);fill:url(#SVGID_00000124143730936051591770000015973538977886129801_);}
	.st60{fill:url(#SVGID_00000023974686315203847570000005177577654732466560_);}
	.st61{fill:url(#SVGID_00000047045499008328747910000011916637316903552948_);}
	.st62{fill:url(#SVGID_00000081614473262968438670000016120515449551453887_);}
	.st63{fill:url(#SVGID_00000094591278071498280760000017077147595263298735_);}
	
		.st64{clip-path:url(#SVGID_00000053542605197006810200000002692021198633029515_);fill:url(#SVGID_00000168824435064869596500000017188109621598722973_);}
	
		.st65{clip-path:url(#SVGID_00000053542605197006810200000002692021198633029515_);fill:url(#SVGID_00000079471554659101441790000014968372607080178363_);}
	
		.st66{clip-path:url(#SVGID_00000053542605197006810200000002692021198633029515_);fill:url(#SVGID_00000094617584747649077710000011013601640599645345_);}
	
		.st67{clip-path:url(#SVGID_00000053542605197006810200000002692021198633029515_);fill:url(#SVGID_00000149353000379376210910000012775027313220383131_);}
	
		.st68{clip-path:url(#SVGID_00000053542605197006810200000002692021198633029515_);fill:url(#SVGID_00000162331347321996834840000013799557341946434227_);}
	
		.st69{clip-path:url(#SVGID_00000053542605197006810200000002692021198633029515_);fill:url(#SVGID_00000183948993344785575440000003777769523900719533_);}
	
		.st70{clip-path:url(#SVGID_00000053542605197006810200000002692021198633029515_);fill:url(#SVGID_00000022540294932152883200000006886395468729827211_);}
	
		.st71{clip-path:url(#SVGID_00000053542605197006810200000002692021198633029515_);fill:url(#SVGID_00000014601604970995777180000011478007336593231268_);}
	
		.st72{clip-path:url(#SVGID_00000053542605197006810200000002692021198633029515_);fill:url(#SVGID_00000098936103057852856270000007088879945762501551_);}
	
		.st73{clip-path:url(#SVGID_00000053542605197006810200000002692021198633029515_);fill:url(#SVGID_00000041974349181766157600000006540827226917102501_);}
	
		.st74{clip-path:url(#SVGID_00000053542605197006810200000002692021198633029515_);fill:url(#SVGID_00000148647562790668666020000017117278073721411756_);}
	
		.st75{clip-path:url(#SVGID_00000053542605197006810200000002692021198633029515_);fill:url(#SVGID_00000052783716447046115990000013048393176086012081_);}
	
		.st76{clip-path:url(#SVGID_00000053542605197006810200000002692021198633029515_);fill:url(#SVGID_00000139288580210355105690000010287308155963847808_);}
	
		.st77{clip-path:url(#SVGID_00000053542605197006810200000002692021198633029515_);fill:url(#SVGID_00000077303554314936288140000001305938407534257067_);}
	
		.st78{clip-path:url(#SVGID_00000053542605197006810200000002692021198633029515_);fill:url(#SVGID_00000119106925943436579780000010785854761022114714_);}
	
		.st79{clip-path:url(#SVGID_00000053542605197006810200000002692021198633029515_);fill:url(#SVGID_00000152244668862913121590000008939497241278117807_);}
	.st80{fill:url(#SVGID_00000059300222797102534240000009184234493641051280_);}
	.st81{fill:url(#SVGID_00000054255260344490265120000018335387285493218709_);}
	.st82{fill:url(#SVGID_00000009568969530076411800000009199769685568714884_);}
	.st83{fill:url(#SVGID_00000157268833318318171230000008300689587112135356_);}
	.st84{fill:url(#SVGID_00000159459677860412084910000012632279392670588043_);}
	.st85{fill:url(#SVGID_00000029006918847292150070000000935796930911329942_);}
	.st86{fill:url(#SVGID_00000000903341872206847580000013264968134269134498_);}
	.st87{fill:url(#SVGID_00000034780552326733380590000007512582257792250008_);}
	.st88{fill:url(#SVGID_00000078728369724680104310000009151634010044147356_);}
	.st89{fill:url(#SVGID_00000083090319918069542990000006875354905397523133_);}
	.st90{clip-path:url(#SVGID_00000032644765666180542090000002316283922108963976_);}
	.st91{fill:url(#SVGID_00000052793656956867460950000012603361398499207100_);}
	.st92{fill:url(#SVGID_00000147918832015446134870000002684606819371641497_);}
	.st93{fill:url(#SVGID_00000005258650154510614500000000195146758515829684_);}
	.st94{fill:url(#SVGID_00000055691412537985559180000004090566185740267923_);}
	.st95{fill:url(#SVGID_00000038395964804963241340000007636823659143599256_);}
	.st96{fill:url(#SVGID_00000165927494524023975300000010911614652107261099_);}
	.st97{fill:url(#SVGID_00000070080762163983400160000016497310003641222819_);}
	.st98{fill:none;stroke:#666364;stroke-miterlimit:10;}
	.st99{fill:#666364;}
	.st100{fill:#FFFFFF;}
	.st101{fill:#C1C0C1;}
	.st102{fill:none;stroke:#4F4C4D;stroke-width:0.0179;stroke-miterlimit:10;}
	.st103{fill:#D5D4D5;}
	.st104{clip-path:url(#SVGID_00000137122700048919944440000004328831663502678412_);}
	.st105{fill:none;stroke:#4F4C4D;stroke-width:0.8884;stroke-linecap:round;stroke-linejoin:round;stroke-miterlimit:10;}
	.st106{fill:none;stroke:#4F4C4D;stroke-width:0.8448;stroke-linecap:round;stroke-linejoin:round;stroke-miterlimit:10;}
	.st107{fill:none;stroke:#4F4C4D;stroke-width:0.9746;stroke-linecap:round;stroke-linejoin:round;stroke-miterlimit:10;}
	.st108{fill:none;stroke:#4F4C4D;stroke-width:0.8608;stroke-linecap:round;stroke-linejoin:round;stroke-miterlimit:10;}
	
		.st109{fill:none;stroke:#4F4C4D;stroke-width:0.8608;stroke-linecap:round;stroke-linejoin:round;stroke-miterlimit:10;stroke-dasharray:1.0632;}
	.st110{fill:none;stroke:#4F4C4D;stroke-width:0.9757;stroke-linecap:round;stroke-linejoin:round;stroke-miterlimit:10;}
	.st111{fill:none;stroke:#4F4C4D;stroke-width:1.1046;stroke-linecap:round;stroke-linejoin:round;stroke-miterlimit:10;}
	.st112{fill:none;stroke:#4F4C4D;stroke-width:1.0333;stroke-linecap:round;stroke-linejoin:round;stroke-miterlimit:10;}
	
		.st113{fill:none;stroke:#4F4C4D;stroke-width:1.0333;stroke-linecap:round;stroke-linejoin:round;stroke-miterlimit:10;stroke-dasharray:1.2;}
	.st114{fill:none;stroke:#4F4C4D;stroke-linecap:round;stroke-linejoin:round;stroke-miterlimit:10;}
	.st115{fill:none;stroke:#4F4C4D;stroke-linecap:round;stroke-linejoin:round;stroke-miterlimit:10;stroke-dasharray:1.0878;}
</style>
<g>
	<path class="st98" d="M27.36,7.68c-13.61,0-24.64,11.03-24.64,24.64c0,13.61,11.03,24.64,24.64,24.64
		C40.97,56.96,52,45.93,52,32.32C52,18.71,40.97,7.68,27.36,7.68z M27.36,45.9c-7.5,0-13.58-6.08-13.58-13.58
		c0-7.5,6.08-13.58,13.58-13.58c7.5,0,13.58,6.08,13.58,13.58C40.94,39.82,34.86,45.9,27.36,45.9z"/>
	<g>
		<defs>
			<path id="SVGID_00000017488163698346258060000009179682517222500012_" d="M40.6,32.32c0,7.31-5.93,13.24-13.24,13.24
				c-7.31,0-13.24-5.93-13.24-13.24c0-7.31,5.93-13.24,13.24-13.24C34.67,19.08,40.6,25.01,40.6,32.32z"/>
		</defs>
		<clipPath id="SVGID_00000066501271687571868430000004343001642749973890_">
			<use xlink:href="#SVGID_00000017488163698346258060000009179682517222500012_"  style="overflow:visible;"/>
		</clipPath>
	</g>
	<g>
		<path class="st99" d="M10.64,28.88l-3.48-1.05L7.5,26.7c0.13-0.43,0.23-0.7,0.3-0.82c0.11-0.18,0.28-0.32,0.49-0.4
			c0.22-0.08,0.46-0.08,0.74,0c0.21,0.06,0.38,0.16,0.5,0.28c0.12,0.12,0.21,0.25,0.25,0.4c0.05,0.14,0.07,0.28,0.06,0.41
			C9.83,26.75,9.77,27,9.68,27.32l-0.14,0.46l1.31,0.4L10.64,28.88z M7.96,27.3l0.99,0.3l0.12-0.38c0.08-0.28,0.12-0.47,0.11-0.57
			c-0.01-0.1-0.04-0.19-0.11-0.27s-0.14-0.13-0.25-0.16c-0.13-0.04-0.24-0.03-0.35,0.02c-0.1,0.05-0.18,0.13-0.24,0.24
			c-0.04,0.08-0.1,0.25-0.18,0.5L7.96,27.3z"/>
		<path class="st99" d="M12.27,24.57l-0.33,0.62l-2.33-1.23l0.3-0.57l0.33,0.17c-0.11-0.18-0.16-0.32-0.17-0.43
			c-0.01-0.1,0.01-0.21,0.07-0.31c0.07-0.14,0.18-0.25,0.33-0.34l0.44,0.47c-0.12,0.07-0.21,0.15-0.25,0.24
			c-0.05,0.09-0.06,0.17-0.04,0.26c0.02,0.09,0.08,0.18,0.18,0.28s0.36,0.25,0.75,0.46L12.27,24.57z"/>
		<path class="st99" d="M13.45,21.27l0.51-0.48c0.15,0.23,0.22,0.46,0.2,0.69s-0.11,0.47-0.28,0.7c-0.28,0.36-0.6,0.54-0.98,0.53
			c-0.3-0.01-0.59-0.12-0.88-0.35c-0.35-0.27-0.55-0.57-0.61-0.9c-0.06-0.33,0.02-0.64,0.23-0.91c0.24-0.31,0.53-0.48,0.87-0.5
			s0.72,0.13,1.14,0.47l-1.06,1.39c0.17,0.12,0.33,0.18,0.49,0.16c0.16-0.02,0.28-0.09,0.38-0.21c0.07-0.09,0.1-0.18,0.1-0.27
			S13.53,21.38,13.45,21.27z M12.91,20.81c-0.16-0.12-0.32-0.17-0.46-0.16c-0.14,0.02-0.26,0.08-0.35,0.19
			c-0.09,0.12-0.12,0.25-0.1,0.4c0.03,0.15,0.12,0.28,0.27,0.39L12.91,20.81z"/>
		<path class="st99" d="M13.64,18.27l0.51-0.4l0.22,0.28c0.01-0.36,0.14-0.64,0.39-0.84c0.13-0.1,0.27-0.17,0.41-0.19
			s0.29,0,0.43,0.06c0-0.18,0.04-0.34,0.1-0.48c0.06-0.14,0.15-0.25,0.27-0.35c0.15-0.12,0.31-0.19,0.46-0.21
			c0.15-0.02,0.3,0.01,0.45,0.09c0.11,0.06,0.24,0.19,0.39,0.38l1.04,1.33l-0.55,0.43l-0.93-1.19c-0.16-0.21-0.28-0.32-0.37-0.35
			c-0.11-0.04-0.22-0.02-0.33,0.07c-0.08,0.06-0.13,0.14-0.16,0.24s-0.03,0.21,0.01,0.32c0.04,0.11,0.14,0.27,0.29,0.46l0.78,1
			l-0.55,0.43l-0.89-1.14c-0.16-0.2-0.27-0.32-0.33-0.37c-0.07-0.04-0.13-0.06-0.19-0.06c-0.06,0-0.13,0.03-0.2,0.09
			c-0.08,0.07-0.14,0.15-0.18,0.25s-0.03,0.2,0.01,0.31c0.04,0.11,0.13,0.26,0.29,0.46l0.79,1.01l-0.55,0.43L13.64,18.27z"/>
		<path class="st99" d="M18.15,14.74l-0.28-0.58l0.62-0.31l0.28,0.58L18.15,14.74z M19.47,17.42l-1.16-2.36l0.62-0.31l1.16,2.36
			L19.47,17.42z"/>
		<path class="st99" d="M22.9,16.09l-0.11-0.38c-0.05,0.16-0.14,0.3-0.27,0.43c-0.13,0.12-0.27,0.21-0.44,0.26
			c-0.17,0.05-0.33,0.06-0.49,0.03c-0.16-0.03-0.29-0.11-0.39-0.23c-0.1-0.12-0.19-0.29-0.26-0.53l-0.48-1.6l0.67-0.2l0.35,1.16
			c0.11,0.36,0.19,0.57,0.23,0.64c0.05,0.07,0.11,0.12,0.19,0.15c0.08,0.03,0.17,0.03,0.27,0c0.11-0.03,0.21-0.1,0.28-0.19
			c0.07-0.09,0.11-0.19,0.11-0.29c0-0.1-0.05-0.33-0.16-0.7l-0.32-1.06l0.67-0.2l0.76,2.52L22.9,16.09z"/>
		<path class="st99" d="M24.66,12.97l0.64-0.02l0.01,0.36c0.22-0.29,0.49-0.44,0.8-0.45c0.17-0.01,0.32,0.02,0.44,0.09
			c0.13,0.07,0.23,0.17,0.32,0.3c0.11-0.14,0.23-0.25,0.36-0.33c0.13-0.07,0.27-0.11,0.43-0.12c0.19-0.01,0.36,0.03,0.5,0.1
			c0.14,0.07,0.24,0.19,0.31,0.34c0.05,0.11,0.08,0.29,0.09,0.54l0.06,1.68l-0.7,0.03l-0.05-1.51c-0.01-0.26-0.04-0.43-0.09-0.5
			c-0.07-0.1-0.17-0.14-0.3-0.14c-0.1,0-0.19,0.04-0.27,0.1c-0.08,0.06-0.14,0.15-0.18,0.27c-0.03,0.12-0.05,0.3-0.04,0.55
			l0.04,1.27l-0.7,0.03l-0.05-1.44c-0.01-0.26-0.03-0.42-0.05-0.5c-0.03-0.07-0.07-0.13-0.12-0.16c-0.05-0.03-0.12-0.05-0.21-0.05
			c-0.11,0-0.2,0.04-0.29,0.1s-0.14,0.15-0.17,0.26c-0.03,0.11-0.05,0.29-0.04,0.54l0.04,1.28l-0.7,0.02L24.66,12.97z"/>
		<path class="st99" d="M34.72,16.67c0.12,0.18,0.27,0.35,0.44,0.5l-0.44,0.39c-0.09-0.07-0.18-0.15-0.25-0.24
			c-0.02-0.02-0.13-0.18-0.34-0.48c-0.26,0.01-0.52-0.03-0.79-0.13c-0.52-0.2-0.87-0.51-1.05-0.93c-0.18-0.42-0.16-0.91,0.05-1.46
			c0.21-0.55,0.53-0.93,0.94-1.12c0.41-0.19,0.88-0.2,1.38,0c0.5,0.19,0.84,0.5,1.02,0.92c0.18,0.42,0.16,0.91-0.05,1.46
			c-0.11,0.29-0.25,0.54-0.42,0.73C35.08,16.44,34.92,16.57,34.72,16.67z M34.32,16.08c0.13-0.07,0.24-0.17,0.34-0.3
			c0.1-0.13,0.19-0.29,0.26-0.48c0.15-0.39,0.18-0.72,0.08-0.98c-0.1-0.26-0.29-0.44-0.57-0.55c-0.28-0.11-0.54-0.1-0.79,0.03
			c-0.25,0.13-0.45,0.39-0.6,0.78c-0.15,0.4-0.18,0.73-0.08,0.99c0.1,0.26,0.28,0.45,0.55,0.55c0.1,0.04,0.2,0.06,0.3,0.06
			c-0.1-0.14-0.22-0.27-0.34-0.38l0.34-0.32C34,15.64,34.17,15.84,34.32,16.08z"/>
		<path class="st99" d="M37.38,18.84l0.22-0.32c-0.16,0.06-0.33,0.08-0.5,0.06c-0.17-0.02-0.33-0.08-0.48-0.18
			c-0.14-0.1-0.25-0.22-0.33-0.37c-0.07-0.14-0.09-0.29-0.07-0.44s0.11-0.33,0.25-0.53l0.95-1.37l0.57,0.4l-0.69,1
			c-0.21,0.3-0.33,0.5-0.35,0.58c-0.03,0.08-0.03,0.16,0,0.24c0.03,0.08,0.08,0.15,0.17,0.21c0.1,0.07,0.2,0.1,0.32,0.1
			c0.11,0,0.21-0.03,0.3-0.09c0.08-0.06,0.23-0.24,0.45-0.56l0.63-0.91l0.57,0.4l-1.5,2.17L37.38,18.84z"/>
		<path class="st99" d="M40.57,19.18l-0.35-0.54c0.23-0.12,0.46-0.17,0.66-0.12c0.21,0.04,0.43,0.19,0.67,0.43
			c0.21,0.23,0.35,0.42,0.4,0.58c0.05,0.16,0.06,0.3,0.02,0.43c-0.04,0.12-0.17,0.29-0.39,0.5l-0.6,0.55
			c-0.17,0.16-0.28,0.29-0.35,0.38s-0.12,0.2-0.17,0.33l-0.47-0.5c0.02-0.04,0.06-0.11,0.1-0.19c0.02-0.04,0.04-0.06,0.04-0.08
			c-0.17-0.01-0.32-0.04-0.45-0.1c-0.14-0.06-0.26-0.14-0.36-0.25c-0.19-0.2-0.28-0.4-0.28-0.62c0-0.21,0.08-0.4,0.24-0.55
			c0.11-0.1,0.23-0.17,0.36-0.2c0.13-0.03,0.27-0.02,0.4,0.03c0.13,0.05,0.3,0.15,0.5,0.29c0.27,0.19,0.46,0.32,0.59,0.37l0.05-0.05
			c0.1-0.09,0.14-0.18,0.14-0.27c0-0.09-0.07-0.2-0.2-0.33c-0.09-0.09-0.17-0.14-0.25-0.16C40.79,19.11,40.69,19.12,40.57,19.18z
			 M40.8,20.24c-0.08-0.04-0.21-0.12-0.37-0.23c-0.16-0.11-0.28-0.18-0.35-0.19c-0.11-0.02-0.2,0-0.27,0.07
			c-0.07,0.07-0.11,0.15-0.11,0.25c0,0.1,0.04,0.19,0.11,0.28c0.09,0.09,0.2,0.15,0.34,0.18c0.1,0.02,0.2,0,0.28-0.04
			c0.05-0.03,0.14-0.1,0.26-0.21L40.8,20.24z"/>
		<path class="st99" d="M41.07,22.59l3-2.06l0.39,0.57l-3,2.06L41.07,22.59z"/>
		<path class="st99" d="M42.1,24.21l2.33-1.24l0.33,0.62l-2.33,1.24L42.1,24.21z M44.75,22.81l0.57-0.3l0.33,0.62l-0.57,0.3
			L44.75,22.81z"/>
		<path class="st99" d="M45.84,26.13l-0.52,0.2l-0.17-0.45l-0.99,0.38c-0.2,0.08-0.32,0.12-0.35,0.15
			c-0.03,0.02-0.05,0.05-0.06,0.09c-0.01,0.04-0.01,0.08,0.01,0.12c0.02,0.06,0.08,0.14,0.16,0.24l-0.48,0.25
			c-0.12-0.13-0.22-0.29-0.29-0.48c-0.05-0.12-0.07-0.23-0.06-0.34c0-0.11,0.03-0.2,0.07-0.27s0.12-0.13,0.22-0.19
			c0.07-0.04,0.22-0.11,0.45-0.2l1.07-0.41l-0.12-0.3l0.52-0.2l0.12,0.3l0.49-0.19l0.63,0.51l-0.87,0.33L45.84,26.13z"/>
		<path class="st99" d="M46.21,27.2l0.15,0.73l-1.71,0.99l1.96,0.23l0.15,0.71l-2.67-0.4l-0.48-0.07c-0.16-0.03-0.29-0.06-0.38-0.1
			c-0.09-0.04-0.17-0.09-0.23-0.15c-0.06-0.06-0.12-0.14-0.17-0.24c-0.05-0.1-0.09-0.21-0.11-0.34c-0.03-0.13-0.04-0.26-0.04-0.39
			l0.52-0.17c0,0.11,0.01,0.21,0.03,0.29c0.03,0.16,0.1,0.27,0.21,0.32s0.24,0.09,0.39,0.1L46.21,27.2z"/>
	</g>
	<g>
		<path class="st99" d="M9.13,41.92l3.11-1.88l0.61,1.01c0.23,0.38,0.37,0.64,0.41,0.78c0.06,0.21,0.05,0.42-0.03,0.63
			c-0.08,0.21-0.25,0.4-0.5,0.55c-0.19,0.12-0.37,0.18-0.54,0.19c-0.17,0.01-0.33-0.02-0.47-0.08s-0.25-0.14-0.34-0.24
			c-0.12-0.13-0.27-0.34-0.44-0.63l-0.25-0.41l-1.18,0.71L9.13,41.92z M12.1,40.99l-0.88,0.53l0.21,0.34
			c0.15,0.25,0.27,0.4,0.35,0.47c0.08,0.06,0.17,0.1,0.27,0.1c0.1,0.01,0.19-0.02,0.29-0.08c0.11-0.07,0.19-0.16,0.22-0.27
			s0.03-0.22-0.02-0.34c-0.03-0.08-0.11-0.24-0.25-0.46L12.1,40.99z"/>
		<path class="st99" d="M11.75,45.75l-0.45-0.53l2.01-1.7L13.73,44l-0.29,0.24c0.21-0.03,0.36-0.03,0.46,0
			c0.1,0.03,0.19,0.09,0.26,0.18c0.1,0.12,0.17,0.27,0.2,0.44l-0.6,0.23c-0.02-0.14-0.06-0.25-0.12-0.32
			c-0.06-0.07-0.14-0.12-0.22-0.14c-0.08-0.02-0.19,0.01-0.33,0.07s-0.37,0.24-0.71,0.53L11.75,45.75z"/>
		<path class="st99" d="M14.72,47.52l0.45,0.55c-0.24,0.13-0.47,0.19-0.7,0.16c-0.23-0.03-0.46-0.14-0.67-0.33
			c-0.34-0.3-0.5-0.64-0.47-1.01c0.03-0.29,0.16-0.58,0.4-0.85c0.29-0.33,0.6-0.51,0.93-0.54s0.63,0.06,0.9,0.29
			c0.29,0.26,0.44,0.56,0.44,0.9c0,0.34-0.18,0.71-0.54,1.11l-1.31-1.15c-0.13,0.16-0.2,0.32-0.19,0.47
			c0.01,0.16,0.07,0.29,0.19,0.4c0.08,0.07,0.17,0.11,0.26,0.11C14.5,47.63,14.61,47.59,14.72,47.52z M15.22,47.01
			c0.13-0.15,0.19-0.3,0.19-0.45c0-0.14-0.06-0.26-0.17-0.36c-0.11-0.1-0.25-0.14-0.39-0.12s-0.28,0.1-0.41,0.24L15.22,47.01z"/>
		<path class="st99" d="M16.89,47.05l0.56,0.31l-0.18,0.31c0.34-0.13,0.64-0.12,0.92,0.04c0.15,0.08,0.26,0.18,0.33,0.3
			c0.08,0.12,0.11,0.26,0.11,0.42c0.17-0.07,0.33-0.1,0.48-0.09c0.15,0,0.29,0.04,0.43,0.12c0.17,0.09,0.29,0.21,0.37,0.34
			s0.11,0.28,0.09,0.45c-0.01,0.12-0.08,0.29-0.21,0.51l-0.82,1.47l-0.61-0.34l0.73-1.32c0.13-0.23,0.19-0.39,0.18-0.48
			c-0.01-0.12-0.07-0.21-0.19-0.28c-0.09-0.05-0.18-0.07-0.28-0.06c-0.11,0.01-0.2,0.06-0.29,0.14c-0.09,0.08-0.19,0.23-0.32,0.45
			l-0.62,1.1L17,50.13l0.71-1.26c0.12-0.22,0.19-0.37,0.21-0.45c0.02-0.08,0.01-0.14-0.02-0.2c-0.03-0.06-0.08-0.11-0.16-0.15
			c-0.09-0.05-0.19-0.07-0.29-0.07c-0.1,0.01-0.2,0.05-0.28,0.13c-0.09,0.08-0.19,0.23-0.31,0.45l-0.62,1.12l-0.61-0.34L16.89,47.05
			z"/>
		<path class="st99" d="M20.25,51.66l0.87-2.49l0.66,0.23l-0.87,2.49L20.25,51.66z M21.24,48.83l0.21-0.61l0.66,0.23l-0.21,0.61
			L21.24,48.83z"/>
		<path class="st99" d="M23.82,52.62l0.08-0.39c-0.12,0.12-0.27,0.2-0.44,0.25c-0.17,0.05-0.34,0.06-0.51,0.02
			c-0.17-0.04-0.32-0.1-0.44-0.21c-0.12-0.1-0.2-0.23-0.24-0.38c-0.03-0.15-0.03-0.35,0.02-0.59l0.33-1.63l0.68,0.14l-0.24,1.19
			c-0.07,0.36-0.1,0.59-0.1,0.68c0.01,0.09,0.04,0.16,0.1,0.22c0.06,0.06,0.14,0.1,0.24,0.12c0.12,0.02,0.23,0.01,0.33-0.03
			c0.1-0.05,0.18-0.11,0.24-0.2s0.12-0.32,0.19-0.69l0.22-1.09l0.68,0.14l-0.52,2.58L23.82,52.62z"/>
		<path class="st99" d="M25.71,50.31l0.64-0.01l0.01,0.36c0.22-0.28,0.5-0.43,0.81-0.44c0.17,0,0.32,0.03,0.44,0.09
			c0.13,0.07,0.23,0.17,0.31,0.31c0.11-0.14,0.24-0.25,0.37-0.32c0.13-0.07,0.27-0.11,0.43-0.11c0.19,0,0.36,0.03,0.49,0.11
			s0.24,0.19,0.31,0.34c0.05,0.11,0.08,0.29,0.08,0.54l0.04,1.68l-0.7,0.02l-0.03-1.51c-0.01-0.26-0.03-0.43-0.08-0.5
			c-0.07-0.1-0.17-0.15-0.3-0.14c-0.1,0-0.19,0.03-0.27,0.09c-0.09,0.06-0.15,0.15-0.18,0.27c-0.04,0.12-0.05,0.3-0.04,0.55
			l0.03,1.27l-0.7,0.01l-0.03-1.44c-0.01-0.26-0.02-0.42-0.05-0.5s-0.07-0.13-0.12-0.16c-0.05-0.04-0.12-0.05-0.21-0.05
			c-0.11,0-0.2,0.03-0.29,0.09c-0.08,0.06-0.14,0.14-0.18,0.25c-0.04,0.11-0.05,0.29-0.04,0.54l0.03,1.28l-0.7,0.01L25.71,50.31z"/>
		<path class="st99" d="M35.46,50.74c0.21,0.06,0.43,0.09,0.66,0.08l-0.07,0.58c-0.12,0.01-0.23,0-0.35-0.02
			c-0.03,0-0.22-0.05-0.57-0.13c-0.19,0.18-0.42,0.32-0.69,0.42c-0.52,0.19-0.99,0.19-1.4-0.01c-0.41-0.2-0.72-0.58-0.93-1.14
			c-0.21-0.56-0.22-1.04-0.04-1.46c0.18-0.42,0.53-0.72,1.04-0.91c0.51-0.19,0.96-0.18,1.38,0.02c0.41,0.2,0.72,0.58,0.93,1.13
			c0.11,0.29,0.17,0.57,0.17,0.82C35.57,50.33,35.54,50.53,35.46,50.74z M34.76,50.56c0.05-0.14,0.07-0.29,0.06-0.45
			c-0.01-0.16-0.05-0.34-0.12-0.53c-0.15-0.39-0.34-0.66-0.59-0.79c-0.25-0.13-0.51-0.14-0.79-0.04c-0.28,0.1-0.47,0.29-0.57,0.55
			c-0.1,0.26-0.08,0.59,0.07,0.98c0.15,0.4,0.35,0.66,0.59,0.8c0.25,0.13,0.5,0.15,0.77,0.05c0.1-0.04,0.19-0.09,0.26-0.15
			c-0.17-0.04-0.34-0.06-0.51-0.06l0.05-0.46C34.24,50.44,34.5,50.48,34.76,50.56z"/>
		<path class="st99" d="M38.55,49.52l-0.21-0.33c-0.01,0.17-0.06,0.33-0.15,0.48c-0.09,0.15-0.21,0.27-0.36,0.36
			c-0.15,0.09-0.3,0.14-0.47,0.15c-0.16,0.01-0.3-0.03-0.43-0.12s-0.26-0.23-0.39-0.45l-0.88-1.42l0.59-0.37l0.64,1.03
			c0.2,0.31,0.33,0.5,0.39,0.56s0.14,0.09,0.22,0.09s0.17-0.02,0.26-0.07c0.1-0.06,0.17-0.15,0.22-0.25s0.06-0.21,0.04-0.31
			c-0.02-0.1-0.13-0.31-0.33-0.63l-0.59-0.94l0.59-0.37l1.39,2.24L38.55,49.52z"/>
		<path class="st99" d="M39.3,46.68l-0.55,0.34c-0.12-0.24-0.15-0.46-0.1-0.67c0.05-0.21,0.2-0.43,0.45-0.65
			c0.23-0.21,0.43-0.33,0.59-0.38c0.16-0.05,0.3-0.05,0.43-0.01s0.28,0.18,0.49,0.4l0.54,0.61c0.15,0.17,0.28,0.29,0.37,0.36
			s0.2,0.13,0.33,0.18l-0.51,0.46c-0.04-0.02-0.11-0.06-0.19-0.11c-0.04-0.02-0.06-0.04-0.07-0.04c-0.01,0.17-0.05,0.32-0.11,0.45
			s-0.15,0.25-0.27,0.35c-0.2,0.18-0.41,0.27-0.62,0.26c-0.21-0.01-0.4-0.09-0.55-0.26c-0.1-0.11-0.16-0.23-0.19-0.37
			c-0.02-0.13-0.01-0.27,0.04-0.4c0.06-0.13,0.16-0.3,0.3-0.49c0.2-0.26,0.33-0.46,0.39-0.58l-0.05-0.05
			c-0.09-0.1-0.18-0.15-0.27-0.15c-0.09,0-0.2,0.06-0.34,0.19c-0.09,0.08-0.15,0.17-0.17,0.25C39.24,46.45,39.25,46.56,39.3,46.68z
			 M40.37,46.47c-0.05,0.08-0.13,0.2-0.25,0.36s-0.18,0.27-0.2,0.34c-0.02,0.11,0,0.2,0.06,0.27c0.07,0.07,0.15,0.11,0.25,0.12
			c0.1,0,0.19-0.03,0.28-0.11c0.09-0.08,0.16-0.2,0.19-0.33c0.02-0.1,0.01-0.2-0.03-0.28c-0.03-0.06-0.09-0.15-0.21-0.27
			L40.37,46.47z"/>
		<path class="st99" d="M42.59,46.01l-2.77-2.36l0.45-0.53l2.77,2.36L42.59,46.01z"/>
		<path class="st99" d="M41.34,42.79l-0.53-0.37l0.4-0.57l0.53,0.37L41.34,42.79z M43.79,44.51l-2.16-1.51l0.4-0.57l2.16,1.51
			L43.79,44.51z"/>
		<path class="st99" d="M43.14,40.54l0.48,0.27l-0.23,0.42l0.93,0.52c0.19,0.11,0.3,0.16,0.33,0.17c0.04,0.01,0.07,0.01,0.11-0.01
			c0.04-0.02,0.07-0.04,0.09-0.09c0.03-0.06,0.06-0.15,0.08-0.28l0.5,0.21c-0.02,0.18-0.08,0.35-0.18,0.53
			c-0.06,0.11-0.14,0.2-0.22,0.27c-0.09,0.07-0.17,0.11-0.25,0.11c-0.08,0.01-0.18-0.01-0.29-0.05c-0.08-0.03-0.22-0.1-0.44-0.22
			l-1-0.56l-0.16,0.28l-0.49-0.27l0.16-0.28l-0.46-0.25l-0.01-0.81l0.81,0.45L43.14,40.54z"/>
		<path class="st99" d="M43.34,40.24l0.27-0.69l1.97,0.09l-1.52-1.25l0.26-0.67l2.02,1.79l0.37,0.32c0.12,0.11,0.21,0.21,0.26,0.29
			c0.06,0.08,0.09,0.16,0.12,0.25c0.02,0.09,0.03,0.18,0.01,0.29c-0.01,0.11-0.04,0.22-0.09,0.35c-0.05,0.12-0.11,0.24-0.18,0.35
			l-0.53-0.14c0.06-0.09,0.11-0.18,0.14-0.26c0.06-0.15,0.06-0.28,0-0.39c-0.06-0.11-0.15-0.21-0.27-0.3L43.34,40.24z"/>
	</g>
	<g>
		<path class="st99" d="M18.28,32.92c0,0.31-0.11,0.55-0.33,0.71c-0.22,0.16-0.47,0.24-0.76,0.24c-0.14,0-0.28-0.02-0.42-0.06
			c-0.13-0.04-0.25-0.1-0.35-0.18c-0.1-0.08-0.18-0.18-0.25-0.3c-0.06-0.12-0.09-0.26-0.09-0.42v-2.91c0-0.16,0.03-0.3,0.09-0.42
			c0.06-0.12,0.14-0.22,0.25-0.3s0.22-0.14,0.35-0.18c0.13-0.04,0.27-0.06,0.42-0.06c0.29,0,0.54,0.08,0.76,0.25
			c0.22,0.16,0.33,0.4,0.33,0.71V32.92z M17.58,30.03c0-0.1-0.04-0.18-0.11-0.25s-0.17-0.1-0.28-0.1c-0.12,0-0.22,0.03-0.29,0.1
			c-0.07,0.07-0.11,0.15-0.11,0.25v2.85c0,0.11,0.04,0.19,0.11,0.26c0.07,0.07,0.17,0.1,0.29,0.1c0.11,0,0.21-0.03,0.28-0.1
			s0.11-0.16,0.11-0.26V30.03z M17.74,37.2h-0.58l3.58-8.33h0.58L17.74,37.2z M22.3,36.1c0,0.31-0.11,0.55-0.33,0.71
			c-0.22,0.16-0.47,0.24-0.76,0.24c-0.14,0-0.28-0.02-0.42-0.06s-0.25-0.1-0.35-0.18c-0.1-0.08-0.18-0.18-0.24-0.3
			c-0.06-0.12-0.09-0.26-0.09-0.42v-2.91c0-0.16,0.03-0.3,0.09-0.42c0.06-0.12,0.14-0.22,0.24-0.3c0.1-0.08,0.22-0.14,0.35-0.18
			c0.13-0.04,0.27-0.06,0.42-0.06c0.29,0,0.54,0.08,0.76,0.25c0.22,0.16,0.33,0.4,0.33,0.71V36.1z M21.6,33.21
			c0-0.1-0.04-0.18-0.11-0.25s-0.17-0.1-0.28-0.1c-0.12,0-0.22,0.03-0.29,0.1c-0.07,0.07-0.11,0.15-0.11,0.25v2.85
			c0,0.11,0.04,0.19,0.11,0.26c0.07,0.07,0.17,0.1,0.29,0.1c0.11,0,0.21-0.03,0.28-0.1s0.11-0.16,0.11-0.26V33.21z"/>
		<path class="st99" d="M24.48,37.01v-9L23,29.2v-1.23l1.45-1.17h1.19v10.21H24.48z"/>
		<path class="st99" d="M31.96,35.14c0,0.32-0.06,0.61-0.17,0.85c-0.11,0.24-0.26,0.45-0.46,0.62s-0.41,0.29-0.66,0.37
			c-0.25,0.08-0.51,0.12-0.79,0.12c-0.27,0-0.54-0.04-0.79-0.12s-0.47-0.21-0.66-0.37s-0.34-0.37-0.46-0.62
			c-0.11-0.24-0.17-0.53-0.17-0.85V28.7c0-0.32,0.06-0.61,0.17-0.86s0.26-0.46,0.46-0.62c0.19-0.17,0.41-0.29,0.66-0.38
			s0.51-0.13,0.79-0.13c0.61,0,1.1,0.17,1.49,0.51c0.39,0.34,0.58,0.84,0.58,1.48V35.14z M30.8,28.66c0-0.25-0.09-0.46-0.26-0.62
			c-0.17-0.16-0.39-0.23-0.65-0.23c-0.26,0-0.48,0.08-0.65,0.23c-0.17,0.16-0.26,0.36-0.26,0.62v6.53c0,0.25,0.09,0.46,0.26,0.62
			s0.39,0.23,0.65,0.23c0.26,0,0.48-0.08,0.65-0.23c0.17-0.16,0.26-0.36,0.26-0.62V28.66z"/>
		<path class="st99" d="M37.54,35.14c0,0.32-0.06,0.61-0.17,0.85c-0.11,0.24-0.26,0.45-0.46,0.62s-0.41,0.29-0.66,0.37
			c-0.25,0.08-0.51,0.12-0.79,0.12c-0.27,0-0.54-0.04-0.79-0.12s-0.47-0.21-0.66-0.37s-0.34-0.37-0.46-0.62
			c-0.11-0.24-0.17-0.53-0.17-0.85V28.7c0-0.32,0.06-0.61,0.17-0.86s0.26-0.46,0.46-0.62c0.19-0.17,0.41-0.29,0.66-0.38
			s0.51-0.13,0.79-0.13c0.61,0,1.1,0.17,1.49,0.51c0.39,0.34,0.58,0.84,0.58,1.48V35.14z M36.38,28.66c0-0.25-0.09-0.46-0.26-0.62
			c-0.17-0.16-0.39-0.23-0.65-0.23c-0.26,0-0.48,0.08-0.65,0.23c-0.17,0.16-0.26,0.36-0.26,0.62v6.53c0,0.25,0.09,0.46,0.26,0.62
			s0.39,0.23,0.65,0.23c0.26,0,0.48-0.08,0.65-0.23c0.17-0.16,0.26-0.36,0.26-0.62V28.66z"/>
	</g>
</g>
</svg>
