<?xml version="1.0" encoding="utf-8"?>
<!-- Generator: Adobe Illustrator 27.2.0, SVG Export Plug-In . SVG Version: 6.00 Build 0)  -->
<svg version="1.1" id="Layer_1" xmlns="http://www.w3.org/2000/svg" xmlns:xlink="http://www.w3.org/1999/xlink" x="0px" y="0px"
	 viewBox="0 0 54.72 63.62" style="enable-background:new 0 0 54.72 63.62;" xml:space="preserve">
<style type="text/css">
	.st0{fill:#4F4C4D;}
	.st1{fill:url(#SVGID_1_);}
	.st2{fill:url(#SVGID_00000036233575321642108720000013541285607464957350_);}
	
		.st3{clip-path:url(#SVGID_00000000193391850816111780000009513514064022361742_);fill:url(#SVGID_00000174564674324476111400000013623851649726945438_);}
	
		.st4{clip-path:url(#SVGID_00000000193391850816111780000009513514064022361742_);fill:url(#SVGID_00000072994646951713358810000004916892073084271796_);}
	
		.st5{clip-path:url(#SVGID_00000000193391850816111780000009513514064022361742_);fill:url(#SVGID_00000120559775769795591170000005294341801035172510_);}
	
		.st6{clip-path:url(#SVGID_00000000193391850816111780000009513514064022361742_);fill:url(#SVGID_00000141447358462269886900000002471460543462597566_);}
	
		.st7{clip-path:url(#SVGID_00000000193391850816111780000009513514064022361742_);fill:url(#SVGID_00000058557617145080675140000015374369502122018487_);}
	
		.st8{clip-path:url(#SVGID_00000000193391850816111780000009513514064022361742_);fill:url(#SVGID_00000141419058820419731370000012139801296454678181_);}
	
		.st9{clip-path:url(#SVGID_00000000193391850816111780000009513514064022361742_);fill:url(#SVGID_00000044880504421289594310000008750255315058421412_);}
	
		.st10{clip-path:url(#SVGID_00000000193391850816111780000009513514064022361742_);fill:url(#SVGID_00000014624022783052964280000002977479569173849234_);}
	
		.st11{clip-path:url(#SVGID_00000000193391850816111780000009513514064022361742_);fill:url(#SVGID_00000127005173684075198090000011915888913539671699_);}
	
		.st12{clip-path:url(#SVGID_00000000193391850816111780000009513514064022361742_);fill:url(#SVGID_00000128478044590772492950000008471316816589802124_);}
	
		.st13{clip-path:url(#SVGID_00000000193391850816111780000009513514064022361742_);fill:url(#SVGID_00000060724796908293563660000010606042596386947759_);}
	
		.st14{clip-path:url(#SVGID_00000000193391850816111780000009513514064022361742_);fill:url(#SVGID_00000183932560461311365160000005384179516120258978_);}
	
		.st15{clip-path:url(#SVGID_00000000193391850816111780000009513514064022361742_);fill:url(#SVGID_00000183928959815595171310000005006410460199238809_);}
	
		.st16{clip-path:url(#SVGID_00000000193391850816111780000009513514064022361742_);fill:url(#SVGID_00000139284226753912302410000011005305740892627647_);}
	
		.st17{clip-path:url(#SVGID_00000000193391850816111780000009513514064022361742_);fill:url(#SVGID_00000149376514867556593020000018148042676480072382_);}
	
		.st18{clip-path:url(#SVGID_00000000193391850816111780000009513514064022361742_);fill:url(#SVGID_00000070120466535846352040000003175529385430285503_);}
	.st19{clip-path:url(#SVGID_00000000193391850816111780000009513514064022361742_);}
	.st20{fill:url(#SVGID_00000124127235612938097850000015544348827472199867_);}
	.st21{fill:url(#SVGID_00000173140755876483530540000007014826533122218404_);}
	.st22{fill:url(#SVGID_00000064320186504116459430000015828630178098529209_);}
	.st23{fill:url(#SVGID_00000086661715529690340560000003968991607468911247_);}
	
		.st24{clip-path:url(#SVGID_00000000193391850816111780000009513514064022361742_);fill:url(#SVGID_00000066491827570992193980000010097709875775041174_);}
	
		.st25{clip-path:url(#SVGID_00000000193391850816111780000009513514064022361742_);fill:url(#SVGID_00000111151741037170123320000002801197713357744036_);}
	
		.st26{clip-path:url(#SVGID_00000000193391850816111780000009513514064022361742_);fill:url(#SVGID_00000157281461323841321600000014539704230274625450_);}
	
		.st27{clip-path:url(#SVGID_00000000193391850816111780000009513514064022361742_);fill:url(#SVGID_00000034079977606825548060000006380496272856353668_);}
	
		.st28{clip-path:url(#SVGID_00000000193391850816111780000009513514064022361742_);fill:url(#SVGID_00000019648692907307346040000004251410244642680237_);}
	
		.st29{clip-path:url(#SVGID_00000000193391850816111780000009513514064022361742_);fill:url(#SVGID_00000000223390328109711850000010075078562086652572_);}
	
		.st30{clip-path:url(#SVGID_00000000193391850816111780000009513514064022361742_);fill:url(#SVGID_00000058573977025394777680000011683062876493838224_);}
	
		.st31{clip-path:url(#SVGID_00000000193391850816111780000009513514064022361742_);fill:url(#SVGID_00000096782099293743295820000013114584378554046391_);}
	
		.st32{clip-path:url(#SVGID_00000000193391850816111780000009513514064022361742_);fill:url(#SVGID_00000046323331068217304230000001260789135436659391_);}
	
		.st33{clip-path:url(#SVGID_00000000193391850816111780000009513514064022361742_);fill:url(#SVGID_00000057115208439220107120000009814198284953560460_);}
	
		.st34{clip-path:url(#SVGID_00000000193391850816111780000009513514064022361742_);fill:url(#SVGID_00000064343723465530348230000011796465086679210173_);}
	
		.st35{clip-path:url(#SVGID_00000000193391850816111780000009513514064022361742_);fill:url(#SVGID_00000146470890729994477160000016886698090990635442_);}
	
		.st36{clip-path:url(#SVGID_00000000193391850816111780000009513514064022361742_);fill:url(#SVGID_00000160171195596247779440000000425940603603717016_);}
	
		.st37{clip-path:url(#SVGID_00000000193391850816111780000009513514064022361742_);fill:url(#SVGID_00000114784267017951859570000004777858750932448952_);}
	
		.st38{clip-path:url(#SVGID_00000000193391850816111780000009513514064022361742_);fill:url(#SVGID_00000138536039418336904600000018438648337511229827_);}
	
		.st39{clip-path:url(#SVGID_00000000193391850816111780000009513514064022361742_);fill:url(#SVGID_00000065041480659499744910000013728188762288597908_);}
	.st40{fill:url(#SVGID_00000000902124056526071630000009580135251590779311_);}
	.st41{fill:url(#SVGID_00000042715901942285488880000015802306134170066085_);}
	.st42{fill:url(#SVGID_00000021115286870141718570000007078725681967803020_);}
	.st43{fill:url(#SVGID_00000146475724819308764240000017826399509553616519_);}
	
		.st44{clip-path:url(#SVGID_00000000193391850816111780000009513514064022361742_);fill:url(#SVGID_00000072971352915589763360000015398533715006979201_);}
	
		.st45{clip-path:url(#SVGID_00000000193391850816111780000009513514064022361742_);fill:url(#SVGID_00000172404629115368344340000006776008148694975364_);}
	
		.st46{clip-path:url(#SVGID_00000000193391850816111780000009513514064022361742_);fill:url(#SVGID_00000100359719425510934840000011701741183151608967_);}
	
		.st47{clip-path:url(#SVGID_00000000193391850816111780000009513514064022361742_);fill:url(#SVGID_00000104675221930572482480000016341801780817002375_);}
	
		.st48{clip-path:url(#SVGID_00000000193391850816111780000009513514064022361742_);fill:url(#SVGID_00000050633505976916510900000011807721891134754692_);}
	
		.st49{clip-path:url(#SVGID_00000000193391850816111780000009513514064022361742_);fill:url(#SVGID_00000159468300199302644470000009426272685477342372_);}
	
		.st50{clip-path:url(#SVGID_00000000193391850816111780000009513514064022361742_);fill:url(#SVGID_00000083796120044055557790000009968477142421532559_);}
	
		.st51{clip-path:url(#SVGID_00000000193391850816111780000009513514064022361742_);fill:url(#SVGID_00000122703673405818737100000002253464505013782165_);}
	
		.st52{clip-path:url(#SVGID_00000000193391850816111780000009513514064022361742_);fill:url(#SVGID_00000172429647036312777620000007707796495630700182_);}
	
		.st53{clip-path:url(#SVGID_00000000193391850816111780000009513514064022361742_);fill:url(#SVGID_00000007420568068656344890000016331099123018049176_);}
	
		.st54{clip-path:url(#SVGID_00000000193391850816111780000009513514064022361742_);fill:url(#SVGID_00000130610233875154724940000016660819098323325868_);}
	
		.st55{clip-path:url(#SVGID_00000000193391850816111780000009513514064022361742_);fill:url(#SVGID_00000045582956869143526500000008693280857013597586_);}
	
		.st56{clip-path:url(#SVGID_00000000193391850816111780000009513514064022361742_);fill:url(#SVGID_00000079478290313643781900000011638537383680645804_);}
	
		.st57{clip-path:url(#SVGID_00000000193391850816111780000009513514064022361742_);fill:url(#SVGID_00000034774623287857595470000005098602416708867718_);}
	
		.st58{clip-path:url(#SVGID_00000000193391850816111780000009513514064022361742_);fill:url(#SVGID_00000108303381547400207550000012148088550433073047_);}
	
		.st59{clip-path:url(#SVGID_00000000193391850816111780000009513514064022361742_);fill:url(#SVGID_00000112602768307201176690000000753222851620176007_);}
	.st60{fill:url(#SVGID_00000137130692860013728090000012348204889877625230_);}
	.st61{fill:url(#SVGID_00000158744452976024977050000013078366708109788589_);}
	.st62{fill:url(#SVGID_00000068648232591202357220000010668059850933004170_);}
	.st63{fill:url(#SVGID_00000085214589796536273720000013971095815740585655_);}
	
		.st64{clip-path:url(#SVGID_00000000193391850816111780000009513514064022361742_);fill:url(#SVGID_00000117663804532098603270000011963640971812491439_);}
	
		.st65{clip-path:url(#SVGID_00000000193391850816111780000009513514064022361742_);fill:url(#SVGID_00000090987915753631019010000017799735295827573378_);}
	
		.st66{clip-path:url(#SVGID_00000000193391850816111780000009513514064022361742_);fill:url(#SVGID_00000072962411099264716660000011205236660340750267_);}
	
		.st67{clip-path:url(#SVGID_00000000193391850816111780000009513514064022361742_);fill:url(#SVGID_00000064353489016799235560000015251022629761844900_);}
	
		.st68{clip-path:url(#SVGID_00000000193391850816111780000009513514064022361742_);fill:url(#SVGID_00000131361214985501539790000011621583400762520994_);}
	
		.st69{clip-path:url(#SVGID_00000000193391850816111780000009513514064022361742_);fill:url(#SVGID_00000099644779046332612360000015890359267247403914_);}
	
		.st70{clip-path:url(#SVGID_00000000193391850816111780000009513514064022361742_);fill:url(#SVGID_00000059279955672256417950000015534422672353184135_);}
	
		.st71{clip-path:url(#SVGID_00000000193391850816111780000009513514064022361742_);fill:url(#SVGID_00000151542487393730872830000004498804929033529739_);}
	
		.st72{clip-path:url(#SVGID_00000000193391850816111780000009513514064022361742_);fill:url(#SVGID_00000162334075743099189440000007757520426803246993_);}
	
		.st73{clip-path:url(#SVGID_00000000193391850816111780000009513514064022361742_);fill:url(#SVGID_00000093160681348561406440000017955208499614329524_);}
	
		.st74{clip-path:url(#SVGID_00000000193391850816111780000009513514064022361742_);fill:url(#SVGID_00000154425907102262846290000001705368008080296846_);}
	
		.st75{clip-path:url(#SVGID_00000000193391850816111780000009513514064022361742_);fill:url(#SVGID_00000094607739176260963750000017116260381549630118_);}
	
		.st76{clip-path:url(#SVGID_00000000193391850816111780000009513514064022361742_);fill:url(#SVGID_00000179620653367311974500000001867500433504657048_);}
	
		.st77{clip-path:url(#SVGID_00000000193391850816111780000009513514064022361742_);fill:url(#SVGID_00000021809184132133688180000001927219624045245080_);}
	
		.st78{clip-path:url(#SVGID_00000000193391850816111780000009513514064022361742_);fill:url(#SVGID_00000074433619072285352100000013776054301984742789_);}
	
		.st79{clip-path:url(#SVGID_00000000193391850816111780000009513514064022361742_);fill:url(#SVGID_00000053516963653278308010000015677253834839270051_);}
	.st80{fill:url(#SVGID_00000101786484818604954620000002104654342691247006_);}
	.st81{fill:url(#SVGID_00000065061823666277687540000011205293219727603877_);}
	.st82{fill:url(#SVGID_00000158728444871947895180000014909799877332104380_);}
	.st83{fill:url(#SVGID_00000110466721279799719890000003089394966310790832_);}
	.st84{fill:url(#SVGID_00000013174994651014238470000017534229023647917955_);}
	.st85{fill:url(#SVGID_00000127735601585191313310000005265866998803385733_);}
	.st86{fill:url(#SVGID_00000054259856345798760940000003175900717538599864_);}
	.st87{fill:url(#SVGID_00000101802470762727937670000017146997071077714065_);}
	.st88{fill:url(#SVGID_00000120523595149333885970000011535448264967092618_);}
	.st89{fill:url(#SVGID_00000143580659380523394770000013113847291186535580_);}
	.st90{clip-path:url(#SVGID_00000018924255450421897330000007898174056351917710_);}
	.st91{fill:url(#SVGID_00000092434561459709517350000017515548633261442235_);}
	.st92{fill:url(#SVGID_00000024002699806914610860000014910520092101459637_);}
	.st93{fill:url(#SVGID_00000116229145419301300330000004828095145803306631_);}
	.st94{fill:url(#SVGID_00000131344176140770919690000003273977579283370632_);}
	.st95{fill:url(#SVGID_00000035530921868395317590000009224079081375580294_);}
	.st96{fill:url(#SVGID_00000100358794117106608370000000783478514281295749_);}
	.st97{fill:url(#SVGID_00000105415319111478705850000004328584016834960316_);}
	.st98{fill:none;stroke:#666364;stroke-miterlimit:10;}
	.st99{fill:#666364;}
	.st100{fill:#FFFFFF;}
	.st101{fill:#C1C0C1;}
	.st102{fill:none;stroke:#4F4C4D;stroke-width:0.0179;stroke-miterlimit:10;}
	.st103{fill:#D5D4D5;}
	.st104{clip-path:url(#SVGID_00000062164115048409656520000016810982719197608626_);}
	.st105{fill:none;stroke:#4F4C4D;stroke-width:0.8884;stroke-linecap:round;stroke-linejoin:round;stroke-miterlimit:10;}
	.st106{fill:none;stroke:#4F4C4D;stroke-width:0.8448;stroke-linecap:round;stroke-linejoin:round;stroke-miterlimit:10;}
	.st107{fill:none;stroke:#4F4C4D;stroke-width:0.9746;stroke-linecap:round;stroke-linejoin:round;stroke-miterlimit:10;}
	.st108{fill:none;stroke:#4F4C4D;stroke-width:0.8608;stroke-linecap:round;stroke-linejoin:round;stroke-miterlimit:10;}
	
		.st109{fill:none;stroke:#4F4C4D;stroke-width:0.8608;stroke-linecap:round;stroke-linejoin:round;stroke-miterlimit:10;stroke-dasharray:1.0632;}
	.st110{fill:none;stroke:#4F4C4D;stroke-width:0.9757;stroke-linecap:round;stroke-linejoin:round;stroke-miterlimit:10;}
	.st111{fill:none;stroke:#4F4C4D;stroke-width:1.1046;stroke-linecap:round;stroke-linejoin:round;stroke-miterlimit:10;}
	.st112{fill:none;stroke:#4F4C4D;stroke-width:1.0333;stroke-linecap:round;stroke-linejoin:round;stroke-miterlimit:10;}
	
		.st113{fill:none;stroke:#4F4C4D;stroke-width:1.0333;stroke-linecap:round;stroke-linejoin:round;stroke-miterlimit:10;stroke-dasharray:1.2;}
	.st114{fill:none;stroke:#4F4C4D;stroke-linecap:round;stroke-linejoin:round;stroke-miterlimit:10;}
	.st115{fill:none;stroke:#4F4C4D;stroke-linecap:round;stroke-linejoin:round;stroke-miterlimit:10;stroke-dasharray:1.0878;}
</style>
<g>
	<g>
		<g>
			<g>
				
					<linearGradient id="SVGID_1_" gradientUnits="userSpaceOnUse" x1="360.501" y1="31.9203" x2="409.9416" y2="31.9203" gradientTransform="matrix(1 0 0 1 -357.8621 0)">
					<stop  offset="0" style="stop-color:#4F4C4D"/>
					<stop  offset="0.2271" style="stop-color:#4F4C4D"/>
					<stop  offset="0.4719" style="stop-color:#4F4C4D"/>
					<stop  offset="0.7526" style="stop-color:#4F4C4D"/>
					<stop  offset="1" style="stop-color:#4F4C4D"/>
				</linearGradient>
				<path class="st1" d="M27.36,60.46L2.64,46.19V17.65L27.36,3.38l24.72,14.27v28.54L27.36,60.46z M4.48,45.13l22.88,13.21
					l22.88-13.21V18.71L27.36,5.5L4.48,18.71V45.13z"/>
				<g>
					
						<linearGradient id="SVGID_00000015313084868519134600000002874977559679565706_" gradientUnits="userSpaceOnUse" x1="395.8726" y1="31.0559" x2="400.9173" y2="31.0559" gradientTransform="matrix(1 0 0 1 -357.8621 0)">
						<stop  offset="0" style="stop-color:#4F4C4D"/>
						<stop  offset="0.2271" style="stop-color:#4F4C4D"/>
						<stop  offset="0.4719" style="stop-color:#4F4C4D"/>
						<stop  offset="0.7526" style="stop-color:#4F4C4D"/>
						<stop  offset="1" style="stop-color:#4F4C4D"/>
					</linearGradient>
					<path style="fill:url(#SVGID_00000015313084868519134600000002874977559679565706_);" d="M40.49,28.03c0,0,0.34,2.99,2.57,2.95
						c0,0-2.51,0.56-2.47,3.11c0,0-0.08-3.07-2.57-3.03C38.01,31.06,40.53,30.86,40.49,28.03z"/>
					
						<linearGradient id="SVGID_00000014622086255101334250000011404174119665372579_" gradientUnits="userSpaceOnUse" x1="395.8772" y1="19.4645" x2="400.9173" y2="19.4645" gradientTransform="matrix(1 0 0 1 -357.8621 0)">
						<stop  offset="0" style="stop-color:#4F4C4D"/>
						<stop  offset="0.2271" style="stop-color:#4F4C4D"/>
						<stop  offset="0.4719" style="stop-color:#4F4C4D"/>
						<stop  offset="0.7526" style="stop-color:#4F4C4D"/>
						<stop  offset="1" style="stop-color:#4F4C4D"/>
					</linearGradient>
					<path style="fill:url(#SVGID_00000014622086255101334250000011404174119665372579_);" d="M40.49,16.44c0,0,0.34,2.99,2.57,2.95
						c0,0-2.51,0.56-2.47,3.11c0,0-0.08-3.07-2.57-3.03C38.02,19.47,40.53,19.27,40.49,16.44z"/>
					
						<linearGradient id="SVGID_00000088119175144020573830000006583975543260094884_" gradientUnits="userSpaceOnUse" x1="401.133" y1="25.8198" x2="406.1701" y2="25.8198" gradientTransform="matrix(1 0 0 1 -357.8621 0)">
						<stop  offset="0" style="stop-color:#4F4C4D"/>
						<stop  offset="0.2271" style="stop-color:#4F4C4D"/>
						<stop  offset="0.4719" style="stop-color:#4F4C4D"/>
						<stop  offset="0.7526" style="stop-color:#4F4C4D"/>
						<stop  offset="1" style="stop-color:#4F4C4D"/>
					</linearGradient>
					<path style="fill:url(#SVGID_00000088119175144020573830000006583975543260094884_);" d="M45.74,22.79c0,0,0.34,2.98,2.56,2.95
						c0,0-2.51,0.57-2.47,3.11c0,0-0.08-3.07-2.57-3.03C43.27,25.82,45.79,25.62,45.74,22.79z"/>
				</g>
			</g>
		</g>
		<g>
			<defs>
				<polygon id="SVGID_00000105390947845569581620000010703287364312409221_" points="4.48,45.13 27.36,58.34 50.24,45.13 
					50.24,18.71 27.36,5.5 4.48,18.71 				"/>
			</defs>
			<clipPath id="SVGID_00000073719286818716175460000003240529360688206214_">
				<use xlink:href="#SVGID_00000105390947845569581620000010703287364312409221_"  style="overflow:visible;"/>
			</clipPath>
			<g style="clip-path:url(#SVGID_00000073719286818716175460000003240529360688206214_);">
				
					<linearGradient id="SVGID_00000126291863931985770860000013162444310316014497_" gradientUnits="userSpaceOnUse" x1="388.9332" y1="30.7785" x2="401.8773" y2="30.7785" gradientTransform="matrix(1 0 0 1 -357.8621 0)">
					<stop  offset="0" style="stop-color:#4F4C4D"/>
					<stop  offset="0.2271" style="stop-color:#4F4C4D"/>
					<stop  offset="0.4719" style="stop-color:#4F4C4D"/>
					<stop  offset="0.7526" style="stop-color:#4F4C4D"/>
					<stop  offset="1" style="stop-color:#4F4C4D"/>
				</linearGradient>
				<path style="fill:url(#SVGID_00000126291863931985770860000013162444310316014497_);" d="M37.6-4.5
					c-2.25,2.15-3.64,4.99-4.44,7.91c-0.77,2.94-0.93,6.01-0.69,9.03c0.55,6.06,2.74,11.84,4.78,17.69
					c2.01,5.84,4.24,11.65,5.7,17.76c0.73,3.04,1.2,6.2,1.03,9.36c-0.19,3.15-1.1,6.3-2.96,8.82c1.51-2.73,2.19-5.8,2.09-8.84
					c-0.05-3.04-0.68-6.05-1.5-9c-1.69-5.89-3.97-11.66-6.03-17.51c-1.01-2.94-2.02-5.87-2.88-8.88c-0.4-1.52-0.82-3.04-1.06-4.61
					c-0.34-1.54-0.42-3.13-0.55-4.7c-0.13-3.16,0.23-6.36,1.24-9.37C33.43,0.21,35.07-2.65,37.6-4.5z"/>
				
					<linearGradient id="SVGID_00000116235009829055202010000017758003286135446699_" gradientUnits="userSpaceOnUse" x1="384.9494" y1="30.8596" x2="397.8935" y2="30.8596" gradientTransform="matrix(1 0 0 1 -357.8621 0)">
					<stop  offset="0" style="stop-color:#4F4C4D"/>
					<stop  offset="0.2271" style="stop-color:#4F4C4D"/>
					<stop  offset="0.4719" style="stop-color:#4F4C4D"/>
					<stop  offset="0.7526" style="stop-color:#4F4C4D"/>
					<stop  offset="1" style="stop-color:#4F4C4D"/>
				</linearGradient>
				<path style="fill:url(#SVGID_00000116235009829055202010000017758003286135446699_);" d="M33.61-4.42
					c-2.25,2.15-3.64,4.99-4.44,7.91c-0.77,2.94-0.93,6.01-0.69,9.03c0.55,6.06,2.74,11.84,4.78,17.69
					c2.01,5.84,4.24,11.65,5.7,17.76c0.73,3.04,1.2,6.2,1.03,9.36c-0.19,3.15-1.1,6.3-2.96,8.82c1.51-2.73,2.19-5.8,2.09-8.84
					c-0.05-3.04-0.68-6.05-1.5-9c-1.69-5.89-3.98-11.65-6.03-17.51c-1.01-2.94-2.02-5.87-2.88-8.88c-0.4-1.52-0.82-3.04-1.06-4.61
					c-0.34-1.54-0.42-3.13-0.55-4.7c-0.13-3.16,0.23-6.36,1.24-9.37C29.45,0.29,31.08-2.57,33.61-4.42z"/>
				
					<linearGradient id="SVGID_00000103981119978813272920000012142529832897746324_" gradientUnits="userSpaceOnUse" x1="380.9657" y1="30.9406" x2="393.9097" y2="30.9406" gradientTransform="matrix(1 0 0 1 -357.8621 0)">
					<stop  offset="0" style="stop-color:#4F4C4D"/>
					<stop  offset="0.2271" style="stop-color:#4F4C4D"/>
					<stop  offset="0.4719" style="stop-color:#4F4C4D"/>
					<stop  offset="0.7526" style="stop-color:#4F4C4D"/>
					<stop  offset="1" style="stop-color:#4F4C4D"/>
				</linearGradient>
				<path style="fill:url(#SVGID_00000103981119978813272920000012142529832897746324_);" d="M29.63-4.34
					c-2.25,2.15-3.64,4.99-4.44,7.91c-0.77,2.94-0.93,6.01-0.69,9.03c0.55,6.06,2.74,11.84,4.78,17.69
					c2.01,5.84,4.24,11.65,5.7,17.76c0.73,3.04,1.2,6.2,1.03,9.36c-0.19,3.15-1.1,6.3-2.96,8.82c1.51-2.73,2.19-5.8,2.09-8.84
					c-0.05-3.04-0.68-6.05-1.5-9c-1.69-5.89-3.97-11.65-6.03-17.51c-1.01-2.94-2.02-5.87-2.88-8.88c-0.4-1.52-0.82-3.04-1.06-4.61
					c-0.34-1.54-0.42-3.13-0.55-4.7C23,9.52,23.36,6.32,24.37,3.32C25.46,0.37,27.1-2.48,29.63-4.34z"/>
				
					<linearGradient id="SVGID_00000178166063688396744450000017288841965195643578_" gradientUnits="userSpaceOnUse" x1="376.9818" y1="31.0217" x2="389.9258" y2="31.0217" gradientTransform="matrix(1 0 0 1 -357.8621 0)">
					<stop  offset="0" style="stop-color:#4F4C4D"/>
					<stop  offset="0.2271" style="stop-color:#4F4C4D"/>
					<stop  offset="0.4719" style="stop-color:#4F4C4D"/>
					<stop  offset="0.7526" style="stop-color:#4F4C4D"/>
					<stop  offset="1" style="stop-color:#4F4C4D"/>
				</linearGradient>
				<path style="fill:url(#SVGID_00000178166063688396744450000017288841965195643578_);" d="M25.64-4.26
					C23.39-2.11,22,0.73,21.21,3.65c-0.77,2.94-0.93,6.01-0.69,9.03c0.55,6.06,2.74,11.84,4.78,17.69
					c2.01,5.84,4.24,11.65,5.7,17.76c0.73,3.04,1.2,6.2,1.03,9.36c-0.19,3.15-1.1,6.3-2.96,8.82c1.51-2.73,2.19-5.8,2.09-8.84
					c-0.05-3.04-0.68-6.05-1.5-9c-1.69-5.89-3.97-11.65-6.03-17.51c-1.01-2.94-2.02-5.87-2.88-8.88c-0.4-1.52-0.82-3.04-1.06-4.61
					c-0.34-1.54-0.42-3.13-0.55-4.7C19.01,9.6,19.37,6.4,20.38,3.4C21.48,0.46,23.12-2.4,25.64-4.26z"/>
				
					<linearGradient id="SVGID_00000103245759066221183290000003630591435967400343_" gradientUnits="userSpaceOnUse" x1="372.998" y1="31.1028" x2="385.942" y2="31.1028" gradientTransform="matrix(1 0 0 1 -357.8621 0)">
					<stop  offset="0" style="stop-color:#4F4C4D"/>
					<stop  offset="0.2271" style="stop-color:#4F4C4D"/>
					<stop  offset="0.4719" style="stop-color:#4F4C4D"/>
					<stop  offset="0.7526" style="stop-color:#4F4C4D"/>
					<stop  offset="1" style="stop-color:#4F4C4D"/>
				</linearGradient>
				<path style="fill:url(#SVGID_00000103245759066221183290000003630591435967400343_);" d="M21.66-4.18
					c-2.25,2.15-3.64,4.99-4.44,7.91c-0.77,2.94-0.93,6.01-0.69,9.03c0.55,6.06,2.74,11.84,4.78,17.69
					c2.01,5.84,4.24,11.65,5.7,17.76c0.73,3.04,1.2,6.2,1.03,9.36c-0.19,3.15-1.1,6.3-2.96,8.82c1.51-2.73,2.19-5.8,2.09-8.84
					c-0.05-3.04-0.68-6.05-1.5-9c-1.69-5.89-3.97-11.65-6.03-17.51c-1.01-2.94-2.02-5.87-2.88-8.88c-0.4-1.52-0.82-3.04-1.06-4.61
					c-0.34-1.54-0.42-3.13-0.55-4.7c-0.13-3.16,0.23-6.36,1.24-9.37C17.5,0.54,19.13-2.32,21.66-4.18z"/>
				
					<linearGradient id="SVGID_00000158743753555039009540000002143652396994328751_" gradientUnits="userSpaceOnUse" x1="369.0141" y1="31.1838" x2="381.9582" y2="31.1838" gradientTransform="matrix(1 0 0 1 -357.8621 0)">
					<stop  offset="0" style="stop-color:#4F4C4D"/>
					<stop  offset="0.2271" style="stop-color:#4F4C4D"/>
					<stop  offset="0.4719" style="stop-color:#4F4C4D"/>
					<stop  offset="0.7526" style="stop-color:#4F4C4D"/>
					<stop  offset="1" style="stop-color:#4F4C4D"/>
				</linearGradient>
				<path style="fill:url(#SVGID_00000158743753555039009540000002143652396994328751_);" d="M17.68-4.1
					c-2.25,2.15-3.64,4.99-4.44,7.91c-0.77,2.94-0.93,6.01-0.69,9.03c0.55,6.06,2.74,11.84,4.78,17.69
					c2.01,5.84,4.24,11.65,5.7,17.76c0.73,3.04,1.2,6.2,1.03,9.36c-0.19,3.15-1.1,6.3-2.96,8.82c1.51-2.73,2.19-5.8,2.09-8.84
					c-0.05-3.04-0.68-6.05-1.5-9c-1.69-5.89-3.97-11.65-6.03-17.51c-1.01-2.94-2.02-5.87-2.88-8.88c-0.4-1.52-0.82-3.04-1.06-4.61
					c-0.34-1.54-0.42-3.13-0.55-4.7c-0.13-3.16,0.23-6.36,1.24-9.37C13.51,0.62,15.15-2.24,17.68-4.1z"/>
				
					<linearGradient id="SVGID_00000044151056718313522710000000048779670800496805_" gradientUnits="userSpaceOnUse" x1="365.0303" y1="31.2649" x2="377.9744" y2="31.2649" gradientTransform="matrix(1 0 0 1 -357.8621 0)">
					<stop  offset="0" style="stop-color:#4F4C4D"/>
					<stop  offset="0.2271" style="stop-color:#4F4C4D"/>
					<stop  offset="0.4719" style="stop-color:#4F4C4D"/>
					<stop  offset="0.7526" style="stop-color:#4F4C4D"/>
					<stop  offset="1" style="stop-color:#4F4C4D"/>
				</linearGradient>
				<path style="fill:url(#SVGID_00000044151056718313522710000000048779670800496805_);" d="M13.69-4.02
					c-2.25,2.15-3.64,4.99-4.44,7.91C8.48,6.84,8.33,9.9,8.57,12.92c0.55,6.06,2.74,11.84,4.78,17.69
					c2.01,5.84,4.24,11.65,5.7,17.76c0.73,3.04,1.2,6.2,1.03,9.36c-0.19,3.15-1.1,6.3-2.96,8.82c1.51-2.73,2.19-5.8,2.09-8.84
					c-0.05-3.04-0.68-6.05-1.5-9c-1.69-5.89-3.98-11.65-6.03-17.51c-1.01-2.94-2.02-5.87-2.88-8.88c-0.4-1.52-0.82-3.04-1.06-4.61
					c-0.34-1.54-0.42-3.13-0.55-4.7C7.06,9.85,7.42,6.64,8.43,3.64C9.53,0.7,11.16-2.16,13.69-4.02z"/>
			</g>
		</g>
	</g>
</g>
</svg>
