<?xml version="1.0" encoding="utf-8"?>
<!-- Generator: Adobe Illustrator 27.2.0, SVG Export Plug-In . SVG Version: 6.00 Build 0)  -->
<svg version="1.1" id="Layer_1" xmlns="http://www.w3.org/2000/svg" xmlns:xlink="http://www.w3.org/1999/xlink" x="0px" y="0px"
	 viewBox="0 0 54.72 63.62" style="enable-background:new 0 0 54.72 63.62;" xml:space="preserve">
<style type="text/css">
	.st0{fill:#4F4C4D;}
	.st1{fill:url(#SVGID_1_);}
	.st2{fill:url(#SVGID_00000165213825118216831440000014659586929445566639_);}
	
		.st3{clip-path:url(#SVGID_00000028319652821242681170000007878173473746898620_);fill:url(#SVGID_00000055697079640058147660000005269260844342739118_);}
	
		.st4{clip-path:url(#SVGID_00000028319652821242681170000007878173473746898620_);fill:url(#SVGID_00000110438565195677619720000009172571304276471461_);}
	
		.st5{clip-path:url(#SVGID_00000028319652821242681170000007878173473746898620_);fill:url(#SVGID_00000000934187854077411080000006258344263458188711_);}
	
		.st6{clip-path:url(#SVGID_00000028319652821242681170000007878173473746898620_);fill:url(#SVGID_00000070078475276891550970000005065512307494067885_);}
	
		.st7{clip-path:url(#SVGID_00000028319652821242681170000007878173473746898620_);fill:url(#SVGID_00000106832206271081229640000006911050281274904509_);}
	
		.st8{clip-path:url(#SVGID_00000028319652821242681170000007878173473746898620_);fill:url(#SVGID_00000183934354876804877970000016805712870591972777_);}
	
		.st9{clip-path:url(#SVGID_00000028319652821242681170000007878173473746898620_);fill:url(#SVGID_00000093888591800815770790000002881797803052865427_);}
	
		.st10{clip-path:url(#SVGID_00000028319652821242681170000007878173473746898620_);fill:url(#SVGID_00000106140284006161709660000003709045019009744278_);}
	
		.st11{clip-path:url(#SVGID_00000028319652821242681170000007878173473746898620_);fill:url(#SVGID_00000174585393759734656550000017190854093932895128_);}
	
		.st12{clip-path:url(#SVGID_00000028319652821242681170000007878173473746898620_);fill:url(#SVGID_00000160909007645118810710000002905424177984861872_);}
	
		.st13{clip-path:url(#SVGID_00000028319652821242681170000007878173473746898620_);fill:url(#SVGID_00000031895328753797551450000002432279586661951667_);}
	
		.st14{clip-path:url(#SVGID_00000028319652821242681170000007878173473746898620_);fill:url(#SVGID_00000127002858717920890020000007575278937696918949_);}
	
		.st15{clip-path:url(#SVGID_00000028319652821242681170000007878173473746898620_);fill:url(#SVGID_00000129166482706983561310000003315092864563314877_);}
	
		.st16{clip-path:url(#SVGID_00000028319652821242681170000007878173473746898620_);fill:url(#SVGID_00000016073971384920212620000008110599753942211758_);}
	
		.st17{clip-path:url(#SVGID_00000028319652821242681170000007878173473746898620_);fill:url(#SVGID_00000041262294981179461440000001118054254859075236_);}
	
		.st18{clip-path:url(#SVGID_00000028319652821242681170000007878173473746898620_);fill:url(#SVGID_00000064320939918131878470000011484835056121162918_);}
	.st19{clip-path:url(#SVGID_00000028319652821242681170000007878173473746898620_);}
	.st20{fill:url(#SVGID_00000018950607372733509930000008229818920644464810_);}
	.st21{fill:url(#SVGID_00000101102803367952415230000010006133578606415256_);}
	.st22{fill:url(#SVGID_00000107578454560288716850000015898492182158068608_);}
	.st23{fill:url(#SVGID_00000022559148044713602070000011467042740482470795_);}
	
		.st24{clip-path:url(#SVGID_00000028319652821242681170000007878173473746898620_);fill:url(#SVGID_00000075154844364375024990000002828464988849690498_);}
	
		.st25{clip-path:url(#SVGID_00000028319652821242681170000007878173473746898620_);fill:url(#SVGID_00000004511460801999205310000005222723437426620825_);}
	
		.st26{clip-path:url(#SVGID_00000028319652821242681170000007878173473746898620_);fill:url(#SVGID_00000110428587617276779400000002287183373696646053_);}
	
		.st27{clip-path:url(#SVGID_00000028319652821242681170000007878173473746898620_);fill:url(#SVGID_00000163756110477288997130000008199909532231402628_);}
	
		.st28{clip-path:url(#SVGID_00000028319652821242681170000007878173473746898620_);fill:url(#SVGID_00000142138303397247302720000005891509638706234535_);}
	
		.st29{clip-path:url(#SVGID_00000028319652821242681170000007878173473746898620_);fill:url(#SVGID_00000105386160529429201920000011663018944252664492_);}
	
		.st30{clip-path:url(#SVGID_00000028319652821242681170000007878173473746898620_);fill:url(#SVGID_00000142143180540980135110000002171073353888916114_);}
	
		.st31{clip-path:url(#SVGID_00000028319652821242681170000007878173473746898620_);fill:url(#SVGID_00000042725643646669204620000007319155620885134269_);}
	
		.st32{clip-path:url(#SVGID_00000028319652821242681170000007878173473746898620_);fill:url(#SVGID_00000016788233022757446970000015885730487828296618_);}
	
		.st33{clip-path:url(#SVGID_00000028319652821242681170000007878173473746898620_);fill:url(#SVGID_00000176015585399261052920000006468975748487991685_);}
	
		.st34{clip-path:url(#SVGID_00000028319652821242681170000007878173473746898620_);fill:url(#SVGID_00000003105066652861147110000017162617542299034245_);}
	
		.st35{clip-path:url(#SVGID_00000028319652821242681170000007878173473746898620_);fill:url(#SVGID_00000008852379951738008780000012460064351716948403_);}
	
		.st36{clip-path:url(#SVGID_00000028319652821242681170000007878173473746898620_);fill:url(#SVGID_00000008144204422294415890000012276167609271067792_);}
	
		.st37{clip-path:url(#SVGID_00000028319652821242681170000007878173473746898620_);fill:url(#SVGID_00000178187683185778207100000011564307954428922554_);}
	
		.st38{clip-path:url(#SVGID_00000028319652821242681170000007878173473746898620_);fill:url(#SVGID_00000061458203891622306290000002064298849919226296_);}
	
		.st39{clip-path:url(#SVGID_00000028319652821242681170000007878173473746898620_);fill:url(#SVGID_00000089548632836440199200000008350842555897607359_);}
	.st40{fill:url(#SVGID_00000078013339508255449370000000720948774671543475_);}
	.st41{fill:url(#SVGID_00000097482711481699389090000018218588752078214313_);}
	.st42{fill:url(#SVGID_00000156576116223267450590000014863560808395757454_);}
	.st43{fill:url(#SVGID_00000103961494385688618330000011596838992218385582_);}
	
		.st44{clip-path:url(#SVGID_00000028319652821242681170000007878173473746898620_);fill:url(#SVGID_00000075843528189993348400000003177581327746579124_);}
	
		.st45{clip-path:url(#SVGID_00000028319652821242681170000007878173473746898620_);fill:url(#SVGID_00000125580319000255088610000001802090004812274578_);}
	
		.st46{clip-path:url(#SVGID_00000028319652821242681170000007878173473746898620_);fill:url(#SVGID_00000163050000529420083590000013011242928737059003_);}
	
		.st47{clip-path:url(#SVGID_00000028319652821242681170000007878173473746898620_);fill:url(#SVGID_00000098189850202306016560000014189698864902796722_);}
	
		.st48{clip-path:url(#SVGID_00000028319652821242681170000007878173473746898620_);fill:url(#SVGID_00000002367076005552615730000002964437128098743952_);}
	
		.st49{clip-path:url(#SVGID_00000028319652821242681170000007878173473746898620_);fill:url(#SVGID_00000129208078654126404240000012740176435438711957_);}
	
		.st50{clip-path:url(#SVGID_00000028319652821242681170000007878173473746898620_);fill:url(#SVGID_00000084496942987765430900000003573087559177291152_);}
	
		.st51{clip-path:url(#SVGID_00000028319652821242681170000007878173473746898620_);fill:url(#SVGID_00000168113101694592461930000010756707004176657309_);}
	
		.st52{clip-path:url(#SVGID_00000028319652821242681170000007878173473746898620_);fill:url(#SVGID_00000022523657534356054770000015502972135358115747_);}
	
		.st53{clip-path:url(#SVGID_00000028319652821242681170000007878173473746898620_);fill:url(#SVGID_00000084504728618862100370000003709297106586216886_);}
	
		.st54{clip-path:url(#SVGID_00000028319652821242681170000007878173473746898620_);fill:url(#SVGID_00000010309230439529074950000014352421549037161105_);}
	
		.st55{clip-path:url(#SVGID_00000028319652821242681170000007878173473746898620_);fill:url(#SVGID_00000142168678371561629740000014635130483449795224_);}
	
		.st56{clip-path:url(#SVGID_00000028319652821242681170000007878173473746898620_);fill:url(#SVGID_00000073711758612272588460000014433090778833579652_);}
	
		.st57{clip-path:url(#SVGID_00000028319652821242681170000007878173473746898620_);fill:url(#SVGID_00000035524989357941898670000017161063285961457064_);}
	
		.st58{clip-path:url(#SVGID_00000028319652821242681170000007878173473746898620_);fill:url(#SVGID_00000083808508925923284390000018257476135992357549_);}
	
		.st59{clip-path:url(#SVGID_00000028319652821242681170000007878173473746898620_);fill:url(#SVGID_00000132073811313675369010000015938036764227983037_);}
	.st60{fill:url(#SVGID_00000046323257383365468320000012332519136804625833_);}
	.st61{fill:url(#SVGID_00000044895880292656998200000008109242657857088681_);}
	.st62{fill:url(#SVGID_00000181049115769102639430000005545740309633113744_);}
	.st63{fill:url(#SVGID_00000079480979656215746270000008800258616850635676_);}
	
		.st64{clip-path:url(#SVGID_00000028319652821242681170000007878173473746898620_);fill:url(#SVGID_00000036232185874428233570000000002400517512935602_);}
	
		.st65{clip-path:url(#SVGID_00000028319652821242681170000007878173473746898620_);fill:url(#SVGID_00000051383022563790654990000010232377543614946700_);}
	
		.st66{clip-path:url(#SVGID_00000028319652821242681170000007878173473746898620_);fill:url(#SVGID_00000091700579536453876450000014762485393761824132_);}
	
		.st67{clip-path:url(#SVGID_00000028319652821242681170000007878173473746898620_);fill:url(#SVGID_00000061431711026719278270000007072866735836802966_);}
	
		.st68{clip-path:url(#SVGID_00000028319652821242681170000007878173473746898620_);fill:url(#SVGID_00000013902561548444861430000012059407630089855385_);}
	
		.st69{clip-path:url(#SVGID_00000028319652821242681170000007878173473746898620_);fill:url(#SVGID_00000003096532523740318120000015586415549667581626_);}
	
		.st70{clip-path:url(#SVGID_00000028319652821242681170000007878173473746898620_);fill:url(#SVGID_00000042013349715295072930000017521122638305018044_);}
	
		.st71{clip-path:url(#SVGID_00000028319652821242681170000007878173473746898620_);fill:url(#SVGID_00000059309868580071634230000002544024005842258821_);}
	
		.st72{clip-path:url(#SVGID_00000028319652821242681170000007878173473746898620_);fill:url(#SVGID_00000011750961552737042070000007359114512478051488_);}
	
		.st73{clip-path:url(#SVGID_00000028319652821242681170000007878173473746898620_);fill:url(#SVGID_00000024719240723750688150000016293438550115574185_);}
	
		.st74{clip-path:url(#SVGID_00000028319652821242681170000007878173473746898620_);fill:url(#SVGID_00000182499545000764119140000001776673564564827574_);}
	
		.st75{clip-path:url(#SVGID_00000028319652821242681170000007878173473746898620_);fill:url(#SVGID_00000057867056500977679220000000813723286930203832_);}
	
		.st76{clip-path:url(#SVGID_00000028319652821242681170000007878173473746898620_);fill:url(#SVGID_00000118389151064830438970000011510101211006633372_);}
	
		.st77{clip-path:url(#SVGID_00000028319652821242681170000007878173473746898620_);fill:url(#SVGID_00000118365435762997394940000000288744296711793307_);}
	
		.st78{clip-path:url(#SVGID_00000028319652821242681170000007878173473746898620_);fill:url(#SVGID_00000120539763315609373950000014986983425851400860_);}
	
		.st79{clip-path:url(#SVGID_00000028319652821242681170000007878173473746898620_);fill:url(#SVGID_00000093888087354634638650000016885746258803345596_);}
	.st80{fill:url(#SVGID_00000085952761392683362390000000175824775137879446_);}
	.st81{fill:url(#SVGID_00000119116788473120773810000016662320435812980908_);}
	.st82{fill:url(#SVGID_00000165945211979919450540000005491249435095770528_);}
	.st83{fill:url(#SVGID_00000169520219866440337400000010244581478372295567_);}
	.st84{fill:url(#SVGID_00000095336368323725925610000009371775121227084449_);}
	.st85{fill:url(#SVGID_00000147180135488506855870000016796586724211095467_);}
	.st86{fill:url(#SVGID_00000119816420823147430420000007866258252498712977_);}
	.st87{fill:url(#SVGID_00000162353810896065202490000018133389699475287448_);}
	.st88{fill:url(#SVGID_00000146483295205704282900000015715007889519132288_);}
	.st89{fill:url(#SVGID_00000010296296746680197790000007360664332405387395_);}
	.st90{clip-path:url(#SVGID_00000008106774628262766050000009528654916718658700_);}
	.st91{fill:url(#SVGID_00000109030226724413030100000012030357442558544053_);}
	.st92{fill:url(#SVGID_00000029042799436032077200000008842814725292668819_);}
	.st93{fill:url(#SVGID_00000091737408901484919430000013421515738560756146_);}
	.st94{fill:url(#SVGID_00000061434546735560190230000011738249713039219350_);}
	.st95{fill:url(#SVGID_00000088839980836892392560000008808909845409682569_);}
	.st96{fill:url(#SVGID_00000065787042319265867410000009803882128921238429_);}
	.st97{fill:url(#SVGID_00000016761581428270497880000014499528372321543306_);}
	.st98{fill:none;stroke:#666364;stroke-miterlimit:10;}
	.st99{fill:#666364;}
	.st100{fill:#FFFFFF;}
	.st101{fill:#C1C0C1;}
	.st102{fill:none;stroke:#4F4C4D;stroke-width:0.0179;stroke-miterlimit:10;}
	.st103{fill:#D5D4D5;}
	.st104{clip-path:url(#SVGID_00000139290881513352117770000013368261103089363131_);}
	.st105{fill:none;stroke:#4F4C4D;stroke-width:0.8884;stroke-linecap:round;stroke-linejoin:round;stroke-miterlimit:10;}
	.st106{fill:none;stroke:#4F4C4D;stroke-width:0.8448;stroke-linecap:round;stroke-linejoin:round;stroke-miterlimit:10;}
	.st107{fill:none;stroke:#4F4C4D;stroke-width:0.9746;stroke-linecap:round;stroke-linejoin:round;stroke-miterlimit:10;}
	.st108{fill:none;stroke:#4F4C4D;stroke-width:0.8608;stroke-linecap:round;stroke-linejoin:round;stroke-miterlimit:10;}
	
		.st109{fill:none;stroke:#4F4C4D;stroke-width:0.8608;stroke-linecap:round;stroke-linejoin:round;stroke-miterlimit:10;stroke-dasharray:1.0632;}
	.st110{fill:none;stroke:#4F4C4D;stroke-width:0.9757;stroke-linecap:round;stroke-linejoin:round;stroke-miterlimit:10;}
	.st111{fill:none;stroke:#4F4C4D;stroke-width:1.1046;stroke-linecap:round;stroke-linejoin:round;stroke-miterlimit:10;}
	.st112{fill:none;stroke:#4F4C4D;stroke-width:1.0333;stroke-linecap:round;stroke-linejoin:round;stroke-miterlimit:10;}
	
		.st113{fill:none;stroke:#4F4C4D;stroke-width:1.0333;stroke-linecap:round;stroke-linejoin:round;stroke-miterlimit:10;stroke-dasharray:1.2;}
	.st114{fill:none;stroke:#4F4C4D;stroke-linecap:round;stroke-linejoin:round;stroke-miterlimit:10;}
	.st115{fill:none;stroke:#4F4C4D;stroke-linecap:round;stroke-linejoin:round;stroke-miterlimit:10;stroke-dasharray:1.0878;}
</style>
<g>
	<g>
		<path class="st0" d="M27.36,60.49L2.69,46.25V17.76L27.36,3.52l24.67,14.24v28.48L27.36,60.49z M4.53,45.18l22.83,13.18
			l22.83-13.18V18.83L27.36,5.65L4.53,18.83V45.18z"/>
	</g>
</g>
<g>
	<path class="st0" d="M28.54,55.97c0.14,0,0.28,0,0.41,0c-0.39-0.06-0.78-0.09-1.17-0.14c-1.78-0.22-3.49-0.66-5.11-1.44
		c-0.88-0.42-1.7-0.93-2.32-1.71c-0.18-0.22-0.26-0.44-0.21-0.72c0.04-0.24,0.04-0.49,0.07-0.74c0.18-1.45,0.42-2.89,0.87-4.28
		c0.04-0.12,0.01-0.18-0.07-0.26c-0.31-0.3-0.63-0.61-0.92-0.93c-2.21-2.45-3.43-5.28-3.34-8.63c0.01-0.18,0.07-0.26,0.23-0.33
		c0.81-0.34,1.62-0.7,2.43-1.05c0.06-0.03,0.14-0.08,0.14-0.13c0.01-0.24,0.01-0.49,0.01-0.78c-1.27,0.51-2.47,1-3.68,1.49
		c-0.07-0.09-0.14-0.18-0.2-0.27c-0.44-0.63-0.76-1.31-1.04-2.02c-0.66-1.71-1.02-3.49-1.24-5.31c-0.33-2.84-0.29-5.66,0.28-8.47
		c0.32-1.54,0.81-3.01,1.65-4.35c0.98-1.56,2.36-2.65,4.02-3.39c0.36-0.16,0.77-0.22,1.15-0.33c0.23,0,0.47,0,0.7,0
		c0.23,0.05,0.47,0.09,0.7,0.16c1.06,0.31,1.88,0.95,2.55,1.8c0.98,1.23,1.52,2.65,1.73,4.2c0.26,1.83,0.26,3.67,0.17,5.5
		c-0.1,2.09-0.32,4.18-0.78,6.22c-0.19,0.84-0.46,1.66-0.71,2.48c-0.03,0.1-0.14,0.2-0.24,0.24c-0.4,0.17-0.81,0.33-1.22,0.48
		c-0.11,0.04-0.16,0.1-0.16,0.22c0.01,0.2,0,0.41,0,0.63c0.06-0.02,0.11-0.03,0.16-0.05c0.22-0.1,0.45-0.18,0.65-0.31
		c0.56-0.33,1.15-0.42,1.8-0.39c2.04,0.09,4.07,0.31,6.07,0.76c0.05,0.01,0.1,0.02,0.17,0.03c0.08-0.34,0.16-0.67,0.24-1
		c0.11-0.47,0.22-0.95,0.35-1.42c0.05-0.17,0-0.27-0.13-0.37c-0.16-0.12-0.32-0.26-0.47-0.4c-0.19-0.18-0.28-0.41-0.24-0.67
		c0.04-0.31,0.03-0.6-0.09-0.9c-0.06-0.14-0.06-0.32-0.02-0.47c0.05-0.2,0.04-0.37-0.03-0.55c-0.16-0.42-0.15-0.8,0.22-1.11
		c0.03-0.03,0.06-0.09,0.05-0.13c-0.04-0.44,0.21-0.71,0.51-0.96c0.1-0.09,0.19-0.2,0.3-0.28c0.15-0.12,0.29-0.24,0.46-0.33
		c0.18-0.1,0.38-0.18,0.57-0.27c0.56-0.26,0.95-0.68,1.22-1.23c0.17-0.35,0.41-0.67,0.66-0.97c1.17-1.43,2.35-2.85,3.52-4.27
		c0.16-0.2,0.31-0.4,0.49-0.65c0,0.44,0.04,0.8-0.27,1.17c-1.29,1.52-2.55,3.08-3.81,4.63c-0.15,0.18-0.23,0.4-0.37,0.59
		c-0.19,0.25-0.37,0.51-0.6,0.71c-0.23,0.2-0.49,0.37-0.77,0.5c-0.46,0.21-0.81,0.54-1.18,0.86c-0.15,0.13-0.27,0.29-0.22,0.52
		c0.07,0,0.13,0,0.19,0c-0.52,0.3-0.75,0.68-0.35,1.29c0.05-0.08,0.09-0.17,0.14-0.25c0.02,0.02,0.05,0.04,0.07,0.06
		c-0.06,0.11-0.12,0.23-0.2,0.32c-0.15,0.18-0.18,0.38-0.1,0.59c0.12,0.33,0.14,0.66,0.12,1.01c-0.01,0.14,0.07,0.29,0.14,0.42
		c0.1,0.17,0.23,0.31,0.36,0.5c0.18-0.39,0.24-0.76,0.23-1.15c0-0.28,0.33-0.65,0.61-0.71c0.23-0.05,0.45-0.12,0.72-0.19
		c-0.12,0.11-0.2,0.2-0.3,0.27c-0.47,0.38-0.65,0.92-0.76,1.49c-0.04,0.18,0.07,0.32,0.25,0.4c0.18,0.08,0.36,0.06,0.5-0.1
		c0.07-0.08,0.12-0.17,0.15-0.26c0.13-0.37,0.38-0.66,0.69-0.89c0.29-0.21,0.48-0.49,0.67-0.8c0.38-0.63,0.7-1.29,0.92-2
		c0.11-0.36,0.32-0.73,0.57-1.02c0.81-0.95,1.66-1.88,2.5-2.81c0.01-0.01,0.03-0.02,0.06-0.04c0.04,0.34,0.02,0.62-0.24,0.9
		c-0.66,0.69-1.27,1.43-1.9,2.15c-0.32,0.36-0.55,0.77-0.66,1.24c-0.14,0.56-0.36,1.09-0.71,1.56c-0.15,0.2-0.24,0.44-0.39,0.63
		c-0.15,0.2-0.34,0.37-0.52,0.55c-0.14,0.14-0.3,0.27-0.43,0.43c-0.16,0.2-0.29,0.42-0.43,0.63c-0.22,0.32-0.4,0.37-0.77,0.25
		c-0.05-0.02-0.09-0.03-0.16-0.05c-0.26,0.91-0.51,1.81-0.78,2.75c0.13,0.04,0.25,0.07,0.37,0.11c1.41,0.41,2.77,0.91,3.97,1.79
		c0.71,0.52,1.27,1.14,1.48,2.02c0.17,0.72,0.08,1.42-0.1,2.12c-0.48,1.83-1.37,3.46-2.5,4.97c-0.75,1.01-1.6,1.93-2.65,2.65
		c-0.02,0.01-0.04,0.02-0.06,0.04c0.24,0.48,0.49,0.94,0.71,1.42c0.62,1.32,1.09,2.69,1.25,4.15c0.01,0.13-0.02,0.28-0.08,0.39
		c-0.34,0.57-0.84,0.96-1.43,1.24c-0.89,0.44-1.85,0.61-2.83,0.69c-0.09,0.01-0.17,0.01-0.26,0.05c3.73,0-5.37,0-1.64,0
		 M14.91,24.98c0.04,2.34,0.27,4.53,0.87,6.68c0.31,1.12,0.71,2.21,1.38,3.17c0.1,0.15,0.19,0.18,0.37,0.11
		c2.04-0.84,4.08-1.68,6.13-2.52c0.29-0.12,0.64-0.19,0.83-0.4c0.19-0.22,0.24-0.59,0.32-0.9c0.83-3.17,1.19-6.4,1.13-9.68
		c-0.03-1.5-0.14-2.99-0.6-4.43c-0.39-1.23-0.97-2.34-1.95-3.21c-0.89-0.79-1.91-1.19-3.12-0.93c-0.92,0.2-1.64,0.74-2.26,1.42
		c-1.07,1.19-1.75,2.59-2.22,4.1C15.1,20.59,14.91,22.83,14.91,24.98z M35.76,42.77c-0.02,0.01-0.03,0.03-0.05,0.04
		c-0.05,0.03-0.1,0.05-0.16,0.07c-1.43,0.65-2.95,0.9-4.51,0.94c-3.48,0.09-6.82-0.59-10.01-1.94c-1.27-0.54-2.47-1.19-3.43-2.21
		c0-0.01-0.02,0-0.07,0.01c0.08,0.37,0.14,0.75,0.26,1.1c0.48,1.54,1.35,2.85,2.36,4.08c0.61,0.75,1.3,1.4,2.14,1.88
		c2.23,1.31,4.65,1.87,7.23,1.7c1.54-0.1,2.96-0.56,4.18-1.54c1.76-1.4,2.91-3.22,3.62-5.33c0.01-0.02,0-0.05,0-0.09
		c-0.2,0.1-0.38,0.19-0.57,0.27c-1.55,0.7-3.19,1.01-4.87,1.13c-2.96,0.2-5.87-0.14-8.71-1c-1.68-0.51-3.27-1.19-4.69-2.25
		c-0.14-0.1-0.27-0.21-0.4-0.31c-0.03,0.03-0.05,0.06-0.08,0.08c0.21,0.18,0.43,0.36,0.64,0.55c1.18,1.08,2.57,1.82,4.08,2.32
		C27.01,43.72,31.35,43.97,35.76,42.77z M32.74,48.33c-0.57,0.33-1.17,0.43-1.77,0.5c-1.68,0.19-3.35,0.06-5.01-0.25
		c-1.3-0.24-2.57-0.6-3.74-1.24c-0.2-0.11-0.39-0.23-0.59-0.35c-0.02,0.05-0.04,0.09-0.05,0.13c-0.38,1.37-0.58,2.77-0.71,4.18
		c-0.01,0.08,0.05,0.19,0.11,0.23c0.35,0.26,0.7,0.54,1.08,0.75c2.35,1.3,4.88,1.99,7.56,2.1c1.41,0.06,2.8-0.12,4.1-0.7
		c0.05-0.02,0.11-0.05,0.17-0.07c-0.18,0.16-0.38,0.28-0.59,0.38c-0.92,0.45-1.91,0.61-2.93,0.65c-2.03,0.08-4-0.26-5.91-0.9
		c-1.29-0.43-2.52-0.96-3.56-1.86c-0.01-0.01-0.04,0-0.05,0c-0.07,0.23,0.01,0.4,0.17,0.57c0.67,0.7,1.49,1.17,2.36,1.55
		c1.83,0.79,3.74,1.2,5.73,1.31c1.14,0.07,2.28,0.02,3.39-0.27c0.73-0.19,1.4-0.48,1.93-1.05c0.17-0.18,0.21-0.35,0.17-0.59
		c-0.25-1.35-0.68-2.65-1.25-3.9C33.16,49.1,32.94,48.72,32.74,48.33z M32.22,36.05c0.12,0.03,0.2,0.06,0.28,0.08
		c1.02,0.31,2.03,0.66,2.89,1.32c0.29,0.22,0.55,0.51,0.75,0.81c0.29,0.43,0.23,0.91-0.13,1.29c-0.22,0.23-0.49,0.45-0.78,0.58
		c-0.51,0.22-1.04,0.43-1.59,0.54c-3.11,0.59-6.16,0.29-9.13-0.77c-0.79-0.28-1.53-0.65-2.15-1.23c-0.86-0.8-0.78-1.68,0.24-2.27
		c0.48-0.27,1.02-0.48,1.56-0.62c1.97-0.49,3.96-0.44,5.95-0.16c0.52,0.07,1.04,0.18,1.58,0.27c0.1-0.42,0.2-0.84,0.3-1.26
		c-0.08-0.02-0.14-0.04-0.19-0.05c-2.16-0.5-4.35-0.65-6.55-0.73c-0.12,0-0.24,0.04-0.35,0.08c-2.39,1.04-4.79,2.07-7.18,3.11
		c-0.14,0.06-0.29,0.13-0.44,0.2c0.23,0.49,0.53,0.9,0.88,1.28c0.94,1.01,2.1,1.71,3.36,2.25c3.65,1.55,7.46,2.1,11.41,1.69
		c1.11-0.12,2.18-0.37,3.19-0.86c0.67-0.33,1.28-0.75,1.67-1.4c0.48-0.8,0.56-1.62,0.02-2.43c-0.3-0.45-0.69-0.81-1.12-1.13
		c-1.12-0.82-2.39-1.33-3.7-1.74c-0.12-0.04-0.25-0.07-0.39-0.11C32.46,35.23,32.34,35.63,32.22,36.05z M29.39,37.94
		c-0.07-0.01-0.11-0.02-0.15-0.02c-0.97-0.01-1.94-0.05-2.9-0.02c-0.85,0.03-1.68,0.19-2.47,0.51c-0.24,0.1-0.47,0.24-0.71,0.37
		c0,0.03,0.01,0.06,0.01,0.08c2.38,1.31,4.98,1.6,7.63,1.64c-0.07-0.05-0.15-0.06-0.22-0.09c-0.37-0.17-0.75-0.32-1.09-0.53
		c-0.29-0.18-0.39-0.46-0.3-0.82C29.29,38.7,29.33,38.32,29.39,37.94z M31.56,36.4c0-0.01,0.01-0.03,0.01-0.04
		c-0.06-0.02-0.12-0.04-0.17-0.05c-1.92-0.35-3.85-0.49-5.79-0.3c-0.79,0.08-1.58,0.19-2.3,0.57c-0.26,0.14-0.5,0.35-0.69,0.58
		c-0.2,0.24-0.19,0.61-0.03,0.77c0.21,0.22,0.47,0.17,0.71,0.06c1.04-0.46,2.14-0.63,3.26-0.66c0.9-0.02,1.81,0.04,2.71,0.07
		c0.15,0.01,0.22-0.01,0.28-0.18c0.08-0.21,0.21-0.42,0.37-0.58c0.31-0.29,0.72-0.33,1.13-0.31C31.22,36.35,31.39,36.38,31.56,36.4z
		 M15.64,16.66c0,0-0.02,0.02-0.03,0.04c-0.14,0.27-0.28,0.53-0.4,0.8c-0.86,1.88-1.21,3.89-1.36,5.94
		c-0.12,1.73-0.08,3.46,0.13,5.18c0.2,1.63,0.51,3.23,1.09,4.76c0.25,0.65,0.54,1.28,0.96,1.84c0.04,0.06,0.14,0.12,0.2,0.11
		c0.13-0.03,0.25-0.1,0.38-0.16c-0.49-0.76-0.85-1.56-1.14-2.38c-0.8-2.32-1.14-4.71-1.22-7.15c-0.07-2.36,0.11-4.69,0.74-6.98
		C15.19,17.97,15.43,17.31,15.64,16.66z M33.19,38.24c0.78,0.3,1.52,0.65,2.12,1.24c0.56-0.48,0.6-1.05,0.11-1.55
		c-0.21-0.21-0.47-0.4-0.73-0.55c-0.72-0.42-1.52-0.66-2.33-0.86c-0.09-0.02-0.18,0-0.27,0.01c0.06,0.06,0.12,0.13,0.19,0.17
		C32.85,37.04,33.36,37.42,33.19,38.24z M29.75,39.35c0.03,0.05,0.03,0.07,0.05,0.08c0.42,0.47,1.71,0.77,2.29,0.54
		c0.08-0.03,0.15-0.1,0.27-0.18c-0.15-0.03-0.24-0.04-0.32-0.06c0-0.01,0-0.02,0.01-0.03c0.09-0.02,0.17-0.04,0.32-0.08
		c-0.17-0.05-0.27-0.08-0.44-0.13c0.19-0.04,0.32-0.07,0.45-0.1c0-0.01,0-0.02,0-0.03c-0.21-0.05-0.42-0.09-0.62-0.14
		c0-0.01,0-0.02,0.01-0.03c0.22-0.02,0.44-0.05,0.65-0.07c0-0.01,0-0.03,0-0.04c-0.05-0.01-0.1-0.03-0.17-0.05
		c0.08-0.07,0.15-0.14,0.23-0.21c-0.9,0.16-1.68-0.1-2.47-0.57c0.08,0.11,0.13,0.18,0.19,0.27c-0.12-0.01-0.22-0.02-0.37-0.04
		c0.17,0.13,0.29,0.23,0.42,0.32c-0.01,0.01-0.01,0.02-0.02,0.03c-0.16-0.03-0.31-0.05-0.53-0.09c0.17,0.13,0.29,0.23,0.41,0.33
		c-0.01,0.01-0.01,0.02-0.02,0.03c-0.09-0.01-0.18-0.03-0.34-0.06c0.22,0.16,0.39,0.29,0.56,0.41c-0.01,0.01-0.01,0.02-0.02,0.03
		C30.11,39.46,29.94,39.41,29.75,39.35z M32.6,40.41c0.82-0.11,1.66-0.26,2.46-0.69c-0.61-0.49-1.28-0.78-1.98-1.02
		C32.91,39.28,32.76,39.84,32.6,40.41z M31.82,37.48c0.04,0.03,0.08,0.05,0.1,0.08c0.05,0.08,0.1,0.16,0.14,0.25
		c-0.09,0.05-0.18,0.14-0.27,0.14c-0.18-0.01-0.38-0.03-0.55-0.11c-0.13-0.06-0.28-0.21-0.29-0.33c-0.02-0.17,0.22-0.11,0.32-0.18
		c0.09-0.06,0.13-0.22,0.17-0.33c0.01-0.03-0.07-0.08-0.13-0.16c-0.03,0.15-0.04,0.23-0.06,0.33c-0.14-0.33-0.19-0.36-0.47-0.27
		c0.03,0.09,0.06,0.19,0.11,0.34c-0.13-0.12-0.22-0.2-0.31-0.28c-0.01,0.01-0.02,0.01-0.02,0.02c0.07,0.13,0.14,0.25,0.23,0.4
		c-0.05-0.02-0.07-0.02-0.08-0.03c-0.1-0.06-0.2-0.12-0.3-0.17c-0.22-0.13-0.3-0.09-0.37,0.2c0.19,0.05,0.37,0.1,0.61,0.16
		c-0.21,0.04-0.37,0.07-0.52,0.1c0,0.02,0,0.03,0,0.05c0.17,0.02,0.34,0.04,0.55,0.06c-0.16,0.09-0.28,0.15-0.4,0.22
		c0,0.02,0.01,0.03,0.01,0.05c0.18-0.03,0.36-0.07,0.58-0.1c-0.1,0.14-0.19,0.25-0.28,0.38c0.14,0.07,0.26,0.13,0.38,0.19
		c0.07-0.1,0.12-0.19,0.18-0.27c0.01,0,0.02,0.01,0.02,0.01c-0.02,0.1-0.04,0.19-0.06,0.3c0.1,0.03,0.19,0.05,0.28,0.08
		c0.04-0.13,0.08-0.24,0.12-0.36c0.14,0.44,0.14,0.44,0.38,0.4c-0.04-0.14-0.07-0.28-0.11-0.42c0.1,0.09,0.19,0.19,0.25,0.3
		c0.08,0.14,0.17,0.19,0.33,0.08c-0.12-0.15-0.23-0.29-0.38-0.48c0.2,0.07,0.37,0.13,0.53,0.18c0-0.01,0.01-0.02,0.01-0.03
		c-0.12-0.08-0.23-0.16-0.35-0.23c0-0.01,0.01-0.02,0.01-0.03c0.18,0.01,0.37,0.02,0.55,0.03c0-0.16,0-0.16-0.59-0.23
		c0.14-0.04,0.23-0.06,0.33-0.09c0-0.01,0-0.03-0.01-0.04c-0.11,0-0.22,0-0.32,0c0-0.01,0-0.02,0-0.03c0.11-0.05,0.23-0.1,0.34-0.14
		c-0.15-0.29-0.33-0.16-0.55-0.04c0.05-0.09,0.08-0.12,0.1-0.16c0.02-0.04,0.04-0.07,0.06-0.11C31.91,37.09,31.91,37.09,31.82,37.48
		z M22.71,33.85c-0.86,0.34-1.69,0.66-2.52,1c-0.04,0.02-0.09,0.08-0.09,0.12c-0.01,0.16,0,0.33,0,0.53
		c0.87-0.37,1.7-0.72,2.51-1.07c0.05-0.02,0.09-0.09,0.1-0.15C22.72,34.15,22.71,34.02,22.71,33.85z M22.73,33.25
		c-0.82,0.34-1.62,0.68-2.44,0.99c-0.22,0.09-0.27,0.19-0.19,0.41c0.06-0.02,0.11-0.04,0.17-0.06c0.77-0.33,1.53-0.67,2.3-1
		C22.72,33.52,22.79,33.43,22.73,33.25z"/>
	<path class="st0" d="M24.49,22.91c0,2.13-0.3,4.21-1.13,6.19c-0.3,0.7-0.65,1.37-1.18,1.93c-0.23,0.25-0.5,0.48-0.79,0.65
		c-0.64,0.39-1.33,0.32-1.92-0.14c-0.54-0.43-0.88-1.01-1.14-1.63c-0.46-1.08-0.68-2.21-0.78-3.37c-0.19-2.34,0.03-4.63,0.77-6.87
		c0.33-0.98,0.74-1.92,1.43-2.71c0.23-0.26,0.49-0.5,0.78-0.69c0.7-0.45,1.45-0.38,2.08,0.17c0.54,0.47,0.87,1.09,1.13,1.74
		c0.46,1.16,0.66,2.39,0.73,3.63C24.51,22.18,24.49,22.55,24.49,22.91z M18.16,24.85c0.01,1.44,0.15,2.85,0.63,4.22
		c0.22,0.62,0.5,1.2,0.98,1.66c0.57,0.54,1.24,0.59,1.86,0.12c0.21-0.15,0.4-0.34,0.56-0.54c0.42-0.5,0.71-1.07,0.94-1.67
		c1.03-2.75,1.23-5.58,0.71-8.46c-0.16-0.92-0.44-1.8-0.98-2.58c-0.76-1.09-1.76-1.15-2.66-0.16c-0.48,0.53-0.81,1.16-1.07,1.82
		C18.44,21.06,18.18,22.93,18.16,24.85z"/>
</g>
</svg>
