<?xml version="1.0" encoding="utf-8"?>
<!-- Generator: Adobe Illustrator 27.2.0, SVG Export Plug-In . SVG Version: 6.00 Build 0)  -->
<svg version="1.1" id="Layer_1" xmlns="http://www.w3.org/2000/svg" xmlns:xlink="http://www.w3.org/1999/xlink" x="0px" y="0px"
	 viewBox="0 0 54.72 63.62" style="enable-background:new 0 0 54.72 63.62;" xml:space="preserve">
<style type="text/css">
	.st0{fill:#4F4C4D;}
	.st1{fill:url(#SVGID_1_);}
	.st2{fill:url(#SVGID_00000029753184831610463870000011384793323574847162_);}
	
		.st3{clip-path:url(#SVGID_00000111187171688713936110000016637849689834472103_);fill:url(#SVGID_00000177455168959901177510000009622863615793260945_);}
	
		.st4{clip-path:url(#SVGID_00000111187171688713936110000016637849689834472103_);fill:url(#SVGID_00000045602166392987525060000000212078802191832738_);}
	
		.st5{clip-path:url(#SVGID_00000111187171688713936110000016637849689834472103_);fill:url(#SVGID_00000158715753411931047100000017427512211108827052_);}
	
		.st6{clip-path:url(#SVGID_00000111187171688713936110000016637849689834472103_);fill:url(#SVGID_00000037673258776125321970000014635444354413923497_);}
	
		.st7{clip-path:url(#SVGID_00000111187171688713936110000016637849689834472103_);fill:url(#SVGID_00000160899112384928738000000006870493421399004325_);}
	
		.st8{clip-path:url(#SVGID_00000111187171688713936110000016637849689834472103_);fill:url(#SVGID_00000022556532849100401630000005735176632341404077_);}
	
		.st9{clip-path:url(#SVGID_00000111187171688713936110000016637849689834472103_);fill:url(#SVGID_00000054241788501198257030000005455021752252282006_);}
	
		.st10{clip-path:url(#SVGID_00000111187171688713936110000016637849689834472103_);fill:url(#SVGID_00000108277971968245233460000002203040470980379292_);}
	
		.st11{clip-path:url(#SVGID_00000111187171688713936110000016637849689834472103_);fill:url(#SVGID_00000179642684366107281740000008184839687045666986_);}
	
		.st12{clip-path:url(#SVGID_00000111187171688713936110000016637849689834472103_);fill:url(#SVGID_00000075842877219492941030000016984426115526974082_);}
	
		.st13{clip-path:url(#SVGID_00000111187171688713936110000016637849689834472103_);fill:url(#SVGID_00000005962203521647359050000013287630586984520113_);}
	
		.st14{clip-path:url(#SVGID_00000111187171688713936110000016637849689834472103_);fill:url(#SVGID_00000009582219112343423830000000945943253510683831_);}
	
		.st15{clip-path:url(#SVGID_00000111187171688713936110000016637849689834472103_);fill:url(#SVGID_00000018232410840521825310000012211551323051661230_);}
	
		.st16{clip-path:url(#SVGID_00000111187171688713936110000016637849689834472103_);fill:url(#SVGID_00000114767282238552796400000001053719503177164193_);}
	
		.st17{clip-path:url(#SVGID_00000111187171688713936110000016637849689834472103_);fill:url(#SVGID_00000168102554602778419910000004492262750996842654_);}
	
		.st18{clip-path:url(#SVGID_00000111187171688713936110000016637849689834472103_);fill:url(#SVGID_00000169545368379012149830000005233816970585725091_);}
	.st19{clip-path:url(#SVGID_00000111187171688713936110000016637849689834472103_);}
	.st20{fill:url(#SVGID_00000056417521307081017870000009854534692622785468_);}
	.st21{fill:url(#SVGID_00000127728929454692998620000008256075596725534386_);}
	.st22{fill:url(#SVGID_00000080918909633631432380000004782073507271459210_);}
	.st23{fill:url(#SVGID_00000051367659537356073260000011612841488955053206_);}
	
		.st24{clip-path:url(#SVGID_00000111187171688713936110000016637849689834472103_);fill:url(#SVGID_00000129906899360959569930000001837047629925327767_);}
	
		.st25{clip-path:url(#SVGID_00000111187171688713936110000016637849689834472103_);fill:url(#SVGID_00000125591805389793041920000002271732399987110786_);}
	
		.st26{clip-path:url(#SVGID_00000111187171688713936110000016637849689834472103_);fill:url(#SVGID_00000115502454085841213930000011651926133380588732_);}
	
		.st27{clip-path:url(#SVGID_00000111187171688713936110000016637849689834472103_);fill:url(#SVGID_00000181051802637618829800000003891760030711096229_);}
	
		.st28{clip-path:url(#SVGID_00000111187171688713936110000016637849689834472103_);fill:url(#SVGID_00000077283011862348459080000015617632491138859690_);}
	
		.st29{clip-path:url(#SVGID_00000111187171688713936110000016637849689834472103_);fill:url(#SVGID_00000163044714203276366160000001993509352046676123_);}
	
		.st30{clip-path:url(#SVGID_00000111187171688713936110000016637849689834472103_);fill:url(#SVGID_00000075140621529192706080000012836207489764603023_);}
	
		.st31{clip-path:url(#SVGID_00000111187171688713936110000016637849689834472103_);fill:url(#SVGID_00000112592430495541185410000011313926658870735003_);}
	
		.st32{clip-path:url(#SVGID_00000111187171688713936110000016637849689834472103_);fill:url(#SVGID_00000151511302092062292400000013261921078018888892_);}
	
		.st33{clip-path:url(#SVGID_00000111187171688713936110000016637849689834472103_);fill:url(#SVGID_00000181783192080305288310000013075689124902979974_);}
	
		.st34{clip-path:url(#SVGID_00000111187171688713936110000016637849689834472103_);fill:url(#SVGID_00000177454385937805826360000012907083916193021590_);}
	
		.st35{clip-path:url(#SVGID_00000111187171688713936110000016637849689834472103_);fill:url(#SVGID_00000171698804306946241820000007029952188792321948_);}
	
		.st36{clip-path:url(#SVGID_00000111187171688713936110000016637849689834472103_);fill:url(#SVGID_00000104678736314199283050000018235341181223190913_);}
	
		.st37{clip-path:url(#SVGID_00000111187171688713936110000016637849689834472103_);fill:url(#SVGID_00000141451480075047886400000017756370485329329591_);}
	
		.st38{clip-path:url(#SVGID_00000111187171688713936110000016637849689834472103_);fill:url(#SVGID_00000083771846967926376270000017003780963380244144_);}
	
		.st39{clip-path:url(#SVGID_00000111187171688713936110000016637849689834472103_);fill:url(#SVGID_00000137838383174617475320000014934130817601188781_);}
	.st40{fill:url(#SVGID_00000179638357694938391110000010392376991690943665_);}
	.st41{fill:url(#SVGID_00000005962451149686672240000001428159975758692764_);}
	.st42{fill:url(#SVGID_00000148647922699837834260000018053504473366215823_);}
	.st43{fill:url(#SVGID_00000113335835802599295330000017613013822312016297_);}
	
		.st44{clip-path:url(#SVGID_00000111187171688713936110000016637849689834472103_);fill:url(#SVGID_00000118367664911413270270000003311292086245280900_);}
	
		.st45{clip-path:url(#SVGID_00000111187171688713936110000016637849689834472103_);fill:url(#SVGID_00000103973925509144644520000016566014719326076037_);}
	
		.st46{clip-path:url(#SVGID_00000111187171688713936110000016637849689834472103_);fill:url(#SVGID_00000075848763412228688330000011531308636416561281_);}
	
		.st47{clip-path:url(#SVGID_00000111187171688713936110000016637849689834472103_);fill:url(#SVGID_00000092440337817813410410000002187280187503562407_);}
	
		.st48{clip-path:url(#SVGID_00000111187171688713936110000016637849689834472103_);fill:url(#SVGID_00000150071404094828782360000012259251141170150292_);}
	
		.st49{clip-path:url(#SVGID_00000111187171688713936110000016637849689834472103_);fill:url(#SVGID_00000129923804990088498430000017553739750125002673_);}
	
		.st50{clip-path:url(#SVGID_00000111187171688713936110000016637849689834472103_);fill:url(#SVGID_00000183935866251280453800000002095859782970856860_);}
	
		.st51{clip-path:url(#SVGID_00000111187171688713936110000016637849689834472103_);fill:url(#SVGID_00000093873047290627113850000001915177728881983364_);}
	
		.st52{clip-path:url(#SVGID_00000111187171688713936110000016637849689834472103_);fill:url(#SVGID_00000023983576411676289520000004529806769140608423_);}
	
		.st53{clip-path:url(#SVGID_00000111187171688713936110000016637849689834472103_);fill:url(#SVGID_00000045618278261666059120000002513513904642310047_);}
	
		.st54{clip-path:url(#SVGID_00000111187171688713936110000016637849689834472103_);fill:url(#SVGID_00000164484972645738662730000006998492678468686773_);}
	
		.st55{clip-path:url(#SVGID_00000111187171688713936110000016637849689834472103_);fill:url(#SVGID_00000141454258692199254660000009324696746907829178_);}
	
		.st56{clip-path:url(#SVGID_00000111187171688713936110000016637849689834472103_);fill:url(#SVGID_00000173150120291517549140000005881832135399001489_);}
	
		.st57{clip-path:url(#SVGID_00000111187171688713936110000016637849689834472103_);fill:url(#SVGID_00000093158227470415017200000005903466716988008081_);}
	
		.st58{clip-path:url(#SVGID_00000111187171688713936110000016637849689834472103_);fill:url(#SVGID_00000126307527946995327690000012881986947607264945_);}
	
		.st59{clip-path:url(#SVGID_00000111187171688713936110000016637849689834472103_);fill:url(#SVGID_00000142145528110348250290000017052611801341090455_);}
	.st60{fill:url(#SVGID_00000110455407130330055520000002729408861872660105_);}
	.st61{fill:url(#SVGID_00000011726368669332404820000003622732590891736718_);}
	.st62{fill:url(#SVGID_00000165942939525369727390000007585838398202518430_);}
	.st63{fill:url(#SVGID_00000117648303072336195610000002337097503557521305_);}
	
		.st64{clip-path:url(#SVGID_00000111187171688713936110000016637849689834472103_);fill:url(#SVGID_00000103958593318964810840000001852689752502132148_);}
	
		.st65{clip-path:url(#SVGID_00000111187171688713936110000016637849689834472103_);fill:url(#SVGID_00000018958450136415256320000013476225863209107615_);}
	
		.st66{clip-path:url(#SVGID_00000111187171688713936110000016637849689834472103_);fill:url(#SVGID_00000062156052751599124540000016750822428891997886_);}
	
		.st67{clip-path:url(#SVGID_00000111187171688713936110000016637849689834472103_);fill:url(#SVGID_00000058567269987072888410000002405309797499125178_);}
	
		.st68{clip-path:url(#SVGID_00000111187171688713936110000016637849689834472103_);fill:url(#SVGID_00000111166078005953230500000009843160582885187515_);}
	
		.st69{clip-path:url(#SVGID_00000111187171688713936110000016637849689834472103_);fill:url(#SVGID_00000054972628926496039990000006945155298450034819_);}
	
		.st70{clip-path:url(#SVGID_00000111187171688713936110000016637849689834472103_);fill:url(#SVGID_00000029023672113146900100000009843346183406605196_);}
	
		.st71{clip-path:url(#SVGID_00000111187171688713936110000016637849689834472103_);fill:url(#SVGID_00000038371002144847224820000001884452006360464014_);}
	
		.st72{clip-path:url(#SVGID_00000111187171688713936110000016637849689834472103_);fill:url(#SVGID_00000151507054863991836850000001665567302738377393_);}
	
		.st73{clip-path:url(#SVGID_00000111187171688713936110000016637849689834472103_);fill:url(#SVGID_00000023981761075186631500000005719145608751896759_);}
	
		.st74{clip-path:url(#SVGID_00000111187171688713936110000016637849689834472103_);fill:url(#SVGID_00000009587960732449686750000006980467278068331924_);}
	
		.st75{clip-path:url(#SVGID_00000111187171688713936110000016637849689834472103_);fill:url(#SVGID_00000102537069159375179000000016020965695839427249_);}
	
		.st76{clip-path:url(#SVGID_00000111187171688713936110000016637849689834472103_);fill:url(#SVGID_00000154404243359069926800000004985707299781189793_);}
	
		.st77{clip-path:url(#SVGID_00000111187171688713936110000016637849689834472103_);fill:url(#SVGID_00000081641892248506516240000014464729319116032184_);}
	
		.st78{clip-path:url(#SVGID_00000111187171688713936110000016637849689834472103_);fill:url(#SVGID_00000046336580072507766700000009304953045833037189_);}
	
		.st79{clip-path:url(#SVGID_00000111187171688713936110000016637849689834472103_);fill:url(#SVGID_00000045585068596305655090000001793611351499806100_);}
	.st80{fill:url(#SVGID_00000171681000953786122070000008657922104828336313_);}
	.st81{fill:url(#SVGID_00000125567828120170954150000002750039693315840665_);}
	.st82{fill:url(#SVGID_00000087373863000729274260000015935956613642300822_);}
	.st83{fill:url(#SVGID_00000007405032374784696630000013396615288593036425_);}
	.st84{fill:url(#SVGID_00000158723988527088440760000004932598047298785471_);}
	.st85{fill:url(#SVGID_00000146495566893741452330000004687307365952222633_);}
	.st86{fill:url(#SVGID_00000031928227080397369650000012412909557403879307_);}
	.st87{fill:url(#SVGID_00000027593736757611837220000005290675912030786440_);}
	.st88{fill:url(#SVGID_00000042713668885145971280000002043761597336821651_);}
	.st89{fill:url(#SVGID_00000011732727509911191760000008732781191380810884_);}
	.st90{clip-path:url(#SVGID_00000171682882821986894790000018231405427595751045_);}
	.st91{fill:url(#SVGID_00000166639326879863695660000004890292295797906607_);}
	.st92{fill:url(#SVGID_00000050638329465983340700000011307699030867064705_);}
	.st93{fill:url(#SVGID_00000122704524182773548940000002223211857390752956_);}
	.st94{fill:url(#SVGID_00000145762305663454506640000001398921527554967186_);}
	.st95{fill:url(#SVGID_00000125591463979561738770000014264421162351278765_);}
	.st96{fill:url(#SVGID_00000069368209339465744520000015955710449413458608_);}
	.st97{fill:url(#SVGID_00000029763546276115371990000004937287999567451545_);}
	.st98{fill:none;stroke:#666364;stroke-miterlimit:10;}
	.st99{fill:#666364;}
	.st100{fill:#FFFFFF;}
	.st101{fill:#C1C0C1;}
	.st102{fill:none;stroke:#4F4C4D;stroke-width:0.0179;stroke-miterlimit:10;}
	.st103{fill:#D5D4D5;}
	.st104{clip-path:url(#SVGID_00000083805508901571825970000000651169897732937129_);}
	.st105{fill:none;stroke:#4F4C4D;stroke-width:0.8884;stroke-linecap:round;stroke-linejoin:round;stroke-miterlimit:10;}
	.st106{fill:none;stroke:#4F4C4D;stroke-width:0.8448;stroke-linecap:round;stroke-linejoin:round;stroke-miterlimit:10;}
	.st107{fill:none;stroke:#4F4C4D;stroke-width:0.9746;stroke-linecap:round;stroke-linejoin:round;stroke-miterlimit:10;}
	.st108{fill:none;stroke:#4F4C4D;stroke-width:0.8608;stroke-linecap:round;stroke-linejoin:round;stroke-miterlimit:10;}
	
		.st109{fill:none;stroke:#4F4C4D;stroke-width:0.8608;stroke-linecap:round;stroke-linejoin:round;stroke-miterlimit:10;stroke-dasharray:1.0632;}
	.st110{fill:none;stroke:#4F4C4D;stroke-width:0.9757;stroke-linecap:round;stroke-linejoin:round;stroke-miterlimit:10;}
	.st111{fill:none;stroke:#4F4C4D;stroke-width:1.1046;stroke-linecap:round;stroke-linejoin:round;stroke-miterlimit:10;}
	.st112{fill:none;stroke:#4F4C4D;stroke-width:1.0333;stroke-linecap:round;stroke-linejoin:round;stroke-miterlimit:10;}
	
		.st113{fill:none;stroke:#4F4C4D;stroke-width:1.0333;stroke-linecap:round;stroke-linejoin:round;stroke-miterlimit:10;stroke-dasharray:1.2;}
	.st114{fill:none;stroke:#4F4C4D;stroke-linecap:round;stroke-linejoin:round;stroke-miterlimit:10;}
	.st115{fill:none;stroke:#4F4C4D;stroke-linecap:round;stroke-linejoin:round;stroke-miterlimit:10;stroke-dasharray:1.0878;}
</style>
<g>
	<g>
		<path class="st0" d="M27.36,60.49L2.69,46.25V17.76L27.36,3.52l24.67,14.24v28.48L27.36,60.49z M4.53,45.18l22.83,13.18
			l22.83-13.18V18.83L27.36,5.65L4.53,18.83V45.18z"/>
	</g>
</g>
<g>
	<path class="st0" d="M13.57,18.64c8.92,0,17.78,0,26.69,0c0,2.12,0,4.22,0,6.36c1.01,0,1.98,0,2.98,0c0,0.89,0,1.74,0,2.58
		c-0.03,0.02-0.04,0.05-0.06,0.05c-0.92,0.09-1.1,0.24-1.04,1.16c0.08,1.06,0.25,2.11,0.4,3.16c0.4,2.91,0.81,5.81,1.21,8.72
		c0.27,1.96,0.54,3.92,0.82,5.89c0.03,0.22-0.02,0.36-0.19,0.5c-0.46,0.4-0.85,0.97-1.38,1.18c-0.52,0.21-1.18,0.06-1.78,0.06
		c-1.85,0-3.7,0.01-5.54-0.01c-0.18,0-0.4-0.1-0.54-0.22c-0.46-0.4-0.83-0.99-1.36-1.2c-0.51-0.21-1.18-0.05-1.78-0.05
		c-6.73,0-13.46,0-20.19,0c-0.15,0-0.29,0-0.47,0c0-0.24,0-0.47,0-0.75c0.73,0,1.47,0,2.23,0C13.57,36.9,13.57,27.79,13.57,18.64z
		 M26.37,20.9c0,3.75,0,7.49,0,11.26c0.63,0,1.24,0,1.85,0c0,0.26,0,0.48,0,0.75c-0.63,0-1.24,0-1.84,0c0,3.65,0,7.27,0,10.87
		c2.51,0,4.98,0,7.48,0c0.01-0.14,0.01-0.25,0.01-0.35c0-1.08,0-2.15,0-3.23c0-1.26,0.48-2.3,1.44-3.12
		c0.38-0.32,0.77-0.64,1.14-0.99c0.68-0.64,1.13-1.43,1.16-2.38c0.04-1.37,0.02-2.74,0.02-4.11c0-0.36-0.04-0.72-0.06-1.15
		c-0.56,0.46-1.07,0.86-1.57,1.27c-0.22,0.18-0.46,0.29-0.74,0.18c-0.37-0.14-0.5-0.55-0.28-0.95c0.23-0.42,0.48-0.84,0.75-1.32
		c-0.52,0-0.97,0-1.45,0c0-0.89,0-1.75,0-2.65c1.13,0,2.24,0,3.35,0c0-1.38,0-2.72,0-4.09C33.86,20.9,30.12,20.9,26.37,20.9z
		 M39.48,19.38c-8.4,0-16.76,0-25.15,0c0,8.89,0,17.76,0,26.65c6.5,0,12.99,0,19.51,0c0-0.49,0-0.97,0-1.48c-2.75,0-5.48,0-8.22,0
		c0-8.15,0-16.27,0-24.41c4.26,0,8.49,0,12.78,0c0,1.63,0,3.24,0,4.85c0.38,0,0.72,0,1.08,0C39.48,23.12,39.48,21.26,39.48,19.38z
		 M38.38,32.15c0,0.44,0,0.84,0,1.24c0.01,1.13-0.36,2.12-1.13,2.94c-0.41,0.44-0.87,0.83-1.33,1.21c-0.9,0.73-1.33,1.65-1.31,2.81
		c0.03,1.72,0.05,3.45-0.01,5.17c-0.03,0.75,0.15,1.31,0.76,1.76c0.24,0.18,0.44,0.29,0.75,0.29c1.81-0.01,3.62-0.06,5.43,0.02
		c0.87,0.04,1.54-0.18,2.07-0.85c0.09-0.12,0.16-0.3,0.15-0.44c-0.24-1.81-0.49-3.61-0.74-5.41c-0.39-2.83-0.79-5.67-1.17-8.5
		c-0.03-0.19-0.1-0.24-0.28-0.24C40.52,32.15,39.48,32.15,38.38,32.15z M37.25,25.77c0,0.4-0.01,0.76,0.01,1.13
		c0,0.09,0.09,0.19,0.17,0.25c0.5,0.36,0.81,0.84,0.9,1.45c0.01,0.06,0.05,0.12,0.07,0.16c1,0,1.96,0,2.92,0
		c0.02-0.05,0.04-0.09,0.04-0.12c-0.02-0.77,0.26-1.35,1.01-1.66c0.05-0.02,0.12-0.1,0.12-0.16c0.01-0.35,0.01-0.7,0.01-1.05
		C40.73,25.77,39.03,25.77,37.25,25.77z M41.44,29.56c-1.04,0-2.04,0-3.04,0c0,0.62,0,1.22,0,1.82c1.1,0,2.18,0,3.29,0
		C41.61,30.76,41.52,30.17,41.44,29.56z M36.47,25.79c-0.51,0-0.99,0-1.45,0c0,0.38,0,0.73,0,1.07c0.5,0,0.97,0,1.45,0
		C36.47,26.49,36.47,26.15,36.47,25.79z M36.02,28.63c0.02,0.02,0.04,0.04,0.06,0.06c0.33-0.27,0.67-0.55,1.03-0.85
		c-0.23-0.13-0.41-0.34-0.6-0.06C36.34,28.05,36.19,28.34,36.02,28.63z"/>
	<path class="st0" d="M15.48,20.13c0.13-0.01,0.24-0.02,0.35-0.02c2.75,0,5.51,0,8.26-0.01c0.31,0,0.39,0.09,0.39,0.39
		c-0.01,7.89-0.01,15.79-0.01,23.68c0,0.11,0,0.22,0,0.35c-3,0-5.98,0-8.99,0C15.48,36.41,15.48,28.29,15.48,20.13z M23.69,32.15
		c0-3.77,0-7.5,0-11.25c-2.5,0-4.97,0-7.46,0c0,7.64,0,15.26,0,22.89c2.5,0,4.98,0,7.45,0c0-3.64,0-7.25,0-10.9
		c-0.62,0-1.22,0-1.8,0c0-0.26,0-0.49,0-0.73C22.49,32.15,23.07,32.15,23.69,32.15z"/>
	<path class="st0" d="M43.12,46.11c0,0.23,0,0.44,0,0.69c-2.64,0-5.27,0-7.92,0c0-0.23,0-0.44,0-0.69
		C37.84,46.11,40.47,46.11,43.12,46.11z"/>
	<path class="st0" d="M20.22,24.35c0.11,0.13,0.27,0.3,0.39,0.44c-1.14,1.14-2.28,2.28-3.43,3.43c-0.12-0.13-0.27-0.3-0.4-0.44
		C17.9,26.66,19.05,25.52,20.22,24.35z"/>
	<path class="st0" d="M19.75,28.66c-0.14-0.13-0.3-0.29-0.45-0.42c1.16-1.16,2.3-2.3,3.46-3.46c0.13,0.14,0.29,0.31,0.41,0.46
		C22.04,26.37,20.91,27.5,19.75,28.66z"/>
	<path class="st0" d="M21.35,24.08c-0.15-0.14-0.33-0.3-0.5-0.46c0.38-0.38,0.74-0.72,1.09-1.07c0.16,0.16,0.32,0.32,0.49,0.49
		C22.08,23.38,21.71,23.73,21.35,24.08z"/>
</g>
</svg>
