<?xml version="1.0" encoding="utf-8"?>
<!-- Generator: Adobe Illustrator 27.2.0, SVG Export Plug-In . SVG Version: 6.00 Build 0)  -->
<svg version="1.1" id="Layer_1" xmlns="http://www.w3.org/2000/svg" xmlns:xlink="http://www.w3.org/1999/xlink" x="0px" y="0px"
	 viewBox="0 0 54.72 63.62" style="enable-background:new 0 0 54.72 63.62;" xml:space="preserve">
<style type="text/css">
	.st0{fill:#4F4C4D;}
	.st1{fill:url(#SVGID_1_);}
	.st2{fill:url(#SVGID_00000183249146029055222300000011373462947981837714_);}
	
		.st3{clip-path:url(#SVGID_00000132080624298218142670000015676906983675978114_);fill:url(#SVGID_00000175300454900154125530000014517312546166191770_);}
	
		.st4{clip-path:url(#SVGID_00000132080624298218142670000015676906983675978114_);fill:url(#SVGID_00000160187484530530374650000006388793081602818197_);}
	
		.st5{clip-path:url(#SVGID_00000132080624298218142670000015676906983675978114_);fill:url(#SVGID_00000121260840807197789870000013648774011812168624_);}
	
		.st6{clip-path:url(#SVGID_00000132080624298218142670000015676906983675978114_);fill:url(#SVGID_00000049212096988732019140000015697459024749948846_);}
	
		.st7{clip-path:url(#SVGID_00000132080624298218142670000015676906983675978114_);fill:url(#SVGID_00000166652999072251940510000004475680124721030047_);}
	
		.st8{clip-path:url(#SVGID_00000132080624298218142670000015676906983675978114_);fill:url(#SVGID_00000138553235287760740570000000099260520322957213_);}
	
		.st9{clip-path:url(#SVGID_00000132080624298218142670000015676906983675978114_);fill:url(#SVGID_00000062172794620659674200000012651906333254934409_);}
	
		.st10{clip-path:url(#SVGID_00000132080624298218142670000015676906983675978114_);fill:url(#SVGID_00000045579779804437415910000002177767839575546808_);}
	
		.st11{clip-path:url(#SVGID_00000132080624298218142670000015676906983675978114_);fill:url(#SVGID_00000080206624670416412310000017917340624017046186_);}
	
		.st12{clip-path:url(#SVGID_00000132080624298218142670000015676906983675978114_);fill:url(#SVGID_00000140701835275980613010000013059312789278498443_);}
	
		.st13{clip-path:url(#SVGID_00000132080624298218142670000015676906983675978114_);fill:url(#SVGID_00000009548817501479339460000010932822080944300171_);}
	
		.st14{clip-path:url(#SVGID_00000132080624298218142670000015676906983675978114_);fill:url(#SVGID_00000028305972463892767320000000862998537497485721_);}
	
		.st15{clip-path:url(#SVGID_00000132080624298218142670000015676906983675978114_);fill:url(#SVGID_00000132078801241355050420000014566050023778755516_);}
	
		.st16{clip-path:url(#SVGID_00000132080624298218142670000015676906983675978114_);fill:url(#SVGID_00000026125059672285762110000004578960400663089328_);}
	
		.st17{clip-path:url(#SVGID_00000132080624298218142670000015676906983675978114_);fill:url(#SVGID_00000106863129092468769490000000225501563997037711_);}
	
		.st18{clip-path:url(#SVGID_00000132080624298218142670000015676906983675978114_);fill:url(#SVGID_00000116227283285701127230000005875421436929196692_);}
	.st19{clip-path:url(#SVGID_00000132080624298218142670000015676906983675978114_);}
	.st20{fill:url(#SVGID_00000079471426757607568330000012531834363733198006_);}
	.st21{fill:url(#SVGID_00000011012635776305907630000015084830561189062794_);}
	.st22{fill:url(#SVGID_00000108991745310029454530000012701044978692975805_);}
	.st23{fill:url(#SVGID_00000072962194261939307230000002336980871336008321_);}
	
		.st24{clip-path:url(#SVGID_00000132080624298218142670000015676906983675978114_);fill:url(#SVGID_00000095298713743388900780000011761590394617778817_);}
	
		.st25{clip-path:url(#SVGID_00000132080624298218142670000015676906983675978114_);fill:url(#SVGID_00000052796863579250456340000017745419436874119577_);}
	
		.st26{clip-path:url(#SVGID_00000132080624298218142670000015676906983675978114_);fill:url(#SVGID_00000155130119351633383660000016416783334362879908_);}
	
		.st27{clip-path:url(#SVGID_00000132080624298218142670000015676906983675978114_);fill:url(#SVGID_00000102536987771917941770000014909981068407090088_);}
	
		.st28{clip-path:url(#SVGID_00000132080624298218142670000015676906983675978114_);fill:url(#SVGID_00000019637380621854208010000018120024410548522655_);}
	
		.st29{clip-path:url(#SVGID_00000132080624298218142670000015676906983675978114_);fill:url(#SVGID_00000064314013946270589640000011688336849401049527_);}
	
		.st30{clip-path:url(#SVGID_00000132080624298218142670000015676906983675978114_);fill:url(#SVGID_00000103963599507688132600000016127757799220008324_);}
	
		.st31{clip-path:url(#SVGID_00000132080624298218142670000015676906983675978114_);fill:url(#SVGID_00000142162896458517197930000012793678112425858474_);}
	
		.st32{clip-path:url(#SVGID_00000132080624298218142670000015676906983675978114_);fill:url(#SVGID_00000084497798786539448490000011911163850805481126_);}
	
		.st33{clip-path:url(#SVGID_00000132080624298218142670000015676906983675978114_);fill:url(#SVGID_00000039847570825915424230000017523740797607714230_);}
	
		.st34{clip-path:url(#SVGID_00000132080624298218142670000015676906983675978114_);fill:url(#SVGID_00000112604874742923562340000008790606898199520645_);}
	
		.st35{clip-path:url(#SVGID_00000132080624298218142670000015676906983675978114_);fill:url(#SVGID_00000121263464230323268830000001060428945636778922_);}
	
		.st36{clip-path:url(#SVGID_00000132080624298218142670000015676906983675978114_);fill:url(#SVGID_00000166677054192641795410000010212217534207320960_);}
	
		.st37{clip-path:url(#SVGID_00000132080624298218142670000015676906983675978114_);fill:url(#SVGID_00000176726435892343712150000009295787006445141434_);}
	
		.st38{clip-path:url(#SVGID_00000132080624298218142670000015676906983675978114_);fill:url(#SVGID_00000108273209872910885470000006492458990723384489_);}
	
		.st39{clip-path:url(#SVGID_00000132080624298218142670000015676906983675978114_);fill:url(#SVGID_00000077287575503122226920000012719217379044603020_);}
	.st40{fill:url(#SVGID_00000062186942685502054310000013029245402482558398_);}
	.st41{fill:url(#SVGID_00000092419759892225330650000004462700229157325724_);}
	.st42{fill:url(#SVGID_00000040572695801205640890000011449125942752089984_);}
	.st43{fill:url(#SVGID_00000005981339268965956600000009703470556155605921_);}
	
		.st44{clip-path:url(#SVGID_00000132080624298218142670000015676906983675978114_);fill:url(#SVGID_00000023269251686740401110000011751538490114848137_);}
	
		.st45{clip-path:url(#SVGID_00000132080624298218142670000015676906983675978114_);fill:url(#SVGID_00000121266255972165346770000005183590137829152918_);}
	
		.st46{clip-path:url(#SVGID_00000132080624298218142670000015676906983675978114_);fill:url(#SVGID_00000018199403636999497120000003896224837309065619_);}
	
		.st47{clip-path:url(#SVGID_00000132080624298218142670000015676906983675978114_);fill:url(#SVGID_00000021802850790115472210000001107305003121438886_);}
	
		.st48{clip-path:url(#SVGID_00000132080624298218142670000015676906983675978114_);fill:url(#SVGID_00000023965318227099188360000016499939354130125966_);}
	
		.st49{clip-path:url(#SVGID_00000132080624298218142670000015676906983675978114_);fill:url(#SVGID_00000161600154825083495170000015425833628873676687_);}
	
		.st50{clip-path:url(#SVGID_00000132080624298218142670000015676906983675978114_);fill:url(#SVGID_00000016793784081019115360000000795543652798779540_);}
	
		.st51{clip-path:url(#SVGID_00000132080624298218142670000015676906983675978114_);fill:url(#SVGID_00000071522507616934729810000010955116778339592612_);}
	
		.st52{clip-path:url(#SVGID_00000132080624298218142670000015676906983675978114_);fill:url(#SVGID_00000093883212152601837870000017126127178181406129_);}
	
		.st53{clip-path:url(#SVGID_00000132080624298218142670000015676906983675978114_);fill:url(#SVGID_00000021108767764350907060000011887709411101381514_);}
	
		.st54{clip-path:url(#SVGID_00000132080624298218142670000015676906983675978114_);fill:url(#SVGID_00000119827996937741818820000003171628996091371432_);}
	
		.st55{clip-path:url(#SVGID_00000132080624298218142670000015676906983675978114_);fill:url(#SVGID_00000047043779254778837470000014279761567906330799_);}
	
		.st56{clip-path:url(#SVGID_00000132080624298218142670000015676906983675978114_);fill:url(#SVGID_00000141445762680880320030000008741609422631540876_);}
	
		.st57{clip-path:url(#SVGID_00000132080624298218142670000015676906983675978114_);fill:url(#SVGID_00000040539715031668825690000014421553191493410962_);}
	
		.st58{clip-path:url(#SVGID_00000132080624298218142670000015676906983675978114_);fill:url(#SVGID_00000034770340133496960890000001306074111804453777_);}
	
		.st59{clip-path:url(#SVGID_00000132080624298218142670000015676906983675978114_);fill:url(#SVGID_00000139296065687998604680000008916158476835042994_);}
	.st60{fill:url(#SVGID_00000105384306272366681310000010407196500708423094_);}
	.st61{fill:url(#SVGID_00000175296988177502785940000017239822278200349612_);}
	.st62{fill:url(#SVGID_00000118357432826876980520000012470577898343915421_);}
	.st63{fill:url(#SVGID_00000026857011981943618230000015810643852071988649_);}
	
		.st64{clip-path:url(#SVGID_00000132080624298218142670000015676906983675978114_);fill:url(#SVGID_00000005961234778994499460000006755770489906850949_);}
	
		.st65{clip-path:url(#SVGID_00000132080624298218142670000015676906983675978114_);fill:url(#SVGID_00000018210188031668631970000002644881991524289951_);}
	
		.st66{clip-path:url(#SVGID_00000132080624298218142670000015676906983675978114_);fill:url(#SVGID_00000028315942631314005810000008468339049126385568_);}
	
		.st67{clip-path:url(#SVGID_00000132080624298218142670000015676906983675978114_);fill:url(#SVGID_00000042018268533624344500000007997489002396468390_);}
	
		.st68{clip-path:url(#SVGID_00000132080624298218142670000015676906983675978114_);fill:url(#SVGID_00000107562862130541198250000001508428203589243531_);}
	
		.st69{clip-path:url(#SVGID_00000132080624298218142670000015676906983675978114_);fill:url(#SVGID_00000075150385078623218890000011315751834301702575_);}
	
		.st70{clip-path:url(#SVGID_00000132080624298218142670000015676906983675978114_);fill:url(#SVGID_00000124137210755029265140000015667692840915288455_);}
	
		.st71{clip-path:url(#SVGID_00000132080624298218142670000015676906983675978114_);fill:url(#SVGID_00000049220444966018966390000013157614691415604910_);}
	
		.st72{clip-path:url(#SVGID_00000132080624298218142670000015676906983675978114_);fill:url(#SVGID_00000168814279265830279150000017293087599178090423_);}
	
		.st73{clip-path:url(#SVGID_00000132080624298218142670000015676906983675978114_);fill:url(#SVGID_00000039833216686101559120000014932225893160591491_);}
	
		.st74{clip-path:url(#SVGID_00000132080624298218142670000015676906983675978114_);fill:url(#SVGID_00000001634928539460362560000013294561281417669013_);}
	
		.st75{clip-path:url(#SVGID_00000132080624298218142670000015676906983675978114_);fill:url(#SVGID_00000138573517761020677720000007262402899216237990_);}
	
		.st76{clip-path:url(#SVGID_00000132080624298218142670000015676906983675978114_);fill:url(#SVGID_00000056402175999451021970000003119111180287311540_);}
	
		.st77{clip-path:url(#SVGID_00000132080624298218142670000015676906983675978114_);fill:url(#SVGID_00000149340991811732785180000002333148218738004137_);}
	
		.st78{clip-path:url(#SVGID_00000132080624298218142670000015676906983675978114_);fill:url(#SVGID_00000022528520242149080310000015124843528748181158_);}
	
		.st79{clip-path:url(#SVGID_00000132080624298218142670000015676906983675978114_);fill:url(#SVGID_00000183214547638241361950000017256288487753387676_);}
	.st80{fill:url(#SVGID_00000037687081886720158300000012908208998019896479_);}
	.st81{fill:url(#SVGID_00000059285780620298705040000014392744780679423921_);}
	.st82{fill:url(#SVGID_00000078006368704403652620000008026786477892655513_);}
	.st83{fill:url(#SVGID_00000116921235341840124620000017636774385371969953_);}
	.st84{fill:url(#SVGID_00000070813358137834838850000002618609873151833767_);}
	.st85{fill:url(#SVGID_00000101095030452581938310000004929892820415799698_);}
	.st86{fill:url(#SVGID_00000145029924591696616910000004664343274051516328_);}
	.st87{fill:url(#SVGID_00000147937814170220225020000012343772497743614624_);}
	.st88{fill:url(#SVGID_00000100357181783329764590000013669250218787716771_);}
	.st89{fill:url(#SVGID_00000083801593080939574920000003973937035121994665_);}
	.st90{clip-path:url(#SVGID_00000153665961464333437360000014038846207497524357_);}
	.st91{fill:url(#SVGID_00000091730374069629801150000005266861371767409343_);}
	.st92{fill:url(#SVGID_00000137812033175897250970000003752189788372109492_);}
	.st93{fill:url(#SVGID_00000151518770041535434630000009729408814941297298_);}
	.st94{fill:url(#SVGID_00000107582233585848774500000010941437791917408677_);}
	.st95{fill:url(#SVGID_00000098939032749114713850000009312243005065915579_);}
	.st96{fill:url(#SVGID_00000139275106381613053120000017282462382978206859_);}
	.st97{fill:url(#SVGID_00000006693943264459971310000017009233173178378392_);}
	.st98{fill:none;stroke:#666364;stroke-miterlimit:10;}
	.st99{fill:#666364;}
	.st100{fill:#FFFFFF;}
	.st101{fill:#C1C0C1;}
	.st102{fill:none;stroke:#4F4C4D;stroke-width:0.0179;stroke-miterlimit:10;}
	.st103{fill:#D5D4D5;}
	.st104{clip-path:url(#SVGID_00000145777308128787912760000008178174298385394859_);}
	.st105{fill:none;stroke:#4F4C4D;stroke-width:0.8884;stroke-linecap:round;stroke-linejoin:round;stroke-miterlimit:10;}
	.st106{fill:none;stroke:#4F4C4D;stroke-width:0.8448;stroke-linecap:round;stroke-linejoin:round;stroke-miterlimit:10;}
	.st107{fill:none;stroke:#4F4C4D;stroke-width:0.9746;stroke-linecap:round;stroke-linejoin:round;stroke-miterlimit:10;}
	.st108{fill:none;stroke:#4F4C4D;stroke-width:0.8608;stroke-linecap:round;stroke-linejoin:round;stroke-miterlimit:10;}
	
		.st109{fill:none;stroke:#4F4C4D;stroke-width:0.8608;stroke-linecap:round;stroke-linejoin:round;stroke-miterlimit:10;stroke-dasharray:1.0632;}
	.st110{fill:none;stroke:#4F4C4D;stroke-width:0.9757;stroke-linecap:round;stroke-linejoin:round;stroke-miterlimit:10;}
	.st111{fill:none;stroke:#4F4C4D;stroke-width:1.1046;stroke-linecap:round;stroke-linejoin:round;stroke-miterlimit:10;}
	.st112{fill:none;stroke:#4F4C4D;stroke-width:1.0333;stroke-linecap:round;stroke-linejoin:round;stroke-miterlimit:10;}
	
		.st113{fill:none;stroke:#4F4C4D;stroke-width:1.0333;stroke-linecap:round;stroke-linejoin:round;stroke-miterlimit:10;stroke-dasharray:1.2;}
	.st114{fill:none;stroke:#4F4C4D;stroke-linecap:round;stroke-linejoin:round;stroke-miterlimit:10;}
	.st115{fill:none;stroke:#4F4C4D;stroke-linecap:round;stroke-linejoin:round;stroke-miterlimit:10;stroke-dasharray:1.0878;}
</style>
<g>
	<g>
		<path class="st0" d="M27.36,60.49L2.69,46.25V17.76L27.36,3.52l24.67,14.24v28.48L27.36,60.49z M4.53,45.18l22.83,13.18
			l22.83-13.18V18.83L27.36,5.65L4.53,18.83V45.18z"/>
	</g>
</g>
<g>
	<path class="st0" d="M13.84,42.67c0.13,0.01,0.24,0.02,0.34,0.02c1.49,0,2.98,0,4.48,0c0.79,0,1.18-0.39,1.18-1.18
		c0.01-4.55,0-9.09,0-13.64c0-0.8-0.38-1.18-1.17-1.18c-1.49,0-2.99,0-4.48,0c-0.11,0-0.22,0.01-0.35,0.01V42.67z M21.84,34.78
		c0,1.96,0.01,3.91-0.01,5.86c0,0.24,0.06,0.35,0.3,0.43c1.19,0.38,2.36,0.83,3.57,1.17c0.8,0.23,1.65,0.41,2.47,0.43
		c2.85,0.05,5.71,0.03,8.56,0.02c0.62,0,1.04-0.39,1.08-0.95c0.04-0.54-0.36-0.97-0.98-1.04c-0.65-0.08-1.03-0.48-1-1.06
		c0.02-0.58,0.44-0.94,1.11-0.94c0.56-0.01,1.11,0,1.67,0c0.74,0,1.21-0.4,1.21-1.01c-0.01-0.6-0.47-0.98-1.19-0.99
		c-0.53,0-1.07,0.01-1.6-0.01c-0.2,0-0.41-0.02-0.59-0.09c-0.44-0.16-0.67-0.61-0.6-1.09c0.07-0.46,0.46-0.8,0.98-0.82
		c0.62-0.02,1.23,0.01,1.85-0.02c0.23-0.01,0.48-0.05,0.67-0.16c0.38-0.2,0.54-0.66,0.44-1.07c-0.12-0.46-0.47-0.75-0.99-0.76
		c-0.6-0.02-1.21,0-1.81-0.01c-0.17,0-0.34-0.01-0.49-0.06c-0.47-0.16-0.72-0.59-0.65-1.09c0.06-0.48,0.47-0.83,0.99-0.84
		c0.67-0.02,1.35,0.01,2.03-0.01c0.54-0.02,0.96-0.46,0.96-0.99c0-0.51-0.4-0.94-0.93-0.99c-0.13-0.01-0.26-0.01-0.39-0.01h-9.49
		c-0.72,0-1.18-0.39-1.19-0.99c-0.01-0.61,0.46-1.01,1.2-1.01c0.47,0,0.95-0.03,1.42,0.01c0.35,0.03,0.5-0.11,0.6-0.43
		c0.6-1.9,0.86-3.86,0.77-5.85c-0.05-0.94-0.84-1.69-1.81-1.79c-0.29-0.03-0.42,0.04-0.48,0.34c-0.51,2.44-1.5,4.66-3.1,6.58
		c-1.14,1.37-2.47,2.49-4.24,2.96c-0.27,0.07-0.35,0.17-0.35,0.45C21.84,30.9,21.84,32.84,21.84,34.78 M21.55,42.97
		c-0.68,1.22-1.7,1.74-3.04,1.71c-1.81-0.03-3.63-0.01-5.44-0.01c-0.87,0-1.24-0.36-1.24-1.22c0-5.85,0-11.7,0-17.56
		c0-0.84,0.36-1.21,1.21-1.21c1.86,0,3.72,0.01,5.58,0c1.35-0.01,2.34,0.56,2.95,1.78c0.02,0.03,0.04,0.05,0.1,0.13
		c0.3-0.13,0.63-0.23,0.93-0.39c1.45-0.77,2.45-1.99,3.31-3.34c0.93-1.46,1.4-3.1,1.78-4.76c0.06-0.26,0.12-0.53,0.21-0.79
		c0.11-0.37,0.38-0.62,0.76-0.66c1.08-0.09,2.16-0.09,3.14,0.49c1.3,0.78,1.99,1.92,2.03,3.44c0.06,1.97-0.18,3.9-0.73,5.79
		c-0.03,0.09-0.04,0.18-0.07,0.31h0.4c1.83,0,3.65-0.02,5.48,0.01c1.69,0.02,3.01,1.46,2.92,3.15c-0.04,0.69-0.31,1.31-0.74,1.84
		c1,1.28,0.99,2.75,0.01,4c1.47,1.83,0.61,4.24-1.36,4.87c0.02,0.55,0.1,1.1,0.04,1.62c-0.18,1.37-1.39,2.48-2.78,2.49
		c-3.03,0.03-6.07,0.02-9.1-0.01c-1.5-0.02-2.9-0.52-4.3-1.01C22.91,43.42,22.24,43.21,21.55,42.97"/>
	<path class="st0" d="M16.82,38.69c0.56-0.01,1,0.42,1.01,0.97c0,0.55-0.43,1.01-0.98,1.01c-0.53,0.01-1-0.45-1.01-0.98
		C15.82,39.15,16.27,38.7,16.82,38.69"/>
</g>
</svg>
