<?xml version="1.0" encoding="utf-8"?>
<!-- Generator: Adobe Illustrator 27.2.0, SVG Export Plug-In . SVG Version: 6.00 Build 0)  -->
<svg version="1.1" id="Layer_1" xmlns="http://www.w3.org/2000/svg" xmlns:xlink="http://www.w3.org/1999/xlink" x="0px" y="0px"
	 viewBox="0 0 54.72 63.62" style="enable-background:new 0 0 54.72 63.62;" xml:space="preserve">
<style type="text/css">
	.st0{fill:#4F4C4D;}
	.st1{fill:url(#SVGID_1_);}
	.st2{fill:url(#SVGID_00000100348892627354691780000013811664280769013908_);}
	
		.st3{clip-path:url(#SVGID_00000070098449316497329520000014609987909916149656_);fill:url(#SVGID_00000148649615367879618470000003526572561739690888_);}
	
		.st4{clip-path:url(#SVGID_00000070098449316497329520000014609987909916149656_);fill:url(#SVGID_00000070112548498256212720000006839368897804527293_);}
	
		.st5{clip-path:url(#SVGID_00000070098449316497329520000014609987909916149656_);fill:url(#SVGID_00000124875814646019044730000002941789349356011431_);}
	
		.st6{clip-path:url(#SVGID_00000070098449316497329520000014609987909916149656_);fill:url(#SVGID_00000167360214321567555870000014773845495430627515_);}
	
		.st7{clip-path:url(#SVGID_00000070098449316497329520000014609987909916149656_);fill:url(#SVGID_00000144309393667954671700000013531641724501602972_);}
	
		.st8{clip-path:url(#SVGID_00000070098449316497329520000014609987909916149656_);fill:url(#SVGID_00000181796690136604708430000012673888210736901303_);}
	
		.st9{clip-path:url(#SVGID_00000070098449316497329520000014609987909916149656_);fill:url(#SVGID_00000004521583725366683200000018216253618556439971_);}
	
		.st10{clip-path:url(#SVGID_00000070098449316497329520000014609987909916149656_);fill:url(#SVGID_00000036224302993758094070000017832699745787849613_);}
	
		.st11{clip-path:url(#SVGID_00000070098449316497329520000014609987909916149656_);fill:url(#SVGID_00000054954827705237178370000002513770653702936736_);}
	
		.st12{clip-path:url(#SVGID_00000070098449316497329520000014609987909916149656_);fill:url(#SVGID_00000172432754562883804620000001216839868330515123_);}
	
		.st13{clip-path:url(#SVGID_00000070098449316497329520000014609987909916149656_);fill:url(#SVGID_00000181773070745756127110000016581470547868447417_);}
	
		.st14{clip-path:url(#SVGID_00000070098449316497329520000014609987909916149656_);fill:url(#SVGID_00000046310145297197250520000004984172773802335361_);}
	
		.st15{clip-path:url(#SVGID_00000070098449316497329520000014609987909916149656_);fill:url(#SVGID_00000162353087176133255120000008734364872956644026_);}
	
		.st16{clip-path:url(#SVGID_00000070098449316497329520000014609987909916149656_);fill:url(#SVGID_00000059286443287471308910000015016583069012580491_);}
	
		.st17{clip-path:url(#SVGID_00000070098449316497329520000014609987909916149656_);fill:url(#SVGID_00000080901893931355063430000000197195075989719170_);}
	
		.st18{clip-path:url(#SVGID_00000070098449316497329520000014609987909916149656_);fill:url(#SVGID_00000015337077961490594090000006196266633281456805_);}
	.st19{clip-path:url(#SVGID_00000070098449316497329520000014609987909916149656_);}
	.st20{fill:url(#SVGID_00000132089505961257723050000009872080413481802149_);}
	.st21{fill:url(#SVGID_00000079464448207308274380000006111770875968772747_);}
	.st22{fill:url(#SVGID_00000127749009024823207290000005432204005130592418_);}
	.st23{fill:url(#SVGID_00000052820465172476881940000002821028402347937204_);}
	
		.st24{clip-path:url(#SVGID_00000070098449316497329520000014609987909916149656_);fill:url(#SVGID_00000018944108216818670560000017392374674299103380_);}
	
		.st25{clip-path:url(#SVGID_00000070098449316497329520000014609987909916149656_);fill:url(#SVGID_00000139991500522032736570000002886261306008338615_);}
	
		.st26{clip-path:url(#SVGID_00000070098449316497329520000014609987909916149656_);fill:url(#SVGID_00000106148798520039679560000001608255167935360395_);}
	
		.st27{clip-path:url(#SVGID_00000070098449316497329520000014609987909916149656_);fill:url(#SVGID_00000181074686483581249470000010143516155008308874_);}
	
		.st28{clip-path:url(#SVGID_00000070098449316497329520000014609987909916149656_);fill:url(#SVGID_00000169553072997762922540000013127033576178245783_);}
	
		.st29{clip-path:url(#SVGID_00000070098449316497329520000014609987909916149656_);fill:url(#SVGID_00000061436758911511840970000003388424277739509687_);}
	
		.st30{clip-path:url(#SVGID_00000070098449316497329520000014609987909916149656_);fill:url(#SVGID_00000076567535076171779580000015731159277377643415_);}
	
		.st31{clip-path:url(#SVGID_00000070098449316497329520000014609987909916149656_);fill:url(#SVGID_00000090981829174687872480000002872702364697966482_);}
	
		.st32{clip-path:url(#SVGID_00000070098449316497329520000014609987909916149656_);fill:url(#SVGID_00000178169179124789531770000005143819564050289055_);}
	
		.st33{clip-path:url(#SVGID_00000070098449316497329520000014609987909916149656_);fill:url(#SVGID_00000063608062344515915130000004836297306609046421_);}
	
		.st34{clip-path:url(#SVGID_00000070098449316497329520000014609987909916149656_);fill:url(#SVGID_00000026138484856142411320000005871634758347285928_);}
	
		.st35{clip-path:url(#SVGID_00000070098449316497329520000014609987909916149656_);fill:url(#SVGID_00000070120457077688509010000009782229686587552132_);}
	
		.st36{clip-path:url(#SVGID_00000070098449316497329520000014609987909916149656_);fill:url(#SVGID_00000111876592349758942250000007081729900125543565_);}
	
		.st37{clip-path:url(#SVGID_00000070098449316497329520000014609987909916149656_);fill:url(#SVGID_00000160180367193193321470000009250751791571728288_);}
	
		.st38{clip-path:url(#SVGID_00000070098449316497329520000014609987909916149656_);fill:url(#SVGID_00000145027319064965613020000013522318801537249192_);}
	
		.st39{clip-path:url(#SVGID_00000070098449316497329520000014609987909916149656_);fill:url(#SVGID_00000137101601703537905180000009837222126565978256_);}
	.st40{fill:url(#SVGID_00000082366180281757250480000015466350805324763549_);}
	.st41{fill:url(#SVGID_00000181076841635720731850000002518183858857916341_);}
	.st42{fill:url(#SVGID_00000104680779855364410820000003150444505183599758_);}
	.st43{fill:url(#SVGID_00000167353937173070507180000006781478768941356682_);}
	
		.st44{clip-path:url(#SVGID_00000070098449316497329520000014609987909916149656_);fill:url(#SVGID_00000155112789781422216000000016890737660411856798_);}
	
		.st45{clip-path:url(#SVGID_00000070098449316497329520000014609987909916149656_);fill:url(#SVGID_00000138575449063394123790000010987576662896080040_);}
	
		.st46{clip-path:url(#SVGID_00000070098449316497329520000014609987909916149656_);fill:url(#SVGID_00000008840105746730179970000010500875024750931899_);}
	
		.st47{clip-path:url(#SVGID_00000070098449316497329520000014609987909916149656_);fill:url(#SVGID_00000130621346727905722640000005650599109293131656_);}
	
		.st48{clip-path:url(#SVGID_00000070098449316497329520000014609987909916149656_);fill:url(#SVGID_00000107557830656738572370000002361709682470179769_);}
	
		.st49{clip-path:url(#SVGID_00000070098449316497329520000014609987909916149656_);fill:url(#SVGID_00000000942446264830103550000015470041990189517738_);}
	
		.st50{clip-path:url(#SVGID_00000070098449316497329520000014609987909916149656_);fill:url(#SVGID_00000117671791844428240790000007337737293899493047_);}
	
		.st51{clip-path:url(#SVGID_00000070098449316497329520000014609987909916149656_);fill:url(#SVGID_00000015330772663588348140000010993056122937338555_);}
	
		.st52{clip-path:url(#SVGID_00000070098449316497329520000014609987909916149656_);fill:url(#SVGID_00000144306922877829878900000006481807675500352174_);}
	
		.st53{clip-path:url(#SVGID_00000070098449316497329520000014609987909916149656_);fill:url(#SVGID_00000096775742470220870720000002988955926106527653_);}
	
		.st54{clip-path:url(#SVGID_00000070098449316497329520000014609987909916149656_);fill:url(#SVGID_00000130642059346508192820000011943743195949643435_);}
	
		.st55{clip-path:url(#SVGID_00000070098449316497329520000014609987909916149656_);fill:url(#SVGID_00000058591713123641082650000010137449317794317456_);}
	
		.st56{clip-path:url(#SVGID_00000070098449316497329520000014609987909916149656_);fill:url(#SVGID_00000104677411180323382530000015510246101882690701_);}
	
		.st57{clip-path:url(#SVGID_00000070098449316497329520000014609987909916149656_);fill:url(#SVGID_00000035528443627820906820000002850375308646277761_);}
	
		.st58{clip-path:url(#SVGID_00000070098449316497329520000014609987909916149656_);fill:url(#SVGID_00000016770141933395704560000018232506447393554595_);}
	
		.st59{clip-path:url(#SVGID_00000070098449316497329520000014609987909916149656_);fill:url(#SVGID_00000021819110064749013700000005907930284568865451_);}
	.st60{fill:url(#SVGID_00000039108966137858088030000016765125841052422060_);}
	.st61{fill:url(#SVGID_00000059291271573806003130000013838726789352199820_);}
	.st62{fill:url(#SVGID_00000166677691255170353740000002230941585529124755_);}
	.st63{fill:url(#SVGID_00000060743375788027571930000007658922148416868250_);}
	
		.st64{clip-path:url(#SVGID_00000070098449316497329520000014609987909916149656_);fill:url(#SVGID_00000047047284689438120240000000971691245570887609_);}
	
		.st65{clip-path:url(#SVGID_00000070098449316497329520000014609987909916149656_);fill:url(#SVGID_00000027567770178362555320000007344915469794136970_);}
	
		.st66{clip-path:url(#SVGID_00000070098449316497329520000014609987909916149656_);fill:url(#SVGID_00000152950743200384239420000003960002308366762929_);}
	
		.st67{clip-path:url(#SVGID_00000070098449316497329520000014609987909916149656_);fill:url(#SVGID_00000021099536617647946480000007366363911053324430_);}
	
		.st68{clip-path:url(#SVGID_00000070098449316497329520000014609987909916149656_);fill:url(#SVGID_00000034784271403807610840000016014351328629783939_);}
	
		.st69{clip-path:url(#SVGID_00000070098449316497329520000014609987909916149656_);fill:url(#SVGID_00000070798948707360674580000008268409620085701267_);}
	
		.st70{clip-path:url(#SVGID_00000070098449316497329520000014609987909916149656_);fill:url(#SVGID_00000019651548598089154340000006764728083483411384_);}
	
		.st71{clip-path:url(#SVGID_00000070098449316497329520000014609987909916149656_);fill:url(#SVGID_00000044165547110075162990000014219059430639358852_);}
	
		.st72{clip-path:url(#SVGID_00000070098449316497329520000014609987909916149656_);fill:url(#SVGID_00000047053905309747329670000002098021949721446044_);}
	
		.st73{clip-path:url(#SVGID_00000070098449316497329520000014609987909916149656_);fill:url(#SVGID_00000167394254893957579710000007212197435153276316_);}
	
		.st74{clip-path:url(#SVGID_00000070098449316497329520000014609987909916149656_);fill:url(#SVGID_00000061440627984951776260000006022048151227348367_);}
	
		.st75{clip-path:url(#SVGID_00000070098449316497329520000014609987909916149656_);fill:url(#SVGID_00000088845014069495099850000000605906453232848271_);}
	
		.st76{clip-path:url(#SVGID_00000070098449316497329520000014609987909916149656_);fill:url(#SVGID_00000058570470128840281960000001353154145043030701_);}
	
		.st77{clip-path:url(#SVGID_00000070098449316497329520000014609987909916149656_);fill:url(#SVGID_00000140718046789629789970000007073417466099803024_);}
	
		.st78{clip-path:url(#SVGID_00000070098449316497329520000014609987909916149656_);fill:url(#SVGID_00000052062303226408682860000009448438968969140370_);}
	
		.st79{clip-path:url(#SVGID_00000070098449316497329520000014609987909916149656_);fill:url(#SVGID_00000083803524923977568250000008113263731286991002_);}
	.st80{fill:url(#SVGID_00000093135718488970328750000005599792979948152761_);}
	.st81{fill:url(#SVGID_00000132801860388025403070000017498016534293337000_);}
	.st82{fill:url(#SVGID_00000030461673163608126270000011965028383436899474_);}
	.st83{fill:url(#SVGID_00000021121381654451772060000005864997932217076152_);}
	.st84{fill:url(#SVGID_00000114069699329041560630000008185354224839825584_);}
	.st85{fill:url(#SVGID_00000003085423637966489330000013703715169993020058_);}
	.st86{fill:url(#SVGID_00000089537456947600925830000005408229145255631492_);}
	.st87{fill:url(#SVGID_00000145057529296935263030000014045455498134760867_);}
	.st88{fill:url(#SVGID_00000183931756579751160290000002582634343523800206_);}
	.st89{fill:url(#SVGID_00000173859163522045384190000001892738391805338278_);}
	.st90{clip-path:url(#SVGID_00000172404676833650107820000001432669996225847978_);}
	.st91{fill:url(#SVGID_00000146490664984354571170000013204461394864794240_);}
	.st92{fill:url(#SVGID_00000142892437725670379820000003204194883312346035_);}
	.st93{fill:url(#SVGID_00000164506481181926827020000014022666401540091542_);}
	.st94{fill:url(#SVGID_00000158011101617680477260000003429837998179286442_);}
	.st95{fill:url(#SVGID_00000039831914022733359010000017565642007714068660_);}
	.st96{fill:url(#SVGID_00000015332751296887498630000005284642076515114941_);}
	.st97{fill:url(#SVGID_00000088100188966034535480000001931826877150370495_);}
	.st98{fill:none;stroke:#666364;stroke-miterlimit:10;}
	.st99{fill:#666364;}
	.st100{fill:#FFFFFF;}
	.st101{fill:#C1C0C1;}
	.st102{fill:none;stroke:#4F4C4D;stroke-width:0.0179;stroke-miterlimit:10;}
	.st103{fill:#D5D4D5;}
	.st104{clip-path:url(#SVGID_00000181074032863436149350000001999703684337983108_);}
	.st105{fill:none;stroke:#4F4C4D;stroke-width:0.8884;stroke-linecap:round;stroke-linejoin:round;stroke-miterlimit:10;}
	.st106{fill:none;stroke:#4F4C4D;stroke-width:0.8448;stroke-linecap:round;stroke-linejoin:round;stroke-miterlimit:10;}
	.st107{fill:none;stroke:#4F4C4D;stroke-width:0.9746;stroke-linecap:round;stroke-linejoin:round;stroke-miterlimit:10;}
	.st108{fill:none;stroke:#4F4C4D;stroke-width:0.8608;stroke-linecap:round;stroke-linejoin:round;stroke-miterlimit:10;}
	
		.st109{fill:none;stroke:#4F4C4D;stroke-width:0.8608;stroke-linecap:round;stroke-linejoin:round;stroke-miterlimit:10;stroke-dasharray:1.0632;}
	.st110{fill:none;stroke:#4F4C4D;stroke-width:0.9757;stroke-linecap:round;stroke-linejoin:round;stroke-miterlimit:10;}
	.st111{fill:none;stroke:#4F4C4D;stroke-width:1.1046;stroke-linecap:round;stroke-linejoin:round;stroke-miterlimit:10;}
	.st112{fill:none;stroke:#4F4C4D;stroke-width:1.0333;stroke-linecap:round;stroke-linejoin:round;stroke-miterlimit:10;}
	
		.st113{fill:none;stroke:#4F4C4D;stroke-width:1.0333;stroke-linecap:round;stroke-linejoin:round;stroke-miterlimit:10;stroke-dasharray:1.2;}
	.st114{fill:none;stroke:#4F4C4D;stroke-linecap:round;stroke-linejoin:round;stroke-miterlimit:10;}
	.st115{fill:none;stroke:#4F4C4D;stroke-linecap:round;stroke-linejoin:round;stroke-miterlimit:10;stroke-dasharray:1.0878;}
</style>
<g>
	<g>
		<path class="st0" d="M27.36,60.49L2.69,46.25V17.76L27.36,3.52l24.67,14.24v28.48L27.36,60.49z M4.53,45.18l22.83,13.18
			l22.83-13.18V18.83L27.36,5.65L4.53,18.83V45.18z"/>
	</g>
</g>
<g>
	<path class="st0" d="M29.02,32.26c0.74-3.17,2.02-6.16,1.57-9.43c-1.03-0.05-2.02-0.12-3.01-0.13c-0.19,0-0.38,0.23-0.57,0.35
		c-0.54,0.32-1.04,0.78-1.62,0.94c-1.36,0.36-2.31-0.58-1.98-1.96c0.17-0.74,0.14-1.26-0.39-1.89c-0.82-0.99-0.57-2.18-0.26-3.32
		c0.13-0.5,0.34-0.98,0.47-1.48c0.48-1.9,1.3-2.52,3.27-2.38c1.7,0.12,3.41,0.3,5.11,0.46c0.79,0.07,1.58,0.19,2.37,0.25
		c2.3,0.19,3.93,1.38,5.02,3.35c1.49,2.68,2.18,5.62,2.75,8.58c0.41,2.12,0.75,4.26,0.98,6.41c0.46,4.36-0.43,8.56-1.8,12.67
		c-0.55,1.66-1.74,2.63-3.51,2.76c-0.97,0.07-1.96,0.1-2.92-0.01c-3.02-0.34-5.96,0.01-8.88,0.79c-2.53,0.68-5.08,0.67-7.58-0.17
		c-3.88-1.29-6.3-4.93-6.15-9.12c0.16-4.25,2.97-7.87,7.03-8.92c3.52-0.91,6.77-0.26,9.68,1.96C28.71,32.05,28.83,32.13,29.02,32.26
		z M33.41,19.01c-0.1-0.01-0.19-0.01-0.29-0.02c-0.04,0.07-0.11,0.14-0.1,0.21c0.06,0.48-0.03,0.98-0.6,0.86
		c-0.31-0.07-0.68-0.58-0.72-0.93c-0.1-0.82,0.46-1.28,1.22-1.44c0.75-0.16,1.4,0.04,1.62,0.81c0.19,0.67,0.18,1.39,0.29,2.35
		c0.39-0.57,0.65-1.03,1-1.41c0.19-0.21,0.53-0.28,0.8-0.41c0.13,0.27,0.39,0.56,0.36,0.82c-0.1,1-1.25,1.95-2.26,2.1
		c-0.96,0.15-1.89,0.43-2.84,0.65c0.25,2.64-0.23,4.98-0.91,7.31c-0.35,1.2-0.65,2.42-0.85,3.64c-0.37,2.23-0.35,4.4,1.4,6.16
		c0.33,0.33,0.74,0.68,0.3,1.15c-0.48,0.5-0.88,0.12-1.24-0.24c-1.46-1.45-2.08-3.27-1.9-5.25c0.13-1.41-0.51-2.2-1.53-2.84
		c-2.5-1.59-5.2-2.06-8.06-1.23c-3.65,1.07-6.06,4.45-5.91,8.21c0.16,3.99,2.57,6.8,6.5,7.64c2.18,0.47,4.31,0.16,6.43-0.37
		c0.46-0.11,1.05-0.07,1.11-0.83c0.01-0.14,0.54-0.35,0.83-0.34c0.76,0.02,1.52,0.18,2.28,0.23c2.31,0.13,4.63,0.28,6.94,0.31
		c1.23,0.02,2.05-0.75,2.43-1.9c1.3-4,2.22-8.08,1.69-12.31c-0.35-2.78-0.81-5.55-1.45-8.27c-0.47-2-1.25-3.94-2.03-5.84
		c-0.51-1.24-1.45-2.37-2.8-2.57c-3.04-0.46-6.12-0.7-9.18-0.96c-0.38-0.03-1.04,0.3-1.17,0.62c-0.41,1.04-0.69,2.14-0.92,3.24
		c-0.15,0.71,0.05,1.36,0.77,1.7c0.1-0.89,0.17-1.74,0.29-2.58c0.07-0.51,0.29-1.06,0.91-0.8c0.23,0.1,0.32,0.73,0.34,1.12
		c0.05,0.9-0.02,1.81,0.04,2.71c0.05,0.69,0.55,0.93,1.15,0.94c-0.07-0.93-0.21-1.83-0.18-2.73c0.01-0.31,0.42-0.81,0.69-0.85
		c0.56-0.07,0.56,0.44,0.59,0.9c0.06,0.81,0.18,1.63,0.36,2.42c0.14,0.61,0.55,0.72,0.95,0.45c-0.13-0.95-0.3-1.78-0.32-2.62
		c-0.01-0.23,0.43-0.47,0.67-0.7c0.2,0.26,0.47,0.5,0.57,0.8c0.17,0.54,0.17,1.15,0.38,1.67c0.13,0.31,0.62,0.78,0.77,0.72
		c0.54-0.2,1.1-0.52,1.45-0.96C33.48,20.03,33.37,19.46,33.41,19.01z M24.8,21.68c-0.07,0.38-0.12,0.67-0.22,1.26
		c0.61-0.26,0.98-0.42,1.55-0.65C25.54,22.02,25.22,21.87,24.8,21.68z"/>
	<path class="st0" d="M21.84,25.43c0,0.73,0.05,1.47-0.03,2.19c-0.03,0.26-0.39,0.49-0.6,0.73c-0.22-0.24-0.62-0.47-0.63-0.72
		c-0.06-1.49-0.06-2.99,0-4.48c0.01-0.25,0.4-0.49,0.62-0.73c0.21,0.24,0.58,0.47,0.61,0.73C21.89,23.9,21.84,24.67,21.84,25.43z"/>
	<path class="st0" d="M16.49,23.89c0.11,0.09,0.37,0.2,0.49,0.41c0.61,1.05,1.22,2.11,1.74,3.21c0.12,0.26-0.1,0.67-0.17,1.02
		c-0.32-0.14-0.79-0.19-0.95-0.44c-0.63-1.01-1.17-2.06-1.72-3.12C15.58,24.37,15.79,23.92,16.49,23.89z"/>
	<path class="st0" d="M16.5,29.56c-0.27,0.12-0.71,0.47-0.86,0.37c-0.86-0.56-1.66-1.2-2.44-1.86c-0.1-0.09-0.05-0.5,0.06-0.65
		c0.12-0.15,0.5-0.31,0.61-0.23c0.86,0.6,1.69,1.26,2.52,1.91C16.45,29.14,16.44,29.26,16.5,29.56z"/>
	<path class="st0" d="M26.28,25.68c-0.47,0.94-0.87,1.82-1.35,2.65c-0.08,0.14-0.58,0.2-0.72,0.09c-0.19-0.15-0.35-0.55-0.28-0.75
		c0.29-0.79,0.65-1.56,1.06-2.3c0.1-0.18,0.52-0.3,0.76-0.26C25.95,25.15,26.1,25.47,26.28,25.68z"/>
	<path class="st0" d="M27.55,29.95c-0.33-0.27-0.58-0.38-0.66-0.57c-0.08-0.18-0.06-0.51,0.06-0.65c0.35-0.41,0.76-0.8,1.19-1.13
		c0.15-0.11,0.49-0.12,0.65-0.02c0.17,0.1,0.37,0.49,0.31,0.57C28.63,28.76,28.11,29.32,27.55,29.95z"/>
	<path class="st0" d="M21.55,42.03c-2.46-0.07-4.55-0.73-6.41-2.08c-0.24-0.18-0.52-0.39-0.61-0.65c-0.07-0.19,0.08-0.63,0.22-0.68
		c0.26-0.09,0.67-0.06,0.88,0.09c1.44,1.04,3,1.72,4.78,1.93c2.2,0.26,4.17-0.29,5.95-1.59c0.15-0.11,0.29-0.3,0.44-0.31
		c0.34-0.03,0.69,0.03,1.04,0.05c-0.07,0.32-0.04,0.75-0.24,0.93c-1.36,1.2-2.95,1.93-4.75,2.19C22.36,41.97,21.87,42,21.55,42.03z"
		/>
	<path class="st0" d="M35.88,45.48c-0.12-0.1-0.39-0.33-0.66-0.55c0.24-0.24,0.46-0.65,0.73-0.69c0.88-0.15,1.53-0.47,1.84-1.39
		c0.07-0.21,0.55-0.29,0.84-0.43c0.12,0.3,0.38,0.63,0.33,0.9C38.73,44.54,37.49,45.45,35.88,45.48z"/>
</g>
</svg>
