<?xml version="1.0" encoding="utf-8"?>
<!-- Generator: Adobe Illustrator 27.2.0, SVG Export Plug-In . SVG Version: 6.00 Build 0)  -->
<svg version="1.1" id="Layer_1" xmlns="http://www.w3.org/2000/svg" xmlns:xlink="http://www.w3.org/1999/xlink" x="0px" y="0px"
	 viewBox="0 0 54.72 63.62" style="enable-background:new 0 0 54.72 63.62;" xml:space="preserve">
<style type="text/css">
	.st0{fill:#4F4C4D;}
	.st1{fill:url(#SVGID_1_);}
	.st2{fill:url(#SVGID_00000155843412707523845250000007950271225176852620_);}
	
		.st3{clip-path:url(#SVGID_00000126293022640442999460000002152922692251025305_);fill:url(#SVGID_00000157292244873507647350000018154068412102913438_);}
	
		.st4{clip-path:url(#SVGID_00000126293022640442999460000002152922692251025305_);fill:url(#SVGID_00000077306088887880025330000014841765688527586722_);}
	
		.st5{clip-path:url(#SVGID_00000126293022640442999460000002152922692251025305_);fill:url(#SVGID_00000136406146002736883680000011387972858896639155_);}
	
		.st6{clip-path:url(#SVGID_00000126293022640442999460000002152922692251025305_);fill:url(#SVGID_00000067937927428739397100000013325695473422845618_);}
	
		.st7{clip-path:url(#SVGID_00000126293022640442999460000002152922692251025305_);fill:url(#SVGID_00000000933130206952867000000015160288030285716414_);}
	
		.st8{clip-path:url(#SVGID_00000126293022640442999460000002152922692251025305_);fill:url(#SVGID_00000148662689105860637810000008662864756864145852_);}
	
		.st9{clip-path:url(#SVGID_00000126293022640442999460000002152922692251025305_);fill:url(#SVGID_00000028283312754558859140000014862833164223767968_);}
	
		.st10{clip-path:url(#SVGID_00000126293022640442999460000002152922692251025305_);fill:url(#SVGID_00000106837416306964212970000011520778959503057064_);}
	
		.st11{clip-path:url(#SVGID_00000126293022640442999460000002152922692251025305_);fill:url(#SVGID_00000154391505931480039630000014425762057186596736_);}
	
		.st12{clip-path:url(#SVGID_00000126293022640442999460000002152922692251025305_);fill:url(#SVGID_00000024723900323920450490000013260588523642037640_);}
	
		.st13{clip-path:url(#SVGID_00000126293022640442999460000002152922692251025305_);fill:url(#SVGID_00000128453831924704649100000007747878648151598982_);}
	
		.st14{clip-path:url(#SVGID_00000126293022640442999460000002152922692251025305_);fill:url(#SVGID_00000048486885351726795120000010598413081364410298_);}
	
		.st15{clip-path:url(#SVGID_00000126293022640442999460000002152922692251025305_);fill:url(#SVGID_00000063623922174635069480000006971575301678842755_);}
	
		.st16{clip-path:url(#SVGID_00000126293022640442999460000002152922692251025305_);fill:url(#SVGID_00000094597054054188761750000007220242800673504390_);}
	
		.st17{clip-path:url(#SVGID_00000126293022640442999460000002152922692251025305_);fill:url(#SVGID_00000145737271347436359570000007602277641937982871_);}
	
		.st18{clip-path:url(#SVGID_00000126293022640442999460000002152922692251025305_);fill:url(#SVGID_00000066498646904118608590000001282277406602212531_);}
	.st19{clip-path:url(#SVGID_00000126293022640442999460000002152922692251025305_);}
	.st20{fill:url(#SVGID_00000049920181121862340480000010130338392811963820_);}
	.st21{fill:url(#SVGID_00000068654242447060090150000016507287261236782001_);}
	.st22{fill:url(#SVGID_00000054267553993163605020000018128320822477528976_);}
	.st23{fill:url(#SVGID_00000049915042113153930730000010053863411368036738_);}
	
		.st24{clip-path:url(#SVGID_00000126293022640442999460000002152922692251025305_);fill:url(#SVGID_00000052095745752923842150000001200766149595629222_);}
	
		.st25{clip-path:url(#SVGID_00000126293022640442999460000002152922692251025305_);fill:url(#SVGID_00000072243492568446691320000010914605044081100197_);}
	
		.st26{clip-path:url(#SVGID_00000126293022640442999460000002152922692251025305_);fill:url(#SVGID_00000122696730704495333000000013367368860124930176_);}
	
		.st27{clip-path:url(#SVGID_00000126293022640442999460000002152922692251025305_);fill:url(#SVGID_00000098209409617035177150000014553742635029735354_);}
	
		.st28{clip-path:url(#SVGID_00000126293022640442999460000002152922692251025305_);fill:url(#SVGID_00000096753831525827272500000000529131486655560890_);}
	
		.st29{clip-path:url(#SVGID_00000126293022640442999460000002152922692251025305_);fill:url(#SVGID_00000083088847279252782140000002850258142933431942_);}
	
		.st30{clip-path:url(#SVGID_00000126293022640442999460000002152922692251025305_);fill:url(#SVGID_00000176733582379216603270000001793911579705850512_);}
	
		.st31{clip-path:url(#SVGID_00000126293022640442999460000002152922692251025305_);fill:url(#SVGID_00000088827187282195460540000013185919409880199828_);}
	
		.st32{clip-path:url(#SVGID_00000126293022640442999460000002152922692251025305_);fill:url(#SVGID_00000152248623305963220220000004119256279862779539_);}
	
		.st33{clip-path:url(#SVGID_00000126293022640442999460000002152922692251025305_);fill:url(#SVGID_00000093856124951120632010000015841113190017021056_);}
	
		.st34{clip-path:url(#SVGID_00000126293022640442999460000002152922692251025305_);fill:url(#SVGID_00000165214991531187832890000007460155542861107619_);}
	
		.st35{clip-path:url(#SVGID_00000126293022640442999460000002152922692251025305_);fill:url(#SVGID_00000036211762189248983940000008971084060297297330_);}
	
		.st36{clip-path:url(#SVGID_00000126293022640442999460000002152922692251025305_);fill:url(#SVGID_00000088813386280264354700000000698717546432495022_);}
	
		.st37{clip-path:url(#SVGID_00000126293022640442999460000002152922692251025305_);fill:url(#SVGID_00000127032850293445911280000010672160501844497574_);}
	
		.st38{clip-path:url(#SVGID_00000126293022640442999460000002152922692251025305_);fill:url(#SVGID_00000052784906285712698960000017647398860400333186_);}
	
		.st39{clip-path:url(#SVGID_00000126293022640442999460000002152922692251025305_);fill:url(#SVGID_00000042712832763583057070000000806914857246405266_);}
	.st40{fill:url(#SVGID_00000182512589707548309730000008895246591844606380_);}
	.st41{fill:url(#SVGID_00000171700820987396578140000004059864837137171879_);}
	.st42{fill:url(#SVGID_00000170960226776947625980000003784823933496294331_);}
	.st43{fill:url(#SVGID_00000147920268986416186870000001382434256712832148_);}
	
		.st44{clip-path:url(#SVGID_00000126293022640442999460000002152922692251025305_);fill:url(#SVGID_00000171677580137703217980000010036012938360705956_);}
	
		.st45{clip-path:url(#SVGID_00000126293022640442999460000002152922692251025305_);fill:url(#SVGID_00000072984848976665690360000012183358427844437694_);}
	
		.st46{clip-path:url(#SVGID_00000126293022640442999460000002152922692251025305_);fill:url(#SVGID_00000150064582339951188680000004712625807340219556_);}
	
		.st47{clip-path:url(#SVGID_00000126293022640442999460000002152922692251025305_);fill:url(#SVGID_00000036941631558142939270000004563224102012450699_);}
	
		.st48{clip-path:url(#SVGID_00000126293022640442999460000002152922692251025305_);fill:url(#SVGID_00000146484375300029912960000016533947955065269900_);}
	
		.st49{clip-path:url(#SVGID_00000126293022640442999460000002152922692251025305_);fill:url(#SVGID_00000104702514350886065710000005237943852315604142_);}
	
		.st50{clip-path:url(#SVGID_00000126293022640442999460000002152922692251025305_);fill:url(#SVGID_00000039111674279401550340000002361682181074415015_);}
	
		.st51{clip-path:url(#SVGID_00000126293022640442999460000002152922692251025305_);fill:url(#SVGID_00000149361246091840718310000011269060365528281526_);}
	
		.st52{clip-path:url(#SVGID_00000126293022640442999460000002152922692251025305_);fill:url(#SVGID_00000036931868014117452390000002267312752483592100_);}
	
		.st53{clip-path:url(#SVGID_00000126293022640442999460000002152922692251025305_);fill:url(#SVGID_00000004531848859810599480000006387574385232255920_);}
	
		.st54{clip-path:url(#SVGID_00000126293022640442999460000002152922692251025305_);fill:url(#SVGID_00000111187344491358368700000002800251312668269246_);}
	
		.st55{clip-path:url(#SVGID_00000126293022640442999460000002152922692251025305_);fill:url(#SVGID_00000155852851172866883340000009902726185913772219_);}
	
		.st56{clip-path:url(#SVGID_00000126293022640442999460000002152922692251025305_);fill:url(#SVGID_00000090254110302463424590000018278588830134351489_);}
	
		.st57{clip-path:url(#SVGID_00000126293022640442999460000002152922692251025305_);fill:url(#SVGID_00000051354420705249688190000008048414224512508849_);}
	
		.st58{clip-path:url(#SVGID_00000126293022640442999460000002152922692251025305_);fill:url(#SVGID_00000034059633803469627980000006710547752934414268_);}
	
		.st59{clip-path:url(#SVGID_00000126293022640442999460000002152922692251025305_);fill:url(#SVGID_00000083804883490898201970000007972615513151948953_);}
	.st60{fill:url(#SVGID_00000014626112868401901890000009743364919980155805_);}
	.st61{fill:url(#SVGID_00000149347063718452938220000010155619361561878440_);}
	.st62{fill:url(#SVGID_00000136393583496925394030000015367542539213470398_);}
	.st63{fill:url(#SVGID_00000075134910720415900980000018416960599003965857_);}
	
		.st64{clip-path:url(#SVGID_00000126293022640442999460000002152922692251025305_);fill:url(#SVGID_00000131325828079851442730000013909633699292270997_);}
	
		.st65{clip-path:url(#SVGID_00000126293022640442999460000002152922692251025305_);fill:url(#SVGID_00000061442697497646826510000018167604820142227863_);}
	
		.st66{clip-path:url(#SVGID_00000126293022640442999460000002152922692251025305_);fill:url(#SVGID_00000023991279780013573280000003899404486085695912_);}
	
		.st67{clip-path:url(#SVGID_00000126293022640442999460000002152922692251025305_);fill:url(#SVGID_00000002375658081735321490000004790660574197484984_);}
	
		.st68{clip-path:url(#SVGID_00000126293022640442999460000002152922692251025305_);fill:url(#SVGID_00000077299153197080808440000001732321892142070169_);}
	
		.st69{clip-path:url(#SVGID_00000126293022640442999460000002152922692251025305_);fill:url(#SVGID_00000052084366626730439540000010733759874329334971_);}
	
		.st70{clip-path:url(#SVGID_00000126293022640442999460000002152922692251025305_);fill:url(#SVGID_00000095334985735452127670000001443403593967293583_);}
	
		.st71{clip-path:url(#SVGID_00000126293022640442999460000002152922692251025305_);fill:url(#SVGID_00000079486570521058458790000003698815358021491846_);}
	
		.st72{clip-path:url(#SVGID_00000126293022640442999460000002152922692251025305_);fill:url(#SVGID_00000143602850099650197480000010249973003082340783_);}
	
		.st73{clip-path:url(#SVGID_00000126293022640442999460000002152922692251025305_);fill:url(#SVGID_00000163074012928518148160000007582633537338340992_);}
	
		.st74{clip-path:url(#SVGID_00000126293022640442999460000002152922692251025305_);fill:url(#SVGID_00000119094661274143387470000014451703379454793365_);}
	
		.st75{clip-path:url(#SVGID_00000126293022640442999460000002152922692251025305_);fill:url(#SVGID_00000092416236632223033720000008365447033747456150_);}
	
		.st76{clip-path:url(#SVGID_00000126293022640442999460000002152922692251025305_);fill:url(#SVGID_00000016069976385232535850000011250302735602515097_);}
	
		.st77{clip-path:url(#SVGID_00000126293022640442999460000002152922692251025305_);fill:url(#SVGID_00000098197727254547684570000018053874259961585289_);}
	
		.st78{clip-path:url(#SVGID_00000126293022640442999460000002152922692251025305_);fill:url(#SVGID_00000101801367949282446740000008527949929359145602_);}
	
		.st79{clip-path:url(#SVGID_00000126293022640442999460000002152922692251025305_);fill:url(#SVGID_00000071537203487658518600000003301189979734202046_);}
	.st80{fill:url(#SVGID_00000145034977398738505760000009936726098285691016_);}
	.st81{fill:url(#SVGID_00000036209291912167709610000003355432685136921988_);}
	.st82{fill:url(#SVGID_00000034774005960128929670000004528277292541140129_);}
	.st83{fill:url(#SVGID_00000006705455801328258740000001434314308578338433_);}
	.st84{fill:url(#SVGID_00000008111032148731726990000013574963262201844891_);}
	.st85{fill:url(#SVGID_00000005983257318099776190000015451091687484178563_);}
	.st86{fill:url(#SVGID_00000054948095895462526290000016265071835486180778_);}
	.st87{fill:url(#SVGID_00000027592755754344172100000008509721907065650868_);}
	.st88{fill:url(#SVGID_00000106142070283138881130000017820187497649054879_);}
	.st89{fill:url(#SVGID_00000176750558912282762930000017807437162445784964_);}
	.st90{clip-path:url(#SVGID_00000080168206021457789050000001674176876663914684_);}
	.st91{fill:url(#SVGID_00000097475525942172134040000002861097732813445046_);}
	.st92{fill:url(#SVGID_00000145016574733211860780000005913160108829566630_);}
	.st93{fill:url(#SVGID_00000049931891620990274900000016190928624202948027_);}
	.st94{fill:url(#SVGID_00000023279992668965664070000006576879551008471171_);}
	.st95{fill:url(#SVGID_00000098927248171517659350000007511609481067844993_);}
	.st96{fill:url(#SVGID_00000019679794830597633150000008449085551698917555_);}
	.st97{fill:url(#SVGID_00000049935358036163393500000017068637818074336919_);}
	.st98{fill:none;stroke:#666364;stroke-miterlimit:10;}
	.st99{fill:#666364;}
	.st100{fill:#FFFFFF;}
	.st101{fill:#C1C0C1;}
	.st102{fill:none;stroke:#4F4C4D;stroke-width:0.0179;stroke-miterlimit:10;}
	.st103{fill:#D5D4D5;}
	.st104{clip-path:url(#SVGID_00000106106718676271329030000003588642882025321880_);}
	.st105{fill:none;stroke:#4F4C4D;stroke-width:0.8884;stroke-linecap:round;stroke-linejoin:round;stroke-miterlimit:10;}
	.st106{fill:none;stroke:#4F4C4D;stroke-width:0.8448;stroke-linecap:round;stroke-linejoin:round;stroke-miterlimit:10;}
	.st107{fill:none;stroke:#4F4C4D;stroke-width:0.9746;stroke-linecap:round;stroke-linejoin:round;stroke-miterlimit:10;}
	.st108{fill:none;stroke:#4F4C4D;stroke-width:0.8608;stroke-linecap:round;stroke-linejoin:round;stroke-miterlimit:10;}
	
		.st109{fill:none;stroke:#4F4C4D;stroke-width:0.8608;stroke-linecap:round;stroke-linejoin:round;stroke-miterlimit:10;stroke-dasharray:1.0632;}
	.st110{fill:none;stroke:#4F4C4D;stroke-width:0.9757;stroke-linecap:round;stroke-linejoin:round;stroke-miterlimit:10;}
	.st111{fill:none;stroke:#4F4C4D;stroke-width:1.1046;stroke-linecap:round;stroke-linejoin:round;stroke-miterlimit:10;}
	.st112{fill:none;stroke:#4F4C4D;stroke-width:1.0333;stroke-linecap:round;stroke-linejoin:round;stroke-miterlimit:10;}
	
		.st113{fill:none;stroke:#4F4C4D;stroke-width:1.0333;stroke-linecap:round;stroke-linejoin:round;stroke-miterlimit:10;stroke-dasharray:1.2;}
	.st114{fill:none;stroke:#4F4C4D;stroke-linecap:round;stroke-linejoin:round;stroke-miterlimit:10;}
	.st115{fill:none;stroke:#4F4C4D;stroke-linecap:round;stroke-linejoin:round;stroke-miterlimit:10;stroke-dasharray:1.0878;}
</style>
<g>
	<g>
		<path class="st0" d="M27.36,60.49L2.69,46.25V17.76L27.36,3.52l24.67,14.24v28.48L27.36,60.49z M4.53,45.18l22.83,13.18
			l22.83-13.18V18.83L27.36,5.65L4.53,18.83V45.18z"/>
	</g>
</g>
<g>
	<g>
		<g>
			<path class="st0" d="M39.75,28.83c0,0,0.32,2.84,2.45,2.81c0,0-2.39,0.54-2.36,2.96c0,0-0.08-2.92-2.45-2.88
				C37.4,31.72,39.8,31.53,39.75,28.83z"/>
			<path class="st0" d="M39.75,17.79c0,0,0.32,2.84,2.45,2.81c0,0-2.39,0.54-2.36,2.96c0,0-0.08-2.92-2.45-2.88
				C37.4,20.67,39.8,20.49,39.75,17.79z"/>
			<path class="st0" d="M44.76,23.84c0,0,0.32,2.84,2.44,2.81c0,0-2.39,0.54-2.35,2.96c0,0-0.08-2.92-2.45-2.89
				C42.41,26.73,44.81,26.54,44.76,23.84z"/>
		</g>
	</g>
	<g>
		<path class="st0" d="M44.42,34.77H9.02c-0.16,0-0.28,0.13-0.28,0.28v1.13c0,0.16,0.13,0.28,0.28,0.28h35.4
			c0.16,0,0.28-0.13,0.28-0.28v-1.13C44.71,34.9,44.58,34.77,44.42,34.77"/>
		<path class="st0" d="M44.42,37.6c-1.76,0-2.71,0.73-3.47,1.31c-0.7,0.54-1.25,0.95-2.43,0.95c-1.19,0-1.74-0.42-2.43-0.95
			c-0.76-0.58-1.71-1.31-3.47-1.31c-1.76,0-2.7,0.72-3.47,1.31c-0.7,0.53-1.24,0.95-2.43,0.95c-1.19,0-1.74-0.42-2.44-0.96
			c-0.76-0.58-1.7-1.31-3.46-1.31c-1.76,0-2.71,0.73-3.47,1.31c-0.7,0.53-1.24,0.95-2.43,0.95c-1.19,0-1.74-0.42-2.43-0.95
			c-0.76-0.58-1.71-1.31-3.47-1.31c-0.16,0-0.28,0.13-0.28,0.28v1.13c0,0.16,0.13,0.28,0.28,0.28c1.19,0,1.74,0.42,2.43,0.96
			c0.76,0.58,1.7,1.31,3.47,1.31c1.76,0,2.71-0.72,3.47-1.31c0.69-0.54,1.24-0.96,2.43-0.96c1.19,0,1.74,0.42,2.43,0.96
			c0.76,0.58,1.7,1.31,3.47,1.31c1.77,0,2.71-0.73,3.47-1.31c0.7-0.54,1.24-0.96,2.43-0.96c1.19,0,1.74,0.42,2.44,0.96
			c0.76,0.58,1.7,1.31,3.46,1.31c1.77,0,2.71-0.73,3.47-1.31c0.7-0.54,1.24-0.96,2.43-0.96c0.16,0,0.28-0.13,0.28-0.28v-1.13
			C44.71,37.73,44.58,37.6,44.42,37.6"/>
		<path class="st0" d="M16.89,47.99l-0.08-0.15l-0.11-0.13l-0.13-0.11l-0.14-0.07l-0.16-0.05c-0.27-0.07-0.57,0.03-0.78,0.24
			l-0.1,0.13L15.31,48l-0.04,0.15l-0.02,0.17l0.02,0.17l0.05,0.16l0.08,0.15l0.1,0.12c0.16,0.16,0.38,0.25,0.6,0.25
			c0.22,0,0.44-0.09,0.6-0.25l0.11-0.13l0.07-0.14l0.05-0.16l0.02-0.17l-0.02-0.17L16.89,47.99 M16.5,47.92L16.5,47.92L16.5,47.92
			L16.5,47.92z M15.58,48.1 M15.58,48.53"/>
		<path class="st0" d="M20.43,44.46l-0.08-0.15l-0.11-0.13c-0.31-0.31-0.88-0.32-1.21,0.01l-0.1,0.13l-0.08,0.15l-0.04,0.15
			l-0.02,0.17l0.02,0.17l0.05,0.16l0.08,0.14l0.11,0.13l0.13,0.1l0.15,0.08l0.15,0.04l0.17,0.02l0.17-0.02l0.16-0.05l0.14-0.08
			l0.13-0.11c0.16-0.16,0.25-0.38,0.25-0.6l-0.02-0.17L20.43,44.46 M20.04,44.37L20.04,44.37L20.04,44.37z M19.12,44.56L19.12,44.56
			L19.12,44.56L19.12,44.56z M19.12,44.99L19.12,44.99L19.12,44.99L19.12,44.99z M19.42,45.3L19.42,45.3L19.42,45.3z"/>
		<path class="st0" d="M23.97,47.99l-0.08-0.15l-0.11-0.13c-0.2-0.2-0.49-0.29-0.76-0.23l-0.17,0.05l-0.14,0.08l-0.14,0.11
			l-0.1,0.13l-0.08,0.14l-0.05,0.16l-0.02,0.17l0.02,0.17l0.04,0.14l0.08,0.16l0.1,0.12l0.12,0.1l0.16,0.09l0.15,0.05l0.17,0.02
			l0.17-0.02l0.16-0.05l0.14-0.08l0.13-0.11l0.11-0.13l0.07-0.14l0.05-0.17l0.02-0.17l-0.02-0.17L23.97,47.99 M23.74,48.43"/>
		<path class="st0" d="M27.51,44.46l-0.08-0.15l-0.11-0.13l-0.13-0.11l-0.14-0.08l-0.16-0.05l-0.34,0l-0.16,0.05l-0.14,0.08
			l-0.14,0.11l-0.1,0.13l-0.08,0.14l-0.05,0.16l-0.02,0.17l0.02,0.17l0.05,0.15l0.08,0.15l0.11,0.13l0.13,0.11l0.15,0.08l0.15,0.04
			l0.17,0.02l0.17-0.02l0.16-0.04l0.14-0.08l0.13-0.11c0.16-0.16,0.25-0.38,0.25-0.6l-0.02-0.17L27.51,44.46 M27.12,44.38
			L27.12,44.38L27.12,44.38z"/>
		<path class="st0" d="M31.05,47.99l-0.08-0.15l-0.11-0.13l-0.13-0.1l-0.14-0.08l-0.16-0.05c-0.27-0.07-0.57,0.03-0.78,0.24
			l-0.1,0.13l-0.08,0.14l-0.05,0.16l-0.02,0.17l0.02,0.17l0.04,0.14l0.08,0.16l0.1,0.12l0.12,0.1l0.17,0.09l0.15,0.04l0.17,0.02
			l0.17-0.02l0.16-0.04l0.14-0.08l0.13-0.11l0.11-0.13l0.07-0.14l0.05-0.17l0.02-0.17l-0.02-0.17L31.05,47.99 M30.73,48.63"/>
		<path class="st0" d="M34.59,44.45l-0.08-0.14l-0.11-0.13c-0.2-0.2-0.49-0.29-0.77-0.23l-0.16,0.05l-0.14,0.08l-0.14,0.11
			l-0.1,0.13l-0.08,0.15l-0.04,0.15l-0.02,0.17l0.02,0.17l0.05,0.16l0.08,0.14l0.11,0.13l0.13,0.1l0.16,0.08l0.15,0.04l0.17,0.02
			l0.17-0.02l0.16-0.05l0.14-0.08l0.13-0.11c0.16-0.16,0.25-0.38,0.25-0.6l-0.02-0.17L34.59,44.45 M34.33,44.56L34.33,44.56
			L34.33,44.56L34.33,44.56z M34.2,44.37"/>
		<path class="st0" d="M38.13,47.98l-0.07-0.14l-0.11-0.13c-0.32-0.31-0.88-0.32-1.21,0.01l-0.1,0.13l-0.08,0.14l-0.05,0.16
			l-0.02,0.17l0.02,0.17l0.04,0.14l0.08,0.16l0.1,0.12c0.16,0.16,0.38,0.25,0.6,0.25c0.22,0,0.44-0.09,0.6-0.25l0.11-0.13l0.08-0.15
			l0.05-0.15l0.02-0.17l-0.02-0.17L38.13,47.98 M37.87,48.1 M37.74,47.92L37.74,47.92L37.74,47.92L37.74,47.92z M37.87,48.53"/>
		<path class="st0" d="M41.67,44.46l-0.08-0.15l-0.11-0.13l-0.14-0.11l-0.14-0.08l-0.16-0.05l-0.34,0l-0.16,0.05l-0.14,0.08
			l-0.14,0.11l-0.1,0.13l-0.08,0.14l-0.05,0.16l-0.02,0.17l0.02,0.17l0.05,0.15l0.08,0.15l0.11,0.13l0.13,0.11l0.15,0.08l0.15,0.04
			l0.17,0.02l0.17-0.02l0.16-0.04l0.14-0.08l0.14-0.11c0.16-0.16,0.25-0.38,0.25-0.6l-0.02-0.17L41.67,44.46 M41.28,44.37"/>
		<path class="st0" d="M13.35,44.45l-0.08-0.15l-0.11-0.13l-0.13-0.1l-0.14-0.08l-0.16-0.05h-0.33l-0.17,0.05l-0.14,0.07l-0.14,0.11
			l-0.1,0.13l-0.08,0.14l-0.04,0.15l-0.02,0.18l0.02,0.17l0.05,0.16l0.08,0.15l0.11,0.13l0.13,0.1l0.15,0.08l0.15,0.04l0.17,0.02
			l0.16-0.02l0.17-0.05l0.14-0.07l0.13-0.11c0.16-0.16,0.25-0.38,0.25-0.6l-0.02-0.17L13.35,44.45 M12.09,45.09L12.09,45.09
			L12.09,45.09L12.09,45.09z"/>
		<path class="st0" d="M27.15,32.52c2.93,0,5.32-2.39,5.32-5.32c0-2.67-4.15-8.68-4.63-9.36c-0.32-0.46-1.08-0.46-1.39,0
			c-0.47,0.68-4.63,6.69-4.63,9.36C21.82,30.13,24.21,32.52,27.15,32.52 M23.53,27.2c0-1.37,1.9-4.73,3.62-7.36
			c1.72,2.63,3.62,6,3.62,7.36c0,2-1.62,3.62-3.62,3.62C25.15,30.82,23.53,29.2,23.53,27.2"/>
		<path class="st0" d="M26.66,29.97c0.38,0,0.76-0.06,1.12-0.17c1.17-0.37,2.07-1.3,2.4-2.48c0.04-0.15-0.04-0.31-0.19-0.35
			l-1.09-0.31l-0.22,0.02l-0.13,0.17c-0.18,0.63-0.66,1.13-1.29,1.33c-0.2,0.06-0.4,0.09-0.6,0.09c-0.16,0-0.28,0.13-0.28,0.28v1.13
			C26.38,29.84,26.51,29.97,26.66,29.97"/>
	</g>
</g>
</svg>
