<?xml version="1.0" encoding="utf-8"?>
<!-- Generator: Adobe Illustrator 27.2.0, SVG Export Plug-In . SVG Version: 6.00 Build 0)  -->
<svg version="1.1" id="Layer_1" xmlns="http://www.w3.org/2000/svg" xmlns:xlink="http://www.w3.org/1999/xlink" x="0px" y="0px"
	 viewBox="0 0 54.72 63.62" style="enable-background:new 0 0 54.72 63.62;" xml:space="preserve">
<style type="text/css">
	.st0{fill:#4F4C4D;}
	.st1{fill:url(#SVGID_1_);}
	.st2{fill:url(#SVGID_00000130635087182644808720000002201370120517118854_);}
	
		.st3{clip-path:url(#SVGID_00000082332705178855106950000017525017305007387798_);fill:url(#SVGID_00000109024904097367822710000013064757076262648222_);}
	
		.st4{clip-path:url(#SVGID_00000082332705178855106950000017525017305007387798_);fill:url(#SVGID_00000171717164888230452690000003810521381638606488_);}
	
		.st5{clip-path:url(#SVGID_00000082332705178855106950000017525017305007387798_);fill:url(#SVGID_00000152259062334037322560000015149433920337070493_);}
	
		.st6{clip-path:url(#SVGID_00000082332705178855106950000017525017305007387798_);fill:url(#SVGID_00000042000709008222756850000016383171191108537766_);}
	
		.st7{clip-path:url(#SVGID_00000082332705178855106950000017525017305007387798_);fill:url(#SVGID_00000106124504377859390470000013116325435464928139_);}
	
		.st8{clip-path:url(#SVGID_00000082332705178855106950000017525017305007387798_);fill:url(#SVGID_00000091009482526503738070000001037699908835908997_);}
	
		.st9{clip-path:url(#SVGID_00000082332705178855106950000017525017305007387798_);fill:url(#SVGID_00000099626173614991120340000012653187286379726236_);}
	
		.st10{clip-path:url(#SVGID_00000082332705178855106950000017525017305007387798_);fill:url(#SVGID_00000164485610116006222970000011373099177636802495_);}
	
		.st11{clip-path:url(#SVGID_00000082332705178855106950000017525017305007387798_);fill:url(#SVGID_00000019652894352410034990000005864519349953439670_);}
	
		.st12{clip-path:url(#SVGID_00000082332705178855106950000017525017305007387798_);fill:url(#SVGID_00000169554750442312634100000011306174893522138300_);}
	
		.st13{clip-path:url(#SVGID_00000082332705178855106950000017525017305007387798_);fill:url(#SVGID_00000065036294920927384350000007795754718301821832_);}
	
		.st14{clip-path:url(#SVGID_00000082332705178855106950000017525017305007387798_);fill:url(#SVGID_00000143585544335787745030000010378720091579779464_);}
	
		.st15{clip-path:url(#SVGID_00000082332705178855106950000017525017305007387798_);fill:url(#SVGID_00000045589941697232085480000006799336975096500647_);}
	
		.st16{clip-path:url(#SVGID_00000082332705178855106950000017525017305007387798_);fill:url(#SVGID_00000138558532655199193530000002439420371100378011_);}
	
		.st17{clip-path:url(#SVGID_00000082332705178855106950000017525017305007387798_);fill:url(#SVGID_00000068674366595315722620000013732380482522690183_);}
	
		.st18{clip-path:url(#SVGID_00000082332705178855106950000017525017305007387798_);fill:url(#SVGID_00000053505488218598882060000001011484964900999586_);}
	.st19{clip-path:url(#SVGID_00000082332705178855106950000017525017305007387798_);}
	.st20{fill:url(#SVGID_00000095303014286084606590000012147391209699480471_);}
	.st21{fill:url(#SVGID_00000161633063627370028750000015736706356927652998_);}
	.st22{fill:url(#SVGID_00000101093152552652811640000015649435796881842838_);}
	.st23{fill:url(#SVGID_00000000903020331160432050000006998452640873281201_);}
	
		.st24{clip-path:url(#SVGID_00000082332705178855106950000017525017305007387798_);fill:url(#SVGID_00000107578704136918453080000003584448183873168303_);}
	
		.st25{clip-path:url(#SVGID_00000082332705178855106950000017525017305007387798_);fill:url(#SVGID_00000065778897773828574490000011625288261554186933_);}
	
		.st26{clip-path:url(#SVGID_00000082332705178855106950000017525017305007387798_);fill:url(#SVGID_00000173877259770305753880000012873154315007804800_);}
	
		.st27{clip-path:url(#SVGID_00000082332705178855106950000017525017305007387798_);fill:url(#SVGID_00000145741255689863526350000001865569961874558398_);}
	
		.st28{clip-path:url(#SVGID_00000082332705178855106950000017525017305007387798_);fill:url(#SVGID_00000182517819333268852710000013718953947926877329_);}
	
		.st29{clip-path:url(#SVGID_00000082332705178855106950000017525017305007387798_);fill:url(#SVGID_00000122700071641759468110000001100340310310667428_);}
	
		.st30{clip-path:url(#SVGID_00000082332705178855106950000017525017305007387798_);fill:url(#SVGID_00000083774156121751570430000002175973794428901565_);}
	
		.st31{clip-path:url(#SVGID_00000082332705178855106950000017525017305007387798_);fill:url(#SVGID_00000034778803298140172520000006954462156407402426_);}
	
		.st32{clip-path:url(#SVGID_00000082332705178855106950000017525017305007387798_);fill:url(#SVGID_00000007390951390060546490000009304938317693478288_);}
	
		.st33{clip-path:url(#SVGID_00000082332705178855106950000017525017305007387798_);fill:url(#SVGID_00000092431504056998572470000012793519159151113357_);}
	
		.st34{clip-path:url(#SVGID_00000082332705178855106950000017525017305007387798_);fill:url(#SVGID_00000100348416044700152520000005476016594209524131_);}
	
		.st35{clip-path:url(#SVGID_00000082332705178855106950000017525017305007387798_);fill:url(#SVGID_00000181078869623801193240000013129331591615847608_);}
	
		.st36{clip-path:url(#SVGID_00000082332705178855106950000017525017305007387798_);fill:url(#SVGID_00000129179439714547649050000000171959130850282379_);}
	
		.st37{clip-path:url(#SVGID_00000082332705178855106950000017525017305007387798_);fill:url(#SVGID_00000182499739372476800650000007366339656033560717_);}
	
		.st38{clip-path:url(#SVGID_00000082332705178855106950000017525017305007387798_);fill:url(#SVGID_00000091731733088344098320000004049960117430023553_);}
	
		.st39{clip-path:url(#SVGID_00000082332705178855106950000017525017305007387798_);fill:url(#SVGID_00000166639778618488261340000007047442249251688839_);}
	.st40{fill:url(#SVGID_00000087405738159964668240000017949409891447865534_);}
	.st41{fill:url(#SVGID_00000063633053745348391170000005210701281489552514_);}
	.st42{fill:url(#SVGID_00000116948899970616479060000003794071150030863255_);}
	.st43{fill:url(#SVGID_00000063616748296263959440000011778694630195902868_);}
	
		.st44{clip-path:url(#SVGID_00000082332705178855106950000017525017305007387798_);fill:url(#SVGID_00000017479774748185802990000017912226329295818938_);}
	
		.st45{clip-path:url(#SVGID_00000082332705178855106950000017525017305007387798_);fill:url(#SVGID_00000140717793558197154090000008474464019164685981_);}
	
		.st46{clip-path:url(#SVGID_00000082332705178855106950000017525017305007387798_);fill:url(#SVGID_00000105404091446673117570000002075932818761779895_);}
	
		.st47{clip-path:url(#SVGID_00000082332705178855106950000017525017305007387798_);fill:url(#SVGID_00000080207598220645234640000008645380822686566031_);}
	
		.st48{clip-path:url(#SVGID_00000082332705178855106950000017525017305007387798_);fill:url(#SVGID_00000086693549294122704760000009744422521101774742_);}
	
		.st49{clip-path:url(#SVGID_00000082332705178855106950000017525017305007387798_);fill:url(#SVGID_00000060738925164519759510000003711564012796455857_);}
	
		.st50{clip-path:url(#SVGID_00000082332705178855106950000017525017305007387798_);fill:url(#SVGID_00000009559546757894415450000009414601273289556413_);}
	
		.st51{clip-path:url(#SVGID_00000082332705178855106950000017525017305007387798_);fill:url(#SVGID_00000016053267018125867930000006001729222474965409_);}
	
		.st52{clip-path:url(#SVGID_00000082332705178855106950000017525017305007387798_);fill:url(#SVGID_00000000190569595686536850000007133677834240999095_);}
	
		.st53{clip-path:url(#SVGID_00000082332705178855106950000017525017305007387798_);fill:url(#SVGID_00000025413391617020322350000013535430176396491169_);}
	
		.st54{clip-path:url(#SVGID_00000082332705178855106950000017525017305007387798_);fill:url(#SVGID_00000158727958723381715360000001765483736252966322_);}
	
		.st55{clip-path:url(#SVGID_00000082332705178855106950000017525017305007387798_);fill:url(#SVGID_00000008853637780969435930000010706688495153890234_);}
	
		.st56{clip-path:url(#SVGID_00000082332705178855106950000017525017305007387798_);fill:url(#SVGID_00000149382417873828416620000006857718981893556409_);}
	
		.st57{clip-path:url(#SVGID_00000082332705178855106950000017525017305007387798_);fill:url(#SVGID_00000021798799410820477250000001135422582081675137_);}
	
		.st58{clip-path:url(#SVGID_00000082332705178855106950000017525017305007387798_);fill:url(#SVGID_00000030464129301731380140000013724157628494026889_);}
	
		.st59{clip-path:url(#SVGID_00000082332705178855106950000017525017305007387798_);fill:url(#SVGID_00000059277823324114361260000009971996257761542023_);}
	.st60{fill:url(#SVGID_00000114055124215323188800000018099801514318676911_);}
	.st61{fill:url(#SVGID_00000044870090748811038420000008641021636660788396_);}
	.st62{fill:url(#SVGID_00000119098802672118385310000010559205685167447473_);}
	.st63{fill:url(#SVGID_00000145738326804060311870000016245099840619622539_);}
	
		.st64{clip-path:url(#SVGID_00000082332705178855106950000017525017305007387798_);fill:url(#SVGID_00000107576631177175313510000013291205737881224340_);}
	
		.st65{clip-path:url(#SVGID_00000082332705178855106950000017525017305007387798_);fill:url(#SVGID_00000108990652763669660310000015689805931659227520_);}
	
		.st66{clip-path:url(#SVGID_00000082332705178855106950000017525017305007387798_);fill:url(#SVGID_00000003062550097595968000000011705172658569555106_);}
	
		.st67{clip-path:url(#SVGID_00000082332705178855106950000017525017305007387798_);fill:url(#SVGID_00000035522338305120597540000000646953542774111894_);}
	
		.st68{clip-path:url(#SVGID_00000082332705178855106950000017525017305007387798_);fill:url(#SVGID_00000116213389168985812550000010034008735555585423_);}
	
		.st69{clip-path:url(#SVGID_00000082332705178855106950000017525017305007387798_);fill:url(#SVGID_00000082355694328733736230000012887444667013307293_);}
	
		.st70{clip-path:url(#SVGID_00000082332705178855106950000017525017305007387798_);fill:url(#SVGID_00000155141528307313078080000001296207687510853281_);}
	
		.st71{clip-path:url(#SVGID_00000082332705178855106950000017525017305007387798_);fill:url(#SVGID_00000045588269345795611900000005025802149980434350_);}
	
		.st72{clip-path:url(#SVGID_00000082332705178855106950000017525017305007387798_);fill:url(#SVGID_00000101060867928932116290000007682073788748516999_);}
	
		.st73{clip-path:url(#SVGID_00000082332705178855106950000017525017305007387798_);fill:url(#SVGID_00000162337329837189970800000015974521387953898422_);}
	
		.st74{clip-path:url(#SVGID_00000082332705178855106950000017525017305007387798_);fill:url(#SVGID_00000084518358455408450820000008592276683629272496_);}
	
		.st75{clip-path:url(#SVGID_00000082332705178855106950000017525017305007387798_);fill:url(#SVGID_00000119102458666728682110000002505934348631198609_);}
	
		.st76{clip-path:url(#SVGID_00000082332705178855106950000017525017305007387798_);fill:url(#SVGID_00000130637668719424702400000002338241020708162469_);}
	
		.st77{clip-path:url(#SVGID_00000082332705178855106950000017525017305007387798_);fill:url(#SVGID_00000183945478161392003800000011230234347356017841_);}
	
		.st78{clip-path:url(#SVGID_00000082332705178855106950000017525017305007387798_);fill:url(#SVGID_00000135687245023616962010000018163459873683540140_);}
	
		.st79{clip-path:url(#SVGID_00000082332705178855106950000017525017305007387798_);fill:url(#SVGID_00000025415088159368287690000008036510015761689476_);}
	.st80{fill:url(#SVGID_00000087407235038223866330000011994686398534005891_);}
	.st81{fill:url(#SVGID_00000134966726472807644190000012333510228629365171_);}
	.st82{fill:url(#SVGID_00000131332604739701798460000012047595573506118279_);}
	.st83{fill:url(#SVGID_00000014636189859588515510000006939577637308551556_);}
	.st84{fill:url(#SVGID_00000181069742844301767100000015099590347295971991_);}
	.st85{fill:url(#SVGID_00000060025921058398329810000004289680710190448293_);}
	.st86{fill:url(#SVGID_00000183945140645718078370000014111328258412290961_);}
	.st87{fill:url(#SVGID_00000104690830830239807220000004173069167147886754_);}
	.st88{fill:url(#SVGID_00000054239973740029089020000014744772894952884362_);}
	.st89{fill:url(#SVGID_00000023960552314038050850000006589187579743977119_);}
	.st90{clip-path:url(#SVGID_00000166669497442618979120000013680858146933602723_);}
	.st91{fill:url(#SVGID_00000084532456389844778370000008527288591243785628_);}
	.st92{fill:url(#SVGID_00000020387968275341949280000002110837178362054574_);}
	.st93{fill:url(#SVGID_00000054983496649493373960000004599158835222190779_);}
	.st94{fill:url(#SVGID_00000007408156194034176170000010850951501170193538_);}
	.st95{fill:url(#SVGID_00000114040929445207131860000014843744738966684077_);}
	.st96{fill:url(#SVGID_00000026855411873843227850000001519678515219121804_);}
	.st97{fill:url(#SVGID_00000157295852144085556450000000983186906021862063_);}
	.st98{fill:none;stroke:#666364;stroke-miterlimit:10;}
	.st99{fill:#666364;}
	.st100{fill:#FFFFFF;}
	.st101{fill:#C1C0C1;}
	.st102{fill:none;stroke:#4F4C4D;stroke-width:0.0179;stroke-miterlimit:10;}
	.st103{fill:#D5D4D5;}
	.st104{clip-path:url(#SVGID_00000044173791183832985780000006991648280284257456_);}
	.st105{fill:none;stroke:#4F4C4D;stroke-width:0.8884;stroke-linecap:round;stroke-linejoin:round;stroke-miterlimit:10;}
	.st106{fill:none;stroke:#4F4C4D;stroke-width:0.8448;stroke-linecap:round;stroke-linejoin:round;stroke-miterlimit:10;}
	.st107{fill:none;stroke:#4F4C4D;stroke-width:0.9746;stroke-linecap:round;stroke-linejoin:round;stroke-miterlimit:10;}
	.st108{fill:none;stroke:#4F4C4D;stroke-width:0.8608;stroke-linecap:round;stroke-linejoin:round;stroke-miterlimit:10;}
	
		.st109{fill:none;stroke:#4F4C4D;stroke-width:0.8608;stroke-linecap:round;stroke-linejoin:round;stroke-miterlimit:10;stroke-dasharray:1.0632;}
	.st110{fill:none;stroke:#4F4C4D;stroke-width:0.9757;stroke-linecap:round;stroke-linejoin:round;stroke-miterlimit:10;}
	.st111{fill:none;stroke:#4F4C4D;stroke-width:1.1046;stroke-linecap:round;stroke-linejoin:round;stroke-miterlimit:10;}
	.st112{fill:none;stroke:#4F4C4D;stroke-width:1.0333;stroke-linecap:round;stroke-linejoin:round;stroke-miterlimit:10;}
	
		.st113{fill:none;stroke:#4F4C4D;stroke-width:1.0333;stroke-linecap:round;stroke-linejoin:round;stroke-miterlimit:10;stroke-dasharray:1.2;}
	.st114{fill:none;stroke:#4F4C4D;stroke-linecap:round;stroke-linejoin:round;stroke-miterlimit:10;}
	.st115{fill:none;stroke:#4F4C4D;stroke-linecap:round;stroke-linejoin:round;stroke-miterlimit:10;stroke-dasharray:1.0878;}
</style>
<g>
	<g>
		<path class="st0" d="M27.36,60.49L2.69,46.25V17.76L27.36,3.52l24.67,14.24v28.48L27.36,60.49z M4.53,45.18l22.83,13.18
			l22.83-13.18V18.83L27.36,5.65L4.53,18.83V45.18z"/>
	</g>
</g>
<g>
	<g>
		<path class="st0" d="M28.48,28.88c0.26,0.03,0.51,0.06,0.77,0.1c0.76,0.11,1.52,0.21,2.27,0.33c1.49,0.24,2.95,0.57,4.4,1.01
			c0.91,0.28,1.8,0.6,2.66,1.01c0.83,0.4,1.63,0.85,2.31,1.49c0.62,0.59,1.09,1.27,1.26,2.12c0.08,0.42,0.06,0.83,0.02,1.25
			c-0.11,1.07-0.35,2.12-0.75,3.12c-0.29,0.73-0.64,1.44-1.06,2.11c-0.37,0.59-0.77,1.15-1.21,1.67c-0.57,0.68-1.19,1.31-1.89,1.86
			c-0.41,0.33-0.84,0.64-1.27,0.97c0.27,1.02,0.54,2.06,0.81,3.09c0.15,0.57,0.3,1.13,0.44,1.7c0.1,0.4,0.07,0.47-0.29,0.67
			c-0.77,0.42-1.57,0.76-2.41,1.01c-0.98,0.29-1.97,0.49-2.99,0.57c-1.08,0.08-2.14,0.05-3.21-0.12c-1.38-0.22-2.68-0.64-3.94-1.23
			c-1.04-0.49-2.01-1.09-2.94-1.77c-0.2-0.15-0.3-0.3-0.26-0.56c0.1-0.68,0.17-1.36,0.25-2.03c0.08-0.64,0.15-1.29,0.22-1.93
			c0.08-0.64,0.16-1.29,0.23-1.93c0.02-0.15,0.03-0.31,0.05-0.46c0.02-0.12-0.02-0.2-0.12-0.28c-1.25-1-2.27-2.21-3.05-3.61
			c-0.61-1.1-1.02-2.27-1.19-3.53c-0.09-0.62-0.15-1.25-0.08-1.88c0.02-0.21-0.07-0.33-0.21-0.45c-1.42-1.24-2.39-2.78-3.05-4.54
			c-0.38-1.01-0.63-2.05-0.76-3.12c-0.1-0.81-0.14-1.61-0.11-2.42c0.08-2,0.52-3.92,1.43-5.72c0.56-1.12,1.28-2.13,2.19-2.99
			c1.06-0.99,2.27-1.71,3.7-2.02c0.42-0.09,0.85-0.12,1.28-0.16c0.39-0.03,0.78-0.05,1.17-0.04c0.88,0.02,1.73,0.19,2.55,0.52
			c1.17,0.47,2.1,1.23,2.79,2.28c0.46,0.71,0.73,1.5,0.9,2.33c0.28,1.37,0.33,2.76,0.28,4.15c-0.05,1.56-0.22,3.1-0.5,4.63
			c-0.17,0.92-0.36,1.83-0.68,2.71C28.49,28.83,28.49,28.85,28.48,28.88z M19.42,32.23c0.21-0.08,0.41-0.16,0.6-0.24
			c2.46-0.99,4.92-1.98,7.38-2.96c0.24-0.09,0.37-0.23,0.45-0.47c0.27-0.78,0.46-1.58,0.6-2.39c0.13-0.78,0.26-1.55,0.34-2.34
			c0.09-0.91,0.17-1.83,0.2-2.75c0.02-0.71-0.03-1.42-0.07-2.13c-0.03-0.7-0.15-1.38-0.34-2.06c-0.4-1.44-1.24-2.55-2.55-3.27
			c-0.73-0.4-1.51-0.61-2.33-0.71c-0.17-0.02-0.33,0-0.48,0.09c-0.74,0.4-1.42,0.88-2.03,1.47c-1.29,1.25-2.21,2.74-2.85,4.42
			c-0.72,1.9-1.04,3.87-0.99,5.9c0.02,0.75,0.07,1.49,0.19,2.23c0.26,1.62,0.76,3.16,1.53,4.6C19.18,31.82,19.3,32.02,19.42,32.23z
			 M40.78,39.06c-0.01-0.01-0.02-0.02-0.04-0.02c-0.03,0.02-0.07,0.04-0.1,0.06c-0.25,0.15-0.49,0.32-0.75,0.46
			c-0.96,0.52-1.98,0.86-3.04,1.1c-1.17,0.27-2.36,0.41-3.56,0.47c-1.06,0.06-2.11,0.03-3.15-0.11c-0.9-0.12-1.79-0.29-2.67-0.5
			c-2.09-0.5-4.07-1.27-5.91-2.39c-0.95-0.58-1.84-1.25-2.62-2.05c-0.23-0.23-0.45-0.48-0.68-0.72c0.01,0.09,0.02,0.16,0.02,0.23
			c0,0.01,0.01,0.03,0.01,0.04c0.19,1.05,0.53,2.05,1.04,2.99c0.78,1.44,1.82,2.65,3.12,3.65c0.19,0.14,0.25,0.3,0.22,0.52
			c-0.06,0.41-0.1,0.83-0.15,1.24c-0.06,0.53-0.13,1.07-0.19,1.6c-0.08,0.65-0.15,1.3-0.23,1.95c-0.06,0.52-0.12,1.04-0.19,1.56
			c-0.02,0.13,0.01,0.2,0.12,0.28c1.13,0.83,2.34,1.51,3.65,2.02c1.31,0.51,2.67,0.81,4.07,0.88c0.84,0.05,1.69,0.01,2.53-0.11
			c1.37-0.2,2.68-0.59,3.93-1.19c0.12-0.06,0.23-0.12,0.35-0.19c-0.41-1.56-0.81-3.1-1.22-4.64c-0.93,0.25-1.84,0.43-2.76,0.51
			c-0.78,0.07-1.56,0.07-2.34-0.02c-0.97-0.12-1.9-0.36-2.78-0.79c-0.48-0.24-0.96-0.49-1.34-0.88c-0.16-0.15-0.17-0.34-0.05-0.48
			c0.13-0.15,0.3-0.16,0.49-0.02c0.13,0.1,0.25,0.21,0.38,0.29c1.19,0.78,2.51,1.14,3.9,1.23c1.29,0.08,2.56-0.09,3.82-0.38
			c0.59-0.14,1.11-0.39,1.59-0.76c0.72-0.56,1.4-1.15,2.01-1.83c0.89-0.98,1.63-2.05,2.2-3.25C40.56,39.58,40.67,39.32,40.78,39.06z
			 M32.59,39.16c0.36-0.02,1.08-0.05,1.79-0.13c1.31-0.14,2.6-0.44,3.83-0.93c1.05-0.41,2.04-0.95,2.89-1.7
			c0.34-0.3,0.49-0.66,0.37-1.12c-0.26-0.98-0.84-1.73-1.62-2.35c-0.76-0.6-1.61-1.02-2.51-1.37c-0.87-0.33-1.76-0.57-2.67-0.77
			c-0.88-0.19-1.76-0.34-2.66-0.43c-0.62-0.06-1.24-0.12-1.85-0.16c-0.47-0.03-0.95-0.05-1.42-0.07c-0.32-0.01-0.64,0.03-0.94,0.16
			c-0.89,0.38-1.78,0.77-2.67,1.15c-1.62,0.7-3.24,1.4-4.87,2.08c-0.36,0.15-0.58,0.63-0.23,1.01c0.43,0.46,0.89,0.88,1.39,1.27
			c1.12,0.85,2.35,1.51,3.65,2.02C27.38,38.73,29.77,39.14,32.59,39.16z M18.77,32.49c-0.16-0.28-0.3-0.53-0.44-0.8
			c-1.12-2.19-1.63-4.53-1.69-6.97c-0.02-0.93,0.05-1.85,0.19-2.77c0.22-1.49,0.63-2.92,1.27-4.27c0.88-1.87,2.09-3.48,3.8-4.68
			c0.02-0.02,0.04-0.04,0.06-0.06c-0.01-0.02-0.02-0.03-0.02-0.05c-0.16,0.04-0.35,0.06-0.49,0.14c-0.58,0.32-1.11,0.72-1.61,1.17
			c-1.29,1.18-2.25,2.59-2.93,4.19c-0.61,1.42-0.99,2.9-1.15,4.44c-0.09,0.9-0.1,1.8-0.06,2.7c0.05,0.92,0.19,1.83,0.41,2.73
			c0.38,1.54,0.97,3,1.83,4.33c0.04,0.07,0.09,0.13,0.14,0.21C18.32,32.68,18.54,32.59,18.77,32.49z M41.32,37.19
			c-0.49,0.31-0.96,0.64-1.46,0.91c-1.99,1.09-4.15,1.56-6.39,1.71c-0.71,0.05-1.42,0.02-2.13,0.01c-0.87-0.01-1.73-0.12-2.58-0.26
			c-1.71-0.29-3.36-0.77-4.93-1.5c-1.61-0.75-3.07-1.7-4.28-3.02c-0.65-0.71-0.45-1.73,0.43-2.11c1.43-0.62,2.86-1.23,4.29-1.84
			c0.16-0.07,0.31-0.13,0.47-0.2c-0.05-0.01-0.1,0-0.14,0.02c-1.2,0.48-2.39,0.97-3.59,1.45c-0.87,0.35-1.73,0.7-2.6,1.05
			c-0.07,0.03-0.18,0.07-0.18,0.11c-0.01,0.23-0.1,0.45,0.06,0.68c0.58,0.87,1.29,1.61,2.1,2.26c1.15,0.93,2.43,1.67,3.79,2.25
			c2.4,1.02,4.88,1.63,7.49,1.75c0.85,0.04,1.7,0,2.55-0.07c0.88-0.07,1.74-0.21,2.6-0.41c0.87-0.21,1.72-0.48,2.52-0.88
			c0.59-0.29,1.14-0.65,1.58-1.16C41.1,37.71,41.28,37.49,41.32,37.19z M16.41,31.21c-0.02-0.04-0.03-0.07-0.05-0.11
			c-0.02-0.04-0.04-0.09-0.06-0.13c-0.76-1.73-1.17-3.55-1.29-5.43c-0.07-1.21-0.03-2.43,0.17-3.63c0.22-1.35,0.58-2.65,1.14-3.9
			c0.66-1.48,1.53-2.82,2.68-3.97c0.18-0.17,0.36-0.34,0.54-0.51c-0.53,0.21-1,0.51-1.45,0.86c-1.33,1.05-2.28,2.38-2.95,3.93
			c-0.62,1.43-0.95,2.92-1.06,4.48c-0.06,0.96-0.02,1.91,0.11,2.86c0.18,1.31,0.55,2.57,1.13,3.77
			C15.62,30.05,15.98,30.65,16.41,31.21z"/>
		<path class="st0" d="M38.57,22.02c0.12-0.01,0.21,0.11,0.28,0.26c0.21,0.48,0.44,0.95,0.64,1.43c0.08,0.2,0.2,0.33,0.4,0.42
			c0.51,0.24,1,0.5,1.5,0.74c0.15,0.07,0.26,0.17,0.26,0.34c0,0.17-0.11,0.27-0.26,0.35c-0.52,0.27-1.04,0.54-1.56,0.8
			c-0.11,0.05-0.17,0.13-0.22,0.23c-0.23,0.5-0.47,1-0.7,1.5c-0.03,0.06-0.06,0.13-0.09,0.19c-0.07,0.12-0.17,0.21-0.32,0.2
			c-0.15-0.01-0.26-0.09-0.32-0.23c-0.13-0.32-0.25-0.64-0.38-0.95c-0.09-0.23-0.19-0.46-0.27-0.7c-0.05-0.16-0.15-0.25-0.31-0.31
			c-0.5-0.21-0.99-0.43-1.48-0.64c-0.06-0.03-0.11-0.05-0.17-0.08c-0.14-0.06-0.21-0.18-0.21-0.33c0-0.15,0.08-0.25,0.21-0.31
			c0.29-0.13,0.59-0.26,0.88-0.39c0.28-0.12,0.56-0.25,0.84-0.37c0.11-0.04,0.16-0.11,0.2-0.22c0.22-0.56,0.44-1.12,0.66-1.67
			C38.23,22.13,38.33,22.03,38.57,22.02z M36.57,25.25c0.08,0.04,0.12,0.06,0.17,0.09c0.31,0.14,0.62,0.29,0.94,0.41
			c0.22,0.08,0.35,0.22,0.43,0.44c0.13,0.35,0.27,0.7,0.42,1.08c0.19-0.4,0.37-0.77,0.54-1.14c0.06-0.13,0.14-0.22,0.27-0.28
			c0.34-0.17,0.68-0.35,1.02-0.53c0.05-0.03,0.1-0.06,0.17-0.1c-0.42-0.21-0.82-0.42-1.22-0.61c-0.15-0.07-0.24-0.17-0.31-0.32
			c-0.14-0.34-0.3-0.67-0.47-1.04c-0.15,0.37-0.29,0.7-0.41,1.04c-0.08,0.25-0.23,0.39-0.47,0.49
			C37.29,24.92,36.95,25.08,36.57,25.25z"/>
		<path class="st0" d="M34.72,16.7c0.25,0,0.34,0.11,0.41,0.26c0.23,0.52,0.47,1.03,0.7,1.54c0.05,0.11,0.12,0.19,0.23,0.25
			c0.55,0.27,1.1,0.55,1.65,0.82c0.14,0.07,0.23,0.17,0.23,0.32c0,0.15-0.08,0.26-0.22,0.33c-0.48,0.25-0.97,0.5-1.45,0.74
			c-0.2,0.1-0.35,0.22-0.44,0.44c-0.21,0.51-0.46,1-0.69,1.5c-0.07,0.15-0.17,0.27-0.34,0.26c-0.18,0-0.28-0.12-0.35-0.28
			c-0.21-0.55-0.44-1.1-0.65-1.65c-0.04-0.11-0.11-0.18-0.22-0.23c-0.54-0.23-1.09-0.47-1.63-0.71c-0.07-0.03-0.14-0.06-0.2-0.11
			c-0.19-0.18-0.12-0.45,0.14-0.57c0.43-0.19,0.86-0.41,1.3-0.57c0.39-0.14,0.63-0.36,0.75-0.77c0.13-0.45,0.33-0.87,0.51-1.31
			C34.51,16.81,34.61,16.71,34.72,16.7z M36.83,19.91c-0.39-0.19-0.74-0.39-1.11-0.55c-0.26-0.12-0.42-0.3-0.52-0.56
			c-0.11-0.28-0.25-0.55-0.39-0.86c-0.03,0.06-0.05,0.09-0.06,0.13c-0.14,0.35-0.28,0.7-0.41,1.05c-0.05,0.13-0.13,0.22-0.27,0.27
			c-0.34,0.14-0.68,0.29-1.01,0.44c-0.06,0.03-0.11,0.06-0.2,0.1c0.41,0.18,0.77,0.35,1.15,0.5c0.18,0.07,0.29,0.19,0.36,0.37
			c0.14,0.37,0.29,0.73,0.45,1.14c0.18-0.39,0.35-0.73,0.5-1.08c0.07-0.17,0.18-0.28,0.35-0.37C36.05,20.33,36.42,20.12,36.83,19.91
			z"/>
		<path class="st0" d="M34.71,24.58c-0.02,0.15-0.1,0.25-0.24,0.32c-0.28,0.14-0.55,0.29-0.84,0.43c-0.12,0.06-0.2,0.14-0.25,0.26
			c-0.13,0.28-0.26,0.55-0.39,0.83c-0.07,0.16-0.17,0.27-0.36,0.27c-0.19-0.01-0.28-0.13-0.34-0.3c-0.1-0.28-0.23-0.56-0.32-0.84
			c-0.05-0.13-0.12-0.2-0.25-0.26c-0.29-0.12-0.57-0.25-0.86-0.37c-0.16-0.07-0.26-0.17-0.26-0.34c0-0.17,0.1-0.28,0.26-0.34
			c0.3-0.12,0.59-0.26,0.88-0.38c0.12-0.05,0.19-0.13,0.23-0.25c0.1-0.28,0.22-0.56,0.33-0.84c0.06-0.16,0.15-0.29,0.34-0.29
			c0.19-0.01,0.29,0.11,0.36,0.26c0.12,0.27,0.25,0.54,0.37,0.82c0.04,0.1,0.1,0.17,0.21,0.22c0.3,0.15,0.6,0.3,0.9,0.45
			C34.61,24.31,34.7,24.42,34.71,24.58z M31.84,24.6c0.13,0.06,0.26,0.13,0.39,0.18c0.15,0.06,0.24,0.16,0.29,0.3
			c0.04,0.12,0.1,0.24,0.16,0.39c0.06-0.12,0.1-0.2,0.13-0.29c0.07-0.2,0.2-0.34,0.4-0.42c0.12-0.05,0.24-0.12,0.38-0.19
			c-0.22-0.11-0.43-0.18-0.58-0.31c-0.15-0.13-0.23-0.33-0.37-0.53C32.58,24.22,32.27,24.46,31.84,24.6z"/>
		<path class="st0" d="M30.61,32.14c1.69,0.03,3.36,0.22,4.97,0.75c0.7,0.23,1.37,0.52,1.94,1.01c0.18,0.15,0.34,0.33,0.47,0.53
			c0.35,0.55,0.28,1.17-0.16,1.66c-0.38,0.41-0.86,0.67-1.37,0.87c-0.7,0.28-1.42,0.44-2.16,0.55c-0.91,0.13-1.82,0.19-2.73,0.16
			c-1.58-0.05-3.14-0.24-4.65-0.75c-0.66-0.22-1.29-0.5-1.83-0.94c-0.3-0.25-0.56-0.53-0.67-0.91c-0.16-0.52-0.01-0.96,0.35-1.35
			c0.42-0.45,0.96-0.71,1.53-0.91c0.84-0.3,1.7-0.47,2.59-0.55C29.45,32.21,30.03,32.18,30.61,32.14z M30.37,32.85
			c-0.64-0.01-1.53,0.06-2.42,0.22c-0.73,0.13-1.44,0.32-2.1,0.67c-0.25,0.13-0.47,0.29-0.65,0.51c-0.2,0.25-0.23,0.51-0.05,0.77
			c0.11,0.16,0.26,0.32,0.41,0.44c0.47,0.38,1.03,0.61,1.6,0.81c1.46,0.5,2.97,0.67,4.5,0.71c1.02,0.03,2.03-0.05,3.04-0.25
			c0.7-0.13,1.39-0.31,2.01-0.67c0.23-0.13,0.44-0.3,0.62-0.49c0.23-0.24,0.24-0.52,0.06-0.81c-0.14-0.23-0.35-0.39-0.57-0.54
			c-0.55-0.37-1.16-0.61-1.79-0.79C33.6,33.02,32.13,32.86,30.37,32.85z"/>
	</g>
</g>
</svg>
