<?xml version="1.0" encoding="utf-8"?>
<!-- Generator: Adobe Illustrator 27.4.1, SVG Export Plug-In . SVG Version: 6.00 Build 0)  -->
<svg version="1.1" id="Layer_1" xmlns="http://www.w3.org/2000/svg" xmlns:xlink="http://www.w3.org/1999/xlink" x="0px" y="0px"
	 viewBox="0 0 375.4 375.4" style="enable-background:new 0 0 375.4 375.4;" xml:space="preserve">
<style type="text/css">
	.st0{fill:#FFFFFF;}
	.st1{fill:url(#SVGID_1_);}
	.st2{fill:url(#SVGID_00000137839147596718194750000005953450460360264627_);}
	.st3{fill:url(#SVGID_00000181068069791670227320000016923842445265810074_);}
	.st4{fill:#00A651;}
	.st5{fill:#ED1C2E;}
	.st6{fill:#00B5F0;}
</style>
<circle class="st0" cx="188" cy="187.9" r="174"/>
<g>
	<g>
		<path class="st5" d="M187.7,181.3c-15.5,0-28.1-12.6-28.1-28.1c0-15.5,12.6-28.1,28.1-28.1s28.1,12.6,28.1,28.1
			C215.8,168.7,203.2,181.3,187.7,181.3"/>
		<path class="st6" d="M277.7,148.7V77.7c0-10.2-8.3-18.5-18.5-18.5h-67v1.7h0v38.5c3.1,0.3,6.1,0.8,9,1.5V68.2h56.3
			c6.2,0,11.2,5,11.2,11.2v60.2h-38.2c-5.8-18.2-22.8-31.5-42.9-31.5c-20.1,0-37.2,13.3-42.9,31.5h-38.2V79.5
			c0-6.2,5-11.2,11.2-11.2h56.3V101c2.9-0.7,5.9-1.3,9-1.5V68.2v-9h-67c-10.2,0-18.5,8.3-18.5,18.5v70.9h0.1h8.8H152v-0.1
			c2.3-17.7,17.4-31.4,35.7-31.4c18.3,0,33.4,13.7,35.7,31.4v0.1H277.7z"/>
		<path class="st6" d="M277.7,157.7V175c0,23.2-11,44.3-29.7,57.6l-4.2,2.8l-42.6,26v0l-9,5.5v-59.9c3.1-0.2,6.1-0.8,9-1.5v45.4
			l38-23.2c18.5-11.3,29.5-31,29.5-52.6v-8.3h-38.2c-5.8,18.2-22.8,31.5-42.9,31.5c-20.1,0-37.1-13.3-42.9-31.5h-38.2v8.3
			c0,21.6,11,41.3,29.5,52.6l4.9,3v0l33.1,20.2v-45.4c2.9,0.7,5.9,1.3,9,1.5v59.9l-6.5-4v0.1l-49.9-30.7
			c-18.4-13.3-29.1-34.2-29.1-57.1v-17.3H152v0c2.2,17.7,17.4,31.5,35.7,31.5c18.3,0,33.5-13.7,35.7-31.5L277.7,157.7z"/>
		<path class="st6" d="M158.7,308.9l2.9-3.4c1.7,1.4,3.7,2.3,5.9,2.3c2.1,0,3.1-0.8,3.1-1.9c0-1.6-1.3-2-3.4-2.8l-2.9-1.2
			c-2.4-0.9-4.7-2.8-4.7-6c0-3.7,3.3-6.6,8.1-6.6c2.7,0,5.3,1,7.3,2.9l-2.5,3.1c-1.6-1.1-2.9-1.7-5.1-1.7c-1.6,0-2.8,0.7-2.8,2
			c0,1.3,1.5,1.8,3.6,2.6l2.7,1.1c2.9,1.1,4.7,2.9,4.7,6c0,3.7-3.1,6.8-8.5,6.8C164.1,312.1,161,311,158.7,308.9"/>
		<polygon class="st6" points="179.5,289.6 184.5,289.6 184.5,298.1 190.5,298.1 190.5,289.6 195.5,289.6 195.5,311.7 190.5,311.7 
			190.5,302.5 184.5,302.5 184.5,311.7 179.5,311.7 		"/>
		<polygon class="st6" points="200.1,307.5 205.3,307.5 205.3,293.8 200.1,293.8 200.1,289.6 215.4,289.6 215.4,293.8 210.3,293.8 
			210.3,307.5 215.4,307.5 215.4,311.7 200.1,311.7 		"/>
		<polygon class="st6" points="221.1,289.6 235.7,289.6 235.7,293.8 226.1,293.8 226.1,298.2 234.2,298.2 234.2,302.4 226.1,302.4 
			226.1,307.5 236,307.5 236,311.7 221.1,311.7 		"/>
		<polygon class="st6" points="241.9,289.6 246.9,289.6 246.9,307.5 256.7,307.5 256.7,311.7 241.9,311.7 		"/>
		<path class="st6" d="M261,289.6h6.1c6.4,0,10.6,3.3,10.6,10.9c0,7.6-4.2,11.1-10.3,11.1H261V289.6z M266.8,307.7
			c3.4,0,5.8-1.8,5.8-7.1c0-5.3-2.3-6.9-5.8-6.9H266v14H266.8z"/>
		<polygon class="st6" points="97.7,316.1 100.1,316.1 100.1,324.8 104.9,324.8 104.9,326.8 97.7,326.8 		"/>
		<path class="st6" d="M114.8,316.1h2.9l3.3,10.7h-2.6l-1.4-5.4c-0.3-1.1-0.6-2.3-0.9-3.4h-0.1c-0.3,1.1-0.6,2.4-0.8,3.4l-1.4,5.4
			h-2.5L114.8,316.1z M113.7,322.4h5.1v1.9h-5.1V322.4z"/>
		<path class="st6" d="M128,316.1h3.6c2.2,0,3.9,0.6,3.9,2.6c0,1-0.6,2-1.8,2.3v0.1c1.5,0.3,2.3,1.1,2.3,2.5c0,2.2-1.8,3.1-4.1,3.1
			H128V316.1z M131.5,320.4c1.2,0,1.7-0.5,1.7-1.3c0-0.8-0.5-1.1-1.6-1.1h-1.1v2.4H131.5z M131.7,324.9c1.3,0,1.9-0.5,1.9-1.4
			c0-0.9-0.6-1.3-1.9-1.3h-1.3v2.8H131.7z"/>
		<path class="st6" d="M142.8,321.4c0-3.6,1.7-5.5,4.3-5.5c2.5,0,4.3,1.9,4.3,5.5c0,3.7-1.8,5.6-4.3,5.6
			C144.5,327,142.8,325.1,142.8,321.4 M148.9,321.4c0-2.2-0.7-3.4-1.8-3.4c-1.1,0-1.8,1.2-1.8,3.4c0,2.3,0.7,3.5,1.8,3.5
			C148.2,324.9,148.9,323.7,148.9,321.4"/>
		<path class="st6" d="M158.7,316.1h3.8c2.3,0,4.1,0.8,4.1,3.3c0,2.5-1.9,3.5-4.1,3.5h-1.4v3.8h-2.4V316.1z M162.3,321.1
			c1.3,0,2-0.5,2-1.6c0-1.1-0.7-1.4-2-1.4h-1.2v3H162.3z M163.7,320.8l3.4,6h-2.7l-2.4-4.5L163.7,320.8z"/>
		<path class="st6" d="M176.4,316.1h2.9l3.3,10.7h-2.6l-1.4-5.4c-0.3-1.1-0.6-2.3-0.9-3.4h-0.1c-0.3,1.1-0.6,2.4-0.8,3.4l-1.4,5.4
			h-2.5L176.4,316.1z M175.3,322.4h5.1v1.9h-5.1V322.4z"/>
		<polygon class="st6" points="192,318.2 188.8,318.2 188.8,316.1 197.7,316.1 197.7,318.2 194.5,318.2 194.5,326.8 192,326.8 		"/>
		<path class="st6" d="M204.3,321.4c0-3.6,1.7-5.5,4.3-5.5c2.5,0,4.3,1.9,4.3,5.5c0,3.7-1.8,5.6-4.3,5.6
			C206.1,327,204.3,325.1,204.3,321.4 M210.5,321.4c0-2.2-0.7-3.4-1.8-3.4c-1.1,0-1.8,1.2-1.8,3.4c0,2.3,0.7,3.5,1.8,3.5
			C209.8,324.9,210.5,323.7,210.5,321.4"/>
		<path class="st6" d="M220.3,316.1h3.8c2.3,0,4.1,0.8,4.1,3.3c0,2.5-1.9,3.5-4.1,3.5h-1.4v3.8h-2.4V316.1z M223.9,321.1
			c1.3,0,2-0.5,2-1.6c0-1.1-0.7-1.4-2-1.4h-1.2v3H223.9z M225.3,320.8l3.4,6H226l-2.4-4.5L225.3,320.8z"/>
		<polygon class="st6" points="235.7,324.8 238.2,324.8 238.2,318.2 235.7,318.2 235.7,316.1 243.1,316.1 243.1,318.2 240.6,318.2 
			240.6,324.8 243.1,324.8 243.1,326.8 235.7,326.8 		"/>
		<polygon class="st6" points="251.4,316.1 258.5,316.1 258.5,318.2 253.8,318.2 253.8,320.3 257.8,320.3 257.8,322.3 253.8,322.3 
			253.8,324.8 258.7,324.8 258.7,326.8 251.4,326.8 		"/>
		<path class="st6" d="M266.1,325.5l1.4-1.7c0.8,0.7,1.8,1.1,2.8,1.1c1,0,1.5-0.4,1.5-0.9c0-0.8-0.6-1-1.6-1.4l-1.4-0.6
			c-1.2-0.4-2.3-1.4-2.3-2.9c0-1.8,1.6-3.2,3.9-3.2c1.3,0,2.6,0.5,3.5,1.4l-1.2,1.5c-0.8-0.5-1.4-0.8-2.5-0.8c-0.8,0-1.3,0.3-1.3,1
			c0,0.6,0.7,0.9,1.7,1.3l1.3,0.6c1.4,0.5,2.3,1.4,2.3,2.9c0,1.8-1.5,3.3-4.1,3.3C268.7,327,267.2,326.5,266.1,325.5"/>
	</g>
	<g>
		<path class="st6" d="M97.9,288.7h6.1c6.4,0,10.6,3.3,10.6,10.9c0,7.6-4.2,11.1-10.3,11.1h-6.4V288.7z M103.7,306.7
			c3.4,0,5.8-1.8,5.8-7.1c0-5.3-2.3-6.9-5.8-6.9h-0.8v14H103.7z M119.7,310.7h5V302c1.4-3,3.6-4.1,5.7-4.1c1.2,0,1.9,0.2,3,0.5
			l1-4.2c-1-0.4-1.8-0.7-3.2-0.7c-2.7,0-5.2,1.3-6.8,4.1h-0.1l-0.4-3.7h-4.1V310.7z"/>
		<path class="st5" d="M136.2,307.2c0,2.2,1.6,4,3.9,4c2.3,0,3.9-1.7,3.9-4c0-2.2-1.6-4-3.9-4C137.8,303.2,136.2,305,136.2,307.2"/>
	</g>
</g>
</svg>
