<?xml version="1.0" encoding="utf-8"?>
<!-- Generator: Adobe Illustrator 23.0.6, SVG Export Plug-In . SVG Version: 6.00 Build 0)  -->
<svg version="1.1" id="Layer_1" xmlns="http://www.w3.org/2000/svg" xmlns:xlink="http://www.w3.org/1999/xlink" x="0px" y="0px"
	 viewBox="0 0 305.8 190.7" style="enable-background:new 0 0 305.8 190.7;" xml:space="preserve">
<style type="text/css">
	.st0{fill:url(#SVGID_1_);}
	.st1{fill:url(#SVGID_2_);}
	.st2{fill:url(#SVGID_3_);}
	.st3{fill:#00A651;}
</style>
<linearGradient id="SVGID_1_" gradientUnits="userSpaceOnUse" x1="68.2111" y1="-363.8722" x2="297.7111" y2="-363.8722" gradientTransform="matrix(1 0 0 -1 0 -270.4445)">
	<stop  offset="0.1862" style="stop-color:#005C9A"/>
	<stop  offset="0.3124" style="stop-color:#0676B1"/>
	<stop  offset="0.4987" style="stop-color:#0E95CC"/>
	<stop  offset="0.6792" style="stop-color:#13ACE0"/>
	<stop  offset="0.8498" style="stop-color:#16BAEC"/>
	<stop  offset="1" style="stop-color:#17BFF0"/>
</linearGradient>
<path class="st0" d="M125.6,60.6H98.9c-6.2,0-8.4,2.2-8.4,9.6v12.7h34c1.4,0,2.6,1.3,2.6,2.8v13.4c0,1.6-1.2,2.8-2.6,2.8h-34V143
	c0,1.6-1.2,2.8-2.6,2.8H70.8c-1.4,0-2.6-1.3-2.6-2.8V70.2c0-25.6,15.1-30.1,32.1-30.1c14.2,0,20.8,1.1,25.4,1.8
	c1.8,0.3,2.6,1,2.6,2.8v13.1C128.2,59.4,127,60.6,125.6,60.6z M171.6,147.1c-10.4,0-18.1-1.3-24.8-3.1c-1.3-0.4-2.6-1.3-2.6-2.8
	v-13.8c0-2,1.1-2.7,2.4-2.7c0.1,0,0.3,0,0.4,0c5.4,0.6,19.9,1.7,25,1.7c9.1,0,11.7-3.1,11.7-9.9c0-4.1-1.8-6.3-8.7-10.7l-18.1-11.6
	c-12.2-7.8-15.5-16.6-15.5-26.9c0-15.5,8.1-27.5,33.6-27.5c9.6,0,22.9,1.7,27.9,3.1c1.1,0.3,2,1,2,2.5v14.4c0,1.3-0.5,2.4-2.2,2.4
	c0,0-0.1,0-0.3,0c-3.7-0.3-18.9-1.6-27.9-1.6c-7.5,0-10.2,2.4-10.2,7.5c0,3.9,1.7,5.8,8.8,9.9l16.8,9.7
	c13.7,7.9,17.7,17.2,17.7,28.6C207.5,131.2,198.2,147.1,171.6,147.1z M295.6,145.9h-20.1c-1.5,0-2-1.4-2.6-2.8l-17.6-35.6l-1.5,0.1
	c-2.8,0-6.8-0.3-9.3-0.3v35.8c0,1.6-1.2,2.8-2.6,2.8h-17.1c-1.4,0-2.6-1.3-2.6-2.8V48.6c0-4.8,1.8-6.1,5.9-6.8
	c6-1,17.2-1.8,26.7-1.8c22.3,0,39.6,8,39.6,33v1.8c0,14.9-7.4,24.1-17,28.2l19.9,39.7c0.3,0.6,0.4,1.1,0.4,1.6
	C297.6,145.1,297.1,145.9,295.6,145.9z M272,72.9c0-8.6-6.2-12.5-17.2-12.5c-1.8,0-8.7,0.3-10.2,0.4v27c1.5,0.1,7.9,0.3,9.3,0.3
	c13.8,0,18.1-3.8,18.1-13.4L272,72.9L272,72.9z"/>
<linearGradient id="SVGID_2_" gradientUnits="userSpaceOnUse" x1="12.8111" y1="-345.7722" x2="64.4111" y2="-345.7722" gradientTransform="matrix(1 0 0 -1 0 -270.4445)">
	<stop  offset="0.1862" style="stop-color:#009444"/>
	<stop  offset="0.3221" style="stop-color:#109D46"/>
	<stop  offset="0.5656" style="stop-color:#27AA48"/>
	<stop  offset="0.7965" style="stop-color:#34B24A"/>
	<stop  offset="1" style="stop-color:#39B54A"/>
</linearGradient>
<path class="st1" d="M34,112.3c0.1,0.1,0.1,0.1,0.2,0.2c4.8,3.8,5.4,4.3,9.7,6.8c5.2,2.7,5.8,3,10,4.5c5.3,1.6,5.8,1.8,9.6,2.5
	l0.9,0.1c-6.9-1.2-13.2-3.9-18.3-8.2C34.3,107.9,32.9,91.4,41,76.1c7.1-14.1,6.2-18.3,4.7-21.4c-0.4-0.4-0.9-0.9-1.4-1.2
	C44,53.4,36.9,50,28.2,63.7C18.9,81.4,20.4,100.4,34,112.3z M15.5,84c2,5.5,2.4,6.7,5.1,11.8c1.3,2.1,3,4.8,4.5,6.8l1.5,1.8
	c-9.9-12.1-10.1-29.1-1.7-45.1c7.8-14.8,9.7-18.9,8.8-22.9c-0.3-0.3-0.6-0.7-0.9-0.8c0,0-5.6-2-13.8,11.7c-5,9.4-6.9,19.3-5.5,28.2
	C14,78.1,14.8,81.5,15.5,84z M12.8,64.3l0.1-1.9C12.8,63,12.8,63.6,12.8,64.3z M30,24.6c-0.1-0.1-0.1-0.2-0.2-0.3
	c-0.9,0.4-2.2,1.3-4.8,4.7c-1,1.4-2.3,3.3-3.2,4.8c-2.6,4.6-2.8,4.8-4.1,7.8c-1.9,4.9-2.1,5.4-3.1,9c-1.2,5.4-1.3,6-1.7,10.2
	l-0.1,1.5c0.5-6.1,2.3-12.4,5.6-18.6c2.3-4.2,3.5-6.3,7.6-12.5C29.1,26.6,29.4,26.1,30,24.6z"/>
<linearGradient id="SVGID_3_" gradientUnits="userSpaceOnUse" x1="38.3111" y1="-293.4222" x2="130.4111" y2="-293.4222" gradientTransform="matrix(1 0 0 -1 0 -270.4445)">
	<stop  offset="0.1862" style="stop-color:#005C9A"/>
	<stop  offset="0.3124" style="stop-color:#0676B1"/>
	<stop  offset="0.4987" style="stop-color:#0E95CC"/>
	<stop  offset="0.6792" style="stop-color:#13ACE0"/>
	<stop  offset="0.8498" style="stop-color:#16BAEC"/>
	<stop  offset="1" style="stop-color:#17BFF0"/>
</linearGradient>
<path class="st2" d="M122,30.8c3.6,3.1,6.4,6.8,8.4,10.8l-2.8-5.8c-1.3-2.1-3.1-4.8-4.5-6.8c-3.8-4.6-4.5-5.5-8.9-9.5l-0.4-0.3
	C100.5,7.9,79.3,6.3,59.4,13.5c-16.8,7.1-17.9,14.8-15.3,16.1c3.4,1.8,14.6-2.1,22-4.7C86.7,17.4,108.4,19,122,30.8z M102,11.1
	c-3.2-1.6-4.2-2.1-7.7-3.3C89,6.2,88.5,6,84.7,5.3c-5.4-0.8-5.6-0.8-8.9-0.9c-5.2,0-5.3,0-8.2,0.3c-1.2,0.2-2.8,0.3-4,0.6
	C60.2,5.9,56.8,6.8,53.5,8c-13.5,5.3-15.2,9.4-15.2,9.6c0.5,0.3,0.5,0.3,19.3-6.7C73.2,5.3,89.5,5.2,102,11.1z"/>
<g>
	<path class="st3" d="M73.8,172.8l7.8-8.1h4.1l-9.1,9.1l9.2,11h-4.1l-7.3-9l-0.6,0.6v8.4h-3.1v-20h3.1V172.8L73.8,172.8z"/>
	<path class="st3" d="M89.3,160.8c0-0.5,0.2-1,0.6-1.4s0.9-0.6,1.4-0.6s1,0.2,1.4,0.6s0.6,0.8,0.6,1.4c0,0.6-0.2,1-0.6,1.4
		s-0.8,0.6-1.4,0.6s-1-0.2-1.4-0.6C89.5,161.8,89.3,161.3,89.3,160.8z M92.8,164.8V185h-3.1v-20.2H92.8z"/>
	<path class="st3" d="M98.3,185l4.2-21.7l6.9,15.7l7.2-15.7l3.8,21.7h-3.1l-1.9-12.2l-6,13.1l-5.8-13.1l-2.2,12.2H98.3L98.3,185z"/>
	<path class="st3" d="M130.2,176.3l-6.6-11.5h3.5l4.6,8.1l4.6-8.1h3.5l-6.6,11.5v8.7h-3.1L130.2,176.3L130.2,176.3z"/>
	<path class="st3" d="M182.7,174.5h8.3v0.7c0,1.5-0.2,2.9-0.5,4s-0.9,2.1-1.8,3c-1.9,2.1-4.3,3.2-7.1,3.2s-5.2-1-7.2-3.1
		c-2-2-3-4.5-3-7.4s1-5.4,3.1-7.5c2.1-2,4.5-3.1,7.5-3.1c1.6,0,3.1,0.3,4.4,1c1.3,0.6,2.6,1.7,3.9,3.1l-2.2,2.1
		c-1.7-2.2-3.7-3.3-6.1-3.3c-2.1,0-3.9,0.7-5.4,2.2c-1.4,1.5-2.2,3.3-2.2,5.4c0,2.2,0.8,4.1,2.4,5.6c1.5,1.4,3.1,2,4.9,2
		c1.5,0,2.9-0.5,4-1.5c1.2-1,1.9-2.2,2-3.7h-5L182.7,174.5L182.7,174.5L182.7,174.5z"/>
	<path class="st3" d="M203.1,176.4l6.2,8.6h-3.7l-5.8-8.3h-0.6v8.3h-3.1v-20.2h3.6c2.7,0,4.6,0.5,5.8,1.5c1.3,1.1,2,2.6,2,4.4
		c0,1.4-0.4,2.7-1.2,3.7S204.4,176.1,203.1,176.4z M199.3,174.1h1c2.9,0,4.3-1.1,4.3-3.3c0-2.1-1.4-3.1-4.2-3.1h-1.1V174.1
		L199.3,174.1z"/>
	<path class="st3" d="M216.5,164.8v12.1c0,1.7,0.3,3,0.9,3.8c0.8,1.2,2,1.7,3.6,1.7c1.5,0,2.7-0.6,3.6-1.7c0.6-0.8,0.9-2,0.9-3.8
		v-12.1h3.1v13c0,2.1-0.7,3.9-2,5.2c-1.5,1.5-3.3,2.3-5.5,2.3s-4-0.8-5.5-2.3c-1.3-1.4-2-3.1-2-5.2v-13H216.5z"/>
	<path class="st3" d="M237.6,176.8v8.2h-3v-20.2h3.5c1.7,0,3,0.1,3.8,0.3c0.9,0.2,1.6,0.7,2.3,1.3c1.2,1.1,1.7,2.6,1.7,4.3
		c0,1.9-0.6,3.3-1.9,4.4c-1.2,1.1-2.9,1.6-5,1.6L237.6,176.8L237.6,176.8z M237.6,173.9h1.1c2.8,0,4.2-1.1,4.2-3.2s-1.4-3.1-4.3-3.1
		h-1L237.6,173.9L237.6,173.9z"/>
	<polygon class="st3" points="149.3,163.5 139.3,185 142.6,185 146.1,177.2 146.1,177.2 149.2,170.3 152.2,177.2 152.2,177.2 
		153.5,180.1 153.5,180.1 155.6,185 158.9,185 	"/>
</g>
</svg>
