<?xml version="1.0" encoding="utf-8"?>
<!-- Generator: Adobe Illustrator 27.4.1, SVG Export Plug-In . SVG Version: 6.00 Build 0)  -->
<svg version="1.1" id="Layer_1" xmlns="http://www.w3.org/2000/svg" xmlns:xlink="http://www.w3.org/1999/xlink" x="0px" y="0px"
	 viewBox="0 0 1257 197" style="enable-background:new 0 0 1257 197;" xml:space="preserve">
<style type="text/css">
	.st0{fill:#FFFFFF;}
	.st1{fill:url(#SVGID_1_);}
	.st2{fill:url(#SVGID_00000043449315576726551090000004168078812951885749_);}
	.st3{fill:url(#SVGID_00000142896003300615431970000012631461492845601960_);}
	.st4{fill:#00A651;}
	.st5{fill:#ED1C2E;}
	.st6{fill:#00B5F0;}
</style>
<path class="st0" d="M141,84h-27.4c-6.3,0-8.6,2.3-8.6,9.8v13h35c1.5,0,2.7,1.3,2.7,2.9v13.8c0,1.6-1.2,2.9-2.7,2.9h-35v42.3
	c0,1.6-1.2,2.9-2.7,2.9H84.7c-1.5,0-2.7-1.3-2.7-2.9V93.8c0-26.4,15.5-31,33-31c14.6,0,21.3,1.2,26.1,1.9c1.9,0.3,2.7,1,2.7,2.9
	v13.5C143.7,82.7,142.5,84,141,84z M188.3,172.9c-10.7,0-18.6-1.3-25.5-3.2c-1.4-0.4-2.7-1.3-2.7-2.9v-14.2c0-2,1.1-2.8,2.4-2.8
	c0.1,0,0.3,0,0.4,0c5.5,0.6,20.4,1.7,25.7,1.7c9.3,0,12-3.2,12-10.1c0-4.2-1.9-6.5-8.9-11L173,118.6c-12.6-8-15.9-17.1-15.9-27.6
	c0-15.9,8.4-28.2,34.6-28.2c9.9,0,23.5,1.7,28.6,3.2c1.1,0.3,2,1,2,2.6v14.6c0,1.3-0.5,2.5-2.3,2.5c0,0-0.1,0-0.3,0
	c-3.8-0.3-19.4-1.6-28.6-1.6c-7.7,0-10.5,2.5-10.5,7.7c0,4,1.8,5.9,9.1,10.1l17.3,10c14,8.1,18.2,17.7,18.2,29.4
	C225.1,156.5,215.7,172.9,188.3,172.9z M315.7,171.6h-20.7c-1.5,0-2-1.4-2.7-2.9L274.3,132l-1.5,0.1c-2.8,0-7-0.3-9.6-0.3v36.8
	c0,1.6-1.2,2.9-2.7,2.9h-17.6c-1.5,0-2.7-1.3-2.7-2.9V71.5c0-4.9,1.9-6.2,6.1-6.9c6.2-1,17.7-1.9,27.4-1.9c23,0,40.7,8.3,40.7,33.9
	v1.9c0,15.3-7.6,24.7-17.4,29l20.4,40.8c0.3,0.6,0.4,1.2,0.4,1.6C317.8,170.8,317.2,171.6,315.7,171.6z M291.4,96.6
	c0-8.8-6.3-12.9-17.7-12.9c-1.9,0-8.9,0.3-10.5,0.4v27.8c1.5,0.1,8.1,0.3,9.6,0.3c14.2,0,18.6-3.9,18.6-13.8V96.6z"/>
<g>
	<path class="st0" d="M37.4,142c0.1,0.1,0.1,0.1,0.2,0.2c5.9,4.7,6.7,5.3,12,8.4c6.5,3.4,7.2,3.7,12.5,5.6c6.7,2,7.2,2.2,11.9,3.1
		l1.1,0.2c-8.6-1.5-16.5-4.8-22.7-10.2c-14.7-12.8-16.4-33.3-6.3-52.3c8.8-17.5,7.7-22.7,5.8-26.6c-0.5-0.4-1.2-1.1-1.8-1.4
		c-0.4-0.2-9.2-4.4-20,12.7C18.5,103.6,20.4,127.2,37.4,142z M14.3,106.8c2.4,6.8,2.9,8.3,6.4,14.7c1.6,2.6,3.8,6,5.6,8.5l1.8,2.3
		c-12.3-15-12.6-36.2-2.1-56c9.7-18.3,12-23.5,11-28.5c-0.3-0.3-0.7-0.9-1.1-1.1c-0.1,0-6.9-2.5-17.1,14.5
		c-6.2,11.7-8.6,24-6.8,35.1C12.5,99.5,13.5,103.7,14.3,106.8z M10.9,82.3l0.1-2.4C11,80.7,10.9,81.5,10.9,82.3z M32.4,32.9
		c-0.1-0.1-0.2-0.3-0.2-0.4c-1.1,0.5-2.7,1.6-5.9,5.8c-1.2,1.8-2.9,4.1-4,5.9c-3.2,5.7-3.4,6-5,9.7c-2.4,6.1-2.6,6.8-3.8,11.2
		c-1.5,6.7-1.6,7.5-2.2,12.7L11,79.8c0.6-7.6,2.9-15.5,7-23.1c2.9-5.2,4.3-7.8,9.4-15.5C31.3,35.4,31.7,34.8,32.4,32.9z"/>
	<path class="st0" d="M146.7,40.6c4.5,3.9,8,8.4,10.4,13.4l-3.4-7.2c-1.6-2.6-3.8-6-5.6-8.5c-4.7-5.7-5.6-6.9-11-11.8l-0.4-0.4
		C120.2,12,93.9,10,69.1,19c-20.8,8.8-22.3,18.3-19,20.1c4.3,2.2,18.2-2.6,27.4-5.9C102.9,23.9,129.9,26,146.7,40.6z M121.9,16.2
		c-4-2-5.2-2.6-9.6-4.2c-6.7-2-7.2-2.2-11.9-3.1c-6.7-0.9-6.9-1-11.1-1.1c-6.5,0-6.6,0-10.2,0.4c-1.5,0.2-3.5,0.4-4.9,0.7
		c-4.2,0.7-8.4,1.9-12.6,3.3C44.9,19,42.8,24.1,42.7,24.3c0.6,0.4,0.6,0.4,24-8.3C86.1,8.9,106.4,8.8,121.9,16.2z"/>
</g>
<g>
	<path class="st0" d="M363.1,107.1l40.5-41.6h21l-47.1,47.2l47.3,57h-21.1l-37.5-46.3l-3.2,3.2v43.1h-15.7V65.6h15.7L363.1,107.1
		L363.1,107.1z"/>
	<path class="st0" d="M443.5,44.8c0-2.7,1-5.1,2.9-7.1c2.1-2,4.5-2.9,7.2-2.9c2.8,0,5.2,1,7.2,2.9c2,2,3,4.3,3,7.2
		c0,2.9-1,5.3-3,7.2c-2,2-4.3,2.9-7.2,2.9c-2.8,0-5.2-1-7.2-2.9C444.5,50,443.5,47.5,443.5,44.8z M461.5,65.6v104.1h-15.7V65.6
		H461.5z"/>
	<path class="st0" d="M489.8,169.7l21.9-112l35.8,80.9l37-80.9l19.7,112h-16.2l-10-62.9l-30.8,67.7l-29.9-67.7l-11.2,63L489.8,169.7
		L489.8,169.7z"/>
	<path class="st0" d="M654.2,124.7l-34-59.2h18.1l23.9,41.6L686,65.5h18.1L670,124.7v45h-15.7L654.2,124.7L654.2,124.7z"/>
	<path class="st0" d="M909.3,115.4h43.1v3.5c0,7.8-0.9,14.7-2.8,20.8c-1.8,5.6-4.9,10.8-9.1,15.6c-9.7,10.9-22,16.3-36.9,16.3
		c-14.6,0-27.1-5.3-37.4-15.8c-10.4-10.6-15.6-23.3-15.6-38c0-15.1,5.3-27.9,15.8-38.5C877,68.7,889.9,63.4,905,63.4
		c8.2,0,15.7,1.7,22.8,5c6.8,3.4,13.4,8.7,19.9,16.2l-11.2,10.7c-8.6-11.4-18.9-17-31.2-17c-11,0-20.3,3.8-27.7,11.4
		c-7.5,7.5-11.2,16.8-11.2,28.1c0,11.6,4.2,21.1,12.4,28.7c7.7,7,16.2,10.5,25.3,10.5c7.7,0,14.7-2.6,20.9-7.8
		c6.2-5.3,9.6-11.6,10.3-18.9h-26L909.3,115.4L909.3,115.4L909.3,115.4z"/>
	<path class="st0" d="M1014.4,125.3l32.2,44.4h-19.2L997.6,127h-2.8v42.6H979V65.6h18.4c13.7,0,23.7,2.6,29.8,7.7
		c6.8,5.8,10.1,13.4,10.1,22.8c0,7.4-2.1,13.7-6.3,19C1026.8,120.4,1021.3,123.8,1014.4,125.3z M994.8,113.4h5
		c14.9,0,22.3-5.7,22.3-17c0-10.6-7.2-16-21.7-16h-5.6L994.8,113.4L994.8,113.4z"/>
	<path class="st0" d="M1083.3,65.6v62.7c0,8.9,1.5,15.5,4.4,19.6c4.3,6,10.5,9,18.4,9c8,0,14.1-3,18.5-9c2.9-4,4.4-10.5,4.4-19.6
		V65.6h15.7v67.1c0,11-3.4,20-10.3,27.1c-7.7,7.9-17.1,11.9-28.3,11.9c-11.2,0-20.6-3.9-28.2-11.9c-6.8-7.1-10.3-16.2-10.3-27.1
		V65.6H1083.3z"/>
	<path class="st0" d="M1192.3,127.4v42.3h-15.7V65.5h17.8c8.7,0,15.3,0.6,19.8,1.8c4.5,1.2,8.5,3.5,11.9,6.9c6,5.8,9,13.2,9,22.1
		c0,9.6-3.2,17.1-9.6,22.7c-6.4,5.6-15,8.4-25.8,8.4L1192.3,127.4L1192.3,127.4z M1192.3,112.8h5.9c14.5,0,21.6-5.6,21.6-16.7
		c0-10.7-7.4-16.2-22.3-16.2h-5.2V112.8L1192.3,112.8z"/>
	<polygon class="st0" points="753.1,59 701.5,169.7 718.5,169.7 736.7,129.6 736.6,129.6 752.8,94.2 768.2,129.6 768.2,129.6 
		774.6,144.4 774.6,144.4 785.6,169.7 802.8,169.7 	"/>
</g>
</svg>
