<?xml version="1.0" encoding="utf-8"?>
<!-- Generator: Adobe Illustrator 27.2.0, SVG Export Plug-In . SVG Version: 6.00 Build 0)  -->
<svg version="1.1" id="Layer_1" xmlns="http://www.w3.org/2000/svg" xmlns:xlink="http://www.w3.org/1999/xlink" x="0px" y="0px"
	 viewBox="0 0 375.4 375.4" style="enable-background:new 0 0 375.4 375.4;" xml:space="preserve">
<style type="text/css">
	.st0{fill:#FFFFFF;}
	.st1{fill:url(#SVGID_1_);}
	.st2{fill:url(#SVGID_00000167361594423483371830000008664210968254491563_);}
	.st3{fill:url(#SVGID_00000169527856436256243400000010547607889288421548_);}
	.st4{fill:#00A651;}
</style>
<g>
	<circle class="st0" cx="188" cy="187.89" r="174"/>
	<g>
		
			<linearGradient id="SVGID_1_" gradientUnits="userSpaceOnUse" x1="94.0382" y1="191.175" x2="323.4831" y2="191.175" gradientTransform="matrix(1 0 0 -1 0 375.8898)">
			<stop  offset="0.1862" style="stop-color:#005C9A"/>
			<stop  offset="0.3124" style="stop-color:#0676B1"/>
			<stop  offset="0.4987" style="stop-color:#0E95CC"/>
			<stop  offset="0.6792" style="stop-color:#13ACE0"/>
			<stop  offset="0.8498" style="stop-color:#16BAEC"/>
			<stop  offset="1" style="stop-color:#17BFF0"/>
		</linearGradient>
		<path class="st1" d="M151.48,151.82H124.8c-6.17,0-8.41,2.25-8.41,9.58v12.68h34.04c1.45,0,2.63,1.27,2.63,2.82v13.38
			c0,1.55-1.19,2.82-2.63,2.82h-34.04v41.13c0,1.55-1.19,2.82-2.63,2.82H96.67c-1.45,0-2.63-1.27-2.63-2.82V161.4
			c0-25.64,15.11-30.15,32.07-30.15c14.19,0,20.77,1.13,25.36,1.84c1.84,0.28,2.63,0.98,2.63,2.82V149
			C154.11,150.56,152.92,151.82,151.48,151.82z M197.47,238.32c-10.38,0-18.13-1.27-24.83-3.1c-1.32-0.43-2.63-1.27-2.63-2.82v-13.8
			c0-1.97,1.05-2.68,2.36-2.68c0.13,0,0.26,0,0.4,0c5.39,0.57,19.85,1.69,24.96,1.69c9.07,0,11.7-3.1,11.7-9.86
			c0-4.09-1.84-6.34-8.68-10.71l-18.14-11.55c-12.22-7.75-15.51-16.62-15.51-26.9c0-15.5,8.15-27.47,33.64-27.47
			c9.59,0,22.87,1.69,27.86,3.1c1.05,0.28,1.97,0.98,1.97,2.54v14.23c0,1.27-0.53,2.39-2.23,2.39c0,0-0.13,0-0.26,0
			c-3.68-0.28-18.92-1.55-27.86-1.55c-7.49,0-10.25,2.39-10.25,7.47c0,3.94,1.71,5.78,8.81,9.86l16.83,9.72
			c13.66,7.89,17.74,17.19,17.74,28.6C233.35,222.4,224.14,238.32,197.47,238.32z M321.53,237.05h-20.11
			c-1.45,0-1.97-1.41-2.63-2.82l-17.61-35.64l-1.45,0.14c-2.76,0-6.83-0.28-9.33-0.28v35.78c0,1.55-1.19,2.82-2.63,2.82h-17.08
			c-1.45,0-2.63-1.27-2.63-2.82V139.7c0-4.79,1.84-6.05,5.91-6.76c6.04-0.98,17.21-1.84,26.68-1.84c22.34,0,39.56,8.03,39.56,32.96
			v1.84c0,14.93-7.36,24.08-16.96,28.17l19.85,39.72c0.26,0.57,0.4,1.12,0.4,1.55C323.5,236.34,322.97,237.05,321.53,237.05z
			 M297.87,164.07c0-8.59-6.17-12.54-17.21-12.54c-1.84,0-8.68,0.28-10.25,0.43v27.05c1.45,0.14,7.89,0.28,9.33,0.28
			c13.8,0,18.13-3.8,18.13-13.38V164.07z"/>
	</g>
	
		<linearGradient id="SVGID_00000173839521156309633440000004350921546998068103_" gradientUnits="userSpaceOnUse" x1="38.6471" y1="209.3572" x2="90.2758" y2="209.3572" gradientTransform="matrix(1 0 0 -1 0 375.8898)">
		<stop  offset="0.1862" style="stop-color:#009444"/>
		<stop  offset="0.3221" style="stop-color:#109D46"/>
		<stop  offset="0.5656" style="stop-color:#27AA48"/>
		<stop  offset="0.7965" style="stop-color:#34B24A"/>
		<stop  offset="1" style="stop-color:#39B54A"/>
	</linearGradient>
	<path style="fill:url(#SVGID_00000173839521156309633440000004350921546998068103_);" d="M59.94,203.48
		c0.06,0.05,0.12,0.11,0.18,0.16c4.78,3.78,5.4,4.26,9.68,6.78c5.23,2.7,5.78,2.98,10.04,4.54c5.35,1.64,5.79,1.78,9.57,2.47
		l0.87,0.13c-6.95-1.18-13.25-3.89-18.26-8.23c-11.85-10.26-13.16-26.78-5.07-42.07c7.06-14.09,6.17-18.28,4.66-21.38
		c-0.43-0.35-0.93-0.91-1.42-1.16c-0.3-0.15-7.44-3.51-16.09,10.25C44.76,172.61,46.28,191.65,59.94,203.48z M41.38,175.22
		c1.96,5.51,2.36,6.66,5.11,11.84c1.29,2.08,3.05,4.84,4.47,6.83l1.45,1.84c-9.86-12.09-10.1-29.15-1.67-45.09
		c7.77-14.76,9.65-18.94,8.82-22.92c-0.27-0.26-0.58-0.7-0.92-0.85c-0.05-0.02-5.56-2.02-13.77,11.67
		c-5.01,9.44-6.89,19.3-5.46,28.23C39.92,169.33,40.69,172.72,41.38,175.22z M38.65,155.48l0.11-1.94
		C38.7,154.19,38.66,154.84,38.65,155.48z M55.89,115.79c-0.06-0.09-0.13-0.21-0.19-0.29c-0.89,0.4-2.16,1.26-4.78,4.65
		c-0.99,1.41-2.31,3.3-3.23,4.75c-2.59,4.56-2.75,4.83-4.06,7.82c-1.93,4.94-2.13,5.45-3.08,9.02c-1.17,5.35-1.32,6.04-1.73,10.24
		l-0.08,1.54c0.46-6.11,2.35-12.43,5.6-18.58c2.31-4.17,3.47-6.26,7.57-12.48C55.02,117.79,55.34,117.3,55.89,115.79z"/>
	
		<linearGradient id="SVGID_00000178893890490898248580000004670765171399934597_" gradientUnits="userSpaceOnUse" x1="64.2343" y1="261.7006" x2="156.2886" y2="261.7006" gradientTransform="matrix(1 0 0 -1 0 375.8898)">
		<stop  offset="0.1862" style="stop-color:#005C9A"/>
		<stop  offset="0.3124" style="stop-color:#0676B1"/>
		<stop  offset="0.4987" style="stop-color:#0E95CC"/>
		<stop  offset="0.6792" style="stop-color:#13ACE0"/>
		<stop  offset="0.8498" style="stop-color:#16BAEC"/>
		<stop  offset="1" style="stop-color:#17BFF0"/>
	</linearGradient>
	<path style="fill:url(#SVGID_00000178893890490898248580000004670765171399934597_);" d="M147.91,121.97
		c3.63,3.14,6.4,6.77,8.38,10.76l-2.76-5.83c-1.29-2.08-3.05-4.84-4.47-6.83c-3.75-4.59-4.53-5.54-8.87-9.49l-0.35-0.3
		c-13.3-11.35-34.46-12.94-54.38-5.73c-16.76,7.06-17.94,14.75-15.31,16.14c3.42,1.8,14.62-2.13,22.03-4.73
		C112.63,108.55,134.34,110.22,147.91,121.97z M127.9,102.35c-3.21-1.64-4.2-2.06-7.72-3.35c-5.35-1.64-5.79-1.78-9.57-2.47
		c-5.38-0.75-5.59-0.78-8.89-0.88c-5.21,0.02-5.3,0.02-8.19,0.32c-1.19,0.17-2.78,0.35-3.97,0.55c-3.37,0.59-6.76,1.49-10.1,2.69
		c-13.5,5.35-15.16,9.43-15.23,9.6c0.52,0.29,0.52,0.29,19.34-6.71C99.12,96.48,115.43,96.4,127.9,102.35z"/>
	<g>
		<path class="st4" d="M99.65,264.04l7.85-8.05h4.07l-9.12,9.14l9.17,11.04h-4.08l-7.26-8.97l-0.62,0.62v8.35h-3.05V256h3.05V264.04
			z"/>
		<path class="st4" d="M115.23,251.98c0-0.53,0.19-0.99,0.57-1.37c0.41-0.38,0.87-0.57,1.4-0.57c0.54,0,1,0.19,1.39,0.57
			s0.59,0.84,0.59,1.39c0,0.56-0.2,1.02-0.59,1.4c-0.38,0.38-0.84,0.57-1.39,0.57c-0.55,0-1.01-0.19-1.4-0.57
			C115.42,252.99,115.23,252.51,115.23,251.98z M118.72,256v20.17h-3.05V256H118.72z"/>
		<path class="st4" d="M124.2,276.17l4.25-21.69l6.93,15.68l7.17-15.68l3.82,21.69h-3.13l-1.94-12.18l-5.97,13.11l-5.8-13.12
			l-2.16,12.2H124.2z"/>
		<path class="st4" d="M156.05,267.45l-6.58-11.46h3.5l4.62,8.06l4.62-8.06h3.5l-6.61,11.46v8.72h-3.05V267.45L156.05,267.45z"/>
		<path class="st4" d="M208.65,265.66h8.34v0.67c0,1.52-0.18,2.85-0.54,4.02c-0.34,1.08-0.94,2.09-1.76,3.03
			c-1.87,2.11-4.26,3.16-7.15,3.16c-2.83,0-5.24-1.02-7.25-3.06c-2.01-2.05-3.02-4.51-3.02-7.37c0-2.93,1.02-5.41,3.07-7.45
			c2.05-2.05,4.54-3.07,7.47-3.07c1.58,0,3.05,0.32,4.42,0.97c1.31,0.65,2.59,1.69,3.85,3.13l-2.17,2.08
			c-1.66-2.2-3.67-3.3-6.05-3.3c-2.14,0-3.93,0.73-5.37,2.21c-1.45,1.45-2.17,3.26-2.17,5.44c0,2.25,0.81,4.09,2.41,5.56
			c1.5,1.35,3.14,2.03,4.9,2.03c1.5,0,2.85-0.51,4.04-1.52c1.2-1.02,1.86-2.24,2-3.66h-5.03v-2.86H208.65z"/>
		<path class="st4" d="M228.99,267.57l6.24,8.6h-3.72l-5.76-8.26h-0.55v8.26h-3.05V256h3.57c2.66,0,4.59,0.5,5.78,1.5
			c1.31,1.12,1.96,2.59,1.96,4.42c0,1.43-0.41,2.66-1.23,3.68C231.41,266.62,230.33,267.28,228.99,267.57z M225.2,265.26h0.97
			c2.88,0,4.32-1.1,4.32-3.3c0-2.06-1.4-3.1-4.2-3.1h-1.09V265.26z"/>
		<path class="st4" d="M242.35,256v12.15c0,1.73,0.29,3,0.85,3.8c0.84,1.16,2.03,1.74,3.57,1.74c1.54,0,2.74-0.58,3.58-1.74
			c0.57-0.78,0.85-2.04,0.85-3.8V256h3.05v12.99c0,2.13-0.66,3.87-1.99,5.25c-1.49,1.53-3.32,2.3-5.49,2.3
			c-2.17,0-3.99-0.76-5.47-2.3c-1.32-1.38-1.99-3.13-1.99-5.25V256H242.35z"/>
		<path class="st4" d="M263.46,267.97v8.19h-3.05v-20.17h3.45c1.69,0,2.96,0.12,3.83,0.35c0.87,0.23,1.64,0.68,2.3,1.34
			c1.16,1.13,1.74,2.56,1.74,4.29c0,1.85-0.62,3.31-1.86,4.39c-1.24,1.08-2.91,1.62-5,1.62H263.46L263.46,267.97z M263.46,265.15
			h1.14c2.8,0,4.19-1.08,4.19-3.23c0-2.08-1.44-3.13-4.32-3.13h-1.01L263.46,265.15L263.46,265.15z"/>
		<polygon class="st4" points="175.19,254.73 165.21,276.17 168.49,276.17 172.02,268.4 172.01,268.4 175.14,261.54 178.13,268.4 
			178.12,268.4 179.36,271.27 179.37,271.27 181.49,276.17 184.82,276.17 		"/>
	</g>
</g>
</svg>
