<?xml version="1.0" encoding="utf-8"?>
<!-- Generator: Adobe Illustrator 23.0.6, SVG Export Plug-In . SVG Version: 6.00 Build 0)  -->
<svg version="1.1" id="Layer_1" xmlns="http://www.w3.org/2000/svg" xmlns:xlink="http://www.w3.org/1999/xlink" x="0px" y="0px"
	 viewBox="0 0 105.1 105.1" style="enable-background:new 0 0 105.1 105.1;" xml:space="preserve">
<style type="text/css">
	.st0{fill:#FFFFFF;}
</style>
<g>
	<path class="st0" d="M36.6,23.8c-0.5,0.2-1.1,0.4-1.6,0.6c-0.2-0.1-0.4-0.1-0.6-0.2c-0.2,0-0.5-0.1-0.7-0.1
		c-0.3-0.4-0.8-0.1-1.1-0.2C33.8,23.4,35.2,22.5,36.6,23.8"/>
	<path class="st0" d="M19,22.9c0,0.4-0.2,0.6-0.5,0.5c-0.6-0.2-1.4-0.1-1.7-0.7c-0.2-0.3,0.1-0.5,0.4-0.5
		C17.8,22.3,18.5,22.4,19,22.9"/>
	<path class="st0" d="M12.6,21.5c0.2-0.5,0.6-0.4,0.9-0.3c0.5,0.1,1.3,0.1,1.3,0.8c0,0.4-0.5,0.4-0.9,0.3
		C13.5,22,12.8,22.1,12.6,21.5"/>
	<path class="st0" d="M2.7,23.9c-0.1,0-0.1-0.1-0.1-0.1l0.1,0L2.7,23.9z"/>
	<path class="st0" d="M11.5,49.1c-0.4,0.5-1.1,0.9-1.8,1.1c-0.3,0.1-0.4-0.2-0.3-0.4c0.4-0.7,1-1,1.8-1.2
		C11.4,48.5,11.6,48.8,11.5,49.1"/>
	<path class="st0" d="M31.2,27.5c0.2,0.3,0.3,0.6,0.2,0.9c-0.7-0.5-1.3,0.4-2,0.1c-0.4-0.1-0.9,0-0.8-0.6c0.1-0.5,0.5-0.3,0.9-0.3
		C30,27.5,30.6,27.9,31.2,27.5"/>
	<path class="st0" d="M18.9,44.4c-0.3,0.7-1,0.9-1.6,1.2c-0.2,0.1-0.5,0-0.4-0.2c0.2-0.8,1-0.9,1.6-1.3C18.6,44,18.8,44.1,18.9,44.4
		"/>
	<path class="st0" d="M26.6,27.7c-0.2,0.2-0.3,0.3-0.5,0.3c-0.6,0-1.3,0.2-1.8-0.3c-0.1-0.1,0-0.4,0.2-0.5
		C25.2,27.1,26,27.1,26.6,27.7"/>
	<path class="st0" d="M12.3,38.1c-0.4,0.1-0.8,0-0.6-0.4c0.3-0.7,1.1-0.6,1.7-0.8c0.3-0.1,0.6,0.1,0.5,0.3
		C13.6,38,12.8,37.9,12.3,38.1"/>
	<path class="st0" d="M22.1,34.6c0,0.1,0,0.2,0,0.2c-0.5,0.7-1.2,0.8-2,0.7c-0.1,0-0.2-0.3-0.1-0.4C20.6,34.7,21.3,34.4,22.1,34.6"
		/>
	<path class="st0" d="M17.7,40.8c-1,1.2-1,1.2-2.4,1.2C15.9,41.2,16.6,40.8,17.7,40.8"/>
	<path class="st0" d="M25.3,37.2c-0.4,0.6-1.1,0.9-1.8,1c-0.3,0.1-0.6-0.1-0.4-0.4c0.4-0.6,1.1-0.8,1.8-1
		C25.1,36.8,25.2,37,25.3,37.2"/>
	<path class="st0" d="M2.6,54.7c-0.3,0-0.5-0.1-0.4-0.3c0.3-0.8,1-1,1.7-1.2c0.2-0.1,0.4,0.2,0.3,0.4C3.8,54.2,3.1,54.4,2.6,54.7"/>
	<path class="st0" d="M12.6,26.8c-0.4-0.1-1.2,0.2-1.1-0.6c0-0.5,0.6-0.4,1-0.3c0.4,0.1,1.1-0.1,1.1,0.5
		C13.5,27,12.9,26.7,12.6,26.8"/>
	<path class="st0" d="M21.4,39.1c-0.3,0.8-1.1,0.8-1.7,1.1c-0.3,0.1-0.5-0.1-0.4-0.4c0.3-0.7,1-0.8,1.5-1.1
		C21.1,38.6,21.3,38.8,21.4,39.1"/>
	<path class="st0" d="M31.4,34.3c-0.3,0-0.6-0.1-0.5-0.3c0.3-0.7,1.1-0.8,1.7-1.1c0.2-0.1,0.4,0.2,0.4,0.4
		C32.6,34,31.9,34,31.4,34.3"/>
	<path class="st0" d="M30.4,32.4C30,33,29.3,33,28.7,33.2c-0.3,0.1-0.6-0.2-0.4-0.4c0.4-0.5,1-0.5,1.6-0.7
		C30.1,31.9,30.3,32.1,30.4,32.4"/>
	<path class="st0" d="M25.6,33.3c0.3,0,0.7,0,0.7,0.2c-0.1,0.8-0.9,0.6-1.4,0.8c-0.3,0.1-0.8,0.1-0.7-0.3
		C24.3,33.4,25.1,33.5,25.6,33.3"/>
	<path class="st0" d="M26.1,39.9c-0.3,0.6-0.9,0.8-1.5,1.1c-0.2,0.1-0.6,0-0.5-0.3c0.3-0.6,0.9-0.9,1.5-1.1
		C25.9,39.5,26.1,39.5,26.1,39.9"/>
	<path class="st0" d="M11.5,44.1c0.1-0.3,0.1-0.4,0.2-0.5c0.6-0.3,1.1-1,1.9-0.8c0.1,0,0.1,0.3,0.1,0.4C13,43.6,12.5,44.2,11.5,44.1
		"/>
	<path class="st0" d="M15.1,46.8c-0.4,0.5-1,0.9-1.7,1c-0.2,0-0.4-0.2-0.3-0.4c0.4-0.6,1-1,1.7-1.1C15.1,46.3,15.2,46.5,15.1,46.8"
		/>
	<path class="st0" d="M16.9,27.3c-0.4-0.2-1.2,0.3-1.3-0.6c0-0.5,0.5-0.4,0.9-0.3c0.5,0.1,1.3-0.2,1.3,0.6
		C17.9,27.4,17.3,27.2,16.9,27.3"/>
	<path class="st0" d="M8.2,26.4c-0.4-0.1-1.2,0.2-1.1-0.6c0-0.6,0.6-0.3,1-0.3c0.5,0,1.2-0.1,1.1,0.6C9.2,26.6,8.6,26.3,8.2,26.4"/>
	<path class="st0" d="M21.2,27.6c-0.5-0.1-1.3,0.1-1.2-0.6c0-0.5,0.6-0.4,1-0.3c0.4,0.1,1.2-0.1,1.1,0.6
		C22.1,27.9,21.5,27.5,21.2,27.6"/>
	<path class="st0" d="M25.8,31.2c-0.5,0-1,0.1-0.9-0.4c0.1-0.6,0.8-0.4,1.3-0.5c0.4-0.1,0.9-0.1,0.8,0.4
		C27,31.5,26.1,30.9,25.8,31.2"/>
	<path class="st0" d="M9.1,32.7c-0.5,0-1,0.1-0.9-0.4c0.1-0.6,0.8-0.4,1.3-0.5c0.4-0.1,0.9-0.1,0.8,0.4C10.2,33,9.4,32.4,9.1,32.7"
		/>
	<path class="st0" d="M29.4,30.7c-0.5,0-1,0.1-0.9-0.4c0.1-0.6,0.8-0.4,1.3-0.5c0.4-0.1,0.9-0.1,0.8,0.4
		C30.6,31.1,29.7,30.4,29.4,30.7"/>
	<path class="st0" d="M20.5,42.9c0.3-0.6,1-0.8,1.5-1.1c0.3-0.1,0.6,0.1,0.4,0.3c-0.3,0.6-1,0.9-1.6,1.1
		C20.7,43.4,20.5,43.2,20.5,42.9"/>
	<path class="st0" d="M28.6,34.9c0.2,0.1,0.5,0.1,0.4,0.3C28.8,36,28,36,27.4,36.3c-0.2,0.1-0.5-0.1-0.4-0.3
		C27.2,35.2,28,35.2,28.6,34.9"/>
	<path class="st0" d="M33.4,34.7c0,0.3,0,0.6,0,0.9c-0.7,0.1-1.4,1.3-1.9,0.6c-0.4-0.6,1-0.8,1.4-1.3C33.1,34.8,33.3,34.8,33.4,34.7
		"/>
	<path class="st0" d="M26.5,25.6c-0.5-0.2-1.2,0-1.3-0.8c0-0.4,0.5-0.3,0.7-0.2c0.5,0.2,1.2,0.1,1.3,0.8
		C27.3,25.7,26.8,25.6,26.5,25.6"/>
	<path class="st0" d="M7.2,50.9c0.4,0,0.6,0.2,0.5,0.4c-0.4,0.6-0.9,0.9-1.5,1.1c-0.2,0.1-0.5-0.1-0.4-0.3
		C6.1,51.3,6.9,51.3,7.2,50.9"/>
	<path class="st0" d="M29.9,37.2c-0.2,0.5-0.2,0.6-0.2,0.7c-0.5,0.4-1,0.9-1.7,0.9c-0.1,0-0.2-0.3-0.2-0.3
		C28.2,37.7,28.9,37.4,29.9,37.2"/>
	<path class="st0" d="M15.9,36.6c0.6-0.5,1.2-1,2.3-0.7C17.4,36.7,16.7,36.8,15.9,36.6"/>
	<path class="st0" d="M9.7,38.4c-0.5,0.8-1.3,1-2.2,0.8C8,38.2,8.8,38.3,9.7,38.4"/>
	<path class="st0" d="M12.8,32.2c-0.3,0-0.9,0.1-0.8-0.4c0.1-0.6,0.8-0.4,1.3-0.5c0.4-0.1,0.9,0,0.8,0.4
		C14,32.4,13.3,32.1,12.8,32.2"/>
	<path class="st0" d="M16.3,32c-0.3,0-0.9,0.1-0.8-0.4c0.1-0.6,0.8-0.4,1.3-0.5c0.4-0.1,0.9,0,0.8,0.4C17.4,32.1,16.7,31.9,16.3,32"
		/>
	<path class="st0" d="M19.7,31.8c-0.3,0-0.9,0.1-0.8-0.4c0.1-0.6,0.8-0.4,1.3-0.5c0.4-0.1,0.9,0,0.8,0.4
		C20.8,31.9,20.1,31.6,19.7,31.8"/>
	<path class="st0" d="M22.7,31.4c-0.3,0-0.9,0.1-0.8-0.4c0.1-0.6,0.8-0.4,1.3-0.5c0.4-0.1,0.9,0,0.8,0.4
		C23.8,31.6,23.1,31.3,22.7,31.4"/>
	<path class="st0" d="M3.3,26l0-0.9c0.2,0,0.4,0,0.6,0c0.4,0.1,1.1-0.1,1,0.6c-0.1,0.5-0.7,0.2-1,0.3C3.7,26,3.5,26,3.3,26"/>
	<polygon class="st0" points="33.7,35.9 33.8,36 33.7,36 33.6,36 	"/>
	<path class="st0" d="M39.6,30c0-0.6,0-1.2,0.1-1.9C40,28.8,40.1,29.4,39.6,30"/>
	<path class="st0" d="M39.3,30.6l0.1-3l0.3,0.5c0.5,0.8,0.5,1.5-0.1,2.1L39.3,30.6z"/>
	<path class="st0" d="M35.6,23.2L35.6,23.2L35.6,23.2z M38.6,38.1l4.8,0.1c0.3,0,0.5,0.2,0.6,0.5C46.7,52.9,36.5,67.4,36,68
		c-0.6,1-1.2,2.5-0.7,3.4c0.7,1.2,3.2,1.2,4.3,1.1c8-4.9,13-21.1,15-28.9c0-1.3,0.2-2.9,1-4.4c0.1-0.3,0.4-0.4,0.7-0.3
		c0.3,0.1,0.4,0.4,0.4,0.7c-0.1,0.3-0.4,1.8-1,4.2c0.1,2,0.9,3.6,0.9,3.6c0,0.1,0,0.1,0.1,0.2c0,0.2,0.2,0.4,0.4,0.5
		c1,0.6,3.5,0.1,4.3-0.1c0.3-0.1,0.6,0.1,0.7,0.4c0.1,0.3,0,0.6-0.3,0.7c-4.2,1.8-3.4,4.1-3.4,4.1c0,0.1,0,0.1,0,0.2l-0.2,9.3
		c0.7,3.1,5.1,4.9,12.4,4.9h0c8.1,0,9-4.6,9-4.8c0-3.1,0.6-7.4,0.6-7.5c0.2-2.9-1.2-3.3-1.3-3.4c-0.3-0.1-0.5-0.4-0.4-0.7
		c0.7-3,0.9-9.9,0.9-10c0-0.3,0.2-0.5,0.5-0.6c6.1-0.8,9.5-2.8,9.5-2.8c1.2-1.1-2.1-6.7-4.9-10.1c-7.9-7.6-18.7-7.2-18.8-7.2
		c-18.9,0.9-30.1,3.4-30.3,3.4c0,0,0,0,0,0c-1.8,0.3-3,1-3.5,1.8c-0.4,0.8-0.1,1.6-0.1,1.6l2.8,8.1c0.2,1.1,0.6,1.8,1.3,2.3
		C37.2,38.4,38.6,38.1,38.6,38.1 M38.8,73.7c-1.3,0-3.5-0.2-4.4-1.7c-0.7-1.1-0.5-2.7,0.7-4.7c0.1-0.2,10.1-14.4,7.8-27.9l-4.2-0.1
		c0.1,0-1.7,0.3-3.2-0.7c-0.9-0.6-1.5-1.6-1.7-3L31,27.7c0,0-0.5-1.3,0.2-2.6c0.7-1.2,2.1-2,4.3-2.5c0.4-0.1,11.7-2.5,30.4-3.4
		c0.5,0,11.4-0.4,19.7,7.6c1.3,1.6,7.3,9.4,4.7,11.8c-0.2,0.1-3.5,2.1-9.6,3c-0.1,1.6-0.3,6.5-0.8,9.3c0.7,0.4,1.8,1.5,1.6,4.4
		c0,0.1-0.6,4.4-0.6,7.5c0,0.3-1.1,5.9-10.2,5.9h0c-10.2,0-13-3.2-13.6-6l0.2-9.3c-0.1-0.5-0.4-2.2,1.5-3.9c-0.8,0-1.7-0.1-2.3-0.4
		c-0.4-0.3-0.8-0.7-0.9-1.2c-0.1-0.2-0.3-0.7-0.6-1.4c-2.4,8.5-7.2,22.5-15,27.1c-0.1,0-0.1,0.1-0.2,0.1
		C39.8,73.7,39.4,73.7,38.8,73.7"/>
	<path class="st0" d="M45.8,22.4c1.9,0.5,3.9,1.4,4.9,3.3c1.3,2.4,0.1,5-0.9,7.2c-1.6,3.4-3.9,4.4-7.3,5.3c-0.7,0.2-0.4,1.3,0.3,1.1
		c5.2-1.3,7.9-3.8,9.3-9.1c1.2-4.5-1.7-7.7-6-8.9C45.4,21.1,45,22.2,45.8,22.4"/>
	<path class="st0" d="M53.2,25.5c7.5-0.7,18.6-4,25.5,0.2c0.7,0.4,1.3-0.6,0.6-1c-7.3-4.4-18.2-1.1-26.1-0.4
		C52.5,24.4,52.5,25.6,53.2,25.5"/>
	<path class="st0" d="M50.3,31.7c0.4,4.5-0.6,5.6,3.5,7.5c3.1,1.4,6.1,2.4,9,4.3c3.8,2.6,5.3,5.9,6.3,10.3c0.2,0.7,1.3,0.4,1.1-0.3
		c-1.3-5.8-3.5-9.1-8.7-12.2c-2.6-1.5-6.3-2.2-8.5-4.2c-1.7-1.4-1.3-3.1-1.5-5.4C51.4,31,50.2,31,50.3,31.7"/>
	<path class="st0" d="M59.2,49.8c1.6,3.5,4.5,4.8,8.3,5.2c4.1,0.4,8.7,0.6,11.9-2.4c0.6-0.5-0.3-1.3-0.8-0.8
		c-4.5,4.1-15.7,3-18.3-2.6C59.9,48.6,58.9,49.2,59.2,49.8"/>
	<path class="st0" d="M59.6,55c3.8,4.2,11.6,4.2,16.4,2c0.7-0.3,0.1-1.3-0.6-1c-4.3,2-11.6,2-15-1.8C59.9,53.6,59.1,54.4,59.6,55"/>
	<path class="st0" d="M60.5,49.1c2.5,1.5,5.2,2.5,8.1,3c0.7,0.1,1.1-1,0.3-1.1c-2.8-0.4-5.4-1.3-7.8-2.8
		C60.4,47.7,59.9,48.7,60.5,49.1"/>
	<path class="st0" d="M51.5,41.4c0.7,9.2-6.2,20.8-12.3,27.4c-0.5,0.6,0.3,1.4,0.8,0.8c6.4-6.9,13.4-18.5,12.6-28.2
		C52.7,40.7,51.5,40.7,51.5,41.4"/>
	<path class="st0" d="M34.4,24.4c5,0,5.4,5.8,3.9,9.3c-0.3,0.7,0.8,1,1.1,0.3c1.8-4.3,0.7-10.8-5.1-10.8
		C33.7,23.3,33.7,24.4,34.4,24.4"/>
	<path class="st0" d="M40.3,25.6c1.6,1.4,1.4,3.5,1.1,5.4c-0.1,0.7,1.1,0.7,1.2,0c0.3-2.2,0.4-4.7-1.5-6.2
		C40.6,24.3,39.8,25.1,40.3,25.6"/>
	<path class="st0" d="M37.4,29.7c0.4,1.6,0.1,3.1-0.8,3.4s-1.9-0.9-2.4-2.5c-0.4-1.6-0.1-3.1,0.8-3.4C35.9,27,36.9,28.1,37.4,29.7"
		/>
</g>
</svg>
